<?xml version="1.0" encoding="utf-8"?>
<!-- Generator: Adobe Illustrator 27.9.0, SVG Export Plug-In . SVG Version: 6.00 Build 0)  -->
<svg version="1.1" id="Layer_1" xmlns="http://www.w3.org/2000/svg" xmlns:xlink="http://www.w3.org/1999/xlink" x="0px" y="0px"
	 viewBox="0 0 558.2 512.3" style="enable-background:new 0 0 558.2 512.3;" xml:space="preserve">
<style type="text/css">
	.st0{fill:#372E35;}
	.st1{fill:#41393F;}
	.st2{fill:#3B3236;}
	.st3{fill:#3D323B;}
	.st4{fill:#96CB47;}
	.st5{fill:#95CB48;}
	.st6{fill:#FCE8A5;}
	.st7{fill:#477944;}
	.st8{fill:#A3CF4E;}
	.st9{fill:#C6E599;}
	.st10{fill:#E2EBCE;}
	.st11{fill:#447D45;}
	.st12{fill:#97C949;}
	.st13{fill:#73AD3E;}
	.st14{fill:#AF8E2F;}
</style>
<path class="st0" d="M509.9,92.1c2.1,1.9,4.8,2.8,7.6,2.6c5.8-0.1,11.7,0.2,17.5,0.5c6.4,0.3,11.2,3.4,13.4,9.4
	c4.6,12.6,3.9,25.4,0.5,38.2c-0.3,1.3-1,2.5-1.9,3.4c-10.2,9.5-9.5,20.9-6,32.9c6.5,22.1,5.5,43.9-4.1,64.8
	c-12.9,28-35.2,45.1-64.7,53.3c-3.4-0.9-1.6-1.7-0.1-2.9c3.3-2.4,8.3-2.2,10.2-6.7h0.1l1.3-0.7h-0.1c2.5-0.1,5.1-0.1,5.6-3.4
	l0.1-0.1c1.8,0.7,2.9,0.1,2.9-1.9l0.2,0.3l-0.2-0.3c1.5,0.5,2.2-0.1,2.4-1.5l0,0c1.6,0.1,3-0.1,3-2.2l1-0.8c0.9-0.1,1.6-0.3,1.8-1.4
	l-0.1,0.1l1.2-0.9l-0.1,0.1l1.2-1l1-0.8c0.9-0.1,1.7-0.4,1.6-1.5l0.3,0.2l-0.3-0.3c3.1,0.6,4.1-1.2,4.3-3.8
	c9.2-10,17.7-20.4,22.2-33.4l1-2.3c0.1-0.1,0.2-0.2,0.1-0.4c0,0,0-0.1-0.1-0.1c0.7-0.7,1.1-1.6,1-2.6l0.1-0.2l-0.1-0.2
	c6.6-17.7,6.4-35.4-0.4-52.9c-1.6-4.2-2.6-0.7-3.7,0.5l-4.1,3.9l-1.1,1V181l-1.1,1l0.1-0.1l-1.9,1.2l0,0l-1.1,0.9l0.1-0.1
	c-0.8,0-1.6,0.4-2,1.1h0.1l-2,1.1l0,0c-5.1,1.5-9.9,3.8-15.3,4.3c-18.7,1.9-37.1,2.1-54.5-6.4v0.1l-1.1-1l0,0
	c-0.4-0.7-1.2-1.2-2-1.1l0.1,0.1l-1.1-1l0,0l-1-1l0,0l-1-1l0,0l-1-0.9l-2.1-2.1l-0.9-1l0,0l-1-1.1l0,0l-1-1.1h0.1
	c0-0.8-0.4-1.5-1.1-1.9l0,0c-0.2-1.2-0.9-2.3-1.9-3l0,0l-1-2l0,0l-1-2l0,0c-0.1-1.6-0.8-3-1.9-4.1l0,0c-2-6.5-2.4-13.5-6.9-19.1h0
	c-0.5-2.6-2.5-4.6-5.1-5h-0.1c-5.4-3.8-10.9-3.2-16.3,0.1l0.1-0.1c-0.8,0-1.6,0.4-2,1.1l0,0l-1,1l0,0c-0.4,0.3-0.7,0.7-1,1l0,0
	c-0.3,0.4-0.6,0.7-1,1l0,0c-0.7,0.4-1.2,1.1-1.2,1.9v-0.1c-1.4,1.3-2.2,3.1-2.1,5l0,0c-1.9,2-2.3,4.7-2.9,7.2v0.4
	c-0.8,0.6-1.2,1.5-1.1,2.5v-0.1c-0.7,0.4-1.1,1.3-1,2.1l0-0.1c-0.7,0.4-1.1,1.2-1,2.1l0-0.1c-0.7,0.4-1.1,1.2-1.1,2.1l0.1-0.1
	l-0.9,1.2l0,0c-0.4,0.7-0.7,1.4-1.1,2v-0.1c-0.7,0.4-1.2,1.2-1.1,2l0.1-0.1l-1,1.1h0.1l-1,1.1l0,0l-1.2,1.9l0.1-0.1
	c-0.3,0.4-0.7,0.7-1,1.1l0.1-0.1l-1,1.1l0,0l-1,1l0,0l-1,1v-0.1l-1,1.1v-0.1l-1.1,1v-0.1l-1.1,1l0-0.1l-1.1,1l0-0.1
	c-0.8,0-1.5,0.5-1.9,1.2l0,0l-1.1,1l0-0.1l-1.1,1l0-0.1c-0.8,0-1.6,0.4-2,1.1v-0.1c-5.1,1.8-10,4.5-15.5,5.3
	c-21,3.1-41.6,3.4-61.3-6.3v0.3l-1.1-1l0,0c-0.4-0.7-1.1-1.2-1.9-1.1l0.1-0.1c-0.3-0.9-1.1-1.7-2.1-1.9l0,0l-1-1l0,0l-1-1l0,0l-1-1
	l0,0l-1-1l0,0l-1-1l0,0l-1-1h0l-1-1.1h0.1c0-0.8-0.4-1.6-1.1-1.9l0,0l-1-1.1h0.1c0.1-0.8-0.3-1.6-1.1-2l0,0c0.1-0.8-0.3-1.6-1-2l0,0
	c0.1-0.8-0.3-1.6-1-2.1v0.1c0.1-1.1-0.3-2.2-1.1-3l0,0c0.1-0.8-0.3-1.6-0.9-2.1l0,0.1c0-1.1,0-2.3-1-3.1h0.1c-1-2.9,1-7.4-4.3-8
	c-0.1-0.1-0.3-0.2-0.4-0.1c0,0-0.1,0-0.1,0.1c-2.6-1.4-5.4-2.3-8.2-2.8c-1.1-0.6-1.7-2-3.1-2.1c-0.7-1.4-2.1-2.1-3.4-2.8
	c-4.5-2.3-6.3-5.8-5.7-10.9s0.8-10.2,1-15.3c0.1-2.5,1.6-3.4,3.6-4c4.3-1.2,8.4-2.9,12.3-5l5.1-5.7c2.4-2.8,7-2.7,8.9-6.3l3.9,2.1
	c30-0.8,60-0.5,89.9,0c10.5,0.2,18.8,5.3,24.2,14.4c1.3,2.1,2.4,2.7,4.7,2.2c6.9-1.4,13.9-1.5,20.9-0.5c3.2,0.4,5-0.1,6.9-2.9
	c5.3-7.7,12.5-12.1,22.1-12.7c17-1,34-0.2,50.9-0.4c1.8,0,4,1.2,5.3-1.3C505,93.1,507.6,93.5,509.9,92.1z M467.6,170.3
	c2.6,1.1,5.3,0.9,8,0.7c8.7,0.9,17.6,0.5,26.2-1.1c4.2-0.8,8-2.5,10.6-6c8.4-10.9,11-23.4,9.6-36.9c-0.9-7-5-10.7-13-10.9
	c-17.6-0.5-35.2-0.7-52.8,0c-6,0.2-9.9,3.2-11.5,9c-3.8,13.9-0.2,26.3,8.3,37.5c1.6,2.4,3.9,4.1,6.6,5
	C461.9,169.4,464.7,170.4,467.6,170.3z M288.7,124.2c-3.6,11.4-2.7,22.4,3,33c4.6,9.7,12.9,13.2,23,13.7h5.9c7,0.6,14,0.4,20.9-0.5
	c7.5-0.8,13.8-4,18.4-9.9c7-8.8,10.9-19.7,11-31c0-1.6,0.2-3.4-1.3-4.6c-1.5-6.5-4.9-9.2-12.5-9.7c-18.9-1-37.8-1-56.7,0
	C294.5,115.6,290.4,118.3,288.7,124.2z"/>
<path class="st1" d="M251.8,142.1c1.5,0.1,2,1.5,3.1,2.1l-0.2,1.9c-0.2,0.2-0.2,0.4-0.1,0.6c-0.6,0.6-1,1.5-0.9,2.4
	c-4,11.1-6.2,22.7-9.1,34.2c-2.9,11.8-4.4,23.9-9.5,35c-4.7,10.2-11.9,18.8-18.6,27.7c-5.8,6.6-11,13.6-15.8,21
	c-2.9,4.4-6,8.8-8.8,13.3c-9.3,14.6-18.2,29.3-30.7,41.7c-31,30.8-81,30.3-108.6,6.8c-24.5-20.8-35.6-47.3-31.4-79.7
	c3.1-4.9,1.1-10.1,1.1-15.2c0-1.7-0.6-3.2,1.2-4.3c3.7,5.1,2.8,11.1,3.1,17.2c4.8-1.5,9.3-3.5,14.2-4.2c16.7-2.5,27.5,6.4,28,23.3
	c0.2,5.3-0.4,10.6-1.9,15.8c0,0.4,0,0.9,0,1.3l1.2-0.4c10.3-2.9,14.7-0.7,20.9,10.6c5.3-7.6,11.1-14.3,21.7-12.6
	c9.1,1.5,16.2,6.4,23.2,12.9c1.7-5.1,4.4-8.7,9.8-9.5c2.4-0.4,0.9-2.1,0.7-3.1c-1.4-6-1.7-12.2-1-18.3c1.6-10.3,7.1-15.6,17.6-16.3
	c3.4-0.2,6.9,0,10.7,0c-2.9-7.7-4.7-15.7-5.6-23.8c-2.4-22.2,6.6-33.3,28.7-35.6c4.8-0.4,9.6-0.4,14.4-0.1h1.4l-0.4-1.2
	c-4.9-7.8-3.1-15.2,5.2-18.9c3.1-1.4,2.8-2.5,1.5-4.9c-3.3-6-5.8-12.4-7.4-19c-2.8-12.7,1.1-23,11.2-30.9c8.9-7,19.4-10.8,30.3-13.6
	c1.4-0.4,2.9-0.7,4.6-1.1c-2.3-4.2-5.1-7.7-6.2-12.1c-2-8.2,1.2-14.3,9.3-16.6c5.8-1.7,11.9-1.8,17.8-0.4c3.2,0.7,4.3,0.4,3.8-3.5
	c-1.3-9.6-1.3-19.3,1.5-28.7c4.1-13.9,13.9-20,28.1-17.2c10.4,2,20.1,6.4,28.4,12.9c2.6,2.1,4.8,2.3,8.1,1.7
	C352.9,32,357,29,360.2,23c4.3-7.8,10.5-14.3,18.1-18.9c8.8-5.6,17.6-5.4,26.2,0.6c9.6,6.7,15.6,16.2,20.4,26.6
	c2.3,5.1,6.9,6.4,11.5,3.4c6-3.9,12.3-7.3,19.5-8.6c9.7-1.8,16,1.3,20.5,10.1c3.9,7.5,5.4,15.7,6,24.1c0.1,2.5,1.3,4.8,3.3,6.2
	c8,6.5,15.4,13.8,21.8,21.9c1,1.1,2.1,2.2,2.3,3.8c-2.3,1.4-4.8,1-7.3,1.1c-9.5-10.2-19-20.5-30.1-29
	C427.5,30,367.7,23.1,318.9,52.6c-17,10.2-31.3,24.5-41.3,41.7l-3.9-2.1c1.8-5.7,6.3-9.7,9.5-14.4c1.9-2.7,1-3.8-1.7-4.4
	c-6.5-1.6-13.2-1.9-19.8-0.9c-7.8,1.5-9.8,5.1-7.1,13.1c1.8,5.3,4.8,10.1,10.2,12.9l-5.1,5.7c-0.2-2.3-1.9-2.1-3.3-1.8
	c-12.8,2.3-25,6.1-34.8,14.9c-4.8,4.2-7.9,9.6-7.9,16.5c0,11.3,5,20.8,10.3,30.3c1.2,2.1,3.3,3.7,3.4,6.7c-1.5-0.3-3.1-0.5-4.6-0.5
	c-3.7,0.4-7.4,0.8-9.3,4.6s0.2,6.8,2.3,9.6c1.8,2.5,4,4.8,6.1,7.2c-1.6,0.8-3-0.1-4.4-0.2c-7.9-0.5-15.8-1.4-23.7,0.5l-3.9,0.2
	l-1.1,0.9c-0.3,0-0.6,0-0.9,0c-1.1,0-2.3,0-3.1,1c-0.3,0-0.6,0-0.9,0.1l-2,0.9c-1.6,0.1-3,0.9-4,2.1l-1,0.9c-1.5,0.9-2.8,2-3,3.9
	c-0.3,0.7-0.6,1.4-1,2.1l0,0c-1,0.8-1,1.9-1,3c0,0.3,0,0.6,0,0.9c-1.5,4.3-1.5,8.9,0,13.2l0.2,5.9c-0.1,2.2,0.6,4.3,1.8,6.1l0.1,1.9
	l0.9,1.1c0,0.6,0,1.2,0.1,1.9l0.9,2.1l0.1,2l0.9,1c0,0.3,0,0.6,0,0.9l0.9,1.1c0,0.6,0.1,1.2,0.1,1.9l0.9,1.1c0,0.3,0,0.6,0,0.9l1,2
	l0.1,2.1l-3.2-0.2c-5.8-2.1-12-2.7-18.1-1.8c-5,0.7-8.9,3.6-9.9,9.1c-1.8,9.7,0.7,18.7,4,27.6c0.7,1.8,1.7,3.5,1.6,5.6
	c-2.1,0-3.2-1.4-4.6-2.2c-6.7-4.2-10.6-2.2-10.9,5.8c-0.1,1,0.1,2,0,3c-0.1,1.2,1.5,2.8-0.2,3.5s-2.8-1-3.6-2.1
	c-5.7-8.2-14.3-12-23.1-15.5c-5.7-1.8-11.1-0.1-15,4.8c-4.2,5.2-7.6,11-10,17.1c-0.4,1.1-0.5,2.8-2.4,2.5c-0.9-1.6-1.1-3.6-0.5-5.3
	c1-3.8,0.2-7.2-1-10.7c-2.6-7.4-8.6-9.5-15.5-5.9c-3.9,2-7.2,5-11,7.3c-0.8-1.7,0.2-2.6,0.6-3.6c3.5-9.2,7.1-18.3,6.6-28.5
	c-0.4-8.2-5.6-15.6-12.5-16.5c-7.7-1-15.3-0.3-22.4,3.4c-3.6,1.9-5.5,4.6-5.1,8.8c1.3,11.4,2.4,22.6,7.3,33.2
	C42.3,317,59.5,334,86.3,339.4c7.3,1.5,15,3.2,22.6,0.8h3.9c1.7-0.1,3.6,0.4,5.1-1h0.4h0.4c1.2,0.2,2.3-0.2,3.2-1l1.8-0.1l2.2-0.9
	h0.4h0.4l2.2-1l1.9-0.1l1.1-0.9h0.4l0.4,0l2-1l0,0l2.1-1c1.4-0.5,2.8-1.1,4.1-1.8c15.9-9.3,27.4-22.8,37.3-38.1
	c10.5-16.3,19.6-33.5,32.6-48.2c14.7-16.6,24.9-35.3,28.6-57.6C241.8,172,246,156.8,251.8,142.1z M283.6,55
	c0.5,3.7,0.9,8.4,1.7,13.2c0.5,3.3,1.7,4.4,4.7,1.4c12.9-12.6,27-23.6,43.9-30.4c3.4-1.4,3-2.8,0.4-4.8c-6.8-5-14.6-8.7-22.8-10.8
	c-13.5-3.4-22.4,2-25.7,15.6C284.5,44.4,283.8,49.7,283.6,55z M419.6,31.1c-0.2-0.6-0.5-1.2-0.8-1.8c-4.6-8.1-9.7-15.9-17.6-21.2
	c-5.4-3.7-11.2-5-17.3-1.9c-9,4.6-15.5,11.7-20.5,20.4c-1.5,2.7-0.1,3.7,2.5,3.5c3-0.2,5.9-0.8,8.9-0.9c14-0.4,27.9-0.2,41.5,3.3
	C417.8,33,419.4,33.8,419.6,31.1L419.6,31.1z M476.8,54.5c-1-5.6-2-11.7-5-17.1c-3.6-6.5-8.1-8.3-15.5-6.6
	c-5.5,1.2-10.3,3.7-15.3,6.2c-0.9,0.5-2,0.9-1.9,2s1.2,1.5,2.1,1.8c10.9,4.5,21.3,10.1,31.1,16.8c1,0.7,2.1,2,3.5,1.1
	S476.6,56.3,476.8,54.5L476.8,54.5z"/>
<path class="st2" d="M444.7,477.1c-3.3,7.5-9.1,10.7-17.2,11.3c-15.8,1.1-31.6,1.3-47.4,0.6c-9.2-0.3-12.4-6.4-14.6-13.9
	c-0.3-3.1-0.8-6.3-0.8-9.4s-1-4-4.2-3.3c-12,2.5-24.2,4.2-36.5,5c-4,0.3-6.2,1.4-5.4,5.8c-2.2,0-1.3-2.7-3-3.4
	c-2.9,1.7-3,5.7-5.8,7.4c0-18.1-3.1-35.6-8.3-52.9c-1.2-4-3-5.2-6.7-3.1c-11.1,1.4-21.6-1.6-32-5l0,0c-0.7-0.9-1.8-1.3-2.9-1.1l0,0
	c-0.9-1.3-2.4-2.1-4-2l0,0c-0.3-0.8-1.2-1.2-2-1v0.1l-1.1-1l0,0c-0.7-1-1.8-1.7-3-1.9l0,0c-0.4-0.7-1.1-1.1-1.9-1.1v0l-1-1l0,0
	c-0.7-1-1.7-1.8-2.9-2.1l-0.1,0.1l-1-1l0,0l-1-1l0,0l-1-1l0,0l-1-0.9l-0.1-0.1l-0.9-0.9l-0.1-0.1l-0.9-0.9l-0.1-0.1l-0.9-1l0,0
	c-0.3-0.3-0.6-0.7-1-1l0,0l-1-1l0,0l-1-1.1h0.1l-1-1.1h0.1c0.1-0.8-0.4-1.6-1.1-2l0,0l-1-1.1h0.1c0.1-0.8-0.3-1.6-1.1-2h0.1
	c-0.1-1.6-0.8-3-2-4l0,0c0.2-1.1-0.2-2.3-1.1-3l0,0c-1.6-8.6-1.2-17.4,1-25.9l-0.1,0.1c0.9-0.5,0.9-1.3,1-2.2v-0.4l0.9-1.5
	c0.2-0.1,0.2-0.4,0.2-0.5c0.7-0.6,1.1-1.5,1.1-2.4l-0.1,0.1l0.9-1.1l0,0c0.4-0.7,0.7-1.3,1.1-2l0,0l1.3-2
	c4.4-5.4,8.3-11.2,15.1-14.1c-5,6.6-9.3,13.8-12.9,21.3c-8.1,17.3-4.5,33.1,10.5,44.9c10.5,8.3,22.5,13.4,35.6,16.3
	c6,1.5,12.4,1.1,18.2-1c3.8-1.4,8.2-2.2,5.2-8.1c2.6,0.2,4,1.8,5.7,2.7c2.2,1,4.5,2,6.5,0s1.2-4.5,0.1-6.5c-1.3-2.1-2.7-4.2-4.4-6.1
	c-1.7-2.1-1.1-3.2,1.2-3.9c2.5-0.7,5.2-1.3,7.6-2.2c2.9-1.1,5-2.9,4.2-6.4c-0.7-3.3-3.3-5.3-6.1-4.8c-9,1.8-12.1-3.2-13.9-10.5
	c-0.3-0.8-0.6-1.5-1-2.3c-7.2-14.9-18.2-26.5-32-35.4l-0.1,0h3.7c16.2,9,27.8,22,34.4,39.3c1.4,3.6,2.4,5.3,6.8,4.5
	c5.8-1.2,11.6,2.1,13.6,7.7c1.7,5-0.7,10.4-6.6,13.5c-2.7,1.4-2.2,2.6-1.4,4.8c3.2,8.8-1.9,15.6-11,15.1c-4.7-0.2-5.8,1-4.3,5.4
	c3.6,10,6.7,20.2,8.3,30.8c0.4,2.8,1.5,3.8,4.6,3.5c13.3-1.2,26.5-2.5,39.6-4.7c24.8-4.2,48.6-11,70-24.8c4.3-2.8,8.5-5.6,11.9-9.9
	c-6.2-3-7.8-8-6.4-13.9c0.8-3.3-0.5-4-3.2-5c-10.1-4-11.5-14.6-2.9-21.3c2.6-2.1,5.6-3.6,8.9-4.4c2-0.4,3.5-2,3.8-4
	c3.7-14,9.9-27.3,18.5-39c6.1-8.4,8.8-16.2,3.9-25.7c0-1.3,0.1-2.6,0.2-3.9l16.3-8.5c-1.9,4.5-6.9,4.3-10.2,6.7
	c-1.5,1.1-3.3,2,0.1,2.9c-2.5,1.6-0.7,3.7-0.3,5.3c3.6,13,8.2,25.6,10.3,39c3,18.4,0,37.2-8.5,53.8c-4.2,8.4-10.3,15.2-19.2,18.7
	c-2.7,1.1-2.8,2.7-2.7,5c0.7,14.6-0.3,29.3-2.9,43.7C447.8,467.5,446.5,472.4,444.7,477.1z M444.3,423.7
	c-18.8,16.7-40.8,27.4-64.8,34.2c-8.7,2.5-8.7,2.5-7.8,11.4c1,9.3,5.6,13.7,14.9,13.9c10.8,0.1,21.7,0,32.5,0.1
	c7.7,0.1,12.8-3.3,15.7-10.6c6.3-15.5,8.7-31.7,10.2-48.2c0.3-0.4,0.5-0.8,0-1.1C445,423.2,444.6,423.5,444.3,423.7z M469.7,318.5
	c-1.4,2.8-2.9,5.5-4.2,8.4c-5.8,12.4-9.8,25.4-14.1,38.4c-1.7,5-3.9,9-9.8,9.9c-1.6,0.4-3.2,1.1-4.5,2c-2.3,1.3-4.9,2.7-4.5,5.9
	c0.4,3.5,3.4,4.1,6.1,5.1c3.1,1.1,6.5,0.5,10.2,1.1c-2,3.9-3.9,7.2-4.6,10.9c-0.3,1.8-1.3,3.8,0.3,5.2c1.8,1.6,3.8,0.3,5.6-0.5
	c5.3-2.5,9.8-6.5,12.7-11.6C477.1,369.7,477,344.5,469.7,318.5z"/>
<path class="st3" d="M309.8,477.1c2.8-1.8,2.9-5.7,5.8-7.4c1.6,0.7,0.8,3.4,3,3.4l0.4,2l-0.4,1c-2.5,0.8-2.2,2.3-0.9,4
	c-0.4,2.2-1.8,4.1-3.8,5.1c-1.4,0-2.8-0.1-3.1,1.7l-1,0.2c-1.2-1.3-1.7-0.5-2,0.7l-2,0.3c-2.6-1.5-5-1.7-7,0.9l-1,0
	c-5.5-2-11.3-0.7-17-0.8c-3.3-0.1-6.9-1.1-10,0.9l-25-0.5c-3.5-2.9-7.2-1.8-11-0.5l-6-0.4c-1-2.3-2.4-1.9-4-0.7l-1-0.1
	c-0.4-1.9-1.8-1.8-3.2-1.7c-2.2-1.4-3.9-3.4-4.9-5.7c0.1-1.6,0.2-3.1-2-3.3v0c0-2.3-0.1-4.5-3-5l0.1,0c-0.6-3-3-2.2-4.8-2.1
	c-9.6,0.5-19.2-0.7-28.8-1.4c-16.2-1.2-32-4.8-47.7-9c-1.3-0.3-2.5-1.1-3.7,0.2c-42.5-11.4-76.4-34.7-100.3-71.8
	c-4.9-7.6-8.8-15.7-11.6-24.2c1.2-4.8-2-8.7-3-13c-0.9-3.8-0.2-4.9,3.2-5.2L14,345c-0.2,0.9,0.2,1.8,1,2.2v0.4
	c-0.1,2.2,0,4.2,2.1,5.5L17,353c-0.3,1.9,0.1,3.4,1.9,4.2v0.4c-0.2,1,0.2,1.9,1.1,2.5V360c-0.2,0.9,0.2,1.7,1,2.2
	c0.1,0.2,0.1,0.4,0,0.5c-0.1,1.2,0.2,2.1,1.5,2.4c0.3,0.1,0.5,0.4,0.5,0.6c-0.2,0.9,0.2,1.8,1.1,2.3l-0.1-0.1l0.8,1.1l1.2,2.8
	l0.9,1.2c0.1,0.2,0.2,0.4,0.1,0.7L28,375V375c-0.2,0.8,0.2,1.7,1,2.1c0.8,0.3,0.9,1,0.9,1.8L31,380l0-0.1l0.9,1.2
	c0.1,0.2,0.2,0.5,0.1,0.7L33,383l-0.1-0.1L34,384l0.8,1.8L36,387l-0.1-0.1L37,388l3.9,4.8l1.1,1.2l1.9,2c-0.1,0.8,0.4,1.7,1.2,1.9
	l-0.1-0.1L46,399l-0.1-0.1L47,400l-0.1-0.1L48,401l-0.1-0.1L49,402l-0.1-0.1L50,403l-0.1-0.1L51,404l-0.1-0.1L52,405l-0.1-0.1
	L53,406l-0.1-0.1L54,407l-0.1-0.1c0.3,0.8,1,1.3,1.8,1.2l2.1,1.9l1.1,1.1l-0.1-0.1l1.2,1l-0.1-0.1L61,413l-0.1-0.1l1.1,1l-0.1-0.1
	c0.3,1,1.1,1.2,2,1.2l0,0c0,1.4,0.7,2.1,2.2,1.9H66c0.3,1,1.1,1.2,2,1.2v0c0.1,1.4,0.7,2.1,2.2,1.9h-0.1c0.3,1,1.1,1.2,2,1.2v-0.1
	c0.1,2.1,1.5,2.2,3,2.1H75l1.4,1l0.2-0.1l0.2,0.2c0.2,1.9,1.6,2,3.1,1.9l0,0c0.6,2.9,2.8,3,5.1,3h-0.1l1.2,1v-0.1
	c1.7,3.2,4.6,4.1,8,4.1h-0.1c0.6,1.3,1.8,1.2,3,1.2h-0.1c4.7,4.9,10.9,5.8,17.1,7l-0.1-0.1c0.7,1.3,1.9,1.2,3.1,1.1l-0.1-0.1
	c7,4.1,14.9,5,22.6,6.7c19.4,4.2,39.1,5.8,58.9,6.5c1.8,0.1,3.7,0.5,5.3-0.7l1.2-0.2c2-0.1,3.8-0.5,4.9-2.6c1.3-2.4,1.9,0.3,2.9,0.5
	c0.1,0.3,0.1,0.6,0.1,0.9c-0.1,1.1-0.1,2.3,0.9,3.1c0.1,0.3,0.1,0.6,0.1,0.9c-0.1,0.8,0.2,1.6,0.9,2.1c0.1,0.3,0.1,0.6,0.1,0.8
	c-0.1,2,0.3,3.9,2.1,5.1l-0.1-0.1c0.3,3.2,0.4,6.5,4.2,8V474c-0.2,1.5,0.5,2.1,1.9,2.2l2.9,2.9c0.1,2.3,2.1,2.3,3.5,2.9
	c5.5,2.2,11.5,1.9,17.1,2.1c16.6,0.6,33.2,0.4,49.8,0.1c3.2,0,7.1,0.4,9.5-3l1.7-1l1.3-1l-0.1,0.1l1-1.3
	C309.6,477.6,309.6,477.3,309.8,477.1z"/>
<path class="st2" d="M14.1,344.8c-3.4,0.3-4.1,1.5-3.2,5.2c1,4.3,4.2,8.2,3,13c-7.2-16.8-10.9-34.5-12.7-52.6
	c-2.5-24.2-1.3-48.2,6.7-71.4c1.2-3.5,2.5-6.9,5.2-9.6s5.4-4,8.8-1.4l1.3,1.2c0.2,0,0.4,0.1,0.4,0.3c0,0,0,0.1,0,0.1
	c-1.8,1.1-1.2,2.6-1.2,4.3c0,5.1,2,10.4-1.1,15.2c0.9-5.1,0.8-10.3-0.3-15.4c-0.7-3.2-2.4-3.3-4.5-1.3c-3,2.8-4.4,6.6-5.7,10.4
	c-5.3,16-6.8,32.4-6.3,49.2C5.1,310.1,9.2,327.5,14.1,344.8z M9.5,338.6c-0.9,0.3-1.5,0.9-1.4,1.8c0.2,1.4,0.9,2.6,2.4,2.9
	c1.2,0.2,1.2-0.9,1.1-1.7C11.4,340.3,11.1,338.9,9.5,338.6L9.5,338.6z"/>
<path class="st2" d="M125.8,459c1.2-1.3,2.4-0.5,3.7-0.2c15.7,4.2,31.5,7.8,47.7,9c9.6,0.7,19.1,1.9,28.8,1.4c1.8-0.1,4.2-1,4.8,2.1
	c-27.6-0.4-55-3.1-81.6-11.1C128,459.8,126.9,459.4,125.8,459z"/>
<path class="st2" d="M210.6,471.2c3,0.5,3,2.8,3,5l-1.2-1.3L210.6,471.2z"/>
<path class="st1" d="M23.2,229.2l-1.3-1.2L23.2,229.2z"/>
<path class="st4" d="M14.1,344.8C9.2,327.5,5,310.1,4.5,292c-0.5-16.7,1-33.2,6.3-49.2c1.3-3.8,2.7-7.6,5.7-10.4
	c2.1-2,3.8-1.9,4.5,1.3c1,5.1,1.1,10.3,0.2,15.3c-4.2,32.3,6.9,58.9,31.4,79.7c27.6,23.6,77.6,24,108.6-6.8
	c12.4-12.3,21.4-27.1,30.7-41.7c2.9-4.5,5.9-8.9,8.8-13.3c1.7,1.4,1.7,3.5,2.1,5.4c1.1,5.9,6.2,10.3,12.2,10.5
	c4.4,0.1,8.2-3.6,9.7-9.1c1.3-5.3,1.3-10.9,0-16.2c-1.1-5-3-9.4-8.1-11.6c6.6-8.9,13.8-17.5,18.6-27.7c5.2-11.1,6.6-23.3,9.5-35
	c2.8-11.4,5.1-23,9.1-34.2c0.7-0.6,1-1.5,0.9-2.4c-0.1-0.2-0.1-0.4,0.1-0.6l8.5,0.9c0.1-0.1,0.3-0.2,0.4-0.1c0,0,0.1,0,0.1,0.1
	c2.8,1.9,1.6,6,4.3,8h-0.1c-0.1,1.2-0.2,2.4,1,3l0-0.1c-0.2,0.8,0.2,1.7,0.9,2.1l0,0c0,1.1-0.1,2.3,1.1,3v-0.1
	c-0.2,0.8,0.2,1.7,1,2.1l0,0c-0.2,0.8,0.2,1.6,1,2l0,0c-0.2,0.8,0.3,1.7,1.1,2h-0.1l1,1.1l0,0c-0.1,0.8,0.3,1.6,1.1,1.9H276l1,1.1h0
	l1,1l0,0l1,1l0,0l1,1l0,0l1,1l0,0l1,1l0,0l1,1l0,0c0,1.4,0.7,2,2.1,1.9l-0.1,0.1c0.3,0.8,1.1,1.2,1.9,1.1l0,0l1.1,1V183
	c1.9,3.4,5.5,3.9,8.7,5.2c12.5,5.2,25.8,3.6,38.8,4c8.1,0.3,15.8-1.6,23.3-4.3c2.3-0.8,4.9-1.4,6-4v0.1c0.9,0.2,1.7-0.3,2-1.1l0,0.1
	l1.1-1l0,0.1l1.1-1l0,0c0.8,0.1,1.6-0.4,1.9-1.2l0,0.1l1.1-1l0,0.1l1.1-1v0.1l1.1-1v0.1l1-1.1v0.1l1-1l0,0l1-1l0,0l1-1.1l-0.1,0.1
	l1-1.1l-0.1,0.1c0.8-0.3,1.2-1.1,1.2-1.9l0,0l1-1.1h-0.1l1-1.1l-0.1,0.1c0.8-0.3,1.3-1.2,1.1-2v0.1c0.7-0.4,1.2-1.2,1.1-2l0,0
	l0.9-1.2l-0.1,0.1c0.8-0.3,1.3-1.2,1.1-2.1l0,0.1c0.8-0.3,1.3-1.2,1-2.1l0,0.1c0.8-0.3,1.2-1.2,1-2.1v0.1c1-0.6,1.1-1.5,1.1-2.5
	v-0.4c2.7-1.7,3-4.4,2.9-7.2l0,0c2-1.1,2.3-2.9,2.1-5v0.1c0.8-0.3,1.2-1.1,1.2-1.9l0,0c0.3-0.3,0.6-0.7,1-1l0,0c0.3-0.3,0.7-0.7,1-1
	l0,0l1-1l0,0c0.8,0.1,1.6-0.4,2-1.1l-0.1,0.1c5.4-1,10.9-1.1,16.3-0.1h0.1c0.9,2.3,2.7,4.2,5.1,5l0,0c2.2,6.4,2.8,13.4,6.9,19.1l0,0
	c-0.3,1.8,0,3.3,1.9,4.1l0,0c-0.1,0.8,0.3,1.6,1,2l0,0c-0.1,0.8,0.3,1.6,1,2l0,0c-0.1,1.5,0,2.9,1.9,3l0,0c-0.1,0.8,0.4,1.6,1.1,1.9
	h-0.1l1,1.1l0,0l1,1.1l0,0l0.9,1l2.1,2.1l1,0.9l0,0c0.4,0.3,0.7,0.6,1,1l0,0l1,1l0,0l1.1,1l-0.1-0.1c0.3,0.8,1.2,1.2,2,1.1l0,0
	l1.1,1v-0.1c4.1,5.1,10.3,5.7,15.9,7.1c12.9,3.1,26,2.8,39,0.9c5.2-0.8,10.9-1.4,14.8-5.9l0,0c0.8,0.1,1.6-0.3,2-1.1h-0.1
	c0.8,0.1,1.6-0.3,2-1.1l-0.1,0.1l1.1-0.9l0,0c0.8,0,1.6-0.4,1.9-1.2l-0.1,0.1l1.1-1v0.1l1.1-1l4.1-3.9c1.7,0.6,3.1,2,3.7,3.7
	c1.8,5.1,2.9,10.5,3.3,15.9c0.6,11.1-0.9,22-3,32.9l0.1,0.2l-0.1,0.2c-0.8,0.6-1.2,1.6-1,2.6c0.1,0.1,0.1,0.3,0,0.4
	c0,0-0.1,0-0.1,0.1c-0.7,0.5-1.1,1.4-1,2.3c-4.5,13.1-13,23.4-22.2,33.4l-1.5,1c-0.5-0.4-1-0.9-1.4-1.4
	c-5.8-10.2-14.8-16.3-25.6-19.9c-8.5-2.8-17.3-4.6-26.2-5.4c0.1-0.6,0.5-1.6,0.3-1.9c-1.1-1.2-1.6,0.2-2.2,0.7
	c-11.4,9.6-24.9,13.7-39.5,14.3c-17.9,0.7-34.6-2.8-49.1-14.1c-1.3-1-2.4-1.8-2.1,0.9c-5.6,1.4-11.3,2.6-16.9,4.1
	c-12.3,3.5-24.2,7.9-34.6,15.9c-6,4.6-10.1,10.9-15.2,16.3c-18.1-16.8-25.3-37.2-19.9-62.5c-13.2,20.7-5.2,50.2,18.4,67.1
	c0,0.2-0.1,0.4-0.2,0.5c-4.4,15.3-10.9,29.7-16.5,44.6h-3.7l-0.1-0.3l0.2,0.3c13.8,9,24.8,20.5,32,35.4c0.4,0.7,0.7,1.5,1,2.3
	c1.8,7.2,5,12.3,13.9,10.5c2.8-0.6,5.5,1.5,6.1,4.8c0.7,3.5-1.4,5.3-4.2,6.4c-2.5,0.9-5.1,1.5-7.6,2.2c-2.4,0.7-2.9,1.8-1.2,3.9
	c1.6,1.9,3.1,3.9,4.4,6.1c1.1,2.1,1.8,4.5-0.1,6.5s-4.3,1.1-6.5,0c-1.8-0.8-3.1-2.5-5.7-2.7c3,5.9-1.4,6.7-5.2,8.1
	c-5.8,2.1-12.2,2.5-18.2,1c-13-2.9-25-8-35.6-16.3c-15-11.8-18.6-27.5-10.5-44.9c3.5-7.5,7.8-14.7,12.9-21.3
	c-6.8,2.9-10.7,8.8-15.1,14.1c-0.9,0.3-1.4,1.1-1.3,2l0,0c-0.7,0.4-1.1,1.2-1.1,2l0,0l-0.9,1.1l0.1-0.1c-0.8,0.5-1.3,1.4-1.1,2.4
	c0.1,0.2,0,0.4-0.2,0.5c-0.3,0.5-0.6,1-0.9,1.5v0.4c-0.7,0.4-1.1,1.3-1,2.2l0.1-0.1c-4.5,8.5-4.5,17.1-1,25.9l0,0
	c-0.1,1.2-0.3,2.4,1.1,3l0,0c-0.4,1.8-0.1,3.4,2,4h-0.1c-0.2,0.8,0.3,1.7,1.1,2h-0.1l1,1.1l0,0c-0.2,0.8,0.3,1.7,1.1,2h-0.1l1,1.1
	h-0.1l1,1.1l0,0l1,1l0,0c0.3,0.3,0.6,0.7,1,1l0,0l0.9,1l0.1,0.1l0.9,0.9l0.1,0.1l0.9,0.9l0.1,0.1l1,0.9l0,0l1,1l0,0l1,1l0,0l1,1
	l0.1-0.1c-0.1,2.1,1.4,2.2,2.9,2.1l0,0l1,1v0c0.4,0.7,1.1,1.1,1.9,1.1l0,0c0.2,2,1.5,2,3,1.9l0,0l1.1,1v-0.1c0.3,0.8,1.2,1.3,2,1
	l0,0c0.6,2.1,2.1,2.4,4,2l0,0c0.6,1.3,1.8,1.2,2.9,1.1l0,0c2.1,3.3,5.9,3.5,9.1,4.2c7.5,1.6,15.1,5.2,22.9,0.9
	c3.7-2.1,5.5-0.8,6.7,3.1c5.2,17.3,8.3,34.9,8.3,52.9c-0.2,0.2-0.2,0.4-0.1,0.6l-1,1.3l0.1-0.1l-1.3,1l-1.7,1
	c-2.6,0.5-5.2,1.1-7.8,1.3c-20.2,1.7-40.4,0.2-60.6-0.7c-4,0-7.9-0.9-11.5-2.7l-2.9-2.9c-0.3-1-1-1.8-1.9-2.2v0.1
	c-0.9-2.9-2.3-5.6-4.2-8l0.1,0.1c-0.3-1.9-0.2-3.9-2.1-5.1c0-0.3,0-0.6-0.1-0.8c0.4-0.8,0-1.8-0.9-2.1c0,0,0,0,0,0
	c0-0.3,0-0.6-0.1-0.9c0.7-0.9,0.5-2.2-0.5-2.9c-0.1-0.1-0.3-0.2-0.4-0.2c0-0.3,0-0.6-0.1-0.9c-1.7-11.7-4.6-23.3-4.9-35.5
	c-1.4,1.4-1.7,2.9-2.1,4.5c-2.6,11-1.5,22-0.8,33l-1.2,0.2c-18-1.5-36-2.2-53.9-5.2c-11.1-1.9-21.9-5-32.9-7.3l0.1,0.1
	c-0.8-1.1-1.9-1.1-3.1-1.1l0.1,0.1c-5.4-3-11.3-4.9-17.1-7h0.1c-0.8-0.9-1.9-1.3-3-1.2h0.1c-2.3-2-5-3.4-8-4.1V430l-1.1-1h0.1
	c-1.4-1.4-3.2-2.4-5.1-3l0,0c-0.8-1-1.8-1.7-3.1-1.9l-0.2-0.2l-0.2,0.1l-1.5-1h0.1c-0.7-1-1.8-1.7-3-2.1v0.1c-0.4-0.7-1.2-1.2-2-1.2
	h0.1c-0.5-1-1.4-1.7-2.5-1.8v0c-0.4-0.7-1.2-1.2-2-1.2H66c-0.4-0.9-1.1-1.6-2.1-1.9l0,0c-0.4-0.8-1.2-1.2-2-1.2l0.1,0.1
	c0-0.6-0.5-1-1.1-1L61,413l-1.1-1.1L60,412l-1.1-1l0.1,0.1c-0.4-0.4-0.7-0.7-1.1-1.1l-2.1-1.9c-0.3-0.7-1-1.2-1.8-1.2L54,407
	l-1.1-1.1l0,0.1l-1.1-1.1L52,405l-1.1-1.1L51,404l-1.1-1.1L50,403l-1.1-1.1L49,402l-1.1-1.1L48,401l-1.1-1.1L47,400l-1.1-1.1L46,399
	l-1.1-1.1L45,398c-0.1-0.8-0.5-1.5-1.2-1.9l-1.9-2l-1.1-1.2l-3.8-4.9l-1.1-1.1l0.1,0l-1.1-1.1L34,384l-1.1-1H33l-1.1-1.2
	c0-0.2,0-0.5-0.1-0.7l-0.9-1.2L31,380l-1.1-1.2c0-0.8,0-1.4-0.9-1.8l-1.1-2v0.1l-1.1-1.3c0.1-0.2,0-0.5-0.1-0.7l-0.9-1.2l-1.2-2.8
	l-0.8-1.1l0.1,0.1l-1.1-2.3c0-0.3-0.2-0.5-0.5-0.6c-0.2-1-0.4-2-1.5-2.4c0.1-0.2,0.1-0.4,0-0.5c0.2-0.9-0.2-1.7-0.9-2.2l0,0.1
	c0.1-1-0.3-1.9-1.1-2.5v-0.4c-0.1-1.6-0.8-3.1-2-4.2l0,0.1c-0.1-2-0.8-4-2.1-5.5v-0.4c-0.1-0.8-0.1-1.7-1-2.2L14.1,344.8z
	 M262.6,361.1c8.4,0,14.2-5.1,14.1-12.6c0-7.7-5.4-13.4-12.8-13.5c-8.7-0.1-14.2,5.4-14.2,14.3C249.7,356.7,254.5,361.1,262.6,361.1
	z M245.6,263.4c0.1-4.2-3.8-9-7.6-9.1c-3.5-0.2-6.9,3.8-7.1,8.2s3.2,8.6,7.2,8.7S245.5,267.7,245.6,263.4L245.6,263.4z M420.6,204.8
	c1.7-3.4,2.9-5.7,4-8c1.5-2.9,3.1-5.7,6.9-5.5s6.1,2.8,7.5,6.3c0.8,2,0.3,4.6,2.3,6.3c2.4-6.1,1.2-11.9-2.8-15.2
	c-3.8-2.9-9-3.2-13.1-0.8C421,190.6,418.9,197,420.6,204.8L420.6,204.8z M377.6,204c2-2.4,2.1-5.4,3.3-7.8c1.4-2.9,3.6-4.9,7-4.8
	s5.2,2.1,6.3,4.9c0.8,2,1.3,4.1,2,6.1c0.2,0.6,0.7,1.3,1.2,1.4c0.9,0.2,1.3-0.7,1.7-1.5c2.6-5.6-3.2-15.7-9.4-16.3
	C379.8,185,374.1,193.2,377.6,204L377.6,204z M257.7,379.1c3.3,0.1,4.7-2,4.9-4.6s-1.6-4.3-4.3-4.3c-3,0-4.4,1.8-4.6,4.7
	S254.9,379.3,257.7,379.1z M246.9,368.1c2-0.4,3.6-1.4,3.6-3.4c-0.1-2.3-1.8-3.5-4-3.4c-1.9,0.1-3.3,1.7-3.2,3.6c0,0,0,0.1,0,0.1
	C243.2,367.1,245,367.9,246.9,368.1L246.9,368.1z"/>
<path class="st5" d="M277.6,94.2c10.1-17.1,24.3-31.5,41.3-41.7C367.7,23.1,427.5,30,472.4,64.2c11.2,8.5,20.6,18.8,30.1,29
	c-1.2,2.5-3.5,1.2-5.3,1.3c-17,0.2-34-0.7-50.9,0.4c-9.5,0.6-16.8,5-22.1,12.7c-1.9,2.8-3.7,3.3-6.9,2.9c-6.9-1-14-0.9-20.9,0.5
	c-2.3,0.5-3.5-0.1-4.7-2.2c-5.4-9.1-13.7-14.3-24.2-14.4C337.5,93.8,307.5,93.4,277.6,94.2z M393.4,73.1c-4.2-0.2-5.6,2.3-5.7,5.9
	s2,5.9,5.8,6.1c3.3,0.1,6-2.5,6.1-5.7c0-0.2,0-0.4,0-0.7C399.5,75,397,73.3,393.4,73.1z M393,67.1c1.5,0.1,2.6-0.4,2.7-2.1
	c0.1-1.5-0.2-2.7-2-2.7c-1.3-0.2-2.6,0.8-2.7,2.1c0,0,0,0,0,0.1C390.6,66.1,391.4,67,393,67.1L393,67.1z"/>
<path class="st6" d="M482.2,287.7l-16.3,8.5c-1,0.2-1.9,0.5-2.9,0.8c-24.9,10.5-51.9,15-78.9,13.2c-22.9-1.4-45-6.3-65.9-16.1
	c-3.7-1.8-6.8-4.7-11-5.5l-8.8-7.2c-0.1-1.3,0.8-2.1,1.4-3.1c10.3-15.2,25.8-22.4,42.7-27.1c7.1-2,14.4-3.6,21.6-5.4
	c0.9,0.4,1.8,0.9,2.6,1.4c24.3,17.5,62.1,16.9,85.8-1.4c3.1,0.5,6.2,1,9.4,1.4c17.5,2.5,33.9,7.4,44.5,23.2l-1.1,1.3l0.3,0.3
	l-0.3-0.2l-1.6,1.5l-1,0.8l-1.2,1.1l0.1-0.1l-1.2,0.9l0.1-0.1l-1.8,1.4l-1,0.8l-3,2.2l0,0l-2.4,1.5l0.2,0.3l-0.2-0.3l-2.9,1.9
	l-0.1,0.1l-5.6,3.4h0.1L482.2,287.7L482.2,287.7z"/>
<path class="st7" d="M251.8,142.1c-5.8,14.7-10,29.9-12.5,45.5c-3.7,22.2-13.9,40.9-28.6,57.6c-0.9-4.4-4.9-3.2-7.6-4
	c-3.7-1.2-7.3-2.6-7.2-7c0.1-10.7-0.9-21.4,0.6-32.2c0.5-3.4,2-7.8-2.8-9.9c7.9-1.9,15.8-1,23.7-0.5c1.4,0.1,2.8,1,4.4,0.2
	c-2.1-2.4-4.2-4.7-6.1-7.2c-2.1-2.8-4.1-5.9-2.3-9.6s5.6-4.3,9.3-4.6c1.6,0,3.1,0.2,4.6,0.5c-0.2-3-2.3-4.6-3.4-6.7
	c-5.3-9.5-10.3-18.9-10.3-30.3c0-7,3.2-12.3,7.9-16.6c9.9-8.8,22.1-12.6,34.8-14.9c1.5-0.3,3.1-0.4,3.3,1.8c-3.9,2.1-8,3.8-12.3,5
	c-2,0.6-3.5,1.5-3.6,4c-0.2,5.1-0.4,10.2-1,15.3s1.2,8.6,5.7,10.9C249.7,140,251.1,140.7,251.8,142.1z"/>
<path class="st8" d="M314.7,170.9c-10.1-0.5-18.4-4-23-13.7c0-1.4,0.9-2.4,1.9-3.4c5.3-5.6,10.8-11.2,15.9-17
	c3.6-4.1,7.6-7.8,10.5-12.4l31.9,0.7c-0.1,1.2-0.6,2.3-1.5,3.1c-8.6,9.9-17.4,19.7-25.7,29.9C321.3,162.2,316.4,165.3,314.7,170.9z"
	/>
<path class="st9" d="M459.6,167.7c-2.7-0.9-5-2.6-6.6-5c-8.5-11.2-12.1-23.6-8.3-37.5c7.8,0,15.6-0.1,23.5,0.1
	c8.6,0.2,17.3-0.7,25.9,0.5c-3.7,6.9-9.7,12-14.5,18C473,151.8,466.3,159.7,459.6,167.7z"/>
<path class="st8" d="M369.6,124.9c1.5,1.2,1.4,3,1.3,4.6c-0.1,11.3-4,22.2-11,31c-4.7,5.9-10.9,9-18.4,9.9c-6.9,0.9-13.9,1-20.9,0.5
	c-0.1-2.3,1.6-3.5,2.9-5c11.6-13.4,23.5-26.6,34.3-40.6C361.7,124.9,365.7,125.8,369.6,124.9z"/>
<path class="st8" d="M522,127.1c1.4,13.5-1.2,26-9.6,36.9c-2.6,3.4-6.5,5.2-10.6,6c-8.6,1.6-17.5,1.9-26.2,1c1.9-4.7,5.7-8.1,8.8-12
	c9-11,19.2-21.1,27.4-32.9C515.2,125.6,518.6,126.3,522,127.1z"/>
<path class="st10" d="M369.6,124.9c-3.9,0.9-7.9,0-11.8,0.3l-6-0.2l-31.9-0.7l-31.2-0.2c1.7-5.9,5.8-8.6,11.7-8.9
	c18.9-1,37.8-1,56.7,0C364.7,115.7,368.1,118.5,369.6,124.9z"/>
<path class="st10" d="M522,127.1c-3.4-0.8-6.8-1.4-10.3-0.9c-2.3-1.7-4.8-0.8-7.3-0.7c-3.4,0-6.9-0.7-10.3,0.3
	c-8.6-1.2-17.3-0.3-25.9-0.5c-7.8-0.2-15.6-0.1-23.5-0.1c1.6-5.8,5.5-8.7,11.5-9c17.6-0.7,35.2-0.6,52.8,0
	C517,116.4,521.1,120,522,127.1z"/>
<path class="st9" d="M288.7,124.2l31.2,0.2c-2.9,4.7-6.9,8.4-10.5,12.4c-5.1,5.8-10.6,11.4-15.9,17c-0.9,1-1.8,1.9-1.9,3.4
	C286,146.6,285.1,135.6,288.7,124.2z"/>
<path class="st11" d="M264.8,98.4c-5.4-2.7-8.4-7.5-10.2-12.9c-2.6-8-0.7-11.6,7.1-13.1c6.6-1.1,13.3-0.8,19.8,0.9
	c2.7,0.6,3.6,1.7,1.7,4.4c-3.3,4.7-7.7,8.7-9.5,14.4C271.7,95.7,267.2,95.5,264.8,98.4z"/>
<path class="st8" d="M494.1,125.7c3.4-0.9,6.9-0.2,10.3-0.3c0.1,1-0.3,2-1.1,2.6c-6.9,7.8-13.4,15.9-20.4,23.6
	c-5.4,5.9-11.3,11.5-15.4,18.6c-2.9,0.1-5.7-0.8-7.9-2.6c6.6-8,13.4-15.9,19.9-23.9C484.4,137.8,490.4,132.7,494.1,125.7z"/>
<path class="st9" d="M467.6,170.3c4-7.1,9.9-12.7,15.4-18.6c7-7.7,13.5-15.9,20.4-23.6c0.8-0.6,1.2-1.6,1.1-2.6c2.5-0.1,5-1,7.3,0.7
	c-8.2,11.8-18.3,21.8-27.4,32.8c-3.1,3.8-6.9,7.2-8.8,12C472.9,171.2,470.2,171.4,467.6,170.3z"/>
<path class="st9" d="M351.8,125.1l6,0.2c-10.9,14-22.7,27.2-34.3,40.6c-1.3,1.5-3,2.7-2.9,5h-5.9c1.7-5.6,6.6-8.7,10-12.9
	c8.3-10.2,17.1-19.9,25.7-29.9C351.3,127.3,351.8,126.2,351.8,125.1z"/>
<path class="st12" d="M364.6,184c-1.1,2.6-3.7,3.2-6,4c-7.5,2.7-15.1,4.5-23.3,4.3c-13-0.4-26.3,1.2-38.8-4
	c-3.1-1.3-6.8-1.9-8.7-5.2c19.6,9.7,40.3,9.5,61.3,6.3C354.6,188.5,359.5,185.8,364.6,184z"/>
<path class="st12" d="M516.7,186.1c-3.9,4.5-9.6,5.1-14.9,5.9c-13,1.9-26.1,2.1-39-0.9c-5.6-1.4-11.9-1.9-15.9-7.1
	c17.4,8.6,35.9,8.4,54.5,6.4C506.7,189.8,511.6,187.6,516.7,186.1z"/>
<path class="st12" d="M533.8,228.7c2-10.9,3.5-21.7,3-32.9c-0.4-5.4-1.5-10.8-3.3-15.9c-0.6-1.7-2-3.1-3.7-3.7
	c1.1-1.2,2.1-4.6,3.7-0.5C540.2,193.3,540.4,211,533.8,228.7z"/>
<path class="st12" d="M427.9,160.1c-4-5.7-4.6-12.7-6.9-19.1C425.5,146.6,426,153.6,427.9,160.1z"/>
<path class="st12" d="M415.9,135.9c-5.4-1-10.9-1-16.3,0.1C405,132.7,410.4,132.1,415.9,135.9z"/>
<path class="st12" d="M263.2,147l-8.5-0.9l0.2-1.9C257.9,144.7,260.6,145.6,263.2,147z"/>
<path class="st12" d="M268,155.1c-2.6-2-1.4-6.1-4.3-8C269,147.7,267,152.2,268,155.1z"/>
<path class="st12" d="M421,140.9c-2.4-0.8-4.2-2.7-5.1-5C418.5,136.3,420.5,138.3,421,140.9z"/>
<path class="st12" d="M391.5,147c0,2.8-0.2,5.5-2.9,7.2C389.2,151.7,389.6,149.1,391.5,147z"/>
<path class="st2" d="M505.3,271.6l1.1-1.3l1.7-1.5l1.5-1C509.3,270.4,508.4,272.2,505.3,271.6z"/>
<path class="st2" d="M483.6,287l5.6-3.4C488.7,287,486.1,286.9,483.6,287z"/>
<path class="st12" d="M393.6,142c0.2,2.1-0.1,3.9-2.1,5C391.4,145.1,392.1,143.3,393.6,142z"/>
<path class="st12" d="M429.8,164.1c-1.9-0.8-2.2-2.3-1.9-4.1C429,161.1,429.7,162.6,429.8,164.1z"/>
<path class="st2" d="M489.3,283.5l2.9-1.9C492.2,283.7,491.1,284.2,489.3,283.5z"/>
<path class="st2" d="M494.6,280.1l3-2.2C497.6,279.9,496.2,280.2,494.6,280.1z"/>
<path class="st12" d="M433.7,171.1c-2-0.2-2-1.5-1.9-3C432.8,168.8,433.5,169.9,433.7,171.1z"/>
<path class="st12" d="M284.9,180.9c-1.4,0.2-2-0.5-2.1-1.9C283.8,179.3,284.6,180,284.9,180.9z"/>
<path class="st2" d="M492.3,281.6l2.4-1.5C494.5,281.5,493.8,282.1,492.3,281.6z"/>
<path class="st12" d="M270.9,163.1c-1.3-0.7-1.2-1.8-1.1-3C270.6,160.9,271,162,270.9,163.1z"/>
<path class="st12" d="M268.9,158.1c-1.3-0.7-1.2-1.9-1-3C268.9,155.8,269,157,268.9,158.1z"/>
<path class="st2" d="M503.6,273.1l1.6-1.5C505.3,272.8,504.5,273,503.6,273.1z"/>
<path class="st2" d="M498.6,277.1l1.8-1.4C500.3,276.8,499.5,277,498.6,277.1z"/>
<path class="st12" d="M370.6,180c-0.3,0.8-1.1,1.3-1.9,1.2C369.1,180.5,369.8,180,370.6,180z"/>
<path class="st12" d="M399.6,136c-0.4,0.8-1.2,1.2-2,1.1C398,136.4,398.8,136,399.6,136z"/>
<path class="st12" d="M531.8,234.4c-0.1-0.9,0.3-1.8,1-2.3C532.4,232.9,532.1,233.6,531.8,234.4z"/>
<path class="st12" d="M286.8,182.1c-0.8,0.1-1.6-0.3-1.9-1.1C285.7,180.9,286.4,181.3,286.8,182.1z"/>
<path class="st12" d="M394.7,140.1c0.1,0.8-0.4,1.6-1.2,1.9C393.5,141.3,394,140.5,394.7,140.1z"/>
<path class="st12" d="M388.6,154.6c0,1,0,2-1.1,2.5C387.4,156.1,387.8,155.2,388.6,154.6z"/>
<path class="st12" d="M387.5,157c0.2,0.8-0.2,1.7-1,2.1C386.4,158.3,386.8,157.4,387.5,157z"/>
<path class="st12" d="M532.8,231.6c-0.2-1,0.2-2,1-2.6C533.9,230.1,533.5,231,532.8,231.6z"/>
<path class="st12" d="M269.8,160.1c-0.7-0.4-1.1-1.3-0.9-2.1C269.6,158.5,269.9,159.3,269.8,160.1z"/>
<path class="st12" d="M386.6,159c0.2,0.9-0.2,1.7-1,2.1C385.5,160.2,385.9,159.4,386.6,159z"/>
<path class="st12" d="M385.6,161c0.2,0.9-0.3,1.7-1.1,2.1C384.4,162.2,384.9,161.4,385.6,161z"/>
<path class="st12" d="M271.9,165.1c-0.8-0.4-1.2-1.2-1-2.1C271.6,163.5,272,164.3,271.9,165.1z"/>
<path class="st12" d="M383.7,164.1c0.1,0.8-0.4,1.6-1.1,2C383,165.4,383.3,164.8,383.7,164.1z"/>
<path class="st12" d="M430.8,166.1c-0.7-0.4-1.1-1.2-1-2C430.1,164.8,430.5,165.4,430.8,166.1z"/>
<path class="st12" d="M272.9,167.1c-0.8-0.4-1.2-1.2-1-2C272.6,165.5,273,166.3,272.9,167.1z"/>
<path class="st12" d="M382.6,166.1c0.1,0.8-0.3,1.7-1.1,2C381.5,167.2,381.9,166.5,382.6,166.1z"/>
<path class="st12" d="M431.8,168.1c-0.7-0.4-1.1-1.2-1-2L431.8,168.1z"/>
<path class="st12" d="M274,169c-0.8-0.3-1.3-1.2-1.1-2C273.7,167.4,274.1,168.2,274,169z"/>
<path class="st12" d="M518.7,185c-0.4,0.7-1.2,1.1-2,1.1L518.7,185z"/>
<path class="st12" d="M275.9,172c-0.8-0.3-1.2-1.1-1.1-1.9C275.5,170.4,276,171.2,275.9,172z"/>
<path class="st12" d="M379.7,170.1c0.1,0.8-0.4,1.6-1.2,1.9L379.7,170.1z"/>
<path class="st12" d="M434.9,173.1c-0.8-0.3-1.2-1.1-1.1-1.9C434.5,171.5,434.9,172.3,434.9,173.1z"/>
<path class="st12" d="M520.6,184c-0.4,0.8-1.2,1.2-2,1.1C519.1,184.4,519.8,184,520.6,184z"/>
<path class="st12" d="M445.8,183.1c-0.8,0.1-1.7-0.3-2-1.1C444.6,181.9,445.4,182.3,445.8,183.1z"/>
<path class="st12" d="M523.6,182c-0.3,0.8-1.1,1.2-1.9,1.2L523.6,182z"/>
<path class="st12" d="M366.6,182.9c-0.3,0.8-1.1,1.3-2,1.1C365,183.3,365.8,182.9,366.6,182.9z"/>
<path class="st12" d="M395.7,139.1c-0.3,0.4-0.6,0.7-1,1C395,139.8,395.4,139.4,395.7,139.1z"/>
<path class="st12" d="M384.6,163l-0.9,1.2L384.6,163z"/>
<path class="st12" d="M274.8,170.1l-1-1.1L274.8,170.1z"/>
<path class="st12" d="M380.7,169.1l-1,1.1L380.7,169.1z"/>
<path class="st12" d="M276.9,173.1l-1-1.1L276.9,173.1z"/>
<path class="st12" d="M378.6,172l-1,1.1C377.9,172.7,378.3,172.4,378.6,172z"/>
<path class="st12" d="M277.8,174.1l-1-1L277.8,174.1z"/>
<path class="st12" d="M377.7,173l-1,1.1L377.7,173z"/>
<path class="st12" d="M435.8,174.1l-1-1.1L435.8,174.1z"/>
<path class="st12" d="M278.8,175.1l-1-1L278.8,175.1z"/>
<path class="st12" d="M376.7,174.1l-1,1L376.7,174.1z"/>
<path class="st12" d="M436.7,175.1l-1-1.1L436.7,175.1z"/>
<path class="st12" d="M279.8,176.1l-1-1L279.8,176.1z"/>
<path class="st12" d="M375.7,175.1l-1,1L375.7,175.1z"/>
<path class="st12" d="M437.7,176.1l-0.9-1L437.7,176.1z"/>
<path class="st12" d="M280.8,177.1l-1-1L280.8,177.1z"/>
<path class="st12" d="M374.7,176.1l-1,1.1L374.7,176.1z"/>
<path class="st12" d="M281.8,178.1l-1-1L281.8,178.1z"/>
<path class="st12" d="M373.7,177.1l-1.1,1L373.7,177.1z"/>
<path class="st12" d="M282.8,179.1l-1-1L282.8,179.1z"/>
<path class="st12" d="M372.6,178l-1.1,1L372.6,178z"/>
<path class="st12" d="M440.7,179.1l-1-0.9L440.7,179.1z"/>
<path class="st12" d="M371.6,179l-1.1,1L371.6,179z"/>
<path class="st12" d="M441.8,180.1c-0.3-0.3-0.7-0.6-1-1L441.8,180.1z"/>
<path class="st12" d="M442.8,181.1l-1-1L442.8,181.1z"/>
<path class="st12" d="M525.7,180.1l-1.1,1L525.7,180.1z"/>
<path class="st12" d="M368.7,181.1l-1.1,1L368.7,181.1z"/>
<path class="st12" d="M443.9,182l-1.1-1L443.9,182z"/>
<path class="st12" d="M524.7,181.1l-1.1,1L524.7,181.1z"/>
<path class="st12" d="M287.9,183l-1.1-1L287.9,183z"/>
<path class="st12" d="M367.7,182l-1.1,1L367.7,182z"/>
<path class="st2" d="M500.3,275.8l1.2-0.9L500.3,275.8z"/>
<path class="st2" d="M501.4,275l1.2-1L501.4,275z"/>
<path class="st2" d="M482.3,287.7l1.3-0.7L482.3,287.7z"/>
<path class="st12" d="M521.7,183.1l-1.1,0.9L521.7,183.1z"/>
<path class="st12" d="M381.6,168l-1,1.1L381.6,168z"/>
<path class="st12" d="M397.7,137.1l-1,1L397.7,137.1z"/>
<path class="st12" d="M446.9,184l-1.1-1L446.9,184z"/>
<path class="st12" d="M396.7,138.1c-0.4,0.3-0.7,0.7-1,1L396.7,138.1z"/>
<path class="st10" d="M319,475.1l-0.4-2c-0.8-4.4,1.3-5.5,5.4-5.8c12.3-0.8,24.5-2.5,36.5-5c3.2-0.6,4.1,0.2,4.2,3.3
	s0.5,6.3,0.8,9.4c-13,0-26.1,0.5-39.2-0.9C323.8,473.9,321.3,474.2,319,475.1z"/>
<path class="st2" d="M270.7,489.1c3.2-2,6.7-1,10-0.9c5.6,0.2,11.4-1.2,17,0.8C288.8,490.1,279.7,490.1,270.7,489.1z"/>
<path class="st2" d="M234.8,488.1c3.7-1.2,7.5-2.3,11,0.5C242.1,488.9,238.4,488.7,234.8,488.1z"/>
<path class="st2" d="M298.8,489c2-2.6,4.4-2.4,7-0.9C303.5,488.9,301.1,489.2,298.8,489z"/>
<path class="st2" d="M317.7,480.1c-1.3-1.7-1.6-3.2,0.9-4C318.9,477.5,318.5,478.9,317.7,480.1z"/>
<path class="st2" d="M224.8,487c1.6-1.2,3-1.6,4,0.7L224.8,487z"/>
<path class="st2" d="M310.7,486.9c0.4-1.9,1.8-1.8,3.1-1.7C313.1,486.1,312,486.7,310.7,486.9z"/>
<path class="st2" d="M213.6,476.2c2.2,0.2,2.1,1.7,2,3.3L213.6,476.2z"/>
<path class="st2" d="M220.6,485.2c1.4-0.1,2.8-0.2,3.2,1.7C222.5,486.9,221.3,486.2,220.6,485.2z"/>
<path class="st2" d="M307.7,487.8c0.3-1.2,0.8-2,2-0.7L307.7,487.8z"/>
<path class="st11" d="M193.6,192.1c4.9,2.2,3.3,6.5,2.8,9.9c-1.4,10.7-0.5,21.5-0.6,32.2c0,4.4,3.5,5.8,7.2,7c2.7,0.8,6.7-0.4,7.6,4
	c-13,14.6-22,31.9-32.6,48.2c-9.9,15.2-21.4,28.8-37.3,38.1c-1.3,0.7-2.7,1.3-4.1,1.8c-0.8-0.1-1.6,0.3-2.1,1l0,0
	c-0.8,0-1.6,0.3-2,1l-0.4,0h-0.4l-1.1,0.9l-1.9,0.1c-0.9-0.1-1.7,0.3-2.2,1h-0.4h-0.4c-0.8-0.1-1.7,0.3-2.2,0.9l-1.8,0.1
	c-1.2-0.1-2.3-0.1-3.2,1h-0.4h-0.4c-1.8,0.1-3.6-0.6-5.1,1h-3.9c-4-0.3-4.3-2.7-3.7-6c2.8-13.6,2-27.3,0.7-40.9c-0.5-5.8,0-7,6-7.2
	c8.8,3.5,17.4,7.4,23.1,15.5c0.8,1.1,1.9,2.8,3.6,2.1s0.1-2.3,0.2-3.5c0.1-1-0.1-2,0-3c0.4-8,4.2-10,10.9-5.8
	c1.3,0.8,2.5,2.2,4.6,2.2c0.1-2.1-1-3.8-1.6-5.6c-3.3-8.9-5.8-17.9-4-27.6c1-5.5,4.9-8.4,9.9-9.1c6.1-1,12.3-0.4,18.1,1.8
	c1,0.8,2,2.1,3.2,0.2l-0.1-2.1c-0.3-0.7-0.6-1.4-1-2c0-0.3,0-0.6,0-0.9l-0.9-1.1c0-0.6-0.1-1.2-0.1-1.9l-0.9-1.1c0-0.3,0-0.6,0-0.9
	l-0.9-1l-0.1-2c0.1-0.8-0.3-1.6-0.9-2.1c0-0.6,0-1.2-0.1-1.9l-0.9-1.1c0-0.6-0.1-1.3-0.1-1.9c-0.1-2.2,0.7-4.6-1.8-6.1
	c-0.1-2-0.1-4-0.2-5.9c0-4.4,0-8.8,0-13.2c0-0.3,0-0.6,0-0.9c1.1-0.8,1-1.9,1-3l0,0c0.7-0.5,1.1-1.2,1-2.1c0.2-1.9,1.5-3,3-3.9
	l1-0.9c1-1.2,2.4-1.9,4-2.1l2-0.9c0.3,0,0.6-0.1,0.9-0.1c1.1,0,2.3,0.1,3.1-1c0.3,0,0.6,0,0.9,0l1.1-0.9L193.6,192.1z"/>
<path class="st7" d="M111.9,286.1c-6,0.3-6.5,1.4-6,7.2c1.2,13.6,2,27.3-0.7,40.9c-0.7,3.2-0.3,5.7,3.7,6
	c-7.6,2.4-15.2,0.6-22.6-0.8C59.5,334,42.3,317,31,292.8c-5-10.6-6.1-21.9-7.2-33.2c-0.4-4.2,1.5-7,5.1-8.8
	c7.1-3.7,14.7-4.4,22.4-3.4c6.9,0.9,12.2,8.3,12.5,16.5c0.5,10.1-3.1,19.2-6.6,28.5c-0.4,1-1.4,1.9-0.6,3.6c3.8-2.3,7-5.3,11-7.3
	c6.9-3.6,12.9-1.5,15.5,5.9c1.2,3.5,2,7,1,10.7c-0.6,1.8-0.4,3.7,0.5,5.3c2,0.3,2-1.3,2.4-2.5c2.4-6.2,5.8-12,10-17.1
	C100.8,286,106.2,284.2,111.9,286.1z"/>
<path class="st11" d="M283.6,55c0.2-5.3,0.9-10.7,2.1-15.9c3.3-13.5,12.2-19,25.7-15.5c8.2,2.1,16,5.8,22.8,10.8
	c2.7,2,3,3.4-0.4,4.8C316.9,46,302.8,57,290,69.7c-3,2.9-4.1,1.8-4.7-1.4C284.6,63.5,284.1,58.7,283.6,55z"/>
<path class="st11" d="M419.6,31.2c-0.2,2.6-1.8,1.8-3.3,1.4c-13.6-3.5-27.5-3.8-41.5-3.3c-3,0.1-5.9,0.7-8.9,0.9
	c-2.6,0.2-4.1-0.8-2.5-3.5c4.9-8.7,11.5-15.8,20.5-20.4c6.1-3.2,11.9-1.8,17.3,1.9c7.9,5.4,13,13.1,17.6,21.2
	C419.1,30,419.4,30.6,419.6,31.2z"/>
<path class="st13" d="M216.6,246.1c5.1,2.2,7,6.6,8.1,11.6c1.3,5.3,1.3,10.9,0,16.2c-1.5,5.5-5.3,9.2-9.7,9.1
	c-6-0.2-11.1-4.6-12.2-10.5c-0.4-2-0.4-4-2.1-5.4C205.6,259.8,210.9,252.7,216.6,246.1z"/>
<path class="st11" d="M476.8,54.5c-0.2,1.8,0.5,3.3-0.9,4.2s-2.5-0.4-3.5-1.1c-9.8-6.6-20.2-12.2-31.1-16.8
	c-0.9-0.4-2.1-0.6-2.1-1.8s1-1.6,1.9-2c4.9-2.5,9.8-4.9,15.2-6.2c7.4-1.7,11.9,0.1,15.5,6.6C474.8,42.8,475.8,49,476.8,54.5z"/>
<path class="st7" d="M171.7,208.1c0,4.4,0,8.8,0,13.2C170.2,217,170.2,212.3,171.7,208.1z"/>
<path class="st7" d="M171.9,227.2c2.6,1.4,1.8,3.9,1.8,6.1C172.5,231.5,171.8,229.4,171.9,227.2z"/>
<path class="st7" d="M112.8,340.1c1.5-1.5,3.4-0.9,5.1-1C116.4,340.6,114.5,340,112.8,340.1z"/>
<path class="st7" d="M179.9,253.3c-1.1,1.9-2.1,0.6-3.2-0.2L179.9,253.3z"/>
<path class="st7" d="M172.7,204.1c0,1.1,0.1,2.2-1,3C171.7,206,171.7,204.9,172.7,204.1z"/>
<path class="st7" d="M187.8,193.1c-0.8,1.1-1.9,1-3.1,1C185.5,193.1,186.6,193.1,187.8,193.1z"/>
<path class="st7" d="M118.8,339.2c0.8-1.1,2-1,3.2-1C121.1,339,119.9,339.3,118.8,339.2z"/>
<path class="st7" d="M178.8,249.1c0.3,0.7,0.6,1.3,1,2C179.4,250.5,179.1,249.8,178.8,249.1z"/>
<path class="st7" d="M134.8,334.2c0.5-0.7,1.3-1.1,2.1-1L134.8,334.2z"/>
<path class="st7" d="M132.8,335.1c0.4-0.7,1.2-1,2-1L132.8,335.1z"/>
<path class="st7" d="M174.8,238.1c0.7,0.5,1,1.3,0.9,2.1L174.8,238.1z"/>
<path class="st7" d="M126.8,337.2c0.5-0.7,1.3-1.1,2.2-1L126.8,337.2z"/>
<path class="st12" d="M254.6,146.8c0.2,0.9-0.1,1.8-0.9,2.4C253.7,148.3,254,147.4,254.6,146.8z"/>
<path class="st7" d="M123.8,338.1c0.5-0.7,1.3-1.1,2.2-0.9L123.8,338.1z"/>
<path class="st7" d="M173.7,202.1c0.1,0.8-0.3,1.6-1,2.1C173.1,203.4,173.4,202.8,173.7,202.1z"/>
<path class="st7" d="M183.8,194.2l-2,0.9L183.8,194.2z"/>
<path class="st7" d="M173.8,235.2l0.9,1.1L173.8,235.2z"/>
<path class="st7" d="M177.8,197.2l-1,0.9L177.8,197.2z"/>
<path class="st10" d="M68.2,282.6L67,283c0-0.4,0-0.9,0-1.3L68.2,282.6z"/>
<path class="st7" d="M189.7,192.3l-1.1,0.9L189.7,192.3z"/>
<path class="st10" d="M210.3,185.7l0.4,1.2h-1.4L210.3,185.7z"/>
<path class="st7" d="M130.8,336.1l1.1-0.9L130.8,336.1z"/>
<path class="st7" d="M177.8,247.2l0.9,1.1L177.8,247.2z"/>
<path class="st7" d="M176.8,244.1l0.9,1.1L176.8,244.1z"/>
<path class="st7" d="M175.9,242.2l0.9,1L175.9,242.2z"/>
<path class="st6" d="M277.4,328.1c5.5-14.9,12.1-29.3,16.5-44.6l13.9,8.1c1,1.7,2.9,2.2,4.4,3c36.2,18.4,74.3,24.1,114.3,17.7
	c13.6-2.3,26.8-6.5,39.3-12.4c4.9,9.5,2.2,17.3-3.9,25.7c-8.5,11.8-14.8,25-18.5,39c-0.3,2-1.8,3.6-3.8,4c-3.2,0.8-6.3,2.3-8.9,4.4
	c-8.6,6.7-7.2,17.3,2.9,21.3c2.7,1.1,4,1.7,3.2,5c-1.4,5.9,0.2,10.9,6.4,13.9c-3.4,4.2-7.6,7.1-11.9,9.9
	c-21.4,13.8-45.3,20.6-70,24.8c-13.1,2.2-26.4,3.5-39.6,4.7c-3.1,0.3-4.1-0.6-4.6-3.5c-1.6-10.6-4.7-20.7-8.3-30.8
	c-1.6-4.4-0.4-5.7,4.3-5.4c9.1,0.5,14.2-6.3,11-15.1c-0.8-2.2-1.3-3.4,1.4-4.8c5.9-3.1,8.3-8.6,6.6-13.5c-2-5.6-7.8-8.8-13.6-7.6
	c-4.5,0.9-5.5-0.8-6.8-4.5C305.2,350.2,293.5,337.1,277.4,328.1z"/>
<path class="st12" d="M445,424.4c-1.5,16.5-3.8,32.7-10.2,48.2c-3,7.3-8,10.6-15.7,10.6c-10.8-0.1-21.7,0.1-32.5-0.1
	c-9.4-0.1-14-4.5-14.9-13.9c-0.9-8.9-1-8.9,7.8-11.4c24-6.8,46-17.5,64.8-34.2L445,424.4z"/>
<path class="st12" d="M469.7,318.5c7.2,26,7.4,51.2-6.8,74.8c-2.9,5.1-7.4,9.2-12.7,11.6c-1.8,0.8-3.8,2-5.6,0.5
	c-1.6-1.4-0.6-3.4-0.3-5.2c0.7-3.8,2.6-7.1,4.6-10.9c-3.8-0.6-7.1,0-10.2-1.1c-2.7-1-5.7-1.6-6.1-5.1c-0.4-3.2,2.2-4.6,4.5-5.9
	c1.4-1,2.9-1.6,4.5-2c5.8-0.9,8.1-4.9,9.8-9.9c4.3-12.9,8.3-26,14.1-38.4C466.9,324.1,468.3,321.3,469.7,318.5z"/>
<path class="st14" d="M465.7,300.1c-12.5,5.9-25.7,10-39.3,12.4c-40,6.5-78.1,0.6-114.3-17.7c-1.6-0.8-3.4-1.3-4.4-3
	c-0.7-0.9-0.9-2.1-0.5-3.2c4.2,0.8,7.3,3.8,11,5.5c20.9,9.8,43,14.7,65.9,16.1c27,1.8,54-2.7,78.9-13.2c0.9-0.3,1.9-0.6,2.9-0.8
	C465.8,297.5,465.8,298.8,465.7,300.1z"/>
<path class="st12" d="M294.8,421c-7.8,4.3-15.4,0.7-22.9-0.9c-3.2-0.7-7-0.9-9.1-4.2C273.2,419.5,283.6,422.5,294.8,421z"/>
<path class="st12" d="M227,382c-3.5-8.8-3.5-17.4,1-25.9C225.8,364.6,225.4,373.5,227,382z"/>
<path class="st12" d="M259.9,414.9c-1.8,0.4-3.4,0.1-4-2C257.5,412.8,259,413.6,259.9,414.9z"/>
<path class="st12" d="M230,389c-2.1-0.6-2.3-2.2-2-4C229.2,386,229.9,387.4,230,389z"/>
<path class="st12" d="M246.8,407c-1.5,0.1-2.9,0-2.9-2.1C245.1,405.3,246.1,406,246.8,407z"/>
<path class="st12" d="M252.8,411c-1.5,0.1-2.9,0-3-1.9C251,409.3,252.1,410,252.8,411z"/>
<path class="st12" d="M262.8,416c-1.1,0.1-2.3,0.2-2.9-1.1C261,414.7,262.1,415.1,262.8,416z"/>
<path class="st12" d="M228,385c-1.4-0.6-1.2-1.8-1.1-3C227.8,382.7,228.2,383.9,228,385z"/>
<path class="st12" d="M231.8,348.1c-0.1-0.8,0.4-1.6,1.1-2C232.5,346.8,232.1,347.5,231.8,348.1z"/>
<path class="st12" d="M229.9,351.6c-0.2-0.9,0.2-1.9,1.1-2.4C231,350.1,230.6,351,229.9,351.6z"/>
<path class="st12" d="M231,391c-0.8-0.3-1.3-1.2-1.1-2C230.7,389.4,231.1,390.2,231,391z"/>
<path class="st12" d="M233,394c-0.8-0.3-1.3-1.2-1.1-2C232.6,392.4,233.1,393.2,233,394z"/>
<path class="st12" d="M249.7,409.1c-0.8,0.1-1.6-0.4-1.9-1.1C248.6,408,249.4,408.4,249.7,409.1z"/>
<path class="st12" d="M255.9,412.9c-0.8,0.3-1.7-0.2-2-1C254.7,411.7,255.5,412.1,255.9,412.9z"/>
<path class="st12" d="M227.9,356.2c-0.1-0.9,0.3-1.7,1-2.2C228.8,354.9,228.7,355.8,227.9,356.2z"/>
<path class="st12" d="M232.8,346.2c-0.1-0.9,0.4-1.7,1.3-2L232.8,346.2z"/>
<path class="st12" d="M231.9,392.1l-1-1.1L231.9,392.1z"/>
<path class="st12" d="M233.9,395l-1-1.1L233.9,395z"/>
<path class="st12" d="M234.9,396.1l-1-1.1L234.9,396.1z"/>
<path class="st12" d="M235.8,397.1l-1-1L235.8,397.1z"/>
<path class="st12" d="M236.8,398.1c-0.3-0.3-0.6-0.7-1-1C236.1,397.4,236.4,397.7,236.8,398.1z"/>
<path class="st12" d="M237.7,399.1l-0.9-1L237.7,399.1z"/>
<path class="st12" d="M238.7,400.1l-0.9-0.9L238.7,400.1z"/>
<path class="st12" d="M239.7,401.1l-0.9-0.9L239.7,401.1z"/>
<path class="st12" d="M240.8,402.1l-1-0.9L240.8,402.1z"/>
<path class="st12" d="M241.8,403.1l-1-1L241.8,403.1z"/>
<path class="st12" d="M242.8,404.1l-1-1L242.8,404.1z"/>
<path class="st12" d="M243.9,405l-1-1L243.9,405z"/>
<path class="st12" d="M247.8,408l-1-1L247.8,408z"/>
<path class="st12" d="M253.9,412l-1.1-1L253.9,412z"/>
<path class="st12" d="M444.3,423.7c0.3-0.1,0.6-0.5,0.8-0.4c0.5,0.3,0.3,0.8,0,1.1L444.3,423.7z"/>
<path class="st12" d="M230.9,349.3l0.9-1.1L230.9,349.3z"/>
<path class="st12" d="M228.8,353.7c0.3-0.5,0.6-1,0.9-1.5C229.4,352.6,229.1,353.2,228.8,353.7z"/>
<path class="st2" d="M204.9,455.1c-0.7-11-1.8-22.1,0.8-33c0.4-1.6,0.6-3.1,2.1-4.5c0.3,12.2,3.2,23.8,4.9,35.5
	c-1-0.2-1.6-3-2.9-0.5C208.7,454.6,206.9,455,204.9,455.1z"/>
<path class="st2" d="M116.8,442.9c11,2.4,21.8,5.5,32.9,7.3c17.9,3,35.9,3.7,53.9,5.2c-1.6,1.2-3.5,0.8-5.3,0.7
	c-19.8-0.8-39.5-2.3-58.9-6.5C131.7,447.9,123.8,447,116.8,442.9z"/>
<path class="st2" d="M225.8,478.9c3.6,1.8,7.5,2.7,11.5,2.7c20.2,0.9,40.4,2.4,60.6,0.7c2.6-0.2,5.2-0.9,7.8-1.3
	c-2.4,3.4-6.3,2.9-9.5,3c-16.6,0.3-33.2,0.5-49.8-0.1c-5.7-0.2-11.6,0.1-17.1-2.1C227.9,481.2,225.9,481.2,225.8,478.9z"/>
<path class="st2" d="M96.8,435c5.8,2.1,11.7,4,17.1,7C107.8,440.8,101.5,439.9,96.8,435z"/>
<path class="st2" d="M216.9,466c1.9,2.4,3.3,5.1,4.2,8C217.3,472.5,217.1,469.2,216.9,466z"/>
<path class="st2" d="M85.9,429.8c3,0.7,5.7,2.1,8,4.1C90.6,433.9,87.7,433,85.9,429.8z"/>
<path class="st2" d="M79.8,426c1.9,0.6,3.6,1.6,5.1,3C82.6,429,80.4,428.9,79.8,426z"/>
<path class="st2" d="M214.8,460.9c1.8,1.2,1.8,3.2,2.1,5.1C215.1,464.8,214.7,463,214.8,460.9z"/>
<path class="st2" d="M14.9,347.6c1.3,1.5,2,3.5,2.1,5.5C14.9,351.8,14.8,349.7,14.9,347.6z"/>
<path class="st2" d="M17,353c1.1,1.1,1.8,2.6,1.9,4.2C17,356.3,16.6,354.8,17,353z"/>
<path class="st2" d="M71.9,421c1.2,0.3,2.3,1,3,2.1C73.3,423.1,71.9,423,71.9,421z"/>
<path class="st2" d="M76.8,424.1c1.2,0.3,2.3,1,3.1,1.9C78.4,426.1,77,426,76.8,424.1z"/>
<path class="st2" d="M212.8,454c1.1,0.4,1.6,1.6,1.2,2.7c-0.1,0.2-0.1,0.3-0.2,0.4C212.7,456.3,212.8,455.1,212.8,454z"/>
<path class="st2" d="M63.9,415c1,0.2,1.8,0.9,2.1,1.8C64.6,417.1,63.9,416.4,63.9,415z"/>
<path class="st2" d="M221,473.9c0.9,0.4,1.6,1.2,1.9,2.2C221.5,476,220.8,475.3,221,473.9z"/>
<path class="st2" d="M67.8,418c1,0.2,1.8,0.9,2.2,1.8C68.6,420.1,67.9,419.4,67.8,418z"/>
<path class="st2" d="M20.9,362.7c1.1,0.4,1.3,1.4,1.5,2.4C21.1,364.8,20.8,363.9,20.9,362.7z"/>
<path class="st2" d="M93.9,433.9c1.1-0.1,2.2,0.3,3,1.2C95.7,435.1,94.5,435.2,93.9,433.9z"/>
<path class="st2" d="M113.8,441.9c1.2,0,2.3,0,3.1,1.1C115.7,443.1,114.5,443.2,113.8,441.9z"/>
<path class="st2" d="M14,345c0.9,0.5,0.9,1.4,1,2.2C14.2,346.8,13.8,345.9,14,345z"/>
<path class="st2" d="M22.9,365.8l1.1,2.3C23.2,367.6,22.7,366.7,22.9,365.8z"/>
<path class="st2" d="M27.9,375l1.1,2.1C28.2,376.7,27.8,375.9,27.9,375z"/>
<path class="st2" d="M18.9,357.6c0.7,0.6,1.1,1.5,1.1,2.5C19.1,359.5,18.7,358.5,18.9,357.6z"/>
<path class="st2" d="M43.8,396.1c0.7,0.4,1.2,1.1,1.2,1.9C44.2,397.7,43.7,396.9,43.8,396.1z"/>
<path class="st2" d="M53.9,406.9c0.8,0.1,1.5,0.5,1.8,1.2C54.9,408.2,54.2,407.6,53.9,406.9z"/>
<path class="st2" d="M61.9,413.8c0.8,0,1.6,0.4,2,1.2C63,415,62.2,414.8,61.9,413.8z"/>
<path class="st2" d="M65.9,416.9c0.8,0,1.6,0.4,2,1.2C67,418,66.2,417.8,65.9,416.9z"/>
<path class="st2" d="M69.9,419.9c0.8,0,1.6,0.4,2,1.2C71,421.2,70.2,420.7,69.9,419.9z"/>
<path class="st2" d="M213.8,457.9c0.8,0.3,1.2,1.3,0.9,2.1c0,0,0,0,0,0C214.1,459.6,213.7,458.8,213.8,457.9z"/>
<path class="st2" d="M20,360c0.8,0.4,1.1,1.3,1,2.2C20.2,361.7,19.8,360.9,20,360z"/>
<path class="st2" d="M23.9,368l0.8,1.1L23.9,368z"/>
<path class="st2" d="M25.9,371.9l0.9,1.2L25.9,371.9z"/>
<path class="st2" d="M26.9,373.8L28,375L26.9,373.8z"/>
<path class="st2" d="M29.9,378.8L31,380L29.9,378.8z"/>
<path class="st2" d="M30.9,379.9l0.9,1.2L30.9,379.9z"/>
<path class="st2" d="M31.9,381.8L33,383L31.9,381.8z"/>
<path class="st2" d="M32.9,383l1.1,1L32.9,383z"/>
<path class="st2" d="M34.9,385.9L36,387L34.9,385.9z"/>
<path class="st2" d="M35.9,387l1.1,1.1L35.9,387z"/>
<path class="st2" d="M40.9,392.9l1.1,1.2L40.9,392.9z"/>
<path class="st2" d="M44.9,397.9L46,399L44.9,397.9z"/>
<path class="st2" d="M45.9,398.9L47,400L45.9,398.9z"/>
<path class="st2" d="M47.9,400.9L49,402L47.9,400.9z"/>
<path class="st2" d="M48.9,401.9L50,403L48.9,401.9z"/>
<path class="st2" d="M49.9,402.9L51,404L49.9,402.9z"/>
<path class="st2" d="M50.9,403.9L52,405L50.9,403.9z"/>
<path class="st2" d="M51.9,404.9L53,406L51.9,404.9z"/>
<path class="st2" d="M52.9,405.9L54,407L52.9,405.9z"/>
<path class="st2" d="M57.8,410c0.4,0.4,0.7,0.7,1.1,1.1C58.5,410.7,58.2,410.3,57.8,410z"/>
<path class="st2" d="M58.8,411l1.2,1L58.8,411z"/>
<path class="st2" d="M59.9,411.9L61,413L59.9,411.9z"/>
<path class="st2" d="M60.9,412.9c0.6,0,1,0.4,1.1,1L60.9,412.9z"/>
<path class="st2" d="M74.8,423l1.5,1L74.8,423z"/>
<path class="st2" d="M84.8,429l1.2,1L84.8,429z"/>
<path class="st2" d="M308.6,479.1l1-1.3L308.6,479.1z"/>
<path class="st2" d="M307.4,480l1.3-1L307.4,480z"/>
<path class="st2" d="M46.9,399.9L48,401L46.9,399.9z"/>
<path class="st3" d="M9.6,338.6c1.6,0.4,1.9,1.7,2.1,3c0.1,0.8,0.1,1.9-1.1,1.7c-1.5-0.2-2.2-1.5-2.4-2.9
	C8,339.5,8.6,338.9,9.6,338.6z"/>
<path class="st1" d="M452.4,245.7c-23.6,18.3-61.4,18.9-85.8,1.4c-0.8-0.5-1.7-1-2.6-1.4c-0.1-1.4-0.8-2.7-2-3.5
	c-0.3-2.6,0.9-1.9,2.1-0.9c14.5,11.3,31.3,14.8,49.1,14.1c14.6-0.6,28.1-4.7,39.5-14.3c0.6-0.5,1.2-2,2.2-0.7
	c0.3,0.3-0.2,1.2-0.3,1.9L452.4,245.7z"/>
<path class="st13" d="M262.6,361.1c-8.1,0-13-4.4-12.9-11.8c0.1-8.9,5.5-14.4,14.2-14.3c7.4,0.1,12.8,5.7,12.8,13.5
	C276.8,356,271,361.2,262.6,361.1z M262.6,342.1c-4.8-0.3-5.9,2.7-5.9,6.7c0,4.2,2.3,6.3,6.6,6.4c4.6,0,7.5-2.7,7.4-6.9
	S267.6,342,262.6,342.1L262.6,342.1z"/>
<path class="st2" d="M294,283.1c-23.6-16.9-31.6-46.4-18.4-67.1c-5.4,25.4,1.8,45.8,19.9,62.5l1.3,2.6
	C296.6,282.8,295.5,283.2,294,283.1z"/>
<path class="st14" d="M296.8,281.1l-1.3-2.6c5.1-5.4,9.2-11.7,15.2-16.3c10.3-7.9,22.2-12.4,34.6-15.9c5.6-1.6,11.2-2.8,16.9-4.1
	c1.2,0.8,1.9,2.1,2,3.5c-7.2,1.8-14.5,3.4-21.6,5.4c-16.9,4.8-32.4,11.9-42.7,27.1c-0.6,1-1.5,1.8-1.4,3.1L296.8,281.1z"/>
<path class="st14" d="M452.4,245.7l2.4-3.5c8.9,0.8,17.7,2.6,26.2,5.4c10.8,3.5,19.9,9.7,25.6,19.8c0.4,0.5,0.9,1,1.4,1.4l-1.7,1.5
	c-10.7-15.7-27-20.6-44.5-23.2C458.7,246.6,455.6,246.2,452.4,245.7z"/>
<path class="st13" d="M245.6,263.4c-0.1,4.4-3.5,7.8-7.5,7.7s-7.3-4.1-7.2-8.7s3.5-8.4,7.1-8.2C241.8,254.4,245.8,259.2,245.6,263.4
	z"/>
<path class="st1" d="M420.6,204.9c-1.7-7.9,0.4-14.3,5-16.9c4.1-2.4,9.3-2.1,13.1,0.8c4,3.3,5.2,9.1,2.8,15.2
	c-2-1.8-1.5-4.3-2.3-6.3c-1.5-3.5-3.6-6.1-7.5-6.3s-5.5,2.6-6.9,5.5C423.4,199.1,422.3,201.5,420.6,204.9z"/>
<path class="st7" d="M377.6,204c-3.5-10.9,2.2-19,12.1-17.9c6.2,0.6,11.9,10.7,9.4,16.3c-0.4,0.8-0.8,1.7-1.7,1.5
	c-0.5-0.1-1-0.9-1.2-1.4c-0.7-2-1.2-4.1-2-6.1c-1.1-2.8-3.1-4.9-6.3-4.9s-5.5,1.9-7,4.8C379.7,198.7,379.6,201.6,377.6,204z"/>
<path class="st13" d="M257.7,379.1c-2.8,0.1-4.1-1.3-4-4.2s1.5-4.7,4.5-4.7c2.7,0,4.5,1.5,4.3,4.3S261,379.2,257.7,379.1z"/>
<path class="st1" d="M296.8,281.1l1.6,0.2l8.8,7.2c-0.4,1.1-0.2,2.3,0.5,3.2l-13.9-8.1c0.1-0.1,0.2-0.3,0.2-0.5
	C295.5,283.2,296.6,282.8,296.8,281.1z"/>
<path class="st13" d="M246.9,368.1c-2-0.2-3.7-1-3.7-3.1c-0.2-1.9,1.2-3.5,3.1-3.7c0,0,0.1,0,0.1,0c2.2-0.1,4,1.1,4,3.4
	C250.6,366.6,248.9,367.7,246.9,368.1z"/>
<polygon class="st2" points="273.8,328.1 273.5,327.9 273.7,328.2 "/>
<path class="st13" d="M393.4,73.1c3.6,0.2,6,1.8,6.2,5.7c0.2,3.3-2.2,6.1-5.5,6.4c-0.2,0-0.4,0-0.7,0c-3.8-0.2-5.8-2.3-5.8-6.1
	S389.2,72.9,393.4,73.1z"/>
<path class="st13" d="M393,67.1c-1.6-0.1-2.4-1-2.1-2.6c0.1-1.4,1.3-2.3,2.7-2.2c0,0,0,0,0.1,0c1.8,0,2.1,1.2,2,2.7
	C395.6,66.7,394.5,67.2,393,67.1z"/>
<path class="st8" d="M262.7,342.1c5-0.1,7.8,2.1,8,6.2s-2.8,6.9-7.4,6.9c-4.2,0-6.5-2.1-6.6-6.4
	C256.7,344.8,257.8,341.8,262.7,342.1z"/>
</svg>
