<?xml version="1.0" encoding="utf-8"?>
<!-- Generator: Adobe Illustrator 27.9.0, SVG Export Plug-In . SVG Version: 6.00 Build 0)  -->
<svg version="1.1" id="Layer_1" xmlns="http://www.w3.org/2000/svg" xmlns:xlink="http://www.w3.org/1999/xlink" x="0px" y="0px"
	 viewBox="0 0 593.7 511.6" style="enable-background:new 0 0 593.7 511.6;" xml:space="preserve">
<style type="text/css">
	.st0{fill:#42383F;}
	.st1{fill:#F5A43D;}
	.st2{fill:#E1E8CF;}
	.st3{fill:#95CD46;}
	.st4{fill:#F7E7A5;}
	.st5{fill:#457D45;}
	.st6{fill:#467D44;}
	.st7{fill:#E5C186;}
	.st8{fill:#67943D;}
	.st9{fill:#467C45;}
	.st10{fill:#70AE3F;}
	.st11{fill:#E2EBCE;}
	.st12{fill:#423A3C;}
	.st13{fill:#483D3B;}
	.st14{fill:#45393D;}
</style>
<path class="st0" d="M286.6,509.9c-8.1,2.5-16.3,2-24.4,0c-11.4-5.2-21.2-13.1-25.4-24.8c-4-10.9-10.6-12.7-20.3-11.2l-0.5,0.1
	l-16-0.9c-21.3-1.9-42.5-4.5-63.4-9c-8.9-1.9-17.4-5.3-26.5-6.2l0.1,0.1c-0.4-1.2-1.2-1-2.1-0.8c-0.3-0.1-0.6-0.2-0.9-0.2
	c-0.6-0.5-1.2-1.2-1.9-1.5c-14.2-4.8-27.9-10.7-41.1-17.7l0,0c-3-1.8-5.4-4.5-9.1-5l0.1,0.1l-1.1-1l0.1,0.1l-1-1.2h0.1l-4.1-3l0,0
	l-5.1-4l-1-0.8l-6.9-6.3l-1.7-1.7l-5.4-5.8l-2.7-3.2l-2.2-2.9l-0.9-1.1l-2.1-3l-0.7-1l-1.3-1.9l0,0c-0.6-1-1.3-2-2-3l0,0l-2-3.3
	l-2-3.7c-4.8-10.3-8.5-21-11.1-32c-2.5-15.4-3-30.8,1.1-46.1c3.3-12.6,9-24,18.7-33c2.2-2,4.6-3.8,7.2-5.3
	c16.2-9.2,32.2-0.8,33.9,17.8c0.4,4.7,0.4,9.3,0.2,14c-0.2,2.2,1.1,4.3,3.2,5c2.7,1.1,2.8-1.7,3.6-3c3.6-5.4,7.2-10.8,12-15.3
	c9.9-9.1,19.2-10.3,31-3.9c4.5,2.5,8.6,5.6,12.3,9.2c1.6-5.2,4.3-8.7,9.5-9.5c2.9-0.5,1.1-2.3,0.9-3.4c-1.1-6.1-1.8-12.2-0.9-18.4
	c1.5-10,7.1-15.3,17.3-16.1c3.5-0.2,7,0,10.9,0c-2.6-7.4-4.4-15-5.4-22.7c-2.8-23.1,5.1-33.4,28-36.6c7.1-1,14.3-1,21.7-1.1
	c-0.4-2.6-2.5-3.9-3.7-5.8c-4.6-7.1-4.4-12.2,1.2-18.5c1.3-1.4,1.4-1.9,0.1-3.5c-10.4-12.8-8.4-33.6,4.2-44
	c9.8-8.2,21.3-12.9,33.5-16l4.2-1c-1.9-3.9-4.6-7.1-5.8-11.1c-2.7-9,0.8-15.6,9.9-17.8c5.5-1.4,11.3-1.5,16.8-0.2
	c3.2,0.7,4.3,0.4,3.8-3.5c-1.2-9.6-1.2-19.3,1.5-28.7c4.1-13.9,13.9-20,28.2-17.2c10.5,2,20.4,6.6,28.7,13.3c2.3,1.9,4.4,2,7.2,1.4
	c6.5-1.2,11-4.1,14.3-10.4c4.3-8,10.8-14.6,18.6-19.2c8.5-5.2,17.1-5,25.3,0.6c9.7,6.6,15.8,16.1,20.6,26.5
	c2.6,5.7,6.8,6.9,12.2,3.4c5.9-3.8,12.1-7,19.1-8.3c9.7-1.8,15.9,1.4,20.4,10.2c3.9,7.7,5.4,16,6.1,24.6c0.1,2,1,3.8,2.5,5
	c33.5,28.3,53.8,64.4,61.6,107.4c9.8,54.4,0.7,106.3-21.8,156.3c-1.8,3.7-2.6,7.8-2.5,12c0.4,15.8-5,28.4-21,34.3
	c-1.2,0.5-2.3,1.3-3,2.5c-7.5,11.2-16.9,21.1-27.7,29.2c-4.1,3.1-5,5.4-2.3,10.2c5.9,10.4,8.7,21.9,10.1,33.8
	c1.2,9.9-0.4,19.2-6,27.7c-5.8,6.8-14.3,10.7-23.2,10.9c-10,0.2-18.8-3.5-27.5-8c-3.7-1.9-6.8-4.8-10.9-6
	c-6.7-6.4-14.7-11.4-20.5-18.7c-1.9-2.4-3.5-2.7-6.3-1.6c-15.9,6.2-32.4,10.9-49.2,14.1c-4.1,0.8-7.6,2-10.3,5.3
	c-3.9,2.5-7.8,5-11.8,7.4c-1.4,0.6-2.2,2-2.1,3.5C302.6,497.7,296.6,505.1,286.6,509.9z M497.9,364.1c5.5-3.1,7.9-8,7.9-14.4
	C503.1,354.6,500.5,359.3,497.9,364.1l-0.2,0.3L497.9,364.1z M484.1,357.4l0.8-1.2c13.4-18.2,24-38.5,31.2-59.9c0.7-1.5,1.4-3,2-4.5
	c6.9-19.1,11.2-39.1,12.9-59.4c4.1-44.8-3.3-87.2-28.5-125.1c-33.6-50.7-79.8-78-142.1-71.9c-30.5,3-56.3,16.6-77,39.3
	c-20.4,22.3-32.2,49.1-39.3,78.1c-0.5,2.8-1.4,5.4-2.6,8c-6.2,12.6-10.7,25.9-13.5,39.6c-3.6,17.2-9.7,33.2-21.2,46.8
	c-5.4,6.3-10.4,13-14.9,20c-2.3,3.5-4.7,6.9-6.9,10.4c-10.1,15.5-19,31.8-32.7,44.6c-23.7,22-50.9,29.5-82,18.8
	c-13.5-4.6-24.9-12.3-30.6-26.1c-5.5-13.3-4.3-26.4,2.8-38.9c0.5-1,1.8-1.9,1.2-3.1c-0.8-1.4-2.4-0.8-3.6-0.5
	c-1.3,0.3-2.5,0.8-3.7,1.4c-10,4.3-16.4,12.2-20.3,21.8c-14,34.9-7.2,67.1,14.2,96.6c17.2,23.7,41.9,37,68.7,47
	c38.3,14.4,78.2,18.6,118.7,19c9,0.1,9,0,9.6-8.6c0-0.2,0.4-0.5,0.8-0.9c1.8,0.9,3,2.5,4.2,4.1c4.7,5.9,8.9,12.1,12.6,18.6
	c5.1,8.7,11,16.7,18.8,23.2c5.2,4.3,10.9,7,17.8,6.5c5.5-0.2,10.2-4,11.8-9.2c1.1-3.8,0.2-6-3.9-6.9c-2.9-0.6-6.1-0.5-9.6-2.9
	l11.8-4.1c33-11.2,49-39.9,41.9-74c-2.9-13.7-9.1-25.6-17.7-36.5c-0.8-1-2.2-2.1-1.4-3.4c0.9-1.5,2.4,0.4,3.6,0.1
	c7.5,6.4,13.6,14.2,17.9,23c6,12.3,8.5,25.5,9,39c-0.7,8.7-2.5,17.3-5.3,25.6v1l0.6-0.4c37.9-9.1,72.5-25.1,102.9-49.7
	C459,389.8,472.9,374.5,484.1,357.4L484.1,357.4z M144.9,293.2c-1.6-0.4-3.1-1.1-4.5-2.1c-6.3-3.8-10.2-1.7-10.5,5.6
	c-0.1,2.2,0,4.4,0,6.6l-1.7,0.9c-1.8-2.4-3.7-4.7-5.7-6.9c-4.1-4.2-8.9-7.6-14.2-10c-7.2-3.1-13.9-3.2-20.5,2.1
	c-9.3,7.4-14.2,17.8-19.9,27.7c-1.2,2-1.8,5.8-4.5,5.1c-2.5-0.6-1.3-4.1-1.3-6.3c0.2-4.9-0.2-9.1-6.3-10c-2.3-0.3-1.9-1.8-0.9-3.3
	c5.3-7.9,3.3-16,0.1-23.8c-2.1-5.2-5.1-5.1-8.3-0.6c-10.7,15.6-7.2,36.9,7.8,48.3c20.4,15.7,43.4,18.3,67.5,9.3
	c21.3-7.9,35.3-24.2,47.3-42.7c8.5-13.1,15.8-27.1,25.9-39c14.1-16.5,24.4-34.7,28.7-56.2c0.8-4-0.1-5.4-3.8-6
	c-15.3-2.7-30.4-2.4-45.3,2.1c-8.8,2.7-12.6,8.1-13.1,17.4c-0.4,7.9,1.1,15.5,3,23.1c1.6,6.4,4.3,12.4,7,19.3
	c-5.9-2.4-11.3-2.8-16.7-3.1c-13-0.8-17.1,8.2-15.9,19c0.9,8,3.7,15.4,5.8,23.1L144.9,293.2z M251.3,101.2
	c-14.2,2.3-29.1,7.2-41.2,18.3c-8.2,7.5-9.1,13.8-4.2,23.7c2.9,5.9,6.6,11.2,12,15.1c0.9,0.7,2.4,1.2,2.1,2.5
	c-0.4,1.7-2.1,1.4-3.4,1.3c-3.4,0-6.6,1.2-9.2,3.3c-1.7,1.2-2.6,3.1-2.6,5.1c-0.2,7,11.4,18.2,18.3,17.8c1.6-0.1,3.1-0.4,3.5-2.1
	c3.2-12.3,9.9-23.3,13.1-35.4c4.1-15.3,8.8-30.3,16.1-44.4C258.5,101.4,258.3,101.1,251.3,101.2L251.3,101.2z M461.9,458.7
	c-1.2-13.5-6.7-25.5-14-36.8c-1.5-2.3-3-1.6-4.6-0.5c-14.1,9.8-29.5,17.2-44.9,24.8c-2.1,1-2.9,2-1,4c12.7,13.3,26.7,24.4,45.3,28.4
	c5.8,1.2,10.5-0.6,14.2-5S461.5,464.2,461.9,458.7z M274.9,54.1c-0.6,4,1.2,7.9,1.1,11.9c0,1.9,0.2,4.5,2,5.3s2.8-1.9,4.3-2.8
	c1.3-0.8,2.4-1.7,3.5-2.8c11.1-11.6,24.3-20.1,39-26.2c3.8-1.6,3.5-2.9,0.6-5c-6.8-5.1-14.6-8.8-22.8-10.9
	c-13.5-3.5-21.2,0.9-25.5,14.2C275.5,43.1,275.5,48.6,274.9,54.1L274.9,54.1z M381.6,4.3l-2.3,0.6C368.5,7.7,362,16,355.8,24.4
	c-1,1.4-2.7,3.1-1.4,4.9s3.4,0.9,5.1,0.7c16-2,32.2-1.1,47.9,2.5c1,0.2,2,0.8,2.8,0c1.1-1.1,0.3-2.2-0.3-3.2
	c-4.7-8.3-9.9-16.1-18-21.6C388.9,5.9,385.3,4.7,381.6,4.3z M428.7,39.1c13.3,5.8,25.5,12.1,36.8,19.9c2.1,1.5,2.4-0.3,2.4-2
	c0-7.2-1.9-14.2-5.6-20.4c-2.7-4.5-6.8-7.3-12.5-6.3C442.4,31.5,435.9,34.8,428.7,39.1L428.7,39.1z M257.1,96.2
	c2.5,0.5,5-0.7,6.3-2.9c3.1-5.3,6.7-10.3,10.7-14.9c2.2-2.5,2-4.3-1.7-5.1c-6.4-1.2-12.9-1.6-19.3-0.9c-5.7,0.4-8.7,4.5-8.2,10.1
	C245.5,89.3,251.4,96.2,257.1,96.2z"/>
<path class="st1" d="M564.8,138.9c-3,0.3-4.1-0.8-4.9-2.4c-0.9-1.5-0.5-3.5,1-4.5c6.8-5,14.3-9,22.2-12c2.3-0.8,3.8,0.7,4.9,2.4
	s1.3,4.1-0.6,5.4C580.2,132.8,571.8,135.5,564.8,138.9z"/>
<path class="st1" d="M573.4,153.3c-3.5-0.5-8,1.3-8.7-3.4c-0.7-4.9,3.9-5,7.2-5.7c4.9-1,9.8-1.8,14.7-2.6c3.3-0.5,6.2,0.4,6.9,4
	c0.8,3.9-2.1,5.4-5.2,5.8C583.2,152.3,578.1,152.7,573.4,153.3z"/>
<path class="st1" d="M569.6,160.3c5.7,0.8,11.5,1.6,17.2,2.6c2.7,0.4,4.8,1.8,4.2,5c-0.2,2.6-2.5,4.4-5.1,4.2c-0.1,0-0.2,0-0.3,0
	c-6.6-0.6-13.1-1.8-19.5-3.5c-2.2-0.6-3.4-2.1-2.8-4.5C564.1,160.6,566.8,160.5,569.6,160.3z"/>
<path class="st2" d="M199.9,474.2c-5.6,1.6-11.3,0.7-17,0.9c-1.8-3.9-5.7-2.3-8.4-2.6c-20.2-2.6-40.2-6.7-59.8-12.2
	c-1.8-0.5-3.6-0.6-4.8-2.3c9.1,0.9,17.6,4.3,26.5,6.2c20.9,4.5,42.1,7.2,63.4,9C199.9,473.5,199.9,473.9,199.9,474.2z"/>
<path class="st2" d="M64.1,437.9c13.2,7,26.9,12.9,41.1,17.7c0.7,0.2,1.3,1,1.9,1.5c-6.3,0-11.8-3.3-17.4-5.4
	c-7.9-2.8-15.6-6.4-22.9-10.7C65.5,440.3,64,439.8,64.1,437.9z"/>
<path class="st2" d="M1.9,354.1c2.6,11,6.3,21.7,11.1,32c-1.8-0.1-2.4-1.6-3-3c-3.5-8.4-6.5-17-8.8-25.8
	C0.8,356.2,1.1,355,1.9,354.1z"/>
<path class="st2" d="M55,432.9c3.7,0.5,6.2,3.2,9.1,5C59.9,438.5,57.1,436.3,55,432.9z"/>
<path class="st2" d="M36.1,416.8l6.9,6.3C38.9,422.9,36.9,420.5,36.1,416.8z"/>
<path class="st2" d="M28.9,409.2l5.4,5.8C30.9,414.6,29.1,412.6,28.9,409.2z"/>
<path class="st2" d="M44,423.9l5.1,4C46.1,428.3,44.3,427,44,423.9z"/>
<path class="st2" d="M49.1,427.9l4.1,3C50.8,431.2,49.1,430.8,49.1,427.9z"/>
<path class="st2" d="M15.1,389.8l2,3.3C14.9,392.9,15,391.4,15.1,389.8z"/>
<path class="st2" d="M17,393c0.7,1,1.3,2,2,3C17,395.9,16.9,394.5,17,393z"/>
<path class="st2" d="M23.9,403.2l2.2,2.8C24.2,406,23.9,404.7,23.9,403.2z"/>
<path class="st2" d="M21,399.1l2.1,3C21.1,402,20.9,400.6,21,399.1z"/>
<path class="st2" d="M19,396.1l1.3,1.9C19.5,397.7,19,396.9,19,396.1z"/>
<path class="st2" d="M107.9,457.2c0.9-0.2,1.8-0.4,2.1,0.8L107.9,457.2z"/>
<path class="st2" d="M54,432l1.1,1L54,432z"/>
<path class="st2" d="M53.1,430.9l1,1.2L53.1,430.9z"/>
<path class="st3" d="M317.8,364.1c-1.2,0.3-2.7-1.6-3.6-0.1c-0.8,1.3,0.6,2.4,1.4,3.4c8.5,10.9,14.8,22.9,17.7,36.5
	c7.2,34.1-8.9,62.7-41.9,74l-11.8,4c3.6,2.4,6.8,2.3,9.6,2.9c4.2,0.9,5,3,3.9,6.9c-1.5,5.3-6.2,9-11.7,9.3
	c-6.9,0.5-12.6-2.2-17.8-6.5c-7.8-6.5-13.8-14.5-18.8-23.2c-3.7-6.5-7.9-12.7-12.6-18.6c-1.2-1.5-2.4-3.1-4.2-4.1
	c-0.4,0.4-0.8,0.6-0.8,0.9c-0.7,8.6-0.7,8.6-9.6,8.6c-40.5-0.4-80.4-4.6-118.7-19c-26.8-10.1-51.5-23.3-68.6-47
	C8.9,362.5,2,330.3,16,295.5c3.9-9.6,10.3-17.5,20.3-21.7c1.2-0.6,2.4-1,3.7-1.4c1.2-0.2,2.8-0.8,3.6,0.5c0.7,1.2-0.6,2.1-1.2,3.1
	c-7.2,12.5-8.4,25.5-2.8,38.9c5.7,13.8,17.2,21.4,30.6,26.1c31.1,10.7,58.3,3.2,82-18.8c13.8-12.8,22.7-29.1,32.8-44.6
	c2.3-3.5,4.6-6.9,6.9-10.4c0.6,1.4,1.5,2.6,1.7,4.1c0.9,6.4,4.5,10.1,10.7,11.6s10.6-1.6,14.3-6c8-9.5,5.2-23.5-5.2-27.9
	c-2.2-0.9-4.8,0.1-6.6-1.7c11.5-13.6,17.6-29.6,21.2-46.8c2.8-13.7,7.3-27,13.5-39.6c1.1-2.6,2-5.2,2.6-8
	c7.1-29,18.9-55.8,39.3-78.1c20.7-22.7,46.6-36.3,77-39.3c62.3-6.2,108.5,21.2,142.1,71.9c25.1,37.9,32.5,80.3,28.5,125.1
	c-1.7,20.3-6,40.2-12.9,59.4c-0.6,1.5-1.3,3-2,4.5c-1-0.8-0.6-1.7-0.5-2.7c0.5-8.8,1.4-17.5,1.4-26.3c0.2-14.2-0.6-28.5-2.4-42.6
	c1.8-3.8,3-7.7,3.7-11.8c1.9-15.3-13.2-33.7-31.5-24.4c-3.9,1.8-8.1,3.2-12.3,4.1c-27.5,6.8-55.3,7.5-83.3,3.8
	c-31.6-4.2-61.4-13.6-87.9-31.8c-1.3-1.1-2.8-1.8-4.4-2.2c-2.3-2.9-5.5-2.2-8.3-1.7c-9.2,1.7-15.6,7.1-18.8,15.9
	c-3.2,9-1.3,17.6,2.4,26.1c-1.2,12.6,0,25.1,2,37.6c2.1,12.9,5.6,25.5,8.5,38.2c-5.4,1.5-11,2.1-16.8,5.8c3.2,0.4,5.5,0.5,7.6,0.9
	c12,2.3,24.2,0.5,36.3,2.1c7.8,1,15.5,2.3,22.5,6.1s9,9.8,5.9,17.3c-1.8,4.2-4.7,7.6-8,10.6c-10.9,10-23.8,16.2-37.5,21.1
	c-2.9,1-6,1.6-8.5,4.4c9.2,3.2,17.5,0.8,25.6-2.1C315.3,350.6,316.7,357.3,317.8,364.1z M322.3,147.1c11.2-2.6,22.4-5.2,33.5-7.8
	c3.3-0.8,6.5-2,5.6-6.1c-1-4.3-4.5-4.3-8.1-3.5c-9.9,2.3-19.8,4.6-29.7,7c-1.5,0.3-2.9,0.8-4.2,1.5c-2,1.2-3.3,3-2.6,5.4
	C317.7,146.2,319.7,147.2,322.3,147.1L322.3,147.1z M448.4,134c-3.7,0.1-5.6,1.1-6.2,3.5c-0.6,2.9,1.2,4.7,3.6,5.8
	c10.2,4.6,20.3,9.1,30.5,13.6c0.6,0.2,1.3,0.4,1.9,0.5c2,0.5,4.1-0.5,5-2.4c1-1.9,1.1-4.4-0.8-5.5
	C471.4,143.1,459.4,138.4,448.4,134L448.4,134z M305.7,404.1c5.8,0.1,10.2-3.9,10.1-9.2c-0.1-6.2-6.9-12.8-13-12.7
	c-5.2,0.1-10.7,5.1-10.8,9.9C291.9,397.8,299.1,404.1,305.7,404.1z M385.1,73.1c-4.5,0-6.1,1.3-6.2,5.3c-0.1,4.1,2.3,6.9,6.1,6.7
	s5.8-2.2,5.9-5.9S389.4,72.8,385.1,73.1z M221.3,305.1c4-0.4,6.5-2.4,6.5-6.3c0-3.4-1.3-5.8-5.3-5.7c-3.7,0.1-6.3,1.7-6.4,5.4
	C215.9,302,217.6,304.6,221.3,305.1L221.3,305.1z M386.8,64.3c0-1.1-0.7-2.1-2.3-2c-1.4,0-2.5,1.1-2.5,2.5c0,0,0,0,0,0
	c-0.1,1.7,0.9,2.3,2.4,2.3S386.8,66.3,386.8,64.3z"/>
<path class="st4" d="M284.8,278.3c-2.9-12.7-6.4-25.3-8.5-38.2c-2-12.5-3.3-24.9-2-37.6c3.1,3.4,5.6,7.8,11.6,7.7
	c-0.4-0.9-0.8-1.8-1.3-2.6c-0.9-1.2-1.9-2.3-2.9-3.4c-7.5-8.2-8.7-17.7-4.9-27.8c3.5-9.5,14.1-14,22.1-10.1
	c7.4,6.3,15.8,11,24.5,15.1c33.6,15.8,69.2,22.2,106.1,21.4c21.5-0.5,42.8-3,62.9-11.7c5-2.2,9.6-0.4,13.5,2.5
	c9.1,6.9,10.7,20.4,3.7,29.4c-0.9,1.2-1.9,2.3-2.9,3.4c-0.6,0.8-1.4,1.9-0.6,2.6c0.5,0.5,1.9,0.4,2.8,0.1c2.6-0.6,4-2.8,5.9-4.5
	c1.8,14.1,2.6,28.4,2.4,42.6c0,8.8-1,17.5-1.4,26.3c-0.1,1-0.5,2,0.5,2.7c-7.2,21.5-17.7,41.7-31.2,59.9l-0.8,1.2l0,0
	c-2.2-0.4-3.3,1.3-4.5,2.6c-24.9,25.6-55.3,42.3-88.6,54c-15.1,5.3-30.6,8.7-46.2,12.1c-0.6-13.6-3-26.7-9-39
	c-4.4-8.8-10.5-16.6-17.9-23c-1.1-6.8-2.4-13.5-6-19.6c6-3.2,12-6.3,17.5-10.5c7.5-5.6,14.4-11.9,18.7-20.4c5-9.9,2.8-18.9-6.1-25.5
	c-5.2-3.9-11.3-5.6-17.4-7.1C311.4,277.9,298.1,278.2,284.8,278.3z M461.7,240.4c-2.2-0.1-3.3,1.1-4.4,2.1
	c-18.5,16.9-40.3,19-63.6,13.8c-16.1-3.6-28.9-12.4-39.3-25c-1.2-1.4-2.4-4.2-4.5-2.9c-2.4,1.5-0.5,4,0.4,5.8
	c2.8,5.1,6.7,9.6,11.4,13.1c16.1,12.4,34.5,17.6,54.6,17.1c13.6-0.3,26.4-3.5,37.4-12C457.6,249.4,460.9,246,461.7,240.4
	L461.7,240.4z"/>
<path class="st5" d="M145,293.1c-2-7.7-4.9-15.1-5.8-23.1c-1.2-10.8,2.8-19.8,15.9-19c5.5,0.3,10.8,0.7,16.7,3.1
	c-2.6-6.9-5.4-12.9-7-19.3c-1.9-7.6-3.4-15.2-3-23.1c0.4-9.3,4.2-14.7,13.1-17.4c14.9-4.6,30-4.9,45.3-2.1c3.7,0.7,4.6,2,3.8,6
	c-4.3,21.5-14.6,39.7-28.7,56.2c-10.2,11.9-17.4,25.9-25.9,39c-12,18.4-26,34.8-47.3,42.7c-24,8.9-47.1,6.3-67.5-9.3
	c-15.1-11.5-18.5-32.7-7.8-48.3c3.2-4.5,6.1-4.6,8.3,0.6c3.2,7.8,5.2,15.9-0.1,23.8c-1,1.5-1.4,3,0.9,3.3c6.1,0.9,6.5,5.1,6.3,10
	c-0.1,2.2-1.2,5.7,1.3,6.3c2.7,0.6,3.3-3.1,4.5-5.1c5.7-9.9,10.6-20.3,19.9-27.7c6.6-5.3,13.4-5.2,20.5-2.1
	c5.3,2.4,10.1,5.8,14.2,10c2,2.2,3.9,4.5,5.7,6.9l1.7-0.9c0-2.2-0.1-4.4,0-6.6c0.3-7.4,4.2-9.5,10.5-5.6c1.3,1,2.8,1.7,4.5,2.1
	l0.4,0.1L145,293.1z"/>
<path class="st6" d="M251.3,101.2c7-0.2,7.2,0.2,4.7,5c-7.3,14.1-12,29.1-16.1,44.4c-3.2,12.2-9.9,23.2-13.1,35.4
	c-0.4,1.7-1.9,2-3.5,2.1c-6.9,0.4-18.5-10.7-18.3-17.8c0-2,1-3.9,2.6-5.1c2.6-2.1,5.9-3.3,9.2-3.3c1.3,0,3,0.3,3.4-1.3
	c0.3-1.3-1.2-1.8-2.1-2.5c-5.4-3.9-9.1-9.2-12-15.1c-4.9-9.9-4-16.2,4.2-23.7C222.2,108.4,237.1,103.5,251.3,101.2z"/>
<path class="st7" d="M344.7,426.1c15.6-3.4,31.1-6.8,46.2-12.1c33.4-11.7,63.8-28.4,88.7-54c1.2-1.3,2.3-3,4.5-2.6
	c-11.3,17.1-25.1,32.4-41.1,45.2c-30.5,24.5-65,40.6-102.9,49.7c-0.2-0.2-0.4-0.4-0.7-0.6C342.3,443.4,344.1,434.8,344.7,426.1z"/>
<path class="st8" d="M461.9,458.7c-0.4,5.5-1.4,10.7-5,15s-8.4,6.3-14.2,5c-18.6-3.9-32.6-15.1-45.3-28.4c-1.9-2-1.1-3,1-4
	c15.3-7.6,30.8-15,44.9-24.8c1.6-1.1,3.1-1.8,4.6,0.5C455.2,433.2,460.6,445.2,461.9,458.7z"/>
<path class="st9" d="M274.9,54c0.5-5.4,0.5-10.9,2.2-16.2c4.2-13.4,11.9-17.7,25.5-14.2c8.2,2.1,16,5.8,22.8,10.9
	c2.9,2.1,3.1,3.4-0.6,5c-14.7,6.2-28,14.6-39,26.2c-1,1.1-2.2,2-3.5,2.8c-1.5,0.9-2.3,3.7-4.3,2.8S276,67.9,276,66
	C276.1,61.9,274.3,58.1,274.9,54z"/>
<path class="st9" d="M381.6,4.3c3.7,0.4,7.2,1.7,10.4,3.6c8.1,5.4,13.3,13.3,18,21.6c0.5,1,1.4,2.1,0.3,3.2c-0.9,0.8-1.9,0.2-2.8,0
	c-15.7-3.6-31.9-4.5-47.9-2.5c-1.7,0.2-4,1-5.1-0.7s0.4-3.6,1.4-4.9C362,16,368.5,7.7,379.4,4.8L381.6,4.3z"/>
<path class="st2" d="M402,476c-20.4-0.8-40.7-0.7-61.1-1.2c-8.4-0.2-16.8-1.3-25.1,0.3c2.6-3.3,6.2-4.5,10.3-5.3
	c16.8-3.2,33.2-7.9,49.2-14.1c2.8-1.1,4.4-0.8,6.3,1.6C387.4,464.6,395.4,469.6,402,476z"/>
<path class="st10" d="M206.9,247.2c1.9,1.8,4.4,0.8,6.6,1.7c10.4,4.4,13.1,18.4,5.2,27.9c-3.7,4.4-8.1,7.5-14.3,6
	s-9.8-5.1-10.7-11.6c-0.2-1.4-1.1-2.7-1.7-4.1C196.5,260.2,201.5,253.5,206.9,247.2z"/>
<path class="st5" d="M428.7,39.1c7.1-4.2,13.7-7.6,21.1-8.8c5.7-0.9,9.8,1.8,12.5,6.3C466,42.8,468,49.8,468,57c0,1.7-0.2,3.5-2.4,2
	C454.2,51.2,442,44.9,428.7,39.1z"/>
<path class="st6" d="M257.1,96.2c-5.7,0.1-11.6-6.9-12.2-13.8c-0.5-5.7,2.5-9.7,8.2-10.1c6.4-0.6,13-0.3,19.3,0.9
	c3.7,0.8,3.9,2.6,1.7,5.1c-4,4.6-7.6,9.6-10.7,14.9C262.1,95.5,259.6,96.7,257.1,96.2z"/>
<path class="st9" d="M497.9,364.1c2.7-4.8,5.3-9.6,8-14.4C505.8,356.1,503.4,361,497.9,364.1L497.9,364.1z"/>
<path class="st11" d="M199.9,474.2c0-0.3,0-0.6,0-1l16,0.9C210.7,475.7,205.1,475.7,199.9,474.2z"/>
<path class="st9" d="M497.9,364.1l-0.2,0.3L497.9,364.1L497.9,364.1z"/>
<path class="st7" d="M484.1,357.4l0.8-1.2L484.1,357.4z"/>
<path class="st7" d="M340.1,452.3l-0.6,0.4c0-0.3,0-0.7,0-1C339.7,451.9,339.9,452.1,340.1,452.3z"/>
<path class="st12" d="M284.8,278.3c13.3-0.1,26.6-0.4,39.6,2.8c6.1,1.5,12.2,3.2,17.4,7.1c8.9,6.6,11.1,15.6,6.1,25.5
	c-4.3,8.5-11.2,14.8-18.7,20.4c-5.5,4.1-11.5,7.2-17.5,10.5c-8.2,2.9-16.4,5.3-25.6,2.1c2.5-2.9,5.7-3.4,8.5-4.4
	c13.7-5,26.7-11.1,37.5-21.1c3.3-3.1,6.3-6.4,8-10.6c3.1-7.5,1.2-13.3-5.9-17.3s-14.7-5.1-22.5-6.1c-12-1.6-24.3,0.2-36.3-2.1
	c-2.2-0.4-4.5-0.5-7.6-0.9C273.8,280.3,279.5,279.8,284.8,278.3z"/>
<path class="st13" d="M514.7,224.6c-1.8,1.6-3.3,3.9-5.9,4.5c-0.9,0.2-2.3,0.4-2.8-0.1c-0.8-0.8,0-1.8,0.6-2.6
	c0.9-1.2,1.9-2.3,2.9-3.4c7-9,5.5-22.5-3.7-29.4c-4-3-8.5-4.7-13.5-2.5c-20.1,8.7-41.3,11.2-62.9,11.7
	c-36.9,0.8-72.5-5.6-106.1-21.4c-8.7-4.1-17.1-8.8-24.5-15.1c1.5-1.3-2.1-2.8,0.1-4.1c1.6,0.4,3.1,1.1,4.4,2.2
	c26.5,18.3,56.3,27.6,87.9,31.8c28,3.7,55.8,3,83.3-3.8c4.2-0.9,8.4-2.3,12.3-4.1c18.3-9.3,33.4,9.1,31.5,24.4
	C517.7,216.9,516.5,220.8,514.7,224.6z"/>
<path class="st0" d="M322.3,147.1c-2.6,0.1-4.6-0.9-5.4-3.5c-0.7-2.5,0.6-4.2,2.6-5.4c1.3-0.7,2.7-1.2,4.2-1.5
	c9.9-2.4,19.8-4.7,29.7-7c3.5-0.8,7.1-0.8,8.1,3.5c0.9,4.1-2.3,5.4-5.6,6.1C344.7,141.9,333.5,144.5,322.3,147.1z"/>
<path class="st0" d="M448.4,134.1c10.9,4.4,23,9,34.1,15.7c1.8,1.1,1.8,3.5,0.8,5.5c-0.9,1.9-3,2.9-5,2.4c-0.7-0.1-1.3-0.3-1.9-0.5
	c-10.2-4.5-20.4-9-30.5-13.6c-2.5-1.1-4.3-2.9-3.6-5.8C442.8,135.2,444.8,134.2,448.4,134.1z"/>
<path class="st10" d="M305.7,404.1c-6.6-0.1-13.8-6.4-13.7-12.1c0.1-4.8,5.6-9.8,10.8-9.9c6.2-0.1,13,6.6,13,12.7
	C315.9,400.3,311.5,404.2,305.7,404.1z"/>
<path class="st12" d="M299,162.1c-2.2,1.3,1.3,2.8-0.1,4.1c-8-3.9-18.5,0.6-22.1,10.1c-3.8,10.1-2.5,19.6,4.9,27.8
	c1,1.1,2,2.2,2.9,3.4c0.5,0.8,1,1.7,1.3,2.6c-6,0.1-8.5-4.3-11.6-7.7c-3.7-8.4-5.6-17.1-2.4-26.1c3.2-8.9,9.5-14.3,18.8-15.9
	C293.5,159.9,296.7,159.2,299,162.1z"/>
<path class="st10" d="M385.1,73.2c4.2-0.3,5.8,2.3,5.7,6.1s-2.1,5.8-5.8,5.9s-6.2-2.6-6.1-6.7C379,74.5,380.5,73.1,385.1,73.2z"/>
<path class="st10" d="M221.3,305.1c-3.7-0.5-5.3-3.2-5.2-6.6c0.1-3.8,2.7-5.4,6.4-5.4c4-0.1,5.4,2.3,5.3,5.7
	C227.7,302.8,225.3,304.7,221.3,305.1z"/>
<path class="st10" d="M386.8,64.3c0,2.1-0.8,2.9-2.4,2.9s-2.5-0.7-2.4-2.3c0-1.4,1.1-2.5,2.5-2.5c0,0,0,0,0,0
	C386.2,62.2,386.9,63.2,386.8,64.3z"/>
<path class="st14" d="M461.7,240.4c-0.8,5.6-4.1,9-8,12c-11,8.5-23.8,11.7-37.4,12c-20.1,0.5-38.5-4.7-54.6-17.1
	c-4.7-3.5-8.6-7.9-11.4-13.1c-0.9-1.8-2.8-4.3-0.4-5.8c2.2-1.4,3.4,1.4,4.5,2.9c10.4,12.6,23.2,21.4,39.3,25
	c23.3,5.2,45,3.1,63.6-13.8C458.3,241.5,459.4,240.3,461.7,240.4z"/>
<path class="st0" d="M145,293.1l0.3,0.2l-0.4-0.1L145,293.1z"/>
</svg>
