<?xml version="1.0" encoding="utf-8"?>
<!-- Generator: Adobe Illustrator 27.9.0, SVG Export Plug-In . SVG Version: 6.00 Build 0)  -->
<svg version="1.1" id="Layer_1" xmlns="http://www.w3.org/2000/svg" xmlns:xlink="http://www.w3.org/1999/xlink" x="0px" y="0px"
	 viewBox="0 0 597.3 511.2" style="enable-background:new 0 0 597.3 511.2;" xml:space="preserve">
<style type="text/css">
	.st0{fill:#413A40;}
	.st1{fill:#3E3439;}
	.st2{fill:#3F353D;}
	.st3{fill:#3B3439;}
	.st4{fill:#E2EBCE;}
	.st5{fill:#93CD45;}
	.st6{fill:#447D45;}
	.st7{fill:#467D44;}
	.st8{fill:#70AE3F;}
	.st9{fill:#FBF39C;}
	.st10{fill:#DDCB7D;}
	.st11{fill:#6B9240;}
	.st12{fill:#467744;}
	.st13{fill:#E89F3A;}
	.st14{fill:#F6F5F3;}
</style>
<path class="st0" d="M95.3,301.1c3.8-7.7,9.8-14,17.2-18.2c7-4,14.1-3,21.1,0.2c5.4,2.6,10.4,6.1,14.7,10.4
	c1.9-5.5,5.2-9.2,11.1-9.6c-5-24-2-40.2,26.7-37.6c-2.7-7.5-4.6-15.3-5.5-23.3c-2.6-22.5,5.4-32.7,27.8-35.9c7.2-1,14.5-1,22.4-1.2
	c-1.9-2.7-3.5-4.8-4.8-7c-3.8-6.5-3.4-11.5,1.7-16.8c1.7-1.8,1.6-2.4,0-4.2c-9.1-10.8-7.9-32.1,2.4-41.7s22.5-14.6,35.8-18l4.1-1.1
	c-2.1-4.1-5-7.6-6.1-12.1c-2-8.1,1.2-14.3,9.3-16.6c6-1.6,12.3-1.8,18.3-0.3c2.8,0.6,3.7,0.2,3.3-3.1c-1.2-9.8-1.3-19.6,1.5-29.2
	c4.1-13.9,14-19.9,28.2-17.1c10.4,2,20.1,6.5,28.4,13c2.4,1.9,4.5,2.3,7.6,1.7c6.6-1.3,11.1-4.2,14.3-10.4
	c3.5-6.9,9.1-12.3,15.3-16.9c11-8.2,21.4-7.9,31.9,0.9c7.8,6.6,13.2,14.9,17.3,24.2c2.5,5.5,6.8,6.8,11.8,3.6
	c6-3.9,12.4-7.2,19.5-8.5c9.5-1.7,15.7,1.3,20.2,9.9c3.9,7.5,5.5,15.7,6.1,24c0.1,2.6,1.4,5.1,3.5,6.6c12.2,9.9,22.7,21.7,31.1,34.9
	c-1.6,2.1-1.3,6.5-5.9,4.9c-0.8-1.1-1.6-2.1-2.3-3.2c-21.5-31.6-49.8-54.3-86.9-64c-48.5-12.7-91.8-2.6-127.6,33.4
	c-19.4,19.5-30.8,43.9-38.6,70.1c-1.8,6-2.4,12.4-5.2,18.2c-5.9,12-10.3,24.6-13,37.6c-3.8,17.8-9.6,34.6-21.7,48.7
	c-5.4,6.3-10.4,13-14.9,20c-6.7,10.3-13.4,20.6-20.1,30.9c-8.4,12.9-18,24.8-31,33.4c-23.2,15.4-47.8,19.1-73.8,7.7
	c-0.5-0.7-1.3-1.1-2.1-1v0c1.1-3.5,4.4,0,6-2c1.6,0.4,3.2,0.8,4.8,1.3c21,6.3,40.7,3.4,59.2-8c12.9-7.9,22.7-18.8,31-31.3
	c11.2-16.7,20.7-34.6,33.8-49.9c12.4-14.5,19.6-31,23.9-49.3c1-4.3,0.1-6.6-4.6-7.2c-11.1-1.3-22.2-1.3-33.3-0.1
	c-5.3,0.5-10.5,2-15.2,4.5c-3.1,1.6-5.5,4.3-6.7,7.6c-3.8,10.3-1.1,20.4,1.1,30.4c1.5,6.6,4.3,12.7,7,19.7
	c-6.5-2.2-13.4-3.2-20.3-2.9c-6.2,0.3-10.4,3.6-11.7,9.6c-2,9.5,0.7,18.4,3.9,27.2c0.7,1.8,1.9,3.5,1.6,6.2
	c-2.3-1.4-4.3-2.8-6.4-3.9c-4.3-2.2-6.8-1.1-8.3,3.6c-0.8,2.5-0.5,4.9-0.6,7.4c0,0.8-0.1,1.9-0.6,2.2c-1,0.7-1.9-0.3-2.5-1
	c-3-3.6-6.3-6.8-9.9-9.8c-11.4-9.3-23.4-9.7-32.2-0.6c-3.9,4.1-7.1,8.7-10.7,13.1c-2.1-0.2-2.1-1.8-2.4-3.3l-0.1,0.1
	c0.2,0,0.4,0,0.4-0.1C95.3,301.6,95.3,301.4,95.3,301.1z M245.9,161.4c-5,1-8.7,0.2-11.9,1.9c-3.6,1.9-7.2,4.3-5.6,8.8
	c2.5,7.1,7.1,12.9,14.4,15.6c2.4,0.9,6.1,2,7.2-1.9c3.4-12.6,10.3-23.8,13.4-36.4c3.7-15,9-29.6,15.8-43.4c0.6-1.3,2.1-2.7,1.2-4.1
	s-2.8-0.8-4.2-0.6c-14.6,1.9-28.1,6.7-40,15.5c-11.2,8.2-12.7,18.2-5.2,29.9C234.7,152.3,238.9,157.3,245.9,161.4z M319,23
	c-4.9-0.5-9.7,1.2-13.1,4.6c-9,8.5-8.7,33-5.6,42.4c1,2.9,2.4,1.1,3.6,0c5.2-4.7,10.2-9.4,15.6-13.9c8.6-7.2,18.6-12.1,28.7-16.8
	c2.4-1.1,4-2.3,0.9-4.4C340,28.4,330.4,23.3,319,23z M381.3,30.1c16.8-1.7,33.5-1.6,50,2.7c0.8,0.2,1.7,0.5,2.3-0.2
	c0.9-1.1,0.1-2.2-0.4-3.2c-4-7.3-8.6-14.3-15.3-19.5C412.4,5.4,406.3,2.6,399,6c-9.1,4.3-15.4,11.4-20.6,19.6
	C376.2,29,377.2,30.6,381.3,30.1L381.3,30.1z M491.3,54.8c-1-5.8-2-12-5.2-17.6s-7.8-7.9-13.7-6.8c-6.1,1.2-11.6,3.8-17.1,6.7
	c-2.5,1.3-2.3,2.6,0.2,3.7c11.1,4.6,21.6,10.3,31.5,17c0.9,0.6,1.8,1.7,3.1,1.1C491.7,58.1,491,56.5,491.3,54.8L491.3,54.8z
	 M284,72.1c-2.4,0-4.1,0-5.7,0c-8.9,0.3-12.7,6.4-8.9,14.6c1,2.1,2.2,4.1,3.5,6c3.2,4.7,10.1,5,13.5,0.6c3.8-5,7.2-10.3,11-15.4
	c2.1-2.8,1.5-4.1-1.7-4.7C291.6,72.5,287.5,71.8,284,72.1z"/>
<path class="st1" d="M415.7,477.2c-1.3,2.9,1.1,3.6,2.8,5c8.2,6.4,8.6,16.3,0.8,22.2c0.3-3-0.6-4.3-3.9-3.3c-2.4,0.7-4.9,1-7.3,1
	c-15.1-0.3-30.2,1.2-45.2-1c-5.7-0.9-11.9-1.3-15.5-7c4.7,2.5,9.5,4.7,14.9,5.4c16.3,2.1,32.5,1.9,48.8,0.7c5.6-0.4,7.7-4.2,5.6-9.5
	c-1.2-2.8-3.3-5.1-6-6.5c-2-1.2-2.9-2.5-2.8-5.2c0.7-10.3-0.2-20.7-2.9-30.7c-7.4-27.8-23.7-47.4-52.5-54.5
	c-13.9-3.4-27.9-2.4-42.7,3.4c7.6-7.3,16.1-9.1,24.3-11.6c22.5-2.3,40.9,6.1,56.7,21.4c4.2,5.3,8.8,10.4,12,16.4
	c0.9,1.7,1.9,1.9,3.5,0.8c13-8.7,25.3-18.1,34.6-30.9c12.8-14.4,20.9-31.4,27.4-49.4c0.7-2,1.5-3.9,3.3-5.4
	c32.9-27,53.5-61.7,64.7-102.4c0.3-1.2,1.2-2.4,0.2-3.7l-10.6,2.8c5.7-4.9,13.8-3.6,19.8-7.7c0.2-0.1,0.7,0.1,0.9,0.3
	c2,2.4,3.5-0.3,5.2-0.5c-9.2,47-30.9,86.9-67.5,119c2.2,0.8,3.8,1.3,5.4,1.9c9.1,3.5,12.6,12.5,8.2,21.2c-2.1,4-5.2,7.4-9,9.9
	c-7.7,5.4-16.4,9.1-25.5,10.9c-1.9,0.2-3.7,1.3-4.8,2.9c-12.4,17.4-28.1,32.3-46.2,43.7c-1.3,0.8-3,1.2-2.1,3.7
	C414.8,452.2,415.4,464.7,415.7,477.2z M466,382.4c4.1-0.9,8.2-2.3,12-4.1c5.1-2.5,10.1-5.1,12.9-10.5c1.7-3.3,2.5-6.9,0.2-9.9
	c-2.5-3.3-6.6-4.3-10.5-5.3c-1.2-0.3-1.8,0.8-2.1,1.7C475.6,363.8,470.8,372.5,466,382.4z"/>
<path class="st2" d="M347.3,494c3.6,5.8,9.8,6.2,15.5,7c15,2.2,30.1,0.7,45.2,1c2.5,0,5-0.3,7.3-1c3.3-1,4.2,0.4,3.9,3.3
	c-0.4,0.7-1.2,1-2,0.9c-1.5-1.6-2.5-1.4-3.1,0.8l-2,0.2c-2.5-1.4-5-2.3-7,0.7l-8,0.2c-2.6-2-5.7-1.1-8.6-1
	c-6.5,0.3-13.1-1.3-19.4,0.9l-3-0.1c-4.9-3.3-10.6-2.2-16-2.9c-1.5-0.2-2.9-0.9-4-2c-0.2-1.9-1.5-2-3-2c-3.4-2.2-6.2-5.2-8.1-8.7
	c-0.4-3.2-0.5-6.5-4-8.2v0.1c-0.2-1.8-1.2-2-2.8-1.7c-8.9,1.3-17.8,0.5-26.7,0.5c-3.8,0-7.5-1.9-11.5-0.8c-3.5-0.5-6.9-1.6-10-3.3
	c-2.8-3.8-6.8-5.1-11.2-5.7l0,0c0-2.1-1.5-2.2-3.1-2l0,0.1c-0.3-2.8-2.5-2.3-4.2-2.2c-9.5,0.8-19.1,1.1-28.7,1c-1.4,0-2.7,0.2-3,1.9
	h-5c-0.7-2.6-2.8-1.9-4.5-1.9c-15.4,0.4-30.6-1.7-45.7-3.9c-1.3-0.2-2.6-0.3-3.7,0.8c-50-8.9-95.3-26.8-130.1-65.7
	c0.1-1.6-0.1-3-2.2-3.1l-1.8-1.9c0.1-1.6-0.1-3.1-2.2-3.1l-0.8-0.9c0.1-1.6-0.1-3.1-2.2-3.1l-0.8-0.9c0.1-1.5,0-3-2.1-3.1h0
	c0-2.3,0-4.6-3.1-5h0c0.2-1.5,0.1-2.9-1.9-3.2l-1-1.8c-0.6-6.2-4.8-10.8-6.9-16.3c-0.6-1.7-2.6-3.2-1.3-5.4c2.3,0,2.3,2.1,3.2,3.3
	c4.2,5.9,6.1,13.7,14.3,16.1l0.8,1.1l1,2l1,1.8l1.1,1.2l-0.1-0.1l0.8,1.1l1.2,1.9c-0.1,1,0.6,2,1.6,2.1c0.1,0,0.2,0,0.2,0
	c0.1,0.2,0.2,0.5,0.2,0.8c0.3,0.4,0.7,0.8,1,1.2V385c-0.2,1.5,0.9,2.9,2.4,3.1c0.1,0,0.3,0,0.4,0l2.2,2.8c2.5,5.3,6.7,9.5,12,12.1
	H58l1.1,1.1l-0.1-0.1c0.4,0.7,1.2,1.2,2,1.1l2.1,1.8l1.1,1.2l-0.1-0.1l1.1,1.1l-0.1-0.1c0.3,0.8,1.1,1.3,2,1.2v0
	c0.1,2.7,1.8,3.2,4,3H71l1.1,1l-0.1-0.1l1.1,1v-0.1c0.1,1.3,1.2,2.2,2.5,2.1c0.2,0,0.4-0.1,0.6-0.1h-0.1c0.1,1.3,1.2,2.2,2.5,2.1
	c0.2,0,0.4-0.1,0.6-0.1h-0.1c0.5,2.2,2.2,2.3,4,2.2h-0.1l1.1,1v-0.1c1.7,3.2,4.7,3.9,8,4.2l0,0c1.9,3.8,5.3,4.6,9.1,4.9h-0.1
	c0.6,1.3,1.8,1.2,3,1.2h-0.1c1.9,3.1,5.4,3.7,8.3,5c8.7,3.8,17.8,6.5,26.8,9.2c21,6.2,42.6,10.1,64.4,11.6c13.4,1,26.9,0.1,40.4,0.2
	c3.8,0,4.9-1.4,4.2-5.2c-0.4-2.2-1.8-5.4,1.8-6.9l0,0c-0.2,2.9,1,4.7,4.1,5l2.9,2.9l1.1,1.1l-0.1-0.1l1.1,1.1v-0.1
	c0.2,1.8,0.4,3.5,2.9,2.2l1.1,0.8c-0.1,1,0.7,1.9,1.8,2c0.1,0,0.2,0,0.3,0h-0.1c0.4,0.7,1.3,1.1,2.1,1h-0.1c0.4,0.4,0.7,0.7,1.1,1.1
	l-0.1-0.1c0.4,1.3,1.7,2.2,3.1,2v-0.1c0.3,2.7,2.4,2,4,2.1h-0.1c0.4,0.7,1.2,1.1,2.1,1h-0.1c0.4,0.7,1.2,1.1,2.1,1h-0.1
	c0.5,0.7,1.3,1.1,2.2,1c0.3,0,0.5,0,0.8,0.1c5,4,10.9,5.2,17.1,4.9c0.3,0,0.6,0.1,0.9,0.2c9.7,3.5,19.3,1.5,28.8-0.6
	c6.1-1.4,5.8-1.6,7.3,4.5c0.8,3.4,0.8,7.4,5.1,8.9h-0.1c0,0.9,0.1,1.7,1.1,2l0.1-0.1c-0.3,1.6,0.4,2.2,1.9,2l-0.1,0.1l1.1,1V493
	c0.3,1,1.1,1.2,2,1.2L347.3,494z"/>
<path class="st3" d="M32.4,372c-8.1-2.3-10.1-10.2-14.3-16.1c-0.9-1.2-0.9-3.3-3.2-3.3c-1.3,2.2,0.6,3.7,1.3,5.4
	c2.1,5.5,6.3,10.1,6.9,16.3C5.3,343.1-4.8,310.3,2.2,274c2.1-10.9,3.5-11.9,14.5-11.8c4.9,0,9.1-0.2,13.4-4.1
	c5.8-5.3,13.9-3.5,19.5,2.9c5.1,5.6,8.1,12.9,8.4,20.5l2.9-1c10.6-3.6,17.8-0.1,21.5,10.5c0.7,2.2,1.2,4.5,1.5,6.8
	c0.2,0.8,0,2.3,0.7,2.1c3.8-1,6.7,2.3,10.3,1.9c0.3,1.5,0.3,3.1,2.4,3.3l-0.4,2.1l-0.8,0.9l-1,3c-1,0.5-1,2.2-2.7,2.1
	c-0.8-3.2,0.2-7.4-5.1-8.2c-4.3-0.7-6.6,2.5-10.2,4.6c2.1-9.4,4.8-18.6-4.3-24.8c-6.6-4.5-12.6-0.5-18.5,4c-0.4-3.4-0.8-6.3-1.2-9.2
	c-0.6-6.5-3.6-12.6-8.3-17.1c-4.2-4-7.9-4-12.8-1.3c-4.6,2.6-4.5,6.4-3.3,10.8c4.9,17.3,16,30.4,29.1,42.1
	c5.2,4.6,10.8,8.7,16.3,13.1c-1.2,0.2-2.2,1.1-2.4,2.4c-22.2-14.4-40-32.4-47.4-58.7c-0.8-2.8-1.9-3.9-4.7-3.7
	c-1.5,0.2-3,0.1-4.5-0.1c-5.2-0.9-7,1.8-7.8,6.5C5,288.1,6.7,302.6,9.8,317C13.9,336.7,22.2,354.8,32.4,372z"/>
<path class="st1" d="M525.5,106.3c4.7,1.6,4.3-2.8,5.9-4.9c5.1,7,9.4,14.4,13,22.2c1.3,2.8,2.4,3.8,5.9,2.8
	c25.1-7.3,46.9,9,46.8,35.1c-0.1,25.4-12.2,44.2-33,58c-0.3-3.1-2-4.7-5.2-4.4c1.2-0.9,2.3-1.9,3.5-2.8
	c10.7-8.3,19.5-18.2,23.8-31.4c3.9-12,4.8-23.9-2.6-35c-5.6-8.4-13.9-12-23.7-11.3c-9.1,0.6-14,6.8-16.9,14.9
	c-0.3,0.9-0.4,2-1.8,2.3c-0.3-3-0.4-5.9-0.9-8.8C538.5,129.6,532,118,525.5,106.3z"/>
<path class="st0" d="M559,215.1c3.2-0.3,4.9,1.3,5.2,4.4l-1,0.7c-1.5,0-2.9,0-3.1,2l-1.8,1.1c-2.2,0-4.4,0.1-5.1,2.8l-1.1,1.1
	c-1.7,0.2-3.2,2.9-5.2,0.5c-0.2-0.2-0.7-0.4-0.9-0.3c-6,4.1-14.1,2.9-19.8,7.7l-7,1.8l-0.8-1.1l-1.2,1.4l-3.1,0.7
	c-4.4-1.7-8.5,0.5-12.8,0.9l0.5,0.8l-2.7,0.3c-7.5-1.7-15.1-0.3-22.7-0.8c-1.8-0.1-3.8,0.6-5.7-0.8c1.5-1.8,3.3-1.1,4.8-1.1
	c5.5-0.1,10.9,0,16.4-0.1c1.6,0,3.5,0.6,4.2-1.6l1.1-0.1c7.9,2.2,15.4-0.6,22.8-2.3c4.8-1.1,10.2-1.3,14-5.4l1.1-0.4
	c0.5,0.4,0.8,0.2,1-0.3l0.4,0.1c1,0.2,2-0.3,2.5-1.1H539c3.3,0,6.2-1.1,8.1-4l-0.1,0.1c0.8,0.1,1.6-0.3,2.1-1H549
	c0.8,0.1,1.7-0.3,2.1-1.1H551c2.3,0,4.5-0.1,5-3v0.1c0.8,0.1,1.6-0.4,2-1.1l-0.1,0.1L559,215.1L559,215.1z"/>
<path class="st1" d="M171.2,466c1.1-1.1,2.4-1,3.7-0.8c15.2,2.2,30.4,4.3,45.7,3.9c1.7,0,3.8-0.7,4.5,1.9
	C207,471.5,188.9,469.8,171.2,466z"/>
<path class="st1" d="M230.1,471c0.4-1.7,1.6-1.9,3-1.9c9.6,0.1,19.1-0.2,28.7-1c1.7-0.1,3.9-0.6,4.2,2.2c-5.2-1.2-10.4-0.1-15.6,0.3
	C243.7,471.1,236.9,471.2,230.1,471z"/>
<path class="st1" d="M269,472.2c4.4,0.6,8.4,1.9,11.2,5.7l-7-2.8l-0.9-0.6l-1.8-1L269,472.2z"/>
<path class="st1" d="M553.1,226c0.7-2.7,2.9-2.8,5.1-2.8L553.1,226z"/>
<path class="st3" d="M26,379.3c3.1,0.4,3.1,2.7,3.1,5C28,382.6,26.3,381.4,26,379.3z"/>
<path class="st3" d="M38.9,397.2c2.1,0,2.3,1.4,2.2,3.1L38.9,397.2z"/>
<path class="st1" d="M560.1,222.1c0.2-1.9,1.6-2,3.1-2L560.1,222.1z"/>
<path class="st1" d="M266,470.2c1.6-0.2,3-0.1,3.1,2L266,470.2z"/>
<path class="st3" d="M29,384.2c2.1,0.1,2.1,1.5,2.1,3.1L29,384.2z"/>
<path class="st3" d="M24.1,376.1c2,0.2,2.1,1.6,1.9,3.2L24.1,376.1z"/>
<path class="st3" d="M31.9,388.2c2.2,0,2.3,1.5,2.2,3.1L31.9,388.2z"/>
<path class="st3" d="M34.9,392.2c2.1,0,2.3,1.5,2.2,3.1C36.4,394.3,35.6,393.2,34.9,392.2z"/>
<path class="st3" d="M95.3,301.1c0,0.2,0,0.5,0,0.7c0,0-0.3,0-0.4,0.1C94.8,301.6,95,301.3,95.3,301.1z"/>
<path class="st1" d="M290.1,481.2c3.9-1.1,7.7,0.8,11.5,0.8c8.9,0,17.9,0.8,26.7-0.5c1.6-0.2,2.6-0.1,2.8,1.7
	c-8.2,1-16.4,1.2-24.6,0.9C300.9,484.1,295.3,483.1,290.1,481.2z"/>
<path class="st3" d="M369.1,507.1c6.4-2.2,13-0.6,19.4-0.9c2.8-0.1,5.9-1.1,8.6,1l-2.8,0.6l-23.1-0.2L369.1,507.1z"/>
<path class="st4" d="M371.2,507.6l23.1,0.2C386.6,509.8,378.9,510.2,371.2,507.6z"/>
<path class="st1" d="M350.1,504.1c5.4,0.7,11.1-0.4,16,2.9C360.6,507,355.2,506.5,350.1,504.1z"/>
<path class="st1" d="M331,483.1c3.5,1.7,3.6,5,4,8.2C333,489,331.7,486.2,331,483.1z"/>
<path class="st1" d="M405.1,506.9c2.1-3,4.5-2.1,7-0.7C409.9,507,407.5,507.2,405.1,506.9z"/>
<path class="st1" d="M414.1,506c0.6-2.1,1.6-2.4,3.1-0.8C416.3,505.9,415.2,506.2,414.1,506z"/>
<path class="st1" d="M343.1,500.1c1.5,0,2.8,0.1,3,2C344.9,501.8,343.9,501.1,343.1,500.1z"/>
<path class="st4" d="M272.2,474.5l0.9,0.6C272.2,475.7,272.4,474.9,272.2,474.5z"/>
<path class="st5" d="M536.5,227.1l-0.4-0.1l-1,0.3l-1.1,0.4c-12,3.8-24.3,6.4-36.8,7.7l-1.1,0.1l-10,0.6c-2.3-0.7-4.8-0.7-7.1,0
	l-30-2.9l-1-0.1l-2.2-0.3l-0.1,0.2c-3.2-2.1-7.1-2-10.7-2.9l-16.6-5.2c-1.5-1.2-3.4-1.9-5.3-2.1l0.1,0.1c-3.7-2.5-7.8-4.5-12.1-6
	h0.1l-2.1-1.4c-0.3-0.4-0.6-0.8-0.8-1.3c-1.1-3.1,1.6-7.4-2.6-9.4c-3.2-1.5-6.9-0.5-10.3-0.6c-1.1,0-2.3,0-3.5,0.1
	c-9.6,0.3-9.6,0.3-8.3,9.6c-13.5,11-24.9,24.4-33.6,39.5c-4.6,7.9-7.3,16.7-11.5,24.8c-6.4-1.7-12.6-4.3-20.1-4.7
	c6.1,3.5,11.4,6.6,16.7,9.7c13.2,7.9,25,17.2,32.6,30.9c5.8,10.3,2.5,17.6-8.9,20.8c-10.5,3-21.1,2.3-31.7,0.5
	c-6-1.1-12-2.6-18.9-4.2c6.3,7,14.1,9.1,21.6,11.6c1.9,15.1,6.2,29.3,14.2,42.4c-8.2,2.5-16.7,4.3-24.3,11.6
	c14.8-5.8,28.8-6.8,42.7-3.4c28.8,7.1,45.1,26.7,52.5,54.5c2.6,10,3.6,20.4,2.9,30.7c-0.2,2.6,0.7,3.9,2.8,5.2
	c2.7,1.4,4.8,3.7,6,6.5c2.1,5.3,0,9-5.6,9.5c-16.3,1.2-32.6,1.4-48.8-0.7c-5.4-0.7-10.2-2.9-14.9-5.4v0.1c-0.3-0.8-1.1-1.2-2-1.2
	v0.1c0-0.6-0.4-1-1-1c0,0,0,0-0.1,0l0.1-0.1c-0.2-1-1-1.8-1.9-2l-0.1,0.1c0.1-0.8-0.4-1.6-1.1-2h0c-2-4.2-4.4-8.3-4.2-13.1
	c0.2-4-1.6-3.8-4.5-2.9c-7.9,2.5-16.2,3.6-24.5,3.2c-2.6-0.1-5.3-1-7.9,0.1c-0.3-0.1-0.6-0.2-0.9-0.2l-17.1-4.9
	c-0.3-0.1-0.5-0.1-0.8-0.1c-0.4-1-1.3-1-2.2-1h0.1c-0.4-0.9-1.2-1-2.1-1h0.1c-0.4-0.9-1.3-0.9-2.1-1h0.1c-1-1.1-2.5-1.9-4-2.1v0.1
	c-0.4-1.6-1.7-2-3.1-2l0.1,0.1c-0.4-0.4-0.7-0.7-1.1-1.1h0.1c-0.5-0.9-1.3-0.9-2.1-1h0.1c-0.3-1-1.1-1.8-2.1-2l-1.1-0.8l-2.8-2.1
	v0.1l-1.1-1.1l0.1,0.1l-1.1-1.1l-2.9-2.9c-1-1.9-2.4-3.6-4.1-5l0,0c-0.8-2.1-2-3.9-3.6-5.4c-0.2,0.6-0.3,1.3-0.3,1.9
	c0.2,3,0.3,6,0.8,8.9c0.6,3.5-0.2,4.9-4.2,5.1c-31.8,1.9-63.1-1.6-94-9.1c-15.3-3.7-30.1-9.4-44.7-15.4h0.1c-0.7-0.9-1.9-1.3-3-1.2
	h0.1c-2.6-2.4-5.9-3.6-9.1-4.9l0,0c-2.3-2-5-3.4-8-4.2v0.1l-1.1-1h0.1c-0.9-1.3-2.4-2.1-4-2.2h0.1c-0.5-1.2-1.7-2-3.1-2h0.1
	c-0.5-1.2-1.7-2-3.1-2v0.3c0-0.7-0.5-1-1.1-1l0.1,0.1l-1.1-1h0.1c-1-1.4-2.4-2.4-4-3v0c-0.4-0.7-1.2-1.2-2-1.2l0.1,0.1l-1.1-1.1
	l0.1,0.1l-1.1-1.2l-2.1-1.8l-2-1.1l0.1,0.1l-0.8-1.1h0.1c-3.4-4.6-7.4-8.7-12-12.1l-2.2-2.8c-0.2-1.5-1.3-2.8-2.8-3.1v0.1
	c-0.3-0.4-0.7-0.8-1-1.2c0-0.3,0-0.5-0.2-0.8c0-1.2-0.9-1.8-1.8-2.2l-1.2-1.9l-0.9-1l0.1,0.1l-1.1-1.2l-1-1.8c0.1-0.8-0.3-1.6-1-2
	l-0.8-1.2c-10.3-17.2-18.5-35.3-22.7-55c-3-14.4-4.7-28.8-2.2-43.5c0.8-4.7,2.6-7.4,7.8-6.5c1.5,0.2,3,0.2,4.5,0.1
	c2.8-0.2,3.9,0.9,4.7,3.7c7.4,26.3,25.1,44.3,47.4,58.7l0.1-0.1c1.2,1.6,3,2.7,5,3.1l0.1-0.2l1.1,1h-0.1l2,1.2l1.1,0.6l1.9,1l2.1,1
	l2.8,1.2v0l2.1,1c26.1,11.4,50.7,7.7,73.8-7.7c13-8.6,22.6-20.5,31.1-33.4c6.7-10.3,13.4-20.6,20.1-30.9c0.6,1.4,1.5,2.6,1.7,4.1
	c0.9,6.4,4.5,10.1,10.7,11.6s10.6-1.6,14.3-6c8-9.5,5.2-23.5-5.2-27.9c-2.2-0.9-4.7,0.1-6.6-1.7c12.1-14.1,17.9-30.9,21.7-48.7
	c2.7-13,7.1-25.7,13-37.6c2.8-5.8,3.4-12.1,5.2-18.2c7.8-26.2,19.2-50.6,38.6-70.2c35.8-36,79.2-46.1,127.6-33.4
	c37.1,9.7,65.5,32.5,86.9,64c0.7,1.1,1.6,2.1,2.3,3.2c6.4,11.7,13,23.3,15,36.8c0.4,2.9,0.6,5.8,0.9,8.8c1.4-0.3,1.4-1.4,1.8-2.3
	c2.8-8.1,7.8-14.3,16.8-15c9.7-0.7,18,2.9,23.6,11.3c7.5,11.1,6.5,23,2.6,35c-4.2,13.2-13.1,23-23.8,31.4c-1.2,0.9-2.3,1.9-3.5,2.8
	l0,0l-1.1,1l0.1-0.1c-0.8,0-1.6,0.4-2,1.1v-0.1c-1.9,0.6-3.6,1.6-5,3h0.1l-2.1,1h0.1l-2.1,1l0.1-0.1c-3,0.7-5.8,2-8.1,4h0.1
	C538.1,225.9,537.1,226.3,536.5,227.1z M347.1,163.3c-1.6-0.1-3.2-0.1-4.8,0c-6.2,1.1-10.6,4.5-12.5,10.7c-1.6,5.3,1.4,9,5,12.1
	c6.7,5.7,16.2,6.5,23.8,2.2c8.7-4.8,9.2-16.2,0.9-21.8C355.8,164.1,351.8,162.5,347.1,163.3z M383.6,139.3c1-0.1,2-0.1,3-0.1
	c11.1-1,22.5-9.4,25.1-18.6c0.7-2.3,1.1-4.7-1.7-6c-2.4-1.1-3.8,0.4-4.7,2.3c-5.3,10.9-13.8,16.2-26.1,14.8c-2.2-0.2-3.4,1-3.9,3
	s0.7,3.1,2.4,3.9C379.5,139.4,381.6,139.2,383.6,139.3L383.6,139.3z M409,85.2c2.8-0.3,5-2.1,5.1-5.9s-2.6-6.2-6.7-6.2
	s-5.1,2.5-5.3,5.7C401.9,82.6,404.5,85.2,409,85.2z M246.7,293.1c-4.6,0-7.3,1.6-7.4,5.4c-0.1,3.4,1.4,6.5,5.4,6.5s6.3-2.2,6.4-6.2
	C251.1,295.5,249.7,293,246.7,293.1z M374.4,194.9c-3.7-3.3-6.5-3.3-9.6-0.7c-3.7,3-4.5,6.8-1.7,11.4
	C364,198.9,366.3,193.9,374.4,194.9L374.4,194.9z M567,175.7c0.1,1.6-0.2,3.6,2,3.4c3.2-0.4,3.2-3.5,3.7-5.8
	c0.4-1.6-0.4-3.3-2.3-2.9C567.6,170.9,567.3,173.4,567,175.7z M407.4,67.1c1.5,0.1,2.6-0.4,2.7-2.1c0.1-1.5-0.3-2.7-2-2.7
	c-1.3-0.2-2.6,0.8-2.7,2.1c0,0,0,0,0,0.1C405,66.1,405.8,67,407.4,67.1z"/>
<path class="st6" d="M96.9,307.2l0.4-2.1c3.6-4.4,6.8-9.1,10.7-13.1c8.8-9.1,20.8-8.7,32.2,0.6c3.6,3,6.9,6.2,9.9,9.8
	c0.6,0.7,1.4,1.8,2.5,1c0.5-0.4,0.6-1.5,0.6-2.2c0.1-2.5-0.2-5,0.6-7.4c1.6-4.6,4.1-5.8,8.3-3.6c2.1,1.1,4.1,2.5,6.4,3.9
	c0.3-2.7-0.9-4.4-1.6-6.2c-3.2-8.8-5.9-17.7-3.9-27.2c1.3-6,5.5-9.2,11.7-9.6c6.9-0.3,13.8,0.7,20.3,2.9c-2.7-7-5.5-13.1-7-19.7
	c-2.2-10-4.9-20.1-1.1-30.4c1.2-3.3,3.6-6.1,6.7-7.6c4.7-2.5,9.9-4,15.2-4.5c11.1-1.2,22.2-1.2,33.3,0.1c4.7,0.6,5.6,2.9,4.6,7.2
	c-4.3,18.2-11.4,34.8-23.9,49.3c-13.1,15.3-22.6,33.2-33.8,49.9c-8.3,12.4-18.1,23.4-31,31.3c-18.6,11.4-38.3,14.3-59.2,8
	c-1.6-0.5-3.2-0.9-4.8-1.3l0.1-0.2c0-8.4-0.3-16.7,1-25l1-3L96.9,307.2z"/>
<path class="st7" d="M245.9,161.4c-6.9-4.1-11.1-9.2-14.8-14.8c-7.6-11.7-6-21.7,5.2-29.9c11.9-8.8,25.4-13.6,40-15.5
	c1.4-0.2,3.3-0.8,4.2,0.6s-0.5,2.8-1.2,4.1c-6.9,13.9-12.2,28.4-15.8,43.4c-3.1,12.6-10,23.9-13.4,36.4c-1.1,3.9-4.8,2.8-7.2,1.9
	c-7.3-2.8-11.9-8.5-14.4-15.6c-1.6-4.5,2-6.9,5.6-8.8C237.2,161.7,240.9,162.5,245.9,161.4z"/>
<path class="st7" d="M319,23c11.4,0.3,21,5.4,30.1,11.8c3,2.2,1.4,3.3-0.9,4.4c-10.1,4.7-20.1,9.6-28.7,16.9
	c-5.3,4.5-10.4,9.3-15.6,13.9c-1.2,1.1-2.6,3-3.6,0c-3.1-9.3-3.3-33.9,5.6-42.4C309.3,24.2,314.2,22.5,319,23z"/>
<path class="st7" d="M381.3,30.1c-4,0.5-5.1-1.1-2.9-4.5c5.3-8.2,11.6-15.4,20.6-19.6c7.3-3.4,13.4-0.6,18.9,3.8
	c6.6,5.2,11.3,12.2,15.3,19.5c0.5,1,1.3,2.1,0.4,3.2c-0.6,0.8-1.5,0.4-2.3,0.2C414.8,28.5,398,28.4,381.3,30.1z"/>
<path class="st8" d="M230.1,247.2c1.9,1.8,4.4,0.8,6.6,1.7c10.4,4.4,13.1,18.4,5.2,27.9c-3.7,4.4-8.1,7.5-14.3,6s-9.8-5.1-10.7-11.6
	c-0.2-1.4-1.1-2.7-1.7-4.1C219.7,260.1,224.7,253.5,230.1,247.2z"/>
<path class="st7" d="M491.2,54.8c-0.3,1.7,0.4,3.3-1.1,4c-1.3,0.6-2.2-0.4-3.1-1.1c-9.9-6.7-20.5-12.4-31.5-17
	c-2.5-1-2.7-2.3-0.2-3.7c5.4-2.9,11-5.6,17.1-6.7c5.9-1.1,10.5,1.1,13.7,6.8S490.2,49,491.2,54.8z"/>
<path class="st7" d="M284,72.1c3.5-0.4,7.5,0.4,11.6,1.1c3.2,0.6,3.8,1.9,1.7,4.7c-3.8,5-7.2,10.3-11,15.4
	c-3.3,4.5-10.3,4.1-13.5-0.6c-1.3-1.9-2.5-3.9-3.5-6c-3.8-8.2-0.1-14.3,8.9-14.6C279.9,72.1,281.6,72.1,284,72.1z"/>
<path class="st3" d="M88.1,338.2l-2.8-1.2l3-3l6,2l-0.1,0.2C92.5,338.2,89.1,334.7,88.1,338.2z"/>
<path class="st3" d="M90.2,339.2l-2.1-1C88.9,338.1,89.7,338.5,90.2,339.2z"/>
<path class="st9" d="M334.2,385.4c-8-13-12.4-27.3-14.2-42.4c1.8,0.2,3.6,0.4,5.4,0.6c11.5,1.2,22.9,1.9,33.8-3.1
	c10.3-4.8,13.7-13.9,9.2-24.4c-2.1-4.7-4.9-9.1-8.2-13c-8.7-10.5-19.4-18.5-31.5-24.8c4.1-8.1,6.9-16.8,11.5-24.8
	c8.7-15.1,20.1-28.5,33.6-39.5c2.1,3.7,4.2,7.6,6.4,11.2c3,4.9,4.5,5.2,8.9,1.3c2.6-2.4,4.7-6.9,7.4-7.2c2.9-0.4,6.4,2.9,9.6,4.6
	c0.2,0.2,0.5,0.4,0.9,0.4l-0.1-0.1l2.8,1.4v-0.1l1.4,0.7c1.2,0.9,2.5,1.5,4,1.7l1.6,0.6v-0.1c2.3,1.3,4.7,2.2,7.3,2.6
	c2.2,1.3,4.7,2,7.3,2.1c0.7,0.7,1.7,1.1,2.7,0.9c2.2,1,4.6,1.6,7.1,1.8c4.9,1.3,9.9,2.2,14.9,2.6l2.1,0.4c13.5,2,27.3,2.3,40.9,1
	l2.7-0.3c4.1-0.2,8.2-0.7,12.3-1.7l3.1-0.7l2-0.3l7-1.8l10.6-2.8c1,1.3,0.1,2.5-0.2,3.7c-11.2,40.7-31.8,75.4-64.7,102.4
	c-1.8,1.5-2.5,3.4-3.3,5.4c-6.5,17.9-14.6,34.9-27.4,49.4c-1.6-0.2-2.8,0.7-4,1.6c-12.7,9.8-26.5,15.3-42.8,11.3
	c-1.3-0.3-2.6-1-3.3,0.8C375.1,391.5,356.6,383.1,334.2,385.4z"/>
<path class="st10" d="M390.9,406.8c0.7-1.8,2.1-1.1,3.3-0.8c16.3,4,30.2-1.5,42.8-11.3c1.2-0.9,2.4-1.8,4-1.6
	c-9.3,12.8-21.6,22.2-34.6,30.9c-1.6,1.1-2.6,0.9-3.5-0.8C399.7,417.1,395.1,412.1,390.9,406.8z"/>
<path class="st11" d="M466,382.4c4.8-9.9,9.6-18.6,12.5-28.1c0.3-0.9,0.9-2,2.1-1.7c3.9,1,8,2.1,10.5,5.3c2.3,3,1.5,6.7-0.2,9.9
	c-2.8,5.4-7.8,8-12.9,10.5C474.1,380.1,470.1,381.5,466,382.4z"/>
<path class="st3" d="M104.2,432c14.6,6,29.4,11.7,44.7,15.4c30.9,7.5,62.1,11.1,94,9.1c4-0.2,4.8-1.6,4.2-5.1
	c-0.5-2.9-0.6-6-0.8-8.9c0-0.6,0.1-1.3,0.3-1.9c1.6,1.5,2.9,3.3,3.6,5.4c-3.6,1.4-2.3,4.6-1.8,6.9c0.7,3.8-0.4,5.3-4.2,5.2
	c-13.5-0.1-27,0.8-40.4-0.2c-21.8-1.5-43.4-5.4-64.4-11.6c-9.1-2.7-18.1-5.5-26.8-9.2C109.6,435.7,106.1,435.1,104.2,432z"/>
<path class="st1" d="M300.2,475.2c2.6-1.1,5.3-0.1,7.9-0.1c8.3,0.4,16.6-0.7,24.5-3.1c3-1,4.7-1.2,4.5,2.9c-0.2,4.8,2.2,9,4.2,13.1
	c-4.3-1.5-4.3-5.6-5-8.9c-1.4-6.1-1.2-5.8-7.3-4.5C319.5,476.7,309.9,478.7,300.2,475.2z"/>
<path class="st3" d="M46.2,390.9c4.6,3.4,8.6,7.5,12,12.1C53,400.5,48.8,396.2,46.2,390.9z"/>
<path class="st1" d="M282.1,470.1l17.1,4.9C293,475.3,287.2,474.1,282.1,470.1z"/>
<path class="st3" d="M92.2,426c3.2,1.3,6.5,2.5,9.1,4.9C97.6,430.6,94.1,429.9,92.2,426z"/>
<path class="st3" d="M84.3,421.9c3,0.8,5.7,2.2,8,4.2C89,425.8,86,425,84.3,421.9z"/>
<path class="st3" d="M250.2,446c1.7,1.4,3,3.1,4.1,5C251.3,450.7,250,448.9,250.2,446z"/>
<path class="st3" d="M67.2,410c1.6,0.6,3,1.6,4,3C69.1,413.2,67.3,412.7,67.2,410z"/>
<path class="st3" d="M259.2,456l2.9,2.2C259.6,459.5,259.4,457.7,259.2,456z"/>
<path class="st3" d="M41.3,385c1.5,0.4,2.6,1.6,2.8,3.1c-1.5,0-2.8-1.2-2.8-2.7C41.2,385.3,41.3,385.1,41.3,385z"/>
<path class="st3" d="M79.3,418.8c1.6,0.1,3.1,0.9,4,2.2C81.5,421.1,79.8,421,79.3,418.8z"/>
<path class="st1" d="M271.2,465c1.5,0.2,3,0.9,4,2.1C273.6,467,271.5,467.7,271.2,465z"/>
<path class="st1" d="M268.2,463c1.4,0.1,2.6,0.5,3.1,2C269.9,465.2,268.6,464.3,268.2,463z"/>
<path class="st3" d="M73.3,414.8c1.3,0,2.5,0.8,3.1,2c-1.2,0.4-2.5-0.2-2.9-1.4C73.4,415.2,73.4,415,73.3,414.8z"/>
<path class="st3" d="M76.3,416.8c1.3,0,2.6,0.8,3.1,2c-1.2,0.4-2.6-0.2-3-1.5C76.4,417.2,76.4,417,76.3,416.8z"/>
<path class="st3" d="M38.2,380.9c1,0.4,1.8,1,1.8,2.2c-1,0-1.9-0.9-1.9-1.9C38.2,381.1,38.2,381,38.2,380.9z"/>
<path class="st1" d="M342.5,489.8c1,0.2,1.7,1,1.9,2C342.9,492,342.2,491.4,342.5,489.8z"/>
<path class="st1" d="M263.2,459c1,0.2,1.8,1,2.1,2c-1,0.1-2-0.6-2.1-1.7C263.2,459.2,263.2,459.1,263.2,459z"/>
<path class="st3" d="M101.3,430.9c1.1-0.1,2.3,0.3,3,1.2C103.1,432.1,101.9,432.2,101.3,430.9z"/>
<path class="st1" d="M341.2,488c0.8,0.4,1.2,1.2,1.1,2C341.4,489.6,341.2,488.9,341.2,488z"/>
<path class="st1" d="M265.2,461c0.8,0.1,1.6,0.2,2.1,1C266.4,462.1,265.6,461.7,265.2,461z"/>
<path class="st1" d="M275.2,467c0.8,0.1,1.6,0.1,2.1,1C276.4,468.1,275.6,467.7,275.2,467z"/>
<path class="st1" d="M277.2,468c0.8,0.1,1.7,0.1,2.1,1C278.4,469.1,277.6,468.7,277.2,468z"/>
<path class="st1" d="M279.2,469c0.9,0.1,1.8,0,2.2,1C280.5,470.1,279.6,469.7,279.2,469z"/>
<path class="st3" d="M33.2,373.1c0.7,0.4,1.1,1.2,1,2L33.2,373.1z"/>
<path class="st1" d="M345.3,492.8c0.8-0.1,1.6,0.4,2,1.2C346.4,494,345.6,493.8,345.3,492.8z"/>
<path class="st3" d="M59.2,404l2,1.1C60.4,405.2,59.6,404.7,59.2,404z"/>
<path class="st3" d="M65.3,408.9c0.8,0,1.6,0.4,2,1.2C66.4,410.2,65.6,409.7,65.3,408.9z"/>
<path class="st3" d="M83.2,421l1.1,1L83.2,421z"/>
<path class="st3" d="M64.3,407.9l1.1,1.1L64.3,407.9z"/>
<path class="st3" d="M63.2,406.9l1.1,1.1L63.2,406.9z"/>
<path class="st3" d="M58.2,403l1.1,1.1L58.2,403z"/>
<path class="st3" d="M72.3,413.9c0.6,0.1,1,0.4,1.1,1L72.3,413.9z"/>
<path class="st3" d="M40.3,383.9c0.3,0.4,0.7,0.8,1,1.2C41,384.7,40.6,384.3,40.3,383.9z"/>
<path class="st3" d="M258.2,455l1.1,1.1L258.2,455z"/>
<path class="st1" d="M344.3,491.9c0.6,0,1,0.4,1.1,0.9c0,0,0,0,0,0.1L344.3,491.9z"/>
<path class="st3" d="M36.3,378l0.8,1.1L36.3,378z"/>
<path class="st3" d="M35.2,376.9l1.1,1.2L35.2,376.9z"/>
<path class="st3" d="M71.2,413l1.1,1L71.2,413z"/>
<path class="st1" d="M267.2,462c0.4,0.4,0.7,0.7,1.1,1.1L267.2,462z"/>
<path class="st3" d="M257.2,453.9l1.1,1.1L257.2,453.9z"/>
<path class="st12" d="M94.2,336.1l-6-2c-1.4-1.1-3.1-1.7-4.8-2l-1.2-1c-0.3,0-0.5,0-0.8,0l-1.2-1l-2-1c-1.1-1.1-2.5-1.8-4-2l0,0
	c-5.3-4.4-11-8.5-16.2-13.1c-13.1-11.6-24.2-24.8-29.1-42.1c-1.2-4.4-1.3-8.2,3.3-10.8c4.8-2.8,8.5-2.7,12.8,1.3
	c4.7,4.5,7.7,10.6,8.3,17.1c0.4,2.9,0.8,5.8,1.2,9.2c5.9-4.5,11.9-8.5,18.5-4c9,6.2,6.4,15.4,4.3,24.8c3.6-2.1,5.9-5.3,10.2-4.6
	c5.3,0.8,4.3,5,5.1,8.2c1.7,0.1,1.7-1.6,2.7-2.1C93.9,319.4,94.2,327.7,94.2,336.1z"/>
<path class="st0" d="M71.9,329.4c0.2-1.2,1.1-2.2,2.4-2.4l0,0C74.2,328.2,73.2,329.2,71.9,329.4L71.9,329.4z"/>
<path class="st0" d="M96.9,307.2l-0.8,0.9L96.9,307.2z"/>
<path class="st1" d="M499,239.9c-13.6,1.3-27.3,1-40.9-1c2.1-1.7,5.1,0.2,8.1-2.3l-13.7-1.4c0.7,2.4,3.1,1.6,3.5,3.3
	c-5-0.4-10-1.2-14.9-2.5c2.5-2.4,5.7,1.2,8.7-0.7l-4.1-2.4l2.2,0.3c0.3,0,0.7,0.1,1,0.1l30,2.9h7.1l10-0.6c-0.8,2.2-2.7,1.6-4.2,1.6
	c-5.5,0.1-10.9,0-16.4,0.1c-1.5,0-3.3-0.7-4.8,1.1c1.9,1.4,3.9,0.7,5.7,0.8C483.9,239.6,491.5,238.2,499,239.9z"/>
<path class="st1" d="M497.2,235.4c12.5-1.3,24.8-3.9,36.8-7.7c-3.8,4.1-9.2,4.3-14,5.4C512.6,234.8,505.1,237.7,497.2,235.4z"/>
<path class="st1" d="M514,237.9c-4,1-8.1,1.6-12.3,1.7l-0.5-0.8C505.5,238.4,509.6,236.2,514,237.9z"/>
<path class="st1" d="M539,226c2.3-2,5.1-3.3,8.1-4C545.1,224.9,542.3,226,539,226z"/>
<path class="st1" d="M551,220.1c1.4-1.4,3.1-2.4,5-3C555.5,220,553.3,220.1,551,220.1z"/>
<path class="st1" d="M519.1,236.9l-2,0.3l1.2-1.4L519.1,236.9z"/>
<path class="st1" d="M556,217.1c0.4-0.7,1.2-1.1,2-1.1C557.6,216.7,556.8,217.2,556,217.1z"/>
<path class="st1" d="M549,221.1l2.1-1.1C550.7,220.8,549.8,221.2,549,221.1z"/>
<path class="st1" d="M547,222.1l2.1-1C548.6,221.8,547.8,222.2,547,222.1z"/>
<path class="st1" d="M536.5,227.1c0.6-0.8,1.5-1.2,2.5-1.1C538.5,226.8,537.5,227.2,536.5,227.1z"/>
<path class="st1" d="M558,216.1l1.1-1L558,216.1z"/>
<path class="st1" d="M535.1,227.3l1-0.3C535.9,227.5,535.6,227.7,535.1,227.3z"/>
<path class="st1" d="M328.7,278.4c12,6.3,22.8,14.2,31.5,24.8c3.4,3.9,6.1,8.3,8.2,13c4.5,10.5,1.1,19.6-9.2,24.4
	c-10.8,5-22.3,4.4-33.8,3.1c-1.8-0.2-3.6-0.4-5.4-0.6c-7.5-2.6-15.3-4.6-21.6-11.6c6.9,1.5,12.9,3.1,18.9,4.2
	c10.6,1.9,21.2,2.5,31.7-0.5c11.4-3.2,14.6-10.5,8.9-20.8c-7.6-13.7-19.5-23-32.6-30.9c-5.3-3.1-10.6-6.2-16.7-9.7
	C316.1,274.1,322.3,276.7,328.7,278.4z"/>
<path class="st13" d="M347.1,163.3c4.8-0.8,8.8,0.8,12.4,3.3c8.3,5.6,7.7,16.9-0.9,21.8c-7.6,4.3-17.1,3.5-23.8-2.2
	c-3.6-3.1-6.6-6.8-5-12.1c1.9-6.2,6.2-9.6,12.5-10.7C343.9,163.2,345.5,163.1,347.1,163.3z"/>
<path class="st0" d="M445.8,232.8l4.1,2.4c-3,2-6.2-1.7-8.7,0.7c-2.4-0.2-4.8-0.8-7.1-1.8c-0.7-0.8-1.7-1.1-2.7-0.9
	c-2.6-0.1-5.1-0.8-7.3-2.1c-1.8-2.6-4.4-3.1-7.3-2.6v0.1c-0.1-1.4-0.6-1.5-1.6-0.6c-1.5-0.2-2.8-0.8-4-1.7l-1.4-0.7v0.1
	c-0.2-1.9-1.6-1.5-2.8-1.4l0.1,0.1c-0.1-0.5-0.4-0.8-0.9-0.4c-3.2-1.7-6.7-5-9.6-4.6c-2.7,0.4-4.8,4.9-7.4,7.2
	c-4.4,3.9-5.9,3.6-8.9-1.3c-2.2-3.7-4.3-7.5-6.4-11.2c-1.4-9.4-1.4-9.4,8.3-9.6c1.2,0,2.3-0.1,3.5-0.1c3.5,0.1,7.1-0.9,10.3,0.6
	c4.2,2,1.4,6.3,2.6,9.4c0.2,0.4,0.5,0.9,0.8,1.3c0.2,0.9,1.1,1.5,2.1,1.4h-0.1c3.4,3.2,7.2,5.7,12.1,6l-0.1-0.1
	c1.3,1.9,3.2,2.2,5.3,2.1l16.5,5.1c-0.4,0.1-1.1,0.1-0.7,0.8c0,0.1,0.3,0.1,0.4,0.2c3.6,1,7.1,2.3,11,1.9L445.8,232.8z M386.1,208.8
	c-9.9,0.2-9.9,0.2-5,9.1c0.2,0.4,0.5,0.9,0.7,1.3c3.2,5.5,4.8,5.6,8.4,0.1c0.4-0.6,0.7-1.1,1-1.7C395.5,209.5,395,208.7,386.1,208.8
	L386.1,208.8z"/>
<path class="st1" d="M383.6,139.2c-2-0.1-4,0.2-5.9-0.7c-1.6-0.8-2.8-1.9-2.4-3.9s1.7-3.2,3.9-3c12.3,1.4,20.8-3.9,26.1-14.9
	c1-2,2.3-3.4,4.7-2.3c2.8,1.3,2.3,3.7,1.7,6c-2.7,9.2-14.1,17.6-25.1,18.6C385.5,139.2,384.5,139.2,383.6,139.2z"/>
<path class="st8" d="M409,85.2c-4.5,0-7-2.6-6.8-6.3c0.2-3.3,1.3-5.7,5.3-5.7s6.8,2.3,6.7,6.2S411.8,84.8,409,85.2z"/>
<path class="st8" d="M246.7,293.1c3-0.1,4.4,2.4,4.4,5.7c-0.1,4-2.5,6.2-6.4,6.2s-5.5-3.1-5.4-6.5
	C239.4,294.7,242.1,293.1,246.7,293.1z"/>
<path class="st12" d="M374.5,194.9c-8.2-1-10.5,4-11.3,10.8c-2.8-4.6-2-8.4,1.7-11.4C368,191.7,370.7,191.7,374.5,194.9z"/>
<path class="st3" d="M567,175.7c0.3-2.2,0.6-4.8,3.4-5.4c1.9-0.4,2.7,1.3,2.3,2.9c-0.5,2.3-0.5,5.4-3.7,5.8
	C566.9,179.3,567.1,177.3,567,175.7z"/>
<path class="st0" d="M81.4,331.1c0.3,0,0.5,0,0.8,0l1.2,1c1.7,0.3,3.4,0.9,4.8,2l-3,3l-2.1-1c-0.2-1.1-0.5-2.2-1.9-1l-1.1-0.6
	c-0.3-0.8-1.2-1.2-2-1.2h0.1l-1.1-1l-0.1,0.2c0.3-1.2,0.2-2.5,1.3-3.3l2,1L81.4,331.1z"/>
<path class="st8" d="M407.4,67.1c-1.6-0.1-2.4-1-2.1-2.6c0.1-1.3,1.3-2.3,2.7-2.2c0,0,0,0,0.1,0c1.8,0,2.1,1.2,2,2.7
	C410,66.7,408.9,67.2,407.4,67.1z"/>
<path class="st1" d="M413.2,223c-4.9-0.3-8.6-2.8-12.1-6C405.4,218.5,409.5,220.5,413.2,223z"/>
<path class="st3" d="M78.2,329.1c-1.1,0.8-1,2.1-1.3,3.3c-2-0.4-3.7-1.5-5-3.1c1.2-0.1,2.1-1.1,2.2-2.2
	C75.7,327.2,77.2,328,78.2,329.1z"/>
<path class="st1" d="M445.7,233.1c-3.8,0.4-7.4-0.9-11-1.9c-0.1-0.1-0.4-0.1-0.4-0.2c-0.4-0.8,0.3-0.7,0.7-0.8
	C438.6,231,442.4,231,445.7,233.1z"/>
<path class="st1" d="M418.5,225c-2.1,0.2-4-0.1-5.3-2.1C415.1,223.1,416.9,223.8,418.5,225z"/>
<path class="st0" d="M486.1,236.1H479C481.3,235.4,483.8,235.4,486.1,236.1z"/>
<path class="st3" d="M81.2,335c1.4-1.2,1.7-0.1,1.9,1L81.2,335z"/>
<path class="st3" d="M78.1,333.2c0.8-0.1,1.7,0.4,2,1.2L78.1,333.2z"/>
<path class="st1" d="M401.2,217c-0.9,0.1-1.8-0.5-2.1-1.4L401.2,217z"/>
<path class="st3" d="M77,332.2l1.1,1L77,332.2z"/>
<path class="st0" d="M449,233.2c-0.3,0-0.7,0-1-0.1L449,233.2z"/>
<path class="st0" d="M456,238.5c-0.3-1.7-2.8-0.8-3.5-3.3l13.7,1.4c-3,2.5-6,0.6-8.1,2.3L456,238.5z"/>
<path class="st1" d="M416.8,228.6c2.9-0.4,5.5,0.1,7.3,2.6C421.5,230.8,419.1,229.9,416.8,228.6z"/>
<path class="st1" d="M406.9,224.3c1.2-0.1,2.6-0.4,2.8,1.4L406.9,224.3z"/>
<path class="st1" d="M415.1,228c1-0.9,1.5-0.7,1.6,0.6L415.1,228z"/>
<path class="st1" d="M431.4,233.3c1-0.2,2,0.1,2.7,0.9C433.1,234.4,432.1,234,431.4,233.3z"/>
<path class="st1" d="M409.7,225.6l1.4,0.7L409.7,225.6z"/>
<path class="st1" d="M406.1,224c0.5-0.4,0.7-0.2,0.9,0.4C406.7,224.4,406.3,224.2,406.1,224z"/>
<path class="st3" d="M81.4,331.1l-1.2-1L81.4,331.1z"/>
<path class="st3" d="M83.4,332.1l-1.2-1L83.4,332.1z"/>
<path class="st14" d="M386.1,208.8c8.8-0.1,9.3,0.7,5.1,8.8c-0.3,0.6-0.6,1.2-1,1.7c-3.6,5.5-5.3,5.5-8.4-0.1
	c-0.2-0.4-0.5-0.9-0.7-1.3C376.2,209,376.2,209,386.1,208.8z"/>
</svg>
