<?xml version="1.0" encoding="utf-8"?>
<!-- Generator: Adobe Illustrator 27.9.0, SVG Export Plug-In . SVG Version: 6.00 Build 0)  -->
<svg version="1.1" id="Layer_1" xmlns="http://www.w3.org/2000/svg" xmlns:xlink="http://www.w3.org/1999/xlink" x="0px" y="0px"
	 viewBox="0 0 598.6 512.1" style="enable-background:new 0 0 598.6 512.1;" xml:space="preserve">
<style type="text/css">
	.st0{fill:#433842;}
	.st1{fill:#423940;}
	.st2{fill:#94CE46;}
	.st3{fill:#ECF77F;}
	.st4{fill:#6D9B46;}
	.st5{fill:#3C6144;}
	.st6{fill:#D2CFC2;}
	.st7{fill:#E2EBCE;}
	.st8{fill:#B2BF7B;}
	.st9{fill:#447E45;}
	.st10{fill:#467E44;}
	.st11{fill:#467D45;}
	.st12{fill:#70AF3F;}
	.st13{fill:#433839;}
	.st14{fill:#F5D6CE;}
	.st15{fill:#FAFAFA;}
</style>
<path class="st0" d="M7.4,305.3l-0.5-2.1c1.5-3.2,0.8-5.8-1.9-8c-0.2-1-0.4-1.9-0.5-2.9c1.5-1.1,1.1-1.7-0.5-2.1l-0.1-1
	c0.3-0.6,0.9-1.2,0.8-1.7c-0.8-7.2-2.1-14.4-2.1-21.7c0-0.9-0.9-1.3-1.7-1.5c0-1-0.1-2-0.1-3c1.6-5.4,2.1-10.8-0.3-16.1l0.4-6.9
	c3.4-2.1,2.4-4.6,0.5-7.1l0.2-0.2c0-0.7,0.1-1.3,0.1-2l0.3-1.7c2.2-0.7,2.3-1.8,0.4-3.1c0.2-0.6,0.3-1.3,0.5-1.9
	c2.5-0.8,2.3-2.3,0.9-4c0.1-0.7,0.3-1.4,0.4-2.1c2.3-1.4,2.4-3.7,2.4-6.1l-0.1,0.1c0.9-0.3,1.3-1.2,1.1-2.1l-0.1,0.1
	c0.8-0.3,1.3-1.1,1.2-2c0.5-1.3,1.5-2.4,2.8-3c1,0,1.8-0.2,2-1.4l-0.1,0.1c2.5,0.2,5.1,1.2,7.3-0.7c1.1,0,2.2,0.5,3,1.4
	c0.1,1,1,1.8,2.1,1.7c1.7,0.9,3,2.4,3.9,4.1c0,1.5,0.2,2.8,2.2,2.8V211c0,2.1,1.1,4,2.8,5.1c2.4,6.3,5.4,12.3,9.1,18
	c1.9,8.5,3.3,17.3,11,23l-2,1l-1,1l0,0c-2,1-4.4,0.6-5.9-1c0-1.1,0-2.2-1-3c0-1.9,0.2-3.9-2-5c0-1.1,0-2.2-1-3c0-1.9,0.2-3.9-2-5
	c0-1.1,0-2.2-1-3c-0.3-0.7-0.7-1.3-1-2c0.1-1.9-0.6-3.7-2-5c-0.3-0.7-0.7-1.3-1-2l-1-2c0-0.8-0.4-1.6-1.1-2.1v-0.4
	c0.2-1.8-0.5-3.5-2-4.5l0,0.1c0.1-0.8-0.3-1.7-1-2.1l0,0.1c0.1-0.8-0.3-1.7-1-2.1v0.1c0.1-0.9-0.4-1.8-1.3-2
	c-3.7,0.9-2.5,4.5-3.7,6.8h0.1l-1.4,1.2l-3.6-0.1c-0.3-0.1-0.6-0.1-1-0.1l0.1,0.1c-0.3-1.2-1-2.3-2.1-3H16l-1.2-2.8
	c0.1-0.8-0.3-1.6-1.1-2.1c-0.7-0.3-1.4-1.2-2.1,0l-0.7,1.1h0.1c-1.1,0.4-1.2,1-0.4,1.8l-0.1,2V220c-0.3,0-0.5,0.1-0.7,0.3
	c-0.7,0.4-1.1,1.2-0.9,2l0.3,0.3c-1.2,0.3-1.3,1.2-1.5,2.2c-2.3,11.6-2.2,23.2-1.1,35.1c2.1,22.8,7.4,45.2,15.7,66.5
	c0.8,2.1,1,4.6,3.5,5.7l0,0c-0.1,2.9,0.1,5.5,3.1,7l-0.1-0.1c-0.1,0.8,0.3,1.7,1,2.1l0-0.1c-0.1,0.8,0.3,1.6,1,2.1V343
	c-0.1,0.8,0.3,1.6,1,2.1l0-0.1c-0.1,0.8,0.3,1.7,1.1,2.1V347c-0.1,0.9,0.3,1.7,1.1,2.1V349c0.1,3,0.6,5.8,3.9,7.1l0,0
	c-0.1,0.8,0.4,1.6,1.1,2V358c-0.2,0.8,0.2,1.6,1,2l-0.1-0.1l1,1.1l0,0c-0.1,1.5,0,2.9,2,3.1l0,0c0,1.8,0.1,3.4,2.2,3.9v0
	c-0.4,1.2,0.3,2.5,1.5,2.9c0.2,0.1,0.3,0.1,0.5,0.1v0c-0.3,1.5,0.4,2.1,1.8,2.2l0,0c-0.1,0.8,0.3,1.6,1.1,1.9v-0.1
	c-0.2,1.4,0.5,2.1,1.9,2.1l0,0c-0.1,0.8,0.3,1.7,1.1,2h-0.1l1.1,1l-0.1,0l1,1.1l-0.1-0.1l1,1.1l0,0c-0.1,0.8,0.4,1.6,1.2,1.9h-0.1
	l1,1h-0.1l1.1,1v-0.1c-0.2,1.5,0.5,2.1,2,2.1h-0.1l1.1,1.1l-0.1-0.1l1,1.1l-0.1-0.1l1.1,1.1l-0.1-0.1l1.1,1.1l-0.1-0.1
	c0.3,0.4,0.7,0.7,1.1,1.1l-0.1-0.1l1.1,1.1l-0.1-0.1l1.1,1.1l-0.1-0.1l1.1,1.1l-0.1-0.1l1.1,1.1l-0.1-0.1l1.1,1.1l-0.1-0.1l1.1,1
	v-0.1c0,1.4,0.7,2.1,2.1,2h-0.1l1,1.1l-0.1-0.1l1.2,1v-0.1c0.3,0.8,1.1,1.3,1.9,1.2l0,0l1.1,1V405c0,2.6,1.7,3.2,3.9,3.1L84,409
	c0.1,1.4,0.7,2.1,2.2,1.9H86c0.3,0.8,1.1,1.3,2,1.2l0,0c0.1,1.4,0.7,2.1,2.2,1.8l-0.1,0c0.3,0.8,1.1,1.3,2,1.1v0
	c0,2.1,1.4,2.2,3,2.1H95l1.1,1V418c0.3,0.8,1.2,1.3,2,1.1l0,0c0.3,2.5,2,3,4.1,2.8l-0.1,0.1c0.3,1,1.1,1.2,2,1l0,0
	c1.1,2.7,3.4,3.2,6,3.1h-0.1c0.4,0.7,1.2,1.2,2.1,1.1l0,0c2.1,4.2,6,4.8,10,5v0c0,1.6,1.2,2.3,2.4,2.8c7.9,3.1,15.6,6.5,23.7,9
	c17.6,5.2,35.2,10.8,53.5,13.1c1.9,0.2,4,1.1,5.2-1.4l0.2-0.4c0.1-0.1,0.2-0.2,0.2-0.3c0-0.2-0.1-0.4-0.1-0.7
	c0.1-0.7,0.1-1.4,0.2-2.1c2.1-2.4,2.8-5.8,1.8-8.9c-0.2-0.8,0.2-1.6,0.8-2.1c3.4,2.2,1.6,5.2,1.3,8c-0.7,8-1.3,15.9,3.8,22.8
	l-0.1-0.1l1,1.1v-0.1c-0.2,2.2,0.3,4,3.1,4h-0.1l1.1,1.1v-0.1c0,1.4,0.7,2.1,2.1,1.9h-0.1c2.9,5.1,8.5,5.6,13.2,7
	c18.2,5.2,37,5.8,55.7,5c3.6-0.1,8.6,1.2,10.9-3.9l0,0c0.8,0.1,1.6-0.4,1.9-1.2l0,0.1l1-1.1v0l1-1l-0.1,0.1c0.8-0.3,1.3-1.1,1.2-2
	v0.1l1-1.1l-0.1,0.1c0.8-0.3,1.3-1.2,1.1-2H309l2.4,0.1c0.1,0.7,0.3,1.5,0.5,2.2c-0.3,2.3-3.6,4.7,0.2,6.9h0.2
	c0.8,0.9,1.4,0.8,1.9-0.3v0.1c0.8,0.2,1.7-0.2,2.1-1l-0.1,0.1c0.9,0.1,1.7-0.3,2.1-1.1l-0.1,0.1l1.1-1l0,0c0.8,0.1,1.6-0.4,1.9-1.2
	l-0.1,0.1l1.1-1.1l-0.1,0.1l1-1.1l-0.1,0.1c0.8-0.3,1.3-1.1,1.1-2v0.1l1-1.1l-0.2-0.1c1.9,0.6,2.6,1.8,2,3.7
	c-0.4,1.3-0.7,2.6,0.9,3.3s2.7-0.2,3.3-1.8l0,0.1l1.1-0.9l0,0c1.5,0,2.9-0.1,2.9-2.1v0.1l1.1-1l0,0c0.3-0.3,0.7-0.7,1-1l0,0l1-1l0,0
	l1-1l0,0l1-1.1l-0.1,0.1c0.8-0.4,1.2-1.2,1.1-2l0,0c2.9-0.6,3.1-3.2,3.9-5.3c3.9-10.4,4.9-21.8,2.8-32.7c-0.2-1.3-0.7-3,0.9-3.5
	c2-0.6,2.4,1.4,2.7,2.7c1.1,5,2.3,10,2.2,15.2c0,1.7-0.8,3.8,1.8,4.6c0.7,1.6-0.7,3.7,1.2,5c1.2,1.3,2.8,1.1,4.2,0.9
	c12.8-2.5,25.2-6,36.8-11.9c1.3-0.7,2.8-1.2,2.9-3l0,0c0.8,0.1,1.6-0.4,2-1.1l-0.1,0.1c1.8,0.1,3.6,0.2,3.8-2.4v0.1l1.3-0.8
	l-0.1,0.1c1,0.1,1.8-0.1,1.9-1.3l0,0.1l1.3-0.9l-0.1,0.1c1,0.1,1.8-0.1,1.8-1.4l0.2,0.2l-0.1-0.2c1.6,0.6,2.2-0.1,2.3-1.6l-0.1,0.1
	l1.2-1l0,0c0.9,0,1.7-0.3,1.7-1.4v0.1c0.5,0.1,1.1-0.3,1.1-0.8c0-0.1,0-0.1,0-0.2h-0.1c1.5,0.3,2.2-0.4,2.2-1.9l-0.1,0.1l1.2-1
	l-0.1,0.1l1.1-1.1l-0.1,0.1l1.1-1.1l-0.1,0.1l1.1-1.1l0.9-0.9c0.4-0.4,0.7-0.8,1.1-1.1l-0.1,0.1l1.1-1.2l-0.1,0.1
	c2.2,0,3.3-0.9,2.8-3.2l0.3,0h-0.3c1.1-0.1,1.4-0.8,1.4-1.8v0.1l1-1.2l-0.1,0.1l1-1.2l-0.1,0.1c1.1-0.2,1.3-0.9,1.3-1.9l0,0
	c1.5-0.1,2.1-0.9,1.6-2.3l0.3,0.1l-0.3-0.1c1.2-0.1,1.4-0.9,1.3-1.9l-0.1,0.1c0.8-0.3,1.4-1.1,1.2-2l0,0c2-0.2,2.1-1.6,1.9-3.1
	l-0.1,0.1l0.8-1.3h-0.1c4.2-2.3,5.3-6.3,5.4-10.7l-0.1,0.1c3.6-2.1,3.9-6.1,5-9.4c7.6-23,10.5-46.8,10.2-71
	c-0.1-11,0-10.7,10.8-12.7c5-0.9,10.5-0.9,15-4.3l-0.1,0.2c3,0.5,5.9,0.5,8-2.2l-0.1,0.1c6.9-0.3,13.4-1.9,19.1-6l-0.1,0.1
	c0.9,0.3,1.8-0.1,2.2-0.9l-0.1,0c2.1,0.1,4.2,0.3,5.2-2.1h0c2.8,0.3,5.2-0.1,6.6-3l-0.1,0.1c0.9,0.2,1.8-0.3,2.1-1.1l-0.1,0.1
	c0.9,0.2,1.8-0.3,2.1-1.1l-0.1,0.1c1.6,0.2,3,0.2,3.1-2h0c0.8,0.1,1.7-0.2,2.2-0.9l0,0c0.8,0,1.6-0.4,2-1.1h-0.1
	c1.5,0.1,2.8,0,3.1-1.9l0,0c0.8,0,1.5-0.4,1.9-1.1l0,0c0.8,0.1,1.6-0.4,2-1.1l-0.1,0.1l1.1-1l0,0c0.8,0.1,1.7-0.3,2-1.1h-0.1
	c1.4,0.2,2.1-0.5,2.2-1.9l1.2-0.9c0.8,0,1.5-0.5,1.8-1.2l-0.1,0.1l1.1-1l-0.1,0.1l1.1-1l1-0.9c0.8,0.1,1.6-0.4,1.9-1.2l0,0.1l1-1
	v0.1l1-1.1l-0.1,0.1c0.4-0.4,0.7-0.7,1.1-1.1l-0.1,0.1c0.4-0.4,0.7-0.7,1.1-1.1l-0.1,0.1l1-1.1l-0.1,0c0.8-0.3,1.3-1,1.2-1.9l0.9-1
	l1-1.1h-0.1c2,0,2.1-1.4,2.2-2.9l0.8-1.1l1.1-1.1l-0.1,0.1l1-1.1h-0.1c2.2-0.5,2.3-2.1,2.2-3.9v0.1l1-1.1h-0.1
	c0.8-0.3,1.3-1.2,1.1-2v0.1c0.8-0.4,1.2-1.2,1-2.1l-0.1,0.1c0.8-0.4,1.2-1.2,1-2.1l-0.1,0.1c0.8-0.3,1.2-1.2,1-2.1v0.1
	c1.3-0.6,1.7-1.9,2.2-3.2c7.3-19.1,8.1-38.7,3.2-58.5c-1.3-5.4-1.7-11.2-6.4-15.1h0.1l-1.1-1.1l-0.9-0.9c-1.8-3.8-4.1-4.3-7-1.1
	c-0.1,0.2-0.3,0.2-0.5,0.1c-1.4-0.1-2.4,0.4-2.4,2l0-0.1c-1.7,0.1-3,0.5-3.2-2.2c-0.9-12.5-4.9-24.1-10.5-35.3c-1-2-0.9-4.7-3.7-5.4
	h0.1l-1-1.1v0.1c0-2.5-0.3-4.9-3.2-5.9l0,0c0.4-1.2-0.2-2.5-1.4-3c-0.2-0.1-0.3-0.1-0.5-0.1h0.1l-1-1.1v0.1c0.1-1.8,0-3.4-2.2-3.9
	l0,0c0.3-1.5-0.4-2.1-1.8-2.2l0,0c0.2-2.2-0.4-3.9-3-4.1l0,0c0.1-2.2-0.4-3.9-3.1-4l0,0c0.1-0.8-0.4-1.7-1.2-1.9v0.1
	c0-1.1-0.7-2-1.7-2.3l-1-1l-1-1l-1.2-0.9l0.1,0.1l-0.9-1.2l-1.2-0.9c-0.3,0-0.5-0.1-0.8-0.2l0,0c-0.1-0.3-0.1-0.5-0.2-0.8l-1-1.1
	l-0.8-0.2l0.1,0.1l-1.1-1.1l0.1,0.1l-1.1-1.1l0.1,0.1c-0.3-0.4-0.7-0.7-1.1-1.1l0.1,0.1l-1.1-1.1l0.1,0.1c-0.1-0.3-0.1-0.6-0.2-0.8
	c-0.3-0.4-0.6-0.8-0.9-1.1l-1-1l-1.2-0.9h0.1l-1.1-1l0.1,0.1l-1.1-1.1l0,0.1l-1.1-1l0,0l-1-1l-0.3,0.2c1.9-4.5,5.3-1.2,8.1-1.6
	c1.4,0.7,2.6,1.7,3.5,3c2.1,5,6.1,9,11.2,11.1c1.2,0.7,2.2,1.8,2.8,3c0,2.8,1.1,4.7,4.2,4.9l0,0c-0.2,2.9,1,4.7,4,5.1l0,0
	c-0.2,2.2,0.4,3.9,3,4l0,0c-0.1,1.5,0.1,2.9,2.1,3l0,0c-0.1,1.5,0,2.9,2,3l0,0c-0.1,1.5,0,2.9,2,3.1l0,0c0.3,2.9,0.7,5.9,4.1,7l0,0
	c0,1.1,0.2,2.3,0.6,3.3c4.4,8.9,8.1,18,11,27.5c0.4,1.2,0.8,2.2,2.2,2.3l0,0c0.2,1.1,0.8,1.9,2,1.9c6.3,0,10.3,4,12.7,8.8
	c3.3,6.7,6.5,13.7,8.2,21.1c0.4,1.6,0.3,3.3,2.1,4.2l0.1,2.8c-0.1,1.2-0.2,2.4,0.9,3.2c0.1,2-0.1,4.1,1,6c-1.8,7-1.2,14-0.8,21.1
	l-0.2,3.9c-0.9,0.7-0.8,1.4,0.1,2l-1,3c-1.1,0.8-1,2-0.9,3.2c0,0.3,0,0.5-0.1,0.8c-1.1,0.8-1,2-0.9,3.2c0,0.3,0,0.6-0.1,0.8
	c-1.3,2.1-4,3.9-1.9,7c-7.8,21.3-22.9,36.4-41.5,48.3c-19.8,12.6-41.7,19.6-64.5,24.6c-3.4,0.7-6.9,1.3-10.3,1.9
	c-0.2,1.9,1.4,2.2,2.3,2.9c13.3,11.8,25.1,24.8,32.7,41.2c2.8,5.9,4.8,12.1,4.6,18.7c-0.3,10-4.2,15.3-13.7,18.5
	c-3.6,1.2-7.4,1.9-11.2,2.1c-3.8,0.3-7.5,0.5-11.7,0.7c21.9,23.5,28.8,49.8,16.1,79.9c-5.1,8.1-12.5,13.2-21.3,16.7
	c-1.7,0-3.4-0.1-4.6,1.3c-0.3,0-0.6,0.1-0.9,0.2c-1.7-0.2-3.5-0.8-5,0.8l-3.9,0.1c-1.4,0.1-3-0.6-4.1,0.9l-6,0.2
	c-3.6-0.5-7.3-0.5-10.9-0.1h-10l-4.1-0.2l-2,0.3c-0.3-0.1-0.6-0.1-0.9,0l-4-0.3c-2.6-1.4-5.6-1.8-8.5-1.3c-1.4-1.4-3.3-1.2-5-1.7
	c-9-2.5-19-5.4-22.4-14.3c-4.2-11-11.2-10.2-19.7-8.3c-0.2,0-0.3,0.1-0.5,0.1c-3.6,0-5.5,1.6-6.9,5c-4.7,11.6-13.4,18.7-25.5,21.8
	c-6.8,1.7-13.8,2.3-20.7,2.9c-20.3,1.6-40.6,1.2-60.8-1L243,501l-2.1-0.3c-7-1.4-13.7-3.7-20.1-6.7l0,0l-3-2l-1.1-0.9l-4.5-4.4v0.2
	c-0.4-0.6-0.9-1.3-1.3-1.9l0.1,0.1l-2.1-3.1l0.1,0.1c-0.1-0.6-0.2-1.2-1-1.2l0.1,0c-1.1-3.3-2.3-6.6-3.1-9.9
	c-0.7-2.9-3.1-2.2-4.8-2.5c-23.8-3.3-47-9.5-69.3-18.3c-26.4-10.6-50.2-25.2-70.1-45.6c-0.3-0.4-0.7-0.8-1-1.2
	c-5.8-6-11.5-12.2-16-19.3l-1.2-1.6l-1.8-2.6l-1-1.5l0,0.1c0.1-0.9-0.5-1.8-1.4-2c-2.6-3.3-4.8-7-6.6-10.8c0.2-2,0-3.8-2.5-4.2
	l-1.5-2.9c0.2-0.9-0.3-1.8-1.1-2.1c-1.3-1.8-2.3-3.8-2.9-5.9c0.1-0.9-0.3-1.7-1-2.2l-0.1-0.3c0.1-1.6,0.5-3.2-1.7-3.7
	c-0.2-0.1-0.3-0.4-0.2-0.6c0.2-0.9-0.2-1.9-1.1-2.4c-0.7-0.6-1.1-1.5-1-2.4c0.3-1-0.2-2.1-1.1-2.6c-0.3-0.8-0.6-1.6-0.9-2.5
	c0.2-1-0.2-2-1.1-2.6l-0.8-2.1c0.1-0.1,0.3-0.3,0.3-0.4c-0.2-0.2-0.4-0.4-0.6-0.5l-0.7-2.1c0.1-0.1,0.3-0.3,0.3-0.4
	c-0.2-0.2-0.4-0.4-0.6-0.5l-0.8-2.5c0.2-1-0.2-2-0.9-2.6l-1.1-2.9c1.5-1.2,0.7-1.7-0.6-2.1l-0.4-2c0.8-0.7,0.2-0.8-0.4-0.9
	c-0.4-1.7-0.9-3.5-1.3-5.2C8.8,306.2,8.5,305.6,7.4,305.3z M15.1,209.3c-0.1,0-0.3,0.1-0.4,0.1c0,0.2,0.1,0.5,0.1,0.7l2.2,4.5
	l0.9,1.5l0,0c0,0.8,0.5,1.6,1.3,1.9c3.4-2,4-5.5,1.6-9.4c-1.1-2.1-2.5-1.8-4-0.4h-0.3l-1.6,1.1L15.1,209.3z M471.9,480.3
	c4.9-1.6,8.2-5.2,10.5-9.5c11.1-20.5,10.7-56.6-22.3-73.6c-5.8-3-5.6-3-8.2,2.8c-4.9,11.1-11.6,21.4-19.9,30.4
	c-13,13.9-28.1,24.4-46.1,30.7c-3,1-3.2,2.5-2.4,5.3c2,6.4,6.6,10.2,12.5,12.8c12.7,5.5,26.1,5.8,39.6,6.2c8.9,0.3,16.6-0.5,20-10.3
	c0-0.1,0.3,0,0.6-0.1c2.5,2.3,0.6,5.7,1.9,8.6c6.1-1.9,9.1-6.8,12.1-12c1.4,3.1,1.4,3.1,1.3,8.3l-0.3,0.6L471.9,480.3z M467.8,320.1
	c-1.6,20.7-3.4,40.4-9.3,59.3c-1,3.2,1.4,3.2,3.3,3.7c11.3,2.8,23.1,3.1,34.6,0.9c5.8-1.1,5.8-1.6,2.4-6.4c-0.7-1-2.3-1.9-1.5-3.4
	s2.4-0.4,3.6-0.3c5.1,0.5,5.6-0.1,4.4-5c-1.7-6.5-4.4-12.6-8.1-18.1C489.5,338.7,479.5,328.2,467.8,320.1z"/>
<path class="st1" d="M45.8,258.1c1.5,1.6,4,2,5.9,1c2.7,10.7,7.5,20.5,12.1,30.4c1.7,3.7,4,2.9,5.8-0.1c3.8-6.2,5.8-13,7-20.1
	c0.9-5.2-1.9-9.3-7-11.2c-4.8-1.8-9.9-0.8-14.8-1c-7.7-5.7-9.1-14.5-11-23c1.6-2.4,1.9-5.2,2.5-7.9c2-9.3-2.3-13.1-11.5-10.1
	c-1.8-1.1-2.8-3.1-2.8-5.2c2.6,1.4,5.2-0.1,7.8,0.1c7,0.5,11,4.5,11.1,11.5c0.2,4.4-0.8,8.7-2.7,12.6c-3.5,6.8,2,11.6,3.3,17.3
	c0.3,1.5,2.4,0.7,3.6,0.5c4.5-0.7,9-0.7,13.4,0.2c7.7,1.4,12.1,6.8,12.4,14.6s-2.5,14.9-5.5,22.1c25.5-2.5,27.9-1.5,34.9,14.6
	c6.4-10,12.6-20.2,24.8-23.3c12.7-3.2,21.8,4.6,31.1,12.2c1.7-4.9,4.4-8.5,9.8-9.3c2.2-0.3,0.8-2.1,0.6-3.2
	c-1.2-6.1-1.9-12.1-0.9-18.4c1.5-10.1,7-15.4,17.2-16.2c3.5-0.3,6.9,0,10.9,0c-2.3-7.5-4.5-14.9-5.3-22.6c-0.5-4.6-0.5-9.3,0-13.9
	c1.2-10.9,7.4-17.4,17.6-20.6c5.1-1.6,10.4-2.5,15.7-2.8c5.3-0.3,10.6-0.1,17-0.1c-2-2.9-3.4-4.8-4.7-6.8c-4.2-6.7-3.9-12,1.4-17.6
	c1.4-1.5,1.6-2.1,0.2-3.8c-9.9-11.9-8.2-32.9,3.3-43c9.9-8.6,21.7-13.5,34.2-16.8l4.6-1.3c-2.1-3.7-4.5-6.9-5.8-10.7
	c-2.9-9.2,0.7-15.9,10-18.2c5.4-1.3,11-1.4,16.4-0.2c3.3,0.7,4.6,0.6,4.1-3.6c-1.2-9.4-1.2-18.9,1.5-28.2
	c4.1-14.2,14-20.3,28.5-17.4c10.3,2,20.1,6.5,28.3,13.1c2.5,2,4.6,2.1,7.7,1.6c6.8-1.1,10.9-4.5,14.2-10.5
	c4.3-7.6,10.4-14,17.8-18.5c9-5.8,17.9-5.6,26.6,0.6c9.4,6.7,15.4,16,20,26.3c2.5,5.4,6.8,6.7,11.9,3.4c6.1-3.9,12.4-7.2,19.6-8.5
	c9.5-1.7,15.6,1.4,20.1,10c3.8,7.4,5.5,15.4,6,23.5c0,3,1.5,5.8,3.9,7.5c-2.7,0.4-6.2-3-8.1,1.6l-2.6-2.2c2-1.2,2.5-2.6,0.5-4.3
	c-1-0.8-2.3-1.4-2.4-3c2.4,0.8,3.3,0,3.1-2.6c-0.5-6.9-1.8-13.6-5.3-19.5c-2.7-4.7-6.8-7.8-12.8-6.8c-7.4,1.3-14,4.6-20.5,8.4
	c1.1,1.9,2.9,2,4.4,2.7c10.1,5,20.7,9,29.2,16.8c-2,0.2-2.1,1.8-2.5,3.3c-14.7-9.7-30-18-47.1-22.3c-49.1-12.4-92.6-2.6-128.5,34
	c-19.2,19.6-30.5,43.8-38.1,70c-1.7,5.7-2.2,11.8-4.9,17.2c-6.3,13-11,26.8-13.9,41.1c-3.6,16.9-9.7,32.5-21,45.8
	c-5.4,6.3-10.4,13-14.9,20c-4,6.1-8.1,12.2-12,18.4c-8.2,12.9-16.3,26-27.6,36.6c-18.2,17-39.3,25.9-64.5,23
	c-22.9-2.6-40.3-14.6-54.7-31.8c-7.7-9.2-13.5-19.7-19.1-30.4l-1-2l0,0l-1-2.1v0.1l-1.1-2.9V276l-0.9-2l0,0l-1-2.3
	c0.1-0.3,0-0.5-0.2-0.7c-0.3-0.6-0.6-1.3-0.9-1.9l0,0c-0.3-1-0.7-2-1.1-2.9v-0.1l-0.9-2v0.1c-0.3-1-0.7-2-1-3v-0.1
	c-0.1-0.9-0.3-1.8-0.4-2.6L45.8,258.1z M186.5,293.2l-0.9,0.6c-1.7-1.1-3.3-2.2-5-3.2c-5.3-3.2-9.2-1.3-9.8,4.8
	c-0.1,1.3,0.1,2.7-0.1,4s0.9,3.4-0.9,4c-1.6,0.5-2.6-1.3-3.4-2.5c-3.9-5.6-9.4-9.4-15.3-12.6c-10.4-5.6-19.5-3.7-27.3,5.2
	c-8.7,10-13.9,21.7-17.4,34.4c-1.2,4.3,0.3,6.1,3.9,7.5c17.4,7,35,7.3,52.5,0.6c21.4-8.1,35.6-24.5,47.5-43.1
	c9.2-14.4,17.6-29.5,28.7-42.6c12.6-14.5,21.3-32,25.1-50.8c1.2-5.9,1.1-6.7-4.9-7.7c-10.9-1.8-21.8-1.4-32.7-0.1
	c-5.5,0.5-10.8,2.1-15.7,4.7c-2.9,1.6-5.2,4.2-6.3,7.4c-3.3,8-1.6,16.1-0.4,24.1c1.4,8.9,4.9,17.1,8.6,26.3
	c-6.5-2.4-13.4-3.5-20.3-3.1c-6.2,0.3-10.4,3.6-11.8,9.5c-1.8,7.6,0,14.8,2.1,22C183.8,286.2,185.3,289.7,186.5,293.2L186.5,293.2z
	 M293.4,101.3c-14.7,2-30.2,7-42.9,18.6c-6.7,6.1-8.5,13.3-4.5,21.6c3.2,6.7,7.2,12.8,13.3,17.1c0.9,0.6,2.3,1.2,1.7,2.7
	c-0.4,1.1-1.7,0.8-2.6,0.8c-2.5-0.1-5,0.4-7.3,1.5c-2.9,1.5-5.4,3.3-5.4,7.1c0.1,6.7,10.9,17.5,17.6,17.5c2,0,3.8-0.1,4.3-2.4
	c3.4-14.3,11.5-26.9,14.6-41.3c3-13.7,8.4-26.6,14.8-39.1C298.3,103.2,299.8,100.9,293.4,101.3z M341.1,23.1
	c-13.3-0.1-17.8,2.2-21.1,9.6c-5.3,11.6-4.9,23.8-2.5,36.1c0.6,3.1,1.8,3.4,4.2,1.1c4.9-4.7,9.9-9.3,15.1-13.7
	c8.6-7.2,18.6-12.1,28.7-16.9c1.9-0.9,4.8-1.8,1.4-4.3C358,28.5,348.3,23.5,341.1,23.1L341.1,23.1z M422.3,4.3
	c-0.6,0.2-1.6,0.4-2.5,0.7c-10.6,3-17,11-23.1,19.4c-1,1.4-2.7,3.1-1.5,4.9s3.4,1,5.1,0.7c16-2,32.2-1.1,47.9,2.5
	c1.1,0.2,2.3,1,3.1-0.3c0.7-1.1-0.2-2.3-0.7-3.2c-4-7.1-8.6-13.8-14.9-19.1C432,6.7,427.3,4.7,422.3,4.3z M88.8,292.1
	c-4.3,0.8-9.7,1.1-14.7,3.1c-2.7,1.1-5.5,2.8-3,6.3c7.4,10.5,15.9,20,26.6,27.2c2.4,1.6,3.4,1,4.1-1.6c1.1-4.3,2.4-8.6,3.8-12.9
	C109,303.7,100.6,292.1,88.8,292.1z M302,72.1c-2.4,0-4.1,0-5.7,0c-9.3,0.2-13.1,6.4-9.1,14.8c1,2.1,2.2,4.1,3.5,6
	c2.6,3.8,7.8,4.7,11.6,2.1c0.7-0.5,1.4-1.1,1.9-1.9c3.8-5.1,7.2-10.4,11-15.4c2.3-3.1,0.9-4-2-4.6C309.1,72.5,305.2,71.8,302,72.1z"
	/>
<path class="st1" d="M595.7,183.1c-1.8-0.9-1.7-2.5-2.1-4.2c-1.7-7.4-4.9-14.3-8.2-21.1c-2.4-4.9-6.4-8.9-12.7-8.8
	c-1.2,0-1.7-0.8-2-1.9c4.9-0.8,9.8,1.2,12.9,5.1C590.7,161,594.9,171.8,595.7,183.1z"/>
<path class="st1" d="M570.7,147.2c-1.4-0.2-1.8-1.2-2.2-2.3c-3-9.4-6.7-18.6-11-27.4c-0.4-1.1-0.6-2.2-0.6-3.3
	C563.3,124.3,567.4,135.6,570.7,147.2z"/>
<path class="st1" d="M0.9,264.1c0.9,0.2,1.8,0.6,1.7,1.5c0,7.3,1.3,14.5,2.1,21.7c0.1,0.5-0.5,1.1-0.8,1.7
	C2,280.9,1,272.5,0.9,264.1z"/>
<path class="st1" d="M596.9,216.2c-0.4-7-1-14.1,0.8-21.1C598.6,202.2,599.5,209.3,596.9,216.2z"/>
<path class="st1" d="M532.9,81.1c-5-2.1-9-6.1-11.2-11.1C525.9,73.2,529.7,77,532.9,81.1z"/>
<path class="st1" d="M0.4,245.1c2.4,5.3,1.9,10.7,0.3,16.1C-0.1,255.8-0.2,250.4,0.4,245.1z"/>
<path class="st1" d="M591.7,240.1c-2-3.1,0.6-4.9,1.9-7C594.3,235.8,592.8,238,591.7,240.1z"/>
<path class="st1" d="M5,295.1c2.7,2.2,3.4,4.8,1.9,8C5.8,300.6,5.2,297.9,5,295.1z"/>
<path class="st1" d="M1.4,231.1c1.9,2.5,2.8,5-0.5,7.1C1,235.8,1.2,233.4,1.4,231.1z"/>
<path class="st1" d="M556.8,114.1c-3.4-1.1-3.8-4-4.1-7C554.5,109.2,555.9,111.5,556.8,114.1z"/>
<path class="st1" d="M20.8,201.1c-2.3,1.9-4.8,0.9-7.3,0.7C15.8,200.1,18.2,199.6,20.8,201.1z"/>
<path class="st1" d="M543.8,94.1c-3-0.4-4.2-2.2-4-5.1C541.5,90.4,542.8,92.2,543.8,94.1z"/>
<path class="st1" d="M539.9,89.1c-3.1-0.2-4.2-2.1-4.2-4.9C537.4,85.5,538.8,87.2,539.9,89.1z"/>
<path class="st1" d="M546.8,98.1c-2.6-0.2-3.2-1.8-3-4L546.8,98.1z"/>
<path class="st1" d="M6.6,209.9c0.1,2.4,0,4.7-2.4,6.1C4.8,213.9,5.2,211.7,6.6,209.9z"/>
<path class="st1" d="M29.2,361.3c2.5,0.4,2.6,2.2,2.5,4.2C30.2,364.5,29.7,362.9,29.2,361.3z"/>
<path class="st1" d="M3.8,218.1c1.4,1.7,1.6,3.2-0.9,4C2.8,220.8,3.1,219.4,3.8,218.1z"/>
<path class="st1" d="M596.7,189.1c-1.1-0.9-1-2.1-0.9-3.2C597.4,186.6,597.4,187.8,596.7,189.1z"/>
<path class="st1" d="M594.8,228.3c-0.1-1.2-0.2-2.4,0.9-3.2C596.4,226.5,596.3,227.6,594.8,228.3z"/>
<path class="st1" d="M550.8,104.1c-2-0.1-2.1-1.5-2-3L550.8,104.1z"/>
<path class="st1" d="M552.7,107.1c-2-0.2-2.1-1.6-2-3.1C551.8,104.8,552.5,105.9,552.7,107.1z"/>
<path class="st1" d="M2.4,224.1c1.8,1.3,1.8,2.3-0.4,3.1C2.1,226.1,2.2,225.1,2.4,224.1z"/>
<path class="st1" d="M593.8,232.3c-0.1-1.2-0.1-2.4,0.9-3.2C595.5,230.5,595.2,231.6,593.8,232.3z"/>
<path class="st1" d="M20.9,344.1c2.2,0.5,1.9,2.1,1.7,3.7C21.7,346.7,20.7,345.7,20.9,344.1z"/>
<path class="st1" d="M31.9,211.1c-1.9,0-2.1-1.4-2.2-2.8L31.9,211.1z"/>
<path class="st1" d="M548.8,101.1c-2-0.1-2.1-1.5-2.1-3L548.8,101.1z"/>
<path class="st1" d="M10,315.1c1.3,0.3,2.1,0.9,0.6,2.1C9.8,316.7,10,315.9,10,315.1z"/>
<path class="st1" d="M4,290.1c1.5,0.4,2,1.1,0.5,2.1C4.3,291.6,4.2,290.9,4,290.1z"/>
<path class="st1" d="M596.8,222.2c-0.9-0.6-1-1.3-0.1-2C597.2,220.7,597.2,221.6,596.8,222.2z"/>
<path class="st1" d="M25.9,204.1c-1,0.1-1.9-0.6-2.1-1.7L25.9,204.1z"/>
<path class="st1" d="M17.5,336.2c0.9,0.5,1.4,1.6,1.1,2.6L17.5,336.2z"/>
<path class="st1" d="M19.6,341.2c0.8,0.5,1.2,1.4,1.1,2.4C20.3,342.8,20,342,19.6,341.2z"/>
<path class="st1" d="M7.4,305.3c1.1,0.4,1.4,0.9,0.5,1.9L7.4,305.3z"/>
<path class="st1" d="M13.6,201.7c-0.2,1.1-1,1.4-2,1.4L13.6,201.7z"/>
<path class="st1" d="M8.8,206.1c0.1,0.9-0.4,1.7-1.2,2L8.8,206.1z"/>
<path class="st1" d="M7.6,207.9c0.2,0.9-0.2,1.8-1.1,2.1C6.9,209.4,7.3,208.6,7.6,207.9z"/>
<path class="st1" d="M11.7,320.1c0.8,0.6,1.1,1.7,0.9,2.6C12,322.1,11.6,321.1,11.7,320.1z"/>
<path class="st1" d="M15.6,331.2c0.9,0.5,1.3,1.6,1.1,2.6C16,333.1,15.6,332.2,15.6,331.2z"/>
<path class="st1" d="M38.3,376.2c0.9,0.2,1.5,1.1,1.4,2L38.3,376.2z"/>
<path class="st1" d="M26.6,356.2c0.8,0.4,1.3,1.3,1.1,2.1C27.3,357.6,27,356.9,26.6,356.2z"/>
<path class="st1" d="M22.7,348.1c0.7,0.5,1.1,1.4,1,2.2C23.4,349.6,23,348.8,22.7,348.1z"/>
<path class="st1" d="M39.7,378.2l1,1.5L39.7,378.2z"/>
<path class="st1" d="M13.4,325.3c0.2,0.2,0.4,0.3,0.6,0.5c0,0-0.2,0.2-0.3,0.4C13.5,325.9,13.4,325.6,13.4,325.3z"/>
<path class="st1" d="M59.7,403.1c0.3,0.4,0.7,0.8,1,1.2L59.7,403.1z"/>
<path class="st1" d="M9.2,312.3c0.6,0.1,1.1,0.2,0.4,0.9C9.3,313,9.1,312.6,9.2,312.3z"/>
<path class="st1" d="M42.5,382.2l1.2,1.6L42.5,382.2z"/>
<path class="st1" d="M1.7,228.8c0,0.7-0.1,1.4-0.1,2C0.8,230.1,0.6,229.5,1.7,228.8z"/>
<path class="st1" d="M14.5,328.2c0.2,0.2,0.4,0.3,0.6,0.5c0,0-0.2,0.2-0.3,0.4C14.5,328.9,14.4,328.6,14.5,328.2z"/>
<path class="st2" d="M507.6,66.4l2.6,2.2l0.3-0.2c0,0.6,0.4,1,1,1c0,0,0,0,0.1,0l0,0l1.1,1l0-0.1l1.1,1.1l-0.1-0.1l1.1,1h-0.1
	c0,0.3,0.1,0.6,0.2,0.9c-0.1,1,0.7,1.9,1.8,2c0.1,0,0.2,0,0.3,0l0,0c0.4,0.3,0.7,0.7,1.1,1l-0.1-0.1c0.4,0.4,0.7,0.7,1.1,1.1
	l-0.1-0.1c0.4,0.4,0.7,0.7,1.1,1.1l-0.1-0.1l1.1,1.1l-0.1-0.1l1.1,1.1l-0.1-0.1l1,1l0,0l1,1l0,0l1,1l0,0l1,1c0.3,0.1,0.6,0.1,1,0.2
	l-0.1-0.1c0.1,0.3,0.1,0.7,0.2,1c0.2,1.8,1.5,3.3,3.3,3.8l1.4,0.4v-0.1c-0.1,0.8,0.4,1.6,1.2,1.9l0,0c0.6,1.6,1.7,3,3.1,4l0,0
	c0.6,1.6,1.6,3,3,4.1l0,0c0.1,1,0.8,1.9,1.8,2.2v-0.1c0.1,1.6,0.9,3,2.2,3.9v-0.1l1,1.1h-0.1c0,1.3,0.7,2.5,1.9,3.1l0,0
	c0.4,2.3,1.5,4.3,3.2,5.9v-0.1l1,1.1h-0.1c6.3,15.7,14.1,31.1,13.5,49.1l3.9-6.2l0,0.1l2.4-2c0.2,0.1,0.4,0,0.5-0.1
	c2.4-0.4,4.8,0,7,1.1l0.9,0.9l1.1,1.1h-0.1c4.3,10.6,6.4,21.7,7.4,33c0,0.9,0.1,1.9,0.1,2.8l-0.2,11.1l-0.1,1.8
	c-1.1,9.6-3.7,18.8-6.4,28V237c-0.7,0.4-1.1,1.2-1,2.1l0.1-0.1c-0.7,0.4-1.1,1.2-1,2.1l0.1-0.1c-0.7,0.4-1.1,1.2-1,2.1V243
	c-0.7,0.4-1.1,1.2-1.1,2h0.1l-1,1.1v-0.1c-1.3,0.9-2.1,2.4-2.2,3.9h0.1c-0.7,0.1-0.9,0.5-1,1.1l0.1-0.1l-1.1,1.1l-0.8,1.1
	c-1,0.7-1.8,1.7-2.2,2.9h0.1l-1,1.1l-0.9,1c-0.7,0.3-1.2,1.1-1.2,1.9l0.1,0c-0.6,0-1,0.5-1,1.1l0.1-0.1c-0.3,0.4-0.7,0.7-1.1,1.1
	l0.1-0.1c-0.3,0.4-0.7,0.7-1.1,1.1l0.1-0.1c-0.6,0-1,0.5-1,1.1V264c-0.6,0-1,0.4-1,0.9c0,0,0,0,0,0.1l0-0.1c-0.8,0-1.5,0.5-1.9,1.2
	l-1,0.9l-1.1,1l0.1-0.1l-1.1,1l0.1-0.1c-0.6,0.4-1.2,0.8-1.8,1.2l-1.2,0.9c-1,0.2-1.8,0.9-2.2,1.9h0.1c-0.8,0-1.6,0.4-2,1.1l0,0
	l-1.1,1l0.1-0.1l-2,1.1l0,0l-1.9,1.1l0,0c-1.2,0.2-2.3,0.9-3.1,1.9l0,0l-2,1.1h-1.8c1.8-7.2,3.3-14.5,0.8-21.9
	c1.2-1.4,2.4-2.8,3.5-4.1c3.9-4.8,6.6-10,6.4-16.4c-0.1-2.5-0.8-3.8-3.7-2.5c-15.5,6.5-31.9,8.1-48.5,8.1
	c-30-0.1-59.5-3.6-87.8-14.1c-1.8-0.7-3.8-2-5,0.9c-8.1,2-14.2,7-19.1,13.4c-12.4,16.2-13.4,34.9-11.3,54c0.6,5.7-0.6,10.8-1.6,16.1
	c-5.1,2-2.3,4.3-0.2,6.6c10.1,10.7,18.8,22.5,24.1,36.4c1.3,3.4,1.1,5.4-3.1,5.8c-1.4,0.1-3.4,0.4-3.7,2c-0.5,2,1.6,2.6,2.8,3.7
	c0.5,0.4,1.1,0.8,1.6,1.1c2.9,1.9,2.5,3.5-0.4,5c-5.4,2.7-11.4,4-17.4,3.9c-16-0.2-31.9-3.3-46.9-9c-2-0.8-5.1-3.5-6.4,0
	s2.7,4,5,4.8c7.1,2.4,14.3,4.5,21.4,6.7c-1.3,8.6-2.5,17.2-4.8,25.7c-1-1.3-1.9-2.6-2.9-3.9s-2.1-2.2-3.7-1.1s-1.4,2.4-0.5,3.8
	l3.9,6.2c0.5,1.2,1,2.4,1.5,3.7c8.2,20,10.4,40,0.6,60.2l0,0l-1.1,2l0.1-0.1l-1,1.1l0,0l-1,1l0,0l-1,1l0,0c-0.4,0.3-0.7,0.7-1,1l0,0
	l-1.1,1V482l-2.9,2.1l0,0l-1.1,0.9l0-0.1c-2,0.4-3,0-3-2.4s0.6-4.9-1.3-7c-1.7,1-1.6,2.8-2,4.3l0.2,0.1l-1,1.1V481
	c-0.8,0.4-1.2,1.2-1.1,2l0.1-0.1c-0.6,0-1.1,0.5-1,1.1c0,0,0,0,0,0l0.1-0.1l-0.8,1l0.1-0.1c-0.8,0-1.6,0.5-1.9,1.2l0,0l-1.1,1
	l0.1-0.1c-0.8,0-1.6,0.4-2.1,1.1l0.1-0.1c-0.8-0.1-1.6,0.3-2.1,1v-0.1l-1.9,0.3h-0.2l-0.2-6.9c-0.1-0.7-0.3-1.5-0.5-2.2
	c-0.1-0.9,0.1-2.2-1.1-2.2s-1,1.3-1.3,2.1h0.1c-0.7,0.4-1.1,1.2-1.1,2l0.1-0.1l-1,1.1V483c-0.8,0.4-1.2,1.2-1.2,2l0.1-0.1
	c-0.6,0-1,0.4-1,1c0,0,0,0,0,0.1l0,0c-0.6,0-1,0.4-1,1c0,0,0,0,0,0.1l0-0.1c-0.8,0-1.6,0.5-1.9,1.2l0,0c-2,0.8-3.8,1.9-6.1,2
	c-25.1,0.5-50.3,1.5-73.7-10.1h0.1c-0.4-0.9-1.1-1.6-2.1-1.9v0.1l-1-1.2h0.1l-3.1-4v0.1c-0.3-0.4-0.7-0.7-1-1.1l0.1,0.1
	c-2.7-9.3-3.3-19.1-1.6-28.6c0.6-3.1,0-3.3-3.4-2.2c-0.7,0.5-1,1.3-0.8,2.1c-1.1,2.8-1.7,5.8-1.8,8.9c-0.1,0.7-0.1,1.4-0.2,2.1
	c-0.1,0.3-0.2,0.6-0.1,0.9l-0.2,0.4c-11.1-0.8-22-3.3-32.7-5.9c-17.8-4.4-35.3-10.3-52.2-17.6v0c-3.1-2.1-6.5-3.8-10-5l0,0l-2-1h0.1
	c-1.6-1.6-3.7-2.7-6-3.1l0,0c-0.3-0.8-1.2-1.2-2-1.1l0.1,0c-0.9-1.7-2.5-2.3-4.1-2.8l0,0c-0.4-0.7-1.2-1.1-2-1.1v0.1l-1.1-1h0.1
	c-0.7-1-1.8-1.8-3-2.1v0.2c-0.4-0.7-1.2-1.2-2-1.1l0.1,0c-0.3-0.9-1.1-1.6-2-1.8l0,0c-0.4-0.7-1.2-1.2-2-1.2H86
	c-0.4-1-1.2-1.7-2.2-1.9l-1.1-0.8c-1-1.3-2.3-2.4-3.9-3.1v0.1l-1.1-1l0,0c-0.3-0.7-1.1-1.2-1.9-1.2v0.1l-1.1-1l0.1,0.1l-1-1.1H74
	c-0.3-1-1.1-1.7-2.1-2v0.1l-1-1l0.1,0.1l-1.1-1.1l0.1,0.1l-1.1-1.1l0.1,0.1l-1.1-1.1l0.1,0.1l-1.1-1.1l0.1,0.1
	c-0.4-0.4-0.7-0.7-1.1-1.1l0.1,0.1c-0.4-0.4-0.7-0.7-1.1-1.1l0.1,0.1l-1.1-1.1l0.1,0.1l-1.1-1.1l0.1,0.1l-1-1.1l0.1,0.1l-1.1-1.1H61
	c-0.3-1-1-1.8-2-2.1v0.1l-1-1.1h0.1c0-0.6-0.4-1-1-1h0.1c0-0.9-0.5-1.6-1.3-1.9l0,0l-1-1.1l0.1,0.1l-1-1.1L54,380l-1-1.1h0.1
	c0-0.8-0.4-1.6-1.2-2l0,0c-0.3-0.9-1-1.7-1.9-2v0.1c0-0.8-0.4-1.6-1.2-2l0,0c-0.2-1-0.9-1.8-1.8-2.2v0c0-1.3-0.8-2.5-2-3v0
	c-0.2-1.5-1-2.9-2.2-3.9l0,0l-2-3.1l0,0l-1-1.1L40,360c0-0.8-0.4-1.6-1.1-2v0.1l-1.1-2l0,0c-0.8-2.6-2.1-5-3.9-7.1v0.1l-1-2.1v0.1
	l-1-2.1l0,0.1l-1-2.1v0.1c-0.3-0.7-0.7-1.4-1-2.1l0,0.1l-1-2.1l0.1,0c-0.5-2.5-1.6-4.9-3.1-7l0,0c-3.6-10.3-7.6-20.5-10.4-31.2
	C8.9,276,5.2,250.8,9.1,225c2.7-1.1,1.3-3.3,1.5-5.1v0.2c1.8-2.7,3.6-0.2,5.4,0h-0.1c-0.1,1.6,0.1,2.9,2.1,3l-0.1-0.1
	c0.4,0.4,0.7,0.7,1.1,1.1V224c0.5,1.4,1.3,2.2,2.9,1.5c1.4-0.5,2.3-2,1.9-3.5h-0.1c3-1.5,5.2-0.3,7.2,2c0,1.7,0.2,3.2,2.1,3.9l0,0
	c-0.1,0.8,0.3,1.6,0.9,2l0.1,0.1c0,1.9,0.3,3.7,2,4.9l0,0c0.3,3.6,1.7,7.1,4,10l0,0c-0.3,3,0.8,5.9,3,8l0,0c0.2,2.9,0.7,5.8,3,7.9
	v0.1c0,1.1-0.1,2.3,1,3v-0.1c-0.1,0.8,0.3,1.6,0.9,2v0.1c0,1.1-0.1,2.2,1.1,2.9l0,0c-0.1,0.8,0.2,1.5,0.9,1.9
	c0.2,0.2,0.3,0.5,0.2,0.7c-0.2,0.9,0.2,1.8,1,2.3l0,0c-0.1,0.8,0.3,1.6,0.9,2v0.1c0,1.1-0.1,2.3,1.1,2.9v-0.1
	c-0.1,0.8,0.3,1.7,1,2.1l0,0c-0.1,0.8,0.3,1.6,1,2c5.4,10.7,11.3,21.1,19,30.4c14.4,17.2,31.8,29.2,54.7,31.8
	c25.2,2.8,46.4-6,64.5-23c11.3-10.6,19.4-23.7,27.6-36.6c3.9-6.2,8-12.2,12-18.4c1.6,1.9,1.6,4.3,2.2,6.5c1.9,6.5,9.2,11,15.6,9.2
	c7-2,11.3-7.4,12.8-14.1s0.3-13.5-6-18.3c-3-2.3-6.7-1.5-9.7-3.2c11.3-13.3,17.4-29,21-45.8c2.9-14.2,7.6-28,13.9-41.1
	c2.7-5.4,3.2-11.5,4.9-17.2c7.7-26.1,18.9-50.4,38.1-70c35.9-36.6,79.5-46.4,128.5-34c17.1,4.3,32.5,12.7,47.1,22.3l0.1-0.1l1.1,1
	l-0.1-0.1l1.1,1.1l1,0.8l1.9,1.2l-0.1-0.1l1.1,1L507.6,66.4z M387.9,160.3c-1.5,0.1-1,1.1-1,1.9c-3.1,3-2.2,6.8-1.9,10.3
	c1.2,10.9,10,18.7,18.8,17.1s14.7-10.1,13.9-20.2s-7.9-17.8-16.7-18.1C394.7,151.2,389,155.2,387.9,160.3z M340,197.5
	c-7.3-0.1-14,6.9-14,14.7c0.2,7.7,6.4,13.8,14.1,13.9c7.1,0,14-6.9,14.1-14.1C354.5,204.4,347.6,197.6,340,197.5z M264.8,432.8
	c0.2,3.7,3.1,6.8,6.8,7.2c3.4,0.1,6.9-3.4,7.1-7c0.2-3.4-3.3-6.9-7-6.9C267.6,426.1,264.9,428.7,264.8,432.8z M537.8,168.1
	c3.8-0.2,6.8-3.3,6.8-7.1c-0.4-3.6-3.4-6.4-7-6.5c-3.4,0.1-6.8,3.4-6.8,6.7C530.9,165,534,168,537.8,168.1L537.8,168.1z M419.7,78.6
	c0,3.9,2.2,6.4,5.8,6.5c3.2,0.2,5.9-2.1,6.2-5.3c0-0.3,0-0.6,0-0.9c-0.1-3.9-1.8-6.1-6.1-5.9C421.8,73.2,419.6,74.6,419.7,78.6z
	 M268.7,298.5c-0.4-3.5-1.9-5.6-5.8-5.4c-3.7,0.2-6.2,2-6.1,5.8c0.1,3.4,1.6,6.3,5.7,6.1S268.5,302.3,268.7,298.5L268.7,298.5z
	 M350.3,342.1c3.1,0,5.4-1,5.2-4.1c-0.2-2.9-2.2-4.7-5.3-4.8c-2.5-0.1-4.3,1.2-4.3,3.8C345.9,339.8,347.1,342.1,350.3,342.1
	L350.3,342.1z M427.7,64.5c-0.1-1.6-0.9-2.4-2.5-2.2c-1.4,0.1-2.4,1.3-2.3,2.6c0,0,0,0,0,0c0,1.7,1.1,2.2,2.6,2.1
	C427.1,67.1,427.7,66.1,427.7,64.5z"/>
<path class="st3" d="M536.7,258.2c2.5,7.4,1,14.6-0.8,21.9c-0.2,0.3-0.3,0.6-0.3,0.9h0l-3.1,2l0.1-0.1l-2.1,1.1l0.1-0.1l-2.1,1.1
	l0.1-0.1c-2.4,0.6-4.6,1.6-6.6,3h-0.3c-1.9,0.3-3.6,1-5.2,2.1l0.1,0l-2.2,0.9l0.1-0.1l-19.1,6l0.1-0.1c-2.8,0.5-5.5,0.9-8,2.2l0-0.2
	c-9,1.9-18.3,2.7-27.2,5.3c-25,0.8-49.9,0.4-74.6-3.9l-0.3-0.2l0.3,0.2c0.5,2.9,2.9,4.3,4.9,6c20.2,16.1,43.5,22.8,69.1,22.1
	c0,1.6,0.1,3.3,0,5c-1,21.6-5.5,42.8-13.2,63l0.1-0.1c-1.8,3.6-3.6,7.2-5.4,10.7h0.1c-0.3,0.4-0.5,0.9-0.8,1.3l0.1-0.1
	c-0.6,1-1.3,2.1-1.9,3.1l0,0l-1.2,2l0.1-0.1l-1.3,1.9l0.3,0.1l-0.3-0.1l-1.6,2.3l0,0l-1.3,1.9l0.1-0.1l-1,1.2l0.1-0.1l-1,1.2v-0.1
	c-0.5,0.6-0.9,1.2-1.4,1.8h0.3l-0.3,0l-2.8,3.2l0.1-0.1l-0.9,1l0.1-0.1c-0.4,0.4-0.7,0.8-1.1,1.1l-0.9,0.9l-1.1,1.1l0.1-0.1
	l-1.1,1.1l0.1-0.1l-1.1,1.1l0.1-0.1l-1.2,1.1l0.1-0.1l-2.2,1.9h0.1l-1.2,1v-0.1l-1.7,1.4l0,0l-1.2,1l0.1-0.1l-2.3,1.6l0.1,0.2
	l-0.2-0.2l-1.8,1.4l0.1-0.1l-1.3,0.9l0-0.1c-0.6,0.4-1.2,0.9-1.9,1.3l0.1-0.1l-1.3,0.8v-0.1l-3.7,2.3l0.1-0.1l-2,1.1l0,0
	c-13.9,7.1-28.6,11.5-43.9,14.1c-1.9-1.3-0.5-3.4-1.2-5c-0.1-17-4.8-33.7-13.6-48.3c0-0.6-0.1-1.1-0.1-1.7
	c2.3-8.4,3.5-17.1,4.8-25.7l8.4,1.1c11,1.5,22.1,2.7,33.1-0.5c9.4-2.7,13.3-8.5,12.5-18.2c-0.4-4.3-1.6-8.5-3.5-12.4
	c-6.4-14.3-15.9-26.4-27.3-37c1-5.3,2.2-10.4,1.6-16.1c-2.2-19.1-1.1-37.9,11.3-54c4.9-6.5,11-11.4,19.1-13.4
	c0.2,0.8,0.5,1.6,0.7,2.4c8.2,19.2,23.3,31.1,42.3,37.6C477.1,281.2,508.2,278.5,536.7,258.2z"/>
<path class="st4" d="M471.5,479.9c0.1-5.2,0.1-5.2-1.3-8.3c-3,5.1-6,10.1-12.1,12c-1.3-2.9,0.6-6.3-1.9-8.6c-0.2,0-0.5,0-0.6,0.1
	c-3.4,9.8-11,10.6-20,10.3c-13.5-0.4-27-0.7-39.6-6.2c-5.9-2.6-10.5-6.3-12.5-12.8c-0.9-2.8-0.6-4.2,2.4-5.3
	c18-6.3,33.1-16.8,46.1-30.7c8.2-9,14.9-19.3,19.8-30.4c2.6-5.8,2.5-5.7,8.2-2.8c33,17,33.4,53,22.3,73.6c-2.3,4.3-5.6,7.9-10.5,9.5
	L471.5,479.9z M449.3,452.1c2.1-0.2,4.3-1,4.1-3.7s-1.6-5-4.6-5.1c-2.6-0.1-3.9,1.7-4,4.2C444.7,450.3,446.3,451.8,449.3,452.1z"/>
<path class="st4" d="M467.8,320.1c11.8,8.1,21.7,18.5,29.3,30.7c3.7,5.5,6.5,11.7,8.1,18.1c1.2,5,0.7,5.6-4.4,5
	c-1.2-0.1-2.8-1.3-3.6,0.3s0.8,2.4,1.5,3.4c3.4,4.8,3.3,5.3-2.4,6.4c-11.5,2.2-23.3,1.9-34.6-0.9c-1.8-0.4-4.2-0.5-3.3-3.7
	C464.3,360.5,466.1,340.8,467.8,320.1z"/>
<path class="st5" d="M54.8,257.2c4.9,0.2,10-0.8,14.8,1c5.1,1.9,7.9,6,7,11.2c-1.2,7-3.2,13.9-7,20.1c-1.8,3-4.1,3.8-5.8,0.1
	c-4.6-9.9-9.4-19.8-12.1-30.4l0,0l1-1L54.8,257.2z"/>
<path class="st1" d="M342,407.9c8.8,14.6,13.5,31.2,13.6,48.2c-2.5-0.7-1.8-2.9-1.8-4.6c0.1-5.2-1.1-10.2-2.2-15.2
	c-0.3-1.4-0.7-3.4-2.7-2.7c-1.6,0.5-1.1,2.2-0.9,3.5c1.9,11,0.8,22.3-3.3,32.7c-0.8,2.1-1.1,4.7-3.9,5.3c9.9-20.2,7.6-40.2-0.6-60.2
	c-0.5-1.2-1-2.4-1.5-3.7l0.2-0.2c2.1,0.2,3.1-0.7,2.9-2.9L342,407.9z M344.7,418.6c-0.2,0.2-0.3,0.4-0.5,0.7c0,0.1,0.2,0.4,0.3,0.3
	c0.3-0.1,0.5-0.2,0.7-0.4L344.7,418.6z"/>
<path class="st1" d="M446.5,396c7.7-20.1,12.2-41.4,13.2-63c0.1-1.6,0-3.3,0-5c1.5-8,1-16.1,0.6-24.2c8.9-2.6,18.2-3.4,27.2-5.3
	c-4.4,3.3-9.9,3.3-15,4.3c-10.8,2-11,1.7-10.8,12.7c0.3,24.2-2.6,48-10.2,71C450.4,390,450.1,394,446.5,396z"/>
<path class="st1" d="M9.1,225c-4,25.8-0.2,51,6.4,76c2.8,10.6,6.8,20.8,10.4,31.2c-2.5-1.1-2.7-3.6-3.5-5.7
	C14,305.1,8.8,282.7,6.7,259.9c-1.1-11.8-1.2-23.4,1.1-35.1c0.2-1,0.3-2,1.5-2.2C9.2,223.4,9.2,224.2,9.1,225z"/>
<path class="st1" d="M121.8,432c16.9,7.3,34.4,13.1,52.2,17.6c10.8,2.6,21.6,5.1,32.7,5.9c-1.2,2.5-3.4,1.6-5.2,1.4
	c-18.4-2.3-35.9-7.9-53.5-13.1c-8.1-2.4-15.9-5.8-23.7-9C123,434.3,121.9,433.6,121.8,432z"/>
<path class="st1" d="M221.9,479.9c23.4,11.6,48.6,10.6,73.7,10.1c2.3,0,4.1-1.1,6.1-2c-2.2,5-7.3,3.7-10.9,3.9
	c-18.8,0.7-37.5,0.2-55.7-5C230.4,485.5,224.8,485,221.9,479.9z"/>
<path class="st1" d="M585.9,193.2c-1-11.3-3.1-22.4-7.4-33c4.7,3.9,5.1,9.8,6.4,15.1c4.8,19.8,4,39.3-3.2,58.5
	c-0.5,1.2-0.8,2.6-2.2,3.2c2.7-9.2,5.3-18.4,6.4-28c0.5-0.3,0.7-0.9,0.5-1.4c-0.1-0.2-0.2-0.3-0.4-0.4c0-3.7,0-7.5,0.1-11.2
	c0.7-0.7,0.8-1.9,0-2.6C586,193.3,586,193.3,585.9,193.2z"/>
<path class="st5" d="M34.7,216.1c9.3-3,13.5,0.8,11.5,10.1c-0.6,2.7-0.9,5.5-2.5,7.9C40.1,228.5,37.1,222.5,34.7,216.1z"/>
<path class="st1" d="M566.8,159.2l-3.8,6.2c0.6-18-7.2-33.4-13.5-49.1c2.8,0.8,2.7,3.5,3.7,5.4c5.6,11.1,9.5,22.8,10.5,35.3
	C563.8,159.8,565.2,159.4,566.8,159.2z"/>
<path class="st1" d="M356.8,461.1c15.3-2.6,30.1-7,43.9-14.1c0,1.9-1.6,2.4-2.9,3c-11.6,6-24.1,9.5-36.8,11.9
	C359.5,462.3,358,462.4,356.8,461.1z"/>
<path class="st1" d="M209.9,441.2c3.4-1,4-0.8,3.4,2.2c-1.6,9.5-1,19.3,1.7,28.6c-5.1-7-4.5-14.9-3.8-22.8
	C211.5,446.4,213.4,443.3,209.9,441.2z"/>
<path class="st6" d="M16.9,214.7l-2.1-4.5c0.2-0.2,0.3-0.5,0.3-0.8l-0.2,0.1l1.6-1.1h0.3l4,0.4c2.4,3.9,1.8,7.4-1.6,9.4l-1.3-1.9
	l0,0C17.5,215.6,17.2,215.1,16.9,214.7z"/>
<path class="st7" d="M240.7,501.1c-2.2,2.2-4.6,0.5-6.4-0.2c-4.7-1.8-10.5-1.7-13.5-6.9C227.1,497.2,233.8,499.6,240.7,501.1z"/>
<path class="st8" d="M30.8,224.1c-1.9-2.3-4.2-3.6-7.2-2c1.2-2.3,0-5.9,3.7-6.8c0.4,0.7,0.9,1.3,1.3,2v-0.1l1,2.1l0-0.1l1,2.1l0-0.1
	C30.7,222.2,30.8,223.1,30.8,224.1L30.8,224.1z"/>
<path class="st1" d="M495.5,296.8l19.1-6C508.9,295,502.4,296.5,495.5,296.8z"/>
<path class="st1" d="M324.5,479.8c0.4-1.5,0.3-3.3,2-4.3c1.9,2.1,1.3,4.7,1.3,7s1,2.8,3,2.4c-0.6,1.6-1.6,2.5-3.3,1.8
	s-1.3-1.9-0.9-3.3C327.1,481.5,326.3,480.3,324.5,479.8z"/>
<path class="st1" d="M441.2,406.7c1.8-3.6,3.6-7.2,5.4-10.7C446.5,400.4,445.5,404.4,441.2,406.7z"/>
<path class="st1" d="M111.8,427c3.5,1.2,6.9,2.9,10,5C117.8,431.8,113.9,431.2,111.8,427z"/>
<path class="st8" d="M15.9,220.1c-1.8-0.2-3.6-2.8-5.4,0l0.1-2l0.4-1.8h-0.1l0.7-1.1c0.7-1.2,1.4-0.3,2.1,0c0.4,0.7,0.7,1.4,1.1,2.1
	L15.9,220.1z"/>
<path class="st1" d="M207.3,452.1c0.1-3,0.7-6,1.8-8.9C210.1,446.3,209.4,449.6,207.3,452.1z"/>
<path class="st1" d="M576.7,158.3c-2.1-1.1-4.6-1.5-7-1.1C572.6,153.9,574.9,154.5,576.7,158.3z"/>
<path class="st1" d="M33.9,349c1.8,2.1,3.1,4.5,3.9,7.1C34.5,354.8,34,352,33.9,349z"/>
<path class="st7" d="M448.7,499.2c-3.5,1.4-7.4,1.4-10.9-0.1C441.4,498.7,445,498.8,448.7,499.2z"/>
<path class="st1" d="M25.9,332c1.5,2.1,2.6,4.5,3.1,7C26,337.6,25.7,334.9,25.9,332z"/>
<path class="st7" d="M216.7,491.1c-2.8-0.1-4.9-1-4.5-4.4L216.7,491.1z"/>
<path class="st1" d="M311.4,482.2l0.2,6.9C307.8,486.9,311.1,484.5,311.4,482.2z"/>
<path class="st1" d="M548.6,115.3c-1.7-1.6-2.8-3.7-3.2-5.9C548.3,110.4,548.6,112.7,548.6,115.3z"/>
<path class="st8" d="M23.7,222.1c0.4,1.5-0.5,3-1.9,3.5c-1.6,0.6-2.4-0.1-2.9-1.5c1.3,0.3,2.5,0.7,3.5-0.7L23.7,222.1z"/>
<path class="st1" d="M103.9,422.9c2.3,0.4,4.4,1.5,6,3.1C107.3,426,105,425.6,103.9,422.9z"/>
<path class="st7" d="M416.8,499c-2.9,0.9-6,0.4-8.5-1.3C411.2,497.2,414.2,497.6,416.8,499z"/>
<path class="st1" d="M522,287.9c2-1.4,4.2-2.4,6.6-3C527.3,287.8,524.8,288.2,522,287.9z"/>
<path class="st1" d="M487.5,298.9c2.5-1.3,5.3-1.7,8-2.2C493.4,299.4,490.5,299.3,487.5,298.9z"/>
<path class="st1" d="M538.6,99.3c-1.4-1-2.4-2.4-3-4.1C538.3,95.4,538.8,97.1,538.6,99.3z"/>
<path class="st1" d="M78.9,405c1.6,0.7,2.9,1.8,3.9,3.1C80.6,408.2,78.9,407.6,78.9,405z"/>
<path class="st1" d="M97.9,419c1.6,0.6,3.2,1.2,4.1,2.8C99.9,422,98.2,421.5,97.9,419z"/>
<path class="st8" d="M9.1,225c0.1-0.8,0.1-1.6,0.2-2.4L9,222.3c0.9-0.5,0.8-1.3,0.8-2.1c0.2-0.1,0.5-0.2,0.7-0.3
	C10.4,221.7,11.8,223.9,9.1,225z"/>
<path class="st1" d="M215.9,473l3.1,4C216.2,477,215.7,475.2,215.9,473z"/>
<path class="st1" d="M535.7,95.2c-1.4-1-2.5-2.4-3.1-4C535.2,91.3,535.8,93,535.7,95.2z"/>
<path class="st7" d="M458.7,498c-1,1.7-2.2,2.8-4.1,0.9C455.7,497.4,457.3,498.2,458.7,498z"/>
<path class="st1" d="M39.8,242.1c2.2,1.1,2,3.1,2,5l-0.5,0.4l-1.4-2.5l0,0c-0.2-0.9-0.3-1.8-0.5-2.6L39.8,242.1z"/>
<path class="st1" d="M42.8,250.1c2.2,1.1,2,3.1,2,5c-0.1,0.1-0.3,0.2-0.4,0.3l-1.5-2.4l0,0c-0.2-0.9-0.3-1.8-0.5-2.6L42.8,250.1z"/>
<path class="st7" d="M246.7,502.1c-1.6,1.3-3,1.7-3.9-0.7L246.7,502.1z"/>
<path class="st1" d="M516.6,290c1.5-1.1,3.3-1.8,5.2-2.1C520.7,290.4,518.7,290.2,516.6,290z"/>
<path class="st1" d="M427.5,425.9l2.8-3.2C430.8,425.1,429.7,426,427.5,425.9z"/>
<path class="st7" d="M467.7,497.2c-1.6,0.7-3,2.5-5,0.8C464.1,496.4,465.9,497,467.7,497.2z"/>
<path class="st1" d="M572.5,250c0.1-1.6,0.9-3,2.2-3.9C574.7,247.8,574.6,249.5,572.5,250z"/>
<path class="st1" d="M402.6,446l3.8-2.4C406.2,446.2,404.4,446.1,402.6,446z"/>
<path class="st1" d="M542.6,105.3c-1.3-0.9-2.1-2.3-2.2-3.9C542.6,101.8,542.7,103.5,542.6,105.3z"/>
<path class="st1" d="M35.8,232.1c1.4,1.3,2.1,3.1,2,5l-0.4,0.3l-1.5-2.4l0,0c-0.2-0.9-0.4-1.7-0.6-2.6L35.8,232.1z"/>
<path class="st1" d="M308.5,479.9c0.2-0.9,0-2.2,1.3-2.1s1,1.3,1.1,2.2L308.5,479.9z"/>
<path class="st1" d="M42.8,364.1c1.2,1,2,2.4,2.2,3.9C42.9,367.5,42.8,365.8,42.8,364.1z"/>
<path class="st8" d="M32.9,228c-1.8-0.7-2.1-2.2-2.1-3.9l0.1-0.1l1.8,1.6v0.4C32.8,226.7,32.8,227.4,32.9,228z"/>
<path class="st1" d="M545.4,109.4c-1.2-0.6-1.9-1.8-1.9-3.1c1.3,0.1,2.2,1.3,2,2.6C545.5,109.1,545.4,109.2,545.4,109.4z"/>
<path class="st1" d="M331.8,484.1l2.9-2.1C334.6,484,333.2,484.1,331.8,484.1z"/>
<path class="st1" d="M32.7,225.7l-1.8-1.6c-0.1-1-0.2-1.9-0.3-2.9C32.1,222.2,32.9,223.9,32.7,225.7z"/>
<path class="st7" d="M210.9,485c-2.1,0-2.2-1.5-2.1-3.1L210.9,485z"/>
<path class="st1" d="M539.6,279.1c0.8-1,1.9-1.7,3.1-1.9C542.5,279.1,541.1,279.2,539.6,279.1z"/>
<path class="st1" d="M567.6,256c0.3-1.2,1.1-2.2,2.2-2.9C569.7,254.7,569.5,256,567.6,256z"/>
<path class="st1" d="M91.9,415c1.2,0.3,2.3,1,3,2.1C93.3,417.1,91.9,417,91.9,415z"/>
<path class="st1" d="M438.7,411.1c0.6-1,1.3-2.1,1.9-3.1C440.8,409.5,440.7,410.9,438.7,411.1z"/>
<path class="st1" d="M40.8,361l2,3.1C40.9,363.9,40.8,362.5,40.8,361z"/>
<path class="st1" d="M45.1,367.9c1.2,0.5,2,1.7,2,3c-1.3-0.1-2.2-1.2-2.1-2.5C45,368.2,45,368.1,45.1,367.9z"/>
<path class="st7" d="M220.9,494c-1.5,0-2.9,0-3-2L220.9,494z"/>
<path class="st1" d="M532.5,282.9l3.1-1.9C535.5,283.1,534.1,283.2,532.5,282.9z"/>
<path class="st8" d="M18,223.1c-2-0.1-2.2-1.5-2.1-3C17,220.8,17.7,221.8,18,223.1z"/>
<path class="st1" d="M412.3,439.5l2.3-1.6C414.5,439.4,413.9,440.1,412.3,439.5z"/>
<path class="st1" d="M219.9,478c1,0.3,1.8,1,2.1,1.9C220.5,480,219.9,479.4,219.9,478z"/>
<path class="st7" d="M473.2,495.7c-1.2,1.5-2.9,1.4-4.6,1.3C469.8,495.6,471.5,495.7,473.2,495.7z"/>
<path class="st7" d="M427.7,499.1c-1.4,1.4-2.8,1.3-4.1-0.2L427.7,499.1z"/>
<path class="st1" d="M47.1,370.9c0.9,0.4,1.6,1.2,1.8,2.2C47.5,373,46.8,372.3,47.1,370.9z"/>
<path class="st1" d="M50,374.9c0.9,0.4,1.7,1.1,1.9,2.1C50.5,377,49.8,376.3,50,374.9z"/>
<path class="st1" d="M87.8,412c1,0.2,1.8,0.9,2.2,1.8C88.6,414.1,87.9,413.4,87.8,412z"/>
<path class="st1" d="M540.4,101.4c-1-0.3-1.7-1.2-1.8-2.2C540,99.3,540.7,100,540.4,101.4z"/>
<path class="st1" d="M59,385.9c1,0.3,1.7,1.1,2,2.1C59.5,388,58.9,387.4,59,385.9z"/>
<path class="st1" d="M71.9,398.9c1,0.3,1.8,1,2.1,2C72.6,401,71.9,400.4,71.9,398.9z"/>
<path class="st1" d="M569.2,157.3l-2.4,2C566.8,157.7,567.8,157.2,569.2,157.3z"/>
<path class="st1" d="M83.8,408.9c1,0.3,1.8,1,2.2,1.9C84.5,411.1,83.9,410.3,83.8,408.9z"/>
<path class="st1" d="M434.6,417l1.6-2.3C436.7,416.2,436.1,416.9,434.6,417z"/>
<path class="st1" d="M549.5,272.9c0.4-1,1.2-1.7,2.2-1.9C551.6,272.4,550.9,273.1,549.5,272.9z"/>
<path class="st1" d="M20.7,208.7l-4-0.4C18.2,206.9,19.5,206.6,20.7,208.7z"/>
<path class="st1" d="M418.4,434.8l2.2-1.9C420.6,434.4,419.9,435.1,418.4,434.8z"/>
<path class="st1" d="M38.8,239.1c1,0.8,1,1.9,1,3l-0.4,0.3l-1.2-2.9L38.8,239.1z"/>
<path class="st1" d="M22.4,223.3c-0.9,1.4-2.2,1.1-3.5,0.7v0.1c0-0.3-0.1-0.7-0.1-1L22.4,223.3z"/>
<path class="st1" d="M531.4,89.5l-1.4-0.4c-0.2-0.5-0.5-1-0.7-1.5l0.4-0.4C530.7,87.5,531.4,88.4,531.4,89.5z"/>
<path class="st1" d="M44.8,255.1c1,0.8,1,1.9,1,3l-0.4,0.3l-1-2.9C44.5,255.3,44.7,255.2,44.8,255.1z"/>
<path class="st1" d="M41.8,247.1c1,0.8,1,1.9,1,3l-0.4,0.3c-0.4-1-0.8-1.9-1.1-2.9L41.8,247.1z"/>
<path class="st1" d="M32.9,228c-0.1-0.6-0.2-1.3-0.2-1.9c0.7,0.4,1.1,1.2,1.1,2.1l-0.2,0.2C33.4,228.2,33.1,228.1,32.9,228L32.9,228
	z"/>
<path class="st1" d="M33.8,228.1l1,2l-0.3,0.2c-0.2-0.1-0.4-0.2-0.6-0.2l-0.1-0.1c-0.1-0.6-0.2-1.2-0.2-1.7L33.8,228.1z"/>
<path class="st1" d="M30.7,221.3l-1-2.1C30.4,219.6,30.8,220.4,30.7,221.3z"/>
<path class="st1" d="M28.9,339l1,2.1C29.2,340.7,28.8,339.8,28.9,339z"/>
<path class="st1" d="M37.8,237.1c0.3,0.7,0.7,1.3,1,2l-0.5,0.4l-0.8-2.1L37.8,237.1z"/>
<path class="st1" d="M578.5,239.1c-0.1-0.8,0.3-1.7,1-2.1C579.7,237.8,579.3,238.7,578.5,239.1z"/>
<path class="st1" d="M577.5,241.1c-0.1-0.8,0.3-1.6,1-2.1C578.7,239.8,578.3,240.7,577.5,241.1z"/>
<path class="st1" d="M514.5,290.9l2.2-0.9C516.3,290.8,515.3,291.2,514.5,290.9z"/>
<path class="st1" d="M537.7,280.1l2-1.1C539.3,279.8,538.5,280.2,537.7,280.1z"/>
<path class="st1" d="M542.8,277.2l1.9-1.1C544.3,276.7,543.6,277.2,542.8,277.2z"/>
<path class="st1" d="M34.8,230.1c0.3,0.7,0.7,1.3,1,2l-0.4,0.3l-0.8-2.1L34.8,230.1z"/>
<path class="st1" d="M29.9,341c0.4,0.7,0.7,1.4,1,2.1C30.2,342.6,29.8,341.8,29.9,341z"/>
<path class="st1" d="M544.6,276.1l2-1.1C546.3,275.7,545.5,276.2,544.6,276.1z"/>
<path class="st1" d="M30.9,343l1,2.1C31.2,344.6,30.8,343.8,30.9,343z"/>
<path class="st1" d="M532.6,91.3c-0.8-0.3-1.2-1.1-1.2-1.9C532.3,89.6,532.8,90.4,532.6,91.3z"/>
<path class="st1" d="M547.6,274.1c0.4-0.7,1.2-1.2,2-1.1C549.3,273.7,548.5,274.2,547.6,274.1z"/>
<path class="st1" d="M102,421.9c0.8-0.2,1.7,0.3,2,1.1C103,423,102.3,422.9,102,421.9z"/>
<path class="st1" d="M14.8,217.2c-0.4-0.7-0.7-1.4-1.1-2.1C14.4,215.6,14.8,216.4,14.8,217.2z"/>
<path class="st1" d="M28.7,217.3c-0.4-0.7-0.9-1.4-1.3-2C28.3,215.5,28.8,216.4,28.7,217.3z"/>
<path class="st1" d="M11,216.3l-0.4,1.8C9.8,217.3,10,216.7,11,216.3z"/>
<path class="st1" d="M17.8,216.2l1.3,1.9C18.3,217.8,17.8,217,17.8,216.2z"/>
<path class="st1" d="M29.7,219.3l-1-2.1C29.4,217.6,29.8,218.4,29.7,219.3z"/>
<path class="st1" d="M75.9,402.9c0.8,0,1.6,0.5,1.9,1.2C77,404.2,76.2,403.7,75.9,402.9z"/>
<path class="st1" d="M557.7,266.1c0.3-0.7,1.1-1.2,1.9-1.2C559.3,265.7,558.5,266.2,557.7,266.1z"/>
<path class="st1" d="M48.9,373c0.7,0.4,1.1,1.2,1.1,2C49.2,374.7,48.7,373.9,48.9,373z"/>
<path class="st1" d="M85.9,410.9c0.8,0,1.6,0.4,2,1.2C87.1,412.2,86.2,411.7,85.9,410.9z"/>
<path class="st1" d="M437.5,413l1.2-2C438.8,411.9,438.3,412.7,437.5,413z"/>
<path class="st1" d="M436.2,414.8l1.3-1.9C437.6,413.9,437.4,414.7,436.2,414.8z"/>
<path class="st1" d="M89.9,413.9c0.8-0.1,1.6,0.4,2,1.1C91.1,415.2,90.2,414.7,89.9,413.9z"/>
<path class="st1" d="M433.3,418.9l1.3-1.9C434.6,417.9,434.4,418.7,433.3,418.9z"/>
<path class="st1" d="M95.9,417.9c0.8,0,1.6,0.4,2,1.1C97,419.2,96.2,418.7,95.9,417.9z"/>
<path class="st1" d="M430.2,422.8c0.5-0.6,0.9-1.2,1.4-1.8C431.6,421.9,431.4,422.7,430.2,422.8z"/>
<path class="st1" d="M530.5,284l2.1-1.1C532.3,283.7,531.4,284.2,530.5,284z"/>
<path class="st1" d="M109.8,426l2.1,1.1C111,427.2,110.2,426.7,109.8,426z"/>
<path class="st1" d="M415.6,437l1.7-1.4C417.3,436.7,416.6,437,415.6,437z"/>
<path class="st1" d="M55.8,382c0.8,0.4,1.2,1.2,1.2,2C56.2,383.7,55.7,382.9,55.8,382z"/>
<path class="st1" d="M564.5,260c0-0.8,0.5-1.5,1.2-1.9C565.8,259,565.3,259.7,564.5,260z"/>
<path class="st1" d="M410.5,440.9l1.8-1.4C412.3,440.8,411.5,441,410.5,440.9z"/>
<path class="st1" d="M407.5,442.9c0.6-0.5,1.2-0.9,1.9-1.3C409.3,442.8,408.5,443,407.5,442.9z"/>
<path class="st1" d="M552.8,270.2c0.6-0.4,1.2-0.8,1.8-1.2C554.3,269.7,553.6,270.2,552.8,270.2z"/>
<path class="st1" d="M400.6,447l2-1.1C402.3,446.7,401.5,447.1,400.6,447z"/>
<path class="st1" d="M9.8,220.2c0,0.8,0.1,1.6-0.8,2.1C8.8,221.5,9.1,220.6,9.8,220.2z"/>
<path class="st1" d="M575.5,245c-0.1-0.8,0.3-1.6,1.1-2C576.7,243.8,576.3,244.7,575.5,245z"/>
<path class="st1" d="M339.6,477l1.1-2C340.8,475.8,340.4,476.6,339.6,477z"/>
<path class="st1" d="M37.8,356.1l1.1,2C38.2,357.7,37.8,356.9,37.8,356.1z"/>
<path class="st1" d="M307.5,482c0-0.8,0.4-1.6,1.1-2C308.8,480.8,308.3,481.7,307.5,482z"/>
<path class="st1" d="M322.5,483c-0.1-0.8,0.4-1.6,1.1-2C323.8,481.9,323.3,482.7,322.5,483z"/>
<path class="st1" d="M305.5,485c-0.1-0.8,0.4-1.6,1.2-2C306.8,483.9,306.3,484.7,305.5,485z"/>
<path class="st7" d="M212.2,486.9c-1.1-0.2-1.3-1-1.3-1.9C211.3,485.6,211.7,486.2,212.2,486.9z"/>
<path class="st1" d="M318.7,486.1c0.4-0.7,1.1-1.2,1.9-1.2C320.3,485.7,319.5,486.1,318.7,486.1z"/>
<path class="st1" d="M38.9,358c0.7,0.4,1.1,1.2,1.1,2C39.2,359.7,38.8,358.8,38.9,358z"/>
<path class="st1" d="M301.7,488c0.4-0.7,1.1-1.2,1.9-1.2C303.3,487.7,302.5,488.2,301.7,488z"/>
<path class="st1" d="M315.6,488c0.4-0.7,1.2-1.1,2.1-1.1C317.3,487.7,316.5,488.1,315.6,488z"/>
<path class="st1" d="M313.6,489c0.5-0.7,1.3-1.1,2.1-1C315.3,488.8,314.5,489.2,313.6,489z"/>
<path class="st1" d="M311.8,489.2l1.9-0.3C313.2,490,312.5,490,311.8,489.2z"/>
<path class="st1" d="M32.9,347l1.1,2.1C33.2,348.7,32.8,347.9,32.9,347z"/>
<path class="st1" d="M528.5,285l2.1-1.1C530.3,284.7,529.4,285.2,528.5,285z"/>
<path class="st1" d="M31.9,345l1.1,2.1C32.2,346.7,31.8,345.8,31.9,345z"/>
<path class="st1" d="M535.5,281c0-0.3,0.2-0.6,0.3-0.9h1.8C537.2,280.8,536.4,281.1,535.5,281z"/>
<path class="st1" d="M51.9,377c0.7,0.4,1.2,1.2,1.1,2C52.2,378.7,51.7,377.9,51.9,377z"/>
<path class="st1" d="M576.5,243.1c-0.1-0.8,0.3-1.6,1-2.1C577.7,241.8,577.3,242.7,576.5,243.1z"/>
<path class="st1" d="M67.8,395l1.1,1.1L67.8,395z"/>
<path class="st1" d="M68.8,396l1.1,1.1L68.8,396z"/>
<path class="st1" d="M554.6,269.1l1.1-1L554.6,269.1z"/>
<path class="st1" d="M69.8,397l1.1,1.1L69.8,397z"/>
<path class="st1" d="M70.8,398l1.1,1L70.8,398z"/>
<path class="st1" d="M555.6,268.1l1.1-1L555.6,268.1z"/>
<path class="st1" d="M73.9,401l1,1.1L73.9,401z"/>
<path class="st1" d="M77.8,404l1.1,1L77.8,404z"/>
<path class="st1" d="M440.5,408c0.3-0.4,0.5-0.9,0.8-1.3L440.5,408z"/>
<path class="st1" d="M559.5,265c0-0.6,0.4-1,1-1c0,0,0,0,0.1,0L559.5,265z"/>
<path class="st1" d="M511.6,69.4c-0.6,0-1-0.4-1-0.9c0,0,0,0,0-0.1L511.6,69.4z"/>
<path class="st1" d="M52.9,378.9L54,380L52.9,378.9z"/>
<path class="st1" d="M512.6,70.3l-1.1-1L512.6,70.3z"/>
<path class="st1" d="M513.6,71.3l-1.1-1.1L513.6,71.3z"/>
<path class="st1" d="M514.7,72.3l-1.1-1L514.7,72.3z"/>
<path class="st1" d="M514.7,73.2c-0.1-0.3-0.1-0.6-0.2-0.9l1.2,0.9l-0.2,0.2C515.3,73.3,515,73.3,514.7,73.2z"/>
<path class="st1" d="M515.7,73.2l1,1l-0.2,0.1l-1-1L515.7,73.2z"/>
<path class="st1" d="M516.7,74.2c0.3,0.4,0.6,0.8,0.9,1.1c-0.3-0.1-0.6-0.1-0.9-0.2l0,0c-0.1-0.3-0.2-0.5-0.2-0.8L516.7,74.2z"/>
<path class="st1" d="M53.9,380l1,1.1L53.9,380z"/>
<path class="st1" d="M94.8,417l1.1,1L94.8,417z"/>
<path class="st8" d="M516.7,75.1c0.3,0.1,0.6,0.2,0.9,0.2c0.1,0.3,0.1,0.6,0.2,0.8C517.5,75.8,517.1,75.4,516.7,75.1z"/>
<path class="st8" d="M518.8,77.1c-0.3-0.4-0.7-0.7-1.1-1.1L518.8,77.1z"/>
<path class="st1" d="M54.8,381l1,1.1L54.8,381z"/>
<path class="st1" d="M560.5,264c0-0.6,0.5-1,1-1.1L560.5,264z"/>
<path class="st1" d="M432.5,420l1-1.2L432.5,420z"/>
<path class="st1" d="M431.6,421.1l1-1.2L431.6,421.1z"/>
<path class="st8" d="M519.8,78.1c-0.3-0.4-0.7-0.7-1.1-1.1C519.1,77.4,519.5,77.8,519.8,78.1z"/>
<path class="st1" d="M74.8,402l1.2,1L74.8,402z"/>
<path class="st1" d="M561.5,263c0.4-0.4,0.7-0.7,1.1-1.1C562.2,262.3,561.9,262.7,561.5,263z"/>
<path class="st8" d="M520.8,79.1l-1.1-1.1L520.8,79.1z"/>
<path class="st8" d="M521.8,80.1l-1.1-1.1L521.8,80.1z"/>
<path class="st1" d="M562.5,262c0.4-0.4,0.7-0.7,1.1-1.1C563.2,261.3,562.9,261.7,562.5,262z"/>
<path class="st1" d="M426.5,427l1.1-1.2L426.5,427z"/>
<path class="st8" d="M522.8,81.1l-1-1l0.8,0.2C522.6,80.5,522.7,80.8,522.8,81.1z"/>
<path class="st1" d="M425.6,428c0.4-0.4,0.7-0.8,1.1-1.1C426.3,427.3,425.9,427.7,425.6,428z"/>
<path class="st1" d="M423.6,430.1l1.1-1.1L423.6,430.1z"/>
<path class="st1" d="M422.6,431l1.1-1.1L422.6,431z"/>
<path class="st1" d="M421.5,432l1.1-1.1L421.5,432z"/>
<path class="st1" d="M563.5,261c0-0.6,0.5-1.1,1-1.1L563.5,261z"/>
<path class="st1" d="M420.5,433l1.2-1L420.5,433z"/>
<path class="st1" d="M417.3,435.7l1.2-1c0,0.6-0.4,1-1,1C417.4,435.7,417.3,435.7,417.3,435.7z"/>
<path class="st1" d="M522.8,81.1c-0.1-0.3-0.2-0.6-0.2-0.8l1,1.1L522.8,81.1L522.8,81.1z"/>
<path class="st1" d="M414.5,438l1.2-1L414.5,438z"/>
<path class="st8" d="M522.8,81.1l0.9,0.2c0,0.3,0.1,0.5,0.2,0.8L522.8,81.1z"/>
<path class="st8" d="M524.7,83.1l-1-1c0.2,0.1,0.5,0.1,0.8,0.2C524.6,82.6,524.7,82.8,524.7,83.1z"/>
<path class="st1" d="M524.7,83.1c-0.1-0.3-0.2-0.6-0.2-0.9l1.2,0.9l-0.2,0.2L524.7,83.1L524.7,83.1z"/>
<path class="st1" d="M409.3,441.7l1.3-0.9L409.3,441.7z"/>
<path class="st1" d="M52.8,258.1l-1,1L52.8,258.1z"/>
<path class="st1" d="M406.3,443.7l1.3-0.8L406.3,443.7z"/>
<path class="st1" d="M566.6,257.1l1-1.1L566.6,257.1z"/>
<path class="st1" d="M526.6,84.3c-0.3,0-0.6-0.1-1-0.2c0-0.3-0.1-0.5-0.1-0.8l0.2-0.2C526,83.6,526.3,83.9,526.6,84.3z"/>
<path class="st1" d="M526.7,85.3l-0.2-1l1.2,0.9l-0.2,0.3L526.7,85.3z"/>
<path class="st1" d="M527.7,85.2l1,1l-0.3,0.3l-0.9-1.1L527.7,85.2z"/>
<path class="st1" d="M207,455.1c-0.1-0.3,0-0.6,0.1-0.9c0.1,0.2,0.1,0.4,0.1,0.7C207.2,454.9,207.1,455,207,455.1z"/>
<path class="st1" d="M214.9,471.9c0.3,0.4,0.7,0.8,1,1.1C215.6,472.7,215.2,472.3,214.9,471.9z"/>
<path class="st1" d="M528.7,86.2l1,1l-0.4,0.4l-0.9-1.1L528.7,86.2z"/>
<path class="st1" d="M543.6,106.3l-1-1.1L543.6,106.3z"/>
<path class="st1" d="M549.6,116.3l-1-1.1L549.6,116.3z"/>
<path class="st1" d="M218.8,477l1.1,1.1L218.8,477z"/>
<path class="st1" d="M578.6,160.3l-1.1-1.1L578.6,160.3z"/>
<path class="st1" d="M338.7,478.1l1-1.1L338.7,478.1z"/>
<path class="st1" d="M57,383.9c0.6,0,1,0.4,1,1L57,383.9z"/>
<path class="st1" d="M337.7,479.1l1-1L337.7,479.1z"/>
<path class="st1" d="M336.7,480.1l1-1L336.7,480.1z"/>
<path class="st1" d="M570.6,252.1l1.1-1.1L570.6,252.1z"/>
<path class="st1" d="M16.5,208.3l-1.6,1.1L16.5,208.3z"/>
<path class="st1" d="M323.6,481l1-1.1L323.6,481z"/>
<path class="st1" d="M335.7,481.1c0.3-0.3,0.7-0.7,1-1C336.4,480.4,336,480.7,335.7,481.1z"/>
<path class="st4" d="M471.9,480.3l-0.6,0.3l0.3-0.6L471.9,480.3z"/>
<path class="st1" d="M15.1,209.3c0,0.3-0.1,0.6-0.3,0.8c-0.1-0.2-0.1-0.5-0.1-0.7C14.8,209.4,14.9,209.3,15.1,209.3z"/>
<path class="st1" d="M11.6,215.2l-0.7,1.1L11.6,215.2z"/>
<path class="st1" d="M334.7,482.1l1.1-1L334.7,482.1z"/>
<path class="st1" d="M16.9,214.7c0.3,0.5,0.6,1,0.9,1.5C17.5,215.6,17.2,215.1,16.9,214.7z"/>
<path class="st1" d="M306.6,483l1-1.1L306.6,483z"/>
<path class="st1" d="M571.5,251.1c0.1-0.6,0.3-1,1-1.1L571.5,251.1z"/>
<path class="st1" d="M39.9,360l1,1.1L39.9,360z"/>
<path class="st1" d="M321.6,484c0-0.6,0.5-1.1,1-1.1c0,0,0,0,0,0L321.6,484z"/>
<path class="st1" d="M320.6,485l1.1-1.1L320.6,485z"/>
<path class="st1" d="M330.6,485l1.1-0.9L330.6,485z"/>
<path class="st8" d="M18.8,223.1c0.1,0.3,0.1,0.7,0.1,1l-1.1-1.1C18.2,223,18.5,223.1,18.8,223.1z"/>
<path class="st1" d="M304.5,485.9c0-0.6,0.4-1,0.9-1c0,0,0,0,0.1,0L304.5,485.9z"/>
<path class="st1" d="M303.5,487c0-0.6,0.4-1,0.9-1c0,0,0,0,0.1,0C304.2,486.2,303.9,486.6,303.5,487z"/>
<path class="st1" d="M317.6,487l1.1-1L317.6,487z"/>
<path class="st1" d="M546.6,275.1l1.1-1L546.6,275.1z"/>
<path class="st1" d="M60.9,388l1.1,1.1L60.9,388z"/>
<path class="st1" d="M61.8,389l1,1.1L61.8,389z"/>
<path class="st1" d="M574.6,246.1l1-1.1L574.6,246.1z"/>
<path class="st1" d="M57.9,384.9L59,386L57.9,384.9z"/>
<path class="st1" d="M62.8,390l1.1,1.1L62.8,390z"/>
<path class="st1" d="M63.8,391l1.1,1.1L63.8,391z"/>
<path class="st1" d="M64.8,392c0.3,0.4,0.7,0.7,1.1,1.1C65.5,392.7,65.2,392.4,64.8,392z"/>
<path class="st7" d="M421.7,499.2c-0.3,0.4-0.6,0.4-0.9,0C421.1,499.1,421.4,499.1,421.7,499.2z"/>
<path class="st1" d="M65.8,393c0.3,0.4,0.7,0.7,1.1,1.1L65.8,393z"/>
<path class="st1" d="M66.8,394l1.1,1.1L66.8,394z"/>
<path class="st7" d="M209,482c-0.4-0.4-0.7-0.8-1-1.2C208.8,480.8,208.9,481.4,209,482z"/>
<path class="st9" d="M186.6,293.2c-1.3-3.5-2.8-7-3.8-10.6c-2.1-7.2-3.9-14.5-2.1-22c1.4-5.9,5.6-9.2,11.8-9.5
	c6.9-0.4,13.8,0.7,20.3,3.1c-3.7-9.2-7.2-17.4-8.6-26.3c-1.2-8-2.9-16,0.4-24.1c1.1-3.1,3.4-5.8,6.3-7.4c4.9-2.6,10.2-4.2,15.7-4.7
	c10.9-1.3,21.8-1.6,32.7,0.1c6,1,6.1,1.8,4.9,7.7c-3.9,18.8-12.5,36.3-25.1,50.8c-11.1,13.1-19.5,28.1-28.7,42.6
	c-11.9,18.6-26.1,35-47.5,43.1c-17.5,6.6-35.1,6.4-52.5-0.6c-3.6-1.5-5.1-3.2-3.9-7.5c3.5-12.7,8.7-24.4,17.4-34.4
	c7.8-8.9,16.9-10.8,27.3-5.2c5.9,3.2,11.3,7,15.3,12.6c0.8,1.2,1.8,3,3.4,2.5c1.8-0.5,0.8-2.6,0.9-4s0-2.7,0.1-4
	c0.6-6.1,4.5-8,9.8-4.8c1.7,1,3.3,2.1,5,3.2L186.6,293.2z"/>
<path class="st10" d="M293.4,101.3c6.4-0.4,4.9,1.9,3.8,4.1c-6.4,12.5-11.8,25.4-14.8,39.1c-3.2,14.4-11.2,27-14.6,41.3
	c-0.5,2.3-2.4,2.4-4.3,2.4c-6.7,0-17.5-10.8-17.6-17.5c0-3.8,2.5-5.6,5.4-7.1c2.2-1.1,4.7-1.7,7.3-1.5c0.9,0,2.2,0.3,2.6-0.8
	c0.5-1.4-0.8-2-1.7-2.7c-6.2-4.4-10.2-10.4-13.3-17.1c-3.9-8.3-2.1-15.5,4.5-21.6C263.2,108.3,278.6,103.3,293.4,101.3z"/>
<path class="st11" d="M341.1,23.1c7.2,0.4,16.9,5.3,25.8,11.9c3.4,2.5,0.5,3.4-1.4,4.3c-10.1,4.8-20.1,9.7-28.7,16.9
	c-5.2,4.4-10.2,9-15.1,13.7c-2.4,2.3-3.6,2-4.2-1.1c-2.4-12.2-2.8-24.4,2.5-36.1C323.4,25.3,327.8,23,341.1,23.1z"/>
<path class="st11" d="M422.3,4.3c4.9,0.4,9.6,2.4,13.4,5.6c6.3,5.3,10.9,12,14.9,19.1c0.5,1,1.4,2.1,0.7,3.2c-0.8,1.3-2,0.5-3.1,0.3
	c-15.7-3.6-31.9-4.4-47.9-2.5c-1.7,0.2-4,1-5.1-0.7s0.5-3.6,1.5-4.9C402.8,16,409.2,8,419.8,5C420.8,4.7,421.7,4.5,422.3,4.3z"/>
<path class="st5" d="M88.8,292.1c11.8-0.1,20.2,11.6,16.8,22.1c-1.4,4.3-2.7,8.6-3.8,12.9c-0.7,2.7-1.7,3.3-4.1,1.6
	C87,321.5,78.6,312,71.1,301.5c-2.5-3.5,0.4-5.2,3-6.3C79.1,293.2,84.4,292.9,88.8,292.1z"/>
<path class="st12" d="M247.7,247.2c3,1.7,6.7,0.9,9.7,3.2c6.4,4.9,7.5,11.4,6,18.3s-5.7,12.1-12.8,14.1c-6.4,1.8-13.7-2.7-15.6-9.2
	c-0.6-2.2-0.7-4.6-2.2-6.5C237.3,260.2,242.3,253.5,247.7,247.2z"/>
<path class="st11" d="M503.9,58.1c-8.5-7.8-19.1-11.8-29.2-16.8c-1.5-0.7-3.2-0.8-4.4-2.7c6.5-3.8,13.1-7.1,20.5-8.4
	c6-1,10,2.1,12.8,6.8c3.5,6,4.8,12.7,5.3,19.5c0.2,2.5-0.7,3.4-3.1,2.6L503.9,58.1z"/>
<path class="st10" d="M302,72.1c3.3-0.3,7.2,0.4,11.1,1.1c2.9,0.5,4.3,1.5,2,4.6c-3.8,5-7.2,10.3-11,15.4c-2.8,3.7-8,4.4-11.6,1.6
	c-0.7-0.5-1.3-1.2-1.9-1.9c-1.3-1.9-2.5-3.9-3.5-6c-4-8.4-0.1-14.5,9.1-14.8C297.9,72.1,299.5,72.1,302,72.1z"/>
<path class="st0" d="M503.9,58.1l1.9,1c0,1.6,1.4,2.1,2.4,3c2,1.7,1.5,3.1-0.5,4.3l0.1-0.1l-1.1-1l0.1,0.1c-0.3-0.7-1.1-1.2-1.9-1.2
	l-1-0.8l-1.1-1.1l0.1,0.1l-1.1-1l-0.1,0.1C501.7,59.9,501.9,58.3,503.9,58.1z"/>
<path class="st8" d="M44.4,255.4l1,2.9c0.2,0.9,0.3,1.8,0.4,2.6c-2.2-2.2-2.7-5-3-7.9L44.4,255.4z"/>
<path class="st8" d="M53,279.1c-1.2-0.7-1.1-1.8-1.1-2.9L53,279.1z"/>
<path class="st8" d="M48.9,269.1c-1.2-0.7-1.1-1.8-1.1-2.9C48.2,267.1,48.6,268.1,48.9,269.1z"/>
<path class="st8" d="M46.9,264.1c-1.2-0.7-1.1-1.9-1-3C46.3,262.1,46.6,263.1,46.9,264.1z"/>
<path class="st8" d="M50.9,274c-0.8-0.5-1.2-1.4-1-2.3L50.9,274z"/>
<path class="st8" d="M54,281.1c-0.7-0.4-1.1-1.2-1-2.1L54,281.1z"/>
<path class="st8" d="M51.8,276c-0.7-0.4-1.1-1.2-0.9-2C51.2,274.7,51.5,275.4,51.8,276z"/>
<path class="st8" d="M49.8,271c-0.6-0.4-1-1.2-0.9-1.9C49.2,269.7,49.5,270.3,49.8,271z"/>
<path class="st8" d="M47.8,266c-0.7-0.4-1-1.2-0.9-2L47.8,266z"/>
<path class="st8" d="M54.9,283c-0.7-0.4-1.1-1.2-1-2L54.9,283z"/>
<path class="st1" d="M536.7,258.2c-28.5,20.3-59.6,23-92,11.8c-19-6.6-34.1-18.4-42.3-37.6c-0.3-0.8-0.5-1.6-0.7-2.4
	c1.2-2.9,3.1-1.6,5-0.9c28.3,10.6,57.8,14.1,87.8,14.1c16.5,0,33-1.6,48.4-8.1c2.9-1.2,3.6,0,3.7,2.5c0.2,6.4-2.5,11.6-6.4,16.4
	C539.1,255.5,537.9,256.9,536.7,258.2z M410.2,235.5c-0.4-0.2-0.9-0.5-1.2,0.1c0,0.1,0.4,0.4,0.6,0.6c2.9,6.1,7.4,11,12.5,15.3
	c18.1,15.5,39.5,20.6,62.6,19.8c16.6-0.5,32.2-4.8,45.7-14.9c4.9-3.6,9.1-7.8,10.5-14.1c0.1-0.3,0.2-0.7,0.3-1h-1.1
	c-4.4,1.6-8.8,2.9-13.4,3.8C487.1,252.2,448.4,247.5,410.2,235.5z"/>
<path class="st0" d="M387.9,160.3c1.1-5.1,6.9-9,13.1-8.9c8.8,0.2,15.9,7.9,16.7,18.1s-5,18.6-13.9,20.2s-17.6-6.3-18.8-17.1
	c-0.4-3.5-1.3-7.3,1.9-10.3l0,0c-0.1,3.2,1.2,5.2,4.6,4.9c1.8,0,3.2-1.5,3.1-3.2c0-0.2,0-0.3,0-0.5c-0.5-3.2-3-3.5-5.6-3.1
	C388.6,160.3,388.2,160.3,387.9,160.3L387.9,160.3z"/>
<path class="st13" d="M369.8,313.6c11.4,10.6,20.9,22.7,27.3,37c1.9,3.9,3,8.1,3.5,12.4c0.8,9.8-3.1,15.5-12.5,18.2
	c-11,3.2-22,2-33.1,0.5l-8.4-1.1c-7.1-2.2-14.3-4.3-21.4-6.7c-2.2-0.8-6.3-1.2-5-4.8s4.4-0.8,6.4,0c15,5.7,30.8,8.8,46.9,9
	c6.1,0.1,12-1.2,17.5-3.9c3-1.5,3.3-3.1,0.4-5c-0.6-0.3-1.1-0.7-1.6-1.1c-1.2-1-3.3-1.7-2.8-3.7c0.4-1.6,2.3-1.9,3.7-2
	c4.1-0.4,4.4-2.5,3.1-5.8c-5.4-13.9-14-25.6-24.1-36.4C367.5,318,364.6,315.6,369.8,313.6z"/>
<path class="st14" d="M340,197.5c7.6,0.1,14.4,7,14.3,14.4c-0.1,7.2-7,14.1-14.1,14.1c-7.7-0.1-13.9-6.2-14.1-13.9
	C326,204.4,332.7,197.4,340,197.5z"/>
<path class="st12" d="M264.8,432.8c0.1-4.1,2.8-6.7,7-6.7c3.6,0,7.1,3.5,7,6.9c-0.2,3.6-3.7,7.1-7.1,7
	C267.9,439.7,265,436.6,264.8,432.8z"/>
<path class="st1" d="M537.8,168.1c-3.8-0.1-6.9-3.1-7-6.9c0.1-3.3,3.4-6.6,6.8-6.7c3.6,0.1,6.6,2.9,7,6.5
	C544.6,164.7,541.6,167.9,537.8,168.1z"/>
<path class="st12" d="M419.7,78.6c-0.1-4,2-5.4,5.9-5.5c4.3-0.1,6,2,6.1,5.9c0.2,3.2-2.1,5.9-5.3,6.2c-0.3,0-0.6,0-0.9,0
	C421.9,85.1,419.7,82.6,419.7,78.6z"/>
<path class="st12" d="M268.7,298.5c-0.2,3.8-2.2,6.3-6.1,6.5s-5.6-2.8-5.7-6.1c-0.1-3.8,2.3-5.5,6.1-5.8
	C266.9,292.9,268.3,295,268.7,298.5z"/>
<path class="st12" d="M350.3,342.1c-3.2-0.1-4.4-2.3-4.4-5.2c0-2.5,1.9-3.8,4.3-3.8c3,0.1,5.1,1.9,5.3,4.8
	C355.7,341.1,353.4,342.2,350.3,342.1z"/>
<path class="st1" d="M341.9,406.2c0,0.6,0.1,1.1,0.1,1.7l-0.3,0.3c-2.1-0.2-3.1,0.7-2.9,2.9l-0.2,0.2l-3.9-6.2
	c-0.9-1.4-1-2.8,0.5-3.8s2.8-0.1,3.7,1.1S340.9,404.9,341.9,406.2z"/>
<path class="st12" d="M427.7,64.5c0,1.5-0.5,2.5-2.2,2.6c-1.5,0.1-2.6-0.4-2.6-2.1c-0.1-1.4,0.9-2.6,2.3-2.7c0,0,0,0,0,0
	C426.8,62.1,427.6,62.9,427.7,64.5z"/>
<path class="st8" d="M37.4,237.4l0.8,2.1l1.2,2.9c0.2,0.9,0.3,1.8,0.5,2.6c-2.3-2.9-3.7-6.4-4-10L37.4,237.4z"/>
<path class="st8" d="M41.3,247.5c0.4,1,0.7,1.9,1.1,2.9c0.2,0.9,0.3,1.8,0.5,2.6c-2.2-2.1-3.3-5-3-8L41.3,247.5z"/>
<path class="st8" d="M528.4,86.5l0.9,1.1c0.2,0.5,0.5,1,0.7,1.5c-1.8-0.4-3.1-1.9-3.3-3.8l0.8,0.2C527.8,85.8,528.1,86.1,528.4,86.5
	z"/>
<path class="st8" d="M34.5,230.4l0.8,2.1c0.2,0.9,0.4,1.7,0.6,2.6c-1.7-1.2-2.1-3-2-4.9C34.1,230.2,34.3,230.3,34.5,230.4z"/>
<path class="st8" d="M516.6,74.3c0.1,0.3,0.1,0.6,0.2,0.8c-1,0.1-2-0.7-2.1-1.7c0-0.1,0-0.2,0-0.3c0.3,0.1,0.6,0.1,0.8,0.2
	L516.6,74.3z"/>
<path class="st5" d="M585.9,193.2c0.8,0.7,0.9,1.8,0.2,2.6c0,0.1-0.1,0.1-0.1,0.2C586,195.1,586,194.2,585.9,193.2z"/>
<path class="st8" d="M33.6,228.3c0.1,0.6,0.2,1.2,0.2,1.7c-0.7-0.4-1-1.2-0.9-2C33.1,228.1,33.4,228.2,33.6,228.3z"/>
<path class="st0" d="M386.8,162.2c0-0.8-0.4-1.9,1-1.9l0,0C387.6,161,387.7,161.9,386.8,162.2L386.8,162.2z"/>
<path class="st5" d="M586,207.2c0.5,0.3,0.6,0.9,0.3,1.4c-0.1,0.2-0.3,0.3-0.4,0.4L586,207.2z"/>
<path class="st1" d="M504.7,64.2c0.8,0,1.6,0.4,1.9,1.2L504.7,64.2z"/>
<path class="st1" d="M502.6,62.2l1.1,1.1L502.6,62.2z"/>
<path class="st1" d="M506.6,65.3l1.1,1L506.6,65.3z"/>
<path class="st8" d="M525.5,83.3c0,0.3,0.1,0.5,0.1,0.8l-1-1L525.5,83.3z"/>
<path class="st1" d="M501.5,61.3l1.1,1L501.5,61.3z"/>
<path class="st8" d="M460.4,304c0.4,8.1,0.9,16.1-0.6,24.2c-25.6,0.7-48.8-6-69.1-22.1c-2-1.6-4.4-3-4.9-6l0,0
	C410.5,304.3,435.4,304.8,460.4,304z"/>
<path class="st8" d="M385.7,300.1l-0.3-0.2L385.7,300.1L385.7,300.1z"/>
<path class="st10" d="M449.3,452.1c-3-0.4-4.5-1.8-4.5-4.6c0.1-2.5,1.4-4.3,4-4.2c3,0.1,4.4,2.5,4.6,5.1S451.4,451.9,449.3,452.1z"
	/>
<path class="st0" d="M338.8,411c-0.2-2.1,0.7-3.1,2.9-2.9C341.9,410.3,340.9,411.3,338.8,411z"/>
<path class="st0" d="M344.7,418.6c0.2,0.2,0.4,0.4,0.5,0.6c-0.2,0.1-0.5,0.3-0.7,0.4c0,0-0.3-0.3-0.3-0.3
	C344.3,419,344.5,418.8,344.7,418.6z"/>
<path class="st15" d="M541,242.4c-1.3,6.3-5.6,10.5-10.5,14.1c-13.6,10.1-29.1,14.3-45.7,14.9c-23.2,0.7-44.6-4.4-62.6-19.8
	c-5.1-4.4-9.6-9.2-12.5-15.3c0.2-0.2,0.4-0.5,0.6-0.7c38.1,12,76.9,16.7,116.6,9.7c4.6-0.9,9.1-2.1,13.4-3.8
	C540.5,241.7,540.8,242.1,541,242.4z"/>
<path class="st15" d="M409.7,236.2c-0.2-0.2-0.7-0.5-0.6-0.6c0.3-0.6,0.8-0.4,1.2-0.1C410.1,235.7,409.9,236,409.7,236.2z"/>
<path class="st15" d="M540.2,241.4h1.1c-0.1,0.4-0.2,0.7-0.3,1C540.8,242.1,540.5,241.7,540.2,241.4z"/>
<path class="st15" d="M386.8,162.2c0.9-0.3,0.9-1.2,1.1-1.9c0.3,0,0.7,0,1-0.1c2.7-0.4,5.2-0.1,5.6,3.1c0.3,1.7-0.8,3.4-2.6,3.7
	c-0.2,0-0.3,0-0.5,0C388,167.4,386.7,165.4,386.8,162.2z"/>
</svg>
