<svg xmlns="http://www.w3.org/2000/svg" viewBox="0 0 598.62 512.1"><defs><style>.cls-1{fill:#433842;}.cls-2{fill:#d2cfc2;}.cls-3{fill:#423940;}.cls-4{fill:#94ce46;}.cls-5{fill:#ecf77f;}.cls-6{fill:#6d9b46;}.cls-7{fill:#3c6144;}.cls-8{fill:#e2ebce;}.cls-9{fill:#b2bf7b;}.cls-10{fill:#447e45;}.cls-11{fill:#467e44;}.cls-12{fill:#467d45;}.cls-13{fill:#70af3f;}.cls-14{fill:#433839;}.cls-15{fill:#f5d6ce;}.cls-16{fill:#fafafa;}</style></defs><g id="Layer_2" data-name="Layer 2"><g id="Layer_1-2" data-name="Layer 1"><path class="cls-1" d="M7.37,305.26l-.51-2.14c1.48-3.16.8-5.8-1.87-8-.18-1-.36-1.91-.53-2.86C6,291.2,5.54,290.55,4,290.14l-.13-1c.29-.59.87-1.2.81-1.74-.8-7.23-2.1-14.4-2.06-21.71,0-.91-.89-1.31-1.74-1.53,0-1-.08-2-.13-3,1.58-5.4,2.06-10.78-.31-16.1l.39-6.91c3.38-2.13,2.4-4.58.53-7.09l.22-.19c0-.67.07-1.34.11-2l.27-1.7c2.22-.74,2.27-1.77.43-3.07.16-.65.33-1.29.49-1.93,2.55-.8,2.3-2.26.94-4,.14-.7.29-1.41.43-2.11,2.34-1.43,2.43-3.74,2.37-6.1l-.09.11a1.77,1.77,0,0,0,1.09-2.11l-.07.11a1.92,1.92,0,0,0,1.22-2,5.7,5.7,0,0,1,2.78-3c1,0,1.79-.23,2-1.35l-.05.09c2.49.24,5.05,1.17,7.33-.71a4.13,4.13,0,0,1,3,1.38,1.9,1.9,0,0,0,2.06,1.67,9.67,9.67,0,0,1,3.91,4.1c0,1.48.23,2.82,2.17,2.83l0-.06a6.1,6.1,0,0,0,2.82,5.15,94.23,94.23,0,0,0,9.08,18c1.9,8.53,3.29,17.29,11,23l-2.05.95-1,1,0,0a5,5,0,0,1-5.93-1c0-1.1,0-2.22-1-3,0-1.94.18-3.95-2-5,0-1.1,0-2.22-1-3,0-1.94.18-3.95-2-5,0-1.1,0-2.23-1-3-.33-.67-.67-1.33-1-2a6.12,6.12,0,0,0-2-5c-.33-.66-.66-1.32-1-2l-1-2a2.46,2.46,0,0,0-1.14-2.06v-.38a4.77,4.77,0,0,0-2-4.51l.05.06a2,2,0,0,0-1-2.07l.05.07a2,2,0,0,0-1.05-2.06l0,.07a1.79,1.79,0,0,0-1.31-2c-3.67.95-2.5,4.54-3.72,6.83l.07,0-1.37,1.24-3.56-.14c-.32-.06-.64-.11-1-.14l.12.06a4.76,4.76,0,0,0-2.08-3l.07,0-1.18-2.84a2.16,2.16,0,0,0-1.07-2.06c-.69-.34-1.38-1.19-2.06,0l-.72,1.11.12,0c-1.07.41-1.21,1-.39,1.84l-.06,2v-.17a2,2,0,0,0-.74.28A1.88,1.88,0,0,0,9,222.29l.27.29c-1.24.26-1.32,1.24-1.52,2.25-2.33,11.63-2.25,23.25-1.13,35.07a245.28,245.28,0,0,0,15.72,66.47c.83,2.12,1.05,4.62,3.53,5.72l0,0c-.12,2.85.14,5.53,3.1,7L28.9,339a2,2,0,0,0,1,2.08l-.05-.07a2.13,2.13,0,0,0,1,2.08l0-.07a2.09,2.09,0,0,0,1.05,2.06l-.05-.07a2.09,2.09,0,0,0,1.06,2.07l0-.07A2,2,0,0,0,34,349.08l0-.08c.11,3,.62,5.84,3.94,7.09l0,0a2.08,2.08,0,0,0,1.11,2l0-.08A1.86,1.86,0,0,0,40,360l-.11-.07,1,1.12,0,0c-.08,1.5,0,2.88,2,3.06v0c0,1.75.1,3.38,2.23,3.87l0-.05a2.31,2.31,0,0,0,2,3l0-.05c-.26,1.45.44,2.1,1.82,2.17l0,0A1.86,1.86,0,0,0,50,375l0-.11c-.21,1.44.48,2.1,1.87,2.15l0,0A1.78,1.78,0,0,0,53,379l-.09,0L54,380l-.09-.05,1,1.1-.08-.07,1,1.1,0,0A1.77,1.77,0,0,0,57,384l-.08,0,1,1-.06,0L59,386l0-.11c-.15,1.46.54,2.12,2,2.09h-.12l1.07,1.09-.08-.07,1,1.09-.07-.07,1.06,1.07-.06-.07,1.06,1.07-.06-.06c.35.35.7.71,1.06,1.06l-.06-.06,1.06,1.06-.06-.06,1.06,1.06-.06-.07,1.07,1.07-.07-.07,1.07,1.07-.07-.07,1.08,1.06-.08-.07,1.1,1.05,0-.11c0,1.42.65,2.11,2.1,2l-.12,0,1,1.12-.07-.08L76,403v-.1a1.82,1.82,0,0,0,1.91,1.21l0,0,1.09,1,0-.09c0,2.64,1.73,3.18,3.91,3.13l1.06.82c.06,1.4.69,2.14,2.18,1.92l-.12,0a1.86,1.86,0,0,0,2,1.16l0,0c.08,1.37.72,2.08,2.17,1.82l-.1.05a1.77,1.77,0,0,0,2,1.12V415c0,2.1,1.45,2.18,3,2.06l-.06,0,1.1,1,0-.1a1.86,1.86,0,0,0,2,1.12v0c.31,2.5,2,3,4.13,2.82l-.06.06c.31,1,1.07,1.18,2,1v0c1.09,2.74,3.4,3.17,6,3.14l-.07,0a2.07,2.07,0,0,0,2.05,1.06l0,0c2.09,4.17,6,4.82,10,5l0-.05c0,1.63,1.16,2.28,2.44,2.79,7.85,3.14,15.59,6.55,23.73,9,17.64,5.23,35.19,10.83,53.54,13.1,1.88.23,4,1.15,5.24-1.37l.18-.37c.08-.09.25-.18.25-.26a3.14,3.14,0,0,0-.15-.66c.07-.7.13-1.4.19-2.1a9.24,9.24,0,0,0,1.81-8.86,2,2,0,0,1,.84-2.06c3.45,2.16,1.56,5.24,1.31,8-.72,8-1.32,15.86,3.77,22.84l-.11-.06,1,1.13,0-.07c-.17,2.25.33,4,3.06,4l-.09,0,1.07,1.07,0-.1c0,1.4.66,2.1,2.11,1.91l-.07,0c2.89,5.13,8.46,5.63,13.19,7,18.22,5.19,37,5.75,55.74,5,3.57-.14,8.62,1.17,10.87-3.85l0,0a1.8,1.8,0,0,0,1.92-1.19l-.05.09,1-1.06,0,.05,1-1.05-.08.07a1.8,1.8,0,0,0,1.16-2l0,.06,1-1.11-.12.06a1.78,1.78,0,0,0,1.09-2l-.08,0,2.35.11c.15.73.31,1.46.46,2.19-.29,2.31-3.58,4.7.18,6.91l.22,0c.79.85,1.44.8,1.9-.32l0,.09a1.88,1.88,0,0,0,2.1-1l-.08.06a1.91,1.91,0,0,0,2.06-1.1l-.08.12,1.12-1,0,0a1.91,1.91,0,0,0,1.94-1.19l-.08.1,1.07-1.06-.07.06,1.05-1.07-.1.06a1.75,1.75,0,0,0,1.14-2l0,.07,1-1.13-.16-.14c1.86.56,2.61,1.77,2,3.66-.43,1.33-.67,2.63.9,3.26s2.72-.24,3.3-1.8l-.05.12,1.13-.91h0c1.48,0,2.86-.14,2.93-2.1l0,.06,1.06-1,0,0c.34-.34.68-.68,1-1h0l1-1,0,0,1-1.05,0,0,1-1.08-.09.06a2,2,0,0,0,1.14-2h0c2.86-.61,3.13-3.22,3.93-5.29A60.23,60.23,0,0,0,348,437.1c-.22-1.26-.74-3,.87-3.48,2.05-.64,2.43,1.36,2.73,2.71,1.09,5,2.29,10,2.22,15.2,0,1.68-.75,3.83,1.8,4.57.71,1.6-.72,3.7,1.17,5,1.2,1.27,2.79,1.15,4.22.87,12.75-2.48,25.19-5.95,36.82-11.93,1.31-.67,2.84-1.17,2.89-3.05l0,0a2,2,0,0,0,2-1.13l-.1.06c1.81.09,3.64.2,3.75-2.39v.11l1.29-.84-.09.07c1,.06,1.77-.15,1.85-1.34l-.05.12,1.28-.87-.09.07c1,.06,1.78-.12,1.75-1.36l.19.17-.14-.21c1.56.62,2.22-.07,2.29-1.59l-.07.09,1.16-1,0,0c.92-.05,1.68-.31,1.69-1.44l0,.09a1,1,0,0,0,1.16-1l-.08,0c1.52.31,2.22-.35,2.19-1.87l-.08.1,1.17-1.05-.1.1,1.12-1.06-.08.08,1.08-1.08-.08.09,1.08-1.11.89-.9c.37-.37.73-.75,1.09-1.12l-.11.1,1.06-1.17-.11.07c2.2,0,3.34-.86,2.76-3.22l.27.05h-.27c1.12-.06,1.37-.82,1.4-1.76l0,.07,1-1.2-.12.12,1-1.24-.14.12c1.06-.18,1.31-.93,1.34-1.86l0,0c1.46-.14,2.1-.85,1.62-2.34l.26.13-.29-.07c1.19-.11,1.39-.9,1.31-1.89l-.08.12a1.84,1.84,0,0,0,1.23-2l0,0c2-.2,2.1-1.6,1.91-3.15l-.06.09.8-1.31h-.09c4.25-2.34,5.28-6.3,5.39-10.73l-.06.08c3.6-2.09,3.89-6.08,5-9.39,7.64-23,10.48-46.8,10.2-71-.12-11,0-10.72,10.84-12.71,5.05-.93,10.54-.93,15-4.26l-.06.16c3,.47,5.88.51,8-2.17l-.06.15c6.9-.32,13.42-1.85,19.1-6.05l-.11.1a1.83,1.83,0,0,0,2.21-.89l-.09.05c2.07.14,4.16.32,5.17-2.11H522c2.78.27,5.25-.14,6.6-3l-.1.07a1.86,1.86,0,0,0,2.11-1.08l-.11.07a1.78,1.78,0,0,0,2.08-1.12l-.12.07c1.59.23,3,.2,3.12-1.95l-.05,0a2.24,2.24,0,0,0,2.15-.9h0a2.2,2.2,0,0,0,2-1.08l-.06,0c1.47.08,2.83,0,3.1-1.9l0,0a2.21,2.21,0,0,0,1.92-1.11l0,0a2,2,0,0,0,2-1.12l-.06.1,1.1-1,0,0a1.88,1.88,0,0,0,2-1.14h-.11c1.4.18,2.08-.5,2.19-1.85l1.15-.9a2,2,0,0,0,1.82-1.2l-.08.11,1.09-1.05-.06.07,1.08-1.05,1-.92a1.86,1.86,0,0,0,1.88-1.22l-.05.09,1.05-1.05,0,.07,1.05-1.06-.06.06c.36-.35.71-.71,1.06-1.06l-.06.06c.36-.35.71-.71,1.06-1.06l-.06.06,1.05-1.06-.09.05a1.86,1.86,0,0,0,1.23-1.86l.9-1,1-1.09-.09,0c2,0,2.13-1.38,2.15-2.86l.85-1.08,1.06-1.1-.09.05,1-1.09h-.11c2.15-.51,2.28-2.14,2.19-3.91l0,.05,1-1.12-.12,0a1.74,1.74,0,0,0,1.07-2l0,.07a1.81,1.81,0,0,0,1-2.07l-.06.07a1.79,1.79,0,0,0,1-2.07l-.06.07a1.75,1.75,0,0,0,1-2.08l0,.07c1.34-.65,1.7-1.95,2.17-3.2,7.26-19.15,8.06-38.69,3.24-58.49-1.3-5.35-1.68-11.18-6.38-15.13l.13,0-1.07-1.1-.91-.93c-1.77-3.79-4.06-4.33-6.95-1.11a.4.4,0,0,1-.51.15c-1.43-.09-2.36.42-2.41,2l.05-.05c-1.66.15-3,.5-3.22-2.19-.94-12.49-4.9-24.13-10.48-35.27-1-2-.93-4.68-3.71-5.44l.14,0-1-1.11,0,.06c0-2.54-.33-4.9-3.17-5.92l0,0a2.32,2.32,0,0,0-1.92-3.08h.13l-1-1.11,0,.05c.12-1.77,0-3.43-2.19-3.89l0,0c.3-1.47-.41-2.1-1.79-2.19l0,0c.17-2.21-.38-3.89-3-4.06l0,0c.1-2.2-.43-3.91-3.08-4l0,0a1.74,1.74,0,0,0-1.17-1.93l0,.13a2.52,2.52,0,0,0-1.73-2.31l-1-1-1-1-1.17-.93.08.08-.91-1.15-1.21-.91a4.91,4.91,0,0,1-.76-.17l0,0c-.06-.27-.12-.54-.16-.81l-1-1.06-.83-.19.06.07-1.07-1.06.07.07-1.07-1.07.07.07c-.35-.36-.71-.71-1.07-1.07l.07.07-1.07-1.07.09.06c-.06-.28-.12-.55-.19-.83-.3-.38-.6-.76-.91-1.13l-1-1-1.2-.92.11,0-1.08-1,.07.08-1.09-1.06.05.08-1.07-1,0,0-1.05-1-.32.23c1.92-4.5,5.35-1.18,8.07-1.55a8.61,8.61,0,0,1,3.51,3,21,21,0,0,0,11.16,11.1,7.25,7.25,0,0,1,2.78,3c0,2.84,1.07,4.72,4.15,4.93l0,0c-.25,2.93.95,4.73,4,5.11l0,0c-.16,2.2.39,3.89,3,4l0,0c-.06,1.51.06,2.91,2.06,3l0,0c-.09,1.52,0,2.93,2,3l0,0c-.11,1.51,0,2.9,2,3.09v0c.3,2.95.66,5.86,4.09,7l0,0a11.57,11.57,0,0,0,.61,3.34,194.33,194.33,0,0,1,11.05,27.45c.39,1.16.82,2.17,2.2,2.33l0,0c.23,1.08.79,1.89,2,1.89,6.32,0,10.27,4,12.7,8.84,3.35,6.72,6.5,13.66,8.24,21.06.38,1.62.3,3.31,2.09,4.16l.12,2.75c-.08,1.18-.2,2.37.88,3.24.14,2-.12,4.15,1.05,6-1.81,7-1.2,14-.82,21.08l-.24,3.93c-.91.7-.85,1.37.08,2l-1,3c-1.08.83-1,2-.93,3.18a2.21,2.21,0,0,1-.06.81c-1.08.83-1,2-.94,3.18a2.18,2.18,0,0,1-.1.84c-1.32,2.14-4,3.92-1.94,7-7.78,21.31-22.9,36.39-41.51,48.31-19.75,12.65-41.74,19.64-64.46,24.61-3.4.74-6.85,1.27-10.31,1.9-.23,1.85,1.4,2.16,2.26,2.92,13.27,11.84,25.08,24.84,32.7,41.16,2.77,5.93,4.78,12.06,4.6,18.74-.26,10-4.18,15.27-13.71,18.47a44.85,44.85,0,0,1-11.24,2.13c-3.76.26-7.51.48-11.72.74,21.88,23.54,28.76,49.81,16.1,79.91-5.06,8.14-12.5,13.25-21.26,16.67-1.68,0-3.35-.09-4.6,1.33a1.93,1.93,0,0,0-.92.19c-1.74-.23-3.53-.82-5,.75l-3.93.07c-1.4.13-3-.61-4.07.93l-6,.25a46.38,46.38,0,0,0-10.92-.11l-10,0-4.06-.16-2,.3a1.27,1.27,0,0,0-.9,0l-4-.26a13.14,13.14,0,0,0-8.53-1.26c-1.38-1.43-3.33-1.24-5-1.72-9-2.51-19-5.36-22.39-14.29-4.24-11-11.17-10.2-19.67-8.34a2.07,2.07,0,0,1-.49.07c-3.56,0-5.48,1.62-6.87,5-4.71,11.58-13.43,18.72-25.54,21.77-6.81,1.71-13.77,2.3-20.73,2.88a325,325,0,0,1-60.8-1l-3.92-.72-2.08-.27A86.51,86.51,0,0,1,220.82,494l0,0-3-2.05-1.13-.89-4.48-4.4,0,.18c-.43-.65-.87-1.29-1.31-1.94l.08.06-2.06-3.07.09.11c-.12-.6-.22-1.21-1-1.22l.1-.05c-1.06-3.3-2.28-6.57-3.12-9.93-.72-2.87-3.09-2.2-4.82-2.45A297.56,297.56,0,0,1,130.84,450c-26.36-10.56-50.15-25.2-70.12-45.64-.33-.4-.67-.79-1-1.18-5.85-6-11.53-12.2-16-19.34l-1.23-1.57-1.77-2.58-1-1.48.05.08a1.81,1.81,0,0,0-1.39-2,60,60,0,0,1-6.64-10.78c.17-2,0-3.78-2.48-4.18l-1.48-2.94a2,2,0,0,0-1.13-2.15,17,17,0,0,1-2.85-5.88,2.33,2.33,0,0,0-1-2.22l-.09-.29c.13-1.57.46-3.22-1.73-3.68a.45.45,0,0,1-.21-.59,2.23,2.23,0,0,0-1.06-2.35,2.91,2.91,0,0,1-1-2.38,2.33,2.33,0,0,0-1.11-2.59c-.29-.81-.58-1.63-.86-2.45a2.43,2.43,0,0,0-1.06-2.57l-.8-2.07c.09-.12.28-.33.26-.35a5.88,5.88,0,0,0-.59-.53l-.71-2.12c.1-.12.29-.33.27-.35a6.18,6.18,0,0,0-.61-.52l-.75-2.51a2.74,2.74,0,0,0-.94-2.64l-1.07-2.91c1.46-1.2.71-1.73-.63-2.07l-.42-2c.75-.68.24-.79-.39-.85-.44-1.73-.89-3.46-1.33-5.2C8.78,306.2,8.52,305.61,7.37,305.26Zm7.69-95.95a1.89,1.89,0,0,0-.42.12,5.54,5.54,0,0,0,.12.71l2.15,4.52.88,1.47,0,0a2,2,0,0,0,1.27,1.89c3.42-2,4-5.53,1.62-9.39-1.15-2.11-2.5-1.81-4-.35l-.27,0-1.6,1.11Zm456.83,271c4.93-1.57,8.2-5.19,10.51-9.46,11.11-20.55,10.67-56.6-22.33-73.6-5.75-3-5.6-3-8.21,2.77A111.83,111.83,0,0,1,432,430.37c-12.95,13.92-28.13,24.4-46.08,30.72-3,1.05-3.25,2.5-2.38,5.26,2,6.43,6.61,10.2,12.49,12.76,12.68,5.51,26.12,5.79,39.65,6.22,8.94.29,16.6-.51,20-10.33,0-.07.32-.05.57-.09,2.5,2.34.6,5.72,1.93,8.65,6.1-1.86,9.09-6.84,12.07-12,1.39,3.13,1.39,3.13,1.26,8.33l-.27.65ZM467.77,320.1c-1.62,20.69-3.44,40.35-9.34,59.34-1,3.17,1.42,3.22,3.26,3.66a80.85,80.85,0,0,0,34.58.87c5.76-1.09,5.84-1.57,2.42-6.37-.74-1-2.3-1.93-1.52-3.38s2.37-.43,3.6-.3c5.08.53,5.62-.08,4.42-5a59.36,59.36,0,0,0-8.13-18.11A103.89,103.89,0,0,0,467.77,320.1Z"/><path class="cls-2" d="M216.69,491.1l1.13.89c.1,2,1.54,2.08,3,2.05l0,0c3,5.13,8.79,5,13.49,6.87,1.84.71,4.23,2.41,6.43.24l2.08.27c.91,2.4,2.33,2,3.92.72a325,325,0,0,0,60.8,1c7-.58,13.92-1.17,20.73-2.88,12.11-3.05,20.83-10.19,25.54-21.77,1.39-3.41,3.31-5.07,6.87-5a2.07,2.07,0,0,0,.49-.07c8.5-1.86,15.43-2.69,19.67,8.34,3.43,8.93,13.42,11.78,22.39,14.29,1.7.48,3.65.29,5,1.72a9.89,9.89,0,0,0,8.53,1.26l4,.26q.45.66.9,0l2-.3c1.3,1.5,2.65,1.53,4.06.16l10,0a14.07,14.07,0,0,0,10.92.11l6-.25c1.86,1.91,3,.75,4.07-.93l3.93-.07c2,1.71,3.4-.05,5-.75a1.93,1.93,0,0,1,.92-.19c1.68.09,3.36.15,4.6-1.33,8.76-3.42,16.2-8.53,21.26-16.67,29.26.35,58.28,2.89,86.94,9a18.07,18.07,0,0,1,3.35.94c2,.9,5.38.84,5.27,3.58-.1,2.43-3.2,3.26-5.35,3.92a156.19,156.19,0,0,1-29.78,5.56c-17.3,1.79-34.62,3.38-51.94,4.91-6.11.55-12.25.4-18.4.94-10.9,1-21.92.56-32.86,1.26-28.39,1.8-56.84,1.26-85.24,2.22-21,.71-41.94,1-62.86.43-15.13-.39-30.3.19-45.37-.95-11.16-.84-22.27-.29-33.39-.8-20.22-.94-40.47-1.62-60.65-3.13-21.79-1.62-43.6-3.42-65.2-7a68.63,68.63,0,0,1-16.79-4.56c-1.36-.61-3.1-.8-3.16-2.69-.07-2.11,1.75-2.73,3.29-3.25,7.9-2.64,16.11-4,24.3-5.29A480.92,480.92,0,0,1,158,479c12.91-.61,25.79-1.8,38.67-2.91,4.72-.41,8.78.17,11.35,4.68l-.09.05c.34.41.68.82,1,1.22l-.09-.11c-.1,1.55-.09,3,2.06,3.07l-.08-.06c0,.94.2,1.75,1.31,1.94l0-.17C211.84,490.07,213.89,491,216.69,491.1Z"/><path class="cls-3" d="M45.82,258.11a5,5,0,0,0,5.93,1c2.7,10.66,7.45,20.51,12.06,30.41,1.71,3.67,4,2.88,5.79-.09,3.81-6.16,5.81-13,7-20.06.91-5.24-1.9-9.27-7-11.19-4.85-1.81-9.86-.8-14.8-1-7.72-5.73-9.11-14.49-11-23,1.57-2.41,1.89-5.2,2.47-7.93,2-9.34-2.28-13.07-11.55-10.09A6.1,6.1,0,0,1,31.9,211c2.57,1.39,5.21-.05,7.83.14,7.05.52,11,4.47,11.1,11.53a26.24,26.24,0,0,1-2.71,12.58c-3.49,6.77,2,11.59,3.27,17.31.33,1.51,2.39.67,3.61.47a39.52,39.52,0,0,1,13.42.17c7.71,1.42,12.12,6.76,12.44,14.6s-2.49,14.94-5.53,22.07c25.52-2.48,27.91-1.49,34.87,14.58,6.36-10,12.62-20.16,24.76-23.26,12.73-3.25,21.75,4.62,31.07,12.16,1.67-4.94,4.39-8.53,9.83-9.3,2.25-.32.76-2.15.56-3.17-1.21-6.08-1.87-12.15-.94-18.35,1.51-10.09,7-15.41,17.17-16.17,3.46-.26,6.95,0,10.89,0-2.34-7.47-4.53-14.87-5.27-22.59a69.19,69.19,0,0,1,0-13.95c1.16-10.94,7.38-17.43,17.61-20.59a64.69,64.69,0,0,1,15.69-2.83c5.29-.29,10.61-.07,17-.07-2-2.88-3.42-4.78-4.67-6.79-4.21-6.71-3.88-12,1.38-17.65,1.4-1.51,1.64-2.07.18-3.84-9.89-11.91-8.23-32.9,3.33-43,9.88-8.64,21.66-13.54,34.21-16.79L287.57,97c-2.08-3.71-4.55-6.88-5.77-10.73-2.94-9.2.7-15.88,10-18.16a36.12,36.12,0,0,1,16.35-.22c3.27.71,4.61.63,4.07-3.63-1.2-9.43-1.19-18.94,1.49-28.24,4.1-14.2,14-20.32,28.46-17.42a65.37,65.37,0,0,1,28.3,13.05c2.48,2,4.6,2.07,7.66,1.58,6.76-1.09,10.93-4.47,14.21-10.51A51.35,51.35,0,0,1,410.17,4.19c9-5.75,17.9-5.61,26.58.59,9.37,6.68,15.38,16,20.05,26.29,2.48,5.45,6.77,6.72,11.85,3.43C474.7,30.58,481,27.29,488.22,26c9.47-1.67,15.64,1.38,20.11,10,3.84,7.37,5.51,15.36,6,23.54a9.12,9.12,0,0,0,3.9,7.49c-2.72.37-6.15-3-8.06,1.55l-2.64-2.18c2-1.2,2.47-2.59.52-4.27-1-.84-2.33-1.38-2.37-3,2.41.79,3.29,0,3.09-2.58-.52-6.86-1.81-13.56-5.27-19.52-2.72-4.7-6.78-7.83-12.75-6.8-7.43,1.29-14,4.6-20.54,8.36,1.15,1.93,2.94,2,4.39,2.72,10.07,5,20.72,9,29.21,16.77-2,.23-2.14,1.84-2.46,3.32-14.66-9.66-30-18-47.15-22.33-49.06-12.37-92.6-2.58-128.54,34-19.21,19.55-30.47,43.85-38.14,70-1.69,5.73-2.19,11.83-4.89,17.25a173.1,173.1,0,0,0-13.91,41.06c-3.63,16.86-9.74,32.51-21,45.82a185.79,185.79,0,0,0-14.88,20c-4,6.12-8.09,12.21-12,18.37-8.25,12.91-16.3,26-27.6,36.57-18.16,17-39.27,25.86-64.52,23.05C105.8,342.6,88.41,330.56,74,313.35,66.31,304.1,60.45,293.67,54.94,283l-1-2,0,0-1-2.06,0,.07-1.08-2.94,0-.1-.94-2h0l-1-2.34a.74.74,0,0,0-.2-.73c-.29-.64-.59-1.29-.88-1.94l0,0c-.35-1-.71-1.95-1.06-2.93l0-.11-.93-2,0,.06c-.34-1-.68-2-1-3l0-.07c-.14-.88-.29-1.76-.44-2.64Zm140.73,35.13-.94.6c-1.66-1.07-3.28-2.19-5-3.19-5.32-3.16-9.18-1.26-9.82,4.84-.14,1.32.06,2.67-.09,4s.93,3.41-.91,3.95c-1.56.47-2.58-1.32-3.4-2.49-3.94-5.61-9.38-9.42-15.26-12.58-10.39-5.58-19.5-3.68-27.26,5.19-8.74,10-13.93,21.68-17.42,34.37-1.2,4.34.28,6.07,3.9,7.53,17.43,7,35,7.26,52.48.61,21.41-8.15,35.6-24.49,47.52-43.14,9.21-14.43,17.58-29.48,28.72-42.55a111.45,111.45,0,0,0,25.11-50.81c1.2-5.86,1.08-6.71-4.93-7.69-10.85-1.78-21.8-1.4-32.68-.13a42.07,42.07,0,0,0-15.67,4.73,13.8,13.8,0,0,0-6.33,7.36c-3.28,8-1.65,16.07-.4,24.08,1.38,8.85,4.89,17.08,8.58,26.3a50.66,50.66,0,0,0-20.33-3.11c-6.19.31-10.37,3.57-11.78,9.5-1.78,7.56,0,14.83,2.09,22C183.8,286.22,185.27,289.7,186.55,293.24ZM293.38,101.3c-14.73,2-30.18,7-42.85,18.58-6.67,6.09-8.46,13.29-4.52,21.62,3.16,6.69,7.16,12.75,13.34,17.1.89.63,2.26,1.24,1.71,2.67-.44,1.12-1.71.84-2.65.81a14.24,14.24,0,0,0-7.26,1.53c-2.85,1.5-5.44,3.33-5.39,7.11.09,6.71,10.94,17.46,17.62,17.5,2,0,3.79-.14,4.33-2.42,3.38-14.28,11.45-26.85,14.63-41.28,3-13.68,8.44-26.6,14.84-39.09C298.3,103.24,299.8,100.87,293.38,101.3Zm47.73-78.17C327.78,23,323.36,25.3,320,32.73c-5.29,11.65-4.9,23.82-2.52,36.07.61,3.14,1.83,3.4,4.2,1.13,4.91-4.7,9.92-9.32,15.13-13.68,8.62-7.2,18.62-12.14,28.68-16.92,1.9-.91,4.8-1.84,1.44-4.31C358,28.45,348.31,23.48,341.11,23.13ZM422.34,4.3c-.63.17-1.59.42-2.54.69-10.6,3-17,11-23.1,19.41-1,1.37-2.67,3.14-1.46,4.93s3.43,1,5.13.74a138.64,138.64,0,0,1,47.88,2.49c1.1.25,2.34,1,3.13-.28.69-1.14-.16-2.26-.71-3.24-4-7.14-8.58-13.84-14.92-19.12A23.79,23.79,0,0,0,422.34,4.3ZM88.8,292.15c-4.35.77-9.71,1.08-14.67,3.09-2.66,1.08-5.54,2.8-3,6.3C78.55,312,87,321.49,97.69,328.74c2.44,1.65,3.44,1.05,4.14-1.62,1.14-4.33,2.45-8.62,3.81-12.89C109,303.73,100.59,292.09,88.8,292.15ZM302,72.12c-2.42,0-4.08,0-5.74,0-9.27.22-13.1,6.38-9.12,14.76a45.93,45.93,0,0,0,3.52,6,8.31,8.31,0,0,0,13.49.29c3.75-5.08,7.2-10.38,11-15.42,2.3-3.06.85-4-2-4.55C309.15,72.49,305.22,71.79,302,72.12Z"/><path class="cls-3" d="M595.68,183.15c-1.79-.85-1.71-2.54-2.09-4.16-1.74-7.4-4.89-14.34-8.24-21.06-2.43-4.86-6.38-8.88-12.7-8.84-1.17,0-1.73-.81-2-1.89a13.76,13.76,0,0,1,12.9,5.05A54.63,54.63,0,0,1,595.68,183.15Z"/><path class="cls-3" d="M570.65,147.17c-1.38-.16-1.81-1.17-2.2-2.33a194.33,194.33,0,0,0-11.05-27.45,11.57,11.57,0,0,1-.61-3.34C563.29,124.3,567.37,135.57,570.65,147.17Z"/><path class="cls-3" d="M.88,264.14c.85.22,1.75.62,1.74,1.53,0,7.31,1.26,14.48,2.06,21.71.06.54-.52,1.15-.81,1.74A118.7,118.7,0,0,1,.88,264.14Z"/><path class="cls-3" d="M596.91,216.23c-.38-7-1-14.11.82-21.08C598.6,202.22,599.51,209.3,596.91,216.23Z"/><path class="cls-3" d="M532.94,81.08A21,21,0,0,1,521.78,70,66.59,66.59,0,0,1,532.94,81.08Z"/><path class="cls-3" d="M.44,245.05c2.37,5.32,1.89,10.7.31,16.1A55.69,55.69,0,0,1,.44,245.05Z"/><path class="cls-3" d="M591.73,240.15c-2.05-3.07.62-4.85,1.94-7C594.31,235.84,592.85,238,591.73,240.15Z"/><path class="cls-3" d="M5,295.14c2.67,2.18,3.35,4.82,1.87,8A24.21,24.21,0,0,1,5,295.14Z"/><path class="cls-3" d="M1.36,231.05c1.87,2.51,2.85,5-.53,7.09C1,235.78,1.19,233.41,1.36,231.05Z"/><path class="cls-3" d="M556.82,114.09c-3.43-1.11-3.79-4-4.09-7A24,24,0,0,1,556.82,114.09Z"/><path class="cls-3" d="M20.83,201.08c-2.28,1.88-4.84.95-7.33.71C15.8,200.13,18.22,199.6,20.83,201.08Z"/><path class="cls-3" d="M543.79,94.12c-3-.38-4.22-2.18-4-5.11A16.35,16.35,0,0,1,543.79,94.12Z"/><path class="cls-3" d="M539.87,89.06c-3.08-.21-4.18-2.09-4.15-4.93A17.39,17.39,0,0,1,539.87,89.06Z"/><path class="cls-3" d="M546.77,98.13c-2.61-.16-3.16-1.85-3-4Z"/><path class="cls-3" d="M6.62,209.94c.06,2.36,0,4.67-2.37,6.1C4.75,213.89,5.18,211.72,6.62,209.94Z"/><path class="cls-3" d="M29.19,361.29c2.49.4,2.65,2.19,2.48,4.18C30.22,364.45,29.71,362.86,29.19,361.29Z"/><path class="cls-3" d="M3.82,218.15c1.36,1.73,1.61,3.19-.94,4A7.15,7.15,0,0,1,3.82,218.15Z"/><path class="cls-3" d="M596.68,189.14c-1.08-.87-1-2.06-.88-3.24C597.42,186.62,597.44,187.77,596.68,189.14Z"/><path class="cls-3" d="M594.77,228.33c-.06-1.17-.15-2.35.93-3.18C596.42,226.51,596.33,227.64,594.77,228.33Z"/><path class="cls-3" d="M550.82,104.09c-2-.09-2.13-1.5-2-3Z"/><path class="cls-3" d="M552.74,107.14c-2-.19-2.06-1.58-2-3.09A5.32,5.32,0,0,1,552.74,107.14Z"/><path class="cls-3" d="M2.39,224.07c1.84,1.3,1.79,2.33-.43,3.07C2.11,226.12,2.25,225.09,2.39,224.07Z"/><path class="cls-3" d="M593.77,232.32c-.06-1.17-.14-2.35.94-3.18C595.51,230.53,595.24,231.61,593.77,232.32Z"/><path class="cls-3" d="M20.88,344.13c2.19.46,1.86,2.11,1.73,3.68C21.69,346.74,20.66,345.72,20.88,344.13Z"/><path class="cls-3" d="M31.94,211.06c-1.94,0-2.14-1.35-2.17-2.83Z"/><path class="cls-3" d="M548.81,101.1c-2-.09-2.12-1.49-2.06-3Z"/><path class="cls-3" d="M10,315.13c1.34.34,2.09.87.63,2.07C9.81,316.7,10,315.89,10,315.13Z"/><path class="cls-3" d="M4,290.14c1.54.41,2,1.06.46,2.14C4.3,291.57,4.15,290.85,4,290.14Z"/><path class="cls-3" d="M596.75,222.16c-.93-.63-1-1.3-.08-2A1.53,1.53,0,0,1,596.75,222.16Z"/><path class="cls-3" d="M25.86,204.13a1.9,1.9,0,0,1-2.06-1.67Z"/><path class="cls-3" d="M17.51,336.22a2.33,2.33,0,0,1,1.11,2.59Z"/><path class="cls-3" d="M19.61,341.19a2.23,2.23,0,0,1,1.06,2.35C20.31,342.76,20,342,19.61,341.19Z"/><path class="cls-3" d="M7.37,305.26c1.15.35,1.41.94.51,1.85Z"/><path class="cls-3" d="M13.55,201.7c-.21,1.12-1,1.35-2,1.35Z"/><path class="cls-3" d="M8.77,206.07a1.92,1.92,0,0,1-1.22,2Z"/><path class="cls-3" d="M7.62,207.94a1.77,1.77,0,0,1-1.09,2.11C6.9,209.35,7.26,208.64,7.62,207.94Z"/><path class="cls-3" d="M11.72,320.11a2.74,2.74,0,0,1,.94,2.64A3.3,3.3,0,0,1,11.72,320.11Z"/><path class="cls-3" d="M15.59,331.2a2.43,2.43,0,0,1,1.06,2.57A3.45,3.45,0,0,1,15.59,331.2Z"/><path class="cls-3" d="M38.31,376.25a1.81,1.81,0,0,1,1.39,2Z"/><path class="cls-3" d="M26.58,356.2a2,2,0,0,1,1.13,2.15C27.33,357.63,27,356.91,26.58,356.2Z"/><path class="cls-3" d="M22.7,348.1a2.33,2.33,0,0,1,1,2.22C23.38,349.58,23,348.84,22.7,348.1Z"/><path class="cls-3" d="M39.65,378.17l1,1.48Z"/><path class="cls-3" d="M13.41,325.26a6.18,6.18,0,0,1,.61.52s-.17.23-.27.35A1,1,0,0,1,13.41,325.26Z"/><path class="cls-3" d="M59.72,403.14c.33.39.67.78,1,1.18Z"/><path class="cls-3" d="M9.21,312.31c.63.06,1.14.17.39.85A.78.78,0,0,1,9.21,312.31Z"/><path class="cls-3" d="M42.45,382.23l1.23,1.57Z"/><path class="cls-3" d="M1.69,228.84c0,.68-.08,1.35-.11,2C.76,230.14.64,229.46,1.69,228.84Z"/><path class="cls-3" d="M14.46,328.25a5.88,5.88,0,0,1,.59.53s-.17.23-.26.35A1,1,0,0,1,14.46,328.25Z"/><path class="cls-4" d="M507.57,66.39l2.64,2.18.31-.23a1,1,0,0,0,1.05,1l0,0,1.06,1-.05-.08,1.09,1.06-.07-.08,1.08,1-.1,0a7.1,7.1,0,0,0,.17.92,1.9,1.9,0,0,0,2.07,2l0,0c.36.35.72.7,1.09,1l-.09-.06c.36.36.72.71,1.07,1.07l-.07-.07c.36.36.72.71,1.07,1.07l-.07-.07,1.07,1.07-.07-.07,1.07,1.06-.06-.07,1,1h0l1,1,0,0,1,1h0l1,1c.31.07.63.13.95.18l-.08-.08c.06.34.12.69.17,1a4.35,4.35,0,0,0,3.3,3.78l1.41.41,0-.13a1.94,1.94,0,0,0,1.17,1.93l0,0a9.05,9.05,0,0,0,3.08,4l0,0a8.9,8.9,0,0,0,3,4.06l0,0a2.67,2.67,0,0,0,1.79,2.19l0-.06a5.17,5.17,0,0,0,2.19,3.9l0-.05,1,1.11h-.13a3.44,3.44,0,0,0,1.92,3.08l0,0a10.93,10.93,0,0,0,3.17,5.92l0-.06,1,1.11-.14,0c6.31,15.74,14.14,31.08,13.53,49.09l3.88-6.19-.05.05,2.41-2a.4.4,0,0,0,.51-.15,10.68,10.68,0,0,1,6.95,1.11l.91.93,1.07,1.1-.13,0c4.3,10.58,6.37,21.67,7.39,33,.05.94.09,1.88.13,2.81L586,207.23l-.09,1.84c-1.07,9.57-3.72,18.78-6.39,28l0-.07a2,2,0,0,0-1,2.08l.06-.06a2.14,2.14,0,0,0-1,2.06l.06-.07a2.09,2.09,0,0,0-1,2.07l0-.07a2.07,2.07,0,0,0-1.07,2l.12,0-1,1.12,0-.05a5.38,5.38,0,0,0-2.19,3.91h.11c-.67.05-.93.5-1,1.09l.09-.05-1.06,1.1-.85,1.08a5,5,0,0,0-2.15,2.86l.09,0-1,1.09-.9,1a2.09,2.09,0,0,0-1.23,1.86l.09-.05a1.06,1.06,0,0,0-1.05,1.06l.06-.06c-.35.35-.7.71-1.06,1.06l.06-.06c-.35.35-.7.71-1.06,1.06l.06-.06a1.07,1.07,0,0,0-1.05,1.06l0-.06a1,1,0,0,0-1.05,1l.05-.09a2.1,2.1,0,0,0-1.88,1.22l-1,.92-1.08,1.05.06-.07-1.09,1.05.07-.11c-.6.41-1.21.8-1.81,1.2l-1.15.9a2.91,2.91,0,0,0-2.19,1.85h.11a2.17,2.17,0,0,0-2,1.14l0,0-1.1,1,.06-.1-2,1.12,0,0-1.92,1.11,0,0a5.14,5.14,0,0,0-3.1,1.9l0,0-2,1.08h-1.81c1.81-7.24,3.35-14.49.82-21.89,1.18-1.38,2.37-2.75,3.53-4.15,3.91-4.75,6.57-10,6.36-16.36-.08-2.5-.75-3.76-3.66-2.54-15.5,6.5-31.91,8.09-48.45,8.05-30-.08-59.48-3.56-87.81-14.14-1.81-.68-3.8-2-5,.92-8.09,2-14.17,7-19.11,13.45-12.39,16.19-13.43,34.93-11.26,54,.65,5.72-.56,10.79-1.57,16.1-5.15,2-2.29,4.34-.19,6.56,10.14,10.74,18.79,22.46,24.15,36.39,1.29,3.35,1.07,5.39-3.06,5.8-1.41.13-3.35.38-3.74,2-.49,2,1.6,2.64,2.79,3.69a13.65,13.65,0,0,0,1.65,1.12c2.86,1.91,2.54,3.53-.41,5a37.84,37.84,0,0,1-17.4,3.85,136.11,136.11,0,0,1-46.85-9c-2-.76-5.11-3.5-6.44,0s2.72,4,5,4.78c7.08,2.41,14.27,4.47,21.42,6.67-1.34,8.6-2.49,17.24-4.8,25.66-.95-1.3-1.87-2.63-2.86-3.9s-2.09-2.25-3.73-1.14-1.42,2.41-.52,3.84l3.88,6.22c.51,1.22,1,2.44,1.52,3.66,8.19,20,10.43,40.05.57,60.22h0l-1.14,2,.09-.06-1,1.08,0,0-1,1.05,0,0-1,1h0c-.35.33-.69.67-1,1l0,0-1.06,1,0-.06-2.93,2.1h0l-1.13.91.05-.12c-2,.41-3,0-3-2.41s.62-4.91-1.27-7c-1.7,1-1.62,2.78-2,4.32l.16.14-1,1.13,0-.07a2,2,0,0,0-1.14,2l.1-.06a1.06,1.06,0,0,0-1.05,1.07l.07-.06L320.56,485l.08-.1a2.26,2.26,0,0,0-1.94,1.19l0,0-1.12,1,.08-.11a2.35,2.35,0,0,0-2.06,1.09l.08-.06a2.32,2.32,0,0,0-2.1,1l0-.09-1.9.32-.22,0-.18-6.91c-.15-.73-.31-1.46-.46-2.19-.08-.89.14-2.17-1.08-2.23s-1,1.27-1.27,2.12l.08,0a2.21,2.21,0,0,0-1.09,2l.12-.06-1,1.11,0-.06a2.09,2.09,0,0,0-1.16,2l.08-.07a1,1,0,0,0-1,1.05l0,0a1,1,0,0,0-1,1.05l.05-.09a2.1,2.1,0,0,0-1.92,1.19l0,0c-2,.84-3.84,1.94-6.1,2-25.1.46-50.26,1.46-73.7-10.12l.07,0a3.13,3.13,0,0,0-2.11-1.91l0,.1L218.82,477l.09,0-3.06-4,0,.06c-.34-.37-.67-.74-1-1.12l.11.06a64.4,64.4,0,0,1-1.65-28.59c.55-3.07,0-3.29-3.43-2.24a2,2,0,0,0-.84,2.06,27.18,27.18,0,0,0-1.81,8.86c-.06.7-.12,1.4-.19,2.1a1.45,1.45,0,0,0-.1.92l-.18.37c-11.12-.81-22-3.28-32.73-5.92A337.35,337.35,0,0,1,121.85,432l0,.05a45.47,45.47,0,0,0-10-5l0,0L109.82,426l.07,0a11.21,11.21,0,0,0-6-3.14v0a1.81,1.81,0,0,0-2-1.06l.06-.05c-.89-1.66-2.5-2.26-4.13-2.83v0a2.22,2.22,0,0,0-2-1.12l0,.1-1.1-1,.06,0a4.86,4.86,0,0,0-3-2.06V415a2.07,2.07,0,0,0-2-1.12l.1-.05A2.91,2.91,0,0,0,87.85,412l0,0a2.17,2.17,0,0,0-2-1.16l.12,0a3.15,3.15,0,0,0-2.18-1.93l-1.06-.82A9.88,9.88,0,0,0,78.88,405l0,.09-1.09-1,0,0a2.08,2.08,0,0,0-1.91-1.21v.1l-1.11-1,.07.08-1-1.12.12,0a3.2,3.2,0,0,0-2.1-2l0,.11L70.83,398l.08.07L69.83,397l.07.06L68.83,396l.07.07L67.83,395l.06.07L66.83,394l.06.06c-.36-.35-.71-.71-1.06-1.06l.06.06c-.36-.35-.71-.71-1.06-1.06l.06.06L63.83,391l.06.07L62.83,390l.07.07-1-1.09.08.07L60.86,388H61a3.16,3.16,0,0,0-2-2.09l0,.11-1-1.07.06,0a1,1,0,0,0-1-1l.08,0A2.08,2.08,0,0,0,55.85,382l0,0-1-1.1.08.06-1-1.09L54,380l-1-1.07.09,0a2.14,2.14,0,0,0-1.16-2l0,0A3.11,3.11,0,0,0,50,374.89l0,.11a2.29,2.29,0,0,0-1.15-2l0,0a3,3,0,0,0-1.82-2.18l0,.05a3.41,3.41,0,0,0-2-3l0,.05a5.82,5.82,0,0,0-2.23-3.87v0l-2-3.06,0,0-1-1.12L40,360a2.37,2.37,0,0,0-1.11-2l0,.08-1.11-2,0,0A21.32,21.32,0,0,0,33.91,349l0,.08L32.88,347l0,.07L31.87,345l.05.07L30.87,343l0,.07c-.34-.7-.69-1.39-1-2.08l.05.07-1-2.08.06.05a18.39,18.39,0,0,0-3.1-7l0,0c-3.64-10.33-7.63-20.55-10.42-31.17C8.92,276,5.16,250.8,9.12,225c2.72-1.05,1.3-3.29,1.46-5.07v.17c1.79-2.74,3.57-.19,5.36,0l-.07,0c-.09,1.55.1,2.9,2.08,3l-.12-.06c.36.37.73.74,1.09,1.12V224c.52,1.39,1.34,2.16,2.92,1.51a2.93,2.93,0,0,0,1.9-3.46l-.07,0c3-1.53,5.25-.26,7.18,2-.05,1.69.23,3.21,2.07,3.9l0,0a2.11,2.11,0,0,0,.94,2l.06.09c0,1.94.33,3.7,2,4.92l0,0a19.14,19.14,0,0,0,4,10h0a9.66,9.66,0,0,0,3,8v0c.24,2.93.74,5.77,3,7.95l0,.06c0,1.14-.14,2.29,1,3l0-.06a2.08,2.08,0,0,0,.93,2l0,.11c0,1.1-.11,2.25,1.06,2.93l0,0a2,2,0,0,0,.88,1.94.74.74,0,0,1,.2.73,2.21,2.21,0,0,0,1,2.34h0a2,2,0,0,0,.94,2l0,.1c0,1.12-.1,2.26,1.08,2.94l0-.07a2,2,0,0,0,1,2.06l0,0a2,2,0,0,0,1,2C60.45,293.67,66.31,304.1,74,313.35c14.38,17.21,31.77,29.25,54.67,31.79,25.25,2.81,46.36-6,64.52-23.05,11.3-10.6,19.35-23.66,27.6-36.57,3.94-6.16,8-12.25,12-18.37,1.58,1.88,1.61,4.3,2.25,6.5,1.87,6.5,9.21,11.05,15.6,9.22,7.05-2,11.3-7.35,12.76-14.14s.32-13.46-6-18.33c-3-2.34-6.71-1.5-9.7-3.22,11.29-13.31,17.4-29,21-45.82a173.1,173.1,0,0,1,13.91-41.06c2.7-5.42,3.2-11.52,4.89-17.25,7.67-26.1,18.93-50.4,38.14-70,35.94-36.59,79.48-46.38,128.54-34,17.13,4.32,32.49,12.67,47.15,22.33l.15-.12,1.09,1-.06-.09,1.1,1.07,1.05.85,1.9,1.2-.06-.1,1.09,1ZM387.86,160.28c-1.47.05-1,1.13-1,1.94-3.15,3-2.24,6.81-1.86,10.3,1.21,10.88,10,18.71,18.84,17.14s14.68-10.09,13.85-20.19-7.93-17.8-16.72-18.05C394.74,151.25,389,155.16,387.86,160.28ZM340,197.46c-7.33-.08-14,6.93-13.95,14.66A14.24,14.24,0,0,0,340.17,226c7.09,0,14-6.91,14.13-14.11C354.46,204.45,347.62,197.55,340,197.46ZM264.78,432.82a7.59,7.59,0,0,0,6.8,7.18c3.42.1,6.94-3.35,7.11-7,.16-3.43-3.32-6.88-7-6.91C267.58,426.08,264.87,428.69,264.78,432.82Zm273-264.75a7.2,7.2,0,0,0,6.82-7.14,7.27,7.27,0,0,0-7-6.47c-3.4.07-6.77,3.37-6.83,6.69A7.12,7.12,0,0,0,537.8,168.07ZM419.71,78.64c0,3.91,2.22,6.43,5.83,6.53A5.75,5.75,0,0,0,431.71,79c-.11-3.92-1.84-6.05-6.13-5.92C421.75,73.19,419.61,74.62,419.71,78.64Zm-151,219.85c-.41-3.48-1.87-5.63-5.77-5.39-3.73.24-6.18,2-6.06,5.78.11,3.37,1.65,6.34,5.73,6.13S268.51,302.32,268.74,298.49Zm81.56,43.66c3.07,0,5.4-1,5.23-4.12-.16-2.94-2.23-4.73-5.27-4.83-2.46-.09-4.29,1.25-4.33,3.75C345.88,339.82,347.13,342.08,350.3,342.15ZM427.68,64.53c-.07-1.61-.89-2.41-2.51-2.19A2.48,2.48,0,0,0,422.86,65c0,1.73,1.14,2.16,2.62,2.1C427.15,67.05,427.73,66.06,427.68,64.53Z"/><path class="cls-5" d="M536.71,258.24c2.53,7.4,1,14.65-.82,21.89a1.94,1.94,0,0,0-.34.9l.05,0-3.12,1.95.12-.07L530.52,284l.11-.07L528.52,285l.1-.07a19.58,19.58,0,0,0-6.6,3h-.27a12.87,12.87,0,0,0-5.17,2.11l.09-.05-2.21.89.11-.09-19.1,6,.06-.15c-2.75.47-5.52.85-8,2.17l.05-.16c-9,1.93-18.28,2.7-27.18,5.3-25,.78-49.9.35-74.63-3.85l-.33-.18.34.17c.5,2.92,2.88,4.33,4.92,5.95,20.23,16.07,43.46,22.79,69.06,22.07,0,1.65.14,3.31,0,5a203.35,203.35,0,0,1-13.22,62.95l.06-.08q-2.7,5.37-5.39,10.73h.09c-.27.44-.53.88-.8,1.31l.06-.09c-.63,1.05-1.27,2.1-1.91,3.15l0,0-1.23,2,.08-.12-1.31,1.89.29.07-.26-.13-1.62,2.34,0,0-1.34,1.86.14-.12-1,1.24.12-.12-1,1.2,0-.07c-.47.59-.93,1.18-1.4,1.76h.27l-.27-.05-2.76,3.22.11-.07L426.54,427l.11-.1c-.36.37-.72.75-1.09,1.12l-.89.9-1.08,1.11.08-.09-1.08,1.08.08-.08L421.55,432l.1-.1L420.48,433l.08-.1-2.19,1.87.08,0-1.16,1,0-.09-1.69,1.44,0,0-1.16,1,.07-.09-2.29,1.59.14.21-.19-.17-1.75,1.36.09-.06-1.28.86.05-.11c-.62.44-1.24.88-1.85,1.33l.09-.07-1.29.84v-.1L402.57,446l.1-.06-2,1.13,0,0c-13.87,7.09-28.63,11.46-43.93,14.11-1.89-1.33-.46-3.43-1.17-5A94.68,94.68,0,0,0,342,407.91c0-.57-.08-1.15-.11-1.72,2.31-8.42,3.46-17.06,4.8-25.66l8.36,1.15c11.05,1.52,22.11,2.72,33.08-.49,9.35-2.74,13.26-8.47,12.49-18.22a37.65,37.65,0,0,0-3.48-12.4c-6.43-14.3-15.89-26.36-27.33-37,1-5.31,2.22-10.38,1.57-16.1-2.17-19.11-1.13-37.85,11.26-54,4.94-6.46,11-11.41,19.11-13.45a22.93,22.93,0,0,0,.74,2.35c8.18,19.19,23.27,31.05,42.29,37.64C477.15,281.23,508.16,278.55,536.71,258.24Z"/><path class="cls-6" d="M471.52,479.92c.13-5.2.13-5.2-1.26-8.33-3,5.13-6,10.11-12.07,12-1.33-2.93.57-6.31-1.93-8.65-.25,0-.54,0-.57.09-3.38,9.82-11,10.62-20,10.33-13.53-.43-27-.71-39.65-6.22-5.88-2.56-10.45-6.33-12.49-12.76-.87-2.76-.59-4.21,2.38-5.26,17.95-6.32,33.13-16.8,46.08-30.72A111.83,111.83,0,0,0,451.86,400c2.61-5.78,2.46-5.74,8.21-2.77,33,17,33.44,53,22.33,73.6-2.31,4.27-5.58,7.89-10.51,9.46ZM449.28,452.1c2.08-.24,4.31-1,4.09-3.73s-1.56-5-4.58-5.06c-2.57-.09-3.91,1.66-4,4.17C444.73,450.27,446.27,451.75,449.28,452.1Z"/><path class="cls-6" d="M467.77,320.1a103.89,103.89,0,0,1,29.29,30.67,59.36,59.36,0,0,1,8.13,18.11c1.2,5,.66,5.57-4.42,5-1.23-.13-2.75-1.28-3.6.3s.78,2.35,1.52,3.38c3.42,4.8,3.34,5.28-2.42,6.37a80.85,80.85,0,0,1-34.58-.87c-1.84-.44-4.25-.49-3.26-3.66C464.33,360.45,466.15,340.79,467.77,320.1Z"/><path class="cls-7" d="M54.81,257.19c4.94.21,10-.8,14.8,1,5.13,1.92,7.94,5.95,7,11.19-1.23,7-3.23,13.9-7,20.06-1.83,3-4.08,3.76-5.79.09-4.61-9.9-9.36-19.75-12.06-30.41l0,0,1-1Z"/><path class="cls-3" d="M342,407.91a94.68,94.68,0,0,1,13.61,48.19c-2.55-.74-1.83-2.89-1.8-4.57.07-5.2-1.13-10.19-2.22-15.2-.3-1.35-.68-3.35-2.73-2.71-1.61.5-1.09,2.22-.87,3.48a60.23,60.23,0,0,1-3.31,32.7c-.8,2.07-1.07,4.68-3.93,5.29,9.86-20.17,7.62-40.22-.57-60.22-.5-1.22-1-2.44-1.52-3.66l.18-.17q3.19.33,2.86-2.86Zm2.71,10.7a5,5,0,0,0-.47.66c0,.06.22.36.27.34a5.12,5.12,0,0,0,.73-.39Z"/><path class="cls-3" d="M446.55,396.05a203.35,203.35,0,0,0,13.22-62.95c.09-1.64,0-3.3,0-5,1.55-8,1-16.09.64-24.16,8.9-2.6,18.16-3.37,27.18-5.3-4.42,3.33-9.91,3.33-15,4.26-10.8,2-11,1.68-10.84,12.71.28,24.2-2.56,48-10.2,71C450.44,390,450.15,394,446.55,396.05Z"/><path class="cls-3" d="M9.12,225c-4,25.83-.2,51,6.36,76,2.79,10.62,6.78,20.84,10.42,31.17-2.48-1.1-2.7-3.6-3.53-5.72A245.28,245.28,0,0,1,6.65,259.9c-1.12-11.82-1.2-23.44,1.13-35.07.2-1,.28-2,1.51-2.25C9.24,223.37,9.18,224.17,9.12,225Z"/><path class="cls-3" d="M121.85,432a337.35,337.35,0,0,0,52.22,17.56c10.78,2.64,21.61,5.11,32.73,5.92-1.2,2.52-3.36,1.6-5.24,1.37-18.35-2.27-35.9-7.87-53.54-13.1-8.14-2.41-15.88-5.82-23.73-9C123,434.27,121.87,433.62,121.85,432Z"/><path class="cls-3" d="M221.91,479.88c23.44,11.58,48.6,10.58,73.7,10.12,2.26,0,4.12-1.14,6.1-2-2.25,5-7.3,3.71-10.87,3.85-18.76.74-37.52.18-55.74-5C230.37,485.51,224.8,485,221.91,479.88Z"/><path class="cls-3" d="M585.9,193.23c-1-11.32-3.09-22.41-7.39-33,4.7,3.95,5.08,9.78,6.38,15.13,4.82,19.8,4,39.34-3.24,58.49-.47,1.25-.83,2.55-2.17,3.2,2.67-9.21,5.32-18.42,6.39-28a1.05,1.05,0,0,0,.09-1.84q0-5.59.07-11.19A1.86,1.86,0,0,0,585.9,193.23Z"/><path class="cls-7" d="M34.72,216.15c9.27-3,13.51.75,11.55,10.09-.58,2.73-.9,5.52-2.47,7.93A94.23,94.23,0,0,1,34.72,216.15Z"/><path class="cls-3" d="M566.84,159.25,563,165.44c.61-18-7.22-33.35-13.53-49.09,2.78.76,2.72,3.46,3.71,5.44,5.58,11.14,9.54,22.78,10.48,35.27C563.83,159.75,565.18,159.4,566.84,159.25Z"/><path class="cls-3" d="M356.75,461.13c15.3-2.65,30.06-7,43.93-14.11-.05,1.88-1.58,2.38-2.89,3.05-11.63,6-24.07,9.45-36.82,11.93C359.54,462.28,358,462.4,356.75,461.13Z"/><path class="cls-3" d="M209.92,441.16c3.42-1.05,4-.83,3.43,2.24A64.4,64.4,0,0,0,215,472c-5.09-7-4.49-14.89-3.77-22.84C211.48,446.4,213.37,443.32,209.92,441.16Z"/><path class="cls-2" d="M16.91,214.66l-2.15-4.52a1.64,1.64,0,0,0,.3-.83l-.19.07,1.6-1.11.27,0,4,.35c2.4,3.86,1.8,7.35-1.62,9.39l-1.27-1.89,0,0C17.49,215.64,17.2,215.15,16.91,214.66Z"/><path class="cls-8" d="M240.74,501.12c-2.2,2.17-4.59.47-6.43-.24-4.7-1.83-10.47-1.74-13.49-6.87A86.51,86.51,0,0,0,240.74,501.12Z"/><path class="cls-9" d="M30.84,224.12c-1.93-2.3-4.16-3.57-7.18-2,1.22-2.29.05-5.88,3.72-6.83.44.67.88,1.34,1.31,2l0-.07,1.05,2.06-.05-.07,1,2.07-.05-.06c.09,1,.17,1.91.26,2.87Z"/><path class="cls-3" d="M495.47,296.83l19.1-6C508.89,295,502.37,296.51,495.47,296.83Z"/><path class="cls-3" d="M324.46,479.78c.36-1.54.28-3.29,2-4.32,1.89,2.12,1.31,4.68,1.27,7s1,2.82,3,2.41c-.58,1.56-1.6,2.5-3.3,1.8s-1.33-1.93-.9-3.26C327.07,481.55,326.32,480.34,324.46,479.78Z"/><path class="cls-3" d="M441.22,406.7q2.68-5.37,5.39-10.73C446.5,400.4,445.47,404.36,441.22,406.7Z"/><path class="cls-3" d="M111.85,427a45.47,45.47,0,0,1,10,5C117.8,431.82,113.94,431.17,111.85,427Z"/><path class="cls-9" d="M15.94,220.08c-1.79-.2-3.57-2.75-5.36,0l.06-2,.39-1.84-.12,0,.72-1.11c.68-1.19,1.37-.34,2.06,0,.36.68.72,1.37,1.07,2.06Z"/><path class="cls-3" d="M207.27,452.08a27.18,27.18,0,0,1,1.81-8.86A9.24,9.24,0,0,1,207.27,452.08Z"/><path class="cls-3" d="M576.66,158.26a10.68,10.68,0,0,0-6.95-1.11C572.6,153.93,574.89,154.47,576.66,158.26Z"/><path class="cls-3" d="M33.91,349a21.32,21.32,0,0,1,3.94,7.09C34.53,354.84,34,352,33.91,349Z"/><path class="cls-8" d="M448.67,499.23a14.07,14.07,0,0,1-10.92-.11A46.38,46.38,0,0,1,448.67,499.23Z"/><path class="cls-3" d="M25.86,332a18.39,18.39,0,0,1,3.1,7C26,337.57,25.74,334.89,25.86,332Z"/><path class="cls-8" d="M216.69,491.1c-2.8-.13-4.85-1-4.48-4.39Z"/><path class="cls-3" d="M311.35,482.24l.18,6.91C307.77,486.94,311.06,484.55,311.35,482.24Z"/><path class="cls-3" d="M548.6,115.28a10.93,10.93,0,0,1-3.17-5.92C548.27,110.38,548.61,112.74,548.6,115.28Z"/><path class="cls-9" d="M23.73,222.05a2.93,2.93,0,0,1-1.9,3.46c-1.58.65-2.4-.12-2.92-1.51,1.27.34,2.55.73,3.45-.71Z"/><path class="cls-3" d="M103.94,422.87a11.21,11.21,0,0,1,6,3.14C107.34,426,105,425.61,103.94,422.87Z"/><path class="cls-8" d="M416.79,499a9.89,9.89,0,0,1-8.53-1.26A13.14,13.14,0,0,1,416.79,499Z"/><path class="cls-3" d="M522,287.93a19.58,19.58,0,0,1,6.6-3C527.27,287.79,524.8,288.2,522,287.93Z"/><path class="cls-3" d="M487.49,298.85c2.52-1.32,5.29-1.7,8-2.17C493.37,299.36,490.49,299.32,487.49,298.85Z"/><path class="cls-3" d="M538.64,99.26a8.9,8.9,0,0,1-3-4.06C538.26,95.37,538.81,97.05,538.64,99.26Z"/><path class="cls-3" d="M78.88,405a9.88,9.88,0,0,1,3.91,3.13C80.61,408.16,78.9,407.62,78.88,405Z"/><path class="cls-3" d="M97.88,419c1.63.57,3.24,1.17,4.13,2.83C99.88,422,98.19,421.47,97.88,419Z"/><path class="cls-9" d="M9.12,225c.06-.8.12-1.6.17-2.39L9,222.29c.86-.47.81-1.3.81-2.11a2,2,0,0,1,.74-.28C10.42,221.68,11.84,223.92,9.12,225Z"/><path class="cls-3" d="M215.85,473l3.06,4C216.18,477,215.68,475.24,215.85,473Z"/><path class="cls-3" d="M535.67,95.22a9.05,9.05,0,0,1-3.08-4C535.24,91.31,535.77,93,535.67,95.22Z"/><path class="cls-8" d="M458.73,498.05c-1,1.68-2.21,2.84-4.07.93C455.74,497.44,457.33,498.18,458.73,498.05Z"/><path class="cls-3" d="M39.82,242.12c2.17,1.07,2,3.08,2,5l-.51.38-1.39-2.46h0c-.17-.89-.33-1.77-.49-2.65Z"/><path class="cls-3" d="M42.82,250.11c2.17,1.08,2,3.09,2,5-.14.1-.28.2-.41.31l-1.49-2.37v0c-.17-.88-.33-1.75-.49-2.63Z"/><path class="cls-8" d="M246.74,502.11c-1.59,1.32-3,1.68-3.92-.72Z"/><path class="cls-3" d="M516.58,290a12.87,12.87,0,0,1,5.17-2.11C520.74,290.36,518.65,290.18,516.58,290Z"/><path class="cls-3" d="M427.49,425.93l2.76-3.22C430.83,425.07,429.69,426,427.49,425.93Z"/><path class="cls-8" d="M467.66,497.23c-1.6.7-3,2.46-5,.75C464.13,496.41,465.92,497,467.66,497.23Z"/><path class="cls-3" d="M572.45,250a5.38,5.38,0,0,1,2.19-3.91C574.73,247.83,574.6,249.46,572.45,250Z"/><path class="cls-3" d="M402.57,446l3.75-2.38C406.21,446.18,404.38,446.07,402.57,446Z"/><path class="cls-3" d="M542.62,105.26a5.17,5.17,0,0,1-2.19-3.9C542.63,101.83,542.74,103.49,542.62,105.26Z"/><path class="cls-3" d="M35.81,232.13a6.12,6.12,0,0,1,2,5l-.37.28-1.53-2.37,0,0c-.19-.87-.37-1.73-.56-2.6Z"/><path class="cls-3" d="M308.54,479.94c.23-.85,0-2.18,1.27-2.12s1,1.34,1.08,2.23Z"/><path class="cls-3" d="M42.82,364.08A5.82,5.82,0,0,1,45.05,368C42.92,367.46,42.78,365.83,42.82,364.08Z"/><path class="cls-9" d="M32.91,228c-1.84-.69-2.12-2.21-2.07-3.9l.06-.05,1.77,1.64v.38C32.76,226.73,32.84,227.37,32.91,228Z"/><path class="cls-3" d="M545.39,109.39a3.44,3.44,0,0,1-1.92-3.08A2.32,2.32,0,0,1,545.39,109.39Z"/><path class="cls-3" d="M331.75,484.1l2.93-2.1C334.61,484,333.23,484.11,331.75,484.1Z"/><path class="cls-3" d="M32.67,225.71l-1.77-1.64c-.09-1-.17-1.91-.26-2.87A4.77,4.77,0,0,1,32.67,225.71Z"/><path class="cls-8" d="M210.94,485c-2.15-.05-2.16-1.52-2.06-3.07Z"/><path class="cls-3" d="M539.63,279.08a5.14,5.14,0,0,1,3.1-1.9C542.46,279.07,541.1,279.16,539.63,279.08Z"/><path class="cls-3" d="M567.57,256.05a5,5,0,0,1,2.15-2.86C569.7,254.67,569.53,256,567.57,256.05Z"/><path class="cls-3" d="M91.9,415a4.86,4.86,0,0,1,3,2.06C93.35,417.13,91.93,417.05,91.9,415Z"/><path class="cls-3" d="M438.66,411.08c.64-1.05,1.28-2.1,1.91-3.15C440.76,409.48,440.7,410.88,438.66,411.08Z"/><path class="cls-3" d="M40.85,361l2,3.06C40.88,363.92,40.77,362.54,40.85,361Z"/><path class="cls-3" d="M45.07,367.9a3.41,3.41,0,0,1,2,3A2.31,2.31,0,0,1,45.07,367.9Z"/><path class="cls-8" d="M220.85,494c-1.49,0-2.93,0-3-2.05Z"/><path class="cls-3" d="M532.48,282.93,535.6,281C535.5,283.13,534.07,283.16,532.48,282.93Z"/><path class="cls-9" d="M18,223.07c-2-.12-2.17-1.47-2.08-3A4.76,4.76,0,0,1,18,223.07Z"/><path class="cls-3" d="M412.31,439.51l2.29-1.59C414.53,439.44,413.87,440.13,412.31,439.51Z"/><path class="cls-3" d="M219.87,478a3.13,3.13,0,0,1,2.11,1.91C220.53,480.05,219.88,479.35,219.87,478Z"/><path class="cls-8" d="M473.18,495.71c-1.24,1.48-2.92,1.42-4.6,1.33C469.83,495.62,471.5,495.68,473.18,495.71Z"/><path class="cls-8" d="M427.71,499.09c-1.41,1.37-2.76,1.34-4.06-.16Z"/><path class="cls-3" d="M47.08,370.88a3,3,0,0,1,1.82,2.18C47.52,373,46.82,372.33,47.08,370.88Z"/><path class="cls-3" d="M50,374.89A3.11,3.11,0,0,1,51.91,377C50.52,377,49.83,376.33,50,374.89Z"/><path class="cls-3" d="M87.85,412A2.91,2.91,0,0,1,90,413.83C88.57,414.09,87.93,413.38,87.85,412Z"/><path class="cls-3" d="M540.4,101.42a2.67,2.67,0,0,1-1.79-2.19C540,99.32,540.7,100,540.4,101.42Z"/><path class="cls-3" d="M59,385.89A3.16,3.16,0,0,1,61,388C59.55,388,58.86,387.35,59,385.89Z"/><path class="cls-3" d="M71.91,398.94a3.2,3.2,0,0,1,2.1,2C72.56,401.05,71.89,400.36,71.91,398.94Z"/><path class="cls-3" d="M569.2,157.3l-2.41,2C566.84,157.72,567.77,157.21,569.2,157.3Z"/><path class="cls-3" d="M83.85,408.93A3.15,3.15,0,0,1,86,410.86C84.54,411.07,83.91,410.33,83.85,408.93Z"/><path class="cls-3" d="M434.63,417.05l1.62-2.34C436.73,416.2,436.09,416.91,434.63,417.05Z"/><path class="cls-3" d="M549.49,272.92a2.91,2.91,0,0,1,2.19-1.85C551.57,272.42,550.89,273.1,549.49,272.92Z"/><path class="cls-3" d="M20.7,208.67l-4-.35C18.2,206.86,19.55,206.56,20.7,208.67Z"/><path class="cls-3" d="M418.37,434.75l2.19-1.87C420.59,434.4,419.89,435.06,418.37,434.75Z"/><path class="cls-3" d="M38.81,239.13c1,.76,1,1.89,1,3l-.37.29-1.16-2.87Z"/><path class="cls-3" d="M22.36,223.29c-.9,1.44-2.18,1.05-3.45.71v.12a8,8,0,0,0-.12-1Z"/><path class="cls-3" d="M531.44,89.47,530,89.06c-.25-.5-.49-1-.74-1.52l.42-.38A2.52,2.52,0,0,1,531.44,89.47Z"/><path class="cls-3" d="M44.81,255.14c1,.75,1,1.87,1,3l-.37.28-1.05-2.94C44.53,255.34,44.67,255.24,44.81,255.14Z"/><path class="cls-3" d="M41.81,247.14c1,.76,1,1.88,1,3l-.4.3c-.38-1-.75-1.93-1.12-2.9Z"/><path class="cls-3" d="M32.91,228c-.07-.65-.15-1.29-.23-1.93a2.46,2.46,0,0,1,1.14,2.06l-.21.17a7.49,7.49,0,0,1-.71-.28Z"/><path class="cls-3" d="M33.82,228.15l1,2-.29.25a4.35,4.35,0,0,1-.63-.25l-.06-.09c-.07-.58-.15-1.16-.22-1.74Z"/><path class="cls-3" d="M30.69,221.26l-1-2.07A2,2,0,0,1,30.69,221.26Z"/><path class="cls-3" d="M28.9,339l1,2.08A2,2,0,0,1,28.9,339Z"/><path class="cls-3" d="M37.81,237.14c.33.66.67,1.32,1,2l-.53.41-.84-2.12Z"/><path class="cls-3" d="M578.49,239.07a2,2,0,0,1,1-2.08A1.75,1.75,0,0,1,578.49,239.07Z"/><path class="cls-3" d="M577.5,241.07a2.14,2.14,0,0,1,1-2.06A1.78,1.78,0,0,1,577.5,241.07Z"/><path class="cls-3" d="M514.46,290.88l2.21-.89A1.83,1.83,0,0,1,514.46,290.88Z"/><path class="cls-3" d="M537.7,280.13l2-1.08A2.17,2.17,0,0,1,537.7,280.13Z"/><path class="cls-3" d="M542.76,277.16l1.92-1.11A2.21,2.21,0,0,1,542.76,277.16Z"/><path class="cls-3" d="M34.81,230.15c.34.66.67,1.32,1,2l-.44.34-.85-2.07Z"/><path class="cls-3" d="M29.87,341c.35.69.7,1.38,1,2.08A2.13,2.13,0,0,1,29.87,341Z"/><path class="cls-3" d="M544.63,276.08l2-1.12A2,2,0,0,1,544.63,276.08Z"/><path class="cls-3" d="M30.87,343l1.05,2.06A2.09,2.09,0,0,1,30.87,343Z"/><path class="cls-3" d="M532.63,91.27a1.94,1.94,0,0,1-1.17-1.93A1.74,1.74,0,0,1,532.63,91.27Z"/><path class="cls-3" d="M547.62,274.07a2.17,2.17,0,0,1,2-1.14A1.88,1.88,0,0,1,547.62,274.07Z"/><path class="cls-3" d="M102,421.85a1.81,1.81,0,0,1,2,1.06C103,423,102.26,422.85,102,421.85Z"/><path class="cls-3" d="M14.76,217.24c-.35-.69-.71-1.38-1.07-2.06A2.16,2.16,0,0,1,14.76,217.24Z"/><path class="cls-3" d="M28.69,217.27c-.43-.68-.87-1.35-1.31-2A1.79,1.79,0,0,1,28.69,217.27Z"/><path class="cls-3" d="M11,216.26l-.39,1.84C9.82,217.29,10,216.67,11,216.26Z"/><path class="cls-3" d="M17.81,216.17l1.27,1.89A2,2,0,0,1,17.81,216.17Z"/><path class="cls-3" d="M29.7,219.26l-1.05-2.06A2,2,0,0,1,29.7,219.26Z"/><path class="cls-3" d="M75.94,402.87a2.08,2.08,0,0,1,1.91,1.21A1.82,1.82,0,0,1,75.94,402.87Z"/><path class="cls-3" d="M557.69,266.13a2.1,2.1,0,0,1,1.88-1.22A1.86,1.86,0,0,1,557.69,266.13Z"/><path class="cls-3" d="M48.86,373A2.29,2.29,0,0,1,50,375,1.86,1.86,0,0,1,48.86,373Z"/><path class="cls-3" d="M85.91,410.89a2.17,2.17,0,0,1,2,1.16A1.86,1.86,0,0,1,85.91,410.89Z"/><path class="cls-3" d="M437.45,413l1.23-2A1.84,1.84,0,0,1,437.45,413Z"/><path class="cls-3" d="M436.22,414.77l1.31-1.89C437.61,413.87,437.41,414.66,436.22,414.77Z"/><path class="cls-3" d="M89.92,413.88a2.07,2.07,0,0,1,2,1.12A1.77,1.77,0,0,1,89.92,413.88Z"/><path class="cls-3" d="M433.32,418.87l1.34-1.86C434.63,417.94,434.38,418.69,433.32,418.87Z"/><path class="cls-3" d="M95.89,417.9a2.22,2.22,0,0,1,2,1.12A1.86,1.86,0,0,1,95.89,417.9Z"/><path class="cls-3" d="M430.25,422.76c.47-.58.93-1.17,1.4-1.76C431.62,421.94,431.37,422.7,430.25,422.76Z"/><path class="cls-3" d="M530.52,284l2.08-1.12A1.78,1.78,0,0,1,530.52,284Z"/><path class="cls-3" d="M109.82,426l2.05,1.06A2.07,2.07,0,0,1,109.82,426Z"/><path class="cls-3" d="M415.65,437.05l1.69-1.44C417.33,436.74,416.57,437,415.65,437.05Z"/><path class="cls-3" d="M55.85,382A2.08,2.08,0,0,1,57,384,1.77,1.77,0,0,1,55.85,382Z"/><path class="cls-3" d="M564.48,260a2.09,2.09,0,0,1,1.23-1.86A1.86,1.86,0,0,1,564.48,260Z"/><path class="cls-3" d="M410.51,440.91l1.75-1.36C412.29,440.79,411.49,441,410.51,440.91Z"/><path class="cls-3" d="M407.52,442.93c.61-.45,1.23-.89,1.85-1.33C409.29,442.78,408.49,443,407.52,442.93Z"/><path class="cls-3" d="M552.83,270.17c.6-.4,1.21-.79,1.81-1.2A2,2,0,0,1,552.83,270.17Z"/><path class="cls-3" d="M400.64,447.05l2-1.13A2,2,0,0,1,400.64,447.05Z"/><path class="cls-3" d="M9.84,220.18c0,.81.05,1.64-.81,2.11A1.88,1.88,0,0,1,9.84,220.18Z"/><path class="cls-3" d="M575.48,245a2.07,2.07,0,0,1,1.07-2A1.74,1.74,0,0,1,575.48,245Z"/><path class="cls-3" d="M339.59,477l1.14-2A2,2,0,0,1,339.59,477Z"/><path class="cls-3" d="M37.83,356.07l1.11,2A2.08,2.08,0,0,1,37.83,356.07Z"/><path class="cls-3" d="M307.53,482a2.21,2.21,0,0,1,1.09-2A1.78,1.78,0,0,1,307.53,482Z"/><path class="cls-3" d="M322.51,483a2,2,0,0,1,1.14-2A1.75,1.75,0,0,1,322.51,483Z"/><path class="cls-3" d="M305.51,485a2.09,2.09,0,0,1,1.16-2A1.8,1.8,0,0,1,305.51,485Z"/><path class="cls-8" d="M212.17,486.88c-1.11-.19-1.3-1-1.31-1.94C211.3,485.59,211.74,486.23,212.17,486.88Z"/><path class="cls-3" d="M318.7,486.07a2.26,2.26,0,0,1,1.94-1.19A1.91,1.91,0,0,1,318.7,486.07Z"/><path class="cls-3" d="M38.89,358A2.37,2.37,0,0,1,40,360,1.86,1.86,0,0,1,38.89,358Z"/><path class="cls-3" d="M301.68,488.05a2.1,2.1,0,0,1,1.92-1.19A1.8,1.8,0,0,1,301.68,488.05Z"/><path class="cls-3" d="M315.63,488a2.35,2.35,0,0,1,2.06-1.09A1.91,1.91,0,0,1,315.63,488Z"/><path class="cls-3" d="M313.61,489a2.32,2.32,0,0,1,2.1-1A1.88,1.88,0,0,1,313.61,489Z"/><path class="cls-3" d="M311.75,489.18l1.9-.32C313.19,490,312.54,490,311.75,489.18Z"/><path class="cls-3" d="M32.88,347,34,349.08A2,2,0,0,1,32.88,347Z"/><path class="cls-3" d="M528.52,285l2.11-1.08A1.86,1.86,0,0,1,528.52,285Z"/><path class="cls-3" d="M31.87,345l1.05,2.07A2.1,2.1,0,0,1,31.87,345Z"/><path class="cls-3" d="M535.55,281a1.94,1.94,0,0,1,.34-.9h1.81A2.24,2.24,0,0,1,535.55,281Z"/><path class="cls-3" d="M51.87,377A2.14,2.14,0,0,1,53,379,1.78,1.78,0,0,1,51.87,377Z"/><path class="cls-3" d="M576.51,243.07a2.09,2.09,0,0,1,1-2.07A1.81,1.81,0,0,1,576.51,243.07Z"/><path class="cls-3" d="M67.83,395l1.07,1.07Z"/><path class="cls-3" d="M68.83,396l1.07,1.06Z"/><path class="cls-3" d="M554.57,269.08l1.09-1.05Z"/><path class="cls-3" d="M69.83,397l1.08,1.06Z"/><path class="cls-3" d="M70.83,398l1.1,1.05Z"/><path class="cls-3" d="M555.6,268.1l1.08-1.05Z"/><path class="cls-3" d="M73.89,401l1,1.12Z"/><path class="cls-3" d="M77.81,404.05l1.09,1Z"/><path class="cls-3" d="M440.51,408c.27-.43.53-.87.8-1.31Z"/><path class="cls-3" d="M559.52,265a1,1,0,0,1,1.05-1Z"/><path class="cls-3" d="M511.57,69.36a1,1,0,0,1-1.05-1Z"/><path class="cls-3" d="M52.94,378.94,54,380Z"/><path class="cls-3" d="M512.6,70.35l-1.06-1Z"/><path class="cls-3" d="M513.64,71.33l-1.09-1.06Z"/><path class="cls-3" d="M514.65,72.3l-1.08-1Z"/><path class="cls-3" d="M514.72,73.17a7.1,7.1,0,0,1-.17-.92l1.19.92-.18.18A5.69,5.69,0,0,1,514.72,73.17Z"/><path class="cls-3" d="M515.74,73.17l1,1-.16.13-1-1Z"/><path class="cls-3" d="M516.73,74.17c.31.37.61.75.91,1.13q-.45-.09-.9-.21l0,0a7.79,7.79,0,0,1-.22-.83Z"/><path class="cls-3" d="M53.89,380l1,1.09Z"/><path class="cls-3" d="M94.84,417l1.1,1Z"/><path class="cls-9" d="M516.74,75.09q.45.12.9.21c.07.28.13.55.19.83C517.46,75.79,517.1,75.44,516.74,75.09Z"/><path class="cls-9" d="M518.81,77.14c-.35-.36-.71-.71-1.07-1.07Z"/><path class="cls-3" d="M54.85,381l1,1.1Z"/><path class="cls-3" d="M560.53,264a1.07,1.07,0,0,1,1.05-1.06Z"/><path class="cls-3" d="M432.48,420l1-1.24Z"/><path class="cls-3" d="M431.61,421.07l1-1.2Z"/><path class="cls-9" d="M519.81,78.14c-.35-.36-.71-.71-1.07-1.07C519.1,77.43,519.46,77.78,519.81,78.14Z"/><path class="cls-3" d="M74.84,402,76,403Z"/><path class="cls-3" d="M561.52,263c.36-.35.71-.71,1.06-1.06C562.23,262.31,561.88,262.67,561.52,263Z"/><path class="cls-9" d="M520.81,79.14l-1.07-1.07Z"/><path class="cls-9" d="M521.81,80.13l-1.07-1.06Z"/><path class="cls-3" d="M562.52,262c.36-.35.71-.71,1.06-1.06C563.23,261.31,562.88,261.67,562.52,262Z"/><path class="cls-3" d="M426.54,427l1.06-1.17Z"/><path class="cls-9" d="M522.79,81.08l-1-1,.83.19C522.64,80.53,522.71,80.81,522.79,81.08Z"/><path class="cls-3" d="M425.56,428.05c.37-.37.73-.75,1.09-1.12C426.29,427.3,425.93,427.68,425.56,428.05Z"/><path class="cls-3" d="M423.59,430.06l1.08-1.11Z"/><path class="cls-3" d="M422.59,431.05l1.08-1.08Z"/><path class="cls-3" d="M421.55,432l1.12-1.06Z"/><path class="cls-3" d="M563.52,261a1.06,1.06,0,0,1,1.05-1.06Z"/><path class="cls-3" d="M420.48,433l1.17-1.05Z"/><path class="cls-3" d="M417.29,435.7l1.16-1A1,1,0,0,1,417.29,435.7Z"/><path class="cls-3" d="M522.79,81.08c-.08-.27-.15-.55-.21-.83l1,1.06-.88-.23Z"/><path class="cls-3" d="M414.53,438l1.16-1Z"/><path class="cls-9" d="M522.75,81.08l.88.23c0,.27.1.54.16.81Z"/><path class="cls-9" d="M524.74,83.13l-1-1a4.91,4.91,0,0,0,.76.17C524.59,82.55,524.66,82.84,524.74,83.13Z"/><path class="cls-3" d="M524.74,83.13c-.08-.29-.15-.58-.22-.87l1.21.91-.18.16-.81-.2Z"/><path class="cls-3" d="M409.32,441.71l1.28-.86Z"/><path class="cls-3" d="M52.76,258.14l-1,1Z"/><path class="cls-3" d="M406.32,443.7l1.29-.84Z"/><path class="cls-3" d="M566.61,257.12l1-1.09Z"/><path class="cls-3" d="M526.64,84.32c-.32,0-.64-.11-.95-.18-.05-.27-.09-.54-.14-.81l.18-.16C526,83.55,526.34,83.93,526.64,84.32Z"/><path class="cls-3" d="M526.74,85.28l-.18-1,1.17.93-.25.26Z"/><path class="cls-3" d="M527.73,85.17l1,1-.33.32-.91-1.06Z"/><path class="cls-3" d="M207,455.1a1.45,1.45,0,0,1,.1-.92,3.14,3.14,0,0,1,.15.66C207.23,454.92,207.06,455,207,455.1Z"/><path class="cls-3" d="M214.89,471.93c.33.38.66.75,1,1.12C215.55,472.68,215.22,472.31,214.89,471.93Z"/><path class="cls-3" d="M528.72,86.17l1,1-.42.38-.9-1.05Z"/><path class="cls-3" d="M543.6,106.32l-1-1.11Z"/><path class="cls-3" d="M549.57,116.33l-1-1.11Z"/><path class="cls-3" d="M218.82,477l1.07,1.07Z"/><path class="cls-3" d="M578.64,160.29l-1.07-1.1Z"/><path class="cls-3" d="M338.66,478.06l1-1.08Z"/><path class="cls-3" d="M57,383.93a1,1,0,0,1,1,1Z"/><path class="cls-3" d="M337.69,479.07l1-1.05Z"/><path class="cls-3" d="M336.71,480.08l1-1Z"/><path class="cls-3" d="M570.57,252.11l1.06-1.1Z"/><path class="cls-3" d="M16.47,208.27l-1.6,1.11Z"/><path class="cls-3" d="M323.62,481.05l1-1.13Z"/><path class="cls-3" d="M335.7,481.08c.34-.34.68-.68,1-1C336.38,480.4,336,480.74,335.7,481.08Z"/><path class="cls-6" d="M471.89,480.29l-.64.28.27-.65Z"/><path class="cls-3" d="M15.06,209.31a1.64,1.64,0,0,1-.3.83,5.54,5.54,0,0,1-.12-.71A1.89,1.89,0,0,1,15.06,209.31Z"/><path class="cls-3" d="M11.63,215.18l-.72,1.11Z"/><path class="cls-3" d="M334.66,482.06l1.06-1Z"/><path class="cls-3" d="M16.91,214.66c.29.49.58,1,.88,1.47C17.49,215.64,17.2,215.15,16.91,214.66Z"/><path class="cls-3" d="M306.63,483.05l1-1.11Z"/><path class="cls-3" d="M571.54,251.06c.09-.59.35-1,1-1.09Z"/><path class="cls-3" d="M39.89,360l1,1.12Z"/><path class="cls-3" d="M321.56,484a1.06,1.06,0,0,1,1.05-1.07Z"/><path class="cls-3" d="M320.56,485l1.07-1.06Z"/><path class="cls-3" d="M330.61,485l1.13-.91Z"/><path class="cls-9" d="M18.8,223.15a8,8,0,0,1,.12,1L17.83,223C18.16,223,18.48,223.09,18.8,223.15Z"/><path class="cls-3" d="M304.55,485.94a1,1,0,0,1,1-1.05Z"/><path class="cls-3" d="M303.55,487a1,1,0,0,1,1-1.05C304.24,486.24,303.9,486.6,303.55,487Z"/><path class="cls-3" d="M317.61,487l1.12-1Z"/><path class="cls-3" d="M546.57,275.06l1.1-1Z"/><path class="cls-3" d="M60.86,388l1.07,1.09Z"/><path class="cls-3" d="M61.85,389l1,1.09Z"/><path class="cls-3" d="M574.61,246.11l1-1.12Z"/><path class="cls-3" d="M57.93,384.93,59,386Z"/><path class="cls-3" d="M62.83,390l1.06,1.07Z"/><path class="cls-3" d="M63.83,391l1.06,1.07Z"/><path class="cls-3" d="M64.83,392c.35.35.7.71,1.06,1.06C65.53,392.73,65.18,392.37,64.83,392Z"/><path class="cls-8" d="M421.68,499.23q-.45.66-.9,0A1.27,1.27,0,0,1,421.68,499.23Z"/><path class="cls-3" d="M65.83,393c.35.35.7.71,1.06,1.06Z"/><path class="cls-3" d="M66.83,394l1.06,1.06Z"/><path class="cls-8" d="M209,482c-.35-.4-.69-.81-1-1.22C208.75,480.83,208.85,481.44,209,482Z"/><path class="cls-10" d="M186.55,293.24c-1.28-3.54-2.75-7-3.79-10.63-2.06-7.18-3.87-14.45-2.09-22,1.41-5.93,5.59-9.19,11.78-9.5a50.66,50.66,0,0,1,20.33,3.11c-3.69-9.22-7.2-17.45-8.58-26.3-1.25-8-2.88-16,.4-24.08a13.8,13.8,0,0,1,6.33-7.36,42.07,42.07,0,0,1,15.67-4.73c10.88-1.27,21.83-1.65,32.68.13,6,1,6.13,1.83,4.93,7.69a111.45,111.45,0,0,1-25.11,50.81c-11.14,13.07-19.51,28.12-28.72,42.55-11.92,18.65-26.11,35-47.52,43.14-17.49,6.65-35.05,6.42-52.48-.61-3.62-1.46-5.1-3.19-3.9-7.53,3.49-12.69,8.68-24.38,17.42-34.37,7.76-8.87,16.87-10.77,27.26-5.19,5.88,3.16,11.32,7,15.26,12.58.82,1.17,1.84,3,3.4,2.49,1.84-.54.76-2.58.91-3.95s0-2.67.09-4c.64-6.1,4.5-8,9.82-4.84,1.69,1,3.31,2.12,5,3.19Z"/><path class="cls-11" d="M293.38,101.3c6.42-.43,4.92,1.94,3.8,4.13-6.4,12.49-11.84,25.41-14.84,39.09-3.18,14.43-11.25,27-14.63,41.28-.54,2.28-2.37,2.44-4.33,2.42-6.68,0-17.53-10.79-17.62-17.5,0-3.78,2.54-5.61,5.39-7.11a14.24,14.24,0,0,1,7.26-1.53c.94,0,2.21.31,2.65-.81.55-1.43-.82-2-1.71-2.67-6.18-4.35-10.18-10.41-13.34-17.1-3.94-8.33-2.15-15.53,4.52-21.62C263.2,108.29,278.65,103.29,293.38,101.3Z"/><path class="cls-12" d="M341.11,23.13c7.2.35,16.85,5.32,25.81,11.89,3.36,2.47.46,3.4-1.44,4.31-10.06,4.78-20.06,9.72-28.68,16.92-5.21,4.36-10.22,9-15.13,13.68-2.37,2.27-3.59,2-4.2-1.13-2.38-12.25-2.77-24.42,2.52-36.07C323.36,25.3,327.78,23,341.11,23.13Z"/><path class="cls-12" d="M422.34,4.3a23.79,23.79,0,0,1,13.41,5.62c6.34,5.28,10.93,12,14.92,19.12.55,1,1.4,2.1.71,3.24-.79,1.32-2,.53-3.13.28a138.64,138.64,0,0,0-47.88-2.49c-1.7.21-4,1-5.13-.74s.47-3.56,1.46-4.93C402.76,16,409.2,8,419.8,5,420.75,4.72,421.71,4.47,422.34,4.3Z"/><path class="cls-7" d="M88.8,292.15c11.79-.06,20.17,11.58,16.84,22.08-1.36,4.27-2.67,8.56-3.81,12.89-.7,2.67-1.7,3.27-4.14,1.62C87,321.49,78.55,312,71.09,301.54c-2.5-3.5.38-5.22,3-6.3C79.09,293.23,84.45,292.92,88.8,292.15Z"/><path class="cls-13" d="M247.73,247.18c3,1.72,6.66.88,9.7,3.22,6.35,4.87,7.51,11.42,6,18.33s-5.71,12.12-12.76,14.14c-6.39,1.83-13.73-2.72-15.6-9.22-.64-2.2-.67-4.62-2.25-6.5A185.79,185.79,0,0,1,247.73,247.18Z"/><path class="cls-12" d="M503.85,58.1c-8.49-7.75-19.14-11.77-29.21-16.77-1.45-.71-3.24-.79-4.39-2.72,6.52-3.76,13.11-7.07,20.54-8.36,6-1,10,2.1,12.75,6.8,3.46,6,4.75,12.66,5.27,19.52.2,2.55-.68,3.37-3.09,2.58Z"/><path class="cls-11" d="M302,72.12c3.27-.33,7.2.37,11.13,1.11,2.86.54,4.31,1.49,2,4.55-3.79,5-7.24,10.34-11,15.42a8.31,8.31,0,0,1-13.49-.29,45.93,45.93,0,0,1-3.52-6c-4-8.38-.15-14.54,9.12-14.76C297.87,72.09,299.53,72.12,302,72.12Z"/><path class="cls-1" d="M503.85,58.1l1.87,1c0,1.59,1.39,2.13,2.37,3,2,1.68,1.49,3.07-.52,4.27l.08-.08-1.09-1,.06.09a2,2,0,0,0-1.9-1.19l-1.05-.85-1.1-1.07.06.09-1.09-1-.15.12C501.71,59.94,501.85,58.33,503.85,58.1Z"/><path class="cls-9" d="M44.4,255.45l1.05,2.94c.15.88.3,1.76.44,2.64-2.24-2.18-2.74-5-3-7.95Z"/><path class="cls-9" d="M53,279.07c-1.18-.68-1.11-1.82-1.08-2.94Z"/><path class="cls-9" d="M48.93,269.09c-1.17-.68-1.06-1.83-1.06-2.93C48.22,267.14,48.58,268.11,48.93,269.09Z"/><path class="cls-9" d="M46.94,264.09c-1.17-.71-1.07-1.86-1-3C46.26,262.09,46.6,263.09,46.94,264.09Z"/><path class="cls-9" d="M50.93,274.05a2.21,2.21,0,0,1-1-2.34Z"/><path class="cls-9" d="M54,281.06a2,2,0,0,1-1-2.06Z"/><path class="cls-9" d="M51.85,276a2,2,0,0,1-.94-2C51.23,274.71,51.54,275.37,51.85,276Z"/><path class="cls-9" d="M49.76,271a2,2,0,0,1-.88-1.94C49.17,269.69,49.47,270.34,49.76,271Z"/><path class="cls-9" d="M47.82,266.05a2.08,2.08,0,0,1-.93-2Z"/><path class="cls-9" d="M54.94,283a2,2,0,0,1-1-2Z"/><path class="cls-3" d="M536.71,258.24c-28.55,20.31-59.56,23-92,11.77-19-6.59-34.11-18.45-42.29-37.64a22.93,22.93,0,0,1-.74-2.35c1.16-2.92,3.15-1.6,5-.92,28.33,10.58,57.82,14.06,87.81,14.14,16.54,0,33-1.55,48.45-8.05,2.91-1.22,3.58,0,3.66,2.54.21,6.36-2.45,11.61-6.36,16.36C539.08,255.49,537.89,256.86,536.71,258.24ZM410.25,235.48c-.44-.24-.92-.49-1.23.13,0,.07.42.39.65.59,2.91,6.13,7.4,11,12.48,15.32,18.06,15.49,39.47,20.58,62.63,19.84,16.62-.54,32.18-4.78,45.74-14.85,4.86-3.61,9.14-7.78,10.49-14.07.11-.34.23-.69.34-1l-1.13,0a80.89,80.89,0,0,1-13.41,3.76C487.1,252.21,448.37,247.51,410.25,235.48Z"/><path class="cls-1" d="M387.86,160.28c1.11-5.12,6.88-9,13.07-8.86,8.79.25,15.9,7.91,16.72,18.05s-5,18.62-13.85,20.19S386.17,183.4,385,172.52c-.38-3.49-1.29-7.33,1.86-10.3h0c-.09,3.17,1.18,5.16,4.6,4.86a3.18,3.18,0,0,0,3.09-3.74c-.45-3.25-3-3.46-5.65-3.1a7.93,7.93,0,0,1-1,.06Z"/><path class="cls-14" d="M369.78,313.61c11.44,10.6,20.9,22.66,27.33,37a37.65,37.65,0,0,1,3.48,12.4c.77,9.75-3.14,15.48-12.49,18.22-11,3.21-22,2-33.08.49l-8.36-1.15c-7.15-2.2-14.34-4.26-21.42-6.67-2.24-.76-6.33-1.17-5-4.78s4.4-.75,6.44,0a136.11,136.11,0,0,0,46.85,9A37.84,37.84,0,0,0,391,374.2c2.95-1.48,3.27-3.1.41-5a13.65,13.65,0,0,1-1.65-1.12c-1.19-1.05-3.28-1.71-2.79-3.69.39-1.64,2.33-1.89,3.74-2,4.13-.41,4.35-2.45,3.06-5.8-5.36-13.93-14-25.65-24.15-36.39C367.49,318,364.63,315.65,369.78,313.61Z"/><path class="cls-15" d="M340,197.46c7.6.09,14.44,7,14.28,14.41-.15,7.2-7,14.08-14.13,14.11a14.24,14.24,0,0,1-14.1-13.86C326,204.39,332.69,197.38,340,197.46Z"/><path class="cls-13" d="M264.78,432.82c.09-4.13,2.8-6.74,7-6.71,3.64,0,7.12,3.48,7,6.91-.17,3.63-3.69,7.08-7.11,7A7.59,7.59,0,0,1,264.78,432.82Z"/><path class="cls-3" d="M537.8,168.07a7.12,7.12,0,0,1-7-6.92c.06-3.32,3.43-6.62,6.83-6.69a7.27,7.27,0,0,1,7,6.47A7.2,7.2,0,0,1,537.8,168.07Z"/><path class="cls-13" d="M419.71,78.63c-.1-4,2-5.44,5.87-5.54,4.29-.13,6,2,6.13,5.92a5.75,5.75,0,0,1-6.17,6.16C421.93,85.07,419.68,82.55,419.71,78.63Z"/><path class="cls-13" d="M268.74,298.49c-.23,3.83-2.16,6.31-6.1,6.52s-5.62-2.76-5.73-6.13c-.12-3.79,2.33-5.54,6.06-5.78C266.87,292.86,268.33,295,268.74,298.49Z"/><path class="cls-13" d="M350.3,342.15c-3.17-.07-4.42-2.33-4.37-5.2,0-2.5,1.87-3.84,4.33-3.75,3,.1,5.11,1.89,5.27,4.83C355.7,341.13,353.37,342.16,350.3,342.15Z"/><path class="cls-3" d="M341.86,406.19c0,.57.07,1.15.11,1.72l-.3.27c-2.13-.22-3.08.74-2.86,2.86l-.18.17L334.75,405c-.9-1.43-1-2.8.52-3.84s2.77-.09,3.73,1.14S340.91,404.89,341.86,406.19Z"/><path class="cls-13" d="M427.68,64.53c.05,1.53-.53,2.52-2.2,2.58-1.48.06-2.62-.37-2.62-2.1a2.48,2.48,0,0,1,2.31-2.67C426.79,62.12,427.61,62.92,427.68,64.53Z"/><path class="cls-9" d="M37.44,237.42l.84,2.12,1.16,2.87c.16.88.32,1.76.49,2.65a19.14,19.14,0,0,1-4-10Z"/><path class="cls-9" d="M41.3,247.52c.37,1,.74,1.93,1.12,2.9.16.88.32,1.75.49,2.63a9.66,9.66,0,0,1-3-8Z"/><path class="cls-9" d="M528.39,86.49l.9,1.05c.25.51.49,1,.74,1.52a4.35,4.35,0,0,1-3.3-3.78l.75.15C527.78,85.78,528.08,86.14,528.39,86.49Z"/><path class="cls-9" d="M34.52,230.4l.85,2.07c.19.87.37,1.73.56,2.6-1.71-1.22-2.09-3-2-4.92A4.35,4.35,0,0,0,34.52,230.4Z"/><path class="cls-9" d="M516.57,74.3a7.79,7.79,0,0,0,.22.83,1.9,1.9,0,0,1-2.07-2,5.69,5.69,0,0,0,.84.18Z"/><path class="cls-7" d="M585.9,193.23A1.86,1.86,0,0,1,586,196C586,195.11,586,194.17,585.9,193.23Z"/><path class="cls-9" d="M33.61,228.32c.07.58.15,1.16.22,1.74a2.11,2.11,0,0,1-.94-2C33.13,228.14,33.36,228.24,33.61,228.32Z"/><path class="cls-1" d="M386.82,162.22c0-.81-.43-1.89,1-1.94h0c-.19.74-.13,1.6-1.06,1.92Z"/><path class="cls-7" d="M586,207.23a1.05,1.05,0,0,1-.09,1.84Z"/><path class="cls-3" d="M504.72,64.17a2,2,0,0,1,1.9,1.19Z"/><path class="cls-3" d="M502.57,62.25l1.1,1.07Z"/><path class="cls-3" d="M506.56,65.27l1.09,1Z"/><path class="cls-9" d="M525.55,83.33c.05.27.09.54.14.81l-1-1Z"/><path class="cls-3" d="M501.54,61.3l1.09,1Z"/><path class="cls-9" d="M460.36,304c.37,8.07.91,16.14-.64,24.16-25.6.72-48.83-6-69.06-22.07-2-1.62-4.42-3-4.92-5.95h0C410.46,304.34,435.38,304.77,460.36,304Z"/><path class="cls-9" d="M385.74,300.13l-.34-.17.33.18Z"/><path class="cls-11" d="M449.28,452.1c-3-.35-4.55-1.83-4.47-4.62.07-2.51,1.41-4.26,4-4.17,3,.09,4.38,2.52,4.58,5.06S451.36,451.86,449.28,452.1Z"/><path class="cls-1" d="M338.81,411c-.22-2.12.73-3.08,2.86-2.86Q342,411.38,338.81,411Z"/><path class="cls-1" d="M344.69,418.61c.17.21.35.41.52.61a5.12,5.12,0,0,1-.73.39c-.05,0-.3-.28-.27-.34A4.26,4.26,0,0,1,344.69,418.61Z"/><path class="cls-16" d="M541,242.44c-1.35,6.29-5.63,10.46-10.49,14.07-13.56,10.07-29.12,14.31-45.74,14.85-23.16.74-44.57-4.35-62.63-19.84-5.08-4.35-9.57-9.19-12.48-15.32a4.46,4.46,0,0,0,.58-.72c38.12,12,76.85,16.73,116.56,9.66a80.89,80.89,0,0,0,13.41-3.76C540.48,241.74,540.75,242.09,541,242.44Z"/><path class="cls-16" d="M409.67,236.2c-.23-.2-.69-.52-.65-.59.31-.62.79-.37,1.23-.13A4.46,4.46,0,0,1,409.67,236.2Z"/><path class="cls-16" d="M540.22,241.38l1.13,0c-.11.35-.23.7-.34,1C540.75,242.09,540.48,241.74,540.22,241.38Z"/><path class="cls-16" d="M386.81,162.21c.93-.32.87-1.18,1.06-1.92a7.93,7.93,0,0,0,1-.06c2.66-.36,5.2-.15,5.65,3.1a3.18,3.18,0,0,1-3.09,3.74C388,167.37,386.72,165.38,386.81,162.21Z"/></g></g></svg>