<svg xmlns="http://www.w3.org/2000/svg" viewBox="0 0 593.67 511.62"><defs><style>.cls-1{fill:#42383f;}.cls-2{fill:#d2cec2;}.cls-3{fill:#f5a43d;}.cls-4{fill:#e1e8cf;}.cls-5{fill:#95cd46;}.cls-6{fill:#f7e7a5;}.cls-7{fill:#457d45;}.cls-8{fill:#467d44;}.cls-9{fill:#e5c186;}.cls-10{fill:#67943d;}.cls-11{fill:#467c45;}.cls-12{fill:#70ae3f;}.cls-13{fill:#e2ebce;}.cls-14{fill:#423a3c;}.cls-15{fill:#483d3b;}.cls-16{fill:#45393d;}</style></defs><g id="Layer_2" data-name="Layer 2"><g id="Layer_1-2" data-name="Layer 1"><path class="cls-1" d="M286.59,509.92c-8.14,2.47-16.29,2-24.44,0-11.45-5.23-21.17-13.11-25.45-24.77-4-10.85-10.64-12.72-20.3-11.16l-.49.09-16-.89c-21.31-1.85-42.49-4.5-63.42-9-8.88-1.92-17.41-5.33-26.52-6.24l.07.06c-.36-1.16-1.23-1-2.11-.8a2.48,2.48,0,0,0-.86-.16c-.62-.5-1.17-1.23-1.88-1.46a271.7,271.7,0,0,1-41.08-17.71l0,0c-3-1.82-5.44-4.5-9.12-5l.08.09L54,432l.07.07-1-1.18.07,0-4.08-3,0,0-5.09-4-1-.83-6.94-6.33L34.3,415l-5.38-5.76L26.18,406l-2.24-2.86-.85-1.11-2.12-3L20.26,398,19,396.11h0c-.65-1-1.3-2-2-3.05l0,0-2-3.26L13,386.11a169.66,169.66,0,0,1-11.08-32c-2.46-15.43-3-30.79,1.09-46.08,3.35-12.65,9-24,18.74-32.95a40.23,40.23,0,0,1,7.2-5.32c16.25-9.19,32.23-.83,33.91,17.75a103.51,103.51,0,0,1,.16,14,4.76,4.76,0,0,0,3.21,5c2.69,1.13,2.8-1.71,3.64-3,3.59-5.43,7.19-10.82,12-15.28,9.9-9.14,19.25-10.32,31-3.89a56.77,56.77,0,0,1,12.3,9.23c1.56-5.22,4.32-8.66,9.46-9.48,2.86-.45,1.1-2.3.89-3.38-1.15-6.09-1.82-12.16-.88-18.36,1.52-10,7.06-15.33,17.27-16.06,3.46-.24,7,0,10.86,0a111.71,111.71,0,0,1-5.37-22.71c-2.75-23.12,5.07-33.35,28-36.65,7.12-1,14.27-1,21.68-1.06-.42-2.56-2.47-3.92-3.66-5.77-4.55-7.06-4.35-12.21,1.23-18.47,1.26-1.42,1.38-1.93.11-3.49-10.37-12.82-8.37-33.58,4.19-44,9.8-8.15,21.26-12.92,33.51-16l4.16-1c-1.89-3.89-4.58-7.09-5.78-11.09-2.7-9,.84-15.56,9.92-17.83a36.17,36.17,0,0,1,16.84-.2c3.2.71,4.28.41,3.79-3.48-1.2-9.62-1.22-19.28,1.55-28.73,4.08-13.91,13.93-20,28.19-17.18a65.64,65.64,0,0,1,28.74,13.26c2.32,1.87,4.35,2,7.22,1.43,6.54-1.25,11-4.12,14.33-10.36A50.1,50.1,0,0,1,370,3.78c8.55-5.23,17.08-5,25.32.62C405,11,411.11,20.48,415.89,30.9c2.6,5.68,6.8,6.89,12.18,3.43,5.91-3.8,12.11-7,19.12-8.27,9.73-1.75,15.92,1.36,20.44,10.22,3.94,7.71,5.39,16,6.06,24.56a6.57,6.57,0,0,0,2.54,5c33.46,28.35,53.82,64.37,61.57,107.35,9.8,54.38.72,106.32-21.77,156.28a26.57,26.57,0,0,0-2.53,11.95c.38,15.84-5,28.4-21,34.34a6,6,0,0,0-3,2.47,118.86,118.86,0,0,1-27.71,29.23c-4.07,3.07-5,5.39-2.31,10.21,5.87,10.39,8.69,21.93,10.11,33.75,1.19,9.87-.39,19.25-6,27.69A31.38,31.38,0,0,1,440.37,490c-10,.25-18.83-3.51-27.48-8-3.67-1.9-6.8-4.76-10.85-6-6.66-6.43-14.68-11.4-20.5-18.71-1.88-2.37-3.48-2.66-6.28-1.58a285,285,0,0,1-49.17,14.11c-4.07.77-7.63,2-10.28,5.26-3.93,2.47-7.82,5-11.82,7.38a3.46,3.46,0,0,0-2.06,3.54C302.62,497.72,296.58,505.09,286.59,509.92ZM497.87,364.13c5.48-3.09,7.85-8.05,7.94-14.37q-4,7.19-8,14.36l-.16.34Zm-13.76-6.74.84-1.22a218.43,218.43,0,0,0,31.2-59.93c.66-1.51,1.41-3,2-4.52A232.93,232.93,0,0,0,531,232.37c4.06-44.79-3.33-87.19-28.46-125.11-33.6-50.7-79.83-78-142.11-71.94-30.45,3-56.27,16.59-77,39.28-20.42,22.33-32.16,49.1-39.29,78.14a37.7,37.7,0,0,1-2.55,8,163.3,163.3,0,0,0-13.52,39.6c-3.62,17.21-9.7,33.2-21.2,46.79a183.37,183.37,0,0,0-14.89,20c-2.32,3.45-4.68,6.88-6.95,10.36-10.1,15.46-19,31.83-32.72,44.59-23.7,22-50.89,29.5-82,18.81-13.47-4.63-24.89-12.27-30.63-26.07-5.55-13.33-4.32-26.35,2.83-38.85.55-1,1.85-1.93,1.17-3.09-.8-1.37-2.41-.77-3.63-.54a18.41,18.41,0,0,0-3.74,1.35C26.33,278,19.9,285.84,16,295.46c-14,34.87-7.16,67.09,14.25,96.6,17.17,23.66,41.9,37,68.65,47.05,38.29,14.41,78.2,18.62,118.72,19,9,.08,9,0,9.61-8.57,0-.24.4-.45.77-.85,1.82.91,3,2.54,4.2,4.06a147.32,147.32,0,0,1,12.57,18.61c5.06,8.68,11,16.67,18.81,23.16,5.17,4.31,10.91,7,17.81,6.53a12.79,12.79,0,0,0,11.75-9.24c1.11-3.81.23-6-3.93-6.86-2.86-.62-6.07-.52-9.65-2.88L291.37,478c32.95-11.25,49.05-39.86,41.87-74-2.89-13.68-9.12-25.63-17.67-36.53-.79-1-2.23-2.11-1.42-3.44.93-1.53,2.36.39,3.61.09a72.49,72.49,0,0,1,17.93,23c6,12.32,8.45,25.45,9.05,39a104.08,104.08,0,0,1-5.31,25.58v1l.64-.4C378,443.2,412.56,427.15,443,402.62a196.22,196.22,0,0,0,41.12-45.22Zm-339.23-64.2a11.7,11.7,0,0,1-4.47-2.1c-6.26-3.84-10.22-1.72-10.49,5.64-.08,2.2,0,4.41,0,6.62l-1.68.86a87.76,87.76,0,0,0-5.7-6.88,46.45,46.45,0,0,0-14.21-10c-7.19-3.14-13.94-3.19-20.55,2.09-9.31,7.44-14.23,17.81-19.92,27.73-1.18,2.05-1.82,5.76-4.49,5.14-2.46-.57-1.35-4.11-1.27-6.3.19-4.88-.2-9.07-6.3-10-2.27-.33-1.9-1.8-.89-3.3,5.29-7.87,3.35-16,.14-23.75-2.14-5.19-5.1-5.15-8.26-.62a35.53,35.53,0,0,0,7.84,48.34C75,342.32,98.07,344.93,122.08,336c21.29-7.92,35.3-24.25,47.28-42.67,8.52-13.1,15.75-27.13,25.95-39,14.13-16.49,24.42-34.69,28.74-56.16.81-4-.09-5.36-3.8-6-15.27-2.74-30.4-2.4-45.27,2.15-8.81,2.7-12.61,8.08-13.06,17.37-.38,7.89,1.1,15.53,3,23.14,1.57,6.4,4.32,12.38,7,19.32-5.92-2.39-11.27-2.79-16.74-3.12-13-.79-17.09,8.21-15.87,19,.91,8,3.73,15.44,5.76,23.11Zm106.44-192c-14.21,2.32-29.09,7.24-41.16,18.31C202,127,201.06,133.27,206,143.2c2.89,5.85,6.62,11.16,12,15.05.93.67,2.4,1.24,2.13,2.5-.36,1.67-2.09,1.35-3.35,1.34a14.92,14.92,0,0,0-9.23,3.28,6.28,6.28,0,0,0-2.62,5.13c-.17,7,11.39,18.19,18.29,17.75,1.63-.1,3.08-.4,3.53-2.14,3.19-12.27,9.88-23.27,13.12-35.45,4.08-15.32,8.83-30.32,16.11-44.43C258.48,101.39,258.34,101.05,251.32,101.2ZM461.9,458.66c-1.25-13.48-6.71-25.45-14-36.75-1.47-2.26-3-1.57-4.59-.45-14.1,9.82-29.54,17.23-44.88,24.82-2.08,1-2.94,2-1,4,12.7,13.28,26.71,24.44,45.28,28.36,5.79,1.23,10.45-.64,14.22-5S461.52,464.17,461.9,458.66Zm-187-404.61c-.57,4.05,1.18,7.88,1.1,11.9,0,1.92.21,4.48,2,5.32s2.77-1.86,4.27-2.76a16.69,16.69,0,0,0,3.46-2.82c11.06-11.64,24.3-20.08,39-26.25,3.76-1.57,3.46-2.87.61-5a65,65,0,0,0-22.83-10.85c-13.54-3.46-21.21.88-25.45,14.24C275.45,43.12,275.45,48.63,274.91,54.05ZM381.65,4.26l-2.28.59C368.45,7.68,362,16,355.83,24.44c-1,1.36-2.66,3.14-1.42,4.92s3.43.92,5.15.72a138,138,0,0,1,47.9,2.51c1,.22,2,.84,2.81,0,1.09-1.06.29-2.2-.26-3.17-4.66-8.29-9.87-16.14-18-21.57A25,25,0,0,0,381.65,4.26Zm47.08,34.81c13.32,5.82,25.5,12.08,36.83,19.89,2.15,1.48,2.4-.34,2.39-2a40.45,40.45,0,0,0-5.58-20.39c-2.66-4.52-6.78-7.26-12.5-6.32C442.42,31.48,435.88,34.82,428.73,39.07ZM257.08,96.19a5.83,5.83,0,0,0,6.26-2.94,104.54,104.54,0,0,1,10.74-14.91c2.23-2.52,2-4.32-1.7-5.12a67.7,67.7,0,0,0-19.31-.94c-5.73.41-8.72,4.46-8.21,10.14C245.48,89.29,251.39,96.25,257.08,96.19Z"/><path class="cls-2" d="M286.59,509.92c10-4.83,16-12.2,15.34-23.87a3.46,3.46,0,0,1,2.06-3.54c4-2.37,7.89-4.91,11.82-7.38,8.38-1.53,16.74-.46,25.15-.26,20.36.48,40.73.34,61.08,1.18,4,1.2,7.18,4.06,10.85,6,8.65,4.46,17.5,8.22,27.48,8a31.38,31.38,0,0,0,23.25-10.85c15.67,1.5,31.41,2,47.07,3.77,13.5,1.52,27,2.8,40.4,5.22a57,57,0,0,1,8.14,2.31c1.34.45,3.19.85,3.1,2.74s-1.89,2.24-3.26,2.64a147.7,147.7,0,0,1-24,4.26c-12.18,1.37-24.37,2.6-36.56,3.85-5.12.53-10.29.72-15.39.94-14.93.65-29.82,1.88-44.76,2.41-16.92.61-33.84,1.37-50.76,2.1-8.13.36-16.27.49-24.4.72-23.28.65-46.56,1.4-69.86,1C291,511.07,288.68,511.28,286.59,509.92Z"/><path class="cls-2" d="M215.91,474.11l.49-.09c9.66-1.56,16.32.31,20.3,11.16,4.28,11.66,14,19.54,25.45,24.77-1.94,1.23-4.11,1.17-6.28,1.16-21.45-.13-42.88-1-64.33-1.25-15.4-.19-30.85-.86-46.23-1.89-23.46-1.56-46.94-2.8-70.32-5.63-13.15-1.59-26.35-2.67-39.37-5.23a24.17,24.17,0,0,1-4.8-1.24c-1.57-.68-4.27-.37-4.32-2.68-.06-2.75,2.7-3.08,4.7-3.62,13.16-3.59,26.71-4.85,40.19-6.43,12.16-1.42,24.35-2.61,36.54-3.79,5.77-.57,11.58-.64,17.37-1.08,14.72-1.12,29.5-1.35,44.23-2.28,4.46-.28,8.89-1,13.39-.9,5.65-.23,11.38.73,17-.91A28,28,0,0,0,215.91,474.11Z"/><path class="cls-3" d="M564.77,138.89c-3,.34-4.1-.79-4.89-2.4a3.31,3.31,0,0,1,1-4.46A95.42,95.42,0,0,1,583.11,120c2.27-.85,3.81.66,4.94,2.41s1.3,4.11-.56,5.4C580.2,132.79,571.78,135.5,564.77,138.89Z"/><path class="cls-3" d="M573.4,153.27c-3.53-.48-8,1.29-8.67-3.4-.71-4.86,3.88-5,7.17-5.69,4.87-1,9.79-1.79,14.71-2.56,3.32-.51,6.19.42,6.92,4,.8,3.92-2.08,5.36-5.24,5.84C583.21,152.27,578.08,152.73,573.4,153.27Z"/><path class="cls-3" d="M569.62,160.31c5.72.84,11.45,1.62,17.16,2.57,2.7.45,4.8,1.83,4.24,5a4.64,4.64,0,0,1-5.33,4.14,111.52,111.52,0,0,1-19.51-3.52c-2.21-.58-3.39-2.12-2.84-4.48C564.12,160.64,566.82,160.46,569.62,160.31Z"/><path class="cls-4" d="M199.88,474.18c-5.58,1.64-11.31.68-17,.91-1.78-3.88-5.71-2.27-8.37-2.63a428.82,428.82,0,0,1-59.82-12.18c-1.76-.5-3.64-.59-4.75-2.33,9.11.91,17.64,4.32,26.52,6.24,20.93,4.53,42.11,7.18,63.42,9C199.91,473.54,199.9,473.86,199.88,474.18Z"/><path class="cls-4" d="M64.12,437.88a271.7,271.7,0,0,0,41.08,17.71c.71.23,1.26,1,1.88,1.46-6.35,0-11.76-3.28-17.43-5.36A134.58,134.58,0,0,1,66.77,441C65.51,440.28,64,439.82,64.12,437.88Z"/><path class="cls-4" d="M1.9,354.14a169.66,169.66,0,0,0,11.08,32c-1.84-.13-2.42-1.6-3-3a201.71,201.71,0,0,1-8.8-25.81A3,3,0,0,1,1.9,354.14Z"/><path class="cls-4" d="M55,432.94c3.68.48,6.17,3.16,9.12,5C59.92,438.45,57.14,436.3,55,432.94Z"/><path class="cls-4" d="M36.08,416.75,43,423.08C38.93,422.92,36.9,420.5,36.08,416.75Z"/><path class="cls-4" d="M28.92,409.22,34.3,415C30.87,414.59,29.1,412.64,28.92,409.22Z"/><path class="cls-4" d="M44,423.91l5.09,4C46.11,428.26,44.32,427,44,423.91Z"/><path class="cls-4" d="M49.08,427.93l4.08,3C50.83,431.24,49.11,430.75,49.08,427.93Z"/><path class="cls-4" d="M15.06,389.82l2,3.26C14.92,392.86,15,391.37,15.06,389.82Z"/><path class="cls-4" d="M17,393.05c.66,1,1.31,2,2,3.05C17,395.91,16.93,394.53,17,393.05Z"/><path class="cls-4" d="M23.94,403.17,26.18,406C24.21,406,23.93,404.71,23.94,403.17Z"/><path class="cls-4" d="M21,399.08l2.12,3C21.11,402,20.93,400.6,21,399.08Z"/><path class="cls-4" d="M19,396.11,20.26,398A1.94,1.94,0,0,1,19,396.11Z"/><path class="cls-4" d="M107.94,457.21c.88-.19,1.75-.36,2.11.8Z"/><path class="cls-4" d="M54,432l1.1,1Z"/><path class="cls-4" d="M53.09,430.87l1,1.18Z"/><path class="cls-5" d="M317.75,364.1c-1.24.3-2.67-1.62-3.6-.09-.81,1.33.63,2.44,1.42,3.44,8.55,10.9,14.78,22.85,17.67,36.53,7.18,34.13-8.92,62.74-41.87,74L279.58,482c3.58,2.36,6.79,2.26,9.65,2.88,4.16.9,5,3.05,3.93,6.86A12.79,12.79,0,0,1,281.41,501c-6.9.49-12.64-2.22-17.81-6.53-7.79-6.49-13.75-14.48-18.81-23.16a147.32,147.32,0,0,0-12.57-18.61c-1.23-1.52-2.38-3.15-4.2-4.06-.37.4-.75.61-.77.85-.66,8.61-.66,8.65-9.61,8.57-40.52-.35-80.43-4.56-118.72-19C72.17,429,47.44,415.72,30.27,392.06,8.86,362.55,2,330.33,16,295.46c3.88-9.62,10.31-17.5,20.29-21.74a18.41,18.41,0,0,1,3.74-1.35c1.22-.23,2.83-.83,3.63.54.68,1.16-.62,2.12-1.17,3.09-7.15,12.5-8.38,25.52-2.83,38.85,5.74,13.8,17.16,21.44,30.63,26.07,31.13,10.69,58.32,3.21,82-18.81C166.07,309.35,175,293,185.05,277.52c2.27-3.48,4.63-6.91,6.95-10.36.58,1.35,1.51,2.65,1.7,4.06.87,6.42,4.54,10.12,10.7,11.57s10.61-1.63,14.3-6c8-9.48,5.23-23.47-5.19-27.89-2.18-.93-4.75.09-6.62-1.69,11.5-13.59,17.58-29.58,21.2-46.79a163.3,163.3,0,0,1,13.52-39.6,37.7,37.7,0,0,0,2.55-8c7.13-29,18.87-55.81,39.29-78.14,20.74-22.69,46.56-36.32,77-39.28C422.74,29.25,469,56.56,502.57,107.26c25.13,37.92,32.52,80.32,28.46,125.11a232.93,232.93,0,0,1-12.91,59.35c-.56,1.54-1.31,3-2,4.52-.95-.77-.56-1.73-.5-2.73.47-8.76,1.38-17.48,1.42-26.29a314.62,314.62,0,0,0-2.39-42.63,43.84,43.84,0,0,0,3.7-11.84c1.88-15.34-13.19-33.73-31.5-24.45a57.58,57.58,0,0,1-12.29,4.08c-27.51,6.76-55.34,7.5-83.3,3.76-31.58-4.23-61.38-13.55-87.9-31.82a10.67,10.67,0,0,0-4.43-2.19c-2.26-2.93-5.45-2.2-8.26-1.69-9.24,1.68-15.58,7.09-18.75,15.95-3.21,9-1.33,17.65,2.35,26.09-1.24,12.62.05,25.09,2,37.56,2.06,12.92,5.65,25.48,8.5,38.22-5.35,1.55-11,2.07-16.84,5.75,3.2.36,5.46.47,7.65.89,12,2.28,24.25.48,36.29,2.1,7.77,1.05,15.5,2.26,22.47,6.12s9,9.77,5.9,17.28c-1.76,4.25-4.72,7.57-8.05,10.65-10.85,10-23.83,16.19-37.53,21.14-2.85,1-6,1.59-8.53,4.44,9.25,3.17,17.45.75,25.61-2.12C315.33,350.57,316.69,357.29,317.75,364.1Zm4.56-217q16.77-3.93,33.54-7.84c3.34-.77,6.52-2,5.6-6.13-1-4.29-4.54-4.27-8.06-3.46q-14.83,3.45-29.66,7a16.07,16.07,0,0,0-4.19,1.54c-2,1.16-3.29,3-2.59,5.41C317.69,146.24,319.7,147.21,322.31,147.13Zm126.12-13.08c-3.68.15-5.64,1.14-6.18,3.53-.65,2.91,1.17,4.73,3.62,5.83q15.24,6.85,30.53,13.59a9.66,9.66,0,0,0,1.93.53,4.3,4.3,0,0,0,5-2.35c1.05-1.94,1.07-4.37-.76-5.46C471.43,143.05,459.36,138.4,448.43,134.05ZM305.72,404.15c5.82.07,10.22-3.89,10.15-9.18-.07-6.17-6.87-12.8-13.05-12.73-5.23.06-10.73,5.07-10.81,9.85C291.91,397.76,299.07,404.06,305.72,404.15Zm79.38-331c-4.55,0-6.12,1.33-6.24,5.29-.12,4.11,2.32,6.87,6.11,6.71s5.83-2.21,5.87-5.92S389.35,72.8,385.1,73.15Zm-163.84,232c4-.4,6.48-2.37,6.54-6.34,0-3.37-1.32-5.77-5.32-5.7-3.71.07-6.28,1.67-6.42,5.43C215.92,302,217.55,304.62,221.26,305.14ZM386.84,64.27c0-1.1-.68-2.06-2.33-1.95A2.5,2.5,0,0,0,382,64.83c-.11,1.66.9,2.31,2.44,2.31S386.84,66.34,386.84,64.27Z"/><path class="cls-6" d="M284.83,278.26c-2.85-12.74-6.44-25.3-8.5-38.22-2-12.47-3.27-24.94-2-37.56,3.11,3.4,5.57,7.8,11.61,7.66a18.83,18.83,0,0,0-1.33-2.65c-.9-1.19-1.91-2.29-2.91-3.39-7.46-8.24-8.68-17.74-4.92-27.79,3.55-9.48,14.1-14,22.07-10.11,7.4,6.29,15.79,11,24.53,15.09,33.62,15.76,69.17,22.19,106.09,21.36,21.54-.48,42.79-3,62.85-11.67,5-2.18,9.56-.43,13.52,2.54,9.14,6.85,10.73,20.38,3.69,29.35-.93,1.18-1.93,2.29-2.87,3.45-.63.79-1.44,1.85-.6,2.61.54.5,1.9.38,2.8.15,2.57-.63,4-2.84,5.85-4.49a314.62,314.62,0,0,1,2.39,42.63c0,8.81-1,17.53-1.42,26.29-.06,1-.45,2,.5,2.73A218.43,218.43,0,0,1,485,356.17l-.84,1.22h0c-2.24-.43-3.29,1.31-4.52,2.58C454.7,385.6,424.32,402.23,391,414c-15.07,5.3-30.65,8.7-46.21,12.14-.6-13.56-3-26.69-9.05-39a72.38,72.38,0,0,0-17.94-23c-1.06-6.81-2.42-13.53-5.95-19.59,6-3.21,12-6.33,17.5-10.45,7.48-5.65,14.37-11.88,18.66-20.4,5-9.91,2.78-18.86-6.09-25.5-5.18-3.88-11.27-5.58-17.41-7.07C311.42,277.91,298.11,278.2,284.83,278.26Zm176.84-37.87c-2.24-.06-3.34,1.08-4.4,2.05-18.52,16.93-40.26,19-63.57,13.8-16.08-3.6-28.87-12.41-39.3-25-1.17-1.4-2.36-4.23-4.53-2.85-2.35,1.49-.5,4,.42,5.8a40,40,0,0,0,11.41,13.08c16.09,12.41,34.51,17.59,54.63,17.08,13.59-.34,26.37-3.52,37.38-12C457.57,249.42,460.88,246,461.67,240.39Z"/><path class="cls-7" d="M145,293.09c-2-7.67-4.85-15.09-5.76-23.11-1.22-10.78,2.84-19.78,15.87-19,5.47.33,10.82.73,16.74,3.12-2.63-6.94-5.38-12.92-7-19.32-1.87-7.61-3.35-15.25-3-23.14.45-9.29,4.25-14.67,13.06-17.37,14.87-4.55,30-4.89,45.27-2.15,3.71.66,4.61,2,3.8,6-4.32,21.47-14.61,39.67-28.74,56.16-10.2,11.9-17.43,25.93-25.95,39-12,18.42-26,34.75-47.28,42.67-24,8.92-47.07,6.31-67.46-9.3a35.53,35.53,0,0,1-7.84-48.34c3.16-4.53,6.12-4.57,8.26.62,3.21,7.77,5.15,15.88-.14,23.75-1,1.5-1.38,3,.89,3.3,6.1.9,6.49,5.09,6.3,10-.08,2.19-1.19,5.73,1.27,6.3,2.67.62,3.31-3.09,4.49-5.14,5.69-9.92,10.61-20.29,19.92-27.73,6.61-5.28,13.36-5.23,20.55-2.09a46.45,46.45,0,0,1,14.21,10,87.76,87.76,0,0,1,5.7,6.88l1.68-.86c0-2.21-.07-4.42,0-6.62.27-7.36,4.23-9.48,10.49-5.64a11.7,11.7,0,0,0,4.47,2.1l.45.15Z"/><path class="cls-8" d="M251.32,101.2c7-.15,7.16.19,4.66,5-7.28,14.11-12,29.11-16.11,44.43-3.24,12.18-9.93,23.18-13.12,35.45-.45,1.74-1.9,2-3.53,2.14-6.9.44-18.46-10.72-18.29-17.75a6.28,6.28,0,0,1,2.62-5.13,14.92,14.92,0,0,1,9.23-3.28c1.26,0,3,.33,3.35-1.34.27-1.26-1.2-1.83-2.13-2.5-5.41-3.89-9.14-9.2-12-15.05-4.91-9.93-4-16.2,4.19-23.69C222.23,108.44,237.11,103.52,251.32,101.2Z"/><path class="cls-9" d="M344.74,426.11c15.56-3.44,31.14-6.84,46.21-12.14,33.37-11.74,63.75-28.37,88.66-54,1.23-1.27,2.28-3,4.52-2.58A196.22,196.22,0,0,1,443,402.62c-30.45,24.53-65,40.58-102.93,49.7-.21-.22-.43-.43-.66-.64A103.47,103.47,0,0,0,344.74,426.11Z"/><path class="cls-10" d="M461.9,458.66c-.38,5.51-1.37,10.68-5,14.95s-8.43,6.26-14.22,5c-18.57-3.92-32.58-15.08-45.28-28.36-1.92-2-1.06-3,1-4,15.34-7.59,30.78-15,44.88-24.82,1.6-1.12,3.12-1.81,4.59.45C455.19,433.21,460.65,445.18,461.9,458.66Z"/><path class="cls-11" d="M274.91,54.05c.54-5.42.54-10.93,2.21-16.2,4.24-13.36,11.91-17.7,25.45-14.24A65,65,0,0,1,325.4,34.46c2.85,2.11,3.15,3.41-.61,5-14.71,6.17-28,14.61-39,26.25a16.69,16.69,0,0,1-3.46,2.82c-1.5.9-2.31,3.65-4.27,2.76S276,67.87,276,66C276.09,61.93,274.34,58.1,274.91,54.05Z"/><path class="cls-11" d="M381.65,4.26A25,25,0,0,1,392,7.88c8.12,5.43,13.33,13.28,18,21.57.55,1,1.35,2.11.26,3.17-.85.81-1.86.19-2.81,0a138,138,0,0,0-47.9-2.51c-1.72.2-4,1-5.15-.72s.43-3.56,1.42-4.92C362,16,368.45,7.68,379.37,4.85Z"/><path class="cls-4" d="M402,476.05c-20.35-.84-40.72-.7-61.08-1.18-8.41-.2-16.77-1.27-25.15.26,2.65-3.28,6.21-4.49,10.28-5.26a285,285,0,0,0,49.17-14.11c2.8-1.08,4.4-.79,6.28,1.58C387.36,464.65,395.38,469.62,402,476.05Z"/><path class="cls-12" d="M206.89,247.18c1.87,1.78,4.44.76,6.62,1.69,10.42,4.42,13.15,18.41,5.19,27.89-3.69,4.4-8.08,7.5-14.3,6s-9.83-5.15-10.7-11.57c-.19-1.41-1.12-2.71-1.7-4.06A183.37,183.37,0,0,1,206.89,247.18Z"/><path class="cls-7" d="M428.73,39.07c7.15-4.25,13.69-7.59,21.14-8.83,5.72-.94,9.84,1.8,12.5,6.32A40.45,40.45,0,0,1,468,57c0,1.67-.24,3.49-2.39,2C454.23,51.15,442.05,44.89,428.73,39.07Z"/><path class="cls-8" d="M257.08,96.19c-5.69.06-11.6-6.9-12.22-13.77-.51-5.68,2.48-9.73,8.21-10.14a67.7,67.7,0,0,1,19.31.94c3.67.8,3.93,2.6,1.7,5.12a104.54,104.54,0,0,0-10.74,14.91A5.83,5.83,0,0,1,257.08,96.19Z"/><path class="cls-11" d="M497.85,364.12q4-7.17,8-14.36c-.09,6.32-2.46,11.28-7.94,14.37Z"/><path class="cls-13" d="M199.88,474.18c0-.32,0-.64,0-1l16,.89A28,28,0,0,1,199.88,474.18Z"/><path class="cls-11" d="M497.87,364.13l-.18.33.16-.34Z"/><path class="cls-9" d="M484.11,357.39l.84-1.22Z"/><path class="cls-9" d="M340.08,452.32l-.64.4c0-.34,0-.69,0-1Q339.77,452,340.08,452.32Z"/><path class="cls-14" d="M284.83,278.26c13.28-.06,26.59-.35,39.63,2.83,6.14,1.49,12.23,3.19,17.41,7.07,8.87,6.64,11.08,15.59,6.09,25.5-4.29,8.52-11.18,14.75-18.66,20.4-5.46,4.12-11.51,7.24-17.5,10.45-8.16,2.87-16.36,5.29-25.61,2.12,2.5-2.85,5.68-3.4,8.53-4.44,13.7-4.95,26.68-11.13,37.53-21.14,3.33-3.08,6.29-6.4,8.05-10.65,3.1-7.51,1.2-13.34-5.9-17.28s-14.7-5.07-22.47-6.12c-12-1.62-24.28.18-36.29-2.1-2.19-.42-4.45-.53-7.65-.89C273.79,280.33,279.48,279.81,284.83,278.26Z"/><path class="cls-15" d="M514.68,224.59c-1.83,1.65-3.28,3.86-5.85,4.49-.9.23-2.26.35-2.8-.15-.84-.76,0-1.82.6-2.61.94-1.16,1.94-2.27,2.87-3.45,7-9,5.45-22.5-3.69-29.35-4-3-8.48-4.72-13.52-2.54-20.06,8.7-41.31,11.19-62.85,11.67-36.92.83-72.47-5.6-106.09-21.36-8.74-4.1-17.13-8.8-24.53-15.09,1.48-1.31-2.11-2.79.14-4.07a10.67,10.67,0,0,1,4.43,2.19c26.52,18.27,56.32,27.59,87.9,31.82,28,3.74,55.79,3,83.3-3.76a57.58,57.58,0,0,0,12.29-4.08c18.31-9.28,33.38,9.11,31.5,24.45A43.84,43.84,0,0,1,514.68,224.59Z"/><path class="cls-1" d="M322.31,147.13c-2.61.08-4.62-.89-5.36-3.52-.7-2.46.57-4.25,2.59-5.41a16.07,16.07,0,0,1,4.19-1.54q14.82-3.54,29.66-7c3.52-.81,7.1-.83,8.06,3.46.92,4.08-2.26,5.36-5.6,6.13Q339.08,143.18,322.31,147.13Z"/><path class="cls-1" d="M448.43,134.05c10.93,4.35,23,9,34.15,15.67,1.83,1.09,1.81,3.52.76,5.46a4.3,4.3,0,0,1-5,2.35,9.66,9.66,0,0,1-1.93-.53q-15.27-6.76-30.53-13.59c-2.45-1.1-4.27-2.92-3.62-5.83C442.79,135.19,444.75,134.2,448.43,134.05Z"/><path class="cls-12" d="M305.72,404.15c-6.65-.09-13.81-6.39-13.71-12.06.08-4.78,5.58-9.79,10.81-9.85,6.18-.07,13,6.56,13.05,12.73C315.94,400.26,311.54,404.22,305.72,404.15Z"/><path class="cls-14" d="M299,162.13c-2.25,1.28,1.34,2.76-.14,4.07-8-3.91-18.52.63-22.07,10.11-3.76,10.05-2.54,19.55,4.92,27.79,1,1.1,2,2.2,2.91,3.39a18.83,18.83,0,0,1,1.33,2.65c-6,.14-8.5-4.26-11.61-7.66-3.68-8.44-5.56-17.08-2.35-26.09,3.17-8.86,9.51-14.27,18.75-15.95C293.51,159.93,296.7,159.2,299,162.13Z"/><path class="cls-12" d="M385.1,73.15c4.25-.35,5.78,2.26,5.74,6.08S388.7,85,385,85.15s-6.23-2.6-6.11-6.71C379,74.48,380.55,73.12,385.1,73.15Z"/><path class="cls-12" d="M221.26,305.14c-3.71-.52-5.34-3.18-5.2-6.61.14-3.76,2.71-5.36,6.42-5.43,4-.07,5.37,2.33,5.32,5.7C227.74,302.77,225.29,304.74,221.26,305.14Z"/><path class="cls-12" d="M386.84,64.27c0,2.07-.81,2.87-2.4,2.87s-2.55-.65-2.44-2.31a2.5,2.5,0,0,1,2.51-2.51C386.16,62.21,386.85,63.17,386.84,64.27Z"/><path class="cls-16" d="M461.67,240.39c-.79,5.61-4.1,9-8,12-11,8.48-23.79,11.66-37.38,12-20.12.51-38.54-4.67-54.63-17.08a40,40,0,0,1-11.41-13.08c-.92-1.75-2.77-4.31-.42-5.8,2.17-1.38,3.36,1.45,4.53,2.85,10.43,12.55,23.22,21.36,39.3,25,23.31,5.21,45.05,3.13,63.57-13.8C458.33,241.47,459.43,240.33,461.67,240.39Z"/><path class="cls-1" d="M145,293.09l.34.25-.45-.15Z"/></g></g></svg>