<svg id="Layer_1" data-name="Layer 1" xmlns="http://www.w3.org/2000/svg" viewBox="0 0 443.39 384.12"><defs><style>.cls-1{fill:#433742;}.cls-2{fill:#d2cfc2;}.cls-3{fill:#413b40;}.cls-4{fill:#43363d;}.cls-5{fill:#e7e9dc;}.cls-6{fill:#94ce45;}.cls-7{fill:#6d9a46;}.cls-8{fill:#6d9847;}.cls-9{fill:#3c6145;}.cls-10{fill:#edf483;}.cls-11{fill:#e2ebce;}.cls-12{fill:#467d44;}.cls-13{fill:#447d45;}.cls-14{fill:#71ae3f;}.cls-15{fill:#eef77f;}.cls-16{fill:#e89669;}</style></defs><path class="cls-1" d="M722.15,620.69l-.75-1.5c-.46-1.15-.88-2.32-1.39-3.45A175.14,175.14,0,0,1,704.23,547c-.2-10.62.37-21.24,4-31.37,3.36-9.32,9-10.93,16.71-5.08l1.38,1.51a8.17,8.17,0,0,0,3.14,3.57c.49,1.79-1.21,4.19,1.48,5.38,1.74,3.75,4.42,7,5.28,11.22l1.49,2.27h0c.11,1.15-.4,2.58,1.34,3l.23.75c-.09.07-.27.17-.26.21a3.82,3.82,0,0,0,.24.55.57.57,0,0,1,0,.51c-.82,2.44,1.74,4.52.73,7.16-.24.63,1.55,1.88,2.91.63,1.15.28,1.85-1.22,3-.77,1,1,2.27.72,3.46.7,1.59,0,2.61.44,2.52,2.24l-5.25,0c-1.05-1-1.3-.22-1.5.67l-1.53.07c-2.12-.48-2,1.75-2.64,2.41-3-5.22-4.91-10.9-7-16.47-1.06-2.79-1.3-6.14-4.53-7.68a.59.59,0,0,1-.12-.48c.07-1.62.47-3.38-1.79-3.94l-.5-1.53c1.38-1.9.22-2.57-1.45-3h0a1.48,1.48,0,0,0-.81-1.53l0,.06-.5-1.22-.81.48c-.58,1.65-1.05,3.35-1.75,4.94-1.46,3.31-2.43,3.4-4.59.59-1.31-1.71-2.07-3.86-4-5.39a37,37,0,0,0-3.19,13.25c-1.74,26.63,3.83,51.91,14.32,76.22,9.09,21.1,22,39.42,40,54,26.79,21.69,58.34,31.57,91.66,37.11,2.44.41,3.35-.33,3.5-2.81a44.21,44.21,0,0,1,1.29-6.23c.29-1.33.87-2.58,2.45-2.12s1.06,1.77.85,2.87a47.17,47.17,0,0,0-.44,12.33c.59,8.1,4.44,13.91,12.19,16.82a61.57,61.57,0,0,0,7.11,2.34c12.24,3,24.73,2.89,37.23,3.22,7.64.2,12.71-2.47,15.83-9.26.07-.14.43-.14.75-.23,1.39,1.81,1.14,4,1.11,6,0,1.89.79,2.07,2.33,1.51,3.36-1.22,5.36-3.95,7.49-6.55,1.5.73,1.51,2.08,1.53,3.47,0,.82-.22,1.87.82,2.24,1.21.43,1.75-.51,2.24-1.4l.23.13,1.15-.8-.12,0c1.87-.24,3.5-.79,3.68-3.06l0,.07a2.91,2.91,0,0,0,2.33-3.27.25.25,0,0,1,.13-.34c4.73-3.73,4.86-9.1,5.15-14.41a5.62,5.62,0,0,1,0-.58,17.54,17.54,0,0,0,.07-11.27c.41-3.89-.93-7.66-1.11-12,2.3,1,1.78,3.59,3.41,4.5a.64.64,0,0,1,0,.51c.36,1.84-1.27,4.17,1.33,5.46a1.09,1.09,0,0,1,.15.61c0,1.09-.31,2.23.62,3.13l.13,1.37a30.81,30.81,0,0,0,1.56,12.09,1.45,1.45,0,0,1,.65.09,3.23,3.23,0,0,0,3.15.64,108.77,108.77,0,0,0,28.88-9.33c1-.51,2.29-1.11,2.49-2.57l1.45-.77c2.06-.16,4-.47,4.54-3,1.74-.12,3.39-.35,3.22-2.73l.15-.1c2.75.54,3.56-1.23,4-3.4l.67-.6c.35-.16,1.39.41.78-.75l1.61-1.55.39,0-.18-.28.17-.12c.56.11.78-.12.66-.67l.21.16-.19-.19c1,.09,1.1-.58,1.12-1.32l.57-.61a3.05,3.05,0,0,0,3.28-2.9,3.7,3.7,0,0,0,2.25-3.73,3,3,0,0,0,2.58-2.23c1-2.44,2.57-2.59,4.58-1.29a4,4,0,0,1-.29.43c-2.38,2.81-5.93,4.83-6.08,9.13h0a2.9,2.9,0,0,0-3,3l0-.05a1.57,1.57,0,0,0-.8,1.49h0a1.42,1.42,0,0,0-1.5,1.57l-.66.69-.85.81c-8.28,9.42-18.89,15.37-30.34,19.87-3,1.16-3.19,2.56-2.33,5,1.8,5.25,6.07,7.79,10.82,9.55,9.14,3.38,18.73,3.58,28.36,3.87,6.5.2,11.92-.51,14.27-7.6,0-.14.43-.18.72-.3,1.84,1.82.24,4.35,1.24,6.32,3.84-1.14,3.93-1.22,9.37-8.63,1.39,2,.51,4.15.73,6.17a1.14,1.14,0,0,0-.21.28s.15.19.18.17a1.31,1.31,0,0,0,.27-.21c2.84-1,4.81-3,6.64-5.26,8.74-10.79,8.28-37.06-3.64-48-3.61-3.29-7.7-5.91-11.36-9.09-.51-.85-1.37-.8-2.19-.84l0,0c-2.29-2.89-3.33-2.84-5,.21-1,2-1.39,4.25-3.1,5.89-.5.48-.68,1.59-1.58,1.15-1.22-.59-.31-1.55.05-2.2,4.64-8.5,6.65-17.85,8.92-27.12.26-1.07.31-2.39,1.81-3,1,3.1-1,5.83-.36,8.66,0,.23,0,.46,0,.69-1,.83-.69,2-.71,3l0,0c-2.46,1.81-.3,2.62.78,3.66h-.06c.58.89,1.47.81,2.36.77l1.37.1c2.17,2.84,5.2,2.54,8.22,2.24,3,0,6,.07,9,0,4.56-.05,4.55-.07,2.65-4.33a9,9,0,0,1-.17-2.14c5.09,3.47,9.8,7.09,15.49,2.63a1.6,1.6,0,0,0,.77-1.66c-.06-.41-.11-.81-.17-1.21,3-2,5.7-5,9.93-3.13-2.67,9.72-10,14.16-19,16.44a60.58,60.58,0,0,1-15.82,1.4c16.53,17.86,21.69,37.55,12.19,60.12a29.43,29.43,0,0,1-17.8,12.82c-1.81.28-3.74.12-5.28,1.39l-4.47.11c-.65-.11-1.24-.11-1.55.62l-2.23.2-9-.11h-10.5a9.88,9.88,0,0,0-4.46.11l-3.73-.21c-1.61-1.58-3.52-.29-5.27-.55a.86.86,0,0,0-.64-.13c-1-1.4-2.52-1.13-3.88-1.39l-4.19-1.56c-5.14-1.89-10.64-4.32-12.46-9.45-2.7-7.62-7.51-7.78-13.72-6.2a8,8,0,0,1-2.21.35c-2.09-.1-3,1-3.74,2.85-4.16,10.24-12,15.91-22.74,17.77-5.91,1-11.88,1.36-17.85,1.82-12.72,1-25.45.31-38.09-.65-7.41-.57-14.67-3.09-21.44-6.5a5.38,5.38,0,0,0-3-1.75H867c-3.79-3.86-7.3-8-8.44-13.41-.66-3.16-2.38-4.1-5.35-4.32a124.81,124.81,0,0,1-25.48-5c-16.06-4.62-31.68-10.46-46.42-18.47l0,0-1.56-.88.1.07-13.57-9,0,0-3.06-2.28,0,0-3.8-3,0,0-1.26-1.09-.33.1.32-.13-1.57-1.34,0,.08-.89-.81.11.1-.88-.84.09,0-4.69-4.45-1.34-1.39L744.77,655l0,.06L743,652.88l-.6-.71-4.7-5.89-.62-.83-5.28-7.59,0,0q-3.37-5.67-6.76-11.32l0,0Zm-2.84-100.4c1.25-1.56,1.38-3.38,1.45-5.19,0-1.17-.75-1.76-1.75-2.09a3.1,3.1,0,0,0-3.13.57c-1,.95-.08,1.82.41,2.59C717.19,517.57,717.58,519.38,719.31,520.29Z" transform="translate(-702.93 -356.62)"/><path class="cls-2" d="M1043.68,731.08l2.23-.2c1,1.14,1.33.34,1.55-.62l4.47-.11c2,.62,4,.78,5.28-1.39a29.43,29.43,0,0,0,17.8-12.82c19.34,0,38.48,2,57.55,5.11a64.83,64.83,0,0,1,11.58,2.83c1,.38,2.2.89,2.18,2.26s-1.2,1.84-2.24,2.23a71.59,71.59,0,0,1-17.42,4.09c-11.73,1.27-23.47,2.52-35.21,3.62-7.43.7-14.88,1.25-22.33,1.59-9,.42-18,.29-26.91.88-20.68,1.35-41.39.9-62.07,1.65-17.86.65-35.71.66-53.53.29-9.84-.2-19.71,0-29.54-.56-14.81-.78-29.64-1-44.45-1.56s-29.31-1.65-43.92-3c-13.23-1.21-26.5-2.45-39.42-5.89-2.26-.61-5.58-.93-5.66-3.4-.1-2.8,3.4-2.79,5.55-3.3,14-3.26,28.13-4.89,42.39-6.23,15.13-1.42,30.32-1.56,45.44-2.87,1.28.66,1.13,2,1.62,3.08,1.74,3.86,3.79,7.56,8.4,8.71h-.18c.33,1.69,1.65,1.71,3,1.75,6.77,3.41,14,5.93,21.44,6.5,12.64,1,25.37,1.64,38.09.65,6-.46,11.94-.81,17.85-1.82,10.78-1.86,18.58-7.53,22.74-17.77.75-1.84,1.65-2.95,3.74-2.85a8,8,0,0,0,2.21-.35c6.21-1.58,11-1.42,13.72,6.2,1.82,5.13,7.32,7.56,12.46,9.45l4.19,1.56c.65,2.25,2.49,1.19,3.88,1.39a.86.86,0,0,1,.64.13c1.71.58,3.34,2,5.27.55l3.73.21a3.49,3.49,0,0,0,4.46-.11h10.5A12.47,12.47,0,0,0,1043.68,731.08Z" transform="translate(-702.93 -356.62)"/><path class="cls-3" d="M729.5,528.5c3.23,1.54,3.47,4.89,4.53,7.68,2.12,5.57,4,11.25,7,16.47.68-.66.52-2.89,2.64-2.41a2.87,2.87,0,0,0-.38,2.14c2.82,7.57,5.29,15.28,9.09,22.44,1.2,2.26,2.49.9,3.39-.35a29.24,29.24,0,0,0,5.07-11.55c1.77-9.42-.06-11.95-8.89-13.45.09-1.8-.93-2.27-2.52-2.24-1.19,0-2.47.31-3.46-.7,3.48-1,7-.55,10.37.22,5.2,1.17,8.12,5.12,8.4,10.54.29,5.67-1.6,10.79-3.73,15.86,0,.31-.25.75-.11.89.36.41.8.15,1.18-.11,2.21-.38,4.41-.94,6.64-1.12,9.65-.79,13.78,2,17.91,11.92,1.18-.42,1.29-1.65,1.9-2.45.45-.59.77-1.28,1.18-1.91,10.5-15.94,22.77-17.62,37.19-5.09.45.39.93.76,1.71,1.38,1.26-3.64,3.26-6.36,7.13-6.92,1.87-.27.89-1.44.73-2.23a40.76,40.76,0,0,1-.87-13c1-8.71,5.5-12.86,14.3-13.14,2.22-.07,4.45,0,7,0a70.93,70.93,0,0,1-4.14-17.72,49.34,49.34,0,0,1,.17-10.09c1-8.08,5.71-12.75,13.21-15,6.77-2.05,13.74-2.48,20.76-2.45h3.38c-1.4-2.42-3.21-4.08-4.11-6.35-1.72-4.33-1.81-8.3,1.86-11.68,1.07-1,1.4-1.46.23-2.88-7.49-9.06-6.08-24.87,2.77-32.52,7.25-6.28,15.86-9.85,25-12.28,1-.26,1.94-.47,2.9-.74.21-.06.36-.3.63-.54-1.37-2.48-3.08-4.8-4-7.53-2.36-6.76.36-12,7.26-13.78a28,28,0,0,1,13-.12c2.13.45,2.82,0,2.53-2.39-.84-7-.92-14,.89-20.85,3-11.57,11-16.29,22.62-13.59a49.74,49.74,0,0,1,19.85,9.3,6.94,6.94,0,0,0,6.45,1.36A13.22,13.22,0,0,0,998.25,374,38,38,0,0,1,1010,361c8.41-6.15,16.34-5.82,24.18,1a50.38,50.38,0,0,1,12.36,17.23c2.25,4.9,5.08,5.78,9.53,2.95a41.08,41.08,0,0,1,13.28-5.91c8-1.71,12.87.71,16.47,8.07,3.14,6.42,4,13.34,4.46,20.36a10.26,10.26,0,0,0-2.61,4c-1.1-.8-2.24-1.57-3.32-2.41-23.14-18.05-49.11-26.72-78.58-23.37a90.56,90.56,0,0,0-50.09,21.66c-18.27,15.77-29.07,36.23-35.67,59.08-2.08,7.2-4,14.39-7.27,21.17a58,58,0,0,0-3.52,9.85c-4.62,16.79-7.42,34.3-19.57,48-4,4-7,8.76-10.21,13.41-3.22,4.89-6.53,9.73-9.66,14.67-6.35,10-12.74,20-21.5,28.22-21,19.77-50.67,22.55-73.62,6.64-12.55-8.7-21.21-20.65-27.85-34.18C740,557.59,735.49,542.74,729.5,528.5Zm156.35-28.58a95.14,95.14,0,0,0-13.3.75c-13.42,2.08-17.28,8.32-16.08,21.55.68,7.55,3.1,14.59,5.87,21.54,1,2.43.18,3-2.13,2.39A36.51,36.51,0,0,0,848,545a8.64,8.64,0,0,0-8.3,7.28c-1.3,7.22.35,14,3.09,20.69.4,1,1.71,2.11.84,3-1.12,1.14-2.26-.27-3.27-.84-5.66-3.17-8.14-1.74-8.13,4.75,0,.87.08,1.74.14,2.62,0,.68.71,1.5-.27,2-.82.38-1.41-.28-1.93-.79-2.4-2.36-4.71-4.82-7.18-7.09-8.44-7.79-17-8.16-24.57-.86-8.19,7.89-12.34,17.94-14.72,28.85-.4,1.83.76,2.48,2.06,3,17,7.37,33.56,5.9,49.38-3.35,13.68-8,22.49-20.59,30.48-33.8,5.74-9.5,11.45-19.12,18.76-27.39,10.06-11.37,15.24-24.66,18.5-39.06.38-1.72.07-2.26-1.68-2.83C896.3,499.63,891.32,500,885.85,499.92Zm2.64-15.08c.14,4.61,7.5,12,12.63,13,2.35.48,3.31-.05,4-2.32,1.86-5.8,3.46-11.7,6.17-17.22a32.77,32.77,0,0,0,2.87-6.43c1.45-5.79,2.78-11.62,4.74-17.29a130.74,130.74,0,0,1,8.13-18.87c1.53-2.86.55-3.55-2.2-3.23a44.1,44.1,0,0,0-5.53.8c-10.63,2.67-20.7,6.5-28.59,14.56-2.57,2.64-4.14,6-3.49,9.5A29.51,29.51,0,0,0,897,474.2c1.1,1,3.22,1.69,2.9,3.1-.4,1.74-2.55.74-3.92.94C891.87,478.84,888.4,481.82,888.49,484.84Zm52.34-88.09c.53,4,.91,7.84,1.61,11.61.36,2,1.37,2.34,3,.65A99.7,99.7,0,0,1,978,386.22c2.7-1.16,2.64-2.29.13-4.21a43.47,43.47,0,0,0-17.27-7.75c-9.71-2.16-16.06,1.84-18.31,11.59C941.68,389.47,941.36,393.21,940.83,396.75Zm103.08-15c-4.82-8.6-9.22-16.33-17.71-20.55a10.79,10.79,0,0,0-10,.13c-6.18,3-10.37,8.06-14.32,13.37-.81,1.1-2.27,2.6-1.18,4,1,1.25,2.79.54,4.25.37a120.07,120.07,0,0,1,22.75-.09C1032.86,379.35,1037.9,380.58,1043.91,381.71Zm-274,194.76a22.6,22.6,0,0,0-8.89,1.31c-4.08,1.4-5,2.84-2.45,6.45a71.6,71.6,0,0,0,18.79,18.95c1.73,1.16,2.47.61,3-1,.77-2.62,1.3-5.33,2.23-7.89C786.08,584.49,780.71,576.45,769.91,576.47Zm315.91-179.35c-.81-4.65-2-9.6-4.91-13.93a8.39,8.39,0,0,0-9.06-3.83,43.26,43.26,0,0,0-12.5,4.84c-2,1.06-1.81,2.35.17,3.15a131.2,131.2,0,0,1,22.6,12.24c.88.58,1.73,1.8,3,1.07S1085.58,398.61,1085.82,397.12ZM930.1,410.76a43.57,43.57,0,0,0-4.85,0c-5.74.62-8.38,5.19-6,10.45a32.71,32.71,0,0,0,2.77,4.84,6.21,6.21,0,0,0,10.28.38c2.73-3.7,5.24-7.55,8-11.2,1.93-2.55.92-3.33-1.68-3.79A33.4,33.4,0,0,0,930.1,410.76ZM753.83,548.08a4.17,4.17,0,0,0,.54.31s.23-.2.21-.24a2.78,2.78,0,0,0-.33-.51Z" transform="translate(-702.93 -356.62)"/><path class="cls-4" d="M1087.65,408.74a10.22,10.22,0,0,1,2.61-4l1.52,1.31,1.09.86c11.66,9.27,20.66,20.82,28.56,33.32.46.74.92,1.49,1.32,2.26a46.29,46.29,0,0,0,11,14.37c8.58,7.4,9.4,17.73,8.68,28.26-.31,4.48-.81,8.95-1.15,13.43-.25,3.34-1.18,6.06-4.89,7-6,1.61-9.32,5.64-11.88,11.44-5.27,12-15.19,19.93-26.29,26.35a131.57,131.57,0,0,1-45.7,16c-.85.13-1.69.3-2.53.45,0,1.5,1.21,1.63,1.92,2.15,19.16,14.29,34.72,31.54,44.14,53.81,3,7.21,4.31,14.59,1.65,22.24-4.23-1.86-6.92,1.14-9.93,3.13-3.06-.73-6.23-1.26-8.4-4.52,3.74-.26,7.07,1.25,10.41,0,3.1-1.17,2.86-3.81,2.79-6.26-.07-3-2.39-1.29-3.66-1.4-3.39-.28-6.86.45-10.73-.59,3.29-2.56,7-3.07,10.08-4.88,2-1.2,2.45-2.5,1.51-4.59a103.49,103.49,0,0,0-8.79-16.08c-8.58-12.59-19.4-23.11-30.89-33-2.25-1.93-4.31-4.42-8.08-5.31.84,2.92,1.54,5.38,2.27,7.84,5.77,19.32,8.79,38.9,5.59,59.06-.32,2,.48,4.36-1.58,5.91-.68-2.83,1.36-5.56.36-8.66-1.5.58-1.55,1.9-1.81,3-2.27,9.27-4.28,18.62-8.92,27.12-.36.65-1.27,1.61-.05,2.2.9.44,1.08-.67,1.58-1.15,1.71-1.64,2-3.94,3.1-5.89,1.64-3,2.68-3.1,5-.21-2.37-1.06-3.41-.16-4.23,2.22-1.16,3.36-2.3,6.83-5.11,9.33-2-1.3-3.6-1.15-4.58,1.29a3,3,0,0,1-2.58,2.23l-.19-.18.94-2.08h0a15.61,15.61,0,0,0,3.15-5.15l0,0a2.69,2.69,0,0,0,1.1-2.1h0a2.81,2.81,0,0,0,1.12-2.49l0,0c1.15-2.35,2.67-4.52,3.26-7.12l0-.27a10.23,10.23,0,0,0,.88-1.62,103.66,103.66,0,0,0,4.69-42.68c-1.08-12.53-3.28-24.86-8.05-36.6l-.2-1a5.8,5.8,0,0,0-1.13-3.15l-.24.09.23-.11c-1.58-7-1.58-7-8.43-6.93a147.18,147.18,0,0,1-43.62-5.78c-1.3-.39-3.43-.58-2.76-2.72s2.48-1.14,3.83-.75c23.13,6.78,46.57,7.12,70.06,2.62,18.34-3.51,35.54-10.12,50.25-22,6.92-5.61,12.48-12.36,15.63-21-.51-.1-.77-.25-1-.19-3.58,1.09-7.14,2.22-10.73,3.29-31.27,9.34-63,15.57-95.87,13.7-2.38-.14-2.58,1.07-3,2.71-3.89,14.56-18.92,19.11-30.16,9.17-4.59-4.06-7.6-9.18-10.12-14.68-1.81-4-3.17-8.15-5.81-11.71-1.11-1.48-2-1.77-2.95.07-.66,1.24-1.54,2.67-3.16,1.77-1.88-1.05-.46-2.68-.14-4a8.45,8.45,0,0,1,1.33-2.2c3.58-2.63,7.37-4.65,12-4.16,1.07.11,2.52-.13,2.64,1.43.13,1.78-1.47,1.64-2.64,2-1.67.46-4.49-.72-4.8,1.46-.28,2,2.49,2.78,4.08,3.91.51.35,1.11.58,1.65.88,12.59,6.91,26.36,9,40.41,9.81,41,2.3,79.67-8,117.89-21.05a3.43,3.43,0,0,0,2.61-2.84c1.34-7.76,2.35-15.56,1.67-23.46-.5-5.86-2.63-11.28-7.71-14.31a18.81,18.81,0,0,1-7.78-9.1,51.24,51.24,0,0,0-2.51-4.6,154.31,154.31,0,0,0-28-35.38l-.78-.94,0,.08-.8-.78ZM971,514.15c1.19,4.08,3,7,4.66,10.07,2.5,4.63,5.51,8.92,10.11,11.77,8.9,5.5,20.16.52,21.69-9.59.13-.8.63-1.87-.63-2.17-.91-.21-2-.45-2.64.69-.3.55-.51,1.14-.83,1.68-3.36,5.72-9.79,5.74-13.14,0a16.43,16.43,0,0,1-1.75-4.12,2.93,2.93,0,0,0-2.5-2.35A60.74,60.74,0,0,1,971,514.15Zm20.37,7.74a7.68,7.68,0,0,0,1.81,4.32c2.43,3.2,6.2,3,8.24-.41.76-1.27,1-2.49-1-2.47C997.41,523.36,994.65,522.07,991.35,521.89Zm45.39,141c0-.08,0-.18-.08-.24s-.14,0-.22,0,0,.18.08.24S1036.66,662.86,1036.74,662.84Z" transform="translate(-702.93 -356.62)"/><path class="cls-5" d="M725,510.54c-7.73-5.85-13.35-4.24-16.71,5.08-3.65,10.13-4.22,20.75-4,31.37A175.14,175.14,0,0,0,720,615.74c.51,1.13.93,2.3,1.39,3.45-1.87-.84-2.52-2.69-3.39-4.29-.67-1.22-1-2.52-2.8-2.5-1.11,0-1.52-.83-1.18-1.83,1.19-3.51-.11-6.44-1.62-9.58-2.51-5.24-3.14-11.11-4.56-16.7a195,195,0,0,1-4.11-24.9,150.34,150.34,0,0,1-.08-30.44,40.35,40.35,0,0,1,6.5-19.43c2.55-3.75,8.39-5.62,12.18-3.75C723.29,506.23,727.62,507.13,725,510.54Z" transform="translate(-702.93 -356.62)"/><path class="cls-5" d="M867,725.48c-4.61-1.15-6.66-4.85-8.4-8.71-.49-1.07-.34-2.42-1.62-3.08.19-2.91-1.11-4.25-4.09-4.58-5.17-.58-10.35-1.37-15.44-2.34a59,59,0,0,1-11-2.88c-6.54-2.66-13.63-3.46-20-6.64-3.94-2-8.36-3.17-12.52-4.75-4-1.5-7.76-3.69-11.68-5.49-1-.48-1-1.65-.86-2.68,14.74,8,30.36,13.85,46.42,18.47a124.81,124.81,0,0,0,25.48,5c3,.22,4.69,1.16,5.35,4.32C859.72,717.51,863.23,721.62,867,725.48Z" transform="translate(-702.93 -356.62)"/><path class="cls-1" d="M740.6,518.36c2.88,4.35,1.74,8.73,0,13.1-1.42-.48-1.16-2.18-2.16-3l.72-3c1.16-1.12.75-2.54.71-3.87C739.88,520.46,739,519.17,740.6,518.36Z" transform="translate(-702.93 -356.62)"/><path class="cls-5" d="M766.35,674.57l13.57,9c-2.84.5-5.34.31-7.09-2.54-.9-1.46-2.51-2.25-4.12-3A3.5,3.5,0,0,1,766.35,674.57Z" transform="translate(-702.93 -356.62)"/><path class="cls-5" d="M729.48,515.62a8.17,8.17,0,0,1-3.14-3.57c3.26.3,6.62.28,9.14,2.92l-.92.26-1.16-.07A6.38,6.38,0,0,0,729.48,515.62Z" transform="translate(-702.93 -356.62)"/><path class="cls-5" d="M725.1,626.59q3.39,5.65,6.76,11.32C726.5,636,725.86,631.25,725.1,626.59Z" transform="translate(-702.93 -356.62)"/><path class="cls-3" d="M734.56,515.23l.92-.26,1.51.76c.24,1.25,1,1.52,2.13,1.15a2.46,2.46,0,0,1,1.48,1.48c-1.57.81-.72,2.1-.68,3.26,0,1.33.45,2.75-.71,3.87-.17-3.28-.26-6.62-4.48-7.49C734.68,517.08,734.62,516.15,734.56,515.23Z" transform="translate(-702.93 -356.62)"/><path class="cls-3" d="M738.49,528.49c1,.79.74,2.49,2.16,3-.07,2.13-1.84,3.81-1.58,6-1.74-.42-1.23-1.85-1.34-3l.14-.24-.14.24-1.49-2.27C738.28,531.76,737.93,529.85,738.49,528.49Z" transform="translate(-702.93 -356.62)"/><path class="cls-3" d="M743,547.3c-1.36,1.25-3.15,0-2.91-.63,1-2.64-1.55-4.72-.73-7.16C741.83,541.5,741.08,545,743,547.3Z" transform="translate(-702.93 -356.62)"/><path class="cls-5" d="M731.82,637.86l5.28,7.59C733.72,644.78,731.75,642,731.82,637.86Z" transform="translate(-702.93 -356.62)"/><path class="cls-5" d="M737.72,646.28l4.7,5.89C736.9,653.36,738.69,648.71,737.72,646.28Z" transform="translate(-702.93 -356.62)"/><path class="cls-5" d="M722.15,620.69l3,5.94C722.5,625.48,719.85,624.34,722.15,620.69Z" transform="translate(-702.93 -356.62)"/><path class="cls-5" d="M744.77,655l4.44,4.71C746.4,659.34,744.61,658.07,744.77,655Z" transform="translate(-702.93 -356.62)"/><path class="cls-5" d="M750.55,661.05l4.69,4.45C752.37,665.4,750.75,664,750.55,661.05Z" transform="translate(-702.93 -356.62)"/><path class="cls-5" d="M759.58,669.34l3.8,3C761.14,672.58,759.74,671.73,759.58,669.34Z" transform="translate(-702.93 -356.62)"/><path class="cls-5" d="M763.33,672.33l3.06,2.28C764.64,674.83,763.33,674.46,763.33,672.33Z" transform="translate(-702.93 -356.62)"/><path class="cls-1" d="M739.12,516.88c-1.12.37-1.89.1-2.13-1.15A2.83,2.83,0,0,1,739.12,516.88Z" transform="translate(-702.93 -356.62)"/><path class="cls-5" d="M743,652.88l1.79,2.13C743.45,654.94,743.06,654.07,743,652.88Z" transform="translate(-702.93 -356.62)"/><path class="cls-5" d="M756.79,666.92l1.57,1.34C757.06,668.72,756.59,668.22,756.79,666.92Z" transform="translate(-702.93 -356.62)"/><path class="cls-5" d="M758.37,668.29l1.26,1.09C758.89,669.39,758.29,669.23,758.37,668.29Z" transform="translate(-702.93 -356.62)"/><path class="cls-5" d="M779.82,683.5l1.56.88C780.67,684.42,780.07,684.27,779.82,683.5Z" transform="translate(-702.93 -356.62)"/><path class="cls-3" d="M739.28,539a3.82,3.82,0,0,1-.24-.55s.17-.14.26-.21Z" transform="translate(-702.93 -356.62)"/><path class="cls-5" d="M755.92,666.19l.89.81A.9.9,0,0,1,755.92,666.19Z" transform="translate(-702.93 -356.62)"/><path class="cls-5" d="M755.15,665.45l.88.84Z" transform="translate(-702.93 -356.62)"/><path class="cls-3" d="M1092.87,406.9l-1.09-.86Z" transform="translate(-702.93 -356.62)"/><path class="cls-6" d="M1089.38,410.26a154.31,154.31,0,0,1,28,35.38,51.24,51.24,0,0,1,2.51,4.6,18.81,18.81,0,0,0,7.78,9.1c5.08,3,7.21,8.45,7.71,14.31.68,7.9-.33,15.7-1.67,23.46a3.43,3.43,0,0,1-2.61,2.84C1092.88,513,1054.16,523.3,1013.21,521c-14.05-.79-27.82-2.9-40.41-9.81-.54-.3-1.14-.53-1.65-.88-1.59-1.13-4.36-1.95-4.08-3.91.31-2.18,3.13-1,4.8-1.46,1.17-.32,2.77-.18,2.64-2-.12-1.56-1.57-1.32-2.64-1.43-4.65-.49-8.44,1.53-12,4.16-7.2,1.26-10.69,4.25-11.12,9.47-.26,3.19,2.18,5.55,2.63,8.4,1.12,7.06,4.68,12.75,9.15,18,3.8,4.47,5.81,9.48,5.19,15.41-5.22-.47-10.42-1-15.64-1.38-1.36-.1-3.44-.61-3.55,1.59s1.88,1.81,3.33,1.91c3.48.25,7,.36,10.44.82,12.17,1.65,23.11,6,32.09,14.71,2,1.91,2,2.93-.36,4.43a15.73,15.73,0,0,0-6.1,6.45,47.26,47.26,0,0,1,10.71-2.38c3.65-.23,4.32,2.7,4.93,5.07.7,2.71-2.08,2.29-3.52,2.62-2.65.62-5.4.84-9.12,1.37,4.07,2.28,7.6,2.54,10.89,3.55,1.16.36,2.57.31,2.76,2a4.15,4.15,0,0,1-1.36,3.71A6.29,6.29,0,0,1,996,602.9c-3.13-.32-6.25-.73-9.8-1.15,2.32,2.72,3,3.23,5.94,4.58,3.72,1.7,3.86,2.12.28,4.49-9,5.92-18.71,9.86-29.53,10.81-4.94-.45-9.88.4-14.86,0-11.16-1-20.54-5.34-28-13.78-1.22-1.37-2.24-3-4.08-4-.14.54-.28.79-.24,1a3.63,3.63,0,0,0,.43,1A46.7,46.7,0,0,0,943,627.67c3.94,1.31,8,2.42,12.26.83l6.74.56c0,8.69.16,17.38-.19,26.05-.09,2.24.42,4.79-1,6.92l-1.63-2.43c-.86-1.29-1.54-3.36-3.56-2.12s-.49,2.81.33,4.11c4.84,7.71,7.32,16.2,8.37,25.17.06,1.23.13,2.45.19,3.68,0,2,0,4-.07,6.06,0,.74-.1,1.48-.14,2.21A53.09,53.09,0,0,1,959.74,713a.25.25,0,0,0-.13.34c-1.08.87-2.18,1.73-2.33,3.27l0-.07a7,7,0,0,0-3.69,3.06l.12,0a1.14,1.14,0,0,0-1.15.8l-.23-.13c-1.73.43-2.4-.16-2.36-2,0-1.66.46-3.54-1-5.21a4.37,4.37,0,0,0-1.21,2.92c-2.13,2.6-4.13,5.33-7.49,6.55-1.54.56-2.36.38-2.33-1.51,0-2.07.28-4.23-1.11-6-.32.09-.68.09-.75.23-3.12,6.79-8.19,9.46-15.83,9.26-12.5-.33-25-.25-37.23-3.22a61.57,61.57,0,0,1-7.11-2.34c-7.75-2.91-11.6-8.72-12.19-16.82a47.17,47.17,0,0,1,.44-12.33c.21-1.1.59-2.46-.85-2.87s-2.16.79-2.45,2.12a44.21,44.21,0,0,0-1.29,6.23c-.15,2.48-1.06,3.22-3.5,2.81-33.32-5.54-64.87-15.42-91.66-37.11-18-14.55-30.87-32.87-40-54-10.49-24.31-16.06-49.59-14.32-76.22a37,37,0,0,1,3.19-13.25c1.9,1.53,2.66,3.68,4,5.39,2.16,2.81,3.13,2.72,4.59-.59.7-1.59,1.17-3.29,1.74-4.93l1.32.73,0-.06.81,1.53h0a5.22,5.22,0,0,0,1.45,3c.17.51.34,1,.5,1.53.51,1.36.77,2.82,1.79,3.94a.59.59,0,0,0,.12.48c6,14.24,10.47,29.09,17.29,43,6.64,13.53,15.3,25.48,27.85,34.18,23,15.91,52.6,13.13,73.62-6.64,8.76-8.23,15.15-18.19,21.5-28.22,3.13-4.94,6.44-9.78,9.66-14.67.72.59.32,1.33.36,2.05.51,8.46,6.08,11.43,11.49,10.64,6.93-1,11.33-8,10.7-16.42-.43-5.78-5.33-9.62-12.34-9.68,12.15-13.72,15-31.23,19.57-48a58,58,0,0,1,3.52-9.85c3.27-6.78,5.19-14,7.27-21.17,6.6-22.85,17.4-43.31,35.67-59.08A90.56,90.56,0,0,1,1005.75,383c29.47-3.35,55.44,5.32,78.58,23.37,1.08.84,2.22,1.61,3.32,2.41l.17-.11.8.78,0-.08ZM1001,458.32a14.68,14.68,0,1,0-14.49,14.8C994.85,473.11,1001,466.81,1001,458.32ZM908,676.24c-3.12,0-5.25,1.81-5.27,4.56,0,3.07,2.33,5.81,5.08,5.91a5.19,5.19,0,0,0,5.32-5.14A5.27,5.27,0,0,0,908,676.24Zm176-185.66c1,0,2.12,0,2.63-1,.59-1.24-.21-2.23-1.1-2.91a24.23,24.23,0,0,0-7.92-4.15c-1.13-.33-2.32-.34-3.06.74-.91,1.32,0,2.43.8,3.33A13.33,13.33,0,0,0,1084.06,490.58Zm32.39-15.15c-.13-1.49-.47-3.54-2.72-2a13.78,13.78,0,0,0-6.22,9.33,2,2,0,0,0,.86,2.28,2.17,2.17,0,0,0,2.42-.42A13.82,13.82,0,0,0,1116.45,475.43ZM1028,415.85c-.35-2.68-1.74-4.3-4.59-4.36s-4.68,1.76-4.46,4.72,1.83,4.32,4.64,4.25S1027.78,418.62,1028,415.85ZM896.69,580.73c.18,2.62,1.3,4.68,4.16,4.64s4.06-1.91,4.12-4.68c.07-3-1.37-4.27-4.31-4.21S896.63,578,896.69,580.73Zm128.89-175.64a1.93,1.93,0,0,0-2.37-1.74c-1.32.16-2.48.88-2.35,2.32a2.1,2.1,0,0,0,2.35,1.88A2.64,2.64,0,0,0,1025.58,405.09Z" transform="translate(-702.93 -356.62)"/><path class="cls-7" d="M1038.14,665.24c2.81-2.5,3.95-6,5.11-9.33.82-2.38,1.86-3.28,4.23-2.22l0,0a2.73,2.73,0,0,0,2.19.84c3.66,3.18,7.75,5.8,11.36,9.09,11.92,10.89,12.38,37.16,3.64,48-1.83,2.26-3.8,4.29-6.64,5.26l-.24-.25c-.22-2,.66-4.17-.73-6.16-5.44,7.41-5.53,7.49-9.37,8.63-1-2,.6-4.5-1.24-6.32-.29.12-.67.16-.72.3-2.35,7.09-7.77,7.8-14.27,7.6-9.63-.29-19.22-.49-28.36-3.87-4.75-1.76-9-4.3-10.82-9.55-.86-2.48-.65-3.88,2.33-5,11.45-4.5,22.06-10.45,30.34-19.87l.85-.81.66-.69,1.5-1.57h0a1.47,1.47,0,0,0,.8-1.49l0,.05a4,4,0,0,0,3-3h0a19.77,19.77,0,0,0,6.08-9.13A4,4,0,0,0,1038.14,665.24Zm5.57,27.84c.07-2.08-.55-3.81-2.88-4-1.9-.12-2.85,1.17-3.08,3-.27,2.12.68,3.31,2.77,3.55C1042.42,695.89,1043.68,695.22,1043.71,693.08Z" transform="translate(-702.93 -356.62)"/><path class="cls-8" d="M1048.25,637.31c2.06-1.55,1.26-3.9,1.58-5.91,3.2-20.16.18-39.74-5.59-59.06-.73-2.46-1.43-4.92-2.27-7.84,3.77.89,5.83,3.38,8.08,5.31,11.49,9.86,22.31,20.38,30.89,33a103.49,103.49,0,0,1,8.79,16.08c.94,2.09.54,3.39-1.51,4.59-3.08,1.81-6.79,2.32-10.08,4.88,3.87,1,7.34.31,10.73.59,1.27.11,3.59-1.63,3.66,1.4.07,2.45.31,5.09-2.79,6.26-3.34,1.26-6.67-.25-10.41,0,2.17,3.26,5.34,3.79,8.4,4.52.06.4.11.8.17,1.21-.25.55-.51,1.1-.77,1.66-5.69,4.46-10.4.84-15.49-2.63a9,9,0,0,0,.17,2.14c1.9,4.26,1.91,4.28-2.65,4.33-3,0-6,0-9,0l-8.22-2.24-1.38-.1c-.6-.8-1.5-.71-2.35-.77h.06l-.78-3.66,0,0c.88-.86,1.62-1.75.71-3C1048.23,637.77,1048.24,637.54,1048.25,637.31Z" transform="translate(-702.93 -356.62)"/><path class="cls-9" d="M752,549.47c8.83,1.5,10.66,4,8.89,13.45a29.24,29.24,0,0,1-5.07,11.55c-.9,1.25-2.19,2.61-3.39.35-3.8-7.16-6.27-14.87-9.09-22.44a2.87,2.87,0,0,1,.38-2.14l1.53-.07,1.5-.67Z" transform="translate(-702.93 -356.62)"/><path class="cls-10" d="M971.74,702.52a1.45,1.45,0,0,0-.65-.09c-.58-4,.76-8.29-1.56-12.09,0-.46-.09-.92-.13-1.37.24-1.13,1-2.36-.62-3.13a1.09,1.09,0,0,0-.15-.61c.69-2.09-.41-3.76-1.33-5.46a.64.64,0,0,0,0-.51c.27-3.75-2.31-6.69-2.86-10.2,1.71-.35,2.77.35,2.74,2.08-.06,2.75,1,3.39,3.18,1.72.62,3.34-.28,6.45.74,9.61,2.42,7.46,9.92,7.6,15.18,10.91,1,.61,2.32.69,3.11,1.76.56.77,1.14,1.49,2,.27,3-4.42,7.33-3.34,11.52-2.92-1.31.7-2.59,1.48-4,2.1C990.24,698.55,981.06,700.78,971.74,702.52Z" transform="translate(-702.93 -356.62)"/><path class="cls-4" d="M964.42,669.06c.55,3.51,3.13,6.45,2.86,10.2-1.63-.91-1.11-3.47-3.41-4.5.18,4.31,1.52,8.08,1.11,12l-.14.13a3,3,0,0,0-.54-.1c-1-9-3.53-17.46-8.37-25.17-.82-1.3-2.4-2.84-.33-4.11s2.7.83,3.56,2.12l1.63,2.42c.72,2.59,2.31,4.72,3.65,7Z" transform="translate(-702.93 -356.62)"/><path class="cls-9" d="M738.49,528.49c-.56,1.36-.21,3.27-2.25,3.73-.86-4.17-3.54-7.47-5.28-11.22-.05-1.62.4-2.86,2.27-3l1.5,0c4.22.87,4.31,4.21,4.48,7.49Z" transform="translate(-702.93 -356.62)"/><path class="cls-4" d="M971.74,702.52c9.32-1.74,18.5-4,27.16-7.93,1.36-.62,2.64-1.4,4-2.1v0l1.39-.8h0l1.83-.56.14.15c-.2,1.46-1.45,2.06-2.49,2.57a108.77,108.77,0,0,1-28.88,9.33A3.23,3.23,0,0,1,971.74,702.52Z" transform="translate(-702.93 -356.62)"/><path class="cls-10" d="M1025.45,675.39l-.57.61-1.12,1.32.19.19-.21-.16-.66.67-.17.12-.21.24-1.61,1.55-.78.75-.67.6-4,3.4-.15.1-1.5.68c-.09-1-.21-2-.24-3-.07-2.55.06-4.75,3.68-3a1.93,1.93,0,0,0,3-1.75c0-4.45,2.77-3.9,5.62-3.48Z" transform="translate(-702.93 -356.62)"/><path class="cls-2" d="M719.31,520.29c-1.73-.91-2.12-2.72-3-4.12-.49-.77-1.45-1.64-.41-2.59A3.1,3.1,0,0,1,719,513c1,.33,1.79.92,1.75,2.09C720.69,516.91,720.56,518.73,719.31,520.29Z" transform="translate(-702.93 -356.62)"/><path class="cls-4" d="M959.74,713a53.09,53.09,0,0,0,4.54-14.28,3.32,3.32,0,0,0,.61-.13C964.6,703.89,964.47,709.26,959.74,713Z" transform="translate(-702.93 -356.62)"/><path class="cls-4" d="M1037.85,665.67a19.77,19.77,0,0,1-6.08,9.13C1031.92,670.5,1035.47,668.48,1037.85,665.67Z" transform="translate(-702.93 -356.62)"/><path class="cls-4" d="M947.71,716a4.37,4.37,0,0,1,1.21-2.92c1.48,1.67,1.05,3.55,1,5.21,0,1.86.63,2.45,2.36,2-.49.89-1,1.83-2.24,1.4-1-.37-.81-1.42-.82-2.24C949.22,718.06,949.21,716.71,947.71,716Z" transform="translate(-702.93 -356.62)"/><path class="cls-3" d="M733.23,518c-1.87.16-2.32,1.4-2.27,3-2.69-1.19-1-3.59-1.48-5.38a6.38,6.38,0,0,1,3.92-.46C733.35,516.1,733.29,517,733.23,518Z" transform="translate(-702.93 -356.62)"/><path class="cls-4" d="M964.42,696.5c0-2,.05-4,.07-6.06.7-1.14.34-2.38.35-3.58l.14-.13a17.54,17.54,0,0,1-.07,11.27C964.74,697.5,964.58,697,964.42,696.5Z" transform="translate(-702.93 -356.62)"/><path class="cls-4" d="M969.53,690.34c2.32,3.8,1,8.07,1.56,12.09A30.81,30.81,0,0,1,969.53,690.34Z" transform="translate(-702.93 -356.62)"/><path class="cls-4" d="M1052,645.54l8.22,2.24C1057.17,648.08,1054.14,648.38,1052,645.54Z" transform="translate(-702.93 -356.62)"/><path class="cls-4" d="M967.3,679.77c.92,1.7,2,3.37,1.33,5.46C966,683.94,967.66,681.61,967.3,679.77Z" transform="translate(-702.93 -356.62)"/><path class="cls-4" d="M1015.62,684.68l4-3.4C1019.18,683.45,1018.37,685.22,1015.62,684.68Z" transform="translate(-702.93 -356.62)"/><path class="cls-4" d="M1012.25,687.51c-.52,2.51-2.48,2.82-4.54,3l-.15-.19a15.21,15.21,0,0,1,4.54-3Z" transform="translate(-702.93 -356.62)"/><path class="cls-11" d="M1043.68,731.08a12.47,12.47,0,0,1-9-.11Z" transform="translate(-702.93 -356.62)"/><path class="cls-4" d="M953.56,719.59a7,7,0,0,1,3.69-3.06C957.06,718.8,955.43,719.35,953.56,719.59Z" transform="translate(-702.93 -356.62)"/><path class="cls-11" d="M1057.21,728.76c-1.32,2.17-3.24,2-5.28,1.39C1053.47,728.88,1055.4,729,1057.21,728.76Z" transform="translate(-702.93 -356.62)"/><path class="cls-4" d="M1025.45,675.39l.53-1.14v-.06l2.21-2.18.53.49A3.05,3.05,0,0,1,1025.45,675.39Z" transform="translate(-702.93 -356.62)"/><path class="cls-4" d="M1031.79,674.79a4,4,0,0,1-3,3A2.9,2.9,0,0,1,1031.79,674.79Z" transform="translate(-702.93 -356.62)"/><path class="cls-11" d="M1016,730.86c-1.93,1.49-3.56,0-5.27-.55C1012.51,730.57,1014.42,729.28,1016,730.86Z" transform="translate(-702.93 -356.62)"/><path class="cls-4" d="M1047.52,641l.78,3.66C1047.22,643.63,1045.06,642.82,1047.52,641Z" transform="translate(-702.93 -356.62)"/><path class="cls-4" d="M1031,668.76a3.7,3.7,0,0,1-2.25,3.73l-.53-.48c.86-1.14,1.73-2.28,2.59-3.43Z" transform="translate(-702.93 -356.62)"/><path class="cls-4" d="M1014,685.46l1.5-.68c.17,2.38-1.48,2.61-3.22,2.73l-.15-.17,1.83-1.88Z" transform="translate(-702.93 -356.62)"/><path class="cls-4" d="M957.28,716.6c.15-1.54,1.25-2.4,2.33-3.27A2.91,2.91,0,0,1,957.28,716.6Z" transform="translate(-702.93 -356.62)"/><path class="cls-3" d="M727.09,522.55a5.22,5.22,0,0,1-1.45-3C727.31,520,728.47,520.65,727.09,522.55Z" transform="translate(-702.93 -356.62)"/><path class="cls-3" d="M729.38,528c-1-1.12-1.28-2.58-1.79-3.94C729.85,524.64,729.45,526.4,729.38,528Z" transform="translate(-702.93 -356.62)"/><path class="cls-11" d="M1010.12,730.18c-1.39-.2-3.23.86-3.88-1.39C1007.6,729.05,1009.17,728.78,1010.12,730.18Z" transform="translate(-702.93 -356.62)"/><path class="cls-4" d="M1048.21,638c.91,1.28.17,2.17-.71,3C1047.52,640,1047.22,638.83,1048.21,638Z" transform="translate(-702.93 -356.62)"/><path class="cls-4" d="M968.78,685.84c1.59.77.86,2,.62,3.13C968.47,688.07,968.77,686.93,968.78,685.84Z" transform="translate(-702.93 -356.62)"/><path class="cls-5" d="M869.8,727.22c-1.31,0-2.63-.06-3-1.75A5.38,5.38,0,0,1,869.8,727.22Z" transform="translate(-702.93 -356.62)"/><path class="cls-11" d="M1024.22,731a3.49,3.49,0,0,1-4.46.11A9.88,9.88,0,0,1,1024.22,731Z" transform="translate(-702.93 -356.62)"/><path class="cls-3" d="M746.73,549.5l-1.5.67C745.43,549.28,745.68,548.47,746.73,549.5Z" transform="translate(-702.93 -356.62)"/><path class="cls-11" d="M1047.46,730.26c-.22,1-.5,1.76-1.55.62C1046.22,730.15,1046.81,730.15,1047.46,730.26Z" transform="translate(-702.93 -356.62)"/><path class="cls-3" d="M724.89,518.1l-1.32-.73.82-.49Z" transform="translate(-702.93 -356.62)"/><path class="cls-4" d="M1048.24,644.67c.85.06,1.75,0,2.35.77C1049.71,645.48,1048.82,645.56,1048.24,644.67Z" transform="translate(-702.93 -356.62)"/><path class="cls-4" d="M1049.71,654.56a2.73,2.73,0,0,1-2.19-.84C1048.34,653.76,1049.2,653.71,1049.71,654.56Z" transform="translate(-702.93 -356.62)"/><path class="cls-12" d="M964.42,696.5c.16.5.32,1,.49,1.5a5.62,5.62,0,0,0,0,.58,3.32,3.32,0,0,1-.61.13C964.32,698,964.37,697.24,964.42,696.5Z" transform="translate(-702.93 -356.62)"/><path class="cls-4" d="M1028,679.26l-1.5,1.57A1.42,1.42,0,0,1,1028,679.26Z" transform="translate(-702.93 -356.62)"/><path class="cls-4" d="M1023.76,677.32l1.12-1.32C1024.86,676.74,1024.75,677.41,1023.76,677.32Z" transform="translate(-702.93 -356.62)"/><path class="cls-3" d="M725.67,519.57l-.81-1.53A1.48,1.48,0,0,1,725.67,519.57Z" transform="translate(-702.93 -356.62)"/><path class="cls-4" d="M1007.71,690.49l-1.45.77-.14-.15,1.44-.81Z" transform="translate(-702.93 -356.62)"/><path class="cls-4" d="M1028.79,677.78a1.47,1.47,0,0,1-.8,1.49A1.57,1.57,0,0,1,1028.79,677.78Z" transform="translate(-702.93 -356.62)"/><path class="cls-4" d="M1087.13,644c.26-.56.52-1.11.77-1.66A1.6,1.6,0,0,1,1087.13,644Z" transform="translate(-702.93 -356.62)"/><path class="cls-4" d="M1020.31,680.68l.78-.75C1021.7,681.09,1020.66,680.52,1020.31,680.68Z" transform="translate(-702.93 -356.62)"/><path class="cls-4" d="M1022.7,678.38l.21-.24.18.28Z" transform="translate(-702.93 -356.62)"/><path class="cls-4" d="M952.53,720.42a1.14,1.14,0,0,1,1.15-.8Z" transform="translate(-702.93 -356.62)"/><path class="cls-4" d="M1025.84,681.52l-.85.81Z" transform="translate(-702.93 -356.62)"/><path class="cls-4" d="M1023.08,678l.66-.67C1023.86,677.9,1023.64,678.13,1023.08,678Z" transform="translate(-702.93 -356.62)"/><path class="cls-7" d="M1058.07,716.86a1.31,1.31,0,0,1-.27.21s-.19-.14-.18-.17a1.14,1.14,0,0,1,.21-.28Z" transform="translate(-702.93 -356.62)"/><path class="cls-13" d="M885.85,499.92c5.47.06,10.45-.29,15.34,1.28,1.75.57,2.06,1.11,1.68,2.83-3.26,14.4-8.44,27.69-18.5,39.06-7.31,8.27-13,17.89-18.76,27.39-8,13.21-16.8,25.8-30.48,33.8-15.82,9.25-32.35,10.72-49.38,3.35-1.3-.57-2.46-1.22-2.06-3,2.38-10.91,6.53-21,14.72-28.85,7.58-7.3,16.13-6.93,24.57.86,2.47,2.27,4.78,4.73,7.18,7.09.52.51,1.11,1.17,1.93.79,1-.46.32-1.28.27-2-.06-.88-.14-1.75-.14-2.62,0-6.49,2.47-7.92,8.13-4.75,1,.57,2.15,2,3.27.84.87-.9-.44-2-.84-3-2.74-6.65-4.39-13.47-3.09-20.69A8.64,8.64,0,0,1,848,545a36.51,36.51,0,0,1,12.22,1.15c2.31.65,3.1,0,2.13-2.39-2.77-7-5.19-14-5.87-21.54-1.2-13.23,2.66-19.47,16.08-21.55A95.14,95.14,0,0,1,885.85,499.92Z" transform="translate(-702.93 -356.62)"/><path class="cls-12" d="M888.49,484.84c-.09-3,3.38-6,7.51-6.6,1.37-.2,3.52.8,3.92-.94.32-1.41-1.8-2.12-2.9-3.1a29.51,29.51,0,0,1-9.76-16.84c-.65-3.48.92-6.86,3.49-9.5,7.89-8.06,18-11.89,28.59-14.56a44.1,44.1,0,0,1,5.53-.8c2.75-.32,3.73.37,2.2,3.23a130.74,130.74,0,0,0-8.13,18.87c-2,5.67-3.29,11.5-4.74,17.29a32.77,32.77,0,0,1-2.87,6.43c-2.71,5.52-4.31,11.42-6.17,17.22-.73,2.27-1.69,2.8-4,2.32C896,496.81,888.63,489.45,888.49,484.84Z" transform="translate(-702.93 -356.62)"/><path class="cls-12" d="M940.83,396.75c.53-3.54.85-7.28,1.69-10.9,2.25-9.75,8.6-13.75,18.31-11.59A43.47,43.47,0,0,1,978.1,382c2.51,1.92,2.57,3.05-.13,4.21A99.7,99.7,0,0,0,945.43,409c-1.62,1.69-2.63,1.31-3-.65C941.74,404.59,941.36,400.75,940.83,396.75Z" transform="translate(-702.93 -356.62)"/><path class="cls-12" d="M1043.91,381.71c-6-1.13-11.05-2.36-16.24-2.76a120.07,120.07,0,0,0-22.75.09c-1.46.17-3.29.88-4.25-.37-1.09-1.41.37-2.91,1.18-4,3.95-5.31,8.14-10.37,14.32-13.37a10.79,10.79,0,0,1,10-.13C1034.69,365.38,1039.09,373.11,1043.91,381.71Z" transform="translate(-702.93 -356.62)"/><path class="cls-9" d="M769.91,576.47c10.8,0,16.17,8,12.64,17.79-.93,2.56-1.46,5.27-2.23,7.89-.49,1.64-1.23,2.19-3,1a71.6,71.6,0,0,1-18.79-18.95c-2.53-3.61-1.63-5.05,2.45-6.45A22.6,22.6,0,0,1,769.91,576.47Z" transform="translate(-702.93 -356.62)"/><path class="cls-14" d="M889.63,542.73c7,.06,11.91,3.9,12.34,9.68.63,8.46-3.77,15.42-10.7,16.42-5.41.79-11-2.18-11.49-10.64,0-.72.36-1.46-.36-2.05C882.59,551.49,885.63,546.75,889.63,542.73Z" transform="translate(-702.93 -356.62)"/><path class="cls-12" d="M1085.82,397.12c-.24,1.49.43,2.84-.74,3.54s-2.08-.49-3-1.07a131.2,131.2,0,0,0-22.6-12.24c-2-.8-2.14-2.09-.17-3.15a43.26,43.26,0,0,1,12.5-4.84,8.39,8.39,0,0,1,9.06,3.83C1083.84,387.52,1085,392.47,1085.82,397.12Z" transform="translate(-702.93 -356.62)"/><path class="cls-12" d="M930.1,410.76a33.4,33.4,0,0,1,8.51.71c2.6.46,3.61,1.24,1.68,3.79-2.78,3.65-5.29,7.5-8,11.2a6.21,6.21,0,0,1-10.28-.38,32.71,32.71,0,0,1-2.77-4.84c-2.35-5.26.29-9.83,6-10.45A43.57,43.57,0,0,1,930.1,410.76Z" transform="translate(-702.93 -356.62)"/><path class="cls-1" d="M753.83,548.08l.42-.44a2.78,2.78,0,0,1,.33.51s-.17.25-.21.24A4.17,4.17,0,0,1,753.83,548.08Z" transform="translate(-702.93 -356.62)"/><path class="cls-11" d="M762.11,573.93c-.38.26-.82.52-1.18.11-.14-.14.06-.58.11-.89Z" transform="translate(-702.93 -356.62)"/><path class="cls-15" d="M1026,674.25c-2.85-.42-5.64-1-5.62,3.48a1.93,1.93,0,0,1-3,1.75c-3.62-1.75-3.75.45-3.68,3,0,1,.15,2,.24,3h0c-1.33-.2-2.67-.35-4-.61-.75-.15-1.94-.28-1.88.42.27,3.13-3.15,3.92-3.77,6.41h0c-.79-.31-1.38-.26-1.38.8v0c-4.19-.42-8.55-1.5-11.52,2.92-.82,1.22-1.4.5-2-.27-.79-1.07-2.15-1.15-3.11-1.76-5.26-3.31-12.76-3.45-15.18-10.91-1-3.16-.12-6.27-.74-9.61-2.23,1.67-3.24,1-3.18-1.72,0-1.73-1-2.43-2.74-2.08l0,0c0-3.61,2.89-7.25-.14-10.88-.36-.44-.21-1.51,0-2.2.68-2.21.26-4.35.09-6.59-.26-3.41-1.36-7.32.92-10.21,2.48-3.16,6.17-5.29,8.46-8.77.38-.58,1.87-.37,2.82-.63,3.83-1,7.46-2.94,11.64-2.48.89.1,1.17-1.21,1.82-1.72,2.37-1.91,4.61-4.58,7.33-5.25s5.24-2.32,8.24-1.89c1.07.15,1.63-.77,2-1.82,2.89-7.3,1.14-14.62.63-22-.28-4.09-3.91-8-.85-12.37.35-.5-.48-1-1.13-1.16s-1.63-.61-1-1c2.62-1.62.15-2.54-.27-3.79a6.28,6.28,0,0,1,.23-5.07c2-4,6.27-7,5-12.31-.05-.23.29-.67.56-.86,1-.67,7.64.92,8.31,1.93,2.91,4.36,4.55,4.43,7.13,0,.84-1.44,1.9-1.35,3.13-1.39s2.19.49,2.27,1.88c.17,3,1.81,4.25,4.73,4l-.23.11.24-.09q-1.59,2.35,1.13,3.15c.06.34.13.68.2,1-.27,2.56.62,4.88,1.38,7.25.9,2.83,1.73,5.77,1.31,8.73-.26,1.76-2.51,3.59,1.07,4.41.65.14.58,1.23,0,1.5-2.07.9-.88,2.39-1,3.76-.27,3.34,1.25,6.3,1.62,9.47.77,6.36-2.32,12.42-1.56,18.8a1.29,1.29,0,0,1-.35,1c-4,2.49-2.17,6.44-2.56,9.83a3.14,3.14,0,0,0,2,3.62c3.8,1,2.41,3.45,2,5.71s-2.14,4.28-1.47,6.8l0,.27c-1.56-.63-1.83-1.66-1.32-3.26.4-1.23.78-2.77-.67-3.68a4.31,4.31,0,0,0-6.56,3.45c0,1.23,0,2.47,0,3.71-.11,2.53.57,4.44,3.52,4.59,1.52.09,1.73,1.12,1.79,2.31l0,0c-1.66.25-1.68,1.24-1.12,2.49h0c-1.4.16-1.15,1.18-1.1,2.1l0,0c-4.76-.55-2.68,3.08-3.15,5.15h0c-1.34,0-2.68,0-4,0-.77,0-1.63.18-1.35,1.2.62,2.22-.87,4.29-.37,6.48Z" transform="translate(-702.93 -356.62)"/><path class="cls-10" d="M1036.49,564.33c-2.92.3-4.56-.92-4.73-4-.08-1.39-1-1.92-2.27-1.88s-2.29,0-3.13,1.39c-2.58,4.42-4.22,4.35-7.13,0-.67-1-7.36-2.6-8.31-1.93-.27.19-.61.63-.56.86,1.23,5.31-3,8.35-5,12.31a6.28,6.28,0,0,0-.23,5.07c.42,1.25,2.89,2.17.27,3.79-.67.42.41.89,1,1s1.48.66,1.13,1.16c-3.06,4.35.57,8.28.85,12.37.51,7.41,2.26,14.73-.63,22-.42,1-1,2-2,1.82-3-.43-5.56,1.23-8.24,1.89s-5,3.34-7.33,5.25c-.65.51-.93,1.82-1.82,1.72-4.18-.46-7.81,1.44-11.64,2.48-1,.26-2.44,0-2.82.63-2.29,3.48-6,5.61-8.46,8.77-2.28,2.89-1.18,6.8-.92,10.21.17,2.24.59,4.38-.09,6.59-.21.69-.36,1.76,0,2.2,3,3.63.17,7.27.14,10.88-1.34-2.27-2.93-4.4-3.65-7,1.43-2.12.92-4.67,1-6.91.35-8.67.17-17.36.19-26.05,11.43-1.73,22.35-4.88,32.3-11,12.65-7.78,16.44-20.64,9.67-33.86-4.3-8.4-10.86-14.71-18.87-19.63-6-3.7-12.74-5.53-19.39-7.58.62-5.93-1.39-10.94-5.19-15.41-4.47-5.26-8-11-9.15-18-.45-2.85-2.89-5.21-2.63-8.4.43-5.22,3.92-8.21,11.12-9.47a8.45,8.45,0,0,0-1.33,2.2c-.32,1.32-1.74,2.95.14,4,1.62.9,2.5-.53,3.16-1.77,1-1.84,1.84-1.55,2.95-.07,2.64,3.56,4,7.75,5.81,11.71,2.52,5.5,5.53,10.62,10.12,14.68,11.24,9.94,26.27,5.39,30.16-9.17.43-1.64.63-2.85,3-2.71,32.87,1.87,64.6-4.36,95.87-13.7,3.59-1.07,7.15-2.2,10.73-3.29.21-.06.47.09,1,.19-3.15,8.59-8.71,15.34-15.63,21-14.71,11.92-31.91,18.53-50.25,22-23.49,4.5-46.93,4.16-70.06-2.62-1.35-.39-3.17-1.35-3.83.75s1.46,2.33,2.76,2.72a147.18,147.18,0,0,0,43.62,5.78C1034.91,557.36,1034.91,557.35,1036.49,564.33Z" transform="translate(-702.93 -356.62)"/><path class="cls-16" d="M971,514.15a60.74,60.74,0,0,0,15,6,2.93,2.93,0,0,1,2.5,2.35,16.43,16.43,0,0,0,1.75,4.12c3.35,5.74,9.78,5.72,13.14,0,.32-.54.53-1.13.83-1.68.63-1.14,1.73-.9,2.64-.69,1.26.3.76,1.37.63,2.17-1.53,10.11-12.79,15.09-21.69,9.59-4.6-2.85-7.61-7.14-10.11-11.77C974,521.19,972.17,518.23,971,514.15Z" transform="translate(-702.93 -356.62)"/><path class="cls-10" d="M1040.31,649.42c-.67-2.52,1.07-4.52,1.47-6.8s1.79-4.74-2-5.71a3.14,3.14,0,0,1-2-3.62c.39-3.39-1.4-7.34,2.56-9.83a1.29,1.29,0,0,0,.35-1c-.76-6.38,2.33-12.44,1.56-18.8-.37-3.17-1.89-6.13-1.62-9.47.11-1.37-1.08-2.86,1-3.76.61-.27.68-1.36,0-1.5-3.58-.82-1.33-2.65-1.07-4.41.42-3-.41-5.9-1.31-8.73-.76-2.37-1.65-4.69-1.38-7.25,4.77,11.74,7,24.07,8.05,36.6a103.66,103.66,0,0,1-4.69,42.68A10.23,10.23,0,0,1,1040.31,649.42Z" transform="translate(-702.93 -356.62)"/><path class="cls-10" d="M1037,656.81c-.06-1.19-.27-2.22-1.79-2.31-3-.15-3.63-2.06-3.52-4.59,0-1.24,0-2.48,0-3.71a4.31,4.31,0,0,1,6.56-3.45c1.45.91,1.07,2.45.67,3.68-.51,1.6-.24,2.63,1.32,3.26C1039.69,652.29,1038.17,654.46,1037,656.81Z" transform="translate(-702.93 -356.62)"/><path class="cls-5" d="M991.35,521.89c3.3.18,6.06,1.47,9,1.44,2,0,1.76,1.2,1,2.47-2,3.41-5.81,3.61-8.24.41A7.68,7.68,0,0,1,991.35,521.89Z" transform="translate(-702.93 -356.62)"/><path class="cls-10" d="M1026,674.19c-.5-2.19,1-4.26.37-6.48-.28-1,.58-1.18,1.35-1.2,1.34,0,2.68,0,4,0l-.94,2.08c-.86,1.15-1.73,2.29-2.59,3.43Z" transform="translate(-702.93 -356.62)"/><path class="cls-10" d="M1031.73,666.5c.47-2.07-1.61-5.7,3.15-5.15A15.61,15.61,0,0,1,1031.73,666.5Z" transform="translate(-702.93 -356.62)"/><path class="cls-10" d="M1037.63,567.5q-2.72-.79-1.13-3.15A5.8,5.8,0,0,1,1037.63,567.5Z" transform="translate(-702.93 -356.62)"/><path class="cls-10" d="M1035.92,659.27c-.56-1.25-.54-2.24,1.12-2.49A2.81,2.81,0,0,1,1035.92,659.27Z" transform="translate(-702.93 -356.62)"/><path class="cls-10" d="M1034.84,661.38c0-.92-.3-1.94,1.1-2.1A2.69,2.69,0,0,1,1034.84,661.38Z" transform="translate(-702.93 -356.62)"/><path class="cls-1" d="M1036.74,662.84c-.08,0-.19.08-.22,0s0-.16-.08-.24.19-.07.22,0S1036.71,662.76,1036.74,662.84Z" transform="translate(-702.93 -356.62)"/><path class="cls-3" d="M1088.62,409.4l-.8-.78Z" transform="translate(-702.93 -356.62)"/><path class="cls-3" d="M1089.38,410.26l-.78-.94Z" transform="translate(-702.93 -356.62)"/><path class="cls-1" d="M733.23,518c.06-.94.12-1.88.17-2.82l1.16.07c.06.92.12,1.85.17,2.77Z" transform="translate(-702.93 -356.62)"/><path class="cls-1" d="M737.73,534.49l.14-.24-.14.24Z" transform="translate(-702.93 -356.62)"/><path class="cls-4" d="M965.7,557c6.65,2,13.36,3.88,19.39,7.58,8,4.92,14.57,11.23,18.87,19.63,6.77,13.22,3,26.08-9.67,33.86-9.95,6.11-20.87,9.26-32.3,11l-6.74-.56c-4-.67-8-.93-11.73-3.24,1.26-1.19,2.57-.6,3.73-.82,5.18-1,10.71-.12,15.59-2.81,10.82-1,20.57-4.89,29.53-10.81,3.58-2.37,3.44-2.79-.28-4.49-2.93-1.35-3.62-1.86-5.94-4.58,3.55.42,6.67.83,9.8,1.15a6.29,6.29,0,0,0,5.25-1.44,4.15,4.15,0,0,0,1.36-3.71c-.19-1.68-1.6-1.63-2.76-2-3.29-1-6.82-1.27-10.89-3.55,3.72-.53,6.47-.75,9.12-1.37,1.44-.33,4.22.09,3.52-2.62-.61-2.37-1.28-5.3-4.93-5.07a47.26,47.26,0,0,0-10.71,2.38,15.73,15.73,0,0,1,6.1-6.45c2.31-1.5,2.34-2.52.36-4.43-9-8.72-19.92-13.06-32.09-14.71-3.45-.46-7-.57-10.44-.82-1.45-.1-3.44.29-3.33-1.91s2.19-1.69,3.55-1.59C955.28,556,960.48,556.53,965.7,557Z" transform="translate(-702.93 -356.62)"/><path class="cls-1" d="M1001,458.32c0,8.49-6.18,14.79-14.49,14.8a14.67,14.67,0,1,1,14.49-14.8ZM982,455.92c2.89-.18,4.95-1.55,5.14-4.42s-1.76-4.29-4.36-4.66c-2.32-.33-5.18,2.51-5.06,4.92C977.81,454.42,979.43,455.7,982,455.92Z" transform="translate(-702.93 -356.62)"/><path class="cls-8" d="M962.84,621.63c-4.88,2.69-10.41,1.78-15.59,2.81-1.16.22-2.47-.37-3.73.82,3.7,2.31,7.78,2.57,11.73,3.24-4.21,1.59-8.32.48-12.26-.83a46.7,46.7,0,0,1-26.9-21.83,3.63,3.63,0,0,1-.43-1c0-.21.1-.46.24-1,1.84.94,2.86,2.62,4.08,4,7.46,8.44,16.84,12.8,28,13.78C953,622,957.9,621.18,962.84,621.63Z" transform="translate(-702.93 -356.62)"/><path class="cls-14" d="M908,676.24a5.27,5.27,0,0,1,5.13,5.33,5.19,5.19,0,0,1-5.32,5.14c-2.75-.1-5.1-2.84-5.08-5.91C902.76,678.05,904.89,676.21,908,676.24Z" transform="translate(-702.93 -356.62)"/><path class="cls-4" d="M1084.06,490.58a13.33,13.33,0,0,1-8.65-4c-.85-.9-1.71-2-.8-3.33.74-1.08,1.93-1.07,3.06-.74a24.23,24.23,0,0,1,7.92,4.15c.89.68,1.69,1.67,1.1,2.91C1086.18,490.6,1085.07,490.58,1084.06,490.58Z" transform="translate(-702.93 -356.62)"/><path class="cls-3" d="M1116.45,475.43a13.82,13.82,0,0,1-5.66,9.16,2.17,2.17,0,0,1-2.42.42,2,2,0,0,1-.86-2.28,13.78,13.78,0,0,1,6.22-9.33C1116,471.89,1116.32,473.94,1116.45,475.43Z" transform="translate(-702.93 -356.62)"/><path class="cls-14" d="M1028,415.85c-.25,2.77-1.54,4.54-4.41,4.61s-4.44-1.43-4.64-4.25,1.52-4.77,4.46-4.72S1027.68,413.17,1028,415.85Z" transform="translate(-702.93 -356.62)"/><path class="cls-14" d="M896.69,580.73c-.06-2.76,1.14-4.2,4-4.25s4.38,1.21,4.31,4.21c-.06,2.77-1.34,4.65-4.12,4.68S896.87,583.35,896.69,580.73Z" transform="translate(-702.93 -356.62)"/><path class="cls-14" d="M1025.58,405.09a2.64,2.64,0,0,1-2.37,2.46,2.1,2.1,0,0,1-2.35-1.88c-.13-1.44,1-2.16,2.35-2.32A1.93,1.93,0,0,1,1025.58,405.09Z" transform="translate(-702.93 -356.62)"/><path class="cls-12" d="M964.84,686.86c0,1.2.35,2.44-.35,3.58-.06-1.23-.13-2.45-.19-3.68A3,3,0,0,1,964.84,686.86Z" transform="translate(-702.93 -356.62)"/><path class="cls-8" d="M1043.7,693.08c0,2.14-1.28,2.81-3.18,2.59-2.09-.24-3-1.43-2.77-3.55.23-1.84,1.18-3.13,3.08-3C1043.16,689.27,1043.78,691,1043.7,693.08Z" transform="translate(-702.93 -356.62)"/><path class="cls-10" d="M1004.29,691.67c.62-2.49,4-3.28,3.77-6.41-.06-.7,1.13-.57,1.88-.42,1.32.26,2.66.41,4,.61l-1.83,1.89a15.21,15.21,0,0,0-4.54,3l-1.44.81Z" transform="translate(-702.93 -356.62)"/><path class="cls-10" d="M1002.86,692.47c0-1.06.59-1.11,1.38-.8Z" transform="translate(-702.93 -356.62)"/><path class="cls-5" d="M982,455.92c-2.53-.22-4.15-1.5-4.28-4.16-.12-2.41,2.74-5.25,5.06-4.92,2.6.37,4.54,1.9,4.36,4.66S984.85,455.74,982,455.92Z" transform="translate(-702.93 -356.62)"/></svg>