<svg xmlns="http://www.w3.org/2000/svg" viewBox="0 0 558.15 512.31"><defs><style>.cls-1{fill:#372e35;}.cls-2{fill:#d1cec1;}.cls-3{fill:#41393f;}.cls-4{fill:#3b3236;}.cls-5{fill:#3d323b;}.cls-6{fill:#96cb47;}.cls-7{fill:#95cb48;}.cls-8{fill:#fce8a5;}.cls-9{fill:#477944;}.cls-10{fill:#a3cf4e;}.cls-11{fill:#c6e599;}.cls-12{fill:#e2ebce;}.cls-13{fill:#447d45;}.cls-14{fill:#97c949;}.cls-15{fill:#73ad3e;}.cls-16{fill:#af8e2f;}</style></defs><g id="Layer_2" data-name="Layer 2"><g id="Layer_1-2" data-name="Layer 1"><path class="cls-1" d="M509.85,92.1a10.43,10.43,0,0,0,7.64,2.64c5.82-.06,11.65.2,17.46.49,6.41.32,11.2,3.37,13.43,9.45,4.64,12.63,3.94,25.43.46,38.2a7.63,7.63,0,0,1-1.91,3.45c-10.19,9.53-9.52,20.95-6,32.93,6.55,22.09,5.46,43.9-4.11,64.76-12.87,28-35.21,45.15-64.73,53.26-3.36-.87-1.58-1.73-.08-2.85,3.27-2.44,8.31-2.21,10.18-6.73h.07l1.34-.72-.08,0c2.52-.09,5.1-.06,5.6-3.44l.15-.07c1.81.66,2.87.15,2.94-1.9l.21.29-.17-.31c1.47.52,2.19-.09,2.36-1.55l0,0c1.59.08,3-.15,3-2.2l1-.77c.91-.06,1.65-.34,1.8-1.39l-.09.1,1.23-.94-.12.11,1.19-1.05,1-.84c.92-.08,1.66-.35,1.64-1.47l.29.22-.26-.26c3.08.62,4.06-1.16,4.29-3.78,9.16-10,17.68-20.37,22.21-33.42l1-2.27a.29.29,0,0,0,.08-.47,3.19,3.19,0,0,0,1-2.55l.14-.21-.12-.22c6.58-17.69,6.37-35.36-.37-52.94-1.59-4.17-2.58-.71-3.69.46l-4.08,3.93-1.08,1,0-.05-1.1,1,.07-.11-1.94,1.17h0l-1.11.94.06-.1a2.34,2.34,0,0,0-2,1.1l.06,0-2,1.05,0,0c-5.07,1.51-9.92,3.75-15.27,4.31-18.66,1.95-37.11,2.13-54.53-6.42l0,.1-1.11-1h0a2.1,2.1,0,0,0-2-1.12l.06.08-1.09-1,0,0-1.05-1h0l-1-1,0,0-1-.94-2.06-2.05-.93-1,0,0-1-1.05,0,0-1-1.08.09,0a2.17,2.17,0,0,0-1.14-1.93v0a4.88,4.88,0,0,0-1.93-3v0l-1-2h0l-1-2h0a5.91,5.91,0,0,0-1.91-4.08l0,0c-1.95-6.49-2.42-13.52-6.87-19.12l-.05,0a6.15,6.15,0,0,0-5.08-5l-.07,0c-5.44-3.8-10.86-3.23-16.26.09l.06-.05a2.22,2.22,0,0,0-2,1.15h0l-1.05,1,0,0c-.35.34-.69.69-1,1l0,0c-.33.35-.65.7-1,1v0a2.21,2.21,0,0,0-1.16,1.94l0-.07a6.24,6.24,0,0,0-2.11,5l0,0c-1.88,2-2.26,4.68-2.94,7.21l0,.36a2.89,2.89,0,0,0-1.08,2.51l0-.09a2.19,2.19,0,0,0-1,2.09l.05-.08a2.28,2.28,0,0,0-1.05,2.08l.05-.08a2.22,2.22,0,0,0-1.08,2.05l.12-.08-.94,1.16v0c-.36.68-.72,1.35-1.09,2l0-.07a2.2,2.2,0,0,0-1.13,2l.1-.07-1,1.12.07,0-1,1.09h0l-1.19,1.91.09-.07c-.34.36-.67.73-1,1.1l.06-.05-1,1.07,0,0-1,1,0,0-1,1,0-.05-1.05,1.05,0-.05-1.06,1,0-.06-1.07,1,.05-.07-1.07,1,.05-.09a2.23,2.23,0,0,0-1.9,1.17h0l-1.08,1,.05-.06-1.12,1,.05-.12a2.15,2.15,0,0,0-2,1.12l0-.05c-5.14,1.8-10,4.5-15.46,5.32-21,3.14-41.65,3.35-61.3-6.33V183l-1.07-1h0a1.93,1.93,0,0,0-1.94-1.09l.07-.07a2.74,2.74,0,0,0-2.08-1.85l0,0-1-1h0l-1-1,0,0-1-1,0,0-1-1h0l-1-1h0l-1-1,.05,0-1-1.08.08,0a2.1,2.1,0,0,0-1.12-1.95v0l-1-1.11.11,0a1.92,1.92,0,0,0-1.08-2l0,0a2,2,0,0,0-1-2l0,0a2.09,2.09,0,0,0-1-2.05l0,.06a3.67,3.67,0,0,0-1.12-3l0,0a2.22,2.22,0,0,0-.94-2.09l.05.05c0-1.13,0-2.26-1-3.05l.07,0c-1-2.9,1-7.39-4.27-8a.3.3,0,0,0-.49,0,24.7,24.7,0,0,0-8.25-2.78c-1.1-.62-1.66-2-3.13-2.13-.7-1.44-2.11-2.13-3.39-2.8-4.48-2.34-6.34-5.8-5.72-10.92s.81-10.18,1-15.28c.09-2.52,1.58-3.42,3.63-4a59.4,59.4,0,0,0,12.33-5l5.07-5.74c2.44-2.84,7-2.66,8.88-6.26l3.93,2.11c30-.83,60-.48,89.93,0,10.51.17,18.79,5.33,24.23,14.43,1.26,2.1,2.39,2.72,4.73,2.22a60.73,60.73,0,0,1,20.87-.47c3.25.44,5-.06,6.92-2.86,5.26-7.68,12.55-12.14,22.09-12.72,17-1,34-.16,50.94-.37,1.77,0,4.05,1.22,5.3-1.27C505,93.11,507.58,93.48,509.85,92.1Zm-42.28,78.18c2.59,1.08,5.29.9,8,.72a91.88,91.88,0,0,0,26.23-1.07c4.16-.78,8-2.51,10.65-6,8.38-10.93,11-23.42,9.59-36.92-.91-7-5-10.67-13-10.91-17.61-.53-35.22-.69-52.84,0-6,.25-9.89,3.15-11.52,9-3.77,13.95-.2,26.32,8.31,37.51a12.86,12.86,0,0,0,6.61,5A12.28,12.28,0,0,0,467.57,170.28ZM288.7,124.18c-3.59,11.42-2.72,22.44,3,33,4.62,9.68,12.92,13.17,23,13.69h5.86a102.24,102.24,0,0,0,20.91-.49c7.54-.84,13.76-4,18.43-9.85a50.89,50.89,0,0,0,11-31c0-1.62.18-3.39-1.3-4.63-1.49-6.47-4.91-9.25-12.47-9.65a520.6,520.6,0,0,0-56.7,0C294.52,115.63,290.4,118.3,288.7,124.18Z"/><path class="cls-2" d="M444.69,477.1c17.54.87,35,2.31,52.55,3.78,14.55,1.22,29,2.9,43.41,5.23a63.36,63.36,0,0,1,14.88,3.95c1,.44,2.45.72,2.61,2.05.18,1.58-1.2,2.29-2.35,2.9-5.83,3.09-12.31,4-18.67,5-17.36,2.79-34.89,3.86-52.41,5.19-16.38,1.24-32.76,2.17-49.15,3-15.59.83-31.19,1.17-46.76,2.07-15.81.91-31.62-.1-47.37.91-27.28,1.73-54.58.94-81.84.57-13.44-.19-26.94,0-40.37-.82-16.25-1-32.52-1.18-48.76-2-21-1-42.07-2.15-63-4.08-17.46-1.61-35-3.11-52-7.77-3.06-.84-7.87-.9-8.09-4.42C47,488.65,52.08,488.88,55,488c11.15-3.37,22.73-4.6,34.26-5.83,14.32-1.53,28.69-2.68,43.05-3.9,6.77-.58,13.59-.54,20.38-.89,10.44-.54,20.9-1.13,31.36-1.5,9.45-.34,18.92-.52,28.38-.95l1.23,1.3,0-.05,2,3.28a13.16,13.16,0,0,0,4.93,5.72,3.76,3.76,0,0,0,3.18,1.71l1,.15,4,.71,6,.37a46,46,0,0,0,11,.55l25,.45a120.5,120.5,0,0,0,27-.07l1-.05a15.63,15.63,0,0,0,7-.92l2-.28,2-.68,1-.24a4.83,4.83,0,0,0,3.13-1.72,7.17,7.17,0,0,0,3.81-5.07,5.07,5.07,0,0,0,.93-4l.39-1.05a17.54,17.54,0,0,1,7.32-.94c13,1.44,26.11.89,39.16.94,2.13,7.5,5.4,13.61,14.56,13.94a426,426,0,0,0,47.4-.62C435.54,487.76,441.38,484.61,444.69,477.1Z"/><path class="cls-3" d="M251.83,142.13c1.47.08,2,1.51,3.13,2.13l-.24,1.91a.53.53,0,0,0-.1.61,2.77,2.77,0,0,0-.85,2.37c-4,11.15-6.23,22.74-9.05,34.19-2.89,11.75-4.35,23.9-9.52,35-4.73,10.22-11.93,18.76-18.55,27.71a190.47,190.47,0,0,0-15.83,21c-2.95,4.43-6,8.81-8.84,13.29-9.32,14.57-18.25,29.34-30.68,41.69-31,30.77-81,30.31-108.6,6.75C28.22,308,17.12,281.46,21.29,249.12c3.13-4.85,1.15-10.13,1.12-15.21,0-1.71-.59-3.23,1.2-4.3,3.69,5.1,2.8,11.06,3.07,17.17,4.81-1.51,9.3-3.47,14.17-4.19,16.74-2.49,27.47,6.43,28,23.32A52.59,52.59,0,0,1,67,281.66c0,.43,0,.86,0,1.29l1.22-.35c10.26-2.85,14.68-.67,20.93,10.63,5.34-7.59,11.14-14.3,21.65-12.57,9.06,1.49,16.25,6.4,23.17,12.89,1.7-5.1,4.44-8.68,9.8-9.46,2.4-.36.86-2.13.66-3.12a53.52,53.52,0,0,1-1-18.33C145,252.38,150.58,247,161,246.35c3.45-.22,6.93,0,10.73,0a97.91,97.91,0,0,1-5.6-23.81c-2.42-22.19,6.57-33.31,28.7-35.56a94,94,0,0,1,14.43-.12l1.39,0-.39-1.17c-4.89-7.8-3.06-15.16,5.23-18.91,3.15-1.43,2.79-2.46,1.46-4.93a73.67,73.67,0,0,1-7.42-19c-2.79-12.74,1.1-23,11.2-30.94,8.93-7,19.39-10.84,30.26-13.64,1.44-.36,2.88-.69,4.63-1.11-2.29-4.17-5.11-7.69-6.2-12.13-2-8.18,1.23-14.29,9.27-16.6A35.28,35.28,0,0,1,276.48,68c3.24.74,4.28.37,3.79-3.48C279,54.91,279,45.25,281.8,35.8c4.06-13.91,13.92-20,28.15-17.21A65.42,65.42,0,0,1,338.3,31.53c2.61,2.06,4.83,2.31,8.1,1.7C352.89,32,357.05,29,360.24,23A50.91,50.91,0,0,1,378.38,4.06c8.82-5.58,17.63-5.43,26.16.58,9.56,6.73,15.65,16.19,20.35,26.65,2.27,5.06,6.85,6.42,11.54,3.36,6-3.93,12.34-7.26,19.51-8.58,9.74-1.79,16,1.3,20.49,10.11,3.88,7.55,5.41,15.72,6,24.06a7.75,7.75,0,0,0,3.32,6.17A143.38,143.38,0,0,1,507.59,88.3c1,1.14,2.11,2.18,2.26,3.8-2.27,1.38-4.81,1-7.28,1.11-9.53-10.2-19-20.48-30.14-29C427.5,30,367.66,23.14,318.9,52.56a118.94,118.94,0,0,0-41.34,41.67l-3.93-2.11c1.82-5.7,6.26-9.7,9.55-14.43,1.91-2.74,1-3.77-1.71-4.4a48.44,48.44,0,0,0-19.77-.86c-7.81,1.46-9.77,5.14-7.14,13.09,1.76,5.35,4.82,10.14,10.19,12.86l-5.07,5.74c-.17-2.28-1.86-2.11-3.32-1.85-12.75,2.29-25,6.08-34.83,14.9-4.75,4.25-7.94,9.57-7.92,16.55,0,11.34,5,20.82,10.32,30.29,1.17,2.07,3.26,3.72,3.45,6.68a23.68,23.68,0,0,0-4.64-.46c-3.67.35-7.44.82-9.32,4.65s.24,6.81,2.29,9.64c1.83,2.52,4,4.78,6.06,7.22-1.64.78-3-.09-4.43-.17-7.91-.47-15.84-1.42-23.7.51l-3.91.19-1.08.85a3.69,3.69,0,0,0-.88,0c-1.13,0-2.26,0-3.07,1a5.06,5.06,0,0,0-.95.06l-2,.95a5.84,5.84,0,0,0-4,2.07l-1,.94c-1.54.9-2.81,2-3,3.93-.32.69-.65,1.38-1,2.07h0c-1,.78-1,1.9-1,3a4.63,4.63,0,0,0,0,.91,19.49,19.49,0,0,0,0,13.22l.17,5.9a10,10,0,0,0,1.84,6.08l.1,1.9.9,1.13c0,.62,0,1.24.08,1.86l.93,2.08.15,2,.87,1a5.8,5.8,0,0,0,0,.93l.92,1.14c0,.62.07,1.25.1,1.87l.92,1.09a3.88,3.88,0,0,0,0,.9l1,2,.15,2.09-3.16-.16a36.18,36.18,0,0,0-18.12-1.77c-5,.66-8.89,3.55-9.94,9.08-1.84,9.66.66,18.68,4,27.59.67,1.8,1.7,3.5,1.63,5.6-2.09,0-3.22-1.39-4.56-2.23-6.72-4.2-10.6-2.17-10.95,5.84-.05,1,.13,2,0,3-.13,1.21,1.52,2.8-.22,3.54s-2.77-1-3.56-2.12c-5.73-8.16-14.27-12.05-23.1-15.54-5.72-1.83-11.1-.11-15,4.75a64.87,64.87,0,0,0-10,17.15c-.44,1.15-.48,2.75-2.45,2.48a6.51,6.51,0,0,1-.48-5.32c1-3.77.23-7.25-1-10.72-2.55-7.35-8.55-9.47-15.48-5.87-3.91,2-7.15,5-11,7.33-.79-1.69.23-2.59.61-3.61,3.46-9.2,7.07-18.33,6.6-28.45-.37-8.21-5.62-15.62-12.55-16.5-7.69-1-15.29-.31-22.36,3.4-3.6,1.89-5.52,4.63-5.09,8.84C25,270.9,26.08,282.14,31,292.77,42.31,317,59.5,334,86.32,339.35c7.35,1.48,15,3.24,22.57.83l3.88,0c1.74-.1,3.61.44,5.11-1h.44l.44,0a3.81,3.81,0,0,0,3.17-1l1.84-.07,2.15-.94h.42l.41,0,2.18-1,1.85-.12,1.14-.91.42,0,.42-.05,2-1h0l2.08-1a36,36,0,0,0,4.07-1.78c15.87-9.3,27.41-22.84,37.27-38.06,10.53-16.26,19.58-33.54,32.56-48.16,14.69-16.61,24.86-35.3,28.56-57.55A215.67,215.67,0,0,1,251.83,142.13ZM283.64,55c.45,3.66.93,8.43,1.66,13.17.52,3.3,1.71,4.36,4.67,1.45C302.83,57,316.94,46,333.85,39.18c3.38-1.38,3-2.81.37-4.76A65.93,65.93,0,0,0,311.39,23.6c-13.47-3.42-22.41,2-25.67,15.55A84,84,0,0,0,283.64,55Zm136-23.87a17.19,17.19,0,0,0-.78-1.78c-4.62-8.11-9.68-15.87-17.61-21.23-5.44-3.68-11.19-5-17.31-1.87-9,4.63-15.53,11.72-20.45,20.41-1.54,2.71-.06,3.67,2.53,3.47,3-.23,5.92-.8,8.88-.89,13.95-.44,27.85-.16,41.48,3.32C417.77,33,419.36,33.75,419.61,31.16Zm57.2,23.37c-1.05-5.57-2-11.68-5-17.13-3.65-6.5-8.14-8.27-15.5-6.6C450.87,32,446,34.49,441.09,37c-.87.45-1.95.86-1.92,2s1.21,1.48,2.09,1.84a174.1,174.1,0,0,1,31.12,16.76c1.05.71,2.08,2,3.53,1.1S476.6,56.3,476.81,54.53Z"/><path class="cls-4" d="M444.69,477.1c-3.31,7.51-9.15,10.66-17.25,11.28A426,426,0,0,1,380,489c-9.16-.33-12.43-6.44-14.56-13.94-.29-3.13-.8-6.27-.82-9.41s-1-4-4.17-3.34a269.16,269.16,0,0,1-36.52,5c-4.05.26-6.19,1.44-5.36,5.81-2.22,0-1.34-2.73-3-3.44-2.92,1.72-3,5.69-5.84,7.44,0-18.07-3.12-35.64-8.3-52.92-1.19-4-3-5.21-6.72-3.15-11.15,1.43-21.59-1.58-32-5v0a3,3,0,0,0-2.94-1.13v0a4.58,4.58,0,0,0-4-2l0,0a1.69,1.69,0,0,0-2-1v.1l-1.09-1h0a4.85,4.85,0,0,0-3-1.92l0,0a2.13,2.13,0,0,0-1.92-1.09l0,.05-1-1,0,0a4.84,4.84,0,0,0-2.87-2.1l-.06.09-1-1,0,0-1-1h0l-1-1,0,0-1-.92-.07-.07-.94-.93-.06-.07-.94-.93-.06-.07-.93-1,0,0c-.33-.33-.65-.67-1-1h0l-1-1,0,0-1-1.07.06,0-1-1.06.09,0a2,2,0,0,0-1.11-2v0l-1-1.1.11,0a2,2,0,0,0-1.08-2H230a5.41,5.41,0,0,0-2-4l0,0a3.07,3.07,0,0,0-1.09-3l0,0a59.31,59.31,0,0,1,1-25.87l-.05.06c.85-.49.92-1.32,1-2.17l0-.39.89-1.55a.47.47,0,0,0,.16-.55,2.84,2.84,0,0,0,1.05-2.38l-.08.07.91-1.13h0c.36-.66.72-1.31,1.07-2l0,0,1.29-2c4.42-5.35,8.34-11.23,15.12-14.11a117.21,117.21,0,0,0-12.87,21.3c-8.14,17.34-4.54,33.11,10.46,44.88,10.53,8.26,22.54,13.38,35.56,16.27a31.49,31.49,0,0,0,18.18-1c3.76-1.39,8.17-2.19,5.2-8.07,2.64.18,4,1.84,5.74,2.68,2.18,1,4.5,2,6.47,0s1.24-4.45.11-6.51a42.19,42.19,0,0,0-4.35-6.06c-1.7-2.08-1.15-3.23,1.24-3.9,2.55-.73,5.16-1.32,7.64-2.24,2.86-1.06,5-2.92,4.24-6.4-.68-3.27-3.34-5.33-6.13-4.75-9,1.84-12.1-3.21-13.92-10.46a12.39,12.39,0,0,0-1-2.26c-7.22-14.92-18.19-26.46-32-35.41l-.06.05,3.68,0c16.17,9,27.81,22,34.36,39.34,1.38,3.65,2.39,5.33,6.84,4.47a11.87,11.87,0,0,1,13.58,7.69c1.69,5-.69,10.43-6.61,13.55-2.71,1.43-2.24,2.56-1.43,4.81,3.16,8.75-1.92,15.58-11,15.09-4.7-.25-5.83,1-4.27,5.41,3.59,10,6.68,20.21,8.26,30.78.42,2.84,1.5,3.78,4.57,3.49,13.26-1.23,26.5-2.5,39.64-4.74,24.77-4.23,48.63-11.05,70-24.8,4.28-2.75,8.46-5.64,11.89-9.85-6.17-3-7.81-8-6.41-13.89.78-3.32-.52-4-3.23-5.05-10.11-4-11.46-14.59-2.9-21.27a24.28,24.28,0,0,1,8.88-4.41,4.79,4.79,0,0,0,3.8-3.95,117.11,117.11,0,0,1,18.45-39.05c6.13-8.4,8.76-16.17,3.91-25.69,0-1.29.11-2.59.17-3.89l16.33-8.49c-1.87,4.52-6.91,4.29-10.18,6.73-1.5,1.12-3.28,2,.08,2.85-2.5,1.63-.74,3.67-.27,5.33,3.61,12.95,8.2,25.63,10.27,39a86.47,86.47,0,0,1-8.51,53.75c-4.25,8.36-10.29,15.18-19.23,18.7-2.71,1.07-2.79,2.7-2.7,5a197.74,197.74,0,0,1-2.88,43.72A99.36,99.36,0,0,1,444.69,477.1Zm-.37-53.43c-18.83,16.66-40.78,27.38-64.8,34.21-8.74,2.49-8.73,2.51-7.79,11.4,1,9.31,5.57,13.72,14.93,13.85,10.83.15,21.66,0,32.49.06,7.73.06,12.75-3.3,15.73-10.59,6.34-15.47,8.69-31.72,10.16-48.18.34-.37.54-.8,0-1.13C445,423.21,444.58,423.53,444.32,423.67Zm25.4-105.13c-1.4,2.79-2.86,5.55-4.18,8.37-5.79,12.38-9.82,25.41-14.09,38.35-1.67,5-3.92,9-9.76,9.92a13.61,13.61,0,0,0-4.52,2.05c-2.29,1.34-4.89,2.7-4.52,5.93.39,3.45,3.39,4.1,6.07,5.07,3.12,1.12,6.47.55,10.22,1.12-2,3.85-3.91,7.16-4.62,10.94-.33,1.78-1.31,3.76.3,5.16,1.8,1.57,3.83.34,5.61-.46a28.54,28.54,0,0,0,12.69-11.63C477.11,369.71,477,344.53,469.72,318.54Z"/><path class="cls-5" d="M309.8,477.1c2.83-1.75,2.92-5.72,5.84-7.44,1.63.71.75,3.42,3,3.44l.39,2-.39,1.05c-2.5.81-2.23,2.27-.93,4a7.17,7.17,0,0,1-3.81,5.07c-1.38,0-2.78-.13-3.13,1.72l-1,.24c-1.19-1.32-1.67-.55-2,.68l-2,.28c-2.56-1.5-5-1.69-7,.92l-1,.05c-5.55-2.05-11.3-.68-17-.84-3.32-.1-6.86-1.13-10,.91l-25-.45c-3.53-2.89-7.25-1.8-11-.55l-6-.37c-1-2.28-2.39-1.94-4-.71l-1-.15c-.36-1.87-1.78-1.77-3.18-1.71a13.16,13.16,0,0,1-4.93-5.72c.1-1.57.17-3.11-2-3.28l0,.05c0-2.27-.06-4.55-3-5l.05.05c-.57-3-3-2.17-4.79-2.07-9.63.52-19.2-.66-28.75-1.35-16.18-1.17-32-4.82-47.66-9-1.27-.34-2.5-1.09-3.67.17C83.39,447.67,49.4,424.42,25.5,387.3a107.18,107.18,0,0,1-11.59-24.23c1.2-4.8-2-8.72-3-13-.87-3.75-.21-4.87,3.19-5.2L14,345a2,2,0,0,0,1,2.19v.39c-.15,2.16,0,4.19,2.1,5.49L17,353c-.33,1.85.08,3.36,1.94,4.19v.41A2.33,2.33,0,0,0,20,360.06L20,360a2,2,0,0,0,.95,2.18.47.47,0,0,1,0,.55c-.11,1.17.17,2.1,1.47,2.4a.8.8,0,0,1,.51.65A2.11,2.11,0,0,0,24,368.06l-.1-.1.77,1.13,1.2,2.78.94,1.25a.88.88,0,0,1,.09.67L28,375.05l0-.08A1.84,1.84,0,0,0,29,377.06c.82.32.92,1,.87,1.75L31,380l-.05-.09.85,1.17a1.06,1.06,0,0,1,.12.7L33,383l-.08-.06L34,384.05l.83,1.83L36,387l-.09-.07,1.1,1.1,3.89,4.79,1.06,1.23,1.87,2A1.83,1.83,0,0,0,45,398l-.11-.07L46,399l-.09-.07L47,400l-.09-.08L48,401l-.08-.08L49,402l-.09-.08L50,403l-.09-.08L51,404l-.09-.09L52,405l-.08-.09L53,406l-.08-.08L54,407l-.08-.1a1.85,1.85,0,0,0,1.83,1.25L57.82,410l1.09,1.09-.07-.09L60,412l-.07-.09L61,413l-.07-.09,1.09,1-.06-.1c.29,1,1.06,1.2,2,1.19l0,0c0,1.41.71,2.11,2.17,1.86l-.13,0c.32,1,1.08,1.18,2,1.18l0-.05c.07,1.41.73,2.1,2.19,1.85l-.13,0c.32,1,1.09,1.18,2,1.16l0-.06c.05,2.08,1.47,2.17,3,2.06l-.09,0L76.34,424l.24-.08.2.17c.22,1.91,1.59,2,3.06,1.94l0,0c.58,2.87,2.81,2.95,5.06,3l-.06,0L86,430v-.15c1.74,3.18,4.63,4.1,8,4.06l-.07,0c.63,1.34,1.83,1.22,3,1.16l-.05,0c4.67,4.87,10.94,5.77,17.11,6.95l-.08-.06c.67,1.34,1.86,1.23,3.06,1.07l-.07-.06c7,4.08,14.87,5,22.58,6.67,19.43,4.22,39.13,5.77,58.93,6.53,1.78.07,3.67.46,5.31-.71l1.25-.25c2-.1,3.8-.5,4.91-2.57,1.3-2.43,1.92.3,2.89.53a5.39,5.39,0,0,1,.1.89c-.05,1.14-.14,2.29.91,3.12a4.81,4.81,0,0,1,.1.85,2.39,2.39,0,0,0,.88,2.15,3,3,0,0,1,.12.84c-.11,2.05.27,3.88,2.09,5.14l-.06-.09c.28,3.23.43,6.54,4.17,8v-.08c-.22,1.47.5,2.11,1.9,2.19l2.9,2.88c.07,2.31,2.1,2.3,3.53,2.87,5.51,2.19,11.48,1.89,17.14,2.09,16.57.59,33.18.35,49.77.08,3.2-.05,7.08.4,9.46-3l1.71-1,1.29-1-.07.07,1-1.32A.65.65,0,0,1,309.8,477.1Z"/><path class="cls-4" d="M14.11,344.83c-3.4.33-4.06,1.45-3.19,5.2,1,4.32,4.19,8.24,3,13C6.77,346.23,3.06,328.53,1.18,310.43-1.34,286.18-.16,262.24,7.89,239c1.2-3.46,2.5-6.92,5.18-9.57s5.36-4,8.76-1.37l1.34,1.19a.37.37,0,0,1,.44.4c-1.79,1.07-1.2,2.59-1.2,4.3,0,5.08,2,10.36-1.12,15.21A41.22,41.22,0,0,0,21,233.78c-.74-3.21-2.38-3.28-4.52-1.27-3,2.83-4.43,6.59-5.7,10.38-5.35,16-6.79,32.44-6.3,49.16C5.05,310.12,9.22,327.54,14.11,344.83Zm-4.56-6.26c-.92.32-1.54.9-1.36,1.84.24,1.37.91,2.63,2.4,2.87,1.2.19,1.23-.91,1.08-1.7C11.41,340.29,11.12,338.94,9.55,338.57Z"/><path class="cls-4" d="M125.81,459c1.17-1.26,2.4-.51,3.67-.17,15.67,4.16,31.48,7.81,47.66,9,9.55.69,19.12,1.87,28.75,1.35,1.77-.1,4.22-1,4.79,2.07-27.65-.36-55-3.12-81.59-11.07C128,459.82,126.9,459.39,125.81,459Z"/><path class="cls-4" d="M210.63,471.18c3,.49,3,2.77,3,5l-1.23-1.3Z"/><path class="cls-3" d="M23.17,229.21,21.83,228Z"/><path class="cls-6" d="M14.11,344.83c-4.89-17.29-9.06-34.71-9.59-52.78-.49-16.72,1-33.2,6.3-49.16,1.27-3.79,2.67-7.55,5.7-10.38,2.14-2,3.78-1.94,4.52,1.27a41.22,41.22,0,0,1,.25,15.34C17.12,281.46,28.22,308,52.7,328.86c27.58,23.56,77.64,24,108.6-6.75C173.73,309.76,182.66,295,192,280.42c2.87-4.48,5.89-8.86,8.84-13.29,1.66,1.44,1.66,3.46,2.06,5.42a13,13,0,0,0,12.25,10.53c4.37.07,8.19-3.6,9.68-9.13a33.18,33.18,0,0,0,0-16.21c-1.13-5-3-9.42-8.13-11.64,6.62-8.95,13.82-17.49,18.55-27.71,5.17-11.15,6.63-23.3,9.52-35,2.82-11.45,5.1-23,9.05-34.19a2.39,2.39,0,0,0,.85-2.37.53.53,0,0,1,.1-.61l8.49.87a.3.3,0,0,1,.49,0c2.84,1.92,1.65,6,4.27,8l-.07,0c-.15,1.18-.24,2.35,1,3l-.05-.05a2,2,0,0,0,.94,2.09l0,0c-.05,1.15-.14,2.32,1.12,3l0-.06a1.82,1.82,0,0,0,1,2.05l0,0a1.81,1.81,0,0,0,1,2l0,0a1.69,1.69,0,0,0,1.08,2l-.11,0,1,1.11v0a1.83,1.83,0,0,0,1.12,1.95l-.08,0,1,1.08-.05,0,1,1h0l1,1h0l1,1,0,0,1,1,0,0,1,1h0l1,1,0,0c0,1.36.67,2,2.08,1.85l-.07.07a1.85,1.85,0,0,0,1.94,1.09h0l1.07,1V183c1.91,3.37,5.55,3.94,8.67,5.25,12.52,5.24,25.75,3.57,38.79,4,8.15.27,15.78-1.6,23.3-4.26,2.26-.79,4.88-1.36,6-4l0,.05a1.7,1.7,0,0,0,2-1.12l-.05.12,1.12-1-.05.06,1.08-1h0a1.84,1.84,0,0,0,1.9-1.17l-.05.09,1.07-1-.05.07,1.07-1,0,.06,1.06-1,0,.05,1.05-1.05,0,.05,1-1,0,0,1-1,0,0,1-1.07-.06.05,1-1.1-.09.07a1.93,1.93,0,0,0,1.19-1.91h0l1-1.09-.07,0,1-1.12-.1.07a1.83,1.83,0,0,0,1.13-2l0,.07a2.09,2.09,0,0,0,1.09-2v0l.94-1.16-.12.08a1.74,1.74,0,0,0,1.08-2.05l-.05.08a1.8,1.8,0,0,0,1.05-2.08l-.05.08a1.76,1.76,0,0,0,1-2.09l0,.09c1-.55,1.12-1.5,1.08-2.51l0-.36c2.74-1.68,3-4.39,2.94-7.21l0,0c2-1.11,2.33-2.95,2.11-5l0,.06a1.93,1.93,0,0,0,1.16-1.93v0c.33-.34.65-.69,1-1l0,0c.34-.34.68-.69,1-1l0,0,1.05-1h0a2,2,0,0,0,2-1.15l-.06.05a43.79,43.79,0,0,1,16.26-.09l.06,0a8.31,8.31,0,0,0,5.09,5l0,0c2.25,6.38,2.84,13.37,6.88,19.11l0,0c-.32,1.81,0,3.31,1.91,4.08h0a2.07,2.07,0,0,0,1,2h0a2,2,0,0,0,1,2v0c-.12,1.5,0,2.87,1.93,3v0a1.93,1.93,0,0,0,1.14,1.93l-.08,0,1,1.08,0,0,1,1.05,0,0,.93,1,2.06,2.05,1,.94,0,0c.35.31.69.63,1,1h0l1.05,1,0,0,1.09,1-.06-.08a1.87,1.87,0,0,0,2,1.12h0l1.11,1,0-.1c4.07,5.11,10.31,5.71,15.94,7.06,12.87,3.08,26,2.84,39,.95,5.22-.76,10.94-1.36,14.85-5.9l0,0a2,2,0,0,0,2-1.05l-.06,0a1.93,1.93,0,0,0,2-1.1l-.06.1,1.11-.94h0a2,2,0,0,0,1.94-1.17l-.07.11,1.1-1,0,.05,1.08-1,4.08-3.93a6,6,0,0,1,3.72,3.72,60.81,60.81,0,0,1,3.29,15.9c.6,11.12-.94,22-2.95,32.86l.12.22-.14.21a2.59,2.59,0,0,0-1,2.55.29.29,0,0,1-.08.47,2.34,2.34,0,0,0-1,2.27c-4.53,13.05-13,23.45-22.21,33.42l-1.52,1a7.17,7.17,0,0,1-1.42-1.38c-5.79-10.19-14.81-16.32-25.65-19.85a120,120,0,0,0-26.16-5.36c.1-.65.54-1.58.26-1.89-1.08-1.23-1.64.23-2.25.74-11.42,9.59-24.87,13.72-39.48,14.33-17.88.73-34.65-2.79-49.15-14.06-1.27-1-2.38-1.75-2.13.88-5.62,1.36-11.3,2.55-16.87,4.13-12.32,3.49-24.22,7.93-34.56,15.88-6,4.61-10.08,10.9-15.16,16.31-18.09-16.76-25.28-37.16-19.86-62.52-13.22,20.69-5.21,50.15,18.39,67.09a.74.74,0,0,1-.17.5c-4.36,15.28-10.94,29.73-16.46,44.58l-3.68,0-.15-.31.21.26c13.82,8.95,24.79,20.49,32,35.41a12.39,12.39,0,0,1,1,2.26c1.82,7.25,5,12.3,13.92,10.46,2.79-.58,5.45,1.48,6.13,4.75.72,3.48-1.38,5.34-4.24,6.4-2.48.92-5.09,1.51-7.64,2.24-2.39.67-2.94,1.82-1.24,3.9a42.19,42.19,0,0,1,4.35,6.06c1.13,2.06,1.82,4.55-.11,6.51s-4.29,1.06-6.47,0c-1.75-.84-3.1-2.5-5.74-2.68,3,5.88-1.44,6.68-5.2,8.07a31.49,31.49,0,0,1-18.18,1c-13-2.89-25-8-35.56-16.27-15-11.77-18.6-27.54-10.46-44.88a117.21,117.21,0,0,1,12.87-21.3c-6.78,2.88-10.7,8.76-15.12,14.11a1.83,1.83,0,0,0-1.29,2l0,0a2.12,2.12,0,0,0-1.07,2h0l-.91,1.13.08-.07a2.15,2.15,0,0,0-1.05,2.38.47.47,0,0,1-.16.55c-.3.51-.6,1-.89,1.55l0,.39a2.12,2.12,0,0,0-1,2.17l.05-.06c-4.49,8.47-4.51,17.1-1,25.87l0,0c-.14,1.18-.27,2.36,1.09,3l0,0c-.35,1.84-.08,3.38,2,4h-.05a1.69,1.69,0,0,0,1.08,2l-.11,0,1,1.1v0a1.78,1.78,0,0,0,1.11,2l-.09,0,1,1.06-.06,0,1,1.07,0,0,1,1h0c.32.33.64.67,1,1l0,0,.93,1,.06.07.94.93.06.07.94.93.07.06,1,.93,0,0,1,1h0l1,1,0,0,1,1,.06-.09c-.06,2.08,1.35,2.16,2.87,2.1l0,0,1,1,0-.05a2,2,0,0,0,1.92,1.09l0,0c.17,1.95,1.54,2,3,1.92h0l1.09,1v-.1a1.6,1.6,0,0,0,2,1l0,0c.59,2.12,2.13,2.35,4,2v0c.62,1.31,1.79,1.19,2.94,1.13v0c2.15,3.29,5.94,3.49,9.11,4.16,7.5,1.61,15.08,5.21,22.86.87,3.7-2.06,5.53-.83,6.72,3.15,5.18,17.28,8.3,34.85,8.3,52.92a.65.65,0,0,0-.15.65l-1,1.32.07-.07-1.29,1-1.71,1c-2.6.46-5.19,1.12-7.81,1.33-20.21,1.68-40.39.18-60.58-.71a26,26,0,0,1-11.51-2.68l-2.9-2.88a3.45,3.45,0,0,0-1.9-2.19v.08a24.84,24.84,0,0,0-4.16-8l.05.09c-.27-1.89-.25-3.89-2.08-5.14a3,3,0,0,0-.12-.84,1.63,1.63,0,0,0-.88-2.15,4.81,4.81,0,0,0-.1-.85,2.06,2.06,0,0,0-.91-3.12,5.39,5.39,0,0,0-.1-.89c-1.7-11.72-4.65-23.27-4.91-35.47-1.45,1.36-1.71,2.9-2.09,4.48-2.62,11-1.53,22-.8,33l-1.25.25c-18-1.51-36-2.16-53.89-5.17-11.12-1.87-21.94-4.95-32.93-7.32l.07.06c-.77-1.08-1.9-1.11-3.06-1.07l.07.06c-5.43-3-11.31-4.87-17.1-6.95l.05,0a3.48,3.48,0,0,0-3-1.16l.07,0a18.67,18.67,0,0,0-8-4.06V430l-1.14-1,.06,0a12.7,12.7,0,0,0-5.06-3l0,0a5.36,5.36,0,0,0-3.06-1.94l-.2-.17-.24.07-1.53-1,.09,0a5.39,5.39,0,0,0-3-2.06l0,.06a2.15,2.15,0,0,0-2-1.16l.13,0A3.08,3.08,0,0,0,67.85,418l0,.05a2.19,2.19,0,0,0-2-1.18l.13,0A3.07,3.07,0,0,0,63.87,415l0,0a2.11,2.11,0,0,0-2-1.19l.06.1a1.09,1.09,0,0,0-1.09-1L61,413l-1.1-1.06L60,412l-1.11-1,.07.09c-.36-.36-.72-.73-1.09-1.09l-2.07-1.85a2.2,2.2,0,0,0-1.83-1.25l.07.1-1.08-1.06L53,406l-1.09-1.08L52,405l-1.09-1.08L51,404l-1.09-1.08L50,403l-1.09-1.08L49,402l-1.08-1.09L48,401l-1.08-1.08L47,400l-1.08-1.09L46,399l-1.07-1.08L45,398a2.21,2.21,0,0,0-1.25-1.85l-1.87-2-1.06-1.23L37,388.06l-1.1-1.1L36,387l-1.1-1.15L34,384.05,32.88,383,33,383l-1.08-1.21a1.06,1.06,0,0,0-.12-.7l-.85-1.17L31,380l-1.07-1.22c.05-.76-.05-1.43-.87-1.75L27.93,375l0,.08-1.06-1.26a.88.88,0,0,0-.09-.67l-.94-1.25-1.2-2.78L23.89,368l.1.1-1.08-2.31a.81.81,0,0,0-.5-.65c-.2-1-.38-2-1.48-2.4a.47.47,0,0,0,0-.55A2,2,0,0,0,20,360l.05.09a3,3,0,0,0-1.09-2.49v-.41A6.49,6.49,0,0,0,17,353l.05.08a8.82,8.82,0,0,0-2.1-5.49v-.39c-.07-.84-.11-1.69-1-2.19Zm248.51,16.32c8.35,0,14.16-5.14,14.14-12.58,0-7.74-5.41-13.42-12.78-13.48-8.74-.08-14.18,5.38-14.25,14.29C249.67,356.71,254.5,361.12,262.62,361.15Zm-17-97.78c.14-4.2-3.82-9-7.63-9.15-3.53-.18-6.93,3.79-7.06,8.23s3.2,8.6,7.18,8.66S245.5,267.72,245.65,263.37Zm174.94-58.52c1.69-3.36,2.85-5.71,4-8,1.46-2.9,3.15-5.72,6.93-5.48s6.07,2.8,7.55,6.3c.84,2,.3,4.57,2.34,6.32,2.37-6.12,1.24-11.89-2.79-15.19a11.89,11.89,0,0,0-13.12-.84C421,190.58,418.9,197,420.59,204.85Zm-43-.83c1.95-2.45,2.09-5.36,3.28-7.78,1.43-2.9,3.64-4.85,7-4.84s5.16,2.1,6.29,4.9c.8,2,1.29,4.11,2,6.14.21.57.71,1.34,1.19,1.43.94.19,1.34-.69,1.7-1.48,2.57-5.62-3.18-15.66-9.35-16.31C379.84,185,374.15,193.16,377.62,204ZM257.7,379.12c3.32.1,4.67-2,4.88-4.63s-1.59-4.29-4.31-4.31c-3,0-4.44,1.77-4.55,4.72S254.87,379.27,257.7,379.12Zm-10.76-11.06c2-.35,3.61-1.41,3.55-3.44-.06-2.27-1.78-3.47-4-3.35a3.41,3.41,0,0,0-3.23,3.69C243.22,367.11,245,367.89,246.94,368.06Z"/><path class="cls-7" d="M277.56,94.23A118.94,118.94,0,0,1,318.9,52.56C367.66,23.14,427.5,30,472.43,64.22c11.18,8.51,20.61,18.79,30.14,29-1.25,2.49-3.53,1.25-5.3,1.27-17,.21-34-.67-50.94.37-9.54.58-16.83,5-22.09,12.72-1.91,2.8-3.67,3.3-6.92,2.86a60.73,60.73,0,0,0-20.87.47c-2.34.5-3.47-.12-4.73-2.22-5.44-9.1-13.72-14.26-24.23-14.43C337.52,93.75,307.54,93.4,277.56,94.23ZM393.42,73.12c-4.25-.24-5.65,2.34-5.67,5.94s2,5.89,5.78,6.09a5.94,5.94,0,0,0,6.13-6.38C399.46,75,397.05,73.28,393.42,73.12Zm-.43-6c1.49.07,2.57-.42,2.66-2.1.09-1.45-.25-2.65-2-2.69a2.46,2.46,0,0,0-2.75,2.21C390.64,66.13,391.37,67,393,67.12Z"/><path class="cls-8" d="M482.23,287.7l-16.33,8.49a22.19,22.19,0,0,0-2.85.8,173.42,173.42,0,0,1-78.92,13.19c-22.91-1.43-45-6.34-65.91-16.13-3.73-1.75-6.84-4.71-11-5.53l-8.79-7.22c-.12-1.29.75-2.14,1.39-3.09,10.32-15.19,25.77-22.35,42.69-27.1,7.14-2,14.4-3.61,21.61-5.41a23.84,23.84,0,0,1,2.58,1.42c24.28,17.5,62.11,16.88,85.76-1.44,3.12.48,6.24,1,9.36,1.41,17.54,2.53,33.85,7.44,44.54,23.16l-1.06,1.34.26.26-.29-.22-1.64,1.47-1,.84L501.44,275l.12-.11-1.23.94.09-.1-1.8,1.39-1,.77-3,2.2,0,0-2.36,1.55.17.31-.21-.28-2.94,1.89-.15.07-5.6,3.44.08,0-1.34.72Z"/><path class="cls-9" d="M251.83,142.13a215.67,215.67,0,0,0-12.5,45.49c-3.7,22.25-13.87,40.94-28.57,57.55-.88-4.39-4.9-3.18-7.61-4-3.74-1.16-7.27-2.61-7.24-7,.05-10.72-.88-21.45.55-32.19.46-3.42,2-7.76-2.82-9.92,7.86-1.93,15.79-1,23.7-.51,1.42.08,2.79,1,4.43.17-2.07-2.44-4.23-4.7-6.06-7.22-2.05-2.83-4.12-5.89-2.29-9.64s5.65-4.3,9.32-4.65a23.68,23.68,0,0,1,4.64.46c-.19-3-2.28-4.61-3.45-6.68-5.3-9.47-10.29-18.95-10.32-30.29,0-7,3.17-12.3,7.92-16.55,9.86-8.82,22.08-12.61,34.83-14.9,1.46-.26,3.15-.43,3.32,1.85a59.4,59.4,0,0,1-12.33,5c-2,.58-3.54,1.48-3.63,4-.19,5.1-.39,10.22-1,15.28s1.24,8.58,5.72,10.92C249.72,140,251.13,140.69,251.83,142.13Z"/><path class="cls-10" d="M314.72,170.87c-10.07-.52-18.37-4-23-13.69,0-1.45.94-2.4,1.86-3.37,5.31-5.65,10.75-11.19,15.87-17,3.58-4.06,7.6-7.78,10.47-12.44l31.91.72a4.6,4.6,0,0,1-1.46,3.07c-8.6,9.92-17.4,19.67-25.68,29.86C321.29,162.2,316.39,165.32,314.72,170.87Z"/><path class="cls-11" d="M459.64,167.68a12.86,12.86,0,0,1-6.61-5c-8.51-11.19-12.08-23.56-8.31-37.51,7.82,0,15.65-.08,23.47.08,8.63.17,17.29-.7,25.91.51-3.7,6.92-9.66,12-14.53,18C473,151.82,466.29,159.72,459.64,167.68Z"/><path class="cls-10" d="M369.61,124.93c1.48,1.24,1.35,3,1.3,4.63a50.89,50.89,0,0,1-11,31c-4.67,5.89-10.89,9-18.43,9.85a102.24,102.24,0,0,1-20.91.49c-.07-2.27,1.62-3.51,2.91-5,11.62-13.38,23.45-26.59,34.33-40.61C361.74,124.89,365.71,125.85,369.61,124.93Z"/><path class="cls-10" d="M522,127.06c1.39,13.5-1.21,26-9.59,36.92-2.64,3.44-6.49,5.17-10.65,6A91.88,91.88,0,0,1,475.57,171c1.9-4.74,5.66-8.13,8.78-12,9-11,19.19-21.13,27.36-32.89C515.22,125.63,518.63,126.31,522,127.06Z"/><path class="cls-12" d="M369.61,124.93c-3.9.92-7.87,0-11.79.33l-6-.18-31.91-.72-31.23-.18c1.7-5.88,5.82-8.55,11.74-8.88a520.6,520.6,0,0,1,56.7,0C364.7,115.68,368.12,118.46,369.61,124.93Z"/><path class="cls-12" d="M522,127.06c-3.41-.75-6.82-1.43-10.33-.91-2.3-1.67-4.84-.8-7.3-.68-3.44,0-6.9-.65-10.31.27-8.62-1.21-17.28-.34-25.91-.51-7.82-.16-15.65-.06-23.47-.08,1.63-5.83,5.49-8.73,11.52-9,17.62-.71,35.23-.55,52.84,0C517.05,116.39,521.13,120,522,127.06Z"/><path class="cls-11" d="M288.7,124.18l31.23.18c-2.87,4.66-6.89,8.38-10.47,12.44-5.12,5.82-10.56,11.36-15.87,17-.92,1-1.84,1.92-1.86,3.37C286,146.62,285.11,135.6,288.7,124.18Z"/><path class="cls-13" d="M264.75,98.38c-5.37-2.72-8.43-7.51-10.19-12.86-2.63-8-.67-11.63,7.14-13.09a48.44,48.44,0,0,1,19.77.86c2.74.63,3.62,1.66,1.71,4.4-3.29,4.73-7.73,8.73-9.55,14.43C271.74,95.72,267.19,95.54,264.75,98.38Z"/><path class="cls-10" d="M494.1,125.74c3.41-.92,6.87-.24,10.31-.27a3,3,0,0,1-1.09,2.61c-6.94,7.75-13.36,15.93-20.39,23.61-5.42,5.91-11.32,11.51-15.36,18.59a12.28,12.28,0,0,1-7.93-2.6c6.65-8,13.39-15.86,19.93-23.91C484.44,137.78,490.4,132.66,494.1,125.74Z"/><path class="cls-11" d="M467.57,170.28c4-7.08,9.94-12.68,15.36-18.59,7-7.68,13.45-15.86,20.39-23.61a3,3,0,0,0,1.09-2.61c2.46-.12,5-1,7.3.68C503.54,137.91,493.37,148,484.35,159c-3.12,3.83-6.88,7.22-8.78,12C472.86,171.18,470.16,171.36,467.57,170.28Z"/><path class="cls-11" d="M351.84,125.08l6,.18c-10.88,14-22.71,27.23-34.33,40.61-1.29,1.49-3,2.73-2.91,5h-5.86c1.67-5.55,6.57-8.67,10-12.86,8.28-10.19,17.08-19.94,25.68-29.86A4.6,4.6,0,0,0,351.84,125.08Z"/><path class="cls-14" d="M364.64,184c-1.12,2.64-3.74,3.21-6,4-7.52,2.66-15.15,4.53-23.3,4.26-13-.45-26.27,1.22-38.79-4-3.12-1.31-6.76-1.88-8.67-5.25,19.65,9.68,40.32,9.47,61.3,6.33C354.65,188.48,359.5,185.78,364.64,184Z"/><path class="cls-14" d="M516.65,186.05c-3.91,4.54-9.63,5.14-14.85,5.9-13,1.89-26.14,2.13-39-.95-5.63-1.35-11.87-1.95-15.94-7.06,17.42,8.55,35.87,8.37,54.53,6.42C506.73,189.8,511.58,187.56,516.65,186.05Z"/><path class="cls-14" d="M533.82,228.67c2-10.86,3.55-21.74,2.95-32.86a60.81,60.81,0,0,0-3.29-15.9,6,6,0,0,0-3.72-3.72c1.11-1.17,2.1-4.63,3.69-.46C540.19,193.31,540.4,211,533.82,228.67Z"/><path class="cls-14" d="M427.92,160.07c-4-5.74-4.63-12.73-6.88-19.11C425.5,146.55,426,153.58,427.92,160.07Z"/><path class="cls-14" d="M415.85,135.94a43.79,43.79,0,0,0-16.26.09C405,132.71,410.41,132.14,415.85,135.94Z"/><path class="cls-14" d="M263.21,147l-8.49-.87.24-1.91A24.7,24.7,0,0,1,263.21,147Z"/><path class="cls-14" d="M268,155.08c-2.62-2-1.43-6.1-4.27-8C269,147.69,267,152.18,268,155.08Z"/><path class="cls-14" d="M421,140.92a8.31,8.31,0,0,1-5.09-5A6.13,6.13,0,0,1,421,140.92Z"/><path class="cls-14" d="M391.49,147c.05,2.82-.2,5.53-2.94,7.21C389.23,151.69,389.61,149.05,391.49,147Z"/><path class="cls-4" d="M505.28,271.59l1.06-1.34,1.71-1.48,1.52-1C509.34,270.43,508.36,272.21,505.28,271.59Z"/><path class="cls-4" d="M483.56,287l5.6-3.44C488.66,287,486.08,286.94,483.56,287Z"/><path class="cls-14" d="M393.56,142c.22,2.06-.09,3.9-2.11,5A6.24,6.24,0,0,1,393.56,142Z"/><path class="cls-14" d="M429.8,164.11c-1.89-.77-2.23-2.27-1.91-4.08A5.91,5.91,0,0,1,429.8,164.11Z"/><path class="cls-4" d="M489.31,283.52l2.94-1.89C492.18,283.67,491.12,284.18,489.31,283.52Z"/><path class="cls-4" d="M494.62,280.08l3-2.2C497.58,279.93,496.21,280.16,494.62,280.08Z"/><path class="cls-14" d="M433.74,171.12c-2-.17-2.05-1.54-1.93-3A4.88,4.88,0,0,1,433.74,171.12Z"/><path class="cls-14" d="M284.92,180.92c-1.41.19-2.05-.49-2.08-1.85A2.74,2.74,0,0,1,284.92,180.92Z"/><path class="cls-4" d="M492.29,281.6l2.36-1.55C494.48,281.51,493.76,282.12,492.29,281.6Z"/><path class="cls-14" d="M270.93,163.09c-1.26-.67-1.17-1.84-1.12-3A3.67,3.67,0,0,1,270.93,163.09Z"/><path class="cls-14" d="M268.94,158.09c-1.28-.69-1.19-1.86-1-3C268.93,155.83,269,157,268.94,158.09Z"/><path class="cls-4" d="M503.61,273.1l1.64-1.47C505.27,272.75,504.53,273,503.61,273.1Z"/><path class="cls-4" d="M498.62,277.11l1.8-1.39C500.27,276.77,499.53,277.05,498.62,277.11Z"/><path class="cls-14" d="M370.61,180a1.84,1.84,0,0,1-1.9,1.17A2.23,2.23,0,0,1,370.61,180Z"/><path class="cls-14" d="M399.65,136a2,2,0,0,1-2,1.15A2.22,2.22,0,0,1,399.65,136Z"/><path class="cls-14" d="M531.78,234.39a2.34,2.34,0,0,1,1-2.27C532.43,232.88,532.11,233.63,531.78,234.39Z"/><path class="cls-14" d="M286.79,182.08a1.85,1.85,0,0,1-1.94-1.09A1.93,1.93,0,0,1,286.79,182.08Z"/><path class="cls-14" d="M394.69,140.15a1.93,1.93,0,0,1-1.16,1.93A2.2,2.2,0,0,1,394.69,140.15Z"/><path class="cls-14" d="M388.59,154.58c0,1,0,2-1.08,2.51A2.89,2.89,0,0,1,388.59,154.58Z"/><path class="cls-14" d="M387.54,157a1.76,1.76,0,0,1-1,2.09A2.19,2.19,0,0,1,387.54,157Z"/><path class="cls-14" d="M532.83,231.65a2.59,2.59,0,0,1,1-2.55A3.19,3.19,0,0,1,532.83,231.65Z"/><path class="cls-14" d="M269.83,160.13a2,2,0,0,1-.94-2.09A2.22,2.22,0,0,1,269.83,160.13Z"/><path class="cls-14" d="M386.57,159a1.8,1.8,0,0,1-1.05,2.08A2.28,2.28,0,0,1,386.57,159Z"/><path class="cls-14" d="M385.57,161a1.74,1.74,0,0,1-1.08,2.05A2.22,2.22,0,0,1,385.57,161Z"/><path class="cls-14" d="M271.93,165.08a1.82,1.82,0,0,1-1-2.05A2.09,2.09,0,0,1,271.93,165.08Z"/><path class="cls-14" d="M383.68,164.1a2.09,2.09,0,0,1-1.09,2C383,165.45,383.32,164.78,383.68,164.1Z"/><path class="cls-14" d="M430.79,166.12a2.07,2.07,0,0,1-1-2C430.12,164.77,430.45,165.45,430.79,166.12Z"/><path class="cls-14" d="M272.92,167.07a1.81,1.81,0,0,1-1-2A2,2,0,0,1,272.92,167.07Z"/><path class="cls-14" d="M382.63,166.05a1.83,1.83,0,0,1-1.13,2A2.2,2.2,0,0,1,382.63,166.05Z"/><path class="cls-14" d="M431.82,168.11a2,2,0,0,1-1-2Z"/><path class="cls-14" d="M274,169a1.69,1.69,0,0,1-1.08-2A1.92,1.92,0,0,1,274,169Z"/><path class="cls-14" d="M518.66,185a2,2,0,0,1-2,1.05Z"/><path class="cls-14" d="M275.94,172a1.83,1.83,0,0,1-1.12-1.95A2.1,2.1,0,0,1,275.94,172Z"/><path class="cls-14" d="M379.71,170.15a1.93,1.93,0,0,1-1.19,1.91Z"/><path class="cls-14" d="M434.89,173.07a1.93,1.93,0,0,1-1.14-1.93A2.17,2.17,0,0,1,434.89,173.07Z"/><path class="cls-14" d="M520.62,184a1.93,1.93,0,0,1-2,1.1A2.34,2.34,0,0,1,520.62,184Z"/><path class="cls-14" d="M445.78,183.08a1.87,1.87,0,0,1-2-1.12A2.1,2.1,0,0,1,445.78,183.08Z"/><path class="cls-14" d="M523.62,182a2,2,0,0,1-1.94,1.17Z"/><path class="cls-14" d="M366.6,182.91a1.7,1.7,0,0,1-2,1.12A2.15,2.15,0,0,1,366.6,182.91Z"/><path class="cls-14" d="M395.68,139.09c-.33.35-.65.7-1,1C395,139.79,395.35,139.44,395.68,139.09Z"/><path class="cls-14" d="M384.61,163l-.94,1.16Z"/><path class="cls-14" d="M274.83,170.11l-1-1.11Z"/><path class="cls-14" d="M380.67,169.05l-1,1.09Z"/><path class="cls-14" d="M276.85,173.09l-1-1.08Z"/><path class="cls-14" d="M378.61,172l-1,1.1C377.94,172.72,378.27,172.35,378.61,172Z"/><path class="cls-14" d="M277.81,174.1l-1-1Z"/><path class="cls-14" d="M377.66,173l-1,1.07Z"/><path class="cls-14" d="M435.81,174.1l-1-1.08Z"/><path class="cls-14" d="M278.78,175.11l-1-1Z"/><path class="cls-14" d="M376.67,174.07l-1,1Z"/><path class="cls-14" d="M436.73,175.12l-1-1.05Z"/><path class="cls-14" d="M279.76,176.1l-1-1Z"/><path class="cls-14" d="M375.68,175.07l-1,1Z"/><path class="cls-14" d="M437.68,176.14l-.93-1Z"/><path class="cls-14" d="M280.76,177.1l-1-1Z"/><path class="cls-14" d="M374.68,176.06l-1.05,1.05Z"/><path class="cls-14" d="M281.79,178.1l-1-1Z"/><path class="cls-14" d="M373.67,177.06l-1.06,1Z"/><path class="cls-14" d="M282.81,179.1l-1-1Z"/><path class="cls-14" d="M372.65,178l-1.07,1Z"/><path class="cls-14" d="M440.71,179.13l-1-.94Z"/><path class="cls-14" d="M371.63,179l-1.07,1Z"/><path class="cls-14" d="M441.77,180.11c-.34-.32-.68-.64-1-1Z"/><path class="cls-14" d="M442.81,181.09l-1.05-1Z"/><path class="cls-14" d="M525.68,180.12l-1.08,1Z"/><path class="cls-14" d="M368.7,181.13l-1.08,1Z"/><path class="cls-14" d="M443.87,182l-1.09-1Z"/><path class="cls-14" d="M524.65,181.06l-1.1,1Z"/><path class="cls-14" d="M287.87,183l-1.07-1Z"/><path class="cls-14" d="M367.67,182l-1.12,1Z"/><path class="cls-4" d="M500.33,275.82l1.23-.94Z"/><path class="cls-4" d="M501.44,275l1.19-1.05Z"/><path class="cls-4" d="M482.3,287.7l1.34-.72Z"/><path class="cls-14" d="M521.67,183.13l-1.11.94Z"/><path class="cls-14" d="M381.6,168l-1,1.12Z"/><path class="cls-14" d="M397.7,137.13l-1.05,1Z"/><path class="cls-14" d="M446.87,184l-1.11-1Z"/><path class="cls-14" d="M396.68,138.09c-.35.34-.69.69-1,1Z"/><path class="cls-12" d="M319,475.06l-.39-2c-.83-4.37,1.31-5.55,5.36-5.81a269.16,269.16,0,0,0,36.52-5c3.16-.63,4.14.22,4.17,3.34s.53,6.28.82,9.41c-13.05-.05-26.13.5-39.16-.94A17.54,17.54,0,0,0,319,475.06Z"/><path class="cls-4" d="M270.74,489.11c3.17-2,6.71-1,10-.91,5.65.16,11.4-1.21,17,.84A120.5,120.5,0,0,1,270.74,489.11Z"/><path class="cls-4" d="M234.75,488.11c3.74-1.25,7.46-2.34,11,.55A46,46,0,0,1,234.75,488.11Z"/><path class="cls-4" d="M298.76,489c2-2.61,4.41-2.42,7-.92A15.63,15.63,0,0,1,298.76,489Z"/><path class="cls-4" d="M317.68,480.08c-1.3-1.7-1.57-3.16.93-4A5.07,5.07,0,0,1,317.68,480.08Z"/><path class="cls-4" d="M224.77,487c1.59-1.23,3-1.57,4,.71Z"/><path class="cls-4" d="M310.74,486.87c.35-1.85,1.75-1.76,3.13-1.72A4.83,4.83,0,0,1,310.74,486.87Z"/><path class="cls-4" d="M213.64,476.17c2.17.17,2.1,1.71,2,3.28Z"/><path class="cls-4" d="M220.57,485.17c1.4-.06,2.82-.16,3.18,1.71A3.76,3.76,0,0,1,220.57,485.17Z"/><path class="cls-4" d="M307.74,487.79c.33-1.23.81-2,2-.68Z"/><path class="cls-13" d="M193.64,192.08c4.87,2.16,3.28,6.5,2.82,9.92-1.43,10.74-.5,21.47-.55,32.19,0,4.35,3.5,5.8,7.24,7,2.71.84,6.73-.37,7.61,4-13,14.62-22,31.9-32.55,48.16-9.86,15.22-21.4,28.76-37.27,38.06a36,36,0,0,1-4.07,1.78,2.21,2.21,0,0,0-2.08,1h0a2.28,2.28,0,0,0-2,1l-.42.05-.42,0-1.14.91-1.85.12a2.21,2.21,0,0,0-2.18,1l-.41,0h-.42a2.27,2.27,0,0,0-2.15.94l-1.84.07c-1.18-.09-2.35-.15-3.17,1l-.44,0h-.44c-1.75.1-3.64-.59-5.11,1l-3.88,0c-4-.27-4.32-2.74-3.67-5.95,2.76-13.59,2-27.28.71-40.92-.54-5.8,0-6.95,6-7.24,8.83,3.49,17.37,7.38,23.1,15.54.79,1.12,1.9,2.82,3.56,2.12s.09-2.33.22-3.54c.12-1-.06-2,0-3,.35-8,4.23-10,10.95-5.84,1.34.84,2.47,2.23,4.56,2.23.07-2.1-1-3.8-1.63-5.6-3.31-8.91-5.81-17.93-4-27.59,1-5.53,4.91-8.42,9.94-9.08a36.18,36.18,0,0,1,18.12,1.77c1,.78,2,2.08,3.16.16l-.15-2.09c-.33-.68-.65-1.35-1-2a3.88,3.88,0,0,1,0-.9l-.92-1.09c0-.62-.07-1.25-.1-1.87l-.92-1.14a5.8,5.8,0,0,1,0-.93l-.87-1-.15-2a2.31,2.31,0,0,0-.93-2.08c0-.62,0-1.24-.08-1.86l-.9-1.13c0-.64-.07-1.27-.1-1.9-.07-2.2.72-4.65-1.84-6.08q-.09-3-.17-5.9,0-6.61,0-13.22a4.63,4.63,0,0,1,0-.91c1.05-.77,1-1.89,1-3h0a2.25,2.25,0,0,0,1-2.07c.21-1.93,1.48-3,3-3.93l1-.94a5.84,5.84,0,0,1,4-2.07l2-.95a5.06,5.06,0,0,1,.95-.06c1.14,0,2.28.09,3.07-1a3.69,3.69,0,0,1,.88,0l1.08-.85Z"/><path class="cls-9" d="M111.9,286.07c-6,.29-6.51,1.44-6,7.24,1.25,13.64,2,27.33-.71,40.92-.65,3.21-.33,5.68,3.67,5.95-7.61,2.41-15.22.65-22.57-.83C59.5,334,42.31,317,31,292.77c-5-10.63-6.08-21.87-7.24-33.22-.43-4.21,1.49-7,5.09-8.84,7.07-3.71,14.67-4.39,22.36-3.4,6.93.88,12.18,8.29,12.55,16.5.47,10.12-3.14,19.25-6.6,28.45-.38,1-1.4,1.92-.61,3.61,3.8-2.29,7-5.3,11-7.33,6.93-3.6,12.93-1.48,15.48,5.87,1.21,3.47,2,6.95,1,10.72a6.51,6.51,0,0,0,.48,5.32c2,.27,2-1.33,2.45-2.48a64.87,64.87,0,0,1,10-17.15C100.8,286,106.18,284.24,111.9,286.07Z"/><path class="cls-13" d="M283.64,55a84,84,0,0,1,2.08-15.88c3.26-13.51,12.2-19,25.67-15.55a65.93,65.93,0,0,1,22.83,10.82c2.66,1.95,3,3.38-.37,4.76C316.94,46,302.83,57,290,69.65c-3,2.91-4.15,1.85-4.67-1.45C284.57,63.46,284.09,58.69,283.64,55Z"/><path class="cls-13" d="M419.61,31.16c-.25,2.59-1.84,1.8-3.26,1.43-13.63-3.48-27.53-3.76-41.48-3.32-3,.09-5.91.66-8.88.89-2.59.2-4.07-.76-2.53-3.47C368.38,18,375,10.91,383.91,6.28c6.12-3.17,11.87-1.81,17.31,1.87,7.93,5.36,13,13.12,17.61,21.23A17.19,17.19,0,0,1,419.61,31.16Z"/><path class="cls-15" d="M216.65,246.1c5.1,2.22,7,6.64,8.13,11.64a33.18,33.18,0,0,1,0,16.21c-1.49,5.53-5.31,9.2-9.68,9.13a13,13,0,0,1-12.25-10.53c-.4-2-.4-4-2.06-5.42A190.47,190.47,0,0,1,216.65,246.1Z"/><path class="cls-13" d="M476.81,54.53c-.21,1.77.45,3.32-.9,4.18s-2.48-.39-3.53-1.1a174.1,174.1,0,0,0-31.12-16.76c-.88-.36-2.07-.62-2.09-1.84s1.05-1.58,1.92-2c4.89-2.49,9.78-4.94,15.19-6.18,7.36-1.67,11.85.1,15.5,6.6C474.84,42.85,475.76,49,476.81,54.53Z"/><path class="cls-9" d="M171.72,208.06q0,6.62,0,13.22A19.49,19.49,0,0,1,171.72,208.06Z"/><path class="cls-9" d="M171.87,227.18c2.56,1.43,1.77,3.88,1.84,6.08A10,10,0,0,1,171.87,227.18Z"/><path class="cls-9" d="M112.77,340.14c1.47-1.55,3.36-.86,5.11-1C116.38,340.58,114.51,340,112.77,340.14Z"/><path class="cls-9" d="M179.9,253.26c-1.15,1.92-2.14.62-3.16-.16Z"/><path class="cls-9" d="M172.74,204.14c0,1.12.07,2.24-1,3C171.74,206,171.73,204.92,172.74,204.14Z"/><path class="cls-9" d="M187.77,193.14c-.79,1.07-1.93,1-3.07,1C185.51,193.14,186.64,193.13,187.77,193.14Z"/><path class="cls-9" d="M118.76,339.16c.82-1.1,2-1,3.17-1A3.81,3.81,0,0,1,118.76,339.16Z"/><path class="cls-9" d="M178.77,249.15c.33.67.65,1.34,1,2C179.42,250.5,179.1,249.82,178.77,249.15Z"/><path class="cls-9" d="M134.79,334.17a2.21,2.21,0,0,1,2.08-1Z"/><path class="cls-9" d="M132.76,335.15a2.28,2.28,0,0,1,2-1Z"/><path class="cls-9" d="M174.79,238.15a2.31,2.31,0,0,1,.93,2.08Z"/><path class="cls-9" d="M126.75,337.17a2.21,2.21,0,0,1,2.18-1Z"/><path class="cls-14" d="M254.62,146.78a2.39,2.39,0,0,1-.85,2.37A2.77,2.77,0,0,1,254.62,146.78Z"/><path class="cls-9" d="M123.77,338.14a2.27,2.27,0,0,1,2.15-.94Z"/><path class="cls-9" d="M173.72,202.07a2.25,2.25,0,0,1-1,2.07C173.07,203.45,173.4,202.76,173.72,202.07Z"/><path class="cls-9" d="M183.75,194.18l-2,.95Z"/><path class="cls-9" d="M173.81,235.16l.9,1.13Z"/><path class="cls-9" d="M177.76,197.2l-1,.94Z"/><path class="cls-12" d="M68.22,282.6,67,283c0-.43,0-.86,0-1.29Z"/><path class="cls-9" d="M189.73,192.27l-1.08.85Z"/><path class="cls-12" d="M210.26,185.69l.39,1.17-1.39,0Z"/><path class="cls-9" d="M130.78,336.09l1.14-.91Z"/><path class="cls-9" d="M177.81,247.16l.92,1.09Z"/><path class="cls-9" d="M176.79,244.15l.92,1.14Z"/><path class="cls-9" d="M175.87,242.18l.87,1Z"/><path class="cls-8" d="M277.38,328.15c5.52-14.85,12.1-29.3,16.46-44.58l13.87,8.13c1,1.7,2.85,2.23,4.44,3,36.16,18.35,74.28,24.15,114.28,17.7a151.62,151.62,0,0,0,39.3-12.35c4.85,9.52,2.22,17.29-3.91,25.69a117.11,117.11,0,0,0-18.45,39.05,4.79,4.79,0,0,1-3.8,3.95,24.28,24.28,0,0,0-8.88,4.41c-8.56,6.68-7.21,17.27,2.9,21.27,2.71,1.07,4,1.73,3.23,5.05-1.4,5.92.24,10.92,6.41,13.89-3.43,4.21-7.61,7.1-11.89,9.85-21.4,13.75-45.26,20.57-70,24.8-13.14,2.24-26.38,3.51-39.64,4.74-3.07.29-4.15-.65-4.57-3.49-1.58-10.57-4.67-20.74-8.26-30.78-1.56-4.37-.43-5.66,4.27-5.41,9.09.49,14.17-6.34,11-15.09-.81-2.25-1.28-3.38,1.43-4.81,5.92-3.12,8.3-8.57,6.61-13.55A11.87,11.87,0,0,0,318.58,372c-4.45.86-5.46-.82-6.84-4.47C305.19,350.19,293.55,337.15,277.38,328.15Z"/><path class="cls-14" d="M445.05,424.42c-1.48,16.46-3.83,32.71-10.17,48.18-3,7.29-8,10.65-15.73,10.59-10.83-.08-21.66.09-32.49-.06-9.36-.13-14-4.54-14.93-13.85-.94-8.89-1-8.91,7.79-11.4,24-6.83,46-17.55,64.8-34.21Z"/><path class="cls-14" d="M469.72,318.54c7.25,26,7.39,51.17-6.8,74.82A28.54,28.54,0,0,1,450.23,405c-1.78.8-3.81,2-5.61.46-1.61-1.4-.63-3.38-.3-5.16.71-3.78,2.62-7.09,4.62-10.94-3.75-.57-7.1,0-10.22-1.12-2.68-1-5.68-1.62-6.07-5.07-.37-3.23,2.23-4.59,4.52-5.93a13.61,13.61,0,0,1,4.52-2.05c5.84-.88,8.09-4.88,9.76-9.92,4.27-12.94,8.3-26,14.09-38.35C466.86,324.09,468.32,321.33,469.72,318.54Z"/><path class="cls-16" d="M465.73,300.08a151.62,151.62,0,0,1-39.3,12.35c-40,6.45-78.12.65-114.28-17.7-1.59-.8-3.44-1.33-4.44-3a3.32,3.32,0,0,1-.51-3.18c4.18.82,7.29,3.78,11,5.53,20.9,9.79,43,14.7,65.91,16.13A173.42,173.42,0,0,0,463.05,297a22.19,22.19,0,0,1,2.85-.8C465.84,297.49,465.78,298.79,465.73,300.08Z"/><path class="cls-14" d="M294.78,421c-7.78,4.34-15.36.74-22.86-.87-3.17-.67-7-.87-9.11-4.16C273.19,419.45,283.63,422.46,294.78,421Z"/><path class="cls-14" d="M227,382.05c-3.53-8.77-3.51-17.4,1-25.87A59.31,59.31,0,0,0,227,382.05Z"/><path class="cls-14" d="M259.87,414.88c-1.83.36-3.37.13-4-2A4.58,4.58,0,0,1,259.87,414.88Z"/><path class="cls-14" d="M230,389c-2.07-.64-2.34-2.18-2-4A5.41,5.41,0,0,1,230,389Z"/><path class="cls-14" d="M246.78,407.05c-1.52.06-2.93,0-2.87-2.1A4.84,4.84,0,0,1,246.78,407.05Z"/><path class="cls-14" d="M252.81,411c-1.48.1-2.85,0-3-1.92A4.85,4.85,0,0,1,252.81,411Z"/><path class="cls-14" d="M262.8,416c-1.15.06-2.32.18-2.94-1.13A3,3,0,0,1,262.8,416Z"/><path class="cls-14" d="M228,385c-1.36-.64-1.23-1.82-1.09-3A3.07,3.07,0,0,1,228,385Z"/><path class="cls-14" d="M231.77,348.13a2.12,2.12,0,0,1,1.07-2C232.49,346.82,232.13,347.47,231.77,348.13Z"/><path class="cls-14" d="M229.89,351.58a2.15,2.15,0,0,1,1.05-2.38A2.84,2.84,0,0,1,229.89,351.58Z"/><path class="cls-14" d="M231,391a1.69,1.69,0,0,1-1.08-2A2,2,0,0,1,231,391Z"/><path class="cls-14" d="M233,394a1.78,1.78,0,0,1-1.11-2A2,2,0,0,1,233,394Z"/><path class="cls-14" d="M249.74,409.08a2,2,0,0,1-1.92-1.09A2.13,2.13,0,0,1,249.74,409.08Z"/><path class="cls-14" d="M255.86,412.91a1.6,1.6,0,0,1-2-1A1.69,1.69,0,0,1,255.86,412.91Z"/><path class="cls-14" d="M227.88,356.24a2.12,2.12,0,0,1,1-2.17C228.8,354.92,228.73,355.75,227.88,356.24Z"/><path class="cls-14" d="M232.82,346.2a1.83,1.83,0,0,1,1.29-2Z"/><path class="cls-14" d="M231.85,392.06l-1-1.1Z"/><path class="cls-14" d="M233.89,395l-1-1.06Z"/><path class="cls-14" d="M234.85,396.06l-1-1.07Z"/><path class="cls-14" d="M235.8,397.07l-1-1Z"/><path class="cls-14" d="M236.77,398.07c-.33-.33-.65-.67-1-1C236.12,397.4,236.44,397.74,236.77,398.07Z"/><path class="cls-14" d="M237.73,399.07l-.93-1Z"/><path class="cls-14" d="M238.73,400.07l-.94-.93Z"/><path class="cls-14" d="M239.73,401.07l-.94-.93Z"/><path class="cls-14" d="M240.76,402.06l-1-.93Z"/><path class="cls-14" d="M241.8,403.06l-1-1Z"/><path class="cls-14" d="M242.82,404.06l-1-1Z"/><path class="cls-14" d="M243.85,405l-1-1Z"/><path class="cls-14" d="M247.84,408l-1-1Z"/><path class="cls-14" d="M253.89,412l-1.09-1Z"/><path class="cls-14" d="M444.32,423.67c.26-.14.63-.46.75-.38.51.33.31.76,0,1.13Z"/><path class="cls-14" d="M230.86,349.27l.91-1.13Z"/><path class="cls-14" d="M228.84,353.68c.29-.52.59-1,.89-1.55C229.43,352.64,229.13,353.16,228.84,353.68Z"/><path class="cls-4" d="M204.91,455.12c-.73-11-1.82-22.06.8-33,.38-1.58.64-3.12,2.09-4.48.26,12.2,3.21,23.75,4.91,35.47-1-.23-1.59-3-2.89-.53C208.71,454.62,206.94,455,204.91,455.12Z"/><path class="cls-4" d="M116.84,442.88c11,2.37,21.81,5.45,32.93,7.32,17.85,3,35.91,3.66,53.89,5.17-1.64,1.17-3.53.78-5.31.71-19.8-.76-39.5-2.31-58.93-6.53C131.71,447.88,123.82,447,116.84,442.88Z"/><path class="cls-4" d="M225.81,478.93a26,26,0,0,0,11.51,2.68c20.19.89,40.37,2.39,60.58.71,2.62-.21,5.21-.87,7.81-1.33-2.38,3.38-6.26,2.93-9.46,3-16.59.27-33.2.51-49.77-.08-5.66-.2-11.63.1-17.14-2.09C227.91,481.23,225.88,481.24,225.81,478.93Z"/><path class="cls-4" d="M96.82,435c5.79,2.08,11.67,4,17.1,6.95C107.76,440.75,101.49,439.85,96.82,435Z"/><path class="cls-4" d="M216.85,466a24.84,24.84,0,0,1,4.16,8C217.28,472.52,217.13,469.21,216.85,466Z"/><path class="cls-4" d="M85.94,429.84a18.67,18.67,0,0,1,8,4.06C90.57,433.94,87.68,433,85.94,429.84Z"/><path class="cls-4" d="M79.81,426.05a12.7,12.7,0,0,1,5.06,3C82.62,429,80.39,428.92,79.81,426.05Z"/><path class="cls-4" d="M214.82,460.93c1.83,1.25,1.81,3.25,2.08,5.14C215.09,464.81,214.71,463,214.82,460.93Z"/><path class="cls-4" d="M14.91,347.56a8.82,8.82,0,0,1,2.1,5.49C14.93,351.75,14.76,349.72,14.91,347.56Z"/><path class="cls-4" d="M17,353a6.49,6.49,0,0,1,1.94,4.19C17,356.33,16.63,354.82,17,353Z"/><path class="cls-4" d="M71.88,421a5.39,5.39,0,0,1,3,2.06C73.35,423.13,71.93,423,71.88,421Z"/><path class="cls-4" d="M76.78,424.13a5.36,5.36,0,0,1,3.06,1.94C78.37,426.13,77,426,76.78,424.13Z"/><path class="cls-4" d="M212.81,454a2.06,2.06,0,0,1,.91,3.12C212.67,456.26,212.76,455.11,212.81,454Z"/><path class="cls-4" d="M63.87,415A3.07,3.07,0,0,1,66,416.84C64.58,417.09,63.91,416.39,63.87,415Z"/><path class="cls-4" d="M221,473.86a3.45,3.45,0,0,1,1.9,2.19C221.51,476,220.79,475.33,221,473.86Z"/><path class="cls-4" d="M67.85,418A3.08,3.08,0,0,1,70,419.84C68.58,420.09,67.92,419.4,67.85,418Z"/><path class="cls-4" d="M20.93,362.7c1.1.43,1.28,1.42,1.48,2.4C21.1,364.8,20.82,363.87,20.93,362.7Z"/><path class="cls-4" d="M93.87,433.87a3.48,3.48,0,0,1,3,1.16C95.7,435.09,94.5,435.21,93.87,433.87Z"/><path class="cls-4" d="M113.85,441.87c1.16,0,2.29,0,3.06,1.07C115.71,443.1,114.52,443.21,113.85,441.87Z"/><path class="cls-4" d="M14,345c.85.5.89,1.35,1,2.19A2,2,0,0,1,14,345Z"/><path class="cls-4" d="M22.91,365.75,24,368.06A2.11,2.11,0,0,1,22.91,365.75Z"/><path class="cls-4" d="M27.93,375,29,377.06A1.84,1.84,0,0,1,27.93,375Z"/><path class="cls-4" d="M18.91,357.57A3,3,0,0,1,20,360.06,2.33,2.33,0,0,1,18.91,357.57Z"/><path class="cls-4" d="M43.79,396.12A2.21,2.21,0,0,1,45,398,1.83,1.83,0,0,1,43.79,396.12Z"/><path class="cls-4" d="M53.92,406.87a2.2,2.2,0,0,1,1.83,1.25A1.85,1.85,0,0,1,53.92,406.87Z"/><path class="cls-4" d="M61.94,413.84a2.11,2.11,0,0,1,2,1.19C63,415,62.23,414.84,61.94,413.84Z"/><path class="cls-4" d="M65.91,416.86a2.19,2.19,0,0,1,2,1.18C67,418,66.23,417.83,65.91,416.86Z"/><path class="cls-4" d="M69.91,419.86a2.15,2.15,0,0,1,2,1.16A1.76,1.76,0,0,1,69.91,419.86Z"/><path class="cls-4" d="M213.82,457.94a1.63,1.63,0,0,1,.88,2.15A2.39,2.39,0,0,1,213.82,457.94Z"/><path class="cls-4" d="M20,360a2,2,0,0,1,.95,2.18A2,2,0,0,1,20,360Z"/><path class="cls-4" d="M23.89,368l.77,1.13Z"/><path class="cls-4" d="M25.86,371.87l.94,1.25Z"/><path class="cls-4" d="M26.89,373.79,28,375.05Z"/><path class="cls-4" d="M29.89,378.81,31,380Z"/><path class="cls-4" d="M30.91,379.94l.85,1.17Z"/><path class="cls-4" d="M31.88,381.81,33,383Z"/><path class="cls-4" d="M32.88,383,34,384.05Z"/><path class="cls-4" d="M34.86,385.88,36,387Z"/><path class="cls-4" d="M35.87,387l1.1,1.1Z"/><path class="cls-4" d="M40.86,392.85l1.06,1.23Z"/><path class="cls-4" d="M44.93,397.9,46,399Z"/><path class="cls-4" d="M45.91,398.91,47,400Z"/><path class="cls-4" d="M47.9,400.92,49,402Z"/><path class="cls-4" d="M48.89,401.93,50,403Z"/><path class="cls-4" d="M49.89,402.93,51,404Z"/><path class="cls-4" d="M50.89,403.92,52,405Z"/><path class="cls-4" d="M51.9,404.91,53,406Z"/><path class="cls-4" d="M52.91,405.91,54,407Z"/><path class="cls-4" d="M57.82,410c.37.36.73.73,1.09,1.09C58.55,410.7,58.19,410.33,57.82,410Z"/><path class="cls-4" d="M58.84,411,60,412Z"/><path class="cls-4" d="M59.88,411.93,61,413Z"/><path class="cls-4" d="M60.91,412.9a1.09,1.09,0,0,1,1.09,1Z"/><path class="cls-4" d="M74.81,423l1.53,1Z"/><path class="cls-4" d="M84.81,429,86,430Z"/><path class="cls-4" d="M308.64,479.07l1-1.32Z"/><path class="cls-4" d="M307.42,480l1.29-1Z"/><path class="cls-4" d="M46.9,399.92,48,401Z"/><path class="cls-5" d="M9.55,338.57c1.57.37,1.86,1.72,2.12,3,.15.79.12,1.89-1.08,1.7-1.49-.24-2.16-1.5-2.4-2.87C8,339.47,8.63,338.89,9.55,338.57Z"/><path class="cls-3" d="M452.44,245.68C428.79,264,391,264.62,366.68,247.12a22.17,22.17,0,0,0-2.58-1.41,4.57,4.57,0,0,0-2-3.53c-.26-2.63.85-1.86,2.12-.88,14.5,11.27,31.27,14.79,49.15,14.06,14.61-.61,28.06-4.74,39.48-14.33.61-.51,1.17-2,2.25-.74.28.31-.16,1.24-.26,1.88Z"/><path class="cls-15" d="M262.62,361.15c-8.12,0-13-4.44-12.89-11.77.07-8.91,5.51-14.37,14.25-14.29,7.37.06,12.75,5.74,12.78,13.48C276.78,356,271,361.19,262.62,361.15Zm0-19c-4.83-.31-5.93,2.74-5.89,6.67.05,4.24,2.34,6.34,6.56,6.36,4.6,0,7.55-2.73,7.35-6.85S267.61,342,262.66,342.1Z"/><path class="cls-4" d="M294,283.07c-23.6-16.94-31.61-46.4-18.39-67.09-5.42,25.36,1.77,45.76,19.86,62.52l1.29,2.59C296.6,282.8,295.49,283.18,294,283.07Z"/><path class="cls-16" d="M296.77,281.09l-1.29-2.59c5.08-5.41,9.17-11.7,15.16-16.31,10.34-7.95,22.24-12.39,34.56-15.88,5.57-1.58,11.25-2.77,16.87-4.13a4.55,4.55,0,0,1,2,3.53c-7.21,1.79-14.47,3.4-21.61,5.4-16.92,4.75-32.37,11.91-42.69,27.1-.64,1-1.51,1.8-1.39,3.09Z"/><path class="cls-16" d="M452.44,245.68l2.38-3.51A120.61,120.61,0,0,1,481,247.54c10.84,3.53,19.86,9.66,25.65,19.85a7.17,7.17,0,0,0,1.42,1.38l-1.71,1.48c-10.69-15.72-27-20.63-44.54-23.16C458.68,246.64,455.56,246.16,452.44,245.68Z"/><path class="cls-15" d="M245.65,263.37c-.15,4.35-3.5,7.81-7.51,7.74s-7.31-4.08-7.18-8.66,3.53-8.41,7.06-8.23C241.83,254.42,245.79,259.17,245.65,263.37Z"/><path class="cls-3" d="M420.59,204.85c-1.69-7.87.44-14.27,5-16.94a11.89,11.89,0,0,1,13.12.84c4,3.3,5.16,9.07,2.79,15.19-2-1.75-1.5-4.33-2.34-6.32-1.48-3.5-3.62-6.05-7.55-6.3s-5.47,2.58-6.93,5.48C423.44,199.14,422.28,201.49,420.59,204.85Z"/><path class="cls-9" d="M377.62,204c-3.47-10.86,2.22-19,12.1-17.94,6.17.65,11.92,10.69,9.35,16.31-.36.79-.76,1.67-1.7,1.48-.48-.09-1-.86-1.19-1.43-.73-2-1.22-4.15-2-6.14-1.13-2.8-3.08-4.89-6.29-4.9s-5.54,1.94-7,4.84C379.71,198.66,379.57,201.57,377.62,204Z"/><path class="cls-15" d="M257.7,379.12c-2.83.15-4.09-1.33-4-4.22s1.51-4.74,4.55-4.72c2.72,0,4.52,1.53,4.31,4.31S261,379.22,257.7,379.12Z"/><path class="cls-3" d="M296.77,281.09l1.64.21,8.79,7.22a3.32,3.32,0,0,0,.51,3.18l-13.87-8.13a.74.74,0,0,0,.17-.5C295.49,283.18,296.6,282.8,296.77,281.09Z"/><path class="cls-15" d="M246.94,368.06c-2-.17-3.72-.95-3.71-3.1a3.41,3.41,0,0,1,3.23-3.69c2.25-.12,4,1.08,4,3.35C250.55,366.65,248.94,367.71,246.94,368.06Z"/><polygon class="cls-4" points="273.76 328.14 273.55 327.88 273.7 328.19 273.76 328.14"/><path class="cls-15" d="M393.42,73.12c3.63.16,6,1.83,6.24,5.65a5.94,5.94,0,0,1-6.13,6.38c-3.77-.2-5.81-2.34-5.78-6.09S389.17,72.88,393.42,73.12Z"/><path class="cls-15" d="M393,67.12c-1.62-.11-2.35-1-2.09-2.58a2.46,2.46,0,0,1,2.75-2.21c1.75,0,2.09,1.24,2,2.69C395.56,66.7,394.48,67.19,393,67.12Z"/><path class="cls-10" d="M262.66,342.1c4.95-.08,7.81,2.13,8,6.18s-2.75,6.88-7.35,6.85c-4.22,0-6.51-2.12-6.56-6.36C256.73,344.84,257.83,341.79,262.66,342.1Z"/></g></g></svg>