<svg xmlns="http://www.w3.org/2000/svg" viewBox="0 0 597.26 511.17"><defs><style>.cls-1{fill:#d1cec3;}.cls-2{fill:#413a40;}.cls-3{fill:#3e3439;}.cls-4{fill:#3f353d;}.cls-5{fill:#3b3439;}.cls-6{fill:#e2ebce;}.cls-7{fill:#93cd45;}.cls-8{fill:#447d45;}.cls-9{fill:#467d44;}.cls-10{fill:#70ae3f;}.cls-11{fill:#fbf39c;}.cls-12{fill:#ddcb7d;}.cls-13{fill:#6b9240;}.cls-14{fill:#467744;}.cls-15{fill:#e89f3a;}.cls-16{fill:#f6f5f3;}</style></defs><g id="Layer_2" data-name="Layer 2"><g id="Layer_1-2" data-name="Layer 1"><path class="cls-1" d="M415.66,477.18c16.47-.48,32.79,1.55,49.18,2.74a445.1,445.1,0,0,1,44.91,5.21,65,65,0,0,1,15.72,4.71c1.69.76,3.45,1.72,3.4,3.87,0,1.88-1.61,2.84-3.15,3.54-8,3.6-16.57,4.87-25.13,5.74-18.79,1.92-37.62,3.44-56.44,5-7.28.59-14.58.13-21.91.89-10.22,1.07-20.57.92-30.86,1.2-48.11,1.35-96.23,1.19-144.34.91-20.93-.12-41.86-1.07-62.77-2-16.74-.72-33.48-1.61-50.17-3-16.16-1.38-32.39-2.52-48.31-5.92a103.18,103.18,0,0,1-11-3.27c-1.73-.57-3.54-1.34-3.54-3.66,0-2.15,1.47-3.24,3.15-4.12,6.91-3.61,14.53-4.7,22.06-5.8,14.43-2.11,29-3.45,43.54-4.2q30.58-1.58,61.16-3.14c21.15-1.11,42.26-.21,63.38-.78,2.08-.05,4.43.69,5.92-1.61l1.75,1c.13.44,0,1.22.89.64l7,2.8a30.81,30.81,0,0,0,10,3.28,49.27,49.27,0,0,0,16.38,2.86,151.91,151.91,0,0,0,24.59-.86l0-.06a19.67,19.67,0,0,0,4,8.22,23.37,23.37,0,0,0,8.12,8.72,5.37,5.37,0,0,0,3,2,6.69,6.69,0,0,0,4,1.95c5.06,2.39,10.48,2.9,16,2.94l3,.08,2.07.47c7.7,2.69,15.42,2.23,23.16.18l2.77-.61,8-.22a16.21,16.21,0,0,0,7.05-.7l1.95-.19a3.7,3.7,0,0,0,3.07-.77,2.12,2.12,0,0,0,2-.93c7.8-5.9,7.48-15.81-.77-22.19C416.74,480.83,414.4,480.05,415.66,477.18Z"/><path class="cls-2" d="M95.26,301.14a42.34,42.34,0,0,1,17.2-18.2c7-4,14.12-3,21.11.18a53.23,53.23,0,0,1,14.67,10.35c1.95-5.48,5.24-9.25,11.15-9.65-5-24-2-40.22,26.66-37.59a102.07,102.07,0,0,1-5.49-23.29C178,200.45,186,190.2,208.35,187c7.22-1,14.49-1,22.35-1.17-1.85-2.71-3.46-4.79-4.78-7-3.8-6.47-3.4-11.48,1.67-16.79,1.68-1.76,1.6-2.39,0-4.22C218.5,147,219.72,125.7,230,116.12s22.51-14.63,35.76-18l4.13-1.06c-2.13-4.13-5-7.64-6.08-12.06-2.05-8.12,1.25-14.32,9.28-16.61a36.94,36.94,0,0,1,18.3-.35c2.84.62,3.71.19,3.3-3.1-1.22-9.8-1.3-19.62,1.52-29.24,4.07-13.89,14-19.93,28.23-17.11a65.83,65.83,0,0,1,28.35,13c2.43,1.91,4.5,2.3,7.63,1.71,6.6-1.27,11.1-4.2,14.27-10.44,3.47-6.86,9.09-12.3,15.3-16.93,10.95-8.16,21.4-7.93,31.86.89C429.63,13.38,435,21.74,439.17,31c2.45,5.5,6.8,6.83,11.8,3.58,6-3.93,12.36-7.24,19.55-8.52,9.52-1.69,15.67,1.32,20.16,9.88,3.94,7.52,5.52,15.69,6.15,24a8.59,8.59,0,0,0,3.5,6.61,147.86,147.86,0,0,1,31.13,34.87c-1.63,2.06-1.26,6.53-5.92,4.9-.79-1.07-1.61-2.12-2.35-3.21-21.45-31.56-49.78-54.27-86.92-64-48.47-12.71-91.83-2.62-127.64,33.41C289.2,92.06,277.82,116.46,270,142.66c-1.8,6-2.39,12.43-5.21,18.18a160,160,0,0,0-13,37.65c-3.77,17.79-9.65,34.61-21.72,48.68a185.91,185.91,0,0,0-14.88,20q-10.08,15.47-20.15,30.93C186.66,311,177,322.88,164,331.49c-23.2,15.4-47.78,19.09-73.85,7.68a2.31,2.31,0,0,0-2.11-1v.05c1.05-3.54,4.43,0,6-2,1.6.43,3.22.82,4.8,1.29,21,6.31,40.69,3.42,59.25-8,12.86-7.89,22.71-18.84,31-31.27,11.16-16.74,20.68-34.65,33.81-49.93,12.43-14.46,19.6-31,23.86-49.26,1-4.31.15-6.65-4.57-7.24a148.42,148.42,0,0,0-33.31-.11,40.74,40.74,0,0,0-15.22,4.51,13.53,13.53,0,0,0-6.7,7.64c-3.8,10.32-1.13,20.35,1.09,30.38,1.46,6.56,4.29,12.72,7,19.7a55.86,55.86,0,0,0-20.3-2.9c-6.16.34-10.42,3.56-11.68,9.58-2,9.48.68,18.39,3.89,27.18.66,1.81,1.87,3.48,1.57,6.21-2.34-1.44-4.33-2.82-6.45-3.93-4.28-2.24-6.79-1.06-8.34,3.56-.83,2.46-.47,4.94-.6,7.42,0,.77-.13,1.86-.63,2.22-1,.74-1.86-.31-2.47-1a77.29,77.29,0,0,0-9.86-9.79c-11.38-9.26-23.44-9.69-32.21-.56-3.9,4.06-7.14,8.74-10.68,13.14-2.08-.17-2.1-1.82-2.37-3.28l-.08.08c.15,0,.42,0,.43-.07A4.24,4.24,0,0,0,95.26,301.14ZM245.88,161.42c-5,1-8.66.25-11.87,1.93-3.56,1.86-7.16,4.27-5.57,8.77,2.5,7.09,7.13,12.85,14.39,15.62,2.36.9,6.14,2,7.19-1.94,3.4-12.56,10.33-23.84,13.42-36.42a210.9,210.9,0,0,1,15.84-43.44c.64-1.29,2.12-2.65,1.19-4.07s-2.79-.82-4.2-.63c-14.59,1.89-28.11,6.71-40,15.5-11.16,8.25-12.74,18.19-5.16,29.93C234.73,152.26,238.94,157.29,245.88,161.42ZM319,23.05a16.15,16.15,0,0,0-13.14,4.61c-8.95,8.5-8.71,33-5.61,42.36,1,2.94,2.42,1.06,3.62,0,5.19-4.65,10.25-9.44,15.57-13.93,8.6-7.24,18.63-12.11,28.72-16.85,2.37-1.12,4-2.26.93-4.41C340,28.4,330.44,23.34,319,23.05Zm62.27,7.05c16.77-1.74,33.48-1.59,50,2.65.81.21,1.7.54,2.33-.21.94-1.13.15-2.23-.39-3.21-4-7.34-8.65-14.31-15.27-19.54C412.39,5.43,406.33,2.56,399,6c-9.09,4.27-15.39,11.4-20.65,19.64C376.22,29,377.23,30.59,381.28,30.1Zm110,24.67c-1-5.76-2-12-5.19-17.61s-7.82-7.91-13.7-6.79c-6.1,1.17-11.65,3.84-17.09,6.74-2.49,1.32-2.32,2.62.2,3.65a173.42,173.42,0,0,1,31.54,17c.93.64,1.84,1.67,3.11,1.06C491.66,58.06,491,56.5,491.23,54.77ZM284,72.13c-2.4,0-4.07,0-5.73,0-8.93.27-12.7,6.42-8.87,14.59a44.14,44.14,0,0,0,3.49,6c3.18,4.69,10.14,5,13.47.58,3.78-5,7.22-10.35,11-15.4,2.07-2.76,1.47-4.09-1.73-4.68C291.56,72.5,287.46,71.77,284,72.13Z"/><path class="cls-3" d="M415.66,477.18c-1.26,2.87,1.08,3.65,2.75,4.95,8.25,6.38,8.57,16.29.77,22.19.26-3-.62-4.31-3.94-3.34a25,25,0,0,1-7.34,1c-15.06-.31-30.19,1.22-45.19-1-5.7-.86-11.87-1.27-15.45-7.05,4.74,2.45,9.5,4.66,14.93,5.36,16.26,2.11,32.54,1.89,48.83.7,5.59-.42,7.71-4.17,5.61-9.45a13.57,13.57,0,0,0-6-6.49c-2-1.23-2.94-2.53-2.76-5.17A93.91,93.91,0,0,0,405,448.2c-7.39-27.82-23.7-47.44-52.48-54.54-13.9-3.42-27.89-2.41-42.67,3.35,7.6-7.28,16.14-9.08,24.34-11.61,22.47-2.31,40.9,6.11,56.74,21.39,4.24,5.29,8.8,10.35,12,16.37.93,1.74,1.89,1.92,3.5.84,13-8.69,25.31-18.11,34.61-30.91,12.79-14.42,20.9-31.44,27.39-49.35.74-2.05,1.46-3.93,3.27-5.41,32.87-27,53.52-61.71,64.71-102.4.34-1.21,1.25-2.42.24-3.68l-10.58,2.84c5.71-4.87,13.81-3.61,19.82-7.72.17-.12.72.07.9.28,2,2.36,3.48-.27,5.2-.5-9.15,47-30.87,86.85-67.45,119,2.17.77,3.79,1.32,5.4,1.93,9.12,3.48,12.59,12.45,8.18,21.17a26.74,26.74,0,0,1-9,9.85A67.75,67.75,0,0,1,463.57,390a6.84,6.84,0,0,0-4.81,2.93,163.57,163.57,0,0,1-46.17,43.68c-1.31.83-3,1.24-2.13,3.7C414.79,452.19,415.41,464.67,415.66,477.18ZM466,382.39a56.24,56.24,0,0,0,12-4.09c5.1-2.54,10.13-5.15,12.9-10.5,1.68-3.26,2.49-6.94.23-9.93-2.45-3.26-6.6-4.29-10.46-5.34-1.21-.33-1.8.8-2.09,1.72C475.59,363.79,470.82,372.54,466,382.39Z"/><path class="cls-4" d="M347.26,494c3.58,5.78,9.75,6.19,15.45,7.05,15,2.25,30.13.72,45.19,1a25,25,0,0,0,7.34-1c3.32-1,4.2.38,3.94,3.34a2.12,2.12,0,0,1-2,.93q-2.24-2.42-3.07.77l-1.95.19c-2.52-1.43-5-2.31-7.05.7l-8,.22c-2.65-2-5.74-1.08-8.56-.95-6.48.29-13.06-1.34-19.44.91l-3-.08c-4.9-3.3-10.61-2.21-16-2.94a6.69,6.69,0,0,1-4-1.95c-.16-1.89-1.51-2-3-2a23.37,23.37,0,0,1-8.12-8.72c-.38-3.2-.55-6.51-4-8.22l0,.06c-.18-1.79-1.16-2-2.78-1.72-8.87,1.33-17.81.49-26.72.49-3.81,0-7.54-1.88-11.47-.77a30.81,30.81,0,0,1-10-3.28c-2.76-3.78-6.76-5.13-11.16-5.7l0,0c0-2.14-1.47-2.2-3.06-2l.05.06c-.29-2.81-2.5-2.29-4.16-2.16a286,286,0,0,1-28.68,1c-1.42,0-2.66.22-3,1.9h-5c-.68-2.57-2.82-1.91-4.5-1.87-15.39.37-30.57-1.69-45.74-3.89-1.32-.19-2.65-.31-3.72.77-50-8.85-95.31-26.81-130.06-65.74.09-1.62-.09-3-2.21-3.06l-1.8-1.92c.1-1.62-.07-3.06-2.2-3.07l-.8-.91c.1-1.63-.07-3.08-2.22-3.08l-.78-.93c.08-1.55,0-3-2.07-3.09l.05,0c0-2.28,0-4.63-3.11-5l.05,0c.19-1.54.13-2.94-1.89-3.16l-1-1.8c-.59-6.16-4.82-10.77-6.91-16.29-.65-1.71-2.59-3.17-1.3-5.4,2.31,0,2.35,2.09,3.24,3.33,4.19,5.87,6.15,13.72,14.3,16.06l.75,1.09,1,2,1,1.77,1.08,1.16-.07-.09.84,1.13,1.15,1.85a1.89,1.89,0,0,0,1.85,2.16,1.34,1.34,0,0,1,.16.76c.35.4.69.81,1,1.22l0-.1a2.76,2.76,0,0,0,2.8,3.12l2.18,2.84a25.81,25.81,0,0,0,12,12.1l-.08,0,1.07,1.07-.08-.08a2.16,2.16,0,0,0,2,1.12l2.07,1.75,1.08,1.19-.06-.12,1.1,1.06-.07-.12a1.82,1.82,0,0,0,2,1.18l0-.05c.11,2.67,1.81,3.21,4,3l-.07,0,1.12,1-.07-.1,1.1,1.05v-.14a2.32,2.32,0,0,0,3.06,2h-.07a2.33,2.33,0,0,0,3.08,2h-.08c.51,2.18,2.16,2.32,4,2.19l-.07,0,1.12,1,0-.15c1.71,3.18,4.7,3.94,8,4.2l0,0c1.86,3.84,5.35,4.62,9.12,4.89l-.08,0c.63,1.33,1.83,1.21,3,1.17l-.06,0c1.93,3.09,5.36,3.74,8.35,5,8.69,3.77,17.77,6.5,26.83,9.24a299.2,299.2,0,0,0,64.41,11.63c13.4,1,26.94.15,40.42.21,3.8,0,4.93-1.42,4.22-5.25-.42-2.25-1.81-5.43,1.84-6.87h0c-.2,2.94,1,4.74,4.08,5.05l2.87,2.9,1.06,1.13-.07-.07,1.09,1.06,0-.1c.17,1.75.35,3.5,2.87,2.22l1.06.82a1.89,1.89,0,0,0,2.09,2l-.09,0a2.06,2.06,0,0,0,2.09,1l-.07,0c.35.37.7.73,1.06,1.09l-.07-.08a2.87,2.87,0,0,0,3.08,2l0-.06c.3,2.71,2.35,2,4,2.07l-.07,0a2.08,2.08,0,0,0,2.07,1l-.07,0a2.07,2.07,0,0,0,2.07,1l-.08,0a2.14,2.14,0,0,0,2.18,1,3.11,3.11,0,0,1,.8.08c5,4,10.87,5.24,17.14,4.94a2.43,2.43,0,0,1,.89.17c9.68,3.48,19.3,1.47,28.81-.65,6.1-1.35,5.82-1.62,7.26,4.49.79,3.35.77,7.44,5.06,8.93l-.06,0c0,.9.15,1.67,1.15,2l.08-.11c-.3,1.57.39,2.2,1.93,2l-.12.09,1.06,1,0-.08c.29,1,1.06,1.18,1.95,1.17Z"/><path class="cls-5" d="M32.43,372c-8.15-2.34-10.11-10.19-14.3-16.06-.89-1.24-.93-3.32-3.24-3.33-1.29,2.23.65,3.69,1.3,5.4,2.09,5.52,6.32,10.13,6.91,16.29C5.35,343.15-4.76,310.33,2.23,274c2.1-10.92,3.46-11.87,14.53-11.8,4.94,0,9.11-.19,13.35-4.08,5.75-5.27,13.87-3.49,19.45,2.92A32.8,32.8,0,0,1,58,281.52l2.91-1c10.65-3.58,17.77-.14,21.48,10.52a53.38,53.38,0,0,1,1.52,6.79c.16.78,0,2.31.66,2.14,3.8-1,6.73,2.32,10.35,1.87.27,1.46.29,3.11,2.36,3.28l-.36,2.06-.77.87-1,3c-1,.46-1,2.23-2.68,2.11-.76-3.25.2-7.42-5.1-8.22-4.31-.66-6.62,2.54-10.19,4.63,2.14-9.43,4.78-18.65-4.26-24.84-6.56-4.49-12.62-.5-18.49,4-.44-3.42-.83-6.32-1.19-9.23a27.23,27.23,0,0,0-8.32-17.13c-4.22-3.95-7.94-4-12.75-1.28-4.59,2.62-4.53,6.41-3.28,10.78,4.95,17.32,16,30.44,29.1,42.08,5.19,4.62,10.84,8.72,16.28,13.06a2.78,2.78,0,0,0-2.36,2.37C49.68,315,31.94,297,24.55,270.71c-.8-2.84-1.9-3.92-4.67-3.72a19.72,19.72,0,0,1-4.48-.06c-5.19-.85-7,1.84-7.82,6.51C5,288.15,6.72,302.59,9.75,317,13.9,336.73,22.16,354.8,32.43,372Z"/><path class="cls-3" d="M525.53,106.32c4.67,1.63,4.3-2.84,5.93-4.9a130,130,0,0,1,13,22.22c1.29,2.8,2.43,3.85,5.94,2.83,25.1-7.27,46.89,9,46.8,35.07-.07,25.43-12.21,44.23-33,58-.33-3.11-2-4.71-5.19-4.42,1.17-.92,2.32-1.86,3.5-2.78,10.71-8.33,19.52-18.16,23.77-31.35,3.86-12,4.83-23.9-2.62-35C578.07,137.6,569.77,134,560,134.65c-9.08.61-14,6.81-16.86,14.92-.31.87-.37,2-1.75,2.31-.29-3-.42-5.91-.86-8.8C538.49,129.64,532,118,525.53,106.32Z"/><path class="cls-2" d="M559,215.07c3.23-.29,4.86,1.31,5.19,4.42l-1,.68c-1.47,0-2.87,0-3.09,2l-1.84,1.07c-2.21,0-4.41.11-5.14,2.84l-1.1,1.11c-1.72.23-3.21,2.86-5.2.5-.18-.21-.73-.4-.9-.28-6,4.11-14.11,2.85-19.82,7.72l-7,1.78-.75-1.07-1.23,1.37-3.07.72c-4.39-1.72-8.52.49-12.77.89l.48.82-2.7.3c-7.51-1.74-15.13-.27-22.68-.78-1.82-.13-3.82.56-5.69-.82,1.53-1.8,3.28-1.09,4.79-1.12,5.46-.09,10.92,0,16.38-.06,1.56,0,3.45.58,4.22-1.6l1.15-.09c7.88,2.24,15.36-.62,22.8-2.29,4.81-1.08,10.24-1.3,14-5.4l1.11-.45c.48.43.78.19,1-.29l.39.05a2.5,2.5,0,0,0,2.52-1.08l-.09,0c3.35,0,6.16-1.1,8.09-4l-.06.06a2.09,2.09,0,0,0,2.07-1l-.07,0a2.08,2.08,0,0,0,2.07-1.06l-.08,0c2.28,0,4.53-.07,5-3l0,.05a2,2,0,0,0,2-1.11l-.06.11,1.09-1Z"/><path class="cls-3" d="M171.18,466c1.07-1.08,2.4-1,3.72-.77,15.17,2.2,30.35,4.26,45.74,3.89,1.68,0,3.82-.7,4.5,1.87A225.41,225.41,0,0,1,171.18,466Z"/><path class="cls-3" d="M230.15,471c.35-1.68,1.59-1.94,3-1.9a286,286,0,0,0,28.68-1c1.66-.13,3.87-.65,4.16,2.16-5.21-1.2-10.43-.13-15.58.34A187.89,187.89,0,0,1,230.15,471Z"/><path class="cls-3" d="M269,472.23c4.4.57,8.4,1.92,11.16,5.7l-7-2.8-.89-.64-1.75-1Z"/><path class="cls-3" d="M553.1,226c.73-2.73,2.93-2.8,5.14-2.84Z"/><path class="cls-5" d="M26,379.26c3.12.36,3.07,2.71,3.11,5C28,382.61,26.33,381.35,26,379.26Z"/><path class="cls-5" d="M38.91,397.21c2.12,0,2.3,1.44,2.21,3.06Z"/><path class="cls-3" d="M560.08,222.13c.22-1.93,1.62-2,3.09-2Z"/><path class="cls-3" d="M266,470.24c1.59-.16,3-.1,3.06,2Z"/><path class="cls-5" d="M29,384.21c2.11.08,2.15,1.54,2.07,3.09Z"/><path class="cls-5" d="M24.14,376.14c2,.22,2.08,1.62,1.89,3.16Z"/><path class="cls-5" d="M31.89,388.23c2.15,0,2.32,1.45,2.22,3.08Z"/><path class="cls-5" d="M34.91,392.22c2.13,0,2.3,1.45,2.2,3.07C36.38,394.26,35.64,393.24,34.91,392.22Z"/><path class="cls-5" d="M95.26,301.14a4.24,4.24,0,0,1,0,.71s-.28,0-.43.07A1,1,0,0,1,95.26,301.14Z"/><path class="cls-3" d="M290.09,481.21c3.93-1.11,7.66.76,11.47.77,8.91,0,17.85.84,26.72-.49,1.62-.24,2.6-.07,2.78,1.72a151.91,151.91,0,0,1-24.59.86A49.27,49.27,0,0,1,290.09,481.21Z"/><path class="cls-5" d="M369.12,507.09c6.38-2.25,13-.62,19.44-.91,2.82-.13,5.91-1.07,8.56.95l-2.78.61-23.15-.18Z"/><path class="cls-6" d="M371.19,507.56l23.15.18C386.61,509.79,378.89,510.25,371.19,507.56Z"/><path class="cls-3" d="M350.14,504.07c5.37.73,11.08-.36,16,2.94C360.62,507,355.2,506.46,350.14,504.07Z"/><path class="cls-3" d="M331,483.15c3.45,1.71,3.62,5,4,8.22A19.67,19.67,0,0,1,331,483.15Z"/><path class="cls-3" d="M405.12,506.91c2.08-3,4.53-2.13,7.05-.7A16.21,16.21,0,0,1,405.12,506.91Z"/><path class="cls-3" d="M414.12,506q.84-3.18,3.07-.77A3.7,3.7,0,0,1,414.12,506Z"/><path class="cls-3" d="M343.15,500.09c1.46,0,2.81.14,3,2A5.37,5.37,0,0,1,343.15,500.09Z"/><path class="cls-6" d="M272.23,474.49l.89.64C272.25,475.71,272.36,474.93,272.23,474.49Z"/><path class="cls-7" d="M536.53,227.05l-.39-.05-1,.29-1.11.45a185.69,185.69,0,0,1-36.8,7.69l-1.15.09-9.95.61a12.35,12.35,0,0,0-7.1,0l-30-2.93-1-.08-2.19-.26-.14.23c-3.24-2.09-7.08-2-10.66-2.89L418.47,225a9.49,9.49,0,0,0-5.32-2.05l.09.05a51.6,51.6,0,0,0-12.09-6l.1,0-2.06-1.41a7.22,7.22,0,0,1-.77-1.26c-1.14-3.07,1.65-7.4-2.57-9.37-3.22-1.5-6.86-.5-10.32-.63-1.15,0-2.31,0-3.47.07-9.64.3-9.64.3-8.28,9.65a143,143,0,0,0-33.65,39.52c-4.56,7.94-7.33,16.67-11.47,24.78-6.38-1.66-12.56-4.26-20.12-4.7,6.06,3.53,11.4,6.57,16.67,9.72,13.17,7.87,25,17.23,32.62,30.9,5.75,10.33,2.49,17.61-8.88,20.83-10.53,3-21.12,2.31-31.69.46-6-1.06-12-2.63-18.93-4.17,6.34,7,14.09,9.06,21.6,11.62,1.85,15.09,6.22,29.33,14.24,42.35-8.2,2.53-16.74,4.33-24.34,11.61,14.78-5.76,28.77-6.77,42.67-3.35,28.78,7.1,45.09,26.72,52.48,54.54a93.91,93.91,0,0,1,2.89,30.7c-.18,2.64.72,3.94,2.76,5.17a13.57,13.57,0,0,1,6,6.49c2.1,5.28,0,9-5.61,9.45-16.29,1.19-32.57,1.41-48.83-.7-5.43-.7-10.19-2.91-14.93-5.36l0,.06a2,2,0,0,0-1.95-1.17l0,.08a1,1,0,0,0-1.06-1l.12-.09a2.59,2.59,0,0,0-1.93-2l-.08.11a2,2,0,0,0-1.15-2l.05,0c-2-4.19-4.42-8.31-4.17-13.14.22-4-1.56-3.84-4.51-2.88a70,70,0,0,1-24.55,3.19c-2.62-.09-5.27-1-7.89.06a2.43,2.43,0,0,0-.89-.17l-17.14-4.94a3.11,3.11,0,0,0-.8-.08c-.42-1-1.32-1-2.18-1l.08,0c-.39-.93-1.24-1-2.07-1l.07,0c-.42-.89-1.26-.93-2.07-1l.07,0a6.6,6.6,0,0,0-4-2.07l0,.06c-.44-1.57-1.66-1.95-3.08-2l.07.08c-.36-.36-.71-.72-1.06-1.09l.07,0c-.45-.85-1.3-.88-2.09-1l.09,0a2.7,2.7,0,0,0-2.09-2l-1.06-.82L259.24,456l0,.1L258.17,455l.07.07-1.06-1.13-2.87-2.9a17.49,17.49,0,0,0-4.08-5.05h0a13.92,13.92,0,0,0-3.64-5.41,9.61,9.61,0,0,0-.31,1.89c.23,3,.34,6,.82,8.93.56,3.49-.22,4.89-4.22,5.13-31.83,1.94-63.1-1.6-94-9.12C133.55,443.68,118.81,438,104.2,432l.06,0a3.49,3.49,0,0,0-3-1.17l.07,0c-2.6-2.43-5.89-3.59-9.11-4.89l0,0a20.14,20.14,0,0,0-8-4.2l0,.15-1.12-1,.07,0a5.41,5.41,0,0,0-4-2.19h.08a3.28,3.28,0,0,0-3.08-2h.07a3.24,3.24,0,0,0-3.06-2V415c0-.69-.49-1-1.1-1.05l.07.1-1.12-1,.07,0a9,9,0,0,0-4-3l0,.05a2.17,2.17,0,0,0-2-1.18l.07.12-1.1-1.06.06.11-1.08-1.18-2.07-1.75-2-1.12.08.08L58.22,403l.08,0a58.32,58.32,0,0,0-12-12.1l-2.18-2.84a3.68,3.68,0,0,0-2.8-3.12l0,.1c-.35-.41-.69-.82-1-1.22a1.34,1.34,0,0,0-.16-.76c0-1.21-.86-1.77-1.85-2.16l-1.15-1.85L36.26,378l.07.09-1.08-1.16-1-1.77a2.14,2.14,0,0,0-1-2L32.43,372C22.16,354.8,13.9,336.73,9.75,317c-3-14.39-4.74-28.83-2.17-43.54.83-4.67,2.63-7.36,7.82-6.51a19.72,19.72,0,0,0,4.48.06c2.77-.2,3.87.88,4.67,3.72C31.94,297,49.68,315,71.9,329.4l.12-.09A8.29,8.29,0,0,0,77,332.38l.09-.18,1.11,1-.05,0,2,1.17,1.1.65,1.92,1,2.08,1,2.84,1.21v-.05l2.11,1c26.07,11.41,50.65,7.72,73.85-7.68,13-8.61,22.62-20.49,31.05-33.41q10.08-15.45,20.14-30.93c.59,1.35,1.52,2.65,1.71,4.06.87,6.42,4.54,10.12,10.69,11.57s10.62-1.63,14.3-6c8-9.48,5.24-23.47-5.19-27.89-2.18-.93-4.74.09-6.62-1.69,12.07-14.07,17.95-30.89,21.72-48.68a160,160,0,0,1,13-37.65c2.82-5.75,3.41-12.14,5.21-18.18,7.8-26.2,19.18-50.6,38.61-70.15,35.81-36,79.17-46.12,127.64-33.41,37.14,9.74,65.47,32.45,86.92,64,.74,1.09,1.56,2.14,2.35,3.21,6.41,11.68,13,23.32,15,36.76.44,2.89.57,5.83.86,8.8,1.38-.3,1.44-1.44,1.75-2.31C546,141.46,551,135.26,560,134.65c9.73-.66,18,2.95,23.62,11.28,7.45,11.11,6.48,23,2.62,35-4.25,13.19-13.06,23-23.77,31.35-1.18.92-2.33,1.86-3.5,2.78h0l-1.09,1L558,216a2.3,2.3,0,0,0-2,1.11l0-.05a12.07,12.07,0,0,0-5,3l.08,0L549,221.07l.07,0-2.07,1,.06-.06a18.82,18.82,0,0,0-8.09,4l.09,0A2.71,2.71,0,0,0,536.53,227.05ZM347.08,163.26a28.49,28.49,0,0,0-4.79,0c-6.25,1.06-10.64,4.48-12.5,10.69-1.6,5.32,1.35,9,5,12.11a20.83,20.83,0,0,0,23.79,2.2c8.67-4.84,9.19-16.19.93-21.78C355.83,164.05,351.83,162.5,347.08,163.26Zm36.48-24c1-.05,2-.06,3-.15,11.06-1,22.46-9.44,25.14-18.6.68-2.33,1.1-4.73-1.66-6-2.38-1.11-3.76.36-4.72,2.32C400,127.71,391.52,133,379.23,131.64c-2.25-.25-3.44,1-3.91,3s.73,3.11,2.35,3.9C379.55,139.45,381.57,139.17,383.56,139.24ZM409,85.16c2.79-.31,5-2.11,5.13-5.88s-2.6-6.16-6.7-6.16-5.1,2.46-5.27,5.74C401.93,82.56,404.52,85.19,409,85.16ZM246.68,293.08c-4.61,0-7.27,1.63-7.38,5.42-.11,3.38,1.35,6.45,5.35,6.5s6.29-2.24,6.38-6.19C251.1,295.45,249.73,293,246.68,293.08Zm127.77-98.14c-3.74-3.27-6.47-3.27-9.63-.66-3.69,3-4.46,6.78-1.71,11.41C364,198.92,366.29,193.92,374.45,194.94ZM567,175.68c.06,1.58-.18,3.62,2,3.36,3.21-.39,3.18-3.46,3.71-5.78.36-1.61-.37-3.33-2.31-2.95C567.63,170.86,567.34,173.43,567,175.68ZM407.39,67.11c1.48.06,2.56-.4,2.66-2.09.07-1.45-.26-2.65-2-2.69a2.45,2.45,0,0,0-2.74,2.2C405,66.12,405.77,67,407.39,67.11Z"/><path class="cls-8" d="M96.93,307.18l.36-2.06c3.55-4.4,6.79-9.08,10.69-13.14,8.77-9.13,20.83-8.7,32.21.56a77.29,77.29,0,0,1,9.86,9.79c.61.7,1.43,1.75,2.47,1,.5-.36.59-1.45.63-2.22.13-2.48-.23-5,.6-7.42,1.55-4.62,4.06-5.8,8.34-3.56,2.12,1.11,4.11,2.49,6.45,3.93.3-2.73-.91-4.4-1.57-6.21-3.21-8.79-5.88-17.7-3.89-27.18,1.26-6,5.52-9.24,11.68-9.58a55.86,55.86,0,0,1,20.3,2.9c-2.71-7-5.54-13.14-7-19.7-2.22-10-4.89-20.06-1.09-30.38a13.53,13.53,0,0,1,6.7-7.64,40.74,40.74,0,0,1,15.22-4.51,148.42,148.42,0,0,1,33.31.11c4.72.59,5.58,2.93,4.57,7.24-4.26,18.23-11.43,34.8-23.86,49.26-13.13,15.28-22.65,33.19-33.81,49.93-8.28,12.43-18.13,23.38-31,31.27-18.56,11.38-38.29,14.27-59.25,8-1.58-.47-3.2-.86-4.8-1.29l.12-.16c0-8.36-.3-16.72,1-25l1-3Z"/><path class="cls-9" d="M245.88,161.42c-6.94-4.13-11.15-9.16-14.76-14.75-7.58-11.74-6-21.68,5.16-29.93,11.88-8.79,25.4-13.61,40-15.5,1.41-.19,3.29-.76,4.2.63s-.55,2.78-1.19,4.07a210.9,210.9,0,0,0-15.84,43.44c-3.09,12.58-10,23.86-13.42,36.42-1.05,3.9-4.83,2.84-7.19,1.94-7.26-2.77-11.89-8.53-14.39-15.62-1.59-4.5,2-6.91,5.57-8.77C237.22,161.67,240.85,162.46,245.88,161.42Z"/><path class="cls-9" d="M319,23.05c11.43.29,21,5.35,30.09,11.76,3,2.15,1.44,3.29-.93,4.41-10.09,4.74-20.12,9.61-28.72,16.85-5.32,4.49-10.38,9.28-15.57,13.93-1.2,1.08-2.64,3-3.62,0-3.1-9.34-3.34-33.86,5.61-42.36A16.15,16.15,0,0,1,319,23.05Z"/><path class="cls-9" d="M381.28,30.1c-4,.49-5.06-1.09-2.91-4.47C383.63,17.39,389.93,10.26,399,6c7.31-3.43,13.37-.56,18.9,3.8C424.54,15,429.16,22,433.19,29.33c.54,1,1.33,2.08.39,3.21-.63.75-1.52.42-2.33.21C414.76,28.51,398.05,28.36,381.28,30.1Z"/><path class="cls-10" d="M230.12,247.17c1.88,1.78,4.44.76,6.62,1.69,10.43,4.42,13.15,18.41,5.19,27.89-3.68,4.4-8.08,7.5-14.3,6s-9.82-5.15-10.69-11.57c-.19-1.41-1.12-2.71-1.71-4.06A187.35,187.35,0,0,1,230.12,247.17Z"/><path class="cls-9" d="M491.23,54.77c-.26,1.73.43,3.29-1.13,4-1.27.61-2.18-.42-3.11-1.06a173.42,173.42,0,0,0-31.54-17c-2.52-1-2.69-2.33-.2-3.65,5.44-2.9,11-5.57,17.09-6.74,5.88-1.12,10.45,1.11,13.7,6.79S490.19,49,491.23,54.77Z"/><path class="cls-9" d="M284,72.13c3.45-.36,7.55.37,11.64,1.12,3.2.59,3.8,1.92,1.73,4.68-3.79,5-7.23,10.35-11,15.4-3.33,4.46-10.29,4.11-13.47-.58a44.14,44.14,0,0,1-3.49-6c-3.83-8.17-.06-14.32,8.87-14.59C279.94,72.08,281.61,72.13,284,72.13Z"/><path class="cls-5" d="M88.07,338.23,85.23,337l3-2.95,6,2-.12.16C92.5,338.24,89.12,334.69,88.07,338.23Z"/><path class="cls-5" d="M90.19,339.17l-2.11-1A2.31,2.31,0,0,1,90.19,339.17Z"/><path class="cls-11" d="M334.17,385.4c-8-13-12.39-27.26-14.24-42.35,1.81.2,3.61.42,5.42.61,11.47,1.24,22.93,1.89,33.77-3.13,10.34-4.77,13.69-13.9,9.24-24.38a53.3,53.3,0,0,0-8.25-13c-8.69-10.54-19.44-18.46-31.45-24.78,4.14-8.11,6.91-16.84,11.47-24.78a143.15,143.15,0,0,1,33.64-39.52c2.13,3.74,4.16,7.55,6.41,11.22,3,4.95,4.53,5.21,8.91,1.32,2.65-2.36,4.7-6.86,7.44-7.23,2.94-.4,6.38,2.92,9.61,4.62a1,1,0,0,0,.85.35l-.07-.06,2.8,1.44v-.13l1.44.67a8.1,8.1,0,0,0,4,1.73l1.62.65,0-.11a22,22,0,0,0,7.33,2.64,15,15,0,0,0,7.31,2.09,2.86,2.86,0,0,0,2.66.88,22.39,22.39,0,0,0,7.06,1.8,76.7,76.7,0,0,0,14.89,2.57l2.12.36a168,168,0,0,0,40.88,1l2.7-.3A62.09,62.09,0,0,0,514,237.89l3.07-.72,2-.3,7-1.78,10.58-2.84c1,1.26.1,2.47-.24,3.68-11.19,40.69-31.84,75.42-64.71,102.4-1.81,1.48-2.53,3.36-3.27,5.41-6.49,17.91-14.6,34.93-27.39,49.35-1.61-.16-2.76.67-4,1.61C424.39,404.51,410.54,410,394.23,406c-1.26-.31-2.6-1-3.32.82C375.07,391.51,356.64,383.09,334.17,385.4Z"/><path class="cls-12" d="M390.91,406.79c.72-1.84,2.06-1.13,3.32-.82,16.31,4,30.16-1.46,42.83-11.27,1.23-.94,2.38-1.77,4-1.61-9.3,12.8-21.63,22.22-34.61,30.91-1.61,1.08-2.57.9-3.5-.84C399.71,417.14,395.15,412.08,390.91,406.79Z"/><path class="cls-13" d="M466,382.39c4.8-9.85,9.57-18.6,12.53-28.14.29-.92.88-2.05,2.09-1.72,3.86,1.05,8,2.08,10.46,5.34,2.26,3,1.45,6.67-.23,9.93-2.77,5.35-7.8,8-12.9,10.5A56.24,56.24,0,0,1,466,382.39Z"/><path class="cls-5" d="M104.2,432c14.61,6,29.35,11.68,44.74,15.42,30.88,7.52,62.15,11.06,94,9.12,4-.24,4.78-1.64,4.22-5.13-.48-2.94-.59-6-.82-8.93a9.61,9.61,0,0,1,.31-1.89,13.92,13.92,0,0,1,3.64,5.41c-3.65,1.44-2.26,4.62-1.84,6.87.71,3.83-.42,5.27-4.22,5.25-13.48-.06-27,.8-40.42-.21a299.2,299.2,0,0,1-64.41-11.63c-9.06-2.74-18.14-5.47-26.83-9.24C109.56,435.74,106.13,435.09,104.2,432Z"/><path class="cls-3" d="M300.17,475.21c2.62-1.09,5.27-.15,7.89-.06A70,70,0,0,0,332.61,472c2.95-1,4.73-1.16,4.51,2.88-.25,4.83,2.17,9,4.17,13.14-4.28-1.49-4.26-5.58-5.05-8.93-1.44-6.11-1.16-5.84-7.26-4.49C319.47,476.68,309.85,478.69,300.17,475.21Z"/><path class="cls-5" d="M46.25,390.94a58.32,58.32,0,0,1,12,12.1A25.81,25.81,0,0,1,46.25,390.94Z"/><path class="cls-3" d="M282.14,470.1,299.28,475C293,475.34,287.17,474.1,282.14,470.1Z"/><path class="cls-5" d="M92.22,426c3.22,1.3,6.51,2.46,9.11,4.89C97.57,430.63,94.08,429.85,92.22,426Z"/><path class="cls-5" d="M84.31,421.85a20.14,20.14,0,0,1,8,4.2C89,425.79,86,425,84.31,421.85Z"/><path class="cls-5" d="M250.23,446a17.49,17.49,0,0,1,4.08,5.05C251.26,450.73,250,448.93,250.23,446Z"/><path class="cls-5" d="M67.24,410a9,9,0,0,1,4,3C69.05,413.21,67.35,412.67,67.24,410Z"/><path class="cls-5" d="M259.24,456l2.87,2.22C259.59,459.46,259.41,457.71,259.24,456Z"/><path class="cls-5" d="M41.27,385a3.68,3.68,0,0,1,2.8,3.12A2.76,2.76,0,0,1,41.27,385Z"/><path class="cls-5" d="M79.34,418.83a5.41,5.41,0,0,1,4,2.19C81.5,421.15,79.85,421,79.34,418.83Z"/><path class="cls-3" d="M271.22,465a6.6,6.6,0,0,1,4,2.07C273.57,467,271.52,467.67,271.22,465Z"/><path class="cls-3" d="M268.18,463c1.42.09,2.64.47,3.08,2A2.87,2.87,0,0,1,268.18,463Z"/><path class="cls-5" d="M73.35,414.84a3.24,3.24,0,0,1,3.06,2A2.32,2.32,0,0,1,73.35,414.84Z"/><path class="cls-5" d="M76.34,416.84a3.28,3.28,0,0,1,3.08,2A2.34,2.34,0,0,1,76.34,416.84Z"/><path class="cls-5" d="M38.25,380.94c1,.39,1.81.95,1.85,2.16A1.89,1.89,0,0,1,38.25,380.94Z"/><path class="cls-3" d="M342.47,489.82a2.59,2.59,0,0,1,1.93,2C342.86,492,342.17,491.39,342.47,489.82Z"/><path class="cls-3" d="M263.17,459a2.7,2.7,0,0,1,2.09,2A1.89,1.89,0,0,1,263.17,459Z"/><path class="cls-5" d="M101.26,430.87a3.49,3.49,0,0,1,3,1.17C103.09,432.08,101.89,432.2,101.26,430.87Z"/><path class="cls-3" d="M341.24,488a2,2,0,0,1,1.15,2C341.39,489.63,341.2,488.86,341.24,488Z"/><path class="cls-3" d="M265.17,461c.79.15,1.64.18,2.09,1A2.09,2.09,0,0,1,265.17,461Z"/><path class="cls-3" d="M275.17,467c.81.11,1.65.15,2.07,1A2.08,2.08,0,0,1,275.17,467Z"/><path class="cls-3" d="M277.17,468c.83.07,1.68.11,2.07,1A2.07,2.07,0,0,1,277.17,468Z"/><path class="cls-3" d="M279.16,469c.86.06,1.76,0,2.18,1A2.14,2.14,0,0,1,279.16,469Z"/><path class="cls-5" d="M33.18,373.13a2.14,2.14,0,0,1,1,2Z"/><path class="cls-3" d="M345.29,492.84a2,2,0,0,1,1.95,1.17C346.35,494,345.58,493.83,345.29,492.84Z"/><path class="cls-5" d="M59.21,404l2,1.12A2.16,2.16,0,0,1,59.21,404Z"/><path class="cls-5" d="M65.29,408.87a2.17,2.17,0,0,1,2,1.18A1.82,1.82,0,0,1,65.29,408.87Z"/><path class="cls-5" d="M83.22,421l1.12,1Z"/><path class="cls-5" d="M64.26,407.93l1.1,1.06Z"/><path class="cls-5" d="M63.24,406.86,64.32,408Z"/><path class="cls-5" d="M58.22,403l1.07,1.07Z"/><path class="cls-5" d="M72.26,413.93c.61.09,1,.36,1.1,1.05Z"/><path class="cls-5" d="M40.26,383.86c.35.4.69.81,1,1.22C41,384.67,40.61,384.26,40.26,383.86Z"/><path class="cls-5" d="M258.17,455l1.09,1.06Z"/><path class="cls-3" d="M344.28,491.89a1,1,0,0,1,1.06,1Z"/><path class="cls-5" d="M36.26,378l.84,1.13Z"/><path class="cls-5" d="M35.25,376.89l1.08,1.16Z"/><path class="cls-5" d="M71.21,413l1.12,1Z"/><path class="cls-3" d="M267.19,462c.35.37.7.73,1.06,1.09Z"/><path class="cls-5" d="M257.18,453.94l1.06,1.13Z"/><path class="cls-14" d="M94.18,336.09l-6-2a10.53,10.53,0,0,0-4.82-2l-1.2-1a2.69,2.69,0,0,0-.8,0l-1.19-1-2-1a6.6,6.6,0,0,0-4-2l0,0C68.82,322.69,63.17,318.59,58,314c-13.09-11.64-24.15-24.76-29.1-42.08-1.25-4.37-1.31-8.16,3.28-10.78,4.81-2.75,8.53-2.67,12.75,1.28a27.23,27.23,0,0,1,8.32,17.13c.36,2.91.75,5.81,1.19,9.23,5.87-4.51,11.93-8.5,18.49-4,9,6.19,6.4,15.41,4.26,24.84,3.57-2.09,5.88-5.29,10.19-4.63,5.3.8,4.34,5,5.1,8.22,1.72.12,1.65-1.65,2.68-2.11C93.88,319.37,94.17,327.73,94.18,336.09Z"/><path class="cls-2" d="M71.9,329.4A2.78,2.78,0,0,1,74.26,327l0,0A2.48,2.48,0,0,1,72,329.31Z"/><path class="cls-2" d="M96.93,307.18l-.77.87Z"/><path class="cls-3" d="M499.05,239.9a168,168,0,0,1-40.88-1c2.08-1.71,5.1.2,8.12-2.26l-13.7-1.39c.69,2.45,3.12,1.55,3.46,3.29A76.7,76.7,0,0,1,441.16,236c2.48-2.45,5.71,1.24,8.72-.72l-4.08-2.41,2.2.26c.33,0,.66.07,1,.08l30,2.93,7.09,0,9.95-.61c-.77,2.18-2.66,1.59-4.22,1.6-5.46.06-10.92,0-16.38.06-1.51,0-3.26-.68-4.79,1.12,1.87,1.38,3.87.69,5.69.82C483.92,239.63,491.54,238.16,499.05,239.9Z"/><path class="cls-3" d="M497.22,235.43a185.69,185.69,0,0,0,36.8-7.69c-3.76,4.1-9.19,4.32-14,5.4C512.58,234.81,505.1,237.67,497.22,235.43Z"/><path class="cls-3" d="M514,237.89a62.09,62.09,0,0,1-12.29,1.71l-.48-.82C505.52,238.38,509.65,236.17,514,237.89Z"/><path class="cls-3" d="M539,226a18.82,18.82,0,0,1,8.09-4C545.12,224.9,542.31,226,539,226Z"/><path class="cls-3" d="M551,220.05a12.07,12.07,0,0,1,5-3C555.51,220,553.26,220.05,551,220.05Z"/><path class="cls-3" d="M519.09,236.87l-2,.3,1.23-1.37Z"/><path class="cls-3" d="M556,217.09a2.3,2.3,0,0,1,2-1.11A2,2,0,0,1,556,217.09Z"/><path class="cls-3" d="M549,221.07l2.07-1.06A2.08,2.08,0,0,1,549,221.07Z"/><path class="cls-3" d="M547,222.07l2.07-1A2.09,2.09,0,0,1,547,222.07Z"/><path class="cls-3" d="M536.53,227.05a2.71,2.71,0,0,1,2.52-1.08A2.5,2.5,0,0,1,536.53,227.05Z"/><path class="cls-3" d="M558,216.09l1.09-1Z"/><path class="cls-3" d="M535.13,227.29l1-.29C535.91,227.48,535.61,227.72,535.13,227.29Z"/><path class="cls-3" d="M328.66,278.39c12,6.32,22.76,14.24,31.45,24.78a53.3,53.3,0,0,1,8.25,13c4.45,10.48,1.1,19.61-9.24,24.38-10.84,5-22.3,4.37-33.77,3.13-1.81-.19-3.61-.41-5.42-.61-7.51-2.56-15.26-4.64-21.6-11.62,6.94,1.54,12.89,3.11,18.93,4.17,10.57,1.85,21.16,2.51,31.69-.46,11.37-3.22,14.63-10.5,8.88-20.83-7.61-13.67-19.45-23-32.62-30.9-5.27-3.15-10.61-6.19-16.67-9.72C316.1,274.13,322.28,276.73,328.66,278.39Z"/><path class="cls-15" d="M347.08,163.26c4.75-.76,8.75.79,12.41,3.26,8.26,5.59,7.74,16.94-.93,21.78a20.83,20.83,0,0,1-23.79-2.2c-3.63-3.1-6.58-6.79-5-12.11,1.86-6.21,6.25-9.63,12.5-10.69A28.49,28.49,0,0,1,347.08,163.26Z"/><path class="cls-2" d="M445.8,232.84l4.08,2.41c-3,2-6.24-1.73-8.72.72a22.39,22.39,0,0,1-7.06-1.8,2.78,2.78,0,0,0-2.66-.88,15,15,0,0,1-7.31-2.09c-1.83-2.59-4.42-3.08-7.33-2.64l0,.11c-.09-1.35-.65-1.51-1.62-.65a8.1,8.1,0,0,1-4-1.73l-1.44-.67v.13c-.22-1.86-1.59-1.51-2.8-1.44l.07.06c-.12-.53-.35-.78-.85-.35-3.23-1.7-6.67-5-9.61-4.62-2.74.37-4.79,4.87-7.44,7.23-4.38,3.89-5.87,3.63-8.91-1.32-2.25-3.67-4.28-7.48-6.41-11.22-1.35-9.35-1.35-9.35,8.29-9.65,1.16,0,2.32-.11,3.47-.07,3.46.13,7.1-.87,10.32.63,4.22,2,1.43,6.3,2.57,9.37a7.68,7.68,0,0,0,.77,1.27,1.83,1.83,0,0,0,2.06,1.4l-.1,0c3.44,3.2,7.22,5.72,12.09,6l-.09-.05c1.3,1.9,3.21,2.23,5.32,2.05L435,230.18c-.41.14-1.08.06-.72.84.05.1.28.12.43.17,3.58,1,7.12,2.31,11,1.88Zm-59.65-24c-9.91.17-9.91.17-5,9.14.23.44.48.87.73,1.31,3.16,5.54,4.8,5.56,8.43.08a18.42,18.42,0,0,0,1-1.74C395.45,209.53,395,208.68,386.15,208.83Z"/><path class="cls-3" d="M383.56,139.24c-2-.07-4,.21-5.89-.7-1.62-.79-2.81-1.95-2.35-3.9s1.66-3.25,3.91-3c12.29,1.36,20.78-3.93,26.07-14.87,1-2,2.34-3.43,4.72-2.32,2.76,1.31,2.34,3.71,1.66,6-2.68,9.16-14.08,17.59-25.14,18.6C385.55,139.18,384.55,139.19,383.56,139.24Z"/><path class="cls-10" d="M409,85.16c-4.45,0-7-2.6-6.84-6.3.17-3.28,1.31-5.74,5.27-5.74s6.83,2.35,6.7,6.16S411.76,84.85,409,85.16Z"/><path class="cls-10" d="M246.68,293.08c3-.13,4.42,2.37,4.35,5.73-.09,3.95-2.49,6.24-6.38,6.19s-5.46-3.12-5.35-6.5C239.41,294.71,242.07,293.1,246.68,293.08Z"/><path class="cls-14" d="M374.45,194.94c-8.16-1-10.45,4-11.34,10.75-2.75-4.63-2-8.37,1.71-11.41C368,191.67,370.71,191.67,374.45,194.94Z"/><path class="cls-5" d="M567,175.68c.3-2.25.59-4.82,3.38-5.37,1.94-.38,2.67,1.34,2.31,2.95-.53,2.32-.5,5.39-3.71,5.78C566.86,179.3,567.1,177.26,567,175.68Z"/><path class="cls-2" d="M81.37,331.08a2.69,2.69,0,0,1,.8,0l1.2,1a10.53,10.53,0,0,1,4.82,2l-3,2.95-2.08-1c-.23-1.12-.47-2.22-1.92-1l-1.1-.65a2,2,0,0,0-2-1.17l.05,0-1.11-1-.09.18c.28-1.16.15-2.47,1.28-3.29l2,1Z"/><path class="cls-10" d="M407.38,67.11c-1.61-.11-2.35-1-2.08-2.58a2.45,2.45,0,0,1,2.74-2.2c1.75,0,2.08,1.24,2,2.69C410,66.71,408.87,67.17,407.38,67.11Z"/><path class="cls-3" d="M413.24,223c-4.87-.32-8.65-2.84-12.09-6A51.6,51.6,0,0,1,413.24,223Z"/><path class="cls-5" d="M78.23,329.09c-1.13.82-1,2.13-1.28,3.29A8.29,8.29,0,0,1,72,329.31a2.48,2.48,0,0,0,2.21-2.25A6.6,6.6,0,0,1,78.23,329.09Z"/><path class="cls-3" d="M445.66,233.07c-3.83.43-7.37-.86-11-1.88-.15-.05-.38-.07-.43-.17-.36-.78.31-.7.72-.84C438.58,231,442.42,231,445.66,233.07Z"/><path class="cls-3" d="M418.47,225c-2.11.18-4-.15-5.32-2.05A9.49,9.49,0,0,1,418.47,225Z"/><path class="cls-2" d="M486.12,236.13l-7.09,0A12.32,12.32,0,0,1,486.12,236.13Z"/><path class="cls-5" d="M81.23,335c1.45-1.22,1.69-.12,1.92,1Z"/><path class="cls-5" d="M78.1,333.17a2,2,0,0,1,2,1.17Z"/><path class="cls-3" d="M401.25,217a1.83,1.83,0,0,1-2.06-1.4Z"/><path class="cls-5" d="M77,332.2l1.11,1Z"/><path class="cls-2" d="M449,233.18c-.33,0-.66,0-1-.08Z"/><path class="cls-2" d="M456.05,238.54c-.34-1.74-2.77-.84-3.46-3.29l13.7,1.39c-3,2.46-6,.55-8.12,2.26Z"/><path class="cls-3" d="M416.8,228.56c2.91-.44,5.5.05,7.33,2.64A22,22,0,0,1,416.8,228.56Z"/><path class="cls-3" d="M406.92,224.31c1.21-.07,2.58-.42,2.8,1.44Z"/><path class="cls-3" d="M415.14,228c1-.86,1.53-.7,1.62.65Z"/><path class="cls-3" d="M431.44,233.29a2.78,2.78,0,0,1,2.66.88A2.86,2.86,0,0,1,431.44,233.29Z"/><path class="cls-3" d="M409.71,225.62l1.44.67Z"/><path class="cls-3" d="M406.14,224c.5-.43.73-.18.85.35A1,1,0,0,1,406.14,224Z"/><path class="cls-5" d="M81.37,331.08l-1.19-1Z"/><path class="cls-5" d="M83.37,332.08l-1.2-1Z"/><path class="cls-16" d="M386.15,208.83c8.81-.15,9.3.7,5.09,8.79a18.42,18.42,0,0,1-1,1.74c-3.63,5.48-5.27,5.46-8.43-.08-.25-.44-.5-.87-.73-1.31C376.24,209,376.24,209,386.15,208.83Z"/></g></g></svg>