<?xml version="1.0" encoding="utf-8"?>
<!-- Generator: Adobe Illustrator 27.9.0, SVG Export Plug-In . SVG Version: 6.00 Build 0)  -->
<svg version="1.1" id="Layer_1" xmlns="http://www.w3.org/2000/svg" xmlns:xlink="http://www.w3.org/1999/xlink" x="0px" y="0px"
	 viewBox="0 0 443.4 384.1" style="enable-background:new 0 0 443.4 384.1;" xml:space="preserve">
<style type="text/css">
	.st0{fill:#433742;}
	.st1{fill:#413B40;}
	.st2{fill:#43363D;}
	.st3{fill:#E7E9DC;}
	.st4{fill:#94CE45;}
	.st5{fill:#6D9A46;}
	.st6{fill:#6D9847;}
	.st7{fill:#3C6145;}
	.st8{fill:#EDF483;}
	.st9{fill:#D2CFC2;}
	.st10{fill:#E2EBCE;}
	.st11{fill:#467D44;}
	.st12{fill:#447D45;}
	.st13{fill:#71AE3F;}
	.st14{fill:#EEF77F;}
	.st15{fill:#E89669;}
</style>
<path class="st0" d="M19.2,264.1l-0.8-1.5c-0.5-1.2-0.9-2.3-1.4-3.5c-9.9-21.6-15.2-45-15.8-68.7c-0.2-10.6,0.4-21.2,4-31.4
	c3.4-9.3,9-10.9,16.7-5.1l1.4,1.5c0.7,1.5,1.8,2.7,3.1,3.6c0.5,1.8-1.2,4.2,1.5,5.4c1.7,3.8,4.4,7,5.3,11.2l1.5,2.3l0,0
	c0.1,1.2-0.4,2.6,1.3,3l0.2,0.8c-0.1,0.1-0.3,0.2-0.3,0.2c0.1,0.2,0.1,0.4,0.2,0.5c0.1,0.2,0.1,0.3,0,0.5c-0.8,2.4,1.7,4.5,0.7,7.2
	c-0.2,0.6,1.5,1.9,2.9,0.6c1.2,0.3,1.8-1.2,3-0.8c1,1,2.3,0.7,3.5,0.7c1.6,0,2.6,0.4,2.5,2.2h-5.2c-1-1-1.3-0.2-1.5,0.7l-1.5,0.1
	c-2.1-0.5-2,1.8-2.6,2.4c-3-5.2-4.9-10.9-7-16.5c-1.1-2.8-1.3-6.1-4.5-7.7c-0.1-0.1-0.2-0.3-0.1-0.5c0.1-1.6,0.5-3.4-1.8-3.9
	l-0.5-1.5c1.4-1.9,0.2-2.6-1.5-3l0,0c0.1-0.6-0.2-1.2-0.8-1.5v0.1l-0.5-1.2l-0.8,0.5c-0.6,1.7-1,3.3-1.8,4.9
	c-1.5,3.3-2.4,3.4-4.6,0.6c-1.3-1.7-2.1-3.9-4-5.4c-1.9,4.2-3,8.7-3.2,13.2c-1.7,26.6,3.8,51.9,14.3,76.2c9.1,21.1,22,39.4,40,54
	c26.8,21.7,58.3,31.6,91.7,37.1c2.4,0.4,3.3-0.3,3.5-2.8c0.3-2.1,0.7-4.2,1.3-6.2c0.3-1.3,0.9-2.6,2.5-2.1s1.1,1.8,0.8,2.9
	c-0.7,4.1-0.8,8.2-0.4,12.3c0.6,8.1,4.4,13.9,12.2,16.8c2.3,0.9,4.7,1.7,7.1,2.3c12.2,3,24.7,2.9,37.2,3.2
	c7.6,0.2,12.7-2.5,15.8-9.3c0.1-0.1,0.4-0.1,0.8-0.2c1.4,1.8,1.1,4,1.1,6c0,1.9,0.8,2.1,2.3,1.5c3.4-1.2,5.4-4,7.5-6.5
	c1.5,0.7,1.5,2.1,1.5,3.5c0,0.8-0.2,1.9,0.8,2.2c1.2,0.4,1.8-0.5,2.2-1.4l0.2,0.1l1.2-0.8h-0.1c1.9-0.2,3.5-0.8,3.7-3.1v0.1
	c1.5-0.3,2.6-1.7,2.3-3.3c-0.1-0.1,0-0.3,0.1-0.3c0,0,0,0,0,0c4.7-3.7,4.9-9.1,5.2-14.4c0-0.2,0-0.4,0-0.6c1.3-3.6,1.3-7.6,0.1-11.3
	c0.4-3.9-0.9-7.7-1.1-12c2.3,1,1.8,3.6,3.4,4.5c0.1,0.2,0.1,0.3,0,0.5c0.4,1.8-1.3,4.2,1.3,5.5c0.1,0.2,0.2,0.4,0.2,0.6
	c0,1.1-0.3,2.2,0.6,3.1l0.1,1.4c-0.3,4.1,0.2,8.2,1.6,12.1c0.2,0,0.4,0,0.7,0.1c0.9,0.8,2.1,1,3.2,0.6c10-1.7,19.7-4.9,28.9-9.3
	c1-0.5,2.3-1.1,2.5-2.6l1.5-0.8c2.1-0.2,4-0.5,4.5-3c1.7-0.1,3.4-0.3,3.2-2.7l0.2-0.1c2.8,0.5,3.6-1.2,4-3.4l0.7-0.6
	c0.3-0.2,1.4,0.4,0.8-0.8l1.6-1.5h0.4l-0.2-0.3l0.2-0.1c0.6,0.1,0.8-0.1,0.7-0.7l0.2,0.2l-0.2-0.2c1,0.1,1.1-0.6,1.1-1.3l0.6-0.6
	c1.7,0.1,3.1-1.1,3.3-2.8c0,0,0-0.1,0-0.1c1.5-0.6,2.4-2.1,2.2-3.7c1.2-0.1,2.3-1,2.6-2.2c1-2.4,2.6-2.6,4.6-1.3
	c-0.1,0.1-0.2,0.3-0.3,0.4c-2.4,2.8-5.9,4.8-6.1,9.1l0,0c-1.6-0.1-2.9,1.2-3,2.8c0,0.1,0,0.1,0,0.2v0c-0.5,0.3-0.8,0.9-0.8,1.5l0,0
	c-0.8,0-1.5,0.5-1.5,1.3c0,0.1,0,0.2,0,0.2l-0.7,0.7l-0.8,0.8c-8.3,9.4-18.9,15.4-30.3,19.9c-3,1.2-3.2,2.6-2.3,5
	c1.8,5.2,6.1,7.8,10.8,9.5c9.1,3.4,18.7,3.6,28.4,3.9c6.5,0.2,11.9-0.5,14.3-7.6c0-0.1,0.4-0.2,0.7-0.3c1.8,1.8,0.2,4.3,1.2,6.3
	c3.8-1.1,3.9-1.2,9.4-8.6c1.4,2,0.5,4.2,0.7,6.2c-0.1,0.1-0.2,0.2-0.2,0.3c0,0,0.2,0.2,0.2,0.2c0.1-0.1,0.2-0.1,0.3-0.2
	c2.8-1,4.8-3,6.6-5.3c8.7-10.8,8.3-37.1-3.6-48c-3.6-3.3-7.7-5.9-11.4-9.1c-0.5-0.8-1.4-0.8-2.2-0.8l0,0c-2.3-2.9-3.3-2.8-5,0.2
	c-1,2-1.4,4.2-3.1,5.9c-0.5,0.5-0.7,1.6-1.6,1.2c-1.2-0.6-0.3-1.5,0.1-2.2c4.6-8.5,6.7-17.8,8.9-27.1c0.3-1.1,0.3-2.4,1.8-3
	c1,3.1-1,5.8-0.4,8.7c0,0.2,0,0.5,0,0.7c-1,0.8-0.7,2-0.7,3l0,0c-2.5,1.8-0.3,2.6,0.8,3.7h-0.1c0.6,0.9,1.5,0.8,2.4,0.8l1.4,0.1
	c2.2,2.8,5.2,2.5,8.2,2.2c3,0,6,0.1,9,0c4.6,0,4.6-0.1,2.7-4.3c-0.1-0.7-0.2-1.4-0.2-2.1c5.1,3.5,9.8,7.1,15.5,2.6
	c0.6-0.3,0.9-1,0.8-1.7c-0.1-0.4-0.1-0.8-0.2-1.2c3-2,5.7-5,9.9-3.1c-2.7,9.7-10,14.2-19,16.4c-5.2,1.2-10.5,1.6-15.8,1.4
	c16.5,17.9,21.7,37.5,12.2,60.1c-4.1,6.4-10.4,11-17.8,12.8c-1.8,0.3-3.7,0.1-5.3,1.4l-4.5,0.1c-0.7-0.1-1.2-0.1-1.6,0.6l-2.2,0.2
	l-9-0.1h-10.5c-1.5-0.3-3-0.3-4.5,0.1l-3.7-0.2c-1.6-1.6-3.5-0.3-5.3-0.5c-0.2-0.1-0.4-0.2-0.6-0.1c-1-1.4-2.5-1.1-3.9-1.4l-4.2-1.6
	c-5.1-1.9-10.6-4.3-12.5-9.5c-2.7-7.6-7.5-7.8-13.7-6.2c-0.7,0.2-1.5,0.3-2.2,0.3c-2.1-0.1-3,1-3.7,2.8c-4.2,10.2-12,15.9-22.7,17.8
	c-5.9,1-11.9,1.4-17.8,1.8c-12.7,1-25.5,0.3-38.1-0.7c-7.4-0.6-14.7-3.1-21.4-6.5c-0.8-0.9-1.8-1.5-3-1.8h0.4
	c-3.8-3.9-7.3-8-8.4-13.4c-0.7-3.2-2.4-4.1-5.3-4.3c-8.6-0.8-17.2-2.5-25.5-5c-16.1-4.6-31.7-10.5-46.4-18.5l0,0l-1.6-0.9l0.1,0.1
	l-13.6-9l0,0l-3.1-2.3l0,0l-3.8-3l0,0l-1.3-1.1l-0.3,0.1l0.3-0.1l-1.6-1.3v0.1l-0.9-0.8l0.1,0.1l-0.9-0.8h0.1l-4.7-4.5l-1.3-1.4
	l-4.2-4.1v0.1l-1.8-2.2l-0.6-0.7l-4.7-5.9l-0.6-0.8l-5.3-7.6l0,0c-2.2-3.8-4.5-7.6-6.8-11.3l0,0L19.2,264.1z M16.4,163.7
	c1.2-1.6,1.4-3.4,1.5-5.2c0-1.2-0.8-1.8-1.8-2.1c-1.1-0.4-2.3-0.2-3.1,0.6c-1,1-0.1,1.8,0.4,2.6C14.3,161,14.7,162.8,16.4,163.7z"/>
<path class="st1" d="M26.6,171.9c3.2,1.5,3.5,4.9,4.5,7.7c2.1,5.6,4,11.2,7,16.5c0.7-0.7,0.5-2.9,2.6-2.4c-0.4,0.6-0.5,1.4-0.4,2.1
	c2.8,7.6,5.3,15.3,9.1,22.4c1.2,2.3,2.5,0.9,3.4-0.3c2.5-3.4,4.2-7.4,5.1-11.5c1.8-9.4-0.1-12-8.9-13.5c0.1-1.8-0.9-2.3-2.5-2.2
	c-1.2,0-2.5,0.3-3.5-0.7c3.5-1,7-0.5,10.4,0.2c5.2,1.2,8.1,5.1,8.4,10.5c0.3,5.7-1.6,10.8-3.7,15.9c0,0.3-0.2,0.8-0.1,0.9
	c0.4,0.4,0.8,0.2,1.2-0.1c2.2-0.4,4.4-0.9,6.6-1.1c9.7-0.8,13.8,2,17.9,11.9c1.2-0.4,1.3-1.7,1.9-2.5c0.5-0.6,0.8-1.3,1.2-1.9
	c10.5-15.9,22.8-17.6,37.2-5.1c0.5,0.4,0.9,0.8,1.7,1.4c1.3-3.6,3.3-6.4,7.1-6.9c1.9-0.3,0.9-1.4,0.7-2.2c-1-4.3-1.3-8.6-0.9-13
	c1-8.7,5.5-12.9,14.3-13.1c2.2-0.1,4.5,0,7,0c-2.1-5.7-3.5-11.7-4.1-17.7c-0.3-3.4-0.2-6.7,0.2-10.1c1-8.1,5.7-12.8,13.2-15
	c6.8-2,13.7-2.5,20.8-2.5h3.4c-1.4-2.4-3.2-4.1-4.1-6.4c-1.7-4.3-1.8-8.3,1.9-11.7c1.1-1,1.4-1.5,0.2-2.9
	c-7.5-9.1-6.1-24.9,2.8-32.5c7.2-6.3,15.9-9.9,25-12.3c1-0.3,1.9-0.5,2.9-0.7c0.2-0.1,0.4-0.3,0.6-0.5c-1.4-2.5-3.1-4.8-4-7.5
	c-2.4-6.8,0.4-12,7.3-13.8c4.3-1.1,8.7-1.1,13-0.1c2.1,0.5,2.8,0,2.5-2.4c-0.8-7-0.9-14,0.9-20.9c3-11.6,11-16.3,22.6-13.6
	c7.2,1.6,14,4.8,19.8,9.3c1.8,1.5,4.2,2,6.5,1.4c4.4-0.6,8.2-3.5,10.1-7.5c2.9-5.2,6.9-9.6,11.8-13c8.4-6.1,16.3-5.8,24.2,1
	c5.3,4.8,9.5,10.7,12.4,17.2c2.2,4.9,5.1,5.8,9.5,3c4-2.7,8.5-4.7,13.3-5.9c8-1.7,12.9,0.7,16.5,8.1c3.1,6.4,4,13.3,4.5,20.4
	c-1.2,1.1-2.1,2.5-2.6,4c-1.1-0.8-2.2-1.6-3.3-2.4c-23.1-18-49.1-26.7-78.6-23.4c-18.5,1.9-36,9.5-50.1,21.7
	c-18.3,15.8-29.1,36.2-35.7,59.1c-2.1,7.2-4,14.4-7.3,21.2c-1.5,3.2-2.6,6.5-3.5,9.9c-4.6,16.8-7.4,34.3-19.6,48
	c-4,4-7,8.8-10.2,13.4c-3.2,4.9-6.5,9.7-9.7,14.7c-6.3,10-12.7,20-21.5,28.2c-21,19.8-50.7,22.5-73.6,6.6
	c-12.5-8.7-21.2-20.7-27.8-34.2C37.1,201,32.6,186.1,26.6,171.9z M182.9,143.3c-4.4-0.1-8.9,0.2-13.3,0.8
	c-13.4,2.1-17.3,8.3-16.1,21.6c0.7,7.5,3.1,14.6,5.9,21.5c1,2.4,0.2,3-2.1,2.4c-4-1.1-8.1-1.5-12.2-1.2c-4.2,0.1-7.6,3.2-8.3,7.3
	c-1.3,7.2,0.3,14,3.1,20.7c0.4,1,1.7,2.1,0.8,3c-1.1,1.1-2.3-0.3-3.3-0.8c-5.7-3.2-8.1-1.7-8.1,4.8c0,0.9,0.1,1.7,0.1,2.6
	c0,0.7,0.7,1.5-0.3,2c-0.8,0.4-1.4-0.3-1.9-0.8c-2.4-2.4-4.7-4.8-7.2-7.1c-8.4-7.8-17-8.2-24.6-0.9c-8.2,7.9-12.3,17.9-14.7,28.8
	c-0.4,1.8,0.8,2.5,2.1,3c17,7.4,33.6,5.9,49.4-3.3c13.7-8,22.5-20.6,30.5-33.8c5.7-9.5,11.5-19.1,18.8-27.4
	c10.1-11.4,15.2-24.7,18.5-39.1c0.4-1.7,0.1-2.3-1.7-2.8C193.4,143,188.4,143.4,182.9,143.3z M185.6,128.2c0.1,4.6,7.5,12,12.6,13
	c2.3,0.5,3.3,0,4-2.3c1.9-5.8,3.5-11.7,6.2-17.2c1.2-2,2.1-4.2,2.9-6.4c1.5-5.8,2.8-11.6,4.7-17.3c2.2-6.5,4.9-12.8,8.1-18.9
	c1.5-2.9,0.5-3.5-2.2-3.2c-1.9,0.1-3.7,0.4-5.5,0.8c-10.6,2.7-20.7,6.5-28.6,14.6c-2.6,2.6-4.1,6-3.5,9.5c1.3,6.6,4.7,12.5,9.8,16.9
	c1.1,1,3.2,1.7,2.9,3.1c-0.4,1.7-2.5,0.7-3.9,0.9C188.9,122.2,185.5,125.2,185.6,128.2L185.6,128.2z M237.9,40.1
	c0.5,4,0.9,7.8,1.6,11.6c0.4,2,1.4,2.3,3,0.6c9.2-9.7,20.3-17.5,32.6-22.8c2.7-1.2,2.6-2.3,0.1-4.2c-5.1-3.8-11-6.5-17.3-7.8
	c-9.7-2.2-16.1,1.8-18.3,11.6C238.8,32.9,238.4,36.6,237.9,40.1L237.9,40.1z M341,25.1c-4.8-8.6-9.2-16.3-17.7-20.5
	c-3.2-1.6-6.9-1.5-10,0.1c-6.2,3-10.4,8.1-14.3,13.4c-0.8,1.1-2.3,2.6-1.2,4c1,1.2,2.8,0.5,4.2,0.4c7.6-0.7,15.2-0.8,22.8-0.1
	C329.9,22.7,335,24,341,25.1L341,25.1z M67,219.9c-3-0.2-6,0.3-8.9,1.3c-4.1,1.4-5,2.8-2.5,6.5c5,7.4,11.4,13.9,18.8,19
	c1.7,1.2,2.5,0.6,3-1c0.8-2.6,1.3-5.3,2.2-7.9C83.2,227.9,77.8,219.8,67,219.9L67,219.9z M382.9,40.5c-0.8-4.6-2-9.6-4.9-13.9
	c-1.9-3.1-5.5-4.6-9.1-3.8c-4.4,1-8.6,2.6-12.5,4.8c-2,1.1-1.8,2.4,0.2,3.1c7.9,3.3,15.5,7.4,22.6,12.2c0.9,0.6,1.7,1.8,3,1.1
	S382.6,42,382.9,40.5L382.9,40.5z M227.2,54.1c-1.6-0.1-3.2-0.1-4.8,0c-5.7,0.6-8.4,5.2-6,10.5c0.8,1.7,1.7,3.3,2.8,4.8
	c1.8,2.9,5.6,3.8,8.6,2c0.7-0.4,1.3-1,1.7-1.6c2.7-3.7,5.2-7.5,8-11.2c1.9-2.5,0.9-3.3-1.7-3.8C232.9,54.2,230,54,227.2,54.1z
	 M50.9,191.5c0.2,0.1,0.4,0.2,0.5,0.3c0,0,0.2-0.2,0.2-0.2c-0.1-0.2-0.2-0.4-0.3-0.5L50.9,191.5z"/>
<path class="st2" d="M384.7,52.1c0.5-1.5,1.4-2.9,2.6-4l1.5,1.3l1.1,0.9c11.7,9.3,20.7,20.8,28.6,33.3c0.5,0.7,0.9,1.5,1.3,2.3
	c2.7,5.5,6.4,10.4,11,14.4c8.6,7.4,9.4,17.7,8.7,28.3c-0.3,4.5-0.8,9-1.2,13.4c-0.2,3.3-1.2,6.1-4.9,7c-6,1.6-9.3,5.6-11.9,11.4
	c-5.3,12-15.2,19.9-26.3,26.3c-14.1,8.1-29.6,13.5-45.7,16c-0.8,0.1-1.7,0.3-2.5,0.5c0,1.5,1.2,1.6,1.9,2.2
	c19.2,14.3,34.7,31.5,44.1,53.8c3,7.2,4.3,14.6,1.7,22.2c-4.2-1.9-6.9,1.1-9.9,3.1c-3.1-0.7-6.2-1.3-8.4-4.5c3.7-0.3,7.1,1.2,10.4,0
	c3.1-1.2,2.9-3.8,2.8-6.3c-0.1-3-2.4-1.3-3.7-1.4c-3.4-0.3-6.9,0.5-10.7-0.6c3.3-2.6,7-3.1,10.1-4.9c2-1.2,2.4-2.5,1.5-4.6
	c-2.4-5.6-5.4-11-8.8-16.1c-8.6-12.6-19.4-23.1-30.9-33c-2.2-1.9-4.3-4.4-8.1-5.3c0.8,2.9,1.5,5.4,2.3,7.8
	c5.8,19.3,8.8,38.9,5.6,59.1c-0.3,2,0.5,4.4-1.6,5.9c-0.7-2.8,1.4-5.6,0.4-8.7c-1.5,0.6-1.6,1.9-1.8,3c-2.3,9.3-4.3,18.6-8.9,27.1
	c-0.4,0.7-1.3,1.6-0.1,2.2c0.9,0.4,1.1-0.7,1.6-1.2c1.7-1.6,2-3.9,3.1-5.9c1.6-3,2.7-3.1,5-0.2c-2.4-1.1-3.4-0.2-4.2,2.2
	c-1.2,3.4-2.3,6.8-5.1,9.3c-2-1.3-3.6-1.2-4.6,1.3c-0.3,1.2-1.3,2.1-2.6,2.2l-0.2-0.2l0.9-2.1l0,0c1.4-1.5,2.4-3.2,3.2-5.2l0,0
	c0.7-0.5,1.1-1.3,1.1-2.1l0,0c0.8-0.6,1.2-1.5,1.1-2.5l0,0c1.2-2.3,2.7-4.5,3.3-7.1v-0.3c0.3-0.5,0.6-1.1,0.9-1.6
	c4.5-13.7,6.1-28.3,4.7-42.7c-1.1-12.5-3.3-24.9-8.1-36.6l-0.2-1c-0.1-1.1-0.5-2.2-1.1-3.2l-0.2,0.1l0.2-0.1c-1.6-7-1.6-7-8.4-6.9
	c-14.7,0.3-29.5-1.7-43.6-5.8c-1.3-0.4-3.4-0.6-2.8-2.7s2.5-1.1,3.8-0.8c23.1,6.8,46.6,7.1,70.1,2.6c18.3-3.5,35.5-10.1,50.2-22
	c6.9-5.6,12.5-12.4,15.6-21c-0.5-0.1-0.8-0.2-1-0.2c-3.6,1.1-7.1,2.2-10.7,3.3c-31.3,9.3-63,15.6-95.9,13.7c-2.4-0.1-2.6,1.1-3,2.7
	c-3.9,14.6-18.9,19.1-30.2,9.2c-4.6-4.1-7.6-9.2-10.1-14.7c-1.8-4-3.2-8.2-5.8-11.7c-1.1-1.5-2-1.8-3,0.1c-0.7,1.2-1.5,2.7-3.2,1.8
	c-1.9-1-0.5-2.7-0.1-4c0.3-0.8,0.8-1.5,1.3-2.2c3.6-2.6,7.4-4.6,12-4.2c1.1,0.1,2.5-0.1,2.6,1.4c0.1,1.8-1.5,1.6-2.6,2
	c-1.7,0.5-4.5-0.7-4.8,1.5c-0.3,2,2.5,2.8,4.1,3.9c0.5,0.4,1.1,0.6,1.7,0.9c12.6,6.9,26.4,9,40.4,9.8c41,2.3,79.7-8,117.9-21
	c1.4-0.3,2.4-1.4,2.6-2.8c1.3-7.8,2.3-15.6,1.7-23.5c-0.5-5.9-2.6-11.3-7.7-14.3c-3.5-2.1-6.2-5.3-7.8-9.1c-0.8-1.6-1.6-3.1-2.5-4.6
	c-7.5-13.1-17-25-28-35.4l-0.8-0.9v0.1L385,52L384.7,52.1z M268.1,157.5c1.2,4.1,3,7,4.7,10.1c2.5,4.6,5.5,8.9,10.1,11.8
	c8.9,5.5,20.2,0.5,21.7-9.6c0.1-0.8,0.6-1.9-0.6-2.2c-0.9-0.2-2-0.5-2.6,0.7c-0.3,0.5-0.5,1.1-0.8,1.7c-3.4,5.7-9.8,5.7-13.1,0
	c-0.8-1.3-1.4-2.7-1.8-4.1c-0.2-1.2-1.2-2.2-2.5-2.3C277.8,162.2,272.8,160.2,268.1,157.5z M288.4,165.3c0.1,1.6,0.8,3.1,1.8,4.3
	c2.4,3.2,6.2,3,8.2-0.4c0.8-1.3,1-2.5-1-2.5C294.5,166.7,291.7,165.5,288.4,165.3L288.4,165.3z M333.8,306.3c0-0.1,0-0.2-0.1-0.2
	s-0.1,0-0.2,0s0,0.2,0.1,0.2S333.7,306.2,333.8,306.3L333.8,306.3z"/>
<path class="st3" d="M22.1,153.9c-7.7-5.9-13.3-4.2-16.7,5.1c-3.7,10.1-4.2,20.8-4,31.4c0.5,23.7,5.9,47.1,15.7,68.8
	c0.5,1.1,0.9,2.3,1.4,3.5c-1.9-0.8-2.5-2.7-3.4-4.3c-0.7-1.2-1-2.5-2.8-2.5c-1.1,0-1.5-0.8-1.2-1.8c1.2-3.5-0.1-6.4-1.6-9.6
	c-2.5-5.2-3.1-11.1-4.6-16.7c-1.9-8.2-3.3-16.5-4.1-24.9c-1.1-10.1-1.1-20.3-0.1-30.4c0.5-6.9,2.7-13.6,6.5-19.4
	c2.5-3.8,8.4-5.6,12.2-3.8C20.4,149.6,24.7,150.5,22.1,153.9z"/>
<path class="st3" d="M164.1,368.9c-4.6-1.2-6.7-4.8-8.4-8.7c-0.5-1.1-0.3-2.4-1.6-3.1c0.2-2.9-1.1-4.2-4.1-4.6
	c-5.2-0.6-10.3-1.4-15.4-2.3c-3.8-0.6-7.4-1.6-11-2.9c-6.5-2.7-13.6-3.5-20-6.6c-3.9-2-8.4-3.2-12.5-4.8c-4-1.5-7.8-3.7-11.7-5.5
	c-1-0.5-1-1.7-0.9-2.7c14.7,8,30.4,13.8,46.4,18.5c8.3,2.5,16.8,4.2,25.5,5c3,0.2,4.7,1.2,5.3,4.3
	C156.8,360.9,160.3,365,164.1,368.9z"/>
<path class="st0" d="M37.7,161.7c2.9,4.3,1.7,8.7,0,13.1c-1.4-0.5-1.2-2.2-2.2-3l0.7-3c1.2-1.1,0.8-2.5,0.7-3.9
	C37,163.8,36.1,162.5,37.7,161.7z"/>
<path class="st3" d="M63.4,318l13.6,9c-2.8,0.5-5.3,0.3-7.1-2.5c-0.9-1.5-2.5-2.2-4.1-3C64.3,320.9,63.4,319.5,63.4,318z"/>
<path class="st3" d="M26.5,159c-1.4-0.9-2.5-2.1-3.1-3.6c3.3,0.3,6.6,0.3,9.1,2.9l-0.9,0.3l-1.2-0.1C29.1,158.3,27.8,158.4,26.5,159
	z"/>
<path class="st3" d="M22.2,270c2.3,3.8,4.5,7.5,6.8,11.3C23.6,279.4,22.9,274.6,22.2,270z"/>
<path class="st1" d="M31.6,158.6l0.9-0.3l1.5,0.8c0.2,1.2,1,1.5,2.1,1.2c0.7,0.2,1.2,0.8,1.5,1.5c-1.6,0.8-0.7,2.1-0.7,3.3
	c0,1.3,0.5,2.8-0.7,3.9c-0.2-3.3-0.3-6.6-4.5-7.5C31.8,160.5,31.7,159.5,31.6,158.6z"/>
<path class="st1" d="M35.6,171.9c1,0.8,0.7,2.5,2.2,3c-0.1,2.1-1.8,3.8-1.6,6c-1.7-0.4-1.2-1.8-1.3-3l0.1-0.2l-0.1,0.2l-1.5-2.3
	C35.4,175.1,35,173.2,35.6,171.9z"/>
<path class="st1" d="M40.1,190.7c-1.4,1.2-3.2,0-2.9-0.6c1-2.6-1.5-4.7-0.7-7.2C38.9,184.9,38.2,188.4,40.1,190.7z"/>
<path class="st3" d="M28.9,281.2l5.3,7.6C30.8,288.2,28.8,285.4,28.9,281.2z"/>
<path class="st3" d="M34.8,289.7l4.7,5.9C34,296.7,35.8,292.1,34.8,289.7z"/>
<path class="st3" d="M19.2,264.1l3,5.9C19.6,268.9,16.9,267.7,19.2,264.1z"/>
<path class="st3" d="M41.8,298.4l4.4,4.7C43.5,302.7,41.7,301.5,41.8,298.4z"/>
<path class="st3" d="M47.6,304.4l4.7,4.5C49.4,308.8,47.8,307.4,47.6,304.4z"/>
<path class="st3" d="M56.7,312.7l3.8,3C58.2,316,56.8,315.1,56.7,312.7z"/>
<path class="st3" d="M60.4,315.7l3.1,2.3C61.7,318.2,60.4,317.8,60.4,315.7z"/>
<path class="st0" d="M36.2,160.3c-1.1,0.4-1.9,0.1-2.1-1.2C34.9,159.2,35.7,159.6,36.2,160.3z"/>
<path class="st3" d="M40.1,296.3l1.8,2.1C40.5,298.3,40.1,297.5,40.1,296.3z"/>
<path class="st3" d="M53.9,310.3l1.6,1.3C54.1,312.1,53.7,311.6,53.9,310.3z"/>
<path class="st3" d="M55.4,311.7l1.3,1.1C56,312.8,55.4,312.6,55.4,311.7z"/>
<path class="st3" d="M76.9,326.9l1.6,0.9C77.7,327.8,77.1,327.7,76.9,326.9z"/>
<path class="st1" d="M36.4,182.4c-0.1-0.2-0.2-0.4-0.2-0.5c0,0,0.2-0.1,0.3-0.2L36.4,182.4z"/>
<path class="st3" d="M53,309.6l0.9,0.8C53.4,310.4,53,310,53,309.6z"/>
<path class="st3" d="M52.2,308.8l0.9,0.8L52.2,308.8z"/>
<path class="st1" d="M389.9,50.3l-1.1-0.9L389.9,50.3z"/>
<path class="st4" d="M386.5,53.6c11,10.4,20.5,22.3,28,35.4c0.9,1.5,1.8,3,2.5,4.6c1.5,3.8,4.3,7,7.8,9.1c5.1,3,7.2,8.5,7.7,14.3
	c0.7,7.9-0.3,15.7-1.7,23.5c-0.2,1.4-1.2,2.5-2.6,2.8c-38.2,13-76.9,23.3-117.9,21c-14-0.8-27.8-2.9-40.4-9.8
	c-0.5-0.3-1.1-0.5-1.7-0.9c-1.6-1.1-4.4-2-4.1-3.9c0.3-2.2,3.1-1,4.8-1.5c1.2-0.3,2.8-0.2,2.6-2c-0.1-1.6-1.6-1.3-2.6-1.4
	c-4.7-0.5-8.4,1.5-12,4.2c-7.2,1.3-10.7,4.2-11.1,9.5c-0.3,3.2,2.2,5.5,2.6,8.4c1.1,7.1,4.7,12.8,9.2,18c3.8,4.5,5.8,9.5,5.2,15.4
	c-5.2-0.5-10.4-1-15.6-1.4c-1.4-0.1-3.4-0.6-3.5,1.6s1.9,1.8,3.3,1.9c3.5,0.2,7,0.4,10.4,0.8c12.2,1.7,23.1,6,32.1,14.7
	c2,1.9,2,2.9-0.4,4.4c-2.6,1.5-4.7,3.8-6.1,6.5c3.5-1.2,7.1-2,10.7-2.4c3.7-0.2,4.3,2.7,4.9,5.1c0.7,2.7-2.1,2.3-3.5,2.6
	c-2.7,0.6-5.4,0.8-9.1,1.4c4.1,2.3,7.6,2.5,10.9,3.5c1.2,0.4,2.6,0.3,2.8,2c0.2,1.4-0.3,2.8-1.4,3.7c-1.4,1.3-3.3,1.8-5.2,1.5
	c-3.1-0.3-6.2-0.7-9.8-1.2c2.3,2.7,3,3.2,5.9,4.6c3.7,1.7,3.9,2.1,0.3,4.5c-9,5.9-18.7,9.9-29.5,10.8c-4.9-0.5-9.9,0.4-14.9,0
	c-11.2-1-20.5-5.3-28-13.8c-1.2-1.4-2.2-3-4.1-4c-0.1,0.5-0.3,0.8-0.2,1c0.1,0.4,0.2,0.7,0.4,1c5.8,10.4,15.4,18.3,26.9,21.8
	c3.9,1.3,8,2.4,12.3,0.8l6.7,0.6c0,8.7,0.2,17.4-0.2,26c-0.1,2.2,0.4,4.8-1,6.9l-1.6-2.4c-0.9-1.3-1.5-3.4-3.6-2.1s-0.5,2.8,0.3,4.1
	c4.8,7.7,7.3,16.2,8.4,25.2c0.1,1.2,0.1,2.5,0.2,3.7c0,2,0,4-0.1,6.1c0,0.7-0.1,1.5-0.1,2.2c-0.8,5-2.4,9.8-4.6,14.3
	c-0.1,0.1-0.2,0.2-0.1,0.3c0,0,0,0,0,0c-1.1,0.9-2.2,1.7-2.3,3.3v-0.1c-1.6,0.6-2.9,1.6-3.7,3.1h0.1c-0.5,0-1,0.3-1.2,0.8l-0.2-0.1
	c-1.7,0.4-2.4-0.2-2.4-2c0-1.7,0.5-3.5-1-5.2c-0.8,0.8-1.2,1.8-1.2,2.9c-2.1,2.6-4.1,5.3-7.5,6.5c-1.5,0.6-2.4,0.4-2.3-1.5
	c0-2.1,0.3-4.2-1.1-6c-0.3,0.1-0.7,0.1-0.8,0.2c-3.1,6.8-8.2,9.5-15.8,9.3c-12.5-0.3-25-0.2-37.2-3.2c-2.4-0.6-4.8-1.4-7.1-2.3
	c-7.8-2.9-11.6-8.7-12.2-16.8c-0.4-4.1-0.2-8.3,0.4-12.3c0.2-1.1,0.6-2.5-0.8-2.9s-2.2,0.8-2.5,2.1c-0.6,2-1,4.1-1.3,6.2
	c-0.2,2.5-1.1,3.2-3.5,2.8c-33.3-5.5-64.9-15.4-91.7-37.1c-18-14.5-30.9-32.9-40-54C11,226,5.4,200.8,7.2,174.1
	c0.2-4.6,1.3-9.1,3.2-13.2c1.9,1.5,2.7,3.7,4,5.4c2.2,2.8,3.1,2.7,4.6-0.6c0.7-1.6,1.2-3.3,1.7-4.9l1.3,0.7v-0.1l0.8,1.5l0,0
	c0.1,1.1,0.7,2.2,1.5,3c0.2,0.5,0.3,1,0.5,1.5c0.5,1.4,0.8,2.8,1.8,3.9c0,0.2,0,0.3,0.1,0.5c6,14.2,10.5,29.1,17.3,43
	c6.6,13.5,15.3,25.5,27.8,34.2c23,15.9,52.6,13.1,73.6-6.6c8.8-8.2,15.2-18.2,21.5-28.2c3.1-4.9,6.4-9.8,9.7-14.7
	c0.7,0.6,0.3,1.3,0.4,2c0.5,8.5,6.1,11.4,11.5,10.6c6.9-1,11.3-8,10.7-16.4c-0.4-5.8-5.3-9.6-12.3-9.7c12.2-13.7,15-31.2,19.6-48
	c0.9-3.4,2.1-6.7,3.5-9.9c3.3-6.8,5.2-14,7.3-21.2c6.6-22.9,17.4-43.3,35.7-59.1c14-12.2,31.5-19.7,50-21.7
	c29.5-3.4,55.4,5.3,78.6,23.4c1.1,0.8,2.2,1.6,3.3,2.4l0.2-0.1l0.8,0.8v-0.1L386.5,53.6z M298.1,101.7c-0.1-8.1-6.7-14.6-14.8-14.6
	c-8.1,0.1-14.6,6.7-14.6,14.8c0.1,8.1,6.7,14.6,14.8,14.6c0,0,0,0,0.1,0C291.9,116.5,298.1,110.2,298.1,101.7z M205.1,319.6
	c-3.1,0-5.2,1.8-5.3,4.6c0,3.1,2.3,5.8,5.1,5.9c2.9,0.1,5.2-2.2,5.3-5.1c0,0,0-0.1,0-0.1C210.2,322.1,207.9,319.7,205.1,319.6z
	 M381.1,134c1,0,2.1,0,2.6-1c0.6-1.2-0.2-2.2-1.1-2.9c-2.4-1.9-5-3.3-7.9-4.1c-1.1-0.3-2.3-0.3-3.1,0.7c-0.9,1.3,0,2.4,0.8,3.3
	C374.7,132.3,377.8,133.8,381.1,134L381.1,134z M413.5,118.8c-0.1-1.5-0.5-3.5-2.7-2c-3.3,2.1-5.6,5.5-6.2,9.3
	c-0.3,0.9,0.1,1.8,0.9,2.3c0.8,0.4,1.8,0.2,2.4-0.4C410.9,125.8,412.9,122.5,413.5,118.8L413.5,118.8z M325.1,59.2
	c-0.3-2.7-1.7-4.3-4.6-4.4s-4.7,1.8-4.5,4.7s1.8,4.3,4.6,4.2C323.5,63.8,324.9,62,325.1,59.2z M193.8,224.1c0.2,2.6,1.3,4.7,4.2,4.6
	s4.1-1.9,4.1-4.7c0.1-3-1.4-4.3-4.3-4.2S193.7,221.4,193.8,224.1z M322.6,48.5c-0.1-1.1-1-1.9-2.1-1.8c-0.1,0-0.2,0-0.3,0
	c-1.3,0.2-2.5,0.9-2.3,2.3c0.1,1.2,1.1,2,2.3,1.9c0,0,0,0,0.1,0C321.6,50.8,322.6,49.8,322.6,48.5L322.6,48.5z"/>
<path class="st5" d="M335.2,308.6c2.8-2.5,3.9-6,5.1-9.3c0.8-2.4,1.9-3.3,4.2-2.2l0,0c0.6,0.6,1.4,0.9,2.2,0.8
	c3.7,3.2,7.8,5.8,11.4,9.1c11.9,10.9,12.4,37.2,3.6,48c-1.8,2.3-3.8,4.3-6.6,5.3l-0.2-0.2c-0.2-2,0.7-4.2-0.7-6.2
	c-5.4,7.4-5.5,7.5-9.4,8.6c-1-2,0.6-4.5-1.2-6.3c-0.3,0.1-0.7,0.2-0.7,0.3c-2.3,7.1-7.8,7.8-14.3,7.6c-9.6-0.3-19.2-0.5-28.4-3.9
	c-4.8-1.8-9-4.3-10.8-9.5c-0.9-2.5-0.7-3.9,2.3-5c11.5-4.5,22.1-10.5,30.3-19.9l0.8-0.8l0.7-0.7l1.5-1.6l0,0
	c0.6-0.3,0.9-0.9,0.8-1.5v0c1.5-0.3,2.7-1.5,3-3l0,0c2.8-2.4,5-5.6,6.1-9.1C335,309,335.1,308.8,335.2,308.6z M340.8,336.5
	c0.1-2.1-0.6-3.8-2.9-4c-1.9-0.1-2.8,1.2-3.1,3c-0.3,2.1,0.7,3.3,2.8,3.5C339.5,339.3,340.8,338.6,340.8,336.5z"/>
<path class="st6" d="M345.3,280.7c2.1-1.5,1.3-3.9,1.6-5.9c3.2-20.2,0.2-39.7-5.6-59.1c-0.7-2.5-1.4-4.9-2.3-7.8
	c3.8,0.9,5.8,3.4,8.1,5.3c11.5,9.9,22.3,20.4,30.9,33c3.4,5.1,6.3,10.5,8.8,16.1c0.9,2.1,0.5,3.4-1.5,4.6c-3.1,1.8-6.8,2.3-10.1,4.9
	c3.9,1,7.3,0.3,10.7,0.6c1.3,0.1,3.6-1.6,3.7,1.4c0.1,2.5,0.3,5.1-2.8,6.3c-3.3,1.3-6.7-0.2-10.4,0c2.2,3.3,5.3,3.8,8.4,4.5
	c0.1,0.4,0.1,0.8,0.2,1.2c-0.2,0.5-0.5,1.1-0.8,1.7c-5.7,4.5-10.4,0.8-15.5-2.6c0,0.7,0,1.4,0.2,2.1c1.9,4.3,1.9,4.3-2.7,4.3
	c-3,0-6,0-9,0L349,289l-1.4-0.1c-0.6-0.8-1.5-0.7-2.3-0.8h0.1l-0.8-3.7l0,0c0.9-0.9,1.6-1.8,0.7-3
	C345.3,281.2,345.3,280.9,345.3,280.7z"/>
<path class="st7" d="M49.1,192.8c8.8,1.5,10.7,4,8.9,13.5c-0.8,4.2-2.6,8.1-5.1,11.5c-0.9,1.2-2.2,2.6-3.4,0.3
	c-3.8-7.2-6.3-14.9-9.1-22.4c-0.2-0.7,0-1.5,0.4-2.1l1.5-0.1l1.5-0.7L49.1,192.8z"/>
<path class="st8" d="M268.8,345.9c-0.2-0.1-0.4-0.1-0.7-0.1c-0.6-4,0.8-8.3-1.6-12.1c0-0.5-0.1-0.9-0.1-1.4c0.2-1.1,1-2.4-0.6-3.1
	c0-0.2,0-0.4-0.2-0.6c0.7-2.1-0.4-3.8-1.3-5.5c0.1-0.2,0.1-0.3,0-0.5c0.3-3.8-2.3-6.7-2.9-10.2c1.7-0.3,2.8,0.3,2.7,2.1
	c-0.1,2.8,1,3.4,3.2,1.7c0.6,3.3-0.3,6.5,0.7,9.6c2.4,7.5,9.9,7.6,15.2,10.9c1,0.6,2.3,0.7,3.1,1.8c0.6,0.8,1.1,1.5,2,0.3
	c3-4.4,7.3-3.3,11.5-2.9c-1.3,0.7-2.6,1.5-4,2.1C287.3,341.9,278.1,344.2,268.8,345.9z"/>
<path class="st2" d="M261.5,312.4c0.5,3.5,3.1,6.5,2.9,10.2c-1.6-0.9-1.1-3.5-3.4-4.5c0.2,4.3,1.5,8.1,1.1,12l-0.1,0.1
	c-0.2,0-0.4-0.1-0.5-0.1c-1-9-3.5-17.5-8.4-25.2c-0.8-1.3-2.4-2.8-0.3-4.1s2.7,0.8,3.6,2.1l1.6,2.4
	C258.6,308,260.2,310.2,261.5,312.4L261.5,312.4z"/>
<path class="st7" d="M35.6,171.9c-0.6,1.4-0.2,3.3-2.2,3.7c-0.9-4.2-3.5-7.5-5.3-11.2c0-1.6,0.4-2.9,2.3-3h1.5
	c4.2,0.9,4.3,4.2,4.5,7.5L35.6,171.9z"/>
<path class="st2" d="M268.8,345.9c9.3-1.7,18.5-4,27.2-7.9c1.4-0.6,2.6-1.4,4-2.1l0,0l1.4-0.8l0,0l1.8-0.6l0.1,0.2
	c-0.2,1.5-1.5,2.1-2.5,2.6c-9.1,4.4-18.9,7.6-28.9,9.3C270.9,346.9,269.7,346.7,268.8,345.9z"/>
<path class="st8" d="M322.5,318.8l-0.6,0.6l-1.1,1.3l0.2,0.2l-0.2-0.2l-0.7,0.7l-0.2,0.1l-0.2,0.2l-1.6,1.5l-0.8,0.8l-0.7,0.6
	l-4,3.4l-0.2,0.1l-1.5,0.7c-0.1-1-0.2-2-0.2-3c-0.1-2.5,0.1-4.8,3.7-3c0.9,0.6,2.1,0.4,2.7-0.5c0.2-0.4,0.4-0.8,0.3-1.2
	c0-4.5,2.8-3.9,5.6-3.5L322.5,318.8z"/>
<path class="st9" d="M16.4,163.7c-1.7-0.9-2.1-2.7-3-4.1c-0.5-0.8-1.5-1.6-0.4-2.6c0.9-0.7,2-1,3.1-0.6c1,0.3,1.8,0.9,1.8,2.1
	C17.8,160.3,17.6,162.1,16.4,163.7z"/>
<path class="st2" d="M256.8,356.4c2.2-4.5,3.7-9.3,4.5-14.3c0.2,0,0.4-0.1,0.6-0.1C261.7,347.3,261.5,352.6,256.8,356.4z"/>
<path class="st2" d="M334.9,309c-1.1,3.6-3.2,6.7-6.1,9.1C329,313.9,332.5,311.9,334.9,309z"/>
<path class="st2" d="M244.8,359.4c0-1.1,0.5-2.1,1.2-2.9c1.5,1.7,1,3.5,1,5.2c0,1.9,0.6,2.5,2.4,2c-0.5,0.9-1,1.8-2.2,1.4
	c-1-0.4-0.8-1.4-0.8-2.2C246.3,361.4,246.3,360.1,244.8,359.4z"/>
<path class="st1" d="M30.3,161.4c-1.9,0.2-2.3,1.4-2.3,3c-2.7-1.2-1-3.6-1.5-5.4c1.2-0.6,2.6-0.7,3.9-0.5
	C30.4,159.5,30.4,160.4,30.3,161.4z"/>
<path class="st2" d="M261.5,339.9c0-2,0-4,0.1-6.1c0.7-1.1,0.3-2.4,0.3-3.6l0.1-0.1c1.2,3.7,1.2,7.6-0.1,11.3
	C261.8,340.9,261.7,340.4,261.5,339.9z"/>
<path class="st2" d="M266.6,333.7c2.3,3.8,1,8.1,1.6,12.1C266.8,341.9,266.3,337.8,266.6,333.7z"/>
<path class="st2" d="M349.1,288.9l8.2,2.2C354.2,291.5,351.2,291.8,349.1,288.9z"/>
<path class="st2" d="M264.4,323.2c0.9,1.7,2,3.4,1.3,5.5C263.1,327.3,264.7,325,264.4,323.2z"/>
<path class="st2" d="M312.7,328.1l4-3.4C316.2,326.8,315.4,328.6,312.7,328.1z"/>
<path class="st2" d="M309.3,330.9c-0.5,2.5-2.5,2.8-4.5,3l-0.2-0.2c1.3-1.3,2.9-2.3,4.5-3L309.3,330.9z"/>
<path class="st10" d="M340.8,374.5c-2.9,1.1-6.1,1-9-0.1L340.8,374.5z"/>
<path class="st2" d="M250.6,363c0.8-1.4,2.1-2.5,3.7-3.1C254.1,362.2,252.5,362.7,250.6,363z"/>
<path class="st10" d="M354.3,372.1c-1.3,2.2-3.2,2-5.3,1.4C350.5,372.3,352.5,372.4,354.3,372.1z"/>
<path class="st2" d="M322.5,318.8l0.5-1.1v-0.1l2.2-2.2l0.5,0.5C325.7,317.6,324.3,318.9,322.5,318.8
	C322.6,318.8,322.5,318.8,322.5,318.8z"/>
<path class="st2" d="M328.9,318.2c-0.3,1.5-1.5,2.7-3,3c-0.1-1.6,1.2-2.9,2.8-3C328.7,318.2,328.8,318.2,328.9,318.2z"/>
<path class="st10" d="M313.1,374.2c-1.9,1.5-3.6,0-5.3-0.5C309.6,374,311.5,372.7,313.1,374.2z"/>
<path class="st2" d="M344.6,284.4l0.8,3.7C344.3,287,342.1,286.2,344.6,284.4z"/>
<path class="st2" d="M328.1,312.1c0.1,1.6-0.8,3.1-2.2,3.7l-0.5-0.5c0.9-1.1,1.7-2.3,2.6-3.4L328.1,312.1z"/>
<path class="st2" d="M311.1,328.8l1.5-0.7c0.2,2.4-1.5,2.6-3.2,2.7l-0.2-0.2L311.1,328.8L311.1,328.8z"/>
<path class="st2" d="M254.4,360c0.2-1.5,1.2-2.4,2.3-3.3C256.9,358.2,255.9,359.7,254.4,360z"/>
<path class="st1" d="M24.2,165.9c-0.8-0.8-1.3-1.9-1.5-3C24.4,163.4,25.5,164,24.2,165.9z"/>
<path class="st1" d="M26.5,171.4c-1-1.1-1.3-2.6-1.8-3.9C26.9,168,26.5,169.8,26.5,171.4z"/>
<path class="st10" d="M307.2,373.6c-1.4-0.2-3.2,0.9-3.9-1.4C304.7,372.4,306.2,372.2,307.2,373.6z"/>
<path class="st2" d="M345.3,281.4c0.9,1.3,0.2,2.2-0.7,3C344.6,283.4,344.3,282.2,345.3,281.4z"/>
<path class="st2" d="M265.9,329.2c1.6,0.8,0.9,2,0.6,3.1C265.5,331.5,265.8,330.3,265.9,329.2z"/>
<path class="st3" d="M166.9,370.6c-1.3,0-2.6-0.1-3-1.8C165,369.1,166.1,369.7,166.9,370.6z"/>
<path class="st10" d="M321.3,374.4c-1.3,1.1-3.1,1.2-4.5,0.1C318.3,374.1,319.8,374.1,321.3,374.4z"/>
<path class="st1" d="M43.8,192.9l-1.5,0.7C42.5,192.7,42.8,191.8,43.8,192.9z"/>
<path class="st10" d="M344.5,373.6c-0.2,1-0.5,1.8-1.6,0.6C343.3,373.5,343.9,373.5,344.5,373.6z"/>
<path class="st1" d="M22,161.5l-1.3-0.7l0.8-0.5L22,161.5z"/>
<path class="st2" d="M345.3,288c0.8,0.1,1.8,0,2.3,0.8C346.8,288.9,345.9,288.9,345.3,288z"/>
<path class="st2" d="M346.8,297.9c-0.8,0.1-1.6-0.2-2.2-0.8C345.4,297.1,346.3,297.1,346.8,297.9z"/>
<path class="st11" d="M261.5,339.9c0.2,0.5,0.3,1,0.5,1.5c0,0.2,0,0.4,0,0.6c-0.2,0.1-0.4,0.1-0.6,0.1
	C261.4,341.4,261.4,340.6,261.5,339.9z"/>
<path class="st2" d="M325.1,322.6l-1.5,1.6c-0.1-0.8,0.5-1.5,1.3-1.6C324.9,322.6,325,322.6,325.1,322.6z"/>
<path class="st2" d="M320.8,320.7l1.1-1.3C321.9,320.1,321.8,320.8,320.8,320.7z"/>
<path class="st1" d="M22.7,163l-0.8-1.5C22.5,161.7,22.8,162.3,22.7,163z"/>
<path class="st2" d="M304.8,333.9l-1.5,0.8l-0.1-0.2l1.4-0.8L304.8,333.9z"/>
<path class="st2" d="M325.9,321.2c0.1,0.6-0.2,1.2-0.8,1.5C325,322,325.3,321.5,325.9,321.2z"/>
<path class="st2" d="M384.2,287.4c0.3-0.6,0.5-1.1,0.8-1.7C385.1,286.4,384.8,287,384.2,287.4z"/>
<path class="st2" d="M317.4,324.1l0.8-0.8C318.8,324.5,317.7,323.9,317.4,324.1z"/>
<path class="st2" d="M319.8,321.8l0.2-0.2l0.2,0.3L319.8,321.8z"/>
<path class="st2" d="M249.6,363.8c0.2-0.5,0.6-0.8,1.2-0.8L249.6,363.8z"/>
<path class="st2" d="M322.9,324.9l-0.8,0.8L322.9,324.9z"/>
<path class="st2" d="M320.2,321.4l0.7-0.7C320.9,321.3,320.7,321.5,320.2,321.4z"/>
<path class="st5" d="M355.1,360.2c-0.1,0.1-0.2,0.2-0.3,0.2c0,0-0.2-0.1-0.2-0.2c0.1-0.1,0.1-0.2,0.2-0.3L355.1,360.2z"/>
<path class="st12" d="M182.9,143.3c5.5,0.1,10.5-0.3,15.3,1.3c1.8,0.6,2.1,1.1,1.7,2.8c-3.3,14.4-8.4,27.7-18.5,39.1
	c-7.3,8.3-13,17.9-18.8,27.4c-8,13.2-16.8,25.8-30.5,33.8c-15.8,9.2-32.3,10.7-49.4,3.3c-1.3-0.6-2.5-1.2-2.1-3
	c2.4-10.9,6.5-21,14.7-28.8c7.6-7.3,16.1-6.9,24.6,0.9c2.5,2.3,4.8,4.7,7.2,7.1c0.5,0.5,1.1,1.2,1.9,0.8c1-0.5,0.3-1.3,0.3-2
	c-0.1-0.9-0.1-1.8-0.1-2.6c0-6.5,2.5-7.9,8.1-4.8c1,0.6,2.2,2,3.3,0.8c0.9-0.9-0.4-2-0.8-3c-2.7-6.7-4.4-13.5-3.1-20.7
	c0.6-4.1,4.1-7.2,8.3-7.3c4.1-0.3,8.2,0.1,12.2,1.2c2.3,0.7,3.1,0,2.1-2.4c-2.8-7-5.2-14-5.9-21.5c-1.2-13.2,2.7-19.5,16.1-21.5
	C174,143.5,178.5,143.2,182.9,143.3z"/>
<path class="st11" d="M185.6,128.2c-0.1-3,3.4-6,7.5-6.6c1.4-0.2,3.5,0.8,3.9-0.9c0.3-1.4-1.8-2.1-2.9-3.1
	c-5.1-4.3-8.5-10.3-9.8-16.8c-0.7-3.5,0.9-6.9,3.5-9.5c7.9-8.1,18-11.9,28.6-14.6c1.8-0.4,3.7-0.7,5.5-0.8c2.8-0.3,3.7,0.4,2.2,3.2
	c-3.2,6.1-5.9,12.4-8.1,18.9c-2,5.7-3.3,11.5-4.7,17.3c-0.7,2.2-1.7,4.4-2.9,6.4c-2.7,5.5-4.3,11.4-6.2,17.2c-0.7,2.3-1.7,2.8-4,2.3
	C193.1,140.2,185.7,132.8,185.6,128.2z"/>
<path class="st11" d="M237.9,40.1c0.5-3.5,0.8-7.3,1.7-10.9c2.2-9.8,8.6-13.8,18.3-11.6c6.3,1.3,12.2,3.9,17.3,7.7
	c2.5,1.9,2.6,3-0.1,4.2c-12.3,5.3-23.3,13.1-32.5,22.8c-1.6,1.7-2.6,1.3-3-0.6C238.8,48,238.4,44.1,237.9,40.1z"/>
<path class="st11" d="M341,25.1c-6-1.1-11.1-2.4-16.2-2.8c-7.6-0.7-15.2-0.7-22.8,0.1c-1.5,0.2-3.3,0.9-4.2-0.4
	c-1.1-1.4,0.4-2.9,1.2-4c4-5.3,8.1-10.4,14.3-13.4c3.1-1.7,6.8-1.7,10-0.1C331.8,8.8,336.2,16.5,341,25.1z"/>
<path class="st7" d="M67,219.8c10.8,0,16.2,8,12.6,17.8c-0.9,2.6-1.5,5.3-2.2,7.9c-0.5,1.6-1.2,2.2-3,1c-7.4-5.1-13.8-11.5-18.8-19
	c-2.5-3.6-1.6-5,2.5-6.5C60.9,220.1,63.9,219.7,67,219.8z"/>
<path class="st13" d="M186.7,186.1c7,0.1,11.9,3.9,12.3,9.7c0.6,8.5-3.8,15.4-10.7,16.4c-5.4,0.8-11-2.2-11.5-10.6
	c0-0.7,0.4-1.5-0.4-2C179.7,194.9,182.7,190.1,186.7,186.1z"/>
<path class="st11" d="M382.9,40.5c-0.2,1.5,0.4,2.8-0.7,3.5s-2.1-0.5-3-1.1c-7.1-4.8-14.7-8.9-22.6-12.2c-2-0.8-2.1-2.1-0.2-3.1
	c3.9-2.3,8.1-3.9,12.5-4.8c3.5-0.8,7.2,0.7,9.1,3.8C380.9,30.9,382.1,35.9,382.9,40.5z"/>
<path class="st11" d="M227.2,54.1c2.9-0.1,5.7,0.1,8.5,0.7c2.6,0.5,3.6,1.2,1.7,3.8c-2.8,3.6-5.3,7.5-8,11.2c-2,2.8-5.9,3.4-8.7,1.3
	c-0.6-0.5-1.2-1.1-1.6-1.7c-1.1-1.5-2-3.2-2.8-4.8c-2.3-5.3,0.3-9.8,6-10.5C223.9,54.1,225.6,54.1,227.2,54.1z"/>
<path class="st0" d="M50.9,191.5l0.4-0.4c0.1,0.2,0.2,0.3,0.3,0.5c0,0-0.2,0.2-0.2,0.2C51.3,191.7,51.1,191.6,50.9,191.5z"/>
<path class="st10" d="M59.2,217.3c-0.4,0.3-0.8,0.5-1.2,0.1c-0.1-0.1,0.1-0.6,0.1-0.9L59.2,217.3z"/>
<path class="st14" d="M323.1,317.6c-2.8-0.4-5.6-1-5.6,3.5c0.1,1.1-0.7,2-1.8,2.1c-0.4,0-0.9-0.1-1.2-0.3c-3.6-1.8-3.8,0.5-3.7,3
	c0,1,0.2,2,0.2,3l0,0c-1.3-0.2-2.7-0.3-4-0.6c-0.8-0.2-1.9-0.3-1.9,0.4c0.3,3.1-3.2,3.9-3.8,6.4l0,0c-0.8-0.3-1.4-0.3-1.4,0.8l0,0
	c-4.2-0.4-8.5-1.5-11.5,2.9c-0.8,1.2-1.4,0.5-2-0.3c-0.8-1.1-2.2-1.2-3.1-1.8c-5.3-3.3-12.8-3.5-15.2-10.9c-1-3.2-0.1-6.3-0.7-9.6
	c-2.2,1.7-3.2,1-3.2-1.7c0-1.7-1-2.4-2.7-2.1l0,0c0-3.6,2.9-7.2-0.1-10.9c-0.4-0.4-0.2-1.5,0-2.2c0.7-2.2,0.3-4.3,0.1-6.6
	c-0.3-3.4-1.4-7.3,0.9-10.2c2.5-3.2,6.2-5.3,8.5-8.8c0.4-0.6,1.9-0.4,2.8-0.6c3.8-1,7.5-2.9,11.6-2.5c0.9,0.1,1.2-1.2,1.8-1.7
	c2.4-1.9,4.6-4.6,7.3-5.2s5.2-2.3,8.2-1.9c1.1,0.2,1.6-0.8,2-1.8c2.9-7.3,1.1-14.6,0.6-22c-0.3-4.1-3.9-8-0.8-12.4
	c0.3-0.5-0.5-1-1.1-1.2s-1.6-0.6-1-1c2.6-1.6,0.2-2.5-0.3-3.8c-0.6-1.6-0.6-3.5,0.2-5.1c2-4,6.3-7,5-12.3c0-0.2,0.3-0.7,0.6-0.9
	c1-0.7,7.6,0.9,8.3,1.9c2.9,4.4,4.5,4.4,7.1,0c0.8-1.4,1.9-1.3,3.1-1.4s2.2,0.5,2.3,1.9c0.2,3,1.8,4.2,4.7,4l-0.2,0.1l0.2-0.1
	c-1.1,1.6-0.7,2.6,1.1,3.2c0.1,0.3,0.1,0.7,0.2,1c-0.3,2.6,0.6,4.9,1.4,7.2c0.9,2.8,1.7,5.8,1.3,8.7c-0.3,1.8-2.5,3.6,1.1,4.4
	c0.7,0.1,0.6,1.2,0,1.5c-2.1,0.9-0.9,2.4-1,3.8c-0.3,3.3,1.2,6.3,1.6,9.5c0.8,6.4-2.3,12.4-1.6,18.8c0,0.4-0.1,0.7-0.3,1
	c-4,2.5-2.2,6.4-2.6,9.8c-0.3,1.5,0.5,3.1,2,3.6c3.8,1,2.4,3.5,2,5.7s-2.1,4.3-1.5,6.8v0.3c-1.6-0.6-1.8-1.7-1.3-3.3
	c0.4-1.2,0.8-2.8-0.7-3.7c-2-1.2-4.7-0.6-5.9,1.4c-0.4,0.6-0.6,1.3-0.6,2c0,1.2,0,2.5,0,3.7c-0.1,2.5,0.6,4.4,3.5,4.6
	c1.5,0.1,1.7,1.1,1.8,2.3l0,0c-1.7,0.2-1.7,1.2-1.1,2.5l0,0c-1.4,0.2-1.2,1.2-1.1,2.1l0,0c-4.8-0.5-2.7,3.1-3.2,5.2l0,0
	c-1.3,0-2.7,0-4,0c-0.8,0-1.6,0.2-1.3,1.2c0.6,2.2-0.9,4.3-0.4,6.5L323.1,317.6z"/>
<path class="st8" d="M333.6,207.7c-2.9,0.3-4.6-0.9-4.7-4c-0.1-1.4-1-1.9-2.3-1.9s-2.3,0-3.1,1.4c-2.6,4.4-4.2,4.3-7.1,0
	c-0.7-1-7.4-2.6-8.3-1.9c-0.3,0.2-0.6,0.6-0.6,0.9c1.2,5.3-3,8.3-5,12.3c-0.8,1.6-0.9,3.4-0.2,5.1c0.4,1.2,2.9,2.2,0.3,3.8
	c-0.7,0.4,0.4,0.9,1,1s1.5,0.7,1.1,1.2c-3.1,4.3,0.6,8.3,0.8,12.4c0.5,7.4,2.3,14.7-0.6,22c-0.4,1-1,2-2,1.8c-3-0.4-5.6,1.2-8.2,1.9
	s-5,3.3-7.3,5.2c-0.7,0.5-0.9,1.8-1.8,1.7c-4.2-0.5-7.8,1.4-11.6,2.5c-1,0.3-2.4,0-2.8,0.6c-2.3,3.5-6,5.6-8.5,8.8
	c-2.3,2.9-1.2,6.8-0.9,10.2c0.2,2.2,0.6,4.4-0.1,6.6c-0.2,0.7-0.4,1.8,0,2.2c3,3.6,0.2,7.3,0.1,10.9c-1.3-2.3-2.9-4.4-3.7-7
	c1.4-2.1,0.9-4.7,1-6.9c0.3-8.7,0.2-17.4,0.2-26c11.4-1.7,22.3-4.9,32.3-11c12.7-7.8,16.4-20.6,9.7-33.9
	c-4.3-8.4-10.9-14.7-18.9-19.6c-6-3.7-12.7-5.5-19.4-7.6c0.6-5.9-1.4-10.9-5.2-15.4c-4.5-5.3-8-11-9.2-18c-0.5-2.8-2.9-5.2-2.6-8.4
	c0.4-5.2,3.9-8.2,11.1-9.5c-0.6,0.7-1,1.4-1.3,2.2c-0.3,1.3-1.7,3,0.1,4c1.6,0.9,2.5-0.5,3.2-1.8c1-1.8,1.8-1.5,3-0.1
	c2.6,3.6,4,7.8,5.8,11.7c2.5,5.5,5.5,10.6,10.1,14.7c11.2,9.9,26.3,5.4,30.2-9.2c0.4-1.6,0.6-2.8,3-2.7c32.9,1.9,64.6-4.4,95.9-13.7
	c3.6-1.1,7.2-2.2,10.7-3.3c0.2-0.1,0.5,0.1,1,0.2c-3.2,8.6-8.7,15.3-15.6,21c-14.7,11.9-31.9,18.5-50.2,22
	c-23.5,4.5-46.9,4.2-70.1-2.6c-1.3-0.4-3.2-1.3-3.8,0.8s1.5,2.3,2.8,2.7c14.2,4.1,28.9,6,43.6,5.8C332,200.7,332,200.7,333.6,207.7z
	"/>
<path class="st15" d="M268.1,157.5c4.7,2.7,9.8,4.7,15,6c1.3,0.2,2.3,1.1,2.5,2.3c0.4,1.4,1,2.8,1.8,4.1c3.3,5.7,9.8,5.7,13.1,0
	c0.3-0.5,0.5-1.1,0.8-1.7c0.6-1.1,1.7-0.9,2.6-0.7c1.3,0.3,0.8,1.4,0.6,2.2c-1.5,10.1-12.8,15.1-21.7,9.6
	c-4.6-2.8-7.6-7.1-10.1-11.8C271.1,164.6,269.2,161.6,268.1,157.5z"/>
<path class="st8" d="M337.4,292.8c-0.7-2.5,1.1-4.5,1.5-6.8s1.8-4.7-2-5.7c-1.5-0.5-2.3-2.1-2-3.6c0.4-3.4-1.4-7.3,2.6-9.8
	c0.3-0.3,0.4-0.6,0.3-1c-0.8-6.4,2.3-12.4,1.6-18.8c-0.4-3.2-1.9-6.1-1.6-9.5c0.1-1.4-1.1-2.9,1-3.8c0.6-0.3,0.7-1.4,0-1.5
	c-3.6-0.8-1.3-2.7-1.1-4.4c0.4-3-0.4-5.9-1.3-8.7c-0.8-2.4-1.7-4.7-1.4-7.2c4.8,11.7,7,24.1,8.1,36.6c1.4,14.4-0.2,28.9-4.7,42.7
	C338,291.8,337.7,292.3,337.4,292.8z"/>
<path class="st8" d="M334.1,300.2c-0.1-1.2-0.3-2.2-1.8-2.3c-3-0.2-3.6-2.1-3.5-4.6c0-1.2,0-2.5,0-3.7c0.1-2.4,2.1-4.2,4.5-4.1
	c0.7,0,1.4,0.3,2,0.6c1.4,0.9,1.1,2.5,0.7,3.7c-0.5,1.6-0.2,2.6,1.3,3.3C336.8,295.7,335.2,297.8,334.1,300.2z"/>
<path class="st3" d="M288.4,165.3c3.3,0.2,6.1,1.5,9,1.4c2,0,1.8,1.2,1,2.5c-2,3.4-5.8,3.6-8.2,0.4
	C289.2,168.4,288.5,166.9,288.4,165.3z"/>
<path class="st8" d="M323.1,317.6c-0.5-2.2,1-4.3,0.4-6.5c-0.3-1,0.6-1.2,1.3-1.2c1.3,0,2.7,0,4,0l-0.9,2.1
	c-0.9,1.2-1.7,2.3-2.6,3.4L323.1,317.6z"/>
<path class="st8" d="M328.8,309.9c0.5-2.1-1.6-5.7,3.2-5.2C331.2,306.6,330.2,308.4,328.8,309.9z"/>
<path class="st8" d="M334.7,210.9c-1.8-0.5-2.2-1.6-1.1-3.2C334.2,208.6,334.6,209.7,334.7,210.9z"/>
<path class="st8" d="M333,302.7c-0.6-1.2-0.5-2.2,1.1-2.5C334.2,301.1,333.8,302.1,333,302.7z"/>
<path class="st8" d="M331.9,304.8c0-0.9-0.3-1.9,1.1-2.1C333,303.5,332.6,304.3,331.9,304.8z"/>
<path class="st0" d="M333.8,306.2c-0.1,0-0.2,0.1-0.2,0s0-0.2-0.1-0.2s0.2-0.1,0.2,0S333.8,306.1,333.8,306.2z"/>
<path class="st1" d="M385.7,52.8l-0.8-0.8L385.7,52.8z"/>
<path class="st1" d="M386.5,53.6l-0.8-0.9L386.5,53.6z"/>
<path class="st0" d="M30.3,161.4c0.1-0.9,0.1-1.9,0.2-2.8l1.2,0.1c0.1,0.9,0.1,1.8,0.2,2.8L30.3,161.4z"/>
<path class="st0" d="M34.8,177.9l0.1-0.2L34.8,177.9z"/>
<path class="st2" d="M262.8,200.4c6.7,2,13.4,3.9,19.4,7.6c8,4.9,14.6,11.2,18.9,19.6c6.8,13.2,3,26.1-9.7,33.9
	c-10,6.1-20.9,9.3-32.3,11l-6.7-0.6c-4-0.7-8-0.9-11.7-3.2c1.3-1.2,2.6-0.6,3.7-0.8c5.2-1,10.7-0.1,15.6-2.8
	c10.8-1,20.6-4.9,29.5-10.8c3.6-2.4,3.4-2.8-0.3-4.5c-2.9-1.3-3.6-1.9-5.9-4.6c3.5,0.4,6.7,0.8,9.8,1.2c1.9,0.3,3.8-0.2,5.2-1.4
	c1.1-0.9,1.6-2.3,1.4-3.7c-0.2-1.7-1.6-1.6-2.8-2c-3.3-1-6.8-1.3-10.9-3.5c3.7-0.5,6.5-0.8,9.1-1.4c1.4-0.3,4.2,0.1,3.5-2.6
	c-0.6-2.4-1.3-5.3-4.9-5.1c-3.7,0.4-7.2,1.2-10.7,2.4c1.4-2.7,3.5-4.9,6.1-6.5c2.3-1.5,2.3-2.5,0.4-4.4c-9-8.7-19.9-13.1-32.1-14.7
	c-3.5-0.5-7-0.6-10.4-0.8c-1.5-0.1-3.4,0.3-3.3-1.9s2.2-1.7,3.5-1.6C252.4,199.4,257.5,199.9,262.8,200.4z"/>
<path class="st0" d="M298.1,101.7c0,8.5-6.2,14.8-14.5,14.8c-8.1,0.1-14.7-6.4-14.8-14.5s6.4-14.7,14.5-14.8
	C291.3,87.1,298,93.6,298.1,101.7C298.1,101.7,298.1,101.7,298.1,101.7z M279.1,99.3c2.9-0.2,5-1.5,5.1-4.4s-1.8-4.3-4.4-4.7
	c-2.3-0.3-5.2,2.5-5.1,4.9C274.9,97.8,276.5,99.1,279.1,99.3z"/>
<path class="st6" d="M259.9,265c-4.9,2.7-10.4,1.8-15.6,2.8c-1.2,0.2-2.5-0.4-3.7,0.8c3.7,2.3,7.8,2.6,11.7,3.2
	c-4.2,1.6-8.3,0.5-12.3-0.8c-11.4-3.6-21.1-11.4-26.9-21.8c-0.2-0.3-0.3-0.6-0.4-1c0-0.2,0.1-0.5,0.2-1c1.8,0.9,2.9,2.6,4.1,4
	c7.5,8.4,16.8,12.8,28,13.8C250.1,265.4,255,264.6,259.9,265z"/>
<path class="st13" d="M205.1,319.6c2.9,0.1,5.2,2.5,5.1,5.3c0,2.9-2.4,5.2-5.2,5.1c0,0-0.1,0-0.1,0c-2.8-0.1-5.1-2.8-5.1-5.9
	C199.8,321.4,202,319.6,205.1,319.6z"/>
<path class="st2" d="M381.1,134c-3.3-0.2-6.4-1.6-8.7-4c-0.8-0.9-1.7-2-0.8-3.3c0.7-1.1,1.9-1.1,3.1-0.7c2.9,0.9,5.6,2.3,7.9,4.1
	c0.9,0.7,1.7,1.7,1.1,2.9C383.3,134,382.1,134,381.1,134z"/>
<path class="st1" d="M413.5,118.8c-0.6,3.7-2.6,7-5.7,9.2c-0.6,0.6-1.6,0.8-2.4,0.4c-0.8-0.5-1.1-1.4-0.9-2.3
	c0.7-3.9,2.9-7.2,6.2-9.3C413.1,115.3,413.4,117.3,413.5,118.8z"/>
<path class="st13" d="M325.1,59.2c-0.2,2.8-1.5,4.5-4.4,4.6s-4.4-1.4-4.6-4.2s1.5-4.8,4.5-4.7C323.4,54.9,324.8,56.6,325.1,59.2z"/>
<path class="st13" d="M193.8,224.1c-0.1-2.8,1.1-4.2,4-4.2s4.4,1.2,4.3,4.2c-0.1,2.8-1.3,4.7-4.1,4.7S193.9,226.7,193.8,224.1z"/>
<path class="st13" d="M322.6,48.5c-0.1,1.3-1.1,2.3-2.4,2.5c-1.2,0.1-2.2-0.7-2.3-1.8c0,0,0,0,0-0.1c-0.1-1.4,1-2.2,2.3-2.3
	c1-0.2,2.1,0.4,2.3,1.4C322.6,48.3,322.6,48.4,322.6,48.5z"/>
<path class="st11" d="M261.9,330.2c0,1.2,0.3,2.4-0.3,3.6c-0.1-1.2-0.1-2.5-0.2-3.7C261.6,330.2,261.7,330.2,261.9,330.2z"/>
<path class="st6" d="M340.8,336.5c0,2.1-1.3,2.8-3.2,2.6c-2.1-0.2-3-1.4-2.8-3.5c0.2-1.8,1.2-3.1,3.1-3
	C340.2,332.7,340.9,334.4,340.8,336.5z"/>
<path class="st8" d="M301.4,335c0.6-2.5,4-3.3,3.8-6.4c-0.1-0.7,1.1-0.6,1.9-0.4c1.3,0.3,2.7,0.4,4,0.6l-1.8,1.9
	c-1.7,0.7-3.2,1.7-4.5,3l-1.4,0.8L301.4,335z"/>
<path class="st8" d="M299.9,335.8c0-1.1,0.6-1.1,1.4-0.8L299.9,335.8z"/>
<path class="st3" d="M279.1,99.3c-2.5-0.2-4.2-1.5-4.3-4.2c-0.1-2.4,2.7-5.2,5.1-4.9c2.6,0.4,4.5,1.9,4.4,4.7S281.9,99.1,279.1,99.3
	z"/>
</svg>
