<?xml version="1.0" encoding="utf-8"?>
<!-- Generator: Adobe Illustrator 27.9.0, SVG Export Plug-In . SVG Version: 6.00 Build 0)  -->
<svg version="1.1" id="Layer_1" xmlns="http://www.w3.org/2000/svg" xmlns:xlink="http://www.w3.org/1999/xlink" x="0px" y="0px"
	 viewBox="0 0 587.4 504.1" style="enable-background:new 0 0 587.4 504.1;" xml:space="preserve">
<style type="text/css">
	.st0{fill:#403640;}
	.st1{fill:#40383E;}
	.st2{fill:#E1E7CE;}
	.st3{fill:#D1CEC1;}
	.st4{fill:#E2EBCE;}
	.st5{fill:#92CB41;}
	.st6{fill:#93CC45;stroke:#92CB41;stroke-miterlimit:10;}
	.st7{fill:#CAD2DA;}
	.st8{fill:#94CD47;}
	.st9{fill:#93CC45;}
	.st10{fill:#EBF480;}
	.st11{fill:#6B9746;}
	.st12{fill:#467C44;}
	.st13{fill:#447743;}
	.st14{fill:#CD8B5D;}
	.st15{fill:#3B6043;}
	.st16{fill:#EFF1F2;}
	.st17{fill:#FFFFFF;}
</style>
<path class="st0" d="M8.2,140L8.2,140c2.2,0.1,2.2-1.4,2.2-3c0.9-1.6,2.2-3,3.7-4c2.7,0.5,5.7,0.4,7.4,3.3l-1.1,0.9
	c-0.8,0-1.6,0.5-1.9,1.2l0.1-0.1l-1.1,1.1l0.1-0.1c-0.4,0.4-0.7,0.7-1,1.1h0.1c-1.7,0.3-2.3,1.4-2,3v-0.1c-0.9,0.5-1.3,1.4-1.1,2.4
	c0.1,0.2,0,0.4-0.1,0.5c-2.4,1.3-2.6,3.8-3,6c-3.1,17.5,0.5,34.1,6.3,50.5c0.5,1.3,1.1,2.4,2.7,2.5l0,0l1.4,0.9
	c0.2-0.1,0.5,0,0.6,0.2l1.4,0.8h0.3l0.3,0.2L25,208h0.4c0.6,0.8,1.5,1.2,2.5,1h0.3l0.3,0.1c3.7,3.4,8.7,3.7,13.2,4.9
	c11.5,3.2,23.3,4.6,35.9,6.6c-3.4,2.2-6.2,1.4-9,1c-10.9-1.8-21.8-3.6-32.8-5.3l-0.3,0.1c-0.8-1.3-2-1.3-3.3-1l0.1,0.1
	c-0.7-1.7-2.2-1.3-3.5-1.2l-1.3-0.2c-1.1-1.5-2.2-2.9-3.9-0.6v1.2c0.3,0.5,0.6,1,1,1.5l0,0c-0.1,0.9,0.4,1.7,1.2,1.9l-0.1-0.1l1,1.2
	l-0.1-0.1l0.9,1.1l0,0c0,0.9,0.6,1.6,1.5,1.8c14.5,18.1,35,23.8,56.7,26.8c25.1,3.5,50.5,4.1,75.7,1.9c5.6-0.5,11.2-1,16.7-1.6
	s10.9-1.4,16.6-2.2c-0.3,2.5-2.7,2.5-3.2,4c-15.4,6-31.4,8.7-47.8,9.3c-2.7,0.1-3.6,1.3-4.3,3.7c-2.6,9.3-4.4,18.8-6.2,28.3
	c-0.8,4.1,0.1,5.7,4.2,6.9c20.6,6,41.1,12.5,61.6,18.8c6.7,2,13.4,4,20,6.3c2.4,0.8,4,0.8,5.5-1.4c1.1-1.7,2.5-3.1,4.2-4.2
	c7.4-4.6,12.2-11.6,17-18.5c5.5-4.7,10.7-9.8,18.6-10.9c-2.3,2-4.7,4-7,6.2s-4.8,4.2-6.7,6.7c-6.1,8.3-12.6,16.1-20.4,22.9
	s-10.1,17-14.1,26.1c-1.5,3.4,0.6,7.2,2.1,10.5c3.4,8,8.8,15,15.7,20.3c12,9.1,25.7,13.6,40.6,15.2c9.8,1.1,18-1.7,24.6-9.1
	c0.9-0.2,1.5-1,1.5-1.9l0.8-1.1l1.1-1.1h-0.1c0.8-0.3,1.2-1.2,1.1-2v0l1-1.1h-0.1c2.1-0.5,2.3-2.1,2.3-3.9c0.7-0.5,1-1.3,0.9-2.1
	v0.1l1-1.3c0.4-1.2,0.8-2.5,1.2-3.7l1-1.9c0.3-0.7,0.6-1.4,1-2c2.4-0.2,4.3,1.3,6.4,2.1l-0.5,3.9v-0.2c-0.3,0-0.6,0.1-0.8,0.2
	c-0.6,0.2-1,0.8-0.8,1.4c0.1,0.2,0.2,0.4,0.3,0.5c0.2,0.6,0.4,1.2,0.5,1.9c3.8,4.2,9.5,4.5,14.3,6.3c6.9,2.6,13.6,6,21.1,6.7
	l3.5,0.4l-0.1,0c0.5,0.7,1.3,1,2.1,0.9l0.3,0.2h0.3l2.4,0.9l0.2,0.1l0.3-0.1l2.4,1h0c0.8,0.8,1.9,1.1,3,1h-0.1
	c0.5,0.6,1.3,1,2.1,0.9l0.4,0.2h0.4l2.3,0.9l0.3,0.2h0.4l2.3,0.9l0.3,0.2h0.4l2.5,0.9l0.2,0.1l0.2-0.1c0.6,0.7,1.5,1.1,2.5,1h-0.1
	c0.5,0.7,1.3,1,2.1,1l0,0l2,1l0,0l2,1.1h-0.1l1.1,1l0,0l1,1l0,0l1,1.1l-0.1-0.1c-0.1,1.2,0.3,2.4,1,3.3c-0.1,0.2-0.1,0.5,0.1,0.6
	c0.9,7.6-0.5,14.9-3,22l0,0l-1,2c-0.2,0.1-0.2,0.3-0.1,0.5l0,0l-0.9,1.5v0.1l-1.1,1.9l0,0c-1,0.7-1.8,1.7-2.1,2.9h0.1l-1,1l0,0l-1,1
	h0.1l-1.4,1c-0.2-0.1-0.4,0-0.5,0.2c0,0,0,0,0,0l0,0c-2.1,1.3-1.1,2.6-0.1,4h-0.1c0.9,9.6,1,9.8,10.9,8.1
	c40.7-7.3,79.3-19.8,112.7-45.3c22.1-16.8,39.8-38.6,51.6-63.6l1-2.2l0,0c0.7-0.4,1.1-1.2,1-2l0,0c0.7-0.4,1.1-1.2,1-2l0,0
	c0.3-0.7,0.6-1.4,1-2l0,0c1.2-1.4,1.9-3.2,2.1-5l0,0c0.7-0.5,1.1-1.2,1-2.1l0,0c0.8-0.8,1.2-1.9,1.1-3v0.1c0.7-0.5,1.1-1.3,1-2.1
	l0,0c1.6-2.4,2.6-5.2,3-8.1c0.1-0.1,0.2-0.2,0.1-0.4c0,0,0,0,0,0c0,0,0-0.1-0.1-0.1c2.1-4.2,3.5-8.7,4.1-13.4h-0.1
	c3.8-8.1,4.8-16.8,6.4-25.5c3-17.3,4-34.7,1.4-52.1c-0.3-1.9-0.3-4-1.8-5.6h0.1c0-2.1-0.6-4.1-1.8-5.7c-1.5,1.7-2.7,3.6-3.5,5.7v0.1
	c-1.1,0.6-1.8,1.7-2,2.9v0.1l-1,1l0,0c-2.4,0.8-3.7-0.4-4.5-2.5c-0.9-2.3-1.7-4.6-2.9-7.6c-2.9,4.8-5.3,9.2-6.6,14.2l0,0l-1,2l0,0
	c-0.8,0.8-1.2,1.9-1.1,3l0,0c-0.7,0.4-1.1,1.2-1,2.1v-0.1c-0.8,0.8-1.3,1.9-1.1,3l0,0c-0.7,0.4-1.1,1.2-1,2.1l0,0
	c-0.9,0.7-1.3,1.9-1.1,3v-0.1c-0.7,0.4-1.1,1.3-1,2.1h0c-1.3,1.7-2,3.8-2.1,6v-0.1c-0.7,0.4-1.1,1.3-1,2.1v-0.1
	c-0.8,0.8-1.2,1.9-1.1,3l0,0c-0.9,0.7-1.3,1.9-1.1,3l0,0c-0.7,0.4-1.1,1.3-1,2.1v0c-1.1,1.5-1.8,3.2-2,5l0,0c-0.8,0.8-1.2,1.9-1.1,3
	l0,0c-0.7,0.5-1,1.3-1,2.1c-0.2,0.1-0.2,0.3-0.1,0.4c0,0,0,0,0,0l0,0c-0.7,0.6-1,1.5-1,2.5v-0.1c-0.3,0.7-0.7,1.4-1,2.1l0,0
	c-0.8,0.8-1.2,1.9-1.1,3v-0.1c-0.7,0.4-1.1,1.2-1,2.1l0,0c-0.4,0.7-0.8,1.4-1.1,2c-6.2,12.3-13.2,24.1-22.6,34.4
	c-11.7,12.8-25.6,21.9-42.5,26.4c-1.2,0.1-2.4,0-3.2,1.1l-0.3-0.2c-1.3,0-2.6-0.1-3.3,1.2c-0.3,0-0.6,0.1-0.9,0.2l-6-0.2l-7,0.4
	l-11-0.1l-5-0.3c-1.3-0.5-3,0.7-4.1-0.8c-0.1-0.5-0.4-0.7-0.9-0.4c-1.1,0-2.2,0.2-3-0.8c-0.2-0.6-0.8-0.9-1.4-0.7
	c-0.2,0.1-0.4,0.2-0.5,0.4c-0.8,0.2-1.6-0.1-2.1-0.7c-0.2-0.4-0.5-0.6-0.9-0.3c-0.8,0.1-1.6,0.1-2.1-0.7c-0.2-0.5-0.5-0.6-0.9-0.3
	c-18.2-6.1-33.2-17-45.6-31.4c-12.1-14-20.4-30.5-28.7-46.9c-4.4-8.7-9.1-17.3-13.8-25.8c-2-3.7-3.7-7.4-3.7-11.7
	c0.8-0.6,0.9-1.8,0.2-2.5c0,0,0,0,0,0c-0.1-0.1-0.3-0.3-0.4-0.4c0-1,0-2-0.1-3c-0.1-1.7,0.6-3.6-1-5.1c0-0.8-0.1-1.6-0.1-2.4
	c0.2-0.9-0.1-1.9-0.8-2.5l-0.2-2.5c0.1-1.3,0.3-2.6-0.9-3.5l-0.8-3c0.1-0.2,0.1-0.5,0.2-0.7c0-0.1-0.2-0.2-0.3-0.2
	c-0.1-0.8-0.1-1.6-0.2-2.4c0.2-1-0.2-1.9-0.9-2.6c-0.3-0.7-0.7-1.3-1-2c0.1-0.4,0.1-0.7,0.2-1c0.1-0.2,0.1-0.5,0.2-0.7
	c0-0.1-0.2-0.2-0.4-0.2c-0.2-0.1-0.2-0.4-0.1-0.6c0.2-0.9-0.1-1.8-0.8-2.4c-0.8-1.4-1.2-3-1.2-4.6c0.2-0.9-0.2-1.9-0.9-2.5
	c-0.2-0.1-0.2-0.4-0.1-0.5c0.2-0.9-0.2-1.9-0.9-2.5c-0.2-0.1-0.2-0.3-0.1-0.5c0,0,0,0,0,0l0,0c0.1-1.3,0.3-2.6-1.1-3.4l0.1,0.1
	l-0.8-1.2c-0.2-0.2-0.2-0.4-0.2-0.6c0.2-0.9-0.2-1.8-1-2.3l-1-2.6c0.2-0.9-0.2-1.9-1-2.4l0.1,0.1c0.1-0.9-0.3-1.7-1.1-2.1
	c-2.1-3-3.6-6.3-3.7-10.1c0.1-0.2,0.1-0.5,0.2-0.7c0-0.1-0.2-0.2-0.3-0.2l-0.8-3c0.1-0.2,0.1-0.5,0.1-0.7c0-0.1-0.2-0.2-0.4-0.2
	v-1.4l-0.9-1.6v-0.1c-0.1-0.2-0.1-0.3-0.2-0.5l-0.7-2.4c0.1-0.2,0.1-0.5,0.1-0.7c0-0.1-0.2-0.2-0.3-0.2l-0.1-1.4
	c-0.3-0.5-0.6-1-0.9-1.6c0-0.5-0.1-1-0.2-1.4c0.2-1-0.2-2-1.1-2.6l0.1-0.4c0.2-2.2,0-4.2-2-5.5l0.1,0.1c0.1-1.2,0.2-2.4-1.1-3v0.1
	c0.3-2.1-0.1-3.9-2.1-5l0,0c0.3-0.8-0.2-1.8-1-2.1l0.1,0.1l-0.8-1.2c-0.2-0.2-0.2-0.4-0.2-0.7c0.1-1.7-0.6-3.3-2-4.3
	c-1.7-2.4-3-5.1-4-7.8c0.1-0.9-0.4-1.8-1.2-2.1l-0.8-1.7c0.1-1-0.1-1.9-1.1-2.3l0.1,0.1l-1-1.1v0.1c0.2-0.9-0.3-1.7-1.1-2l0.1,0.1
	c-0.3-0.4-0.6-0.8-1-1.1v0.1c0.1-0.8-0.4-1.7-1.1-2l0.1,0.1l-1-1.1v0.1c0.1-0.9-0.4-1.7-1.2-2l0.1,0.1l-1-1.1v0.1
	c0.1-0.9-0.3-1.7-1.1-2h0.1l-1-1.1l0.1,0.1l-1-1.1l0,0c0.1-0.9-0.4-1.7-1.2-2l0.1,0.1l-1-1.1l0.1,0.1c-0.2-1-1-1.9-2-2.2l0.1,0.1
	l-1-1.1l0,0c0-0.8-0.5-1.6-1.2-1.9l0.1,0.1l-1-1.1l0.1,0.1l-1.1-1.1l0.1,0.1l-1.2-1.1l-5.8-5.7l-1.1-1.2l0.1,0.1l-1.4-1l-4-4.5
	l-1.1-1.1l0.1,0.1c-0.3-0.7-1.1-1.2-1.9-1.2l-1.1-0.8l-1.1-1l0.1,0.1c-0.3-0.8-1.1-1.2-1.9-1.2l0,0l-1.1-0.9l0.1,0.1l-1.1-1l0.1,0.1
	c-0.3-0.8-1.1-1.3-2-1.1h0.1c-0.4-0.8-1.2-1.2-2.1-1.1c-1.8-0.6-3.5-1.6-4.9-2.9c-0.4-0.7-1.2-1.2-2-1.1l0,0c-0.4-0.7-1.2-1.1-2-1
	l0,0c-0.4-0.7-1.2-1.1-2-1l0,0c-0.4-0.7-1.3-1.1-2.1-1h0.1c-0.4-0.7-1.3-1.1-2.1-1l0.1,0.1c-0.7-1.2-1.9-1.2-3-1.1l0,0
	c-1.7-3.8,1.4-2.8,3.2-3.1c0.3,0,0.6,0,0.8,0.1l2,1l0,0c0.5,0.7,1.2,1.1,2.1,1l2.9,1.1l1.1,0.9l1.9,1c0.4,0.7,1.2,1.1,2,1.1l0,0l1,1
	l0,0c0.4,0.7,1.3,1.1,2.1,1c0.3,0,0.6,0.1,0.9,0.1l1.1,0.9c1.3,0.1,2.4,0.8,2.9,1.9l1,1.1l0,0c0.4,0.7,1.2,1.1,2,1
	c1.9,1,3.8,2,5,3.9l1.1,1.1c3.1,1,4.9,3.6,6.9,5.9l1,1.1l0,0l1,1l0,0l1,1l0,0l1,1l0,0l1,1l0,0l1,1l0,0l1,1l0,0l1.1,1
	c0.3,0,0.6,0.1,0.9,0.1c1.2,1.7,1.2,4.3,3.9,4.9c3.4,4.7,6.9,9.3,10.1,14c4,5.9,8.8,6.9,14.9,3l1-1.2c0.1-1.6,1.4-2.6,2.1-3.8
	l0.9-1.1c0.4-1.3,0.7-2.6,1.1-3.9l0.9-1.2v-4.7l-0.9-1.2c-2.4-3.7-5.8-5.2-10.1-5.1c-6.6,0-13.3,0-19.9,1.2
	c-0.4-1.1-0.8-2.2-1.1-3.3l0.1-1.8c0.9-0.6,1-1.3,0.1-2c0.1-1.3,0.1-2.7,0.2-4c1.2-0.2,1.9-1.3,1.7-2.4v-0.2c-0.8-4.8,2-10-1.7-14.4
	c-0.1-0.7-0.1-1.4-0.2-2.1c1.9-3.6,0.4-6.4-2.1-9c-0.4-1-0.7-1.9-1.1-2.8l-1-1.2c-0.3-0.6-0.7-1.2-1-1.9l-1-1.1l0,0l-1-1l0,0l-1.1-1
	l-4-1.3l-0.8-0.7c-5.3-2.2-10.6,0.2-15.9,0.1l-1.2,0.9l-8.9,3.1c-0.8-0.1-1.7,0.3-2.1,1l0,0l-1,1l-10.1,7c-4.2-1.6-4.5,3.5-7.3,4.2
	c-0.2,0.1-0.4,0.1-0.5-0.1l0,0c-0.6-0.8-1.6-1.1-2.5-1c-0.1,0.1-0.2,0.2-0.4,0.1c0,0,0,0,0,0l-0.1-0.1c-0.6-0.8-1.6-1.2-2.6-1
	l-1.5-0.2v-1l0,0c3.6,0.1,4.3-1.6,3-4.6c4.8,2.1,8.5,0.7,12.5-2.5c7.7-5.9,16.7-9.8,26.3-11.5c14.2-2.7,24.1,3.3,28.1,17.2
	c2.8,9.4,2.7,19.1,1.5,28.7c-0.5,3.8,0.5,4.2,3.8,3.5c5.9-1.4,12-1.2,17.8,0.4c8,2.3,11.4,8.5,9.3,16.6c-1.1,4.4-3.7,8-6.2,12
	l6.8,2.2c1.1,1.1,2.1,2.6,4,1.1c10.5,2.7,20.2,7.9,28.3,15.1c11.1,9.9,12.6,31.1,3,42.6c-1.3,1.6-1.5,2.2,0,3.9
	c5.4,5.9,6.1,10.4,1.8,17c-2.5,3.9-1.3,4.8,2.3,6.3c9.8,4.1,19.6,8.3,26.7,16.7c-0.5,1.3-1.7,2.2-3.1,2.2c-1.3-0.7-2.3-1.7-3-3
	l-1.1-1c-1.5-0.2-2.9-0.9-3.9-2c-0.5-0.7-1.3-1.1-2.1-1l-3.9-1l-1.1-0.9l-1.9-0.1l-1.2-0.9l-4.8-0.3c-0.8-2.4-2.3-2.1-4-0.9l-3-0.2
	c-0.6-1.9-1.6-2.1-3-0.8h-10c-1-1.2-2-1.2-3,0c-1.9,0.2-2.1,1.5-2.1,3c-0.1,0.2-0.2,0.5-0.2,0.7c0,0.1,0.2,0.2,0.3,0.3
	c0,0.9,0.1,1.9,0.1,2.8l0.9,1.2c1.2,4.9,2.4,9.7,2.1,14.8l0.9,1.2c0.7,4.4,1.3,8.7,1.9,13.1c-0.9,0.7-0.7,1.4,0.1,2l4,7.9
	c-0.1,1,0.7,1.9,1.7,2h0.1c0.4,1.3,0.9,2.6,1.3,3.9l1,1.1c0.1,0.3,0.1,0.6,0.1,0.9c-0.1,0.8,0.3,1.7,1,2.1l0,0c0.3,0.4,0.6,0.7,1,1
	l5,8.2c0.2,2.1-0.7,4.6,2.1,5.7l0,0l1,1c0,0.3,0.1,0.6,0.1,0.9c0.3,0.4,0.6,0.8,0.9,1.1c0,0.3,0.1,0.6,0.1,0.9l1,1.1
	c0,0.3,0.1,0.6,0.1,0.9c0.3,0.4,0.6,0.8,0.9,1.1c0,0.3,0.1,0.6,0.1,0.8c0.3,0.4,0.6,0.8,1,1.1c1.9,2.3,3.2,5,4,7.9
	c-0.1,0.8,0.3,1.6,1,2.1l0,0l1,1c0.1,0.3,0.1,0.6,0.1,0.8l1,1.2l0,0c-0.1,0.8,0.4,1.6,1.1,2l0.9,1.9l1,1.1l1,1.9l1,1.1
	c0.4,0.6,0.7,1.3,1,1.9c-0.1,0.8,0.3,1.6,1,2l0,0l1.1,1c1.5,0.8,2.6,2.2,2.9,3.9l1,1.1c1.1,0.5,1.9,1.6,2,2.9c0.2,2.7,2.3,4.8,5,5.1
	l0,0l1,1l0,0l1,1l2,1.9c0.4,0.7,1.1,1.1,1.9,1.1c1.7,0.9,3.1,2.3,4.1,3.9l1,1l0,0c0.4,0.7,1.2,1.1,2,1.1l0,0l1,1l0,0l1,1l0,0
	c0.4,0.7,1.2,1.1,2,1l1,0.9c0.4,0.7,1.2,1.2,2,1.1l0,0l1,1l0,0c0.4,0.7,1.2,1.1,2,1l1,0.8c0.4,0.8,1.2,1.2,2.1,1.1l1.9,0.9
	c0.4,0.7,1.2,1.2,2.1,1.1l1.9,0.9c0.4,0.8,1.3,1.2,2.1,1c1.1-0.1,2.1,0.2,2.9,1c0.4,0.7,1.3,1.1,2.1,1c1.1-0.1,2.1,0.2,2.9,0.9
	c0.7,1.3,1.9,1.1,3.1,1.1h0.8c0.8,1.1,2,1,3.2,1h0.8c1,1.2,2,1.3,3,0.1h1.1c1.9-0.3,2-1.7,1.8-3.2c1.1-11.2,2.7-22.5,2.1-33.8
	c1.1-0.9,1.9-2.3,3.6-2c1.4,3.9-0.7,8.2,1.5,12c2-0.3,2-1.6,1.9-3.2l-0.1,0.1c0.3-0.4,0.5-0.9,0.8-1.3l-0.1,0.1
	c1.1-0.1,1.4-0.9,1.3-1.9l-0.1,0.1c0.4-0.5,0.7-1,1.1-1.5c2.9-2.6,4.5-6.5,8-8.5c5-1.8,9.6-5,15.3-4c5.4,1.4,7.5,6.2,10.5,10.8
	c5.6-19.5,19.6-18.4,35-14.5c-3.3-7.6-6.1-14.7-5.8-22.5s4.7-13.2,12.4-14.6c4.6-0.9,9.3-0.9,13.9-0.1c2.1,0.4,3.1-0.1,4-2.3
	c2.8-6.5,5.2-12.8,1-19.7c-1-1.6-1-3.8-1.2-5.8c-0.8-9.9,4-14.9,13.8-13.9c3.4,0.4,5.1-0.8,7-3.2c3.3-4.3,7.2-7.9,13.1-8l5,2.1
	l4.9,6c0.3,0.7,0.7,1.4,1,2.1c-0.1,0.3,0,0.6,0.2,0.8c6.6,20,6.1,40.4,4.3,61c-1.3,15.3-5.3,30-8.7,44.9l0.1-0.1
	c-3.1,8.2-6.3,16.4-9.4,24.6v0.2c-1,1.2-1.5,2.7-1.5,4.2v0.1c-1.2,1-1.9,2.4-2.1,4l0.1-0.1l-2.6,4.7l-0.1,0.2l-1.5,3.2v0l-1.1,2.1
	l0.1-0.1c-1.1,1.1-1.8,2.6-1.9,4.1V364l-1.4,1.6v0.1c-0.2,0.4-0.5,0.9-0.7,1.3v-0.1l-1.9,3.1l-1,1.7l-1.6,2.4
	c-0.3,0.1-0.4,0.4-0.4,0.7c-0.7,1.1-1.4,2.1-2.1,3.2v0l-2.2,3.1l-0.8,1.1l-2.2,3l-0.8,1.1l-2.2,2.9l-1.8,2.2l-2.3,2.8l-2.7,3.1
	l-5.4,5.9c-1.9,1.9-3.8,3.9-5.8,5.8l-5.8,5.3l-3.1,2.7l-4,3.2l-1,0.8l-3,2.2l0,0l-4.1,3l0,0l-2.3,1.5l-0.2,0.1l-2.8,1.9l-0.1,0.1
	l-3.6,2.5l0,0l-3.1,2l0,0l-7,4l0,0c-26.5,14-54.7,23.1-84.1,28.7c-1.4,0.4-2.9,0.6-4.4,0.7c-9.1-0.6-13.4,4.2-14.5,12.7l0.1-0.1
	l-1.1,2.1l0.1-0.1c-0.7,1-1.4,2-2.1,3.1l0.1-0.1c-0.5,0.6-0.9,1.3-1.3,1.9v-0.1l-4.5,4.2l-1.1,0.9l-3,2.1l0,0
	c-6.3,3.2-13,5.5-19.9,7.1l-2.1,0.3l-3.9,0.7c-20.3,2.3-40.8,2.6-61.2,1c-6.9-0.6-13.9-1.2-20.6-3c-12.3-3.2-20.8-10.7-25.6-22.4
	c-1.1-2.7-2.5-4-5.2-4.1c-0.8,0-1.7-0.2-2.5-0.4c-8.4-2.2-14.6-1.8-18.8,8.2c-3.7,8.9-13.3,11.9-22.3,14.4c-1.9,0.5-3.9,1-5.8,1.4
	c-2.7,0.5-5.6-0.1-8,1.6h-7.9l-4.1,0.1h-8c-3.6-0.4-7.3-0.4-10.9,0.1l-10.1-1.1l-1-0.1h-3.9c-1.5-1.6-3.3-1-5-0.8
	c-0.3-0.1-0.6-0.2-0.9-0.2c-1-1.5-2.7-1-4.1-1.5l-2-0.5l-7-3.1l-2.9-1.9l-2-1.3h0.2l-5.4-5.7l-2.7-4.1c-3.7-7.2-5.3-15-6.3-22.9
	c0-3.3,0-6.7,0.1-10c2.2-19.9,13.5-33.6,29.7-44c3.5-2.2,7.2-4.1,10.8-6.2c1-0.6,2.5-1,2.4-2.3c-0.1-1.8-2-1.3-3-1.9
	c-1.7-1.1-3.7-0.6-5.5-0.9c-8.3-1.3-16-5-24.1-6.8l-14.3-4.7l-4.4-1.5l-1.7-0.6c-7.1-1.9-13.5-5.6-19.9-9
	c-6.6-3.3-12.6-7.6-17.8-12.7c-8.8-9-15-19.7-19.7-31.5C11,306.8,6.5,289.2,6.8,270.6c0.1-7.1,4.1-9.7,10.9-7.6
	c26.1,7.9,52.2,15.9,78.4,23.8c1.6,0.5,3.2,1.6,5.2,0.2c7.7-5.5,16.3-6.3,25.2-4.2c1.8,0.4,2.8,0.3,3.1-1.8
	c0.8-4.4,1.9-8.8,2.7-13.2c0.7-3.4-0.6-4.7-4.2-4.6c-14.8,0.3-29.6-0.8-44.3-3.2C57,255.8,33,246.4,17.3,222.3
	c0.1-1.4,0.1-2.9-1.8-3.2c-1.9-2.3-3.4-5-4.3-7.9c1.8-2.2,0.8-2.9-1.5-2.9l-0.8-2.5c0.5-2.1,1.4-4.4-2-4.8c-3.4-8.7-4.5-17.7-4.5-27
	c1.7-5.5,1.7-11.5,0-17c-0.1-0.7-0.2-1.3-0.2-2l0.2-2l1.2-3C6.4,147.5,8.1,143.9,8.2,140z M339.3,123.3l-1-1l-1-1
	c0.1-0.8-0.4-1.6-1.1-2l0,0c-0.4-0.7-1.1-1.1-1.9-1.1l-2-1.9l-1.1-1c-2.5-0.9-4.8-2.3-6.9-4l-2-1l0,0l-1.1-0.9l-10.9-4.2l-1.1-0.9
	l-1.9-0.1l-1.1-0.9c-6.4-0.7-12.6-2.4-19-2.3c-0.6-0.5-1.3-0.6-1.5,0.2c-0.5,1.6,0.5,2.4,1.8,3c1.1,1,1.8,2.4,1.9,3.9l0.9,1.1
	c0.1,0.3,0.1,0.6,0.1,0.9c-0.1,1.5,0,2.9,1.9,3.1l1.1,2.9c-0.1,0.8,0.3,1.6,1,2.1c0,0.3,0,0.6,0,0.8l0.9,1.2l2,5.1
	c0.1,4.4,0.9,8.5,4,11.9c0,0.6,0.1,1.2,0.1,1.9c-0.3,1.9,0.4,3.8,1.9,5.1c1.6,11.1,8.1,20.4,11,31c-1.4,1.4-0.3,1.7,0.9,2
	c0.3,1,0.6,2,1,3c-0.1,0.2-0.2,0.5-0.2,0.7c0,0.1,0.2,0.2,0.3,0.3c0.3,1,0.6,2,1,3c-0.1,0.2-0.2,0.5-0.2,0.7c0,0.1,0.2,0.2,0.3,0.3
	l1,2.1l0.9,0.9h2.1c1.4,1.4,2.4,1.1,3-0.8l4-0.2c1.5,0,2.9-0.1,3-2l7-8l1-1.1c0-0.3,0-0.6,0.1-0.9l0.9-1.1
	c0.2-8.4-2.6-11.2-11.9-12.1V158c1.3-1.9,3-3.6,4.9-4.9l1-1.1l6-9.9c2.3-1.9,4.9-3.6,2-7l-0.1-6.8c-0.3-0.4-0.6-0.8-0.9-1.2
	c0-0.3,0-0.6,0-0.8l-0.9-1.1c-0.1-0.3-0.1-0.6-0.1-0.8l-1-1.2L339.3,123.3z M433.3,342.2c14.7,0.5,29.1-0.8,42.9-6.7
	c3.4-1.4,4.4-3.1,3.6-6.8c-1.8-8.4-5-16.5-9.3-24c-4.9-8.7-10.9-9.5-18.1-3c-11.6,10.3-16.3,24-19.1,38.6
	C432.3,340.9,432.4,341.6,433.3,342.2z M114.8,480.6l-0.2-0.7c0.1-2.6-0.8-5.3,1.1-8.1c2.7,3.6,4.5,7.7,8.4,10.2
	c3,1.9,4.9,2.2,4.4-2.3c-0.3-1.7,0.1-3.4,1.2-4.7c0.3,0.1,0.8,0.1,0.9,0.3c3.1,8.7,9.5,10.5,18.1,10.2c13.2-0.5,26.3-0.5,38.9-5.2
	c6.6-2.4,12.2-6,14.8-13.2c1.2-3.2,0.8-4.9-2.9-6.2c-23.6-8.5-41.7-23.7-54.6-45.2c-2.5-4.3-4.6-8.9-6.4-13.5
	c-1.2-2.9-2.7-3.4-5.3-2c-18.4,9.6-33.2,22.3-35.2,44.4c-1.1,12.1,1.5,23.5,10.9,32.5c1.5,1.6,3.4,2.7,5.5,3.3L114.8,480.6z
	 M177.3,390.1c5,1.1,10.1,2.1,15.2,3c5.9,1.1,8.6-1.7,6.9-7.5s-2.1-11.8-0.2-17.7c1.2-3.6-1.8-3.3-3.6-3.8
	c-27.8-8.7-55.6-17.3-83.3-26c-12.2-3.9-24.4-7.7-36.1-13.1c-16.7-7.8-29.1-20.3-37.8-36.4c-1.1-2-2.7-3.9-2-6.5l-0.1,0.1
	c2.8,2.4,4.4,5.7,6.4,8.7c11.4,16.2,26.1,28.1,45,34.7c36.4,12.8,73.3,23.7,110.1,35.1c3.1,1,4.9,0.5,6.4-2.5
	c4.1-8,8.7-15.6,12.2-23.9c2.8-3,1.3-4.2-2-5.2c-35.6-10.9-71.2-21.9-106.8-32.8c-22.7-7-45.5-13.9-68.3-20.7c-6-2-12-3.9-17.9-6
	c-2.4-0.8-3.5-0.4-3,2.3s0.8,5.6,1.2,8.4c2.5,19.8,9.1,39,19.2,56.2c7.2,12.2,18.7,19.2,31.4,24.2c18.2,7.3,37.1,12.6,56.1,17.4
	C143.1,383.2,160.2,386.5,177.3,390.1L177.3,390.1z M259.9,475c2.2,5.4,5.2,9.8,10.3,12.4c3.4,1.7,4.7,1.4,4.3-2.8
	c-0.4-2.4,0.1-4.8,1.3-6.9c0.4,0.1,1.1,0.2,1.2,0.5c4.1,9.3,11.2,12.4,21.2,12.1c15-0.4,29.9-0.3,44.7-3.2c2.4-0.5,4.9-1.1,7.3-1.7
	c17.7-5,23.7-13.1,23.5-31.4c-0.1-10.3-0.2-10.1-10.1-12c-20-3.7-39.3-10-58.5-16.7c-3.6-1.3-7.2-2.5-10.8-3.9
	c-3.8-1.7-8.2-1.7-12,0c-9.7,3.8-20.2,4.6-30.4,2.3c-3-0.6-4.6,0.3-6.2,2.6c-9.3,14.4-8.7,37.5,1.6,51c2.6,3.7,6.3,6.4,10.5,7.9
	C259,481.8,257.4,478.4,259.9,475L259.9,475z M189.9,449.1c11.9,5.9,24.5,9.4,37.5,11.7c2.6,0.5,4.3,0.3,3.9-3
	c-1.4-12.9,3.4-24.1,10-34.7c1.4-2.3,0.8-2.9-1.3-3.9c-8.5-3.8-17-7.5-23.5-14.8c-2-2.2-5.3-2.5-8.3-3.2c-1.9-0.4-3.5,0.1-3.8,2.1
	c-0.7,4.4-3.6,3.9-6.7,3.4c-17.4-2.7-34.7-6.2-51.9-10c-0.9-0.2-1.9-0.4-3.8-0.7C151.6,420.3,167.3,437.8,189.9,449.1L189.9,449.1z
	 M295.6,409.3c22.4,8.2,44.9,15.8,68,21.5c3.2,0.8,4.8,0.6,5-3.4c0.5-7.3,1.6-14.6,5.6-21c1.2-1.9,0.8-2.8-1.4-3.5
	c-18.7-6.5-37.3-13.1-56-19.8c-2.7-1-4.3-0.5-5.7,2c-3.4,6.4-8.4,11.7-14.6,15.3c-2.1,1.1-3.4,3.3-3.3,5.7
	C293.1,408,293.9,408.7,295.6,409.3L295.6,409.3z M209,387c4,4,5.6,4.2,9.9-0.1c0.6,9.3,5.1,15.5,13.3,19c2.6,1.1,5.1,1.9,6.9-2.5
	c2.5,7.7,8.2,9.2,14.3,10.2c3.2,0.5,5.9,1,7.4-2.8c0.8-2,1.7-1.8,3.1,0c4.7,5.9,14.1,5.6,18.8-0.5c1.4-1.8,2.5-3.8,1.4-6
	c-0.9-1.9-3-0.8-4.5-0.8c-21.7,0-40.9-6.5-56.4-22.2c-5.1-5.1-8.6-11.4-12.1-17.9C203,368.5,204,382,209,387z M479.9,312.2
	c1.1,5.2,2.9,10.2,4.4,15.3c0.8,2.9,2.5,2.7,4.5,1.4c10.5-7.3,18.9-16.6,26.2-27.1c2.4-3.5,0-5.2-2.7-6.5
	c-5.1-2.3-10.7-2.3-15.2-3.2C486,292.2,477.8,302.1,479.9,312.2L479.9,312.2z M510.6,275c1.4,5,2.8,9.9,5.7,14.2
	c2.4,3.6,4,3.8,6.1,0.2c4.9-8.7,7.8-18.2,11.4-27.5c0.8-1.9-0.1-3.1-2-3.8c-2.3-0.8-4.8-1.2-7.2-1
	C511.6,257.2,507.3,263.1,510.6,275L510.6,275z M374.2,433.1c2,0.6,4.2-0.2,5.3-2c4.5-6.1,6.6-13,5.2-20.6c-0.4-2-1.2-4.1-3.6-4.2
	c-2.1-0.1-2.9,2-3.6,3.7c-2.8,5.9-4.3,12.3-4.3,18.8C373.4,429.9,371.9,432.2,374.2,433.1z M550.5,218.7c1-2,0.1-3-2-3.5
	c-5.5-1.2-9.1,1.6-9.2,7.2c0,4,1.2,8,3.6,11.2C545.5,228.6,548,223.7,550.5,218.7z M125,295.4c2.5,0.9,2.3-1.1,2.3-2.5
	c0-1.7,1.7-4.3-1.8-4.5c-5.1-0.3-10.2-0.4-15.9,2.3C115,293.3,120.2,293.7,125,295.4z M569.7,212.9c0.6-1,2.2-2,0.8-3.4
	c-1.2-1.2-3-1.6-4.6-0.9c-1.5,0.4-2.4,1.9-2.1,3.5c0.3,2.1,0.5,4.3,2,6.3C568.1,216.8,568.8,214.8,569.7,212.9L569.7,212.9z"/>
<path class="st0" d="M70.3,65.1c1.2-1.4,1-3.1,1.2-4.7c0.8-8.5,2.2-16.8,6.3-24.5c4.5-8.6,10.6-11.6,20.1-9.9
	c7.2,1.3,13.5,4.6,19.5,8.5c5,3.3,9.4,2,11.8-3.4c4.2-9.5,9.8-18.2,18-24.8c10.1-8.2,20.1-8.4,30.6-0.8c7.4,5.4,13.6,12.4,17.9,20.5
	c1.8,3.2,3.8,5.7,7.5,6.1c-2.1,1.3-1.5,3.2-1,5l0,0l-2.5,0.1l-1.4-0.1c-0.5-0.8-1.1-1-1.9-0.3l-3.1-0.7c-0.5-0.8-1.2-1-1.9-0.3
	l-2.1-0.5c-1.7-2-3.8-1.3-5.8-0.6l-2.2-0.4c-1-1.6-2.6-1.3-4-1.2c-7,0.5-14.1-1.3-21,1l-4.1,0.6c-1.8-0.9-3.5-1.1-5,0.6l-3.8,1
	c-2.4-2-4.2-0.4-6,1c-0.6,0.6-1.4,0.8-2.1,0.5c-2-0.9-3.5,0.2-4.9,1.4c-0.5,0.7-1.3,0.7-2.1,0.6c-0.5-0.3-0.7-0.1-0.9,0.4v0
	c-1.2-0.1-2.4-0.2-3,1.2c-2,1.2-4.2,1.8-6.6,1.8l-1.5,1l0,0c-1.2,0-2.3-0.1-3.1,1.1l-14.4,7l-1.5,1l0,0c-0.9-0.1-1.7,0.4-2,1.2
	l-4.6,2.8l-1.5,1l0,0c-0.9-0.1-1.7,0.4-2,1.2l0.1-0.1l-1.1,1h0.1c-1-0.1-1.8,0.6-2,1.5l-4.6,3.5l-1.4,1l0.1-0.1l-1.1,1l0,0
	c-0.8-0.1-1.6,0.4-1.9,1.2v-0.1l-1,1v-0.1l-1.1,1v-0.1l-1,1l0.1-0.1l-1.1,1.1l0.1-0.1l-1.1,1l0.1-0.1l-1.1,1h0.1l-1.1,1l-5,5l-1,1.1
	l-0.9,0.9l-1.1,1.1l0.1-0.1l-1,1.1l0.1-0.1l-1,1.1l0.1-0.1c-0.3,0.4-0.7,0.7-1,1.1h0.1c-2.2,0-2.2,1.5-2.1,3c0,0.3-0.1,0.5-0.1,0.8
	l0,0l-1,1l0,0l-0.7,0.1c-1.7-0.4-2.7,2.6-4.8,0.8c-2.7-2.3,1-4,0.4-6.1l-0.1,0.1l1.1-1.2c1-1.3,1.1-3.1,2.8-3.9
	c5-2.1,9-6.1,11.2-11.1c0.9-1.3,2.1-2.3,3.5-3C69.2,67.1,70.2,66.7,70.3,65.1z M102.3,46.1l1-0.9c0.3-0.1,0.6-0.1,0.9-0.1
	c1.1,0,2.3,0.1,3-1l0,0c0.8,0.1,1.6-0.3,2-1l0,0c0.8,0.1,1.6-0.3,2-1l0,0c1.1,0.1,2.3,0.1,3-1l0,0c1.1-0.2,3.2,0.7,2-1.9v-0.9
	c-0.4-0.7-1.2-1.1-2-1.1l0,0l-1.2-0.9c-0.3,0-0.5,0-0.8-0.1l-1.2-0.9c-0.3,0-0.5,0-0.8-0.1l-1.2-1c-0.3,0-0.5,0-0.8,0l-1.2-0.9
	c-0.3,0-0.5,0-0.8,0c-0.5-0.7-1.3-1.1-2.1-1c-2.4-0.6-4.7-1.3-7.1-1.8c-7.3-1.7-12.2,1.7-15.8,7.8c-0.7,0.5-1.1,1.2-1,2.1
	c-0.4,1.3-0.7,2.6-1.1,4l-0.9,1.2c0.2,1.7-0.2,3.3-1,4.8c-1.2,0.9-1.3,1.9-0.1,3l-0.9,6c1.3,2.8,2.7,2.8,4,0l3-2c1.5,0,2.8-0.1,3-2
	l0,0c1.5,0,2.8-0.1,3-2c1-1.1,2.4-1.8,3.9-2l1.1-1l0,0c0.8,0.1,1.6-0.3,2-1l1.9-1c1.1,0,2.3,0.1,3-1l0,0l1-1L102.3,46.1z
	 M187.3,20.2l-1-1l0,0c-0.4-0.3-0.7-0.7-1-1l-1.9-2c0-0.8-0.4-1.5-1.1-1.9l0,0l-1-1l0,0c-0.4-0.7-1.1-1.1-1.9-1.1l-5-4l-1.1-1
	l-4.9-2.1l-1.2-0.9l-2.8-0.1c-1-1.2-2-1.2-3,0l-3,0.9c-0.7-0.9-1.4-0.8-1.9,0.1l0,0l-1,1l-1.9,1c-0.8-0.1-1.6,0.3-2,1l0,0
	c-0.3,0.4-0.7,0.7-1,1.1l-6.9,6.9l-1.1,1l0,0l-1,1.2c-2.4,3.9-4.7,7.9-7.1,11.8c-1,0.9-2.1,2.1-1.4,3.3s2.2,0.8,3.3-0.2l2.9-0.2
	c3.4-0.7,7.4,0.4,10.1-2.7l2.1-0.1c2.5,1.1,4.9,2,6.9-0.9l3.1-0.1c5.7,1.9,11.8,0.5,17.6,1.8c3.5,0.8,7.2,0,10.8,0.9
	c2.8,0.7,3.4-0.2,2.7-2.8c-0.1-0.3-0.2-0.6-0.2-0.9c0-1.6-0.7-3.1-2-4l0,0l-1-1l0,0c0.1-0.8-0.3-1.6-1-2l0,0L187.3,20.2L187.3,20.2z
	"/>
<path class="st1" d="M369.4,307c0.2,2.7,2.3,4.8,5,5.1c0.1-0.5,0.1-1.1,0.4-1.4c10.8-12.5,23.8-21.7,39.7-26.2
	c8.1-2.3,12.5,0.6,15,8.8c1.1,3.6,1.9,7.3,2.8,11c1.1-0.9,1.9-2.3,3.6-2c-0.3-5-1.6-9.9-3.7-14.4c-3.1-6.2-8.7-9.1-15.6-8.1
	c-8.8,1.2-16.5,4.9-24.4,10.4c1.3-6.9,2.6-12.9,3.6-19c0.5-2.6,0.7-5.3,0.6-7.9c-0.1-8.2-4.5-13-12.6-13.9c-6-0.6-12-0.3-17.9,0.8
	h-1.3l0.5-1.1c5.2-10.5,10-21.2,10.7-33.2c0.3-5-0.2-9.9-4.2-13.7c-0.5,1.3-1.7,2.2-3.1,2.2c3.4,5.6,3.7,11.6,1.6,17.7
	c-3.3,9.4-8.2,18.2-14.6,25.8c-3.8,4.5-7.9,9-14,10.8c0.2,2.1-0.7,4.6,2.1,5.7c-0.4-2.5,1-3.4,3.1-4.2c10.7-4.6,22.2-6.9,33.9-6.7
	c9,0.2,13.3,5.5,11.6,14.4c-2.6,13.9-9.1,25.9-17.6,36.9C373.1,306,371.8,307.6,369.4,307z"/>
<path class="st1" d="M53.6,91.3c-1.7-0.4-2.7,2.6-4.8,0.8c-2.7-2.3,1-4,0.4-6.1c-3.4,1.4-3.8,5.7-7,7.2c-7.4,10.2-14.5,20.6-20,32
	c-1.8,3.6-6.1,4.6-8.2,7.8c2.7,0.5,5.7,0.4,7.4,3.3c4.3-1.3,6.9-4.1,8.8-8.2c1.5-3.9,3.6-7.5,6.1-10.8l1.1-1.2v0.1
	c0.1-0.8,0.1-1.6,1-2l0,0l1-1.2c0-0.3,0-0.6,0.2-0.8l0.8-1.1v0.1l1-1.5l-0.2-0.2l0.1-0.2l1.1-1.1v0.1l1-2l0,0l1-1.1h-0.1l1.1-1
	l-0.1,0.1c0.1-0.8,0.1-1.7,1-2.1l0,0l1-1c0-0.3,0.1-0.6,0.2-0.9l0.8-1l0,0l1-1h-0.1c0.1-0.6,0.3-1,1-1h-0.1c-0.1-0.8,0.3-1.7,1.1-2
	l0,0l1-1l0,0l1-1l-0.1,0.1L53.6,91.3z"/>
<path class="st2" d="M378.1,480c2.2-0.5,2.2-3.2,4.2-4c-0.5-4.1,1-5.6,5.4-6.2c23.3-3.1,45.8-9.6,67.7-18c8-3.1,15.7-7.3,23.5-11
	c1.2-0.6,2.4-1.2,2.3-2.9c-26.5,14-54.7,23.1-84.1,28.7c-1.4,0.4-2.9,0.6-4.4,0.7C383.5,466.8,379.2,471.6,378.1,480z"/>
<path class="st2" d="M580.5,211.2c6.6,20,6.1,40.4,4.3,61c-1.3,15.3-5.3,30-8.7,44.9c4.4-5.6,4.3-12.7,6.1-19.1
	c5.1-18.7,5.6-37.9,5-57.1c-0.3-8.7-1.3-17.5-4.2-25.8C582.5,213.6,582.6,211.6,580.5,211.2z"/>
<path class="st2" d="M576.1,317c-3.2,8.2-6.3,16.4-9.4,24.6c0.5-0.1,1.2-0.2,1.3-0.5C571.9,333.5,575.4,325.7,576.1,317z"/>
<path class="st1" d="M53.1,81.1c5-2.1,9.1-6.1,11.2-11.1C60.2,73.2,56.4,77,53.1,81.1z"/>
<path class="st1" d="M450.2,298.1c5-1.8,9.6-5,15.3-4C459.3,291.4,454.4,293.5,450.2,298.1z"/>
<path class="st1" d="M203.3,32.2c-2.1,1.3-1.5,3.2-1,5c3.6,0.1,4.3-1.6,3-4.6L203.3,32.2z"/>
<path class="st2" d="M521.2,408.8l-5.8,5.3C518.8,414,520.7,412.3,521.2,408.8z"/>
<path class="st2" d="M488.1,433.9l-7,4C484.5,438.4,487,437.4,488.1,433.9z"/>
<path class="st2" d="M532.3,397.2L527,403C530.4,402.6,532.2,400.7,532.3,397.2z"/>
<path class="st2" d="M569.3,200.1l5,2.1C573.4,199.7,571.9,198.5,569.3,200.1z"/>
<path class="st2" d="M512.2,416.8l-4,3.2C510.5,420.2,512.2,419.6,512.2,416.8z"/>
<path class="st2" d="M504.2,423l-4.1,3C502.4,426.2,504.1,425.7,504.2,423z"/>
<path class="st2" d="M563.1,349.9l-2.4,4.7C563.5,354,563.1,351.9,563.1,349.9z"/>
<path class="st2" d="M558.1,359.9c-1.1,1.1-1.8,2.6-1.9,4.1C558.1,363.3,558.4,361.8,558.1,359.9z"/>
<path class="st2" d="M566.7,341.8c-1,1.2-1.5,2.7-1.5,4.2C567.1,345.2,567.6,343.8,566.7,341.8z"/>
<path class="st2" d="M494.8,429.6l-3.6,2.4C492.9,432,494.8,432.2,494.8,429.6z"/>
<path class="st1" d="M305.3,99.1c1.1,1,2.1,2.6,4,1.1C308.1,99.5,306.7,99.1,305.3,99.1z"/>
<path class="st2" d="M565.2,346c-1.2,1-1.9,2.4-2.1,4C565.1,349.4,565.3,347.8,565.2,346z"/>
<path class="st2" d="M507.2,420.8l-3,2.2C505.8,423.1,507.2,422.9,507.2,420.8z"/>
<path class="st2" d="M537.3,391.2L535,394C537,394.1,537.3,392.8,537.3,391.2z"/>
<path class="st2" d="M541.3,386.1l-2.2,2.9C541,389,541.3,387.7,541.3,386.1z"/>
<path class="st2" d="M544.3,382.1l-2.2,3C544.1,385,544.3,383.7,544.3,382.1z"/>
<path class="st2" d="M497.7,427.6l-2.8,1.9C496.7,430.1,497.8,429.8,497.7,427.6z"/>
<path class="st2" d="M547.2,378l-2.2,3C547.1,381,547.3,379.6,547.2,378z"/>
<path class="st2" d="M491.2,432l-3.1,2C489.7,434.1,491.1,434.1,491.2,432z"/>
<path class="st2" d="M549.2,374.8c-0.7,1.1-1.4,2.1-2.1,3.2C549.3,377.9,549.3,376.4,549.2,374.8z"/>
<path class="st2" d="M554.1,366.9l-1.9,3.1C554.2,369.9,554.3,368.5,554.1,366.9z"/>
<path class="st1" d="M437.3,314.1c2-0.3,2-1.6,1.9-3.2L437.3,314.1z"/>
<path class="st2" d="M560.7,354.8l-1.6,3.2C561.3,357.8,561.4,356.5,560.7,354.8z"/>
<path class="st1" d="M67.8,67c1.4,0.1,2.3-0.4,2.5-1.9L67.8,67z"/>
<path class="st2" d="M500.2,426l-2.3,1.5C499.4,428.1,500.1,427.5,500.2,426z"/>
<path class="st2" d="M551.2,371.8l-1.6,2.4C550.8,373.9,551.2,373,551.2,371.8z"/>
<path class="st2" d="M579.2,208.2c0.3,0.7,0.7,1.4,1,2.1C580.3,209.5,579.9,208.6,579.2,208.2z"/>
<path class="st1" d="M439.8,309.8c1.1-0.1,1.4-0.9,1.3-1.9L439.8,309.8z"/>
<path class="st2" d="M559.1,358l-1.1,2C558.8,359.7,559.3,358.9,559.1,358z"/>
<path class="st2" d="M556.2,364l-1.4,1.6C555.9,365.7,556.1,364.9,556.2,364z"/>
<path class="st1" d="M49.2,86.1l1.1-1.1L49.2,86.1z"/>
<path class="st1" d="M441.1,308.1c0.4-0.5,0.7-1,1.1-1.5C441.8,307.1,441.5,307.6,441.1,308.1z"/>
<path class="st1" d="M439.1,311.1c0.3-0.4,0.5-0.9,0.8-1.3C439.7,310.2,439.4,310.7,439.1,311.1z"/>
<path class="st2" d="M554.8,365.7c-0.2,0.4-0.5,0.9-0.7,1.3L554.8,365.7z"/>
<path class="st1" d="M2.3,174.2c1.7-5.5,1.7-11.5,0-17C1.3,162.8,1.3,168.6,2.3,174.2z"/>
<path class="st3" d="M95.7,384l-14.3-4.7C85.3,383.1,90.4,383.9,95.7,384z"/>
<path class="st1" d="M3.5,150.2c2.9-2.6,4.6-6.3,4.7-10.2C5.8,143,4.2,146.5,3.5,150.2z"/>
<path class="st1" d="M8.9,205.9c0.5-2.1,1.4-4.4-2-4.8C6.1,203.4,8.1,204.4,8.9,205.9z"/>
<path class="st1" d="M11.2,211.2c1.8-2.2,0.8-2.9-1.5-2.9L11.2,211.2z"/>
<path class="st4" d="M2.1,155.2l0.2-2c-0.9,0.2-2.3-0.3-2.3,1.1C0,155.2,1.3,155.1,2.1,155.2z"/>
<path class="st1" d="M17.3,222.3c0.1-1.4,0.1-2.9-1.8-3.2C15.2,220.7,16,221.7,17.3,222.3z"/>
<path class="st1" d="M8.1,140c2.2,0.1,2.2-1.4,2.2-3C9.3,137.7,8.5,138.8,8.1,140z"/>
<path class="st3" d="M77.1,377.8l-1.7-0.6L77.1,377.8z"/>
<path class="st5" d="M37.3,116.1L37.3,116.1c0.7-0.4,1.1-1.1,1-1.9l0,0l1-1.2c0-0.3,0-0.6,0.2-0.8c0.3-0.4,0.5-0.7,0.8-1.1v0.1
	l1-1.5l-0.2-0.2l0.1-0.2l1.1-1.1v0.1c0.7-0.4,1.1-1.2,1-2l0,0l1-1.1h-0.1l1.1-1l-0.1,0.1c0.7-0.4,1.1-1.2,1-2.1l0,0l1.1,0.1
	c5.8-2,12.7-0.6,17.4-5.8c1.1-1.4,3.1-1.7,4.6-0.7c1.8,1.2,0.7,3,0,4.5c-1,2.2-4.7,4-3.2,6.2s4-1.3,6.3-1.1c1.2,0.1,2.3,0,3.5,0
	c3.6,0,5.2,0.9,2.7,4.7s-1.6,13.4,1.3,16.7c0.9,1.3,2.5,1.8,4,1.2c3.5-1.5,6.3-4,7.2-7.8c1-3.3-0.5-6.9-3.5-8.7
	c-2.8-1.8-4.5-3.4-0.2-5.3c1.2-0.6,2.1-1.7,2.4-3.1c0.7-2.5,1.2-4.9,4.2-1.8c0.4,0.4,1.5,0.7,1.8,0.5c4.9-4.6,11.3-0.8,16.7-3.2
	c2.4-1.1,5.3-0.3,6.8,1.9c2.6,3.6,6.2,4.8,10.1,5.7c3,0.7,4.9,2,5.1,5.7c0.3,4.1,4.2,6.5,6.1,10c1.4,2.5,3.4,4.3,1.8,7.6
	c-1.4,2.9-3,3.6-6.2,3.1c-2.9-0.4-5,3.6-2.9,4.9c5.8,3.6,5.2,10,7.7,15.1c2.6,5.3,5.1,9.7,12,8.8c2-0.3,3.4,0.8,4.9,2.1
	c4.7,3.9,10.1,6.9,16,8.5c7.2,2.2,13.6,6.7,21.2,7.8c7.8,1.2,15.6,0.8,23.4,0.3c6.6-0.5,10.8-5.4,15-9.8c1.5-1.6,1.1-3.8-0.4-5.4
	s-2.3-4.1-3.6-5.9c-2.9-3.9-3.3-8.1-2.3-12.6v0.1c0.7-0.4,1.1-1.2,1-2.1v0.1c1.2-0.7,1.1-1.9,1-3.1l0,0c3.1-3.6,1.8-7.3,0-10.9v0.1
	c0.1-0.8-0.2-1.7-0.9-2.1c-0.2-0.1-0.2-0.3-0.2-0.5c0.3-3,0.6-5.9-0.8-8.8s0.4-4,2.8-4.6c6.4-1.4,12.7,2.7,14.1,9.2c0,0,0,0,0,0
	c0,0.2,0.1,0.4,0.1,0.7c1,8.2,3,15.9,8.7,22.3c1.9,2.1,1.9,4.9,2.3,7.5c1.1,7,3.2,13.8,3.8,20.9c0.5,5.2,4.1,7.7,9,7.2
	c5.3-0.5,8.4,2.7,10.4,6.3c1.9,3.7,5.1,6.4,9.1,7.6c-4.7,2-6.2,8-12.5,5.9c-2-0.6-3,2.6-2.6,5c1.5,8.4,2.9,16.9,10.9,22.2
	c2.8,1.9,2.3,5.9,4.6,8.6c10.8,12.2,18.2,26.8,25.6,41.2c6.3,12.3,12.5,24.7,20.5,36c4.3,6,7.4,12.7,9.1,19.9
	c0.6,3.3,2.4,6.2,5.1,8.3c2.8,2,3.7,4.6,4,7.6c0.9,8.9,7.2,15.9,16,18.6c9.2,2.8,18.7,5,25.5,12.6c3.8,4.3,7,9,13.5,10.1
	c2.8,0.5,3.3,4.7,5.1,7.1c2,2.7,3.8,4.6,7.8,3.4c4.2-1.2,7.2,1.2,8.2,5.5c0.2,1.3,0.9,2.5,1.9,3.4c2.1,1.9,2.6,3.9,1,6.6
	c-1.9,3.1-0.4,4.6,3,4.6c0.2,0,0.3-0.2,0.5-0.1c3.8,0.8,7.7,2.7,10.3-2.5c0.8-1.5,3.7-1.2,5.6-0.5s4.6,1.6,4.2,4.2s-3,1.1-4.7,1.5
	c-1.1,0.2-2.5,0-3.4,0.4c-5,2.4,1.5,2.9,0.6,5.1c-2.9,0.6-6.6,0.3-8.5,3.9c-0.2,0.4-1.6,0.3-2.3,0.1c-4.5-1.2-7.2,0.5-11.1,3.5
	c-5.5,4.1-12.2,8-19.9,8c-2.8,0.1-5.6,0.5-8.4,1c-0.6,0.1-1.6,0.4-1.8,0.7c-1.6,5.6-5.3,2.1-7.9,1.6c-3.2-0.6-7.2,0.5-9.3-3.4l0,0
	c0-1.3,0.1-2.7,0.1-4c0.1-0.2,0.3-0.3,0.5-0.2c0,0,0,0,0,0l0,0l1.4-1h-0.1l1-1l0,0l1-1h-0.1c2,0,2.1-1.4,2.1-2.9l0,0
	c0.7-0.4,1.1-1.1,1.1-1.9v0l0.9-1.5c-0.1-0.2-0.1-0.4,0.1-0.5l0,0l1-2l0,0c4.6-4.7,6.1-15.9,3-22c-0.2-0.2-0.2-0.4-0.1-0.6
	c0.1-1.2,0.2-2.5-1-3.3l0.1,0.1l-1-1.1l0,0l-1-1l0,0l-1.1-1h0.1c-0.4-0.7-1.2-1.1-2-1.1l0,0l-2-1l0,0c-0.5-0.7-1.3-1.1-2.1-1h0.1
	c-0.6-0.8-1.5-1.2-2.5-1l-0.2,0.1l-0.2-0.1c-0.6-0.8-1.5-1.1-2.4-0.9h-0.3l-0.3-0.2c-0.5-0.7-1.4-1.1-2.3-0.9h-0.4l-0.3-0.2
	c-0.5-0.7-1.4-1-2.3-0.9h-0.4l-0.4-0.2l-2.1-0.9h0.1c-0.7-1.2-1.9-1.1-3-1.1h0c-0.6-0.8-1.5-1.1-2.4-1l-0.3,0.1l-0.2-0.1
	c-0.6-0.8-1.5-1.1-2.4-0.9h-0.3l-0.3-0.2c-0.5-0.7-1.3-1-2.1-0.9h0.1c-1-1.5-2.5-1-3.9-1.2c-10.5-4.4-21.8-6.9-32.1-11.9
	c-1.2-1.2-2.3-2.4-2.2-4.2v0.2c1.8-1.8,2.1-4,2-6.4c-0.1-0.2-0.1-0.4,0.1-0.5c3.6-4.4,3.6-10,3.8-15c0.4-9.4,1-18.8-0.7-28.2
	c-0.4-1.8-0.5-3.6-2.1-4.8l0,0c-0.1-1.7,0.6-4.3-1.8-4.5c-2.6-0.2-2.2,2.5-2.1,4.1c0.8,13.1-1.5,25.9-2.9,38.8l0.1,0.4
	c-2.3,1.7-2.3,4.1-2.1,6.6v0.4c-1.2,0.8-1.1,1.9-1.1,3.1l0,0c-0.8,0.5-1.1,1.5-0.9,2.4c0.1,0.2,0,0.5-0.2,0.6
	c-2,1.3-3.2,3.7-2.8,6.1v-0.1c-0.7,0.4-1.1,1.2-1.1,2.1l-1.3,3.7h0.2c-0.3,0.4-0.7,0.7-1,1.1v-0.1l-1.1,2h0.1l-1.1,1.1l-0.8,1.1
	c-0.5,0.6-1,1.2-1.5,1.9c-6.6,7.5-14.8,10.2-24.6,9.1c-14.9-1.6-28.6-6.2-40.6-15.2c-6.8-5.2-12.1-12-15.5-19.9
	c-1.5-3.3-3.6-7.1-2.1-10.5c4.1-9,6.4-19.3,14.1-26.1c7.6-6.9,14.5-14.6,20.4-22.9c1.9-2.5,4.4-4.5,6.7-6.7c2.3-2.2,4.7-4.1,7-6.2
	c-7.9,1.1-13.1,6.1-18.6,10.9c-0.4-3.8-3.1-6.1-5.2-8.9c-11.5-15-24.5-28.3-42.2-36.3c-2.3-1.1-5.9-0.3-6.8-4c0.6-1.6,3-1.5,3.2-4
	c-5.7,0.8-11.1,1.6-16.6,2.2s-11.1,1.1-16.7,1.6c-6.6-3.7-13.5-6.9-19.6-11.4c-1.4-1-3.3-1.7-3.3-4c3.9-5.3,6-11.6,6-18.1
	c0-2.7,1.7-3.8,3.5-5c7.8-5.1,14.4-12,19.1-20c1.6-2.9,4.3-7.2,1.7-9c-2.4-1.6-3.8,3.5-5.3,5.8c-11.3,18.1-28.4,26.6-48.8,29.1
	c-26.6,3.3-52.8-0.2-78.5-7.1c-2.6-0.7-5.1-1.3-7.7-2l-0.3-0.1h-0.3l-2.5-1L25,208l-1.5-0.9l-0.3-0.2h-0.3l-1.4-0.8
	c-0.2-0.2-0.4-0.2-0.6-0.2l-1.4-0.9l0,0c-6.6-14.9-8.9-30.6-8.5-46.8c0.1-4.2,1.4-8.2,2.5-12.2c0.2-0.1,0.2-0.3,0.1-0.5
	c0.7-0.6,1.1-1.5,1.1-2.4v0.1c1.2-0.5,2-1.7,2-3h-0.1c0.6,0,1-0.4,1-1v-0.1l-0.1,0.1l1-1.1l-0.1,0.1l1.9-1.2l1.1-0.9
	c4.3-1.3,6.9-4.1,8.8-8.2c1.5-3.9,3.6-7.5,6.1-10.8L37.3,116.1z M44.2,170.7c2.5,1.6,4.1,0.7,4.1-2.4c0-3.4-5.4-11.6-8.5-12.9
	c-2.3-1-3.5,0.1-3.3,3.5C37.6,163.6,39.8,167.9,44.2,170.7L44.2,170.7z M91.7,172.3c0.7-0.9,1.4-1.9,0.7-3.2
	c-0.5-1.1-1.7-1.7-2.9-1.5c-4.9,0.9-9.4,3.3-12.9,6.9c-0.8,0.7-1,1.8-0.5,2.7c0.8,1.3,2.2,1.2,3.2,1.3
	C84.5,177.9,88.6,176.1,91.7,172.3L91.7,172.3z M252,358.5c-0.1-1.9-1.7-3.3-3.5-3.2c0,0,0,0,0,0h-0.2c-2.4,0-3,1.6-2.9,3.7
	s1.2,2.9,3.2,3C250.6,361.7,252.2,360.7,252,358.5z M421.9,419c1.2-0.2,2.3-0.9,1.9-2.2s-1.3-2.4-2.8-2.1c-1.3,0.3-1.6,1.5-1.5,2.7
	C419.6,418.9,420.6,419.2,421.9,419z M258.5,363.1c0,1.5,0.9,2,2.3,1.9c1.1-0.1,2-0.6,2-1.8c0-1.5-1.1-1.8-2.4-2
	C259.3,361.3,258.5,361.9,258.5,363.1z"/>
<path class="st6" d="M204.4,117.1c-7.6,2.1-13.1,8.6-14,16.4c-0.9,7.6,3.4,16.2,10.2,19.6c7.2,3.5,14.2,3.2,21.1-1.5
	c2.2-1.6,3.5-3.8,5.6-5.4c-1,4.5-0.6,8.7,2.3,12.6c1.4,1.9,2,4.2,3.6,5.9s1.9,3.9,0.4,5.4c-4.3,4.3-8.4,9.3-15,9.8
	c-7.8,0.6-15.6,0.9-23.4-0.3c-7.6-1.1-14-5.6-21.2-7.8c-5.9-1.7-11.3-4.6-16-8.5c-1.4-1.2-2.9-2.3-4.9-2.1c-6.9,0.9-9.4-3.5-12-8.8
	c-2.5-5-1.9-11.5-7.7-15.1c-2.1-1.3-0.1-5.4,2.9-4.9c3.2,0.5,4.8-0.2,6.2-3.1c1.6-3.3-0.4-5.1-1.8-7.6c-1.9-3.5-5.8-5.9-6.1-10
	c-0.2-3.7-2.2-4.9-5.1-5.7c-3.9-0.9-7.5-2.2-10.1-5.7c-1.5-2.2-4.4-2.9-6.8-1.9c-5.3,2.5-11.8-1.3-16.7,3.2
	c-0.2,0.2-1.4-0.1-1.8-0.5c-3-3.1-3.5-0.8-4.2,1.8c-0.3,1.3-1.1,2.5-2.4,3.1c-4.3,1.9-2.6,3.6,0.2,5.3c3,1.7,4.5,5.3,3.5,8.6
	c-0.9,3.8-3.7,6.3-7.2,7.8c-1.5,0.6-3.1,0.1-4-1.2c-2.9-3.3-3.8-13-1.3-16.7s0.9-4.6-2.7-4.7c-1.2,0.1-2.3,0.1-3.5,0
	c-2.3-0.2-4.8,3.3-6.3,1.1s2.2-4,3.2-6.2c0.7-1.5,1.8-3.2,0-4.5c-1.5-1-3.4-0.7-4.6,0.7c-4.8,5.2-11.6,3.8-17.4,5.8V101
	c0-0.3,0.1-0.6,0.2-0.9l0.8-1l0,0l1-1.1h-0.1l1-1h-0.1c0.8-0.3,1.3-1.2,1.1-2l0,0l1-1l0,0l1-1l-0.1,0.1c0.7-0.4,1.1-1.2,1-2l0,0l1-1
	l0,0l1-1l0,0l1-1l0,0c4.2-2.1,8.9-1.7,13.4-2.4c6.7-1,13.1-3.1,16.7-9.7c0.6-1.2,1.1-2.7,2.7-2.7c7.2,0,11.5-7.3,18.7-7.3
	c0.3,0,0.6-0.2,0.8-0.4c3-8.7,10.5-7,17-6.9c5.9,0.1,8.6,5.2,11.7,9c3.4,4,5,4.6,9.3,1.7c1.8-1.2,4.1-3.6,5.9-0.8
	c1.7,2.7-0.1,5-2.5,6.7c-3.6,2.6-6.4,9.9-5.1,13.3c0.7,1.9,1.6,3.4,3.1,0.7c2.1-3.6,4.8-2.2,7.3-1c6,2.8,9.4,0.8,9.9-6.2
	c0.7-3.9,0.7-7.5-4-9c0.5-2.4-1.9-3.8-2-6c2.9,0.1,3.1-1.8,2.9-4c3.2-0.8,1.7-2.5,0.7-4c-1.1-1.8-2.6-3.8-0.8-5.9
	c1.5-1.8,3.7-1.2,5.8-1.5c5.9-0.9,10.5,1,14.9,4.6c1.6,1.4,3.7,1.4,4.8-1.3c0.5-1.3,1.9-2.1,3.3-1.7c1.3,0.2,2.3,1,2.2,2.3
	c-0.5,5.5,3.8,7.2,7.4,8.2c5,1.5,9.1,3.2,9.9,9c0.1,0.6,0.5,1.5,1,1.6c7.9,2.6,11.6,9.5,16.4,15.4c1.1,1.4,2.6,1.2,4.1,1.3
	c9.1,0.3,14.1,6.7,18.2,13.5c4,6.9,8.3,13.5,13,19.9c2.9,3.9,6.2,7.5,7.3,12.3c1,4.4,4.8,7,7,10.6c3,5,2.2,10.3,3.6,15.3
	c0.6,2.1,1.2,4.2,2.9,5.7c5.1,4.6,8.6,10.6,12.1,16.4c3.2,5.4,5,6.1,11.4,4.5c2.1-0.5,3.9,0.6,5.9,0.8c0.3,0.1,0.5,0.3,0.8,0.4
	c-0.1,0.2-0.1,0.4,0.1,0.6c0,0.3,0.1,0.7,0.2,1l-0.2,1c-4.1,7.7-5,16.6-9,24.4c-1.8,3.5,0.9,6.7,2.3,9.8c0.9,2,1.8,3.8,1.8,6.1
	c-0.1,4,2.6,6.4,5.5,8.4c1.6,1.2,2.5,2.3,2.3,4.5c-0.9,7.6,1.3,15.3,6,21.3c0.6,0.6,1,1.3,1.3,2.1c2.9,9.8,10.2,17.3,13.7,26.8
	c1.8,4.6,4.5,8.8,8,12.3c3.7,3.8,7,8.1,8.2,13.4c0.6,2.9,3.4,3.6,5.2,5c5.7,4.7,9.5,11.7,17.1,13.9c1.7,0.5,2.4,2.2,3.5,3.5
	c2.4,2.8,5.9,4.5,9.6,4.5c5,0.1,8.8,3.6,13.2,5.4c2.3,1,4.2,1.8,6.3-0.4c1.7-1.7,3.6-0.8,5.6-0.3c6.6,1.6,13.1,3.4,20,3.3
	c3.8,0.1,7.2-2.1,8.8-5.6c1.1-2.5,2.8-3.3,4.6-4.5l2.7-0.1c2.1,0,4.3,0.7,6.2-0.7c0.3-0.1,0.6-0.2,0.9-0.2c1.3,0.1,2.5,0,3.3-1.2
	l0.3,0.2c1-0.6,2.9,1.4,3.2-1.1c16.9-4.5,30.8-13.6,42.5-26.4c9.3-10.3,16.3-22.1,22.6-34.4c0.8-0.3,1.2-1.2,1.1-2l0,0
	c0.8-0.4,1.2-1.2,1-2.1v0c1.2-0.7,1.2-1.9,1.1-3l0,0c0.7-0.4,1.1-1.2,1-2.1v0.1c0.8-0.5,1.2-1.5,1-2.5c-0.1-0.1-0.1-0.3,0-0.5l0,0
	c0.7-0.5,1.1-1.3,1-2.1l0,0c1.2-0.7,1.1-1.9,1.1-3l0,0c2.3-1,2.1-3.1,2-5v0.1c0.7-0.4,1.1-1.2,1-2.1l0,0c1.3-0.7,1.2-1.9,1.1-3l0,0
	c1.2-0.7,1.1-1.9,1.1-3l0,0c0.7-0.4,1.1-1.2,1-2.1l0,0c2.2-1.5,2.2-3.7,2.1-6l0,0c0.7-0.4,1.1-1.3,1-2.1v0.1c1.3-0.7,1.2-1.9,1.1-3
	l0,0c0.7-0.4,1.1-1.2,1-2.1l0,0c1.3-0.7,1.2-1.9,1.1-3l0,0c0.7-0.4,1.1-1.2,1-2.1v0.1c1.2-0.7,1.1-1.8,1.1-3l0,0
	c0.7-0.4,1.1-1.2,1-2l0,0c0.5-0.4,1.3-0.7,1.6-1.2c2-4.3,3.8-8.1,8.5-2c0.8,1.1,3.3,2.5,4-0.9l0,0l1-1v-0.1c2,0,2.1-1.4,2-2.9v-0.1
	c1.8-0.1,3.5-2.4,5.3,0h-0.1c0.5,8.6,2,17,2,25.7c0,17.9-3.4,35.2-7.4,52.5c-0.5,1.6-0.7,3.2-0.6,4.9h0.1c-2.6,4-4,8.7-4.1,13.4
	c0.1,0.1,0.1,0.3,0,0.4l-0.1,0.1c-2.9,2-3,5-3,8.1l0,0c-0.7,0.4-1.1,1.2-1,2.1v-0.1c-1.2,0.7-1.2,1.9-1.1,3l0,0
	c-0.7,0.4-1.1,1.2-1,2.1l0,0c-2.5,0.9-2.1,3-2.1,5l0,0c-0.7,0.4-1.1,1.2-1,2l0,0c-0.7,0.4-1.1,1.2-1,2l0,0c-0.7,0.4-1.1,1.2-1,2l0,0
	c-0.8,0.4-1.2,1.3-1,2.2c-11.9,25-29.6,46.8-51.6,63.6c-33.4,25.5-72,38-112.7,45.3c-9.9,1.8-10,1.5-10.9-8.1
	c2.1,3.9,6.1,2.8,9.3,3.4c2.7,0.5,6.3,4,7.9-1.6c0.1-0.4,1.1-0.6,1.8-0.7c2.8-0.5,5.6-0.9,8.4-1c7.7-0.1,14.4-3.9,19.9-8
	c3.9-3,6.6-4.7,11.1-3.5c0.7,0.2,2.1,0.2,2.3-0.1c1.9-3.6,5.7-3.2,8.5-3.9c0.8-2.2-5.6-2.7-0.6-5.1c1-0.5,2.3-0.2,3.4-0.4
	c1.6-0.3,4.3,1,4.7-1.5s-2.2-3.5-4.2-4.2s-4.9-1-5.6,0.5c-2.7,5.2-6.5,3.4-10.3,2.5c-0.1,0-0.3,0.1-0.5,0.1c-3.4,0-4.9-1.5-3-4.6
	c1.6-2.7,1.1-4.6-1-6.6c-1-0.9-1.6-2.1-1.9-3.4c-1-4.4-4-6.7-8.2-5.5c-4,1.2-5.8-0.7-7.8-3.4c-1.8-2.4-2.3-6.6-5.1-7.1
	c-6.5-1.2-9.6-5.9-13.5-10.1c-6.8-7.6-16.3-9.9-25.5-12.6c-8.8-2.6-15-9.7-16-18.6c-0.3-3-1.2-5.6-4-7.6c-2.6-2.1-4.4-5-5.1-8.3
	c-1.7-7.1-4.8-13.9-9.1-19.9c-8-11.4-14.2-23.7-20.5-36c-7.4-14.4-14.8-29-25.6-41.2c-2.4-2.7-1.9-6.7-4.6-8.6
	c-8-5.4-9.5-13.8-10.9-22.2c-0.4-2.4,0.6-5.6,2.6-5c6.4,2.1,7.9-3.8,12.5-5.9c-3.9-1.2-7.2-3.9-9.1-7.6c-2-3.6-5.1-6.8-10.4-6.3
	c-4.9,0.4-8.5-2-9-7.2c-0.6-7.1-2.7-13.9-3.8-20.9c-0.4-2.6-0.5-5.4-2.3-7.5c-5.7-6.4-7.7-14.1-8.7-22.3c-1-6.5-7-11-13.5-10
	c0,0,0,0-0.1,0c-0.2,0-0.4,0.1-0.7,0.1c-2.4,0.6-4.2,1.8-2.8,4.6s1.2,5.8,0.8,8.8C222.1,118.1,213.8,114.4,204.4,117.1z
	 M296.3,209.7c0.1-4.6-3.9-9.3-7.9-9.3c-3.5,0-7.8,4.2-7.9,7.8c-0.2,5,3.5,8.1,9.2,8.1C294.6,216.2,296.2,214.5,296.3,209.7
	L296.3,209.7z M181.6,90.7c0.5-0.2,1-0.7,1.2-1.2c0.1-0.3,0-0.7-0.3-0.8c-0.1-0.1-0.3-0.1-0.4,0c-0.5,0.2-0.9,0.5-1.3,0.9
	C180.8,90.4,181.1,90.8,181.6,90.7L181.6,90.7z"/>
<path class="st7" d="M36.3,282.2c2.8,2.4,4.4,5.7,6.4,8.7c11.4,16.2,26.1,28.1,45,34.7c36.4,12.8,73.3,23.7,110.1,35.1
	c3.1,1,4.9,0.5,6.4-2.5c4.1-8,8.7-15.6,12.2-23.9c-12.5-3.9-25-8.1-37.6-11.7C134.7,310,91.2,295.3,48,279.7c-2.9-1-6.8-0.7-8.7-4.2
	c-6-2-12-3.9-17.9-6c-2.4-0.8-3.5-0.4-3,2.3s0.8,5.6,1.2,8.4c1,0.3,1.7,1.1,1.7,2.2c1.3,9.8,4.6,19,7.7,28.3
	c8.5,25.7,25.1,43.1,51.2,51.5c14.1,4.5,28.1,9.2,42.3,13.3c1.5,0.4,3.5,0.4,3.8,2.6c16.7,5.1,33.9,8.4,50.9,12.1
	c5,1.1,10.1,2.1,15.2,3c5.9,1.1,8.6-1.7,6.9-7.5s-2.1-11.8-0.2-17.7c1.2-3.6-1.8-3.3-3.6-3.8c-27.8-8.7-55.6-17.3-83.3-26
	c-12.2-3.9-24.4-7.7-36.1-13.1c-16.7-7.8-29.1-20.3-37.8-36.4C37.3,286.5,35.7,284.7,36.3,282.2l-0.5-0.4c0.1,0,0.3-0.1,0.3,0
	C36.2,281.9,36.3,282,36.3,282.2z"/>
<path class="st8" d="M57.3,88.1c4.2-2.1,8.9-1.7,13.4-2.4c6.7-1,13.1-3.1,16.7-9.7c0.6-1.2,1.1-2.7,2.7-2.7c7.2,0,11.5-7.3,18.7-7.3
	c0.3,0,0.6-0.2,0.8-0.4c3-8.7,10.5-7,17-6.9c5.9,0.1,8.6,5.2,11.7,9c3.4,4,5,4.6,9.3,1.7c1.8-1.2,4.1-3.6,5.9-0.8
	c1.7,2.7-0.1,5-2.5,6.7c-3.6,2.6-6.4,9.9-5.1,13.3c0.7,1.9,1.6,3.4,3.1,0.7c2.1-3.6,4.8-2.2,7.3-1c6,2.8,9.4,0.8,9.9-6.2
	c-2.6,2.2-5.2,4.4-8.8,2.4c-2.5-1.2-3.8-4.1-2.9-6.8c1.1-3.9,4.2-4.8,7.8-4.6c0.5-2.4-1.9-3.8-2-6c-2.3-0.5-2.4-2.2-1.6-3.7
	c1.2-2.3,3-0.9,4.6-0.3c3.2-0.8,1.7-2.5,0.7-4c-1.1-1.8-2.6-3.8-0.8-5.9c1.5-1.8,3.7-1.2,5.8-1.5c5.9-0.9,10.5,1,14.9,4.6
	c1.6,1.4,3.7,1.4,4.8-1.3c0.5-1.4,1.9-2.1,3.3-1.7c1.3,0.2,2.3,1,2.2,2.3c-0.5,5.5,3.8,7.2,7.4,8.2c5,1.5,9.1,3.2,9.9,9
	c0.1,0.6,0.5,1.5,1,1.6c7.9,2.6,11.6,9.6,16.4,15.4c1.1,1.4,2.6,1.2,4.1,1.3c9.1,0.3,14.1,6.7,18.2,13.5c4,6.8,8.4,13.4,13.1,19.8
	c2.9,3.9,6.2,7.5,7.3,12.3c1,4.4,4.8,7,7,10.6c3,5,2.2,10.3,3.6,15.3c0.6,2.1,1.2,4.2,2.9,5.7c5.1,4.6,8.6,10.6,12.1,16.4
	c3.2,5.4,5,6.1,11.4,4.5c2.1-0.5,3.9,0.6,5.9,0.8v-2c-0.8-1.4-1.2-3-1.2-4.6c-0.3-0.8-0.6-1.6-0.9-2.5c-0.2-0.1-0.2-0.4-0.1-0.5
	l-0.9-2.5c-0.2-0.1-0.2-0.3-0.1-0.5c0,0,0,0,0,0l0,0c-0.8-0.9-1.2-2.2-1.1-3.4l0.1,0.1l-0.8-1.2c-0.2-0.2-0.2-0.4-0.2-0.6l-1-2.3
	l-1-2.6l-1-2.4l0.1,0.1c-0.4-0.7-0.7-1.4-1.1-2.1c-2.1-3.1-3.6-6.3-3.7-10.1c-0.1-0.3-0.1-0.7-0.2-1l-0.8-3c-0.1-0.3-0.1-0.6-0.2-1
	v-1.4l-0.9-1.6V145c-0.2-0.1-0.3-0.3-0.2-0.5l-0.7-2.4l-0.2-1l-0.1-1.4l-0.9-1.6c0-0.5-0.1-1-0.2-1.4c-0.7-0.7-1.1-1.6-1.1-2.6
	l0.1-0.4c-1.3-1.5-2-3.5-2-5.5l0.1,0.1c-0.8-0.8-1.3-1.9-1.1-3v0.1c-1.4-1.3-2.1-3.1-2.1-5l0,0c-0.7-0.4-1.1-1.2-1-2.1l0.1,0.1
	c-0.3-0.4-0.5-0.8-0.8-1.2c-0.2-0.2-0.2-0.4-0.2-0.7c-1.1-1.2-1.8-2.7-2-4.3c-1.7-2.4-3-5.1-4-7.8c-0.4-0.7-0.8-1.4-1.2-2.1
	l-0.8-1.7c-0.7-0.5-1.1-1.4-1.1-2.3l0.1,0.1l-1-1.1v0.1c-0.7-0.4-1.1-1.2-1.1-2l0.1,0.1c-0.3-0.4-0.6-0.8-1-1.1l0,0l-1.1-2l0.1,0.1
	l-1-1.1l0,0c-0.7-0.4-1.2-1.2-1.2-2l0.1,0.1l-1-1.1v0.1c-0.7-0.4-1.2-1.2-1.1-2l0.1,0.1l-1-1.1l0.1,0.1l-1-1.1l0,0
	c-0.7-0.4-1.2-1.2-1.2-2l0.1,0.1l-1-1.1l0.1,0.1c-1-0.3-1.8-1.1-2-2.2l0.1,0.1l-1-1.1l0,0c-0.7-0.3-1.2-1-1.3-1.7l0.1,0.1l-1-1.1
	l0.1,0.1l-1.1-1.1l0.1,0.1l-1.2-1.1l-5.8-5.8l-1.1-1.2l0.1,0.1l-1.4-1l-4.5-3.8l-1.1-1.1l0.1,0.1l-1.9-1.2l-1.1-0.8l-1.1-1l0.1,0.1
	l-2-1.2l0,0l-1.1-0.9l0.1,0.1l-1.1-1l0.1,0.1c-0.8,0-1.6-0.4-2-1.1l0.1,0l-2.1-1.1c-1.8-0.6-3.5-1.6-4.9-2.9l-2-1.1l0,0l-2-1l0,0
	l-2-1l0,0l-2.1-1h0.1c-0.8,0.1-1.6-0.3-2.1-1l0.1,0.1c-1.1,0.1-2.2-0.3-3-1.1l0,0c-2.7-0.4-5.2-1.4-7.5-2.9
	c-0.2,0.1-0.4,0.1-0.5-0.1l0,0l-2.5-1c-0.1,0.1-0.2,0.2-0.4,0.1l-0.1-0.1c-1,0.1-1.9-0.3-2.6-1l-1.4-0.1c-0.9,0.1-1.9-0.2-2.6-0.8
	l-1.4-0.1l-1.9-0.3l-3.1-0.7l-1.9-0.3l-2.1-0.5l-5.8-0.6l-2.2-0.4l-25-0.2l-4.1,0.6l-5,0.6l-3.8,1c-1.9,1.1-4.1,0.5-6,1
	c-0.6,0.6-1.4,0.8-2.1,0.5l-4.9,1.4c-0.5,0.7-1.3,0.7-2.1,0.6c-0.3,0.2-0.6,0.3-0.9,0.4l0,0c-0.7,1.2-2.1,0.6-3,1.2
	c-2,1.2-4.2,1.8-6.6,1.8l-1.5,1l0,0c-0.7,1.2-2,0.8-3.1,1.1l-14.4,7l-1.5,1l0,0l-2,1.2l-4.5,2.8l-1.5,1l0,0l-2,1.2l0.1-0.1l-1.1,1
	h0.1l-2,1.5l-4.6,3.5l-1.4,1l0.1-0.1l-1.1,1l0,0c-0.3,0.8-1.1,1.2-1.9,1.2v-0.1c0,0.6-0.4,1-1,1v-0.1l-1.1,1v-0.1l-1.1,1l0.1-0.1
	l-1.1,1.1l0.1-0.1l-1.1,1l0.1-0.1l-1.1,1h0.1l-1.1,1l-5,5l-1,1.1l-0.9,1l-1.1,1.1l0.1-0.1l-1,1.1l0.1-0.1l-1,1.1l0.1-0.1
	c-0.3,0.4-0.7,0.7-1,1.1h0.1L57.3,88.1z"/>
<path class="st9" d="M257.8,485.2c1.1-3.5-0.4-6.8,2-10.2c2.2,5.4,5.2,9.8,10.3,12.4c3.4,1.7,4.7,1.4,4.3-2.8
	c-0.4-2.4,0.1-4.8,1.3-6.9c0.4,0.1,1.1,0.2,1.2,0.5c4.1,9.3,11.2,12.4,21.2,12.1c15-0.4,29.9-0.3,44.7-3.2c2.4-0.5,4.9-1.1,7.3-1.7
	c17.7-5,23.7-13.1,23.5-31.4c-0.1-10.3-0.2-10.1-10.1-12c-20-3.7-39.3-10-58.5-16.7c-3.6-1.3-7.2-2.5-10.8-3.9
	c-3.8-1.7-8.2-1.7-12,0c-9.7,3.8-20.3,4.6-30.4,2.3c-3-0.6-4.6,0.3-6.2,2.6c-9.3,14.4-8.7,37.5,1.6,51
	C249.9,481.1,253.6,483.8,257.8,485.2z"/>
<path class="st10" d="M245.5,300.1c-0.4-3.8-3.1-6.1-5.2-8.9c-11.5-15-24.5-28.3-42.2-36.3c-2.3-1.1-5.9-0.3-6.8-4
	c-15.4,6-31.4,8.7-47.8,9.3c-2.7,0.1-3.6,1.3-4.3,3.7c-2.6,9.3-4.4,18.8-6.2,28.3c-0.8,4.1,0.1,5.7,4.2,6.9
	c20.6,6,41.1,12.5,61.6,18.8c6.7,2,13.4,4,20,6.3c2.4,0.8,4,0.8,5.5-1.4c1.1-1.7,2.5-3.1,4.2-4.2
	C235.9,314.1,240.7,307.1,245.5,300.1z"/>
<path class="st11" d="M114.6,479.9c0.1-2.6-0.8-5.3,1.1-8.1c2.7,3.6,4.5,7.7,8.4,10.2c3,1.9,4.9,2.2,4.4-2.3
	c-0.3-1.7,0.1-3.4,1.2-4.7c0.3,0.1,0.8,0.1,0.9,0.3c3.1,8.7,9.5,10.5,18.1,10.2c13.2-0.5,26.3-0.5,38.9-5.2
	c6.6-2.4,12.2-6,14.8-13.2c1.2-3.2,0.8-4.9-2.9-6.2c-23.6-8.5-41.7-23.7-54.6-45.2c-2.5-4.3-4.6-8.9-6.4-13.5
	c-1.2-2.9-2.7-3.4-5.3-2c-18.4,9.6-33.2,22.3-35.2,44.4c-1.1,12.1,1.5,23.5,10.9,32.5c1.5,1.6,3.4,2.7,5.5,3.3
	C114.3,480.2,114.5,480,114.6,479.9z"/>
<path class="st10" d="M142,396c9.5,24.3,25.2,41.8,47.8,53c11.9,5.9,24.5,9.4,37.5,11.7c2.6,0.5,4.3,0.3,3.9-3
	c-1.4-12.9,3.4-24.1,10-34.7c1.4-2.3,0.8-2.9-1.3-3.9c-8.5-3.8-17-7.5-23.5-14.8c-2-2.2-5.3-2.5-8.3-3.2c-1.9-0.4-3.5,0.1-3.8,2.1
	c-0.7,4.4-3.6,3.9-6.7,3.4c-17.4-2.7-34.7-6.2-51.9-10C144.9,396.5,143.9,396.4,142,396z"/>
<path class="st8" d="M315.2,193.2c-4.1,7.7-5,16.6-9,24.4c-1.8,3.5,0.9,6.7,2.3,9.8c0.9,2,1.8,3.8,1.8,6.1c-0.1,4,2.6,6.4,5.5,8.4
	c1.6,1.2,2.5,2.3,2.3,4.5c-0.9,7.6,1.3,15.2,6,21.3c0.6,0.6,1,1.3,1.3,2.1c2.9,9.8,10.2,17.3,13.7,26.8c1.8,4.6,4.5,8.8,8,12.3
	c3.7,3.8,7,8.1,8.2,13.4c0.6,2.9,3.4,3.6,5.2,5c5.7,4.7,9.5,11.7,17.1,13.9c1.7,0.5,2.4,2.2,3.5,3.5c2.4,2.8,5.9,4.5,9.6,4.5
	c5,0.1,8.8,3.6,13.2,5.4c2.3,1,4.2,1.8,6.3-0.4c1.7-1.7,3.6-0.8,5.6-0.3c6.6,1.6,13.1,3.4,20,3.3c3.8,0.1,7.2-2.1,8.8-5.6
	c1.1-2.5,2.8-3.3,4.6-4.5c-1.4-0.1-2.8,0.3-4-0.6l-11-0.1c-1.5,1.1-3.6,0.9-5-0.3c-1.3-0.5-3,0.7-4.1-0.8c-0.3-0.1-0.6-0.2-0.9-0.4
	c-1.1,0-2.2,0.2-3-0.8l-1.9-0.3c-0.8,0.2-1.6-0.1-2.1-0.7c-0.3,0-0.7-0.1-0.9-0.3c-0.8,0.1-1.6,0.1-2.1-0.7c-0.3,0-0.6-0.1-0.9-0.3
	c-18.2-6.1-33.2-17-45.6-31.4c-12.1-14-20.4-30.5-28.7-46.9c-4.4-8.7-9.1-17.3-13.8-25.8c-2-3.7-3.7-7.4-3.7-11.7
	c-0.1-1-0.1-1.9-0.2-2.9s0-2-0.1-3c-1.3-1.5-0.9-3.3-1-5.1c0-0.8-0.1-1.6-0.1-2.4c-0.7-0.7-1-1.6-0.8-2.5c-0.1-0.8-0.1-1.7-0.2-2.5
	c-0.7-1-1.1-2.3-0.9-3.5l-0.8-3c-0.2-0.3-0.2-0.7-0.1-1c-0.1-0.8-0.1-1.6-0.2-2.4c-0.7-0.7-1-1.6-0.9-2.6
	C315.9,194.5,315.6,193.9,315.2,193.2z"/>
<path class="st12" d="M342.3,135.2l-0.1-6.8c-0.3-0.4-0.6-0.8-0.9-1.2c0-0.3,0-0.6,0-0.9c-0.3-0.4-0.6-0.8-0.9-1.1
	c-0.1-0.3-0.1-0.6-0.1-0.8l-1-1.2l0,0l-1-1c-0.3-0.3-0.6-0.7-1-1c-0.4-0.7-0.7-1.3-1.1-2l0,0l-1.9-1.1l-2-1.9l-1.1-1
	c-2.5-0.9-4.8-2.3-6.9-4l-2-1l0,0l-1.1-0.9l-10.9-4.2l-1.1-0.9l-1.9-0.1l-1.1-0.9c-6.4-0.7-12.6-2.4-19-2.3l0.3,3.2
	c1.1,1,1.8,2.4,1.9,3.9l0.9,1.1c0.1,0.3,0.1,0.6,0.1,0.9c1.1,0.6,1.8,1.8,1.9,3.1l1.1,2.9c0.3,0.7,0.7,1.4,1,2.1c0,0.3,0,0.6,0,0.8
	l0.9,1.2l2,5.1c2,3.7,3.4,7.7,4,11.9c0,0.6,0.1,1.2,0.1,1.9c1.9,1.2,2,3.2,1.9,5.1c1.6,11.1,8.1,20.4,11,31c0.3,0.7,0.6,1.3,0.9,2
	c0.3,1,0.6,2,1,3c0.1,0.3,0.1,0.7,0.1,1c0.3,1,0.6,2,1,3c0.1,0.3,0.1,0.7,0.1,1l1,2.1l0.9,0.9h2.1c0.8-0.8,1.9-1.2,3-0.8l4-0.2
	c0.6-1.1,1.7-1.9,3-2l7-8l1-1.1c0-0.3,0-0.6,0.1-0.9l0.9-1.1c0.2-8.4-2.6-11.2-11.9-12.1c-1.3,0.1-3.2,0.4-3.2-1.2s1.7-2.3,3.2-2.6
	c1.3-1.9,3-3.6,4.9-4.9l1-1.1l6-9.9C340.7,139.7,341.3,137.4,342.3,135.2z"/>
<path class="st10" d="M161.2,250.8c-6.6-3.7-13.5-6.9-19.6-11.4c-1.4-1-3.3-1.7-3.3-4c-7.9,4.4-14.2,3.7-20.8-2.7
	c-1.9-1.9-3.6-3.9-5-6.1c-1.3-2-2.7-2.5-5-2.3c-13,1.3-25.9,0.3-38.8-1.3c-11.2-1.4-22.4-2.7-33.1-6.7l-0.3,0.1
	c-1.2-0.1-2.4,0-3.3-1l0.1,0.1c-1.3-0.2-2.6-0.2-3.5-1.2l-1.3-0.2l-3.9-0.6v1.2c0.3,0.5,0.6,1,1,1.5l0,0l1.2,1.9l-0.1-0.1
	c0.3,0.4,0.6,0.8,1,1.2l-0.1-0.1l0.9,1.1l0,0l1.5,1.8c14.5,18.1,35,23.8,56.7,26.8C110.6,252.3,136,253,161.2,250.8z"/>
<path class="st13" d="M341.3,258.3c6-1.8,10.1-6.3,14-10.8c6.4-7.6,11.4-16.3,14.7-25.8c2.1-6.1,1.9-12-1.6-17.7
	c-1.3-0.7-2.3-1.7-3-3l-1.1-1c-1.5-0.2-2.9-0.9-3.9-2l-2.1-1l-4-1l-1.1-0.9l-1.9-0.1l-1.2-0.9l-4.8-0.3l-4-0.9l-3-0.2
	c-1.1,0.4-2.2,0.1-3-0.8h-10c-0.5,0.8-1.7,1.1-2.5,0.5c-0.2-0.1-0.4-0.3-0.5-0.5c-1.9,0.2-2.1,1.5-2.1,3c0.1,0.3,0.1,0.7,0.1,1
	c0,0.9,0.1,1.9,0.1,2.8l0.9,1.2c1.2,4.9,2.4,9.7,2.1,14.8l0.9,1.2c0.7,4.4,1.3,8.7,1.9,13.1c0,0.6,0.1,1.3,0.1,2
	c1.3,2.7,2.7,5.3,4,7.9l1.7,2.1c0.4,1.3,0.9,2.6,1.3,3.9l1,1.1c0.1,0.3,0.1,0.6,0.1,0.9l1,2.1l0,0c0.3,0.4,0.6,0.7,1,1L341.3,258.3z
	"/>
<path class="st14" d="M293.4,406c-0.3,2,0.5,2.7,2.2,3.3c22.4,8.2,44.9,15.8,68,21.5c3.2,0.8,4.8,0.6,5-3.4c0.5-7.3,1.6-14.6,5.6-21
	c1.2-1.9,0.8-2.8-1.4-3.5c-18.7-6.5-37.3-13.1-56-19.8c-2.7-1-4.3-0.5-5.7,2c-3.4,6.4-8.4,11.7-14.6,15.3
	C294.5,401.4,293.2,403.6,293.4,406z"/>
<path class="st13" d="M432.3,304.1c-0.9-3.7-1.7-7.4-2.8-11c-2.6-8.2-6.9-11.1-15-8.8c-15.9,4.5-28.9,13.8-39.7,26.2
	c-0.3,0.3-0.2,0.9-0.4,1.4l0,0l1,1l0,0l1,1l2,1.9l1.9,1.1c1.7,0.9,3.1,2.3,4.1,3.9l1,1l0,0l2,1.1l0,0l1,1l0,0l1,1l0,0l2,1l1,0.9
	l2,1.1l0,0l1,1l0,0l2,1l1,0.8l2.1,1.1l1.9,0.9l2.1,1.1l1.9,0.9l2.1,1c1.1-0.1,2.1,0.2,2.9,1l2.1,1c1.1-0.1,2.1,0.2,2.9,0.9
	c1.1,0.1,2.3,0.1,3.1,1.1h0.8c1.2-0.2,2.3,0.2,3.2,1h0.8l3,0.1h1.1c0.6-1.1,1.2-2.1,1.8-3.2C431.3,326.7,432.9,315.5,432.3,304.1z"
	/>
<path class="st13" d="M369.4,307c2.4,0.6,3.8-1,5-2.6c8.5-11,15-23.1,17.6-36.9c1.7-8.9-2.6-14.2-11.6-14.4
	c-11.6-0.2-23.2,2.1-33.9,6.7c-2.1,0.9-3.5,1.8-3.1,4.2l0,0l1,1c0,0.3,0.1,0.6,0.1,0.9c0.3,0.4,0.6,0.8,0.9,1.1
	c0,0.3,0.1,0.6,0.1,0.9l1,1.1c0,0.3,0.1,0.6,0.1,0.9c0.3,0.4,0.6,0.8,0.9,1.1c0,0.3,0.1,0.6,0.1,0.8c0.3,0.4,0.6,0.8,1,1.1
	c1.9,2.3,3.2,5,4,7.9l1,2.1l0,0l1,1c0.1,0.3,0.1,0.6,0.1,0.8l1,1.2l0,0c0.4,0.7,0.7,1.3,1.1,2s0.6,1.3,0.9,1.9l1,1.1l1,1.9l1,1.1
	c0.4,0.6,0.7,1.3,1,1.9l1,2l0,0l1.1,1c1.5,0.8,2.6,2.2,2.9,3.9l1,1.1C368.7,304.6,369.4,305.8,369.4,307z"/>
<path class="st13" d="M433.3,342.1c14.7,0.5,29.1-0.8,42.9-6.7c3.4-1.4,4.4-3.1,3.6-6.8c-1.8-8.4-5-16.5-9.3-24
	c-4.9-8.7-10.9-9.5-18.1-3c-11.6,10.3-16.3,24-19.1,38.6C433.2,340.9,433.3,341.5,433.3,342.1z"/>
<path class="st12" d="M261.2,25.2l-4-1.3l-0.8-0.7c-5.3-2.2-10.6,0.2-15.9,0.1l-1.2,0.9l-8.9,3.1l-2.1,1l0,0l-1,1l-10.1,7
	c0.1,2.2,2.5,2.4,3.3,3.9c0.3,0,0.6,0,0.8,0.1l2,1l0,0l2.1,1l2.9,1.1l1.1,0.9l1.9,1l2,1.1l0,0l1,1l0,0l2.1,1c0.3,0,0.6,0.1,0.9,0.1
	l1.1,0.9c1.3,0,2.4,0.8,3,1.9l1,1.1l0,0l2,1c1.9,1,3.8,2,5,3.9l1.1,1.1c3.1,1,4.9,3.6,6.9,5.9l1,1.1l0,0l1,1l0,0l1,1l0,0l1,1l0,0
	l1,1l0,0l1,1l0,0l1,1l0,0l1.1,1c0.3,0,0.6,0.1,0.9,0.1l2.9-2.3l0.1-1.8l0.1-2c0.1-1.3,0.1-2.7,0.2-4c1.3-5.7,0.7-11.3,0-17
	c-0.1-0.7-0.1-1.4-0.2-2.1c-0.7-3-1.4-6-2.1-9c-0.4-1-0.7-1.9-1.1-2.8l-1-1.2c-0.3-0.6-0.7-1.2-1-1.9l-1-1.1l0,0l-1-1l0,0
	L261.2,25.2z"/>
<path class="st5" d="M211,363.4c-8,5.1-7,18.6-2,23.6c4,4,5.6,4.2,9.9-0.1c0.6,9.3,5.1,15.5,13.3,19c2.6,1.1,5.1,1.9,6.9-2.5
	c2.5,7.7,8.2,9.2,14.3,10.2c3.2,0.5,5.9,1,7.4-2.8c0.8-2,1.7-1.8,3.1,0c4.7,5.9,14.1,5.6,18.8-0.5c1.4-1.8,2.5-3.8,1.4-6
	c-0.9-1.9-3-0.8-4.5-0.8c-21.7,0-40.9-6.5-56.4-22.2C218,376.1,214.4,369.9,211,363.4z"/>
<path class="st1" d="M68.5,221.7c2.8,0.4,5.6,1.3,9-1c-12.6-2-24.4-3.4-35.8-6.6c-4.5-1.3-9.5-1.5-13.2-4.9c2.6,0.7,5.1,1.3,7.7,2
	c25.8,6.9,51.9,10.4,78.5,7.1c20.4-2.5,37.5-11,48.8-29.1c1.4-2.3,2.9-7.4,5.3-5.8c2.6,1.7,0,6.1-1.7,9c-4.7,8-11.3,14.9-19.1,20
	c-1.8,1.2-3.5,2.3-3.5,5c0,6.5-2.1,12.9-6,18.1c-7.9,4.4-14.2,3.7-20.8-2.7c-1.9-1.9-3.6-3.9-5-6.1c-1.3-2-2.7-2.5-5-2.3
	c-13,1.3-25.9,0.3-38.8-1.3c-11.2-1.4-22.4-2.7-33.1-6.7C46.7,218.1,57.6,219.9,68.5,221.7z M117.3,223.5c3.7,6.9,9.9,11,14.4,9.7
	c4.5-1.3,7.6-7.7,7.4-16.1C132.1,220,124.8,222.1,117.3,223.5L117.3,223.5z"/>
<path class="st15" d="M497,292.1c-11,0.1-19.2,9.9-17.1,20c1.1,5.2,2.9,10.2,4.4,15.3c0.8,2.9,2.5,2.7,4.5,1.4
	c10.5-7.3,18.9-16.6,26.2-27.1c2.4-3.5,0-5.2-2.7-6.5C507.1,293,501.5,293,497,292.1z"/>
<path class="st16" d="M39.4,275.5c1.8,3.5,5.7,3.1,8.7,4.2c43.2,15.6,86.6,30.2,130.8,42.8c12.6,3.6,25.1,7.8,37.6,11.7
	c2.8-3,1.3-4.2-2-5.2c-35.6-10.9-71.2-21.9-106.8-32.8C84.9,289.3,62.2,282.4,39.4,275.5z"/>
<path class="st15" d="M524.6,257.1c-13,0-17.3,6-14,17.9c1.4,5,2.8,9.9,5.7,14.2c2.4,3.6,4,3.8,6.1,0.2c4.9-8.7,7.8-18.2,11.4-27.5
	c0.8-1.9-0.1-3.1-2-3.8C529.5,257.3,527,257,524.6,257.1z"/>
<path class="st12" d="M296.3,93c0.1-1.6,1.4-2.6,2.1-3.8l0.9-1.1c0.4-1.3,0.7-2.6,1.1-3.9c0.3-0.4,0.6-0.8,0.9-1.2v-4.6l-0.9-1.2
	c-2.4-3.7-5.8-5.2-10.1-5.1c-6.6,0-13.3,0-19.9,1.2c-1,1.1-1,2.7-0.1,3.9c3.4,4.7,6.9,9.3,10.1,14c4,5.9,8.8,6.9,14.9,2.9L296.3,93z
	"/>
<path class="st16" d="M126.3,378c-0.3-2.2-2.4-2.2-3.8-2.6c-14.2-4-28.2-8.8-42.3-13.3c-26.1-8.4-42.7-25.7-51.2-51.5
	c-3.1-9.3-6.3-18.5-7.7-28.3c0-1-0.7-1.9-1.7-2.2c2.5,19.8,9.1,39,19.2,56.2c7.2,12.2,18.7,19.2,31.4,24.2
	C88.5,367.9,107.3,373.2,126.3,378z"/>
<path class="st1" d="M313.4,355.7l0.1,0.4c-0.2,2.4-0.5,4.7-2.1,6.6v0.4c-0.1,1-0.2,1.9-0.4,2.9l0.3,0.2c2.4-0.2,4.3,1.3,6.4,2.1
	l1.5-2.5c-0.1-0.2-0.1-0.4,0.1-0.5c3.5-15.9,4.3-31.9,1-48l0,0c-0.9-0.4-0.4-2-2.3-2.2c0,3.3,0.2,6.6,0,9.9
	C317.2,335.3,317.5,345.8,313.4,355.7z"/>
<path class="st2" d="M373.1,428.8c0.3,1.2-1.2,3.5,1.1,4.4c2,0.6,4.2-0.2,5.3-2c4.5-6.1,6.6-13,5.2-20.6c-0.4-2-1.2-4.1-3.6-4.2
	c-2.1-0.1-2.9,2-3.6,3.7C374.6,415.8,373.2,422.2,373.1,428.8z"/>
<path class="st15" d="M542.9,233.7c2.6-5.1,5.1-10,7.6-15c1-2,0.1-3-2-3.5c-5.5-1.2-9.1,1.6-9.2,7.2
	C539.3,226.4,540.5,230.4,542.9,233.7z"/>
<path class="st8" d="M575.4,220.1c0.5,8.6,2,17,2,25.7c0,17.9-3.4,35.2-7.4,52.5c-0.5,1.6-0.7,3.2-0.6,4.9
	c3.8-8.1,4.8-16.8,6.4-25.5c3-17.3,4-34.7,1.4-52.1C576.9,223.7,576.9,221.7,575.4,220.1z"/>
<path class="st1" d="M19.4,205.1c-6.6-14.9-8.9-30.6-8.5-46.8c0.1-4.2,1.4-8.2,2.5-12.2c-2.4,1.3-2.6,3.8-3,6
	c-3.1,17.5,0.5,34.1,6.3,50.5C17.1,203.9,17.8,205,19.4,205.1z"/>
<path class="st11" d="M109.6,290.7c5.4,2.7,10.6,3.1,15.4,4.8c2.5,0.9,2.3-1.1,2.3-2.5c0-1.7,1.7-4.3-1.8-4.5
	C120.3,288.1,115.2,287.9,109.6,290.7z"/>
<path class="st1" d="M351.4,388.1c-10.5-4.4-21.8-6.9-32.1-11.9l-2.9-0.3c3.8,4.2,9.5,4.5,14.3,6.3c6.9,2.6,13.6,6,21.1,6.7
	C351.7,388.6,351.5,388.4,351.4,388.1z"/>
<path class="st8" d="M553.2,228.1c0.5-0.4,1.3-0.7,1.6-1.2c2-4.3,3.8-8.1,8.5-2c0.8,1.1,3.3,2.5,4-0.9c-2.4,0.8-3.7-0.4-4.5-2.5
	c-0.9-2.3-1.7-4.6-2.9-7.6C556.9,218.8,554.5,223.2,553.2,228.1z"/>
<path class="st3" d="M565.8,218.4c2.2-1.5,2.9-3.6,3.9-5.5c0.6-1,2.2-2,0.8-3.4c-1.2-1.2-3-1.6-4.6-0.9c-1.5,0.4-2.4,1.9-2.1,3.5
	C564.1,214.2,564.3,216.3,565.8,218.4z"/>
<path class="st1" d="M220.5,40.1c-0.8-1.6-3.2-1.8-3.3-3.9c-4.2-1.6-4.5,3.5-7.3,4.2c2.2,1.5,4.8,2.5,7.5,2.9
	C215.6,39.4,218.7,40.4,220.5,40.1z"/>
<path class="st2" d="M345.3,501.1c2.2,2.2,4.6,0.5,6.4-0.2c4.7-1.8,10.5-1.7,13.5-6.9C358.9,497.2,352.2,499.6,345.3,501.1z"/>
<path class="st9" d="M387.3,430.1c4.6-4.7,6.1-15.9,3-22C391.1,415.7,389.8,423,387.3,430.1z"/>
<path class="st1" d="M269.6,45.2c0.7,5.7,1.3,11.3,0,17c1.2-0.2,1.9-1.3,1.7-2.4v-0.2C270.5,54.8,273.3,49.7,269.6,45.2z"/>
<path class="st1" d="M301.3,137.2c-0.6-4.2-2-8.2-4-11.9C297.4,129.7,298.2,133.8,301.3,137.2z"/>
<path class="st8" d="M569.5,303.2c-2.6,4-4,8.7-4.1,13.4C567.5,312.4,568.9,307.9,569.5,303.2z"/>
<path class="st8" d="M570.2,220c1.8-0.1,3.5-2.4,5.3,0c0-2.1-0.6-4.1-1.8-5.8C572.1,215.9,571,217.9,570.2,220z"/>
<path class="st1" d="M342.3,135.2c-1,2.2-1.7,4.6-2,7C342.6,140.3,345.2,138.5,342.3,135.2z"/>
<path class="st1" d="M270.2,77.2c-0.9-1.2-0.8-2.8,0.1-3.9c-0.4-1.1-0.8-2.2-1.1-3.3l-2.9,2.3C267.6,74,267.6,76.7,270.2,77.2z"/>
<path class="st2" d="M94.3,483.1c0.2,3.4,1.7,5.5,5.3,5.7L94.3,483.1z"/>
<path class="st2" d="M104.4,492c1.3,3.4,3.8,3.9,7,3.1L104.4,492z"/>
<path class="st1" d="M267.3,34.2c0.7,3,1.4,6,2.1,9C271.3,39.6,269.9,36.8,267.3,34.2z"/>
<path class="st2" d="M169.3,499c2.9,0.5,5.8,1.3,8-1.6C174.6,497.8,171.7,497.2,169.3,499z"/>
<path class="st8" d="M565.3,317.1c-2.9,2-3,5-3,8.1C563.9,322.8,564.9,320,565.3,317.1z"/>
<path class="st1" d="M328.3,158.1c-1.5,0.4-3.3,1-3.2,2.6s1.9,1.4,3.2,1.2C328.3,160.7,328.3,159.4,328.3,158.1z"/>
<path class="st2" d="M138.4,499.2c3.5,1.4,7.4,1.4,10.9-0.1C145.7,498.7,142,498.7,138.4,499.2z"/>
<path class="st2" d="M369.3,491.1c2.8-0.1,4.9-1,4.5-4.4L369.3,491.1z"/>
<path class="st9" d="M309.3,369.1c-2,1.3-3.2,3.7-2.8,6.1c0.3-0.1,0.5-0.1,0.8-0.2v0.1l1-1.3c0.4-1.2,0.8-2.5,1.2-3.7
	C309.3,369.8,309.3,369.5,309.3,369.1z"/>
<path class="st2" d="M339.3,502.1c1.6,1.4,3,1.7,3.9-0.7L339.3,502.1z"/>
<path class="st8" d="M544.1,251.1c2.2-1.5,2.2-3.7,2.1-6C544.9,246.8,544.2,248.9,544.1,251.1z"/>
<path class="st1" d="M291.1,120.3c-0.1,1.9,0.7,3.7,2.1,5C293.4,123.2,293.1,121.4,291.1,120.3z"/>
<path class="st1" d="M303.3,144.2c0.1-2,0-3.9-1.9-5.1C301.2,140.9,301.9,142.9,303.3,144.2z"/>
<path class="st9" d="M319.2,365.7l-1.5,2.5l-0.5,3.9C318.8,370.4,319.5,368,319.2,365.7z"/>
<path class="st2" d="M118.4,497.2c1.6,0.7,3,2.5,5,0.8C122,496.4,120.2,497,118.4,497.2z"/>
<path class="st8" d="M538.2,266.1c2.3-1,2.1-3.1,2-5C539.1,262.5,538.4,264.3,538.2,266.1z"/>
<path class="st8" d="M559.4,332.2c-2.5,0.9-2.1,3-2.1,5C558.5,335.8,559.2,334,559.4,332.2z"/>
<path class="st1" d="M294.1,128.2c0,2,0.7,4,2,5.5C296.4,131.6,296.2,129.6,294.1,128.2z"/>
<path class="st11" d="M445.3,346.5c1.2,0.8,2.7,0.5,4,0.6l2.7-0.1c0.1-0.3,0.2-0.6,0.2-0.9L445.3,346.5z"/>
<path class="st1" d="M287.5,104.2l-0.3-3.2c-0.6-0.5-1.3-0.6-1.5,0.2C285.1,102.8,286.2,103.6,287.5,104.2z"/>
<path class="st1" d="M335.3,192.2c0.8,0.8,1.9,1.1,3,0.8C337.7,191,336.7,190.8,335.3,192.2z"/>
<path class="st1" d="M341.3,193.1l4,0.9C344.5,191.6,343,191.8,341.3,193.1z"/>
<path class="st1" d="M324.3,187.4c-1.1-0.3-2.2,0-3,0.8C322.8,189.6,323.8,189.3,324.3,187.4z"/>
<path class="st1" d="M305.3,377.2L304,381c2.1-0.5,2.3-2.1,2.3-3.9l-0.2-0.2L305.3,377.2z"/>
<path class="st8" d="M452.3,346.1c-0.1,0.3-0.1,0.6-0.2,0.9c2.1,0,4.3,0.7,6.2-0.7L452.3,346.1z"/>
<path class="st9" d="M316.4,375.9l2.9,0.3c-1.2-1.2-2.3-2.4-2.2-4.2c-0.3,0-0.6,0.1-0.8,0.2l-0.4,1.9
	C316.1,374.7,316.3,375.2,316.4,375.9z"/>
<path class="st1" d="M23.5,213.5l3.9,0.6C26.3,212.7,25.2,211.2,23.5,213.5z"/>
<path class="st1" d="M322.3,192.2c0.6,0.8,1.7,1.1,2.5,0.5c0,0,0,0,0,0c0.2-0.1,0.4-0.3,0.5-0.5C324.3,191,323.3,191,322.3,192.2z"
	/>
<path class="st2" d="M375.1,485c2.2,0,2.2-1.5,2.1-3.1C376.5,483,375.8,484,375.1,485z"/>
<path class="st11" d="M429.3,346.1c1.4,1.2,3.5,1.4,5,0.3L429.3,346.1z"/>
<path class="st9" d="M382.2,439c2,0,2.1-1.4,2.1-2.9C383.2,436.7,382.5,437.8,382.2,439z"/>
<path class="st1" d="M320.3,215.2c0.1,1.7-0.4,3.6,1,5.1C321.2,218.5,321.9,216.7,320.3,215.2z"/>
<path class="st2" d="M365.2,494c1.5,0,3,0,3-2.1L365.2,494z"/>
<path class="st1" d="M292.3,113.2c-0.1-1.3-0.8-2.5-1.9-3.1C290.3,111.5,290.3,112.9,292.3,113.2z"/>
<path class="st1" d="M287.2,112.2c0.2,1.6,0.9,3.1,2,4.3C289.4,114.8,288.6,113.2,287.2,112.2z"/>
<path class="st1" d="M14.6,143.4c1.2-0.5,2-1.7,2-3C15,140.7,14.3,141.8,14.6,143.4z"/>
<path class="st1" d="M331.3,185.1c-1.3,0.1-2.4,0.9-3,2C329.8,187.2,331.1,187.1,331.3,185.1z"/>
<path class="st8" d="M568.2,223c2,0,2.1-1.4,2-2.9C569.1,220.7,568.4,221.8,568.2,223z"/>
<path class="st9" d="M351.4,388.1c0.1,0.3,0.2,0.5,0.4,0.8l3.5,0.4C354.3,387.8,352.8,388.2,351.4,388.1z"/>
<path class="st2" d="M113.4,495.5c0.8,2,2.6,1.5,4.1,1.6C116.5,495.5,114.8,496,113.4,495.5z"/>
<path class="st9" d="M378.2,446.2c0-1.3,0.1-2.7,0.1-4C376.2,443.5,377.2,444.9,378.2,446.2z"/>
<path class="st2" d="M157.3,499.1c1.4,1.3,2.7,1.3,4-0.1L157.3,499.1z"/>
<path class="st1" d="M315.2,177.2c-0.3-0.7-0.6-1.3-0.9-2C313,176.6,314,176.9,315.2,177.2z"/>
<path class="st8" d="M462.7,345c1-0.6,2.9,1.4,3.2-1.1C464.8,344,463.6,343.9,462.7,345z"/>
<path class="st1" d="M430.2,337.9c-0.6,1.1-1.2,2.1-1.8,3.2C430.3,340.8,430.3,339.4,430.2,337.9z"/>
<path class="st1" d="M28.7,214.4c0.9,1.1,2.2,1.1,3.5,1.2C31.5,213.9,30.1,214.2,28.7,214.4z"/>
<path class="st1" d="M427.3,341.2l-3-0.1C425.2,342.3,426.2,342.4,427.3,341.2z"/>
<path class="st1" d="M266.2,79.2c0.2,1,1,1.8,2,2.2C268,80.3,267.2,79.5,266.2,79.2z"/>
<path class="st1" d="M318.3,204.2c-0.2,1.2,0.1,2.5,0.9,3.5C319.3,206.4,319.5,205.1,318.3,204.2z"/>
<path class="st8" d="M561.4,327.2c-1.2,0.7-1.2,1.9-1.1,3C561.1,329.4,561.5,328.3,561.4,327.2z"/>
<path class="st1" d="M419.5,340c-0.8-0.8-2-1.2-3.1-1.1C417.1,340.2,418.3,340.1,419.5,340z"/>
<path class="st1" d="M423.5,341c-0.9-0.8-2-1.2-3.2-1C421.1,341.2,422.3,341.1,423.5,341z"/>
<path class="st8" d="M459.2,346.1c1.3,0.1,2.5,0,3.3-1.2C461.2,344.9,459.9,344.8,459.2,346.1z"/>
<path class="st9" d="M366.3,393.2c-0.7-1.2-1.9-1.1-3-1.1C364.1,393,365.2,393.3,366.3,393.2z"/>
<path class="st9" d="M390.2,407.5c0.1-1.2,0.2-2.5-1-3.3C389.1,405.4,389.5,406.5,390.2,407.5z"/>
<path class="st1" d="M310.1,174.2c-0.1,1.2,0.3,2.5,1.1,3.4C311.3,176.4,311.5,175,310.1,174.2z"/>
<path class="st1" d="M293.1,125.3c-0.1,1.1,0.3,2.2,1.1,3C294.3,127.1,294.4,125.9,293.1,125.3z"/>
<path class="st1" d="M217.3,43.2c0.8,0.8,1.9,1.2,3,1.1C219.6,43.1,218.4,43.2,217.3,43.2z"/>
<path class="st1" d="M321.4,223.2c0.1,1,0.1,1.9,0.2,2.9c0.8-0.6,0.9-1.8,0.2-2.5C321.7,223.4,321.5,223.3,321.4,223.2z"/>
<path class="st8" d="M551.1,233.1c1.2-0.7,1.1-1.8,1.1-3C551.4,230.9,551,232,551.1,233.1z"/>
<path class="st8" d="M549.1,238.1c1.3-0.7,1.2-1.9,1.1-3C549.4,235.8,548.9,237,549.1,238.1z"/>
<path class="st1" d="M332.1,241.1l-1.8-2C330.3,240.2,331,241,332.1,241.1L332.1,241.1z"/>
<path class="st8" d="M547.1,243.1c1.3-0.7,1.2-1.9,1.1-3C547.3,240.8,546.9,242,547.1,243.1z"/>
<path class="st8" d="M542.1,256.1c1.2-0.7,1.1-1.9,1.1-3C542.4,253.9,542,255,542.1,256.1z"/>
<path class="st8" d="M541.1,259.1c1.3-0.7,1.2-1.9,1.1-3C541.3,256.8,540.9,258,541.1,259.1z"/>
<path class="st1" d="M32.1,215.5c0.9,0.9,2.2,0.9,3.3,1C34.6,215.1,33.4,215.1,32.1,215.5z"/>
<path class="st8" d="M537.2,269.1c1.2-0.7,1.1-1.9,1.1-3C537.5,266.9,537.1,268,537.2,269.1z"/>
<path class="st8" d="M533.1,279.1c1.2-0.7,1.2-1.9,1.1-3C533.4,276.9,533,278,533.1,279.1z"/>
<path class="st1" d="M294.3,118.2c-0.3-0.7-0.7-1.4-1-2.1C293.3,116.9,293.7,117.7,294.3,118.2z"/>
<path class="st1" d="M269.1,82.3c0,0.8,0.4,1.6,1.2,2C270.4,83.4,269.9,82.6,269.1,82.3z"/>
<path class="st1" d="M311.3,178.1l0.9,2.5C312.4,179.7,312,178.7,311.3,178.1z"/>
<path class="st1" d="M334.3,118.2l1.9,1.1C335.9,118.6,335.1,118.1,334.3,118.2z"/>
<path class="st1" d="M290.1,118.3c-0.1,0.8,0.3,1.7,1,2.1C291.4,119.5,290.9,118.6,290.1,118.3z"/>
<path class="st1" d="M336.2,119.2c0.4,0.7,0.7,1.3,1.1,2C337.4,120.4,337,119.6,336.2,119.2z"/>
<path class="st1" d="M272.1,86.3c0,0.8,0.4,1.6,1.1,2C273.4,87.5,272.9,86.6,272.1,86.3z"/>
<path class="st1" d="M228.3,28.3l2.1-1C229.6,27.2,228.8,27.5,228.3,28.3z"/>
<path class="st1" d="M316.3,195.2c-0.1,0.9,0.2,1.9,0.9,2.6C317.4,196.8,317.1,195.8,316.3,195.2z"/>
<path class="st1" d="M387.3,323.1l-2-1.1C385.7,322.8,386.5,323.2,387.3,323.1z"/>
<path class="st8" d="M562.3,325.2c-0.7,0.4-1.1,1.2-1,2.1C562,326.8,562.4,326,562.3,325.2z"/>
<path class="st1" d="M391.3,326.1l-2-1C389.8,325.8,390.5,326.2,391.3,326.1z"/>
<path class="st1" d="M362.4,298.1l-1-2C361.3,296.9,361.7,297.7,362.4,298.1z"/>
<path class="st1" d="M394.3,328.1l-2-1.1C392.7,327.8,393.5,328.2,394.3,328.1z"/>
<path class="st1" d="M397.3,330.1l-2-1C395.8,329.8,396.5,330.2,397.3,330.1z"/>
<path class="st8" d="M560.3,330.2c-0.7,0.4-1.1,1.2-1,2.1C560,331.8,560.4,331,560.3,330.2z"/>
<path class="st1" d="M400.4,332.1l-2.1-1.1C398.7,331.8,399.6,332.2,400.4,332.1z"/>
<path class="st8" d="M532.1,281.1c0.8-0.4,1.2-1.2,1-2.1C532.4,279.4,532,280.3,532.1,281.1z"/>
<path class="st1" d="M404.4,334.1l-2.1-1.1C402.7,333.7,403.6,334.2,404.4,334.1z"/>
<path class="st1" d="M408.5,336.1l-2.1-1C406.8,335.8,407.6,336.2,408.5,336.1z"/>
<path class="st8" d="M557.3,337.2c-0.7,0.4-1.1,1.2-1,2C556.7,338.5,557,337.8,557.3,337.2z"/>
<path class="st1" d="M413.5,338.1l-2.1-1C411.8,337.8,412.6,338.2,413.5,338.1z"/>
<path class="st8" d="M534.2,276.1c0.7-0.4,1.1-1.2,1-2.1C534.9,274.7,534.5,275.4,534.2,276.1z"/>
<path class="st8" d="M556.3,339.2c-0.7,0.4-1.1,1.2-1,2C556,340.7,556.4,340,556.3,339.2z"/>
<path class="st1" d="M433.3,342.1c0-0.7,0-1.3-0.1-2C432.3,340.9,432.4,341.5,433.3,342.1z"/>
<path class="st1" d="M312.3,181.1c0.3,0.8,0.6,1.6,0.9,2.5C313.4,182.7,313.1,181.7,312.3,181.1z"/>
<path class="st8" d="M555.4,341.2c-0.7,0.4-1.1,1.2-1,2C555.1,342.7,555.4,342,555.4,341.2z"/>
<path class="st1" d="M27.8,209l-2.5-1C25.9,208.8,26.9,209.2,27.8,209z"/>
<path class="st8" d="M535.2,274.1c0.8-0.5,1.2-1.5,1-2.5C535.5,272.3,535.1,273.2,535.2,274.1z"/>
<path class="st8" d="M554.4,343.2c-0.8,0.4-1.2,1.3-1,2.2C553.7,344.7,554.1,343.9,554.4,343.2z"/>
<path class="st1" d="M419.4,343.8l1.9,0.3C420.8,343.3,420.2,343.1,419.4,343.8z"/>
<path class="st8" d="M536.2,271.2c0.7-0.5,1.1-1.3,1-2.1C536.6,269.6,536.2,270.3,536.2,271.2z"/>
<path class="st8" d="M540.2,261.1c0.7-0.4,1.1-1.2,1-2.1C540.5,259.5,540.1,260.3,540.2,261.1z"/>
<path class="st1" d="M25.7,218l-1.2-1.9C24.3,216.9,24.8,217.8,25.7,218z"/>
<path class="st8" d="M543.2,253.1c0.7-0.4,1.1-1.2,1-2.1C543.5,251.5,543.1,252.3,543.2,253.1z"/>
<path class="st1" d="M335.4,249.1l-1-2.1C334.3,247.8,334.7,248.7,335.4,249.1z"/>
<path class="st8" d="M546.2,245.1c0.7-0.4,1.1-1.3,1-2.1C546.4,243.5,546,244.3,546.2,245.1z"/>
<path class="st8" d="M548.2,240.1c0.7-0.4,1.1-1.2,1-2.1C548.4,238.5,548,239.3,548.2,240.1z"/>
<path class="st8" d="M550.2,235.1c0.7-0.4,1.1-1.2,1-2.1C550.5,233.5,550.1,234.3,550.2,235.1z"/>
<path class="st1" d="M326.3,231.2c0-0.6-0.1-1.3-0.1-2C325.3,229.9,325.5,230.6,326.3,231.2z"/>
<path class="st8" d="M552.2,230.1c0.7-0.4,1.1-1.2,1-2C552.9,228.8,552.5,229.4,552.2,230.1z"/>
<path class="st1" d="M28.8,222l-1.5-1.8C27.3,221.1,28,221.8,28.8,222z"/>
<path class="st1" d="M356.4,288.1l-1.1-2C355.3,286.9,355.7,287.7,356.4,288.1z"/>
<path class="st1" d="M308.2,170.2l1,2.3C309.4,171.6,309,170.7,308.2,170.2z"/>
<path class="st1" d="M310.4,368.2c0.3-0.7,0.6-1.4,1-2l-0.3-0.2c-0.2,0.1-0.5,0.2-0.7,0.3l0,0c0,0.6-0.1,1.3-0.1,1.9L310.4,368.2z"
	/>
<path class="st1" d="M282,102.2c0.4,0.7,0.8,1.4,1.2,2.1C283.4,103.5,282.8,102.6,282,102.2z"/>
<path class="st1" d="M309.3,369.1c0,0.3,0.1,0.7,0.1,1l1-1.9l-0.1-0.1c-0.3,0.2-0.5,0.3-0.8,0.4C309.5,368.7,309.4,369,309.3,369.1z
	"/>
<path class="st1" d="M269.4,66.2l-0.1,2C270.2,67.6,270.3,66.9,269.4,66.2z"/>
<path class="st1" d="M319.4,210.2c-0.2,0.9,0.1,1.9,0.8,2.5C320.4,211.8,320.1,210.8,319.4,210.2z"/>
<path class="st1" d="M315.9,374l0.4-1.9c-0.6,0.2-0.9,0.8-0.7,1.4C315.7,373.7,315.8,373.9,315.9,374z"/>
<path class="st1" d="M306.2,165.2l1,2.4C307.4,166.7,307,165.7,306.2,165.2z"/>
<path class="st1" d="M307.2,375c-0.3,0.1-0.5,0.2-0.8,0.2v-0.1c-0.1,0.6-0.2,1.2-0.3,1.8l0.2,0.2C307,376.6,307.3,375.8,307.2,375z"
	/>
<path class="st1" d="M280.1,98.3c0,0.9,0.4,1.8,1.1,2.3C281.4,99.7,281,98.7,280.1,98.3z"/>
<path class="st1" d="M245.4,59.2l1.9,1.2C247,59.6,246.2,59.2,245.4,59.2z"/>
<path class="st1" d="M18.5,138.4l1.9-1.2C19.5,137.1,18.8,137.6,18.5,138.4z"/>
<path class="st1" d="M264.1,76.3c0,0.8,0.5,1.5,1.2,1.9C265.4,77.4,264.9,76.6,264.1,76.3z"/>
<path class="st1" d="M303.2,382l-1.1,2C302.9,383.7,303.4,382.8,303.2,382z"/>
<path class="st1" d="M241.3,56.2l1.9,1.2C242.9,56.6,242.2,56.1,241.3,56.2z"/>
<path class="st1" d="M300.3,386.1c-0.5,0.6-1,1.2-1.5,1.9C299.7,387.8,300.3,387,300.3,386.1z"/>
<path class="st1" d="M278.1,95.3c0,0.8,0.4,1.6,1.1,2C279.4,96.4,278.9,95.6,278.1,95.3z"/>
<path class="st9" d="M357.3,390.1c-0.5-0.7-1.3-1-2.1-0.9C355.7,389.9,356.5,390.2,357.3,390.1z"/>
<path class="st9" d="M360.3,391.2c-0.6-0.8-1.5-1.1-2.4-0.9L360.3,391.2z"/>
<path class="st1" d="M353.4,283.1l-1-2.1C352.3,281.9,352.7,282.7,353.4,283.1z"/>
<path class="st9" d="M368.3,394l-2.1-0.9C366.7,393.8,367.5,394.1,368.3,394z"/>
<path class="st9" d="M371.3,395.1c-0.5-0.7-1.4-1-2.3-0.9L371.3,395.1z"/>
<path class="st9" d="M374.3,396.1c-0.5-0.7-1.4-1.1-2.3-0.9L374.3,396.1z"/>
<path class="st9" d="M377.3,397.2c-0.6-0.8-1.5-1.1-2.4-0.9L377.3,397.2z"/>
<path class="st1" d="M237.2,53.3c0.4,0.7,1.2,1.2,2,1.1C238.9,53.6,238.1,53.1,237.2,53.3z"/>
<path class="st9" d="M380.3,398.2c-0.6-0.8-1.5-1.2-2.5-1C378.5,397.9,379.4,398.3,380.3,398.2z"/>
<path class="st9" d="M382.3,399.1c-0.5-0.7-1.3-1.1-2.1-1C380.7,398.8,381.5,399.2,382.3,399.1z"/>
<path class="st9" d="M384.3,400.1l-2-1L384.3,400.1z"/>
<path class="st1" d="M235.2,52.2l2.1,1.1C237,52.6,236.1,52.1,235.2,52.2z"/>
<path class="st9" d="M386.3,401.2c-0.4-0.7-1.2-1.1-2-1.1L386.3,401.2z"/>
<path class="st1" d="M380.2,317.2l-1.9-1.1C378.7,316.7,379.4,317.2,380.2,317.2z"/>
<path class="st1" d="M358.2,197.2l2.1,1C359.9,197.5,359.1,197.1,358.2,197.2z"/>
<path class="st1" d="M244.4,53.2l-2-1C242.8,52.8,243.6,53.2,244.4,53.2z"/>
<path class="st1" d="M296.1,134.1c0,1,0.3,2,1.1,2.6C297.4,135.7,297,134.7,296.1,134.1z"/>
<path class="st1" d="M228.3,48.2l2,1.1C229.9,48.6,229.2,48.2,228.3,48.2z"/>
<path class="st1" d="M322.3,110.2l2,1L322.3,110.2z"/>
<path class="st1" d="M226.3,47.2l2,1C227.9,47.5,227.1,47.2,226.3,47.2z"/>
<path class="st1" d="M314.4,188.2v2c0.3,0.1,0.5,0.3,0.8,0.4C315.4,189.7,315.1,188.8,314.4,188.2z"/>
<path class="st1" d="M236.5,48.1l-2.1-1C234.8,47.8,235.6,48.2,236.5,48.1z"/>
<path class="st9" d="M386.3,432.1l1-2L386.3,432.1z"/>
<path class="st1" d="M224.3,46.2l2,1C225.9,46.6,225.1,46.2,224.3,46.2z"/>
<path class="st9" d="M384.2,436.1c0.7-0.4,1.1-1.1,1.1-1.9L384.2,436.1z"/>
<path class="st1" d="M276.1,92.3l1.1,2C277.4,93.4,276.9,92.6,276.1,92.3z"/>
<path class="st1" d="M13.5,145.7c0.7-0.6,1.1-1.5,1.1-2.4C13.6,143.8,13.5,144.7,13.5,145.7z"/>
<path class="st8" d="M531.1,283.1c0.8-0.3,1.2-1.2,1.1-2C531.8,281.7,531.4,282.4,531.1,283.1z"/>
<path class="st1" d="M222.2,45.3l2.1,1C223.9,45.6,223.1,45.2,222.2,45.3z"/>
<path class="st1" d="M233.3,46.2l-2-1.1C231.7,45.8,232.5,46.2,233.3,46.2z"/>
<path class="st1" d="M220.2,44.3c0.5,0.7,1.3,1.1,2.1,1C221.9,44.6,221.1,44.2,220.2,44.3z"/>
<path class="st1" d="M305.1,163.2c0.4,0.7,0.7,1.4,1.1,2.1C306.4,164.4,305.9,163.6,305.1,163.2z"/>
<path class="st2" d="M377.1,482.1c0.8-0.4,1.3-1.2,1.1-2.1L377.1,482.1z"/>
<path class="st1" d="M225.4,42.2l-2.1-1C223.8,41.8,224.6,42.2,225.4,42.2z"/>
<path class="st1" d="M223.3,41.2l-2-1L223.3,41.2z"/>
<path class="st2" d="M373.9,486.9c1.1-0.1,1.3-1,1.3-1.9C374.8,485.6,374.3,486.2,373.9,486.9z"/>
<path class="st1" d="M206.8,39.3l2.5,1C208.8,39.5,207.8,39.1,206.8,39.3z"/>
<path class="st2" d="M99.5,488.8c0.3,1,1.1,1.2,2,1.3L99.5,488.8z"/>
<path class="st1" d="M203.8,38.3c0.7,0.7,1.6,1.1,2.6,1C205.8,38.5,204.8,38.1,203.8,38.3z"/>
<path class="st1" d="M199.8,37.3c0.7,0.7,1.6,1,2.6,0.8v-1L199.8,37.3z"/>
<path class="st1" d="M274.1,89.3c0,0.8,0.4,1.6,1.2,2C275.4,90.4,274.9,89.6,274.1,89.3z"/>
<path class="st2" d="M153.4,499.1c0.6,0.9,1.3,0.9,2,0H153.4z"/>
<path class="st9" d="M363.3,392.2c-0.6-0.8-1.5-1.1-2.4-1L363.3,392.2z"/>
<path class="st1" d="M348.3,273.1c-0.3-0.4-0.6-0.8-1-1.1C347.7,272.4,348,272.8,348.3,273.1z"/>
<path class="st1" d="M262.2,74.3l1.1,1.1L262.2,74.3z"/>
<path class="st1" d="M263.2,75.3l1,1.1L263.2,75.3z"/>
<path class="st1" d="M300.3,77.2l0.9,1.2L300.3,77.2z"/>
<path class="st1" d="M265.3,78.2l1,1.1L265.3,78.2z"/>
<path class="st1" d="M268.1,81.3l1,1.1L268.1,81.3z"/>
<path class="st1" d="M354.3,284.1l-1-1L354.3,284.1z"/>
<path class="st1" d="M301.3,83c-0.3,0.4-0.6,0.8-0.9,1.2C300.7,83.8,301,83.4,301.3,83z"/>
<path class="st1" d="M355.3,286.1l-1-1.2L355.3,286.1z"/>
<path class="st1" d="M270.2,84.2l1,1.1L270.2,84.2z"/>
<path class="st1" d="M358.3,291.1l-1-1.1C357.7,290.4,358,290.8,358.3,291.1z"/>
<path class="st1" d="M271.2,85.2l1,1.1L271.2,85.2z"/>
<path class="st1" d="M360.3,294.1l-1-1.1L360.3,294.1z"/>
<path class="st1" d="M363.4,299.1l-1.1-1L363.4,299.1z"/>
<path class="st1" d="M299.3,88.1l-0.9,1.1L299.3,88.1z"/>
<path class="st1" d="M367.3,304.1l-1-1.1L367.3,304.1z"/>
<path class="st1" d="M273.2,88.2l1,1.1C273.9,89,273.5,88.6,273.2,88.2z"/>
<path class="st1" d="M375.3,313.1l-1-1L375.3,313.1z"/>
<path class="st1" d="M376.4,314.1l-1-1L376.4,314.1z"/>
<path class="st1" d="M275.2,91.2l1,1.1L275.2,91.2z"/>
<path class="st1" d="M296.3,93l-1,1.2L296.3,93z"/>
<path class="st1" d="M277.2,94.2c0.3,0.4,0.6,0.8,1,1.1L277.2,94.2z"/>
<path class="st1" d="M385.3,322.1l-1-1L385.3,322.1z"/>
<path class="st1" d="M388.3,324.1l-1-1L388.3,324.1z"/>
<path class="st1" d="M389.3,325.1l-1-1L389.3,325.1z"/>
<path class="st1" d="M279.2,97.2l1,1.1L279.2,97.2z"/>
<path class="st1" d="M395.3,329.1l-1-1L395.3,329.1z"/>
<path class="st1" d="M306.2,103.2l1.1,0.9L306.2,103.2z"/>
<path class="st1" d="M309.2,104.2l1.1,0.9L309.2,104.2z"/>
<path class="st1" d="M290.3,109.2l-0.9-1.1L290.3,109.2z"/>
<path class="st1" d="M321.2,109.2l1.1,0.9L321.2,109.2z"/>
<path class="st1" d="M331.2,115.2l1.1,1L331.2,115.2z"/>
<path class="st1" d="M289.4,117.2c0.3,0.4,0.5,0.8,0.8,1.2C290,118,289.7,117.6,289.4,117.2z"/>
<path class="st1" d="M295.3,120.2l-0.9-1.2L295.3,120.2z"/>
<path class="st1" d="M413.3,341.9c0.3,0.2,0.6,0.3,0.9,0.3C414.1,341.7,413.8,341.5,413.3,341.9z"/>
<path class="st1" d="M338.3,122.2l1,1L338.3,122.2z"/>
<path class="st1" d="M416.3,342.9c0.3,0.2,0.6,0.3,0.9,0.3C417.1,342.7,416.8,342.5,416.3,342.9z"/>
<path class="st1" d="M339.3,123.2l1,1.2L339.3,123.2z"/>
<path class="st1" d="M340.3,125.2c0.3,0.4,0.6,0.8,0.9,1.1L340.3,125.2z"/>
<path class="st1" d="M341.3,127.2c0.3,0.4,0.6,0.8,0.9,1.2C341.9,128,341.6,127.6,341.3,127.2z"/>
<path class="st1" d="M424.3,344.9c0.3,0.1,0.6,0.3,0.9,0.4C425.1,344.8,424.9,344.6,424.3,344.9z"/>
<path class="st1" d="M297.3,138.2l0.9,1.6C298,139.2,297.7,138.7,297.3,138.2z"/>
<path class="st1" d="M17.5,139.4l1-1.1L17.5,139.4z"/>
<path class="st1" d="M16.5,140.4c0.6,0,1-0.4,1-1v-0.1L16.5,140.4z"/>
<path class="st1" d="M298.3,141.2l0.2,1c0.1-0.2,0.1-0.5,0.1-0.7C298.6,141.3,298.4,141.2,298.3,141.2z"/>
<path class="st1" d="M299.2,144.5c-0.1,0.2-0.1,0.4,0.2,0.5C299.3,144.9,299.2,144.7,299.2,144.5z"/>
<path class="st1" d="M299.4,145.2l0.9,1.6L299.4,145.2z"/>
<path class="st1" d="M300.3,148.2c0.1,0.3,0.1,0.6,0.2,1c0.1-0.2,0.1-0.5,0.1-0.7C300.6,148.3,300.4,148.2,300.3,148.2z"/>
<path class="st1" d="M334.3,152l-1,1.1L334.3,152z"/>
<path class="st1" d="M301.3,152.2c0,0.3,0.1,0.7,0.2,1c0.1-0.2,0.1-0.5,0.2-0.7C301.6,152.3,301.4,152.2,301.3,152.2z"/>
<path class="st1" d="M309.3,173.2l0.8,1.2L309.3,173.2z"/>
<path class="st1" d="M340.3,174l-0.9,1.1L340.3,174z"/>
<path class="st1" d="M339.3,176l-1,1.1L339.3,176z"/>
<path class="st1" d="M316.3,181.2c0-0.3,0-0.7-0.1-1c-0.1,0.2-0.2,0.5-0.2,0.7C316,181,316.2,181.1,316.3,181.2z"/>
<path class="st1" d="M317.3,185.2c0-0.3,0-0.7-0.1-1c-0.1,0.2-0.2,0.5-0.2,0.7C317,185,317.2,185.1,317.3,185.2z"/>
<path class="st1" d="M229.4,44.2l-1.1-0.9L229.4,44.2z"/>
<path class="st1" d="M315.3,191.1c0,0.3,0.1,0.7,0.2,1c0.1-0.2,0.1-0.5,0.2-0.7C315.6,191.3,315.4,191.2,315.3,191.1z"/>
<path class="st1" d="M350.1,194.2l1.2,0.9L350.1,194.2z"/>
<path class="st1" d="M353.2,195.2l1.1,0.9L353.2,195.2z"/>
<path class="st1" d="M308.2,373.8l-1,1.3L308.2,373.8z"/>
<path class="st1" d="M320.3,196.2c0-0.3,0-0.7-0.1-1c-0.1,0.2-0.2,0.5-0.2,0.7C320,196,320.2,196.1,320.3,196.2z"/>
<path class="st1" d="M321.3,200.1l-0.9-1.2L321.3,200.1z"/>
<path class="st1" d="M364.2,200.2l1.1,1L364.2,200.2z"/>
<path class="st1" d="M317.4,200.2c-0.1,0.3,0,0.7,0.1,1c0.1-0.2,0.1-0.5,0.2-0.7C317.7,200.3,317.5,200.3,317.4,200.2z"/>
<path class="st1" d="M304.2,381c-0.3,0.4-0.7,0.7-1,1.1C303.5,381.7,303.9,381.3,304.2,381z"/>
<path class="st1" d="M256.4,23.2l0.8,0.7L256.4,23.2z"/>
<path class="st1" d="M239.3,24.2l1.2-0.9L239.3,24.2z"/>
<path class="st1" d="M302.2,384l-1.1,1.1L302.2,384z"/>
<path class="st1" d="M20.8,206.1l-1.4-0.9L20.8,206.1z"/>
<path class="st1" d="M22.8,207.1l-1.4-0.8L22.8,207.1z"/>
<path class="st1" d="M24.9,208.1l-1.5-0.9L24.9,208.1z"/>
<path class="st1" d="M261.2,25.2l1.1,1L261.2,25.2z"/>
<path class="st1" d="M262.3,26.2l1,1L262.3,26.2z"/>
<path class="st1" d="M319.3,188.2l-0.9-0.9L319.3,188.2z"/>
<path class="st1" d="M263.3,27.2l1,1.1L263.3,27.2z"/>
<path class="st1" d="M227.3,29.2l1-1L227.3,29.2z"/>
<path class="st1" d="M265.3,30.2l1,1.2L265.3,30.2z"/>
<path class="st1" d="M324.2,216.1l-0.9-1.1L324.2,216.1z"/>
<path class="st9" d="M387.3,402.1l-1.1-1L387.3,402.1z"/>
<path class="st9" d="M388.3,403.2l-1-1L388.3,403.2z"/>
<path class="st9" d="M389.2,404.2l-1-1.1L389.2,404.2z"/>
<path class="st1" d="M234.4,47.1l-1-1L234.4,47.1z"/>
<path class="st1" d="M24.5,216.1c-0.3-0.5-0.6-1-1-1.5C23.8,215.2,24.1,215.7,24.5,216.1z"/>
<path class="st1" d="M238.4,49.2l-1.1-0.9L238.4,49.2z"/>
<path class="st1" d="M26.5,219.1c-0.3-0.4-0.6-0.8-1-1.2C25.9,218.3,26.2,218.7,26.5,219.1z"/>
<path class="st1" d="M27.3,220.2l-0.9-1.2L27.3,220.2z"/>
<path class="st1" d="M242.4,52.2l-1-1.1L242.4,52.2z"/>
<path class="st1" d="M239.1,54.3l1.1,1L239.1,54.3z"/>
<path class="st1" d="M240.2,55.2l1.1,0.9L240.2,55.2z"/>
<path class="st8" d="M567.2,224.1l1-1L567.2,224.1z"/>
<path class="st1" d="M250.5,58.1l-1.1-1.1L250.5,58.1z"/>
<path class="st1" d="M243.2,57.3l1.1,1L243.2,57.3z"/>
<path class="st9" d="M385.3,434.1l0.9-1.5L385.3,434.1z"/>
<path class="st1" d="M247.2,60.3l1.1,1.1L247.2,60.3z"/>
<path class="st1" d="M258.4,65.2l-1-1.1L258.4,65.2z"/>
<path class="st9" d="M381.2,440.1l1-1L381.2,440.1z"/>
<path class="st9" d="M380.2,441.1l1-1L380.2,441.1z"/>
<path class="st9" d="M378.8,442l1.4-1L378.8,442z"/>
<path class="st1" d="M259.4,66.2c-0.3-0.3-0.7-0.7-1-1C258.7,65.5,259,65.8,259.4,66.2z"/>
<path class="st1" d="M252.9,65.3l1.4,1L252.9,65.3z"/>
<path class="st1" d="M260.4,67.2l-1-1L260.4,67.2z"/>
<path class="st1" d="M254.2,66.2l1.1,1.2L254.2,66.2z"/>
<path class="st1" d="M334.3,246.1l-1-1.1L334.3,246.1z"/>
<path class="st1" d="M336.3,250.1c-0.3-0.4-0.7-0.7-1-1C335.7,249.5,336,249.8,336.3,250.1z"/>
<path class="st11" d="M114.2,480.3l0.7,0.3l-0.2-0.7L114.2,480.3z"/>
<path class="st1" d="M261.4,68.2l-1-1L261.4,68.2z"/>
<path class="st1" d="M262.4,69.2l-1-1L262.4,69.2z"/>
<path class="st1" d="M263.4,70.2l-1-1L263.4,70.2z"/>
<path class="st1" d="M264.4,71.2l-1-1L264.4,71.2z"/>
<path class="st1" d="M265.5,72.1l-1.1-1L265.5,72.1z"/>
<path class="st1" d="M344.3,265.1l-1-1L344.3,265.1z"/>
<path class="st1" d="M345.3,267.1c-0.3-0.4-0.6-0.7-0.9-1.1C344.7,266.4,345,266.8,345.3,267.1z"/>
<path class="st1" d="M346.3,269.1l-1-1.1L346.3,269.1z"/>
<path class="st2" d="M127.3,498c0.3,0.5,0.6,0.6,1,0.1L127.3,498z"/>
<path class="st1" d="M261.1,73.3l1.2,1.1L261.1,73.3z"/>
<path class="st1" d="M347.3,271.1c-0.3-0.4-0.6-0.8-0.9-1.1C346.7,270.4,347,270.8,347.3,271.1z"/>
<path class="st12" d="M179.3,12.2l-5-4l-1.1-1l-4.9-2l-1.2-0.9l-2.8-0.1h-3l-3,0.9l-1.9,0.1l0,0l-1,1l-1.9,1l-2,1l0,0
	c-0.3,0.4-0.7,0.7-1,1.1l-6.9,6.9l-1.1,1l0,0l-1,1.2c-2.4,3.9-4.7,7.9-7.1,11.8c-0.1,1.5,0,2.9,2,3.1l2.9-0.2
	c2.9-2.7,6.8-1.6,10.1-2.7l2.1-0.1l6.9-0.9l3.1-0.1c8.1,0,16.2-0.7,24.3,0.8c2.2,0.4,4.7,0.5,6.8-0.9c-0.1-0.3-0.2-0.6-0.2-0.9
	c-1.4-0.9-2.2-2.4-2-4l0,0l-1-1l0,0l-1-2l0,0l-1-1l0,0l-1-1l0,0l-1-1l-1.9-2c-0.4-0.6-0.7-1.3-1.1-1.9l0,0l-1-1l0,0
	C180.6,12.9,180,12.6,179.3,12.2z"/>
<path class="st12" d="M116.3,39.2v-0.9l-2-1.1l0,0l-1.2-0.9c-0.3,0-0.5,0-0.8-0.1l-1.2-0.9c-0.3,0-0.5,0-0.8-0.1l-1.2-1
	c-0.3,0-0.5,0-0.8,0l-1.2-0.9c-0.3,0-0.5,0-0.8,0l-2.1-1c-2.4-0.6-4.7-1.3-7.1-1.8c-7.3-1.7-12.2,1.7-15.8,7.8
	c-0.3,0.7-0.7,1.4-1,2.1c-0.4,1.3-0.7,2.6-1.1,4l-0.9,1.2c0.2,1.7-0.2,3.3-1,4.8c-0.1,1-0.1,2-0.1,3c-0.3,2-0.6,4-0.9,6
	c1.3,1,2.6,0.1,4,0l3-2c0.6-1.1,1.7-1.9,3-2l0,0c0.6-1.2,1.7-1.9,3-2c1-1.1,2.4-1.8,3.9-2l1.1-1l0,0l2-1l1.9-1c0.8-0.8,1.9-1.2,3-1
	l0,0l1-1l0,0l1-0.9c0.3-0.1,0.6-0.1,0.9-0.1c0.8-0.8,1.9-1.2,3-1l0,0c0.4-0.7,1.2-1.1,2-1l0,0c0.4-0.7,1.2-1.1,2-1l0,0
	c0.8-1,1.9-1,3-1l0,0L116.3,39.2z"/>
<path class="st1" d="M192.5,29.2c-2.1,1.4-4.5,1.3-6.8,0.9c-8.1-1.5-16.2-0.8-24.3-0.8c5.7,1.9,11.8,0.5,17.6,1.8
	c3.5,0.8,7.2,0,10.8,0.9C192.6,32.7,193.2,31.8,192.5,29.2z"/>
<path class="st1" d="M156.3,34.3l25,0.2c-1-1.6-2.6-1.3-4-1.2C170.3,33.7,163.2,31.9,156.3,34.3z"/>
<path class="st1" d="M149.3,30.4c-3.3,1.1-7.2,0-10.1,2.7C142.6,32.5,146.5,33.5,149.3,30.4z"/>
<path class="st1" d="M158.3,29.4l-6.9,0.9C153.9,31.4,156.3,32.3,158.3,29.4z"/>
<path class="st1" d="M137.4,37.4c2-0.5,4.2,0.1,6-1C141,34.3,139.2,36,137.4,37.4z"/>
<path class="st1" d="M136.3,33.3c-2-0.2-2.1-1.6-2-3.1c-1,0.9-2.1,2.1-1.4,3.3S135.2,34.3,136.3,33.3z"/>
<path class="st1" d="M183.5,34.8l5.8,0.6C187.6,33.4,185.5,34.1,183.5,34.8z"/>
<path class="st1" d="M80.3,59.2c-1.3,0.1-2.6,1.1-4,0C77.7,62,79.1,62,80.3,59.2z"/>
<path class="st1" d="M130.4,39.3l4.9-1.4C133.3,37,131.8,38.1,130.4,39.3z"/>
<path class="st1" d="M190.3,24.2c-0.2,1.6,0.6,3.2,2,4.1C192.3,26.7,191.6,25.2,190.3,24.2z"/>
<path class="st1" d="M116.3,39.2l-2,1.9C115.4,40.9,117.6,41.8,116.3,39.2z"/>
<path class="st1" d="M86.3,55.2c-1.3,0.1-2.4,0.9-3,2C84.8,57.2,86.2,57.1,86.3,55.2z"/>
<path class="st1" d="M147.3,35.4l5-0.6C150.4,33.9,148.7,33.7,147.3,35.4z"/>
<path class="st1" d="M89.3,53.2c-1.3,0.1-2.4,0.8-3,2C87.8,55.2,89.2,55.1,89.3,53.2z"/>
<path class="st1" d="M57.3,88.1l0.3-1.8c-2.2,0-2.2,1.5-2.1,3c0.3-0.1,0.6-0.2,0.9-0.3l0,0L57.3,88.1L57.3,88.1z"/>
<path class="st1" d="M161.3,4.2h3C163.3,3,162.3,3,161.3,4.2z"/>
<path class="st1" d="M124.4,41.5c0.9-0.6,2.3,0,3-1.2C126.3,40.2,125.1,40.1,124.4,41.5z"/>
<path class="st1" d="M114.3,41.1c-1.1,0-2.2,0-3,1C112.5,42.2,113.6,42.3,114.3,41.1z"/>
<path class="st1" d="M113.3,45.3c1.1-0.2,2.4,0.2,3.1-1.1C115.2,44.2,114.1,44.2,113.3,45.3z"/>
<path class="st1" d="M107.3,44.1c-1.1-0.2-2.2,0.2-3,1C105.4,45.2,106.6,45.3,107.3,44.1z"/>
<path class="st1" d="M101.3,47.1c-1.1-0.2-2.2,0.2-3,1C99.4,48.2,100.6,48.3,101.3,47.1z"/>
<path class="st1" d="M77.3,53.2c0-1,0.1-2,0.1-3C76.2,51.1,76.2,52.1,77.3,53.2z"/>
<path class="st1" d="M156.4,5.3l1.9-0.1C157.6,4.3,157,4.3,156.4,5.3z"/>
<path class="st1" d="M151.4,8.3l2-1C152.6,7.2,151.8,7.6,151.4,8.3z"/>
<path class="st1" d="M179.3,12.2c0.6,0.4,1.3,0.7,1.9,1.1C180.9,12.6,180.1,12.2,179.3,12.2z"/>
<path class="st1" d="M182.3,14.2c0.4,0.6,0.7,1.3,1.1,1.9C183.4,15.4,183,14.6,182.3,14.2z"/>
<path class="st1" d="M188.3,21.2l1,2C189.4,22.4,189,21.7,188.3,21.2z"/>
<path class="st1" d="M84.5,61.8l2-1.5C85.5,60.2,84.6,60.8,84.5,61.8z"/>
<path class="st1" d="M87.5,59.4l2-1.2C88.6,58.1,87.8,58.6,87.5,59.4z"/>
<path class="st1" d="M95.4,54.5l2-1.2C96.6,53.1,95.7,53.6,95.4,54.5z"/>
<path class="st1" d="M96.3,49.1l-2,1C95.1,50.2,95.9,49.8,96.3,49.1z"/>
<path class="st1" d="M196.4,36.9l1.9,0.3C197.8,36.3,197.2,36.2,196.4,36.9z"/>
<path class="st8" d="M53.3,93.2c0.7-0.4,1.1-1.2,1-2l-0.7,0.1L53.3,93.2z"/>
<path class="st1" d="M109.3,43.1c-0.8-0.1-1.6,0.3-2,1C108.1,44.2,108.9,43.8,109.3,43.1z"/>
<path class="st1" d="M111.3,42.1c-0.8-0.1-1.6,0.3-2,1C110.1,43.2,110.9,42.8,111.3,42.1z"/>
<path class="st1" d="M80.4,40.3c0.3-0.7,0.7-1.4,1-2.1C80.7,38.7,80.3,39.4,80.4,40.3z"/>
<path class="st1" d="M75.5,68.4c0.8,0,1.6-0.4,1.9-1.2C76.6,67.1,75.8,67.6,75.5,68.4z"/>
<path class="st1" d="M114.3,37.2l2,1.1C115.9,37.6,115.1,37.1,114.3,37.2z"/>
<path class="st1" d="M191.4,35.9l1.9,0.3C192.8,35.3,192.2,35.2,191.4,35.9z"/>
<path class="st1" d="M104.3,32.2l2.1,1C105.9,32.5,105.1,32.2,104.3,32.2z"/>
<path class="st1" d="M68.4,75.2l1.1-1L68.4,75.2z"/>
<path class="st1" d="M62.4,81.3l1-1.1L62.4,81.3z"/>
<path class="st1" d="M60.4,83.3l1.1-1.1L60.4,83.3z"/>
<path class="st1" d="M59.4,84.3l1-1.1L59.4,84.3z"/>
<path class="st1" d="M58.4,85.3l1-1.1L58.4,85.3z"/>
<path class="st1" d="M57.5,86.3c0.3-0.4,0.7-0.7,1-1.1C58.2,85.6,57.8,86,57.5,86.3z"/>
<path class="st8" d="M56.3,89.1c-0.3,0.1-0.6,0.2-0.9,0.3c0,0.3-0.1,0.5-0.1,0.8L56.3,89.1z"/>
<path class="st8" d="M54.3,91.1l1-1L54.3,91.1z"/>
<path class="st1" d="M167.1,4.3l1.2,0.9L167.1,4.3z"/>
<path class="st1" d="M155.3,6.2l1-1L155.3,6.2z"/>
<path class="st1" d="M173.2,7.2l1.1,1L173.2,7.2z"/>
<path class="st1" d="M150.4,9.3c0.3-0.4,0.7-0.7,1-1.1C151.1,8.7,150.7,9,150.4,9.3z"/>
<path class="st1" d="M181.3,13.2l1,1L181.3,13.2z"/>
<path class="st1" d="M142.4,17.2l1.1-1L142.4,17.2z"/>
<path class="st1" d="M141.4,18.4l1-1.2L141.4,18.4z"/>
<path class="st1" d="M185.3,18.2c0.3,0.3,0.7,0.7,1,1C186,18.9,185.6,18.6,185.3,18.2z"/>
<path class="st1" d="M186.3,19.2l1,1L186.3,19.2z"/>
<path class="st1" d="M187.3,20.2c0.3,0.3,0.7,0.7,1,1C188,20.9,187.6,20.6,187.3,20.2z"/>
<path class="st1" d="M189.3,23.2l1,1L189.3,23.2z"/>
<path class="st1" d="M107.2,33.3l1.2,0.9L107.2,33.3z"/>
<path class="st1" d="M109.2,34.3l1.2,1L109.2,34.3z"/>
<path class="st1" d="M111.2,35.3l1.2,0.9L111.2,35.3z"/>
<path class="st1" d="M113.2,36.3l1.2,0.9L113.2,36.3z"/>
<path class="st1" d="M127.4,40.3c0.3-0.1,0.6-0.2,0.9-0.4C127.8,39.6,127.6,39.8,127.4,40.3z"/>
<path class="st1" d="M116.4,44.3l1.5-1L116.4,44.3z"/>
<path class="st1" d="M78.4,45.4l0.9-1.2L78.4,45.4z"/>
<path class="st1" d="M103.3,45.2l-1,0.9L103.3,45.2z"/>
<path class="st1" d="M102.3,46.2l-1,1L102.3,46.2z"/>
<path class="st1" d="M94.3,50.2l-1.1,1L94.3,50.2z"/>
<path class="st1" d="M97.4,53.2l1.5-1L97.4,53.2z"/>
<path class="st1" d="M89.4,58.3l1.5-1L89.4,58.3z"/>
<path class="st1" d="M86.4,60.3l1.1-1L86.4,60.3z"/>
<path class="st1" d="M78.4,66.3l1.4-1L78.4,66.3z"/>
<path class="st1" d="M77.4,67.3l1.1-1L77.4,67.3z"/>
<path class="st1" d="M74.5,69.4c0.6,0,1-0.4,1-1L74.5,69.4z"/>
<path class="st1" d="M73.5,70.4l1.1-1L73.5,70.4z"/>
<path class="st1" d="M72.4,71.3l1.1-1L72.4,71.3z"/>
<path class="st1" d="M71.4,72.3l1.1-1.1L71.4,72.3z"/>
<path class="st1" d="M70.4,73.3l1.1-1.1L70.4,73.3z"/>
<path class="st1" d="M69.4,74.3l1.1-1L69.4,74.3z"/>
<path class="st4" d="M365,248.8l-0.5,1.1h1.3L365,248.8z"/>
<path class="st8" d="M45.3,104.2c0.7-0.4,1.1-1.2,1-2.1C45.4,102.5,45.4,103.4,45.3,104.2z"/>
<path class="st8" d="M50.2,97.1c0.8-0.3,1.3-1.2,1.1-2C50.5,95.4,50.1,96.2,50.2,97.1z"/>
<path class="st8" d="M37.3,116.2c0.7-0.4,1.1-1.2,1-2C37.4,114.5,37.4,115.4,37.3,116.2z"/>
<path class="st8" d="M42.3,108.2c0.7-0.4,1.1-1.2,1-2C43,106.8,42.7,107.5,42.3,108.2z"/>
<path class="st8" d="M52.3,94.2l1-1.1L52.3,94.2z"/>
<path class="st8" d="M51.3,95.1l1-1L51.3,95.1z"/>
<path class="st8" d="M49.2,98.1l1-1C49.6,97.1,49.3,97.5,49.2,98.1z"/>
<path class="st8" d="M48.3,99.1l1-1L48.3,99.1z"/>
<path class="st8" d="M47.6,100.1l0.8-1L47.6,100.1z"/>
<path class="st8" d="M47.4,102.2v-1.1l-1,1L47.4,102.2z"/>
<path class="st8" d="M44.3,105.1l1.1-1L44.3,105.1z"/>
<path class="st8" d="M43.3,106.2l1-1.1L43.3,106.2z"/>
<path class="st8" d="M41.3,109.2l1.1-1.1L41.3,109.2z"/>
<path class="st8" d="M40.3,111.1l1-1.5L40.3,111.1z"/>
<path class="st8" d="M39.5,112.2c0.3-0.4,0.5-0.7,0.8-1.1C40,111.4,39.8,111.8,39.5,112.2z"/>
<path class="st8" d="M38.3,114.1l1-1.2L38.3,114.1z"/>
<path class="st8" d="M36.2,117.3l1.1-1.2L36.2,117.3z"/>
<path class="st0" d="M228.3,128.1c0.1,0.8,0.1,1.6,0.9,2.1v10.9l0,0c-1.1,0.8-0.9,2-1,3.1v-0.1c-0.9,0.4-0.9,1.2-1,2l0,0
	c-2,1.6-3.3,3.9-5.6,5.4c-6.9,4.8-13.9,5.1-21.1,1.5c-6.9-3.4-11.1-12-10.2-19.6c0.9-7.8,6.4-14.3,14-16.4c9.4-2.7,17.7,1,23.7,10.6
	C228.1,127.9,228.2,128.1,228.3,128.1z M221.4,126.8c0.2-3-3.5-6.8-6.4-6.5c-3.6,0.3-6.2,2.3-6.1,6c0.1,3.9,2.9,5.8,6.6,6.1
	C219,132.1,221.2,130.4,221.4,126.8L221.4,126.8z"/>
<path class="st1" d="M36.5,159c0.9,4.8,3.6,9,7.7,11.8c2.5,1.6,4.1,0.7,4.1-2.4c0-3.4-5.4-11.6-8.5-12.9
	C37.6,154.5,36.4,155.7,36.5,159z"/>
<path class="st1" d="M79.3,178.5c5.1-0.6,9.3-2.4,12.4-6.2c0.7-0.9,1.4-1.9,0.7-3.2c-0.5-1.1-1.7-1.7-2.9-1.5
	c-4.9,0.9-9.4,3.3-12.9,6.9c-0.8,0.7-1,1.8-0.5,2.7C77,178.5,78.3,178.4,79.3,178.5z"/>
<path class="st9" d="M313.4,355.7c4.1-9.9,3.8-20.4,4.5-30.8c0.2-3.2,0-6.5,0-9.9c1.8,0.2,1.4,1.8,2.3,2.2c-0.1-1.7,0.6-4.3-1.8-4.5
	c-2.6-0.2-2.2,2.5-2.1,4.1C317.2,330,314.9,342.8,313.4,355.7z"/>
<path class="st9" d="M320.2,317.2c3.4,16.1,2.5,32.1-1,48c3.6-4.4,3.6-10,3.8-15c0.4-9.4,1-18.8-0.7-28.2
	C322,320.1,321.8,318.4,320.2,317.2z"/>
<path class="st11" d="M248.6,362c1.9-0.4,3.5-1.4,3.4-3.5c-0.1-1.9-1.7-3.3-3.5-3.2c0,0,0,0,0,0h-0.2c-2.4,0-3,1.6-2.9,3.7
	S246.7,362,248.6,362z"/>
<path class="st9" d="M419.4,417.3c0.2,1.5,1.2,1.8,2.5,1.6s2.3-0.9,1.9-2.2s-1.3-2.4-2.8-2.1C419.6,414.9,419.3,416.1,419.4,417.3z"
	/>
<path class="st11" d="M260.5,361.2c-1.2,0.1-1.9,0.6-2,1.8c0,1.5,0.9,2,2.3,1.9c1.1-0.1,2-0.6,2-1.8
	C262.8,361.7,261.7,361.4,260.5,361.2z"/>
<path class="st9" d="M229.2,130.2v10.9C232.3,137.5,231,133.9,229.2,130.2z"/>
<path class="st9" d="M311.4,362.7c1.3-2,2.1-4.3,2.1-6.6C311.2,357.8,311.2,360.2,311.4,362.7z"/>
<path class="st9" d="M310.3,366.2c0.2-0.1,0.5-0.2,0.7-0.3c0.1-1,0.2-1.9,0.4-2.9C310.3,363.8,310.3,365,310.3,366.2z"/>
<path class="st9" d="M229.2,141.1c-1.1,0.8-0.9,2-1,3.1C229.4,143.4,229.3,142.3,229.2,141.1z"/>
<path class="st9" d="M309.5,368.5c0.3-0.1,0.5-0.3,0.8-0.4c0-0.6,0.1-1.3,0.1-1.9C309.6,366.7,309.3,367.6,309.5,368.5z"/>
<path class="st9" d="M306.1,377c0.1-0.6,0.2-1.2,0.3-1.8c-0.7,0.4-1.1,1.2-1.1,2.1L306.1,377z"/>
<path class="st9" d="M228.3,144.1c-0.9,0.4-0.9,1.2-1,2C228,145.7,228.4,144.9,228.3,144.1z"/>
<path class="st9" d="M228.3,128.1c0.1,0.8,0.1,1.6,0.9,2.1C229.4,129.4,229,128.6,228.3,128.1z"/>
<path class="st11" d="M289.7,216.2c4.9,0,6.5-1.6,6.6-6.5c0.1-4.6-3.9-9.3-7.9-9.3c-3.5,0-7.8,4.2-7.9,7.8
	C280.3,213,283.9,216.2,289.7,216.2z"/>
<path class="st11" d="M162.3,73.1c-3.6-0.2-6.7,0.6-7.8,4.6c-0.8,2.7,0.4,5.6,2.9,6.8c3.6,2,6.3-0.1,8.8-2.4
	C167,78.2,167.1,74.7,162.3,73.1z"/>
<path class="st11" d="M163.3,63.2c-1.6-0.6-3.4-2-4.6,0.3c-0.7,1.5-0.6,3.2,1.6,3.7C163.3,67.3,163.5,65.4,163.3,63.2z"/>
<path class="st8" d="M180.8,89.5c-0.1,0.9,0.3,1.3,0.8,1.2c0.5-0.2,1-0.7,1.2-1.2c0.1-0.3,0-0.7-0.3-0.8c-0.1-0.1-0.3-0.1-0.4,0
	C181.6,88.8,181.2,89.1,180.8,89.5z"/>
<path class="st8" d="M57.3,88.1l-1,1L57.3,88.1z"/>
<path class="st0" d="M36.3,282.2c0-0.2-0.1-0.3-0.2-0.4h-0.3l0.6,0.3L36.3,282.2z"/>
<path class="st17" d="M139.1,217.1c-7,2.9-14.3,5.1-21.8,6.4c3.7,6.9,9.9,11,14.4,9.7S139.3,225.5,139.1,217.1z"/>
<path class="st16" d="M215.5,132.4c3.6-0.2,5.7-2,5.9-5.5c0.2-3-3.5-6.8-6.4-6.5c-3.6,0.3-6.2,2.3-6.1,6
	C209,130,211.7,132.1,215.5,132.4z"/>
</svg>
