<?xml version="1.0" encoding="utf-8"?>
<!-- Generator: Adobe Illustrator 27.9.0, SVG Export Plug-In . SVG Version: 6.00 Build 0)  -->
<svg version="1.1" id="Layer_1" xmlns="http://www.w3.org/2000/svg" xmlns:xlink="http://www.w3.org/1999/xlink" x="0px" y="0px"
	 viewBox="0 0 640 512" style="enable-background:new 0 0 640 512;" xml:space="preserve">
<style type="text/css">
	.st0{fill:#DEDEDE;}
</style>
<path class="st0" d="M38.8,5.1C28.4-3.1,13.3-1.2,5.1,9.2s-6.3,25.5,4.1,33.7l592,464c10.4,8.2,25.5,6.3,33.7-4.1s6.3-25.5-4.1-33.7
	l-105.2-82.4c39.6-40.6,66.4-86.1,79.9-118.4c3.3-7.9,3.3-16.7,0-24.6c-14.9-35.7-46.2-87.7-93-131.1C465.5,68.8,400.8,32,320,32
	c-68.2,0-125,26.3-169.3,60.8L38.8,5.1z M223.1,149.5c25.5-23.3,59.6-37.5,96.9-37.5c79.5,0,144,64.5,144,144
	c0,24.9-6.3,48.3-17.4,68.7L408,294.5c8.4-19.3,10.6-41.4,4.8-63.3c-11.1-41.5-47.8-69.4-88.6-71.1c-5.8-0.2-9.2,6.1-7.4,11.7
	c2.1,6.4,3.3,13.2,3.3,20.3c0,10.2-2.4,19.8-6.6,28.3l-90.3-70.8L223.1,149.5z M373,389.9c-16.4,6.5-34.3,10.1-53,10.1
	c-79.5,0-144-64.5-144-144c0-6.9,0.5-13.6,1.4-20.2l-94.3-74.3c-22.8,29.7-39.1,59.3-48.6,82.2c-3.3,7.9-3.3,16.7,0,24.6
	c14.9,35.7,46.2,87.7,93,131.1c47,43.8,111.7,80.6,192.5,80.6c47.8,0,89.9-12.9,126.2-32.5L373,389.9z"/>
</svg>
