<svg xmlns="http://www.w3.org/2000/svg" viewBox="0 0 700.02 513.32"><defs><style>.cls-1{fill:#413a40;}.cls-2{fill:#d2cec2;}.cls-3{fill:#41343e;}.cls-4{fill:#42383a;}.cls-5{fill:#463437;}.cls-6{fill:#f2cf57;}.cls-7{fill:#95cd45;}.cls-8{fill:#457c45;}.cls-9{fill:#6fa93f;}.cls-10{fill:#e2eace;}.cls-11{fill:#768b48;}.cls-12{fill:#e1934e;}.cls-13{fill:#bbbbb6;}.cls-14{fill:#fbfcfb;}.cls-15{fill:#efbb43;}.cls-16{fill:#b37a43;}</style></defs><g id="Layer_2" data-name="Layer 2"><g id="Layer_1-2" data-name="Layer 1"><path class="cls-1" d="M259.19,36.58c4.24-.65,6.14-3.48,7.82-7.23,4.41-9.83,10.47-18.57,19.5-24.82,8.39-5.81,17.05-6,25.74-.64a50.67,50.67,0,0,1,18.51,19.23c3.2,6.09,7.5,8.94,13.93,10.12,3,.55,5.16.53,7.68-1.5a65,65,0,0,1,28.27-13.08c14.48-2.93,24.43,3.16,28.52,17.31,2.73,9.46,2.68,19.12,1.48,28.73-.44,3.56.42,4,3.51,3.33a36.37,36.37,0,0,1,15.37-.22c11.41,2.3,15.4,10,10.68,20.69-1.29,2.93-3.06,5.64-4.73,8.66,1.72.41,3,.7,4.29,1,12.73,3.25,24.64,8.23,34.6,17,11.23,9.94,12.81,31.05,3.19,42.69-1.3,1.57-1.62,2.16-.06,3.85,5.47,5.92,5.73,11.21,1.3,18-1.24,1.91-2.65,3.71-4.36,6.09h5.43c9.18,0,18.3.57,27.16,3.29,10.23,3.14,16.44,9.66,17.6,20.59a68.46,68.46,0,0,1,0,14c-.74,7.72-2.93,15.12-5.28,22.58,4,0,7.45-.21,10.91,0,10.18.77,15.66,6.08,17.17,16.17.93,6.2.26,12.27-.94,18.35-.2,1-1.69,2.85.56,3.17,5.44.77,8.15,4.36,9.83,9.35,8.57-7.23,17-14.14,28.64-12.77S603.35,291.69,610.4,300c1.51-3.43,2.14-6.6,4.37-9a2,2,0,0,0,1.38-1.82l2-2.06c2.06.16,3.68-1.13,5.52-1.65,2.15-.61,4.36-.91,4.44,2.44-5.7.82-10.7,5.93-12,12.33-.49,2.43-.79,4.91-1.21,7.36-.38,2.22-.8,4.43-1.24,6.8-2.7-1.18-3.08-3.69-4.18-5.62-4.15-7.24-8.64-14.11-15.33-19.41C588,284.5,581.42,284,574.56,287a43.22,43.22,0,0,0-17.69,13.43c-1,1.31-2.06,3.38-3.66,3-2.11-.51-.8-2.84-1-4.35-.17-1.14,0-2.34-.08-3.49-.6-6.14-4.46-8.13-9.73-5-1.78,1.05-3.48,2.26-6.37,4.14,2.26-6.63,4.8-11.72,5.51-17.26s2.52-11,.83-16.73c-1.76-6-5.57-9.32-11.72-9.63a48.53,48.53,0,0,0-20.5,3.2c2.81-7.24,5.73-13.34,7.13-19.92,2.13-10,4.88-20.07,1.1-30.39a13.67,13.67,0,0,0-6.65-7.69,42.64,42.64,0,0,0-16.18-4.75c-10.87-1.12-21.78-1.44-32.68.36-4.5.74-5.22,3-4.37,7,4,18.73,11.68,35.55,24.22,50.15,11.64,13.56,20.42,29.09,30,44.1,9.82,15.46,21.41,29.4,37.69,38.4,17.12,9.48,35.35,11.93,54.39,6.56a135.54,135.54,0,0,0,24.41-10c1.59,1.35,1.77.12,2-1.08l1.86-1,1.16-1h0a4.65,4.65,0,0,0,5-3h0l1-1v0a3.52,3.52,0,0,1,3.12,2.21l-1.05.86a2,2,0,0,0-1.93,1.2l.09,0c-2.22-.15-3.35,1.16-4.08,3l0-.12-1.11,1-1.66,1a2,2,0,0,0-2.28,1.08l.06-.1-1.11,1,.07,0a2.06,2.06,0,0,0-2.06,1.08l.08,0a1.89,1.89,0,0,0-2.06,1.09l.08-.06a1.84,1.84,0,0,0-2.08,1.07l.08-.07a1.84,1.84,0,0,0-2.08,1.07l.09-.05c-1.82-.28-3.35,0-4.12,2l.06,0c-2-.1-4.07-.3-5.12,2l-.22.13-.21-.14-1.49.78c-24.93,9-48.17,5.08-69.86-9.43-13-8.67-22.65-20.5-31.09-33.43q-10.1-15.48-20.15-31a187,187,0,0,0-14.89-20c-12.11-14.06-18-30.89-21.74-48.68a160,160,0,0,0-13-37.65,37.67,37.67,0,0,1-2.57-8C430.85,124,419.2,97.35,399,75.06,378.15,52,352,39,321.29,35.15c-34.57-4.33-65.93,4.73-94.89,23.34-1,.63-2,1.18-3,1.76a2,2,0,0,0-2.11,1.13l.13,0c-1.42-.2-2.09.48-2.18,1.84l0,0a1.9,1.9,0,0,0-2,1.17l.06-.1-1.08,1,.06-.09-1.1,1,.07-.08-1.1,1,0,0a1.84,1.84,0,0,0-1.92,1.19l.16.3c-1.8-.5-3-1-2.61-3.58.5-3.24,1.22-6.73-.62-9.92l.17-2c1.72-.38,2.73-2.5,4.82-2,.34,2.53-1.44,6.08,1,7.39s4.53-1.93,6.7-3.25A194.79,194.79,0,0,1,249.19,41c1.52-.63,3.17-1.08,4-2.75a2.12,2.12,0,0,0-2-1.08h0l-1.2-1a2.28,2.28,0,0,1-.78-.07L248,35.25l-1.85-.86c.22-1.68,1.07-2.18,2.61-1.4a8.12,8.12,0,0,0,4.53,1.16l2.94,2C256.88,38.53,257.84,38.86,259.19,36.58Zm215.07,110c7.46-11.61,6-21.23-5-29.59-11.34-8.66-24.48-13.21-38.38-15.73-1-.18-2,0-3-.11-3.72-.33-3.86,1.2-2.36,4,5.35,10.18,10.35,20.67,12.79,31.86,3.54,16.22,11.5,30.77,16.08,46.54,1.43,4.9,4.3,6.11,9.11,3.83,6.3-3,10.42-8.21,13.11-14.45,1.71-4-.49-7.57-5.51-9.63a22.87,22.87,0,0,0-5.31-1.18c-1.59-.23-3.22-.2-4.83-.29l-.5-1.13C466.48,157.3,470.65,152.19,474.26,146.57ZM405.17,39.16C400.87,23,392.4,21.41,379.5,23.73c-8.39,1.51-15.91,5.65-22.84,10.72-2.73,2-2.84,3.36.43,4.75A133.81,133.81,0,0,1,401.34,70c2.51,2.59,3.66,1.54,4.11-1.31.78-4.89,1.35-9.81,1.83-13.45A76.33,76.33,0,0,0,405.17,39.16ZM315,29.26c3.3.1,6.58.65,9.88.9s4-1.17,2.41-3.88A51.42,51.42,0,0,0,308,6.68c-7.31-4.15-14.12-2-20.26,2.85-6.75,5.34-11.46,12.36-15.59,19.81-.54,1-1.32,2.07-.4,3.2.62.76,1.52.41,2.32.26C287.46,29.05,301.2,28.83,315,29.26Zm95.16,43.92c-3.06.55-4.73,1.43-2.21,4.76,3.8,5,7.22,10.34,11,15.39,3.33,4.46,10.3,4.13,13.46-.56a31.33,31.33,0,0,0,3.68-6.48c3.32-9.08.31-12.48-8.08-14.05-2.09-.4-4.32-.06-6.71-.06C417.66,71.82,413.9,72.49,410.14,73.18Z"/><path class="cls-2" d="M440,509.36c1.22,2.33,3.5,2,5.29,1.56,4.78-1.22,9.61-.92,14.4-.77,18.64.57,37.22-1,55.83-1.24,18.22-.26,36.45-1.47,54.62-2.94,19.14-1.55,38.32-3,57.07-7.65a33.79,33.79,0,0,0,6.92-2.73c1.33-.67,2.89-1.26,2.77-3.13s-1.7-2.37-3-3c-8.11-3.65-16.82-5-25.51-6.29-14.09-2.1-28.27-3.32-42.5-4.17-17.53-1-35-2.57-52.53-3.82-6.12-.44-12.27-.61-18.38-.87-12.27-.51-24.54-1.93-36.85-1.23l-.22,1.85c1.18.89,1.06,1.58-.32,2.07l-.47,0c-.06,1-.12,2-.17,3a10.39,10.39,0,0,1-.73,5l-.15,2C455.08,504.55,454.71,505.07,440,509.36Z"/><path class="cls-3" d="M240.08,361.41c3.68,3.91,8.51,5.78,13.48,7.16,2.69.74,3.72,1.69,3.51,4.7a349.29,349.29,0,0,0,7.71,101.23c.22,1,.63,2-.57,2.61-1,1.1-2,2.19-3,3.31-2.47,2.82-4.64,5.88-3.48,9.84s4.88,4.55,8.35,5.17c9.67,1.7,19.46,2.06,29.25,2.15,13.43.13,26.87,0,40.05-3.35,4.16-1.05,6.68-3.26,7.48-7.54s1.8-8.43,2.71-12.64c-.17-3.59,2.32-6.7,1.37-10.83l7.92,2.4c4.66-3.25,3.07-8.14,3.27-12.55.1-2.3.22-4.65-3.36-2.55-1.45.85-2.75-.36-3.61-1.69l-.27-.06-.18.2a8.57,8.57,0,0,1-6.61-2l-.21-.14-.23.12c-1.19-.14-2.78.84-3.28-1.19l1.8-2.62A2.25,2.25,0,0,1,343.9,441a.5.5,0,0,0,.29-.57,2.08,2.08,0,0,0-2-2.27c-6.43,9.85-8.64,10-14,1-2,.28-3.95,1.64-5.91,0-.67,1.13-1.37,1.26-2.09,0l0,0c-2.34.41-4.12-1-6-1.93-8.69-4.29-17.33-8.68-26-13l0,0c1.74,4.83,5.37,8.36,8.72,12,11.4,12.3,26,19.48,41.57,24.72,3.06,1,4.06,2.11,3.28,5.24-1.4,5.64-2.77,11.31-3.64,17-.7,4.56-3.1,6.4-7.44,7a215.09,215.09,0,0,1-62.06.05c-1.91-.29-4.55-.12-5.13-2.2-.65-2.35,1.7-4,3.43-5,3.52-2.05,4-4.67,3.28-8.4a336.49,336.49,0,0,1-5.33-33.92c-2.09-22.35-3.64-44.7-1.8-67.15.09-1.1-.27-2.51,1.14-3s2.58.48,3.46,1.46c2.76,3.06,5.44,6.2,8.15,9.31a1.86,1.86,0,0,1,1.35,1.91h0l1,1.17.75.95,3.93-.3-.6-.8-1-1.32c-2-3.26-6.1-6.45-1.28-10.34,3.11-2.51,6.79-4,10.94-2.29l1.17,1.45a.39.39,0,0,0,.26.48l3.23-.18-.41-2.22c4.15-3.06,8.56-1.62,12.93-.74a117.3,117.3,0,0,0,20.16-2.89c27.28-6,51.34-17.74,70-39.29,2.23-2.58,3.73-5.95,7.06-7.52.86-3.83-1.59-1.37-2.24-1-7.56,4.2-15,8.61-22.56,12.81-30.42,16.9-63.41,25.46-97.63,30.2-13.72,1.9-27.18,3.28-39.43-5.23L242.23,355l-.91-.9L240.24,353h.07c-1.92.21-3.11-3-5.12-1.38-1.45,1.17.44,3,0,4.5l.81,1.05C238.6,357.41,240,358.78,240.08,361.41Z"/><path class="cls-4" d="M229.76,337.63c.79-4.9-1-8-3.49-11.69-4.21-6.44-9-9.14-17.25-9.29-25.87-.49-38.85-23.75-26.9-46.92a3.38,3.38,0,0,0-.41-4.34c-3.48-4.45-6.77-9.06-10.25-13.52q-27.5-35.22-55.05-70.39a4.37,4.37,0,0,0,2.86-1.47q18,22.63,36,45.28c9.21,11.6,18.44,23.17,27.53,34.86,2,2.56,3.47,3.51,6.1.72,3.72-3.94,8.13-3.57,12.76-1-13.48-17.15-26.68-34.17-39.51-51.47l1-3.1a3.16,3.16,0,0,0,.72.18c.31.27.83.83.9.78.63-.47.36-1.05.07-1.61-7.06-27.24-5.2-54.16,3.75-80.55,3.31-9.76,7-19.21,6.79-29.75-.06-2.24.93-4.53,1.6-6.75,1.61-5.34,5.42-9,10.78-8.88,5.74.12,8.71-3.09,12.57-6.27,5.63-4.66,9.75-9.53,8.94-17.26,1.84,3.19,1.12,6.68.62,9.92-.41,2.63.81,3.08,2.61,3.58-12.5,11.86-24,24.57-31.43,40.3-14.66,31-19.48,63.22-9,96.48,6.55,20.81,20.43,36.66,37.07,50.32,16,13.1,34.32,20.75,54.33,24.91,1.28.26,2.68.35,3.55,1.59-.91,6.88-1.83,13.76-2.71,20.65-.48,3.72,1.63,3,4,2.44,15.19-3.47,30.11-7.93,45-12.39,3.65-1.1,7.34-2,11-3l2.11-.55.43.81c-6.85,5.61-15.14,8.21-23.3,11-13.39,4.57-27.16,7.71-40.93,10.91-7.13,1.66-14,3.85-19.7,9-7.37,6.73-11.76,20.08-3.52,30.08a8.89,8.89,0,0,1,.89,1.77c-1.92.21-3.11-3-5.12-1.38-1.45,1.17.44,3,0,4.5C230.9,350.69,228.67,344.34,229.76,337.63ZM215,302.07a1.87,1.87,0,0,0,1.08-2.06l-.05.08a1.89,1.89,0,0,0,1-2.09l-.07.07c1.39-.76,1.37-1.74.45-2.86,0-1,0-2.1,0-3.15.86-1.07,1.71-2.16,3.32-1.92,1,4.72.66,9.3-2,13.46-1.07,1.71-.85,3,.45,4.43,4.18,4.74,8.32,9.53,12.33,14.41,1.49,1.81,2.49,1.81,3.69-.14.52-.84,1.3-1.52,1.82-2.37,1.31-2.12,5.19-2.73,4.82-5.18s-2.8-4.38-4.36-6.54c-4.37-6-9.61-11.43-13.43-17.88a2.85,2.85,0,0,1,1.3-2.31l4.73,4.43c4.66,6.26,9.34,12.52,14,18.8.76,1,1.48,1.72,2.89,1.09q4.78-2.13,9.63-4.14a2.45,2.45,0,0,0,1.59-2.27c.62-5.45,1.28-10.89,1.89-16.33.16-1.42-.12-2.68-1.67-3.25-.31-.11-.64-.17-1-.25-9.79-2.48-19.18-6.21-28.57-10-1.35,3.15,2.82,5.61.11,8.3-4-7.77-8.54-15.19-15.18-21.15-3-2.71-5.73-4.36-9.24-1.05-1.73.76-1.24,2.36-1.44,3.73-.36,2.54-1.45.14-2.18.28l.06.07a1.72,1.72,0,0,0-1.09-2l.16,0-1.45-1.06c-3.59-1-6.15.91-8.32,3.26-7.74,8.41-10,18.27-6.4,29,3.36,10.2,11.17,15.3,21.54,16.61,2.7.35,5.51,1.68,8.24,0,1.33-2.78.1-5.67.34-8.49a.31.31,0,0,1,.08-.47l1-1.17Zm-25.47-216a2.74,2.74,0,0,0,.8-2.21c-.42-1.17-1.7-.76-2.6-.58-4.44.85-6.06,4.24-7.11,8.11a19.94,19.94,0,0,0-.25,7.39C183.81,94.12,186,89.62,189.54,86.07Z"/><path class="cls-2" d="M345.6,474.05c-.91,4.21-1.92,8.4-2.71,12.64s-3.32,6.49-7.48,7.54c-13.18,3.34-26.62,3.48-40.05,3.35-9.79-.09-19.58-.45-29.25-2.15-3.47-.62-7.17-1.13-8.35-5.17s1-7,3.48-9.84c1-1.12,2-2.21,3-3.31-5-2-10.21-1.1-15.28-.81-11.9.69-23.79,1.61-35.64,2.87-16.79,1.77-33.62,3.39-49.95,8.09a1.84,1.84,0,0,0-.47.15c-2.44,1.28-6.17,1.7-6.28,5-.11,3.5,3.71,3.88,6.22,4.67,11.45,3.58,23.37,4.72,35.22,6q23,2.42,46,3.9c6.61.43,13.24.93,19.86,1.07q18.93.4,37.83,1.4c18,1,35.88.49,53.82.49-3.56-3.1-3.78-6.87-1.65-10.68,2.49-4.44,2.55-9.06,2-13.87-.42-4.08-.73-8.18-1.09-12.27C351.43,470.29,348.31,470.26,345.6,474.05Z"/><path class="cls-3" d="M456.92,480.1c.05-1,.11-2,.17-3-1.28-1.92-1.76-3.72.78-5.05a1.74,1.74,0,0,0,.56-.8c5.22-1.52,10.46-1.92,15.72-.14,53.77-.52,105.51-9.28,151.75-38.86a157.11,157.11,0,0,0,63.16-77.12c-1.44-1.68,0-3.15.46-4.59,1.55-5.38,3.34-10.69,5-16.05.54-1.8,1.78-4.26-1-5s-2.14,2.22-2.88,3.65c-1.33,2.56-.9,6-3.76,7.79l.11.11a2.14,2.14,0,0,1-.82,2.12,1.54,1.54,0,0,0-.13.79,2.29,2.29,0,0,1-1,2.25.55.55,0,0,0,0,.58l-.89,1.39a1.06,1.06,0,0,0-.1.72,2,2,0,0,1-1.13,2.19l0-.07a17.19,17.19,0,0,1-6,12l.06,0c.11.92-.08,1.69-1.08,2l.13,0-1,1.13,0-.06a1.85,1.85,0,0,1-1.12,2L674,368l-1,1.14,0,0c.06,1.47-.05,2.84-2,3.05h0c0,1.73-.15,3.36-2.26,3.83v-.08c.24,1.42-.43,2.1-1.79,2.22l0,0A1.92,1.92,0,0,1,665.9,380v-.12c.19,1.62-.36,2.71-2.09,3l.11,0-1,1.06,0-.1c.21,1.44-.47,2.11-1.86,2.18l0,0a1.74,1.74,0,0,1-1.2,1.93l.1-.05-1,1.07.07-.05L657.93,390v-.12c0,2.7-1.46,3.92-4,4.15l-6.86,6.87c-.36.39-.72.77-1.07,1.16l.07-.08L645,403.06l0-.1c0,1.41-.68,2.09-2.12,2H643L641.93,406l.05-.08-1.07,1,0-.09c-.27,1-1,1.2-1.94,1.19l0,0c0,1.41-.71,2.09-2.16,1.89l.11,0-1.08,1,0-.09c-.28,1-1.05,1.21-2,1.18l.07,0L633,413l.07-.1a2,2,0,0,1-1.93,1.19l0,0-1.12,1,.07-.08L629,416l.06-.11a1.85,1.85,0,0,1-2,1.16l0,0c-.1,2-1.5,2.13-3,2l.07,0-1.47,1-1.55.93L620,422v-.14c-.87,2.4-2.75,3.06-5.08,3H615c-.32,1-1.09,1.21-2,1.1l0-.06c-.45,1.59-1.43,2.33-3.12,1.88l.09.08c-.56,1.41-1.77,1.24-2.93,1.21l.05,0L606,430l0-.11c-.59,1.39-1.79,1.24-3,1.19l.05,0c-.47,1.4-1.68,2-2.88,2.58-13,6.47-26.88,10.65-40.81,14.5a250.25,250.25,0,0,1-42,7.67c-8.34.83-16.72,2.75-25.16.61a49.42,49.42,0,0,0-11.14.29c-.31.38-.59,1.07-.92,1.1a115.66,115.66,0,0,1-19.87,0c-.43,0-.8-.93-1.19-1.43-.24-1.73-.48-3.46-.71-5.19-3.57,0-1.34,3.83-3.23,4.95l-.09,2.91c.49,10.85-2.59,21.51-2.54,33.14,2.22-1.88.82-4.71,3.47-5l.15-2C454.82,483.21,454.21,481.42,456.92,480.1Z"/><path class="cls-5" d="M162.12,208.41l1-3.1c-10.91-14.45-21.6-29.07-32.86-43.25-4.14-5.22-3.56-11.57-6-17.11-.25-.56.24-1.61.66-2.26,7.85-12.26,3.91-24.39-.86-36.2-3.08-7.61-9-13.49-14.67-19.32l-5.33-.84c3.3,4,6.51,8,9.91,11.86,7.78,8.83,10.74,19.47,11,30.85.15,6.53-1.74,12.59-8.79,15.34l-8.79,6.91-4.09,4-5.7,5.91c.31,2.61-1.21,3.21-3.39,3.08-1.54,1.39-3.45.95-5.23,1-17.35.58-33-4.4-47.35-14.08-6.6-4.46-6.67-4.38-1.91-10.35,1-1.29,2.15-2.49,3.24-3.73,5.36-7.42,12-13.67,18.38-20.16,10.89-11.12,21.8-22.25,33.88-32.12,1.57-1.28,3.22-3.81,5.92-1.62l.2-4.45c-.36-.55-.73-1.09-1.09-1.63l-3.39.16c.36,1.4-.39,2.12-1.55,2.72-3.44,1.79-6.15,4.53-9,7.09-17.22,15.5-33.31,32.13-49,49.17-.87,1.2-1.82,2.35-2.6,3.61-2.58,4.16-5.08,3.94-8.59.7-6.21-5.75-12.54-11.36-18-17.83-3.85-4.55-6-9.52-3.79-15.56-4.82.27-1.91,5.14-4.13,7-.22,4.16,2,7.4,4.47,10.25,15.48,18,33.88,32.25,55.84,41.43,9.82,4.1,20.46,3.87,31,3.38,3.95-.18,7.21-4.41,11.6-2,.07-.78.13-1.56.2-2.34-2.09-1.31-3.66-2.46-.63-4.71s4.86-5.43,8.16-7.17c1.93-2.81,4.71-4.65,7.44-6.54.75-.53,2-1.65,2.48-.45.94,2.58,3.7,5,1.46,8.17,0,1.33,0,2.65,0,4,1.73.59,2.4,2.21,3.4,3.51C137.71,177.34,149.3,193.35,162.12,208.41Z"/><path class="cls-4" d="M686.87,340.88c2.86-1.82,2.43-5.23,3.76-7.79.74-1.43.16-4.4,2.88-3.65s1.5,3.22,1,5c-1.61,5.36-3.4,10.67-5,16.05-.42,1.44-1.9,2.91-.46,4.59,10.43-25.21,14.13-51.11,8-78a40.54,40.54,0,0,0-5.08-12.94c-2.53-4-6.09-6.28-10.84-5.65s-7.72,3.57-9,8.21-2.61,9.28-4,13.89c-.45,1.46-.5,3.44-3.13,2.65-7.64-2.27-12,1.59-14.73,8.65-6.2-4-12.47-7.29-19.65-8.29-4.66-.65-8.9.12-12.4,3.53,2.06.16,3.68-1.13,5.52-1.65,2.15-.61,4.36-.91,4.44,2.44,7.87,1.22,15,4.09,21,9.5,3.75,3.38,4.36,3.14,5.6-1.53a22.1,22.1,0,0,1,1.67-5.16c1.35-2.38,3.39-4.79,6.37-3.07s.44,4.09-.39,6c-2.86,6.65-8.75,11.2-12.27,17.42,2,.2,2,1.83,2.34,3.25,11.68-12,20.07-25.88,23.59-42.45a33.94,33.94,0,0,1,1.14-4.83c1.81-4.91,6.67-5.74,10.16-1.77a17.59,17.59,0,0,1,3.07,5.66c3.6,9.85,4.23,20.08,4.12,30.43C694.34,315,690.74,328,686.87,340.88Z"/><path class="cls-4" d="M456,487.1c-2.65.33-1.25,3.16-3.47,5-.05-11.63,3-22.29,2.54-33.14a2.66,2.66,0,0,0-1,2.18c-1.34,11.39-2.81,22.78-4,34.19-.47,4.59-2.33,7-7.06,8.06-13.24,2.94-26.7,3.73-40.14,4.42a208.39,208.39,0,0,1-39.85-1.71c-4.05-.57-5.64-2.12-3.49-6.2a15.32,15.32,0,0,0,2-9.16c-2.65-19.22-2.08-38.52-1.59-57.82,0-1.55.59-3.2-.78-5.46-.83,2.14-1.53,3.74-2.06,5.38a57.55,57.55,0,0,0-2.34,12.74c-.21,2.37-1,3.83-3.68,3.21.86,1.33,2.16,2.54,3.61,1.69,3.58-2.1,3.46.25,3.36,2.55-.2,4.41,1.39,9.3-3.27,12.55,0,2.48,0,4.95,0,7.43.36,4.09.67,8.19,1.09,12.27.51,4.81.45,9.43-2,13.87-2.13,3.81-1.91,7.58,1.65,10.68,17.93,4.63,36.17,3.49,54.36,2.82a251.88,251.88,0,0,0,30.1-3.33C454.71,505.07,455.08,504.55,456,487.1Z"/><path class="cls-6" d="M138.16,66.42l2.08-2.35c1.21-2.8,3.18-2,4.58-.53,2.22,2.29-1,3-1.69,4.54.6,3.86,2.64,4.5,6,3,8.51-3.85,10.29-9.06,5.3-17-2.11-3.35-1-6.66-.45-10.19-.84,0-1.37-.15-1.74,0-5.43,2.58-5.43,2.59-6.1-3.66-.21-2-.26-4.32-2.67-4.8s-3.5,1.42-4.16,3.44c-1,3.07-3,2.5-5.13,1.45-1.18-.56-2.47-1.39-3.73-.41-1.56,1.22-.23,2.34.38,3.43a3.4,3.4,0,0,1,.14,3.35c-3.47,6.68-1.8,12.49,2.89,17.84a19.46,19.46,0,0,1,1.38,2.06Z"/><path class="cls-4" d="M96.89,77.31l3.39-.16a148.49,148.49,0,0,0-20.11-22.1c-7-6.45-15.83-7.22-24-2.18a145.3,145.3,0,0,0-24.11,19.3,3.29,3.29,0,0,1,3.13,2c7.1-5.66,13.69-12,21.36-16.93C65.5,51.51,71,51.93,78.87,59c1.23,1.11,2.28,2.4,3.51,3.51C87.52,67.17,91.21,73.21,96.89,77.31Z"/><path class="cls-4" d="M246.14,34.39c.22-1.68,1.07-2.18,2.61-1.4a8.12,8.12,0,0,0,4.53,1.16A45,45,0,0,0,234.35,26c-9-1.56-15,1.29-19.39,9.32a45.08,45.08,0,0,0-5.52,17.87c1.72-.38,2.73-2.5,4.82-2,1.41-4.22,2.48-8.59,4.32-12.62,3.4-7.44,8.34-9.66,16.19-7.68C238.61,31.87,242.35,33.21,246.14,34.39Z"/><path class="cls-1" d="M122.24,158.19c0-1.32,0-2.64,0-4-2.8.47-4,3.45-6.67,4.19-1.76,1.69-3.79,3.18-5.22,5.12-2,2.77-4.32,2.78-7,1.39-.07.78-.13,1.56-.2,2.34l0,0,1.22,1.2c4.56,3.87,8.09,8.7,12.11,13.07a4.37,4.37,0,0,0,2.86-1.47c-1.94-2.65-3.78-5.39-5.85-7.93s-1.9-4.69.9-6.56A30.87,30.87,0,0,0,122.24,158.19Z"/><path class="cls-4" d="M31.23,73A61.52,61.52,0,0,0,22,81.89l.3.31a2.18,2.18,0,0,1,2.09,2.26L29,80a4.42,4.42,0,0,1-1.27-.13c-.44-.19-.34-.5.15-.43a5.16,5.16,0,0,1,1.2.45l3.43-3.21Z"/><path class="cls-4" d="M19.93,83.87A51.42,51.42,0,0,0,12.07,92a2.67,2.67,0,0,1,2.15,2.94l8.32-8.61a2.22,2.22,0,0,1-2.28-2.1Z"/><path class="cls-4" d="M.24,114.17c2.22-1.82-.69-6.69,4.13-7l2.39-3.81c-2.37-.19-1.72-1.77-1.47-3.18L5,99.92C1.34,104-.74,108.57.24,114.17Z"/><path class="cls-4" d="M104.1,86.33l5.33.84c-2.27-3.19-5.24-5.72-8.06-8.39-.07,1.48-.13,3-.2,4.45l0,0,1,1.07-.06-.06,1.06,1.07-.07-.06,1.06,1.08Z"/><path class="cls-4" d="M474.15,471.08c-5.26-1.78-10.5-1.38-15.72.14Z"/><path class="cls-2" d="M143.13,68.08c.66-1.5,3.91-2.25,1.69-4.54-1.4-1.45-3.37-2.27-4.58.53C142.74,64.29,141.78,67,143.13,68.08Z"/><path class="cls-4" d="M9.2,95.06A14.56,14.56,0,0,0,5,99.92l.33.3c1.28-.06,2.46.09,3.14,1.38l2.84-3.42Z"/><path class="cls-5" d="M9.2,95.06l2.07,3.12,3-3.28A2.67,2.67,0,0,0,12.07,92h0a1.83,1.83,0,0,1-2,2.15Z"/><path class="cls-5" d="M31.23,73l1.26,3.72,2.75-2.53a3.29,3.29,0,0,0-3.13-2Z"/><path class="cls-4" d="M240.08,361.41c-.09-2.63-1.48-4-4.07-4.22A9.87,9.87,0,0,0,240.08,361.41Z"/><path class="cls-4" d="M457.87,472c-2.54,1.33-2.06,3.13-.78,5.05l.47,0c.11-.69.22-1.38.32-2.07l.22-1.85Z"/><path class="cls-4" d="M256.22,36.14c.66,2.39,1.62,2.72,3,.44Z"/><path class="cls-2" d="M138.16,66.42l-2.89.16C136.35,68.73,137.31,68.59,138.16,66.42Z"/><path class="cls-4" d="M10.08,94.11a1.83,1.83,0,0,0,2-2.15C11.41,92.67,10.75,93.39,10.08,94.11Z"/><path class="cls-4" d="M614.77,291a2,2,0,0,0,1.38-1.82Z"/><path class="cls-4" d="M22,81.89l-1,1,.31.31,1-1Z"/><path class="cls-4" d="M20.94,82.87l-1,1,.33.32,1-1Z"/><path class="cls-5" d="M104.3,168.41l-1.22-1.2Z"/><path class="cls-7" d="M350.92,448.77l-.18.2c-1.9-1.67-4.25-1.84-6.61-2l-.21-.14-.23.12-3.28-1.2,1.8-2.61c1-.44,1.75-1,1.69-2.21a.5.5,0,0,0,.29-.57c2.08-2,.91-3.84-.26-5.74-7.28-11.89-16.11-22.62-24.78-33.48.12-1.79,1.56-1.79,2.82-2.24,24.89-8.94,44.86-24.64,61.85-44.63,7.7-9.07,13.64-19.18,19.41-29.45,1-1.73,2-3.47,2-5.56.86-3.83-1.59-1.37-2.24-1-7.56,4.2-15,8.61-22.56,12.81-30.42,16.9-63.41,25.46-97.63,30.2-13.72,1.9-27.18,3.28-39.43-5.23L242.23,355l-.91-.91L240.24,353h.07a8.89,8.89,0,0,0-.89-1.77c-8.24-10-3.85-23.35,3.52-30.08,5.68-5.18,12.57-7.37,19.7-9,13.77-3.2,27.54-6.34,40.93-10.91,8.16-2.8,16.45-5.4,23.3-11l.69-.75-1.12-.06-2.11.55c1.87-3.44,5.19-5.42,8-7.91,2.05-1.82,4.46-3.31,5.86-6.84-7.83,2.24-14.83,4.75-22.16,6-15.13,2.65-30.28,3.78-45.53,1.06a20.32,20.32,0,0,0-3.49,0c-.87-1.23-2.27-1.32-3.55-1.58-20-4.16-38.37-11.81-54.33-24.91-16.64-13.66-30.52-29.51-37.07-50.32-10.47-33.26-5.65-65.45,9-96.48C188.51,93.27,200,80.56,212.5,68.7l-.16-.3a2,2,0,0,0,1.92-1.19l0,0,1.1-1-.07.08,1.1-1-.06.09,1.08-1-.06.09a2.26,2.26,0,0,0,2-1.17l0,0a3,3,0,0,0,2.18-1.84l-.13,0a2.38,2.38,0,0,0,2.11-1.13c1-.58,2-1.13,3-1.76,29-18.61,60.32-27.67,94.89-23.34C352,39,378.15,52,399,75.06,419.2,97.35,430.85,124,437.91,152.8a37.67,37.67,0,0,0,2.57,8,160,160,0,0,1,13,37.65c3.78,17.79,9.63,34.62,21.74,48.68-3,1.76-6.65.9-9.69,3.23-6.36,4.87-7.52,11.42-6,18.32s5.71,12.13,12.76,14.14c6.39,1.83,13.72-2.72,15.6-9.22.63-2.2.64-4.63,2.26-6.49q10.08,15.5,20.15,31c8.44,12.93,18.14,24.76,31.09,33.43C563,346.07,586.25,350,611.18,341l1.49-.78.21.14.22-.13a9.25,9.25,0,0,0,5.12-2l-.06,0a5.58,5.58,0,0,0,4.11-2l-.08.05a2.19,2.19,0,0,0,2.08-1.07l-.08.07a2.17,2.17,0,0,0,2.08-1.07l-.08.06a2.36,2.36,0,0,0,2.06-1.09l-.08,0a2.38,2.38,0,0,0,2.06-1.08l-.07,0,1.11-1-.06.1a2.64,2.64,0,0,0,2.28-1.08l1.66-1,1.11-1,0,.12a6.69,6.69,0,0,0,4.08-3l-.09,0,1.93-1.2,1.05-.86a5.61,5.61,0,0,0,3.16-2.87l-.14-.11a1.09,1.09,0,0,0,1.08-1.05l0,.09a1.92,1.92,0,0,0,1.74-1.26l.09-.08a1.94,1.94,0,0,0,1.26-1.74l-.1.05a1.05,1.05,0,0,0,1.07-1.05l-.07,0a1.07,1.07,0,0,0,1.06-1.06l.12.14c11.68-12,20.07-25.88,23.59-42.45a33.94,33.94,0,0,1,1.14-4.83c1.81-4.91,6.67-5.74,10.16-1.77a17.59,17.59,0,0,1,3.07,5.66c3.6,9.85,4.23,20.08,4.12,30.43-.15,13.63-3.75,26.57-7.62,39.47l.11.11a2,2,0,0,0-.82,2.12,1.54,1.54,0,0,0-.13.79,2.1,2.1,0,0,0-1,2.25.55.55,0,0,0,0,.58l-.89,1.39a1.06,1.06,0,0,0-.1.72,2.29,2.29,0,0,0-1.13,2.19l0-.07a51.19,51.19,0,0,0-6,12l0,0a2.11,2.11,0,0,0-1.08,2l.13,0-1,1.13,0-.06-1.12,2L674,368l-1,1.14,0,0a5.34,5.34,0,0,0-2,3.05h0a6.07,6.07,0,0,0-2.26,3.84v-.09a3.06,3.06,0,0,0-1.79,2.22l0,0L665.9,380v-.12a3.52,3.52,0,0,0-2.09,3l.11,0-1,1.06,0-.1a3.17,3.17,0,0,0-1.86,2.18l0,0a2.16,2.16,0,0,0-1.2,1.93l.1-.05-1,1.07.07-.05L657.93,390v-.12a9.8,9.8,0,0,0-4,4.15l-6.86,6.87L646,402.07l.07-.08L645,403.06l0-.1a3.27,3.27,0,0,0-2.11,2H643L641.93,406l.05-.08-1.07,1,0-.09A2.07,2.07,0,0,0,639,408l0,0a3.13,3.13,0,0,0-2.16,1.89l.11,0-1.08,1,0-.09a2.09,2.09,0,0,0-2,1.18l.07,0L633,413l.07-.1-1.93,1.19,0,0-1.12,1,.07-.08L629,416l.06-.11L627,417l0,0a5.22,5.22,0,0,0-3,2l.07,0-1.47,1-1.55.93L620,422v-.14a8.07,8.07,0,0,0-5.08,3H615a2,2,0,0,0-2,1.1l0-.06a3.46,3.46,0,0,0-3.12,1.89l.09.07A3.28,3.28,0,0,0,607,429l.05,0L606,430l0-.11a3.42,3.42,0,0,0-3,1.19l.05,0c-14.65,6.25-29.46,12.08-44.92,16a310.62,310.62,0,0,1-59,8.75c-1.92-2.07.27-3.33,1-4.77,4.93-9.24,6.14-18.46.52-27.94-6.91-11.67-21.72-11.9-28.93-7.64-9.78,5.79-12.31,18.8-6.22,29.52a40.73,40.73,0,0,0,9.61,11.24l-16.08.17c-.24-1.73-.48-3.46-.71-5.19.21-2.94.15-5.84-1.46-8.63-1.79,1.48-1.17,3.06-.7,4.62a1.57,1.57,0,0,0,0,1c-1.3,2.54-2,5.15-1.07,8l-.09,2.91a2.66,2.66,0,0,0-1,2.18c-1.34,11.39-2.81,22.78-4,34.19-.47,4.59-2.33,7-7.06,8.06-13.24,2.94-26.7,3.73-40.14,4.42a208.39,208.39,0,0,1-39.85-1.71c-4.05-.57-5.64-2.12-3.49-6.2a15.32,15.32,0,0,0,2-9.16c-2.65-19.22-2.08-38.52-1.59-57.82,0-1.55.59-3.2-.78-5.46-.83,2.14-1.53,3.74-2.06,5.38a57.55,57.55,0,0,0-2.34,12.74c-.21,2.37-1,3.83-3.68,3.21Zm23.56-228.4c8.44-7.41,10.71-15.58,6.57-24.39-4-8.45-13.79-13.35-23.33-11.65-9.16,1.62-16.6,9.81-17.44,19.39-.36,4-.41,8,1.26,11.79-13.43,9.88-28.67,15.4-45,18-23.14,3.76-46.1,3.11-68.59-4.19-10.53-3.42-20.21-8.33-28.15-17.91-.26,4.82,1.7,7.31,4.15,9.52a56.88,56.88,0,0,0,20.66,11.84c35.07,11.47,69.68,10.89,103.55-4.74a68.31,68.31,0,0,0,15.91-10.22C348.68,226.41,365.9,227.91,374.48,220.37Zm-20.94-93a21.29,21.29,0,0,0-21.07,20.93c-.18,11.32,9.46,20.67,21.19,20.55a20.74,20.74,0,0,0-.12-41.48Zm-56.2-54.29c-4.29-.12-6,2-6.13,5.93a5.67,5.67,0,0,0,6.18,6.12c4-.21,5.73-2.67,5.85-6.48C303.29,74.63,301.16,73.2,297.34,73.09ZM460.64,305c4-.06,5.47-3.11,5.36-6.49-.13-3.75-2.72-5.33-6.43-5.41-4-.08-5.06,2.41-5.4,5.65C454.61,302.7,456.73,305.06,460.64,305ZM300,64.73a2.49,2.49,0,0,0-2.58-2.41c-1.7-.07-2.24,1-2.22,2.51s.93,2.32,2.48,2.29S300.2,66.37,300,64.73Z"/><path class="cls-8" d="M650.07,311.12c3.52-6.22,9.41-10.77,12.27-17.42.83-1.93,3.45-4.25.39-6s-5,.69-6.37,3.07a22.1,22.1,0,0,0-1.67,5.16c-1.24,4.67-1.85,4.91-5.6,1.53-6-5.41-13.08-8.28-21-9.5-5.7.82-10.7,5.93-12,12.33-.49,2.43-.79,4.91-1.21,7.36-.38,2.22-.8,4.43-1.24,6.8-2.7-1.18-3.08-3.69-4.18-5.62-4.15-7.24-8.64-14.11-15.33-19.41C588,284.5,581.42,284,574.56,287a43.22,43.22,0,0,0-17.69,13.43c-1,1.31-2.06,3.38-3.66,3-2.11-.51-.8-2.84-1-4.35-.17-1.14,0-2.34-.08-3.49-.6-6.14-4.46-8.13-9.73-5-1.78,1.05-3.48,2.26-6.37,4.14,2.26-6.63,4.8-11.72,5.51-17.26s2.52-11,.83-16.73c-1.76-6-5.57-9.32-11.72-9.63a48.53,48.53,0,0,0-20.5,3.2c2.81-7.24,5.73-13.34,7.13-19.92,2.13-10,4.88-20.07,1.1-30.39a13.67,13.67,0,0,0-6.65-7.69,42.64,42.64,0,0,0-16.18-4.75c-10.87-1.12-21.78-1.44-32.68.36-4.5.74-5.22,3-4.37,7,4,18.73,11.68,35.55,24.22,50.15,11.64,13.56,20.42,29.09,30,44.1,9.82,15.46,21.41,29.4,37.69,38.4,17.12,9.48,35.35,11.93,54.39,6.56a135.54,135.54,0,0,0,24.41-10l2-1.08,1.86-1,1.16-1h0a6.84,6.84,0,0,1,5-3h0l1-1v0c.25-1.76,1.78-2.25,3-3A36.31,36.31,0,0,1,650.07,311.12Z"/><path class="cls-8" d="M460.51,160.74c6-3.44,10.14-8.55,13.75-14.17,7.46-11.61,6-21.23-5-29.59-11.34-8.66-24.48-13.21-38.38-15.73-1-.18-2,0-3-.11-3.72-.33-3.86,1.2-2.36,4,5.35,10.18,10.35,20.67,12.79,31.86,3.54,16.22,11.5,30.77,16.08,46.54,1.43,4.9,4.3,6.11,9.11,3.83,6.3-3,10.42-8.21,13.11-14.45,1.71-4-.49-7.57-5.51-9.63a22.87,22.87,0,0,0-5.31-1.18c-1.59-.23-3.22-.2-4.83-.29Z"/><path class="cls-8" d="M407.28,55.22a76.33,76.33,0,0,0-2.11-16.06C400.87,23,392.4,21.41,379.5,23.73c-8.39,1.51-15.91,5.65-22.84,10.72-2.73,2-2.84,3.36.43,4.75A133.81,133.81,0,0,1,401.34,70c2.51,2.59,3.66,1.54,4.11-1.31C406.23,63.78,406.8,58.86,407.28,55.22Z"/><path class="cls-8" d="M274,32.8c13.43-3.75,27.17-4,41-3.54,3.3.1,6.58.65,9.88.9s4-1.17,2.41-3.88A51.42,51.42,0,0,0,308,6.68c-7.31-4.15-14.12-2-20.26,2.85-6.75,5.34-11.46,12.36-15.59,19.81-.54,1-1.32,2.07-.4,3.2C272.33,33.3,273.23,33,274,32.8Z"/><path class="cls-9" d="M475.19,247.17c-3,1.76-6.65.9-9.69,3.23-6.36,4.87-7.52,11.42-6,18.32s5.71,12.13,12.76,14.14c6.39,1.83,13.72-2.72,15.6-9.22.63-2.2.64-4.63,2.26-6.49A187,187,0,0,0,475.19,247.17Z"/><path class="cls-8" d="M246.14,34.39c-3.79-1.18-7.53-2.52-11.37-3.5-7.85-2-12.79.24-16.19,7.68-1.84,4-2.91,8.4-4.32,12.62.34,2.53-1.44,6.08,1,7.39s4.53-1.93,6.7-3.25A194.79,194.79,0,0,1,249.19,41c1.52-.63,3.17-1.08,4-2.76l-2-1.07h0l-1.2-1a2.28,2.28,0,0,1-.78-.07L248,35.25Z"/><path class="cls-8" d="M421.28,72.18c-3.62-.36-7.38.31-11.14,1-3.06.55-4.73,1.43-2.21,4.76,3.8,5,7.22,10.34,11,15.39,3.33,4.46,10.3,4.13,13.46-.56a31.33,31.33,0,0,0,3.68-6.48c3.32-9.08.31-12.48-8.08-14.05C425.9,71.84,423.67,72.18,421.28,72.18Z"/><path class="cls-4" d="M643.09,318c-1.24.77-2.77,1.26-3,3a3.52,3.52,0,0,1,3.12,2.21,5.61,5.61,0,0,0,3.16-2.87C644.9,320.11,643.29,320.05,643.09,318Z"/><path class="cls-4" d="M639.07,322.08a6.84,6.84,0,0,0-5,3A4.65,4.65,0,0,0,639.07,322.08Z"/><path class="cls-4" d="M613.1,340.22a9.25,9.25,0,0,0,5.12-2C616.2,338.09,614.15,337.89,613.1,340.22Z"/><path class="cls-4" d="M636.22,328.32a6.69,6.69,0,0,0,4.08-3C638.08,325.16,637,326.47,636.22,328.32Z"/><path class="cls-4" d="M618.16,338.23a5.58,5.58,0,0,0,4.11-2C620.46,336,618.93,336.32,618.16,338.23Z"/><path class="cls-4" d="M219.25,63.25a3,3,0,0,0,2.18-1.84C220,61.21,219.34,61.89,219.25,63.25Z"/><path class="cls-4" d="M631.1,327.06l-2,1.08C630.73,329.49,630.91,328.26,631.1,327.06Z"/><path class="cls-4" d="M631.21,331.33a2.64,2.64,0,0,0,2.28-1.08A2,2,0,0,0,631.21,331.33Z"/><path class="cls-4" d="M622.19,336.33a2.19,2.19,0,0,0,2.08-1.07A1.84,1.84,0,0,0,622.19,336.33Z"/><path class="cls-4" d="M640.21,325.33l1.93-1.2A2,2,0,0,0,640.21,325.33Z"/><path class="cls-4" d="M212.34,68.4a2,2,0,0,0,1.92-1.19A1.84,1.84,0,0,0,212.34,68.4Z"/><path class="cls-4" d="M217.31,64.39a2.26,2.26,0,0,0,2-1.17A1.9,1.9,0,0,0,217.31,64.39Z"/><path class="cls-4" d="M221.3,61.38a2.38,2.38,0,0,0,2.11-1.13A2,2,0,0,0,221.3,61.38Z"/><path class="cls-4" d="M251.17,37.21l2,1.07A2.13,2.13,0,0,0,251.17,37.21Z"/><path class="cls-4" d="M624.19,335.33a2.17,2.17,0,0,0,2.08-1.07A1.84,1.84,0,0,0,624.19,335.33Z"/><path class="cls-4" d="M626.19,334.32a2.36,2.36,0,0,0,2.06-1.09A1.89,1.89,0,0,0,626.19,334.32Z"/><path class="cls-4" d="M628.17,333.28a2.38,2.38,0,0,0,2.06-1.08A2.06,2.06,0,0,0,628.17,333.28Z"/><path class="cls-4" d="M634.12,325.1l-1.16,1Z"/><path class="cls-4" d="M635.15,329.23l1.11-1Z"/><path class="cls-4" d="M630.16,332.24l1.11-1Z"/><path class="cls-4" d="M611.18,341l1.49-.78Z"/><path class="cls-4" d="M640.08,321.09l-1,1Z"/><path class="cls-4" d="M248,35.25l1.21.94Z"/><path class="cls-4" d="M250,36.26l1.2,1Z"/><path class="cls-4" d="M216.29,65.34l1.08-1Z"/><path class="cls-4" d="M215.25,66.3l1.1-1Z"/><path class="cls-4" d="M214.22,67.24l1.1-1Z"/><path class="cls-4" d="M456.92,480.1c-2.71,1.32-2.1,3.11-.73,5A10.39,10.39,0,0,0,456.92,480.1Z"/><path class="cls-10" d="M457.88,475c-.1.69-.21,1.38-.32,2.07C458.94,476.54,459.06,475.85,457.88,475Z"/><path class="cls-11" d="M288.17,424.13c8.67,4.35,17.31,8.74,26,13,1.88.93,3.66,2.34,6,1.93-3.26-5.77-8.12-10.29-12.06-15.54-9.62-12.86-19.46-25.55-29.21-38.31l-.75-.95-1-1.17h0l-1.36-1.91c-2.7-3.11-5.38-6.25-8.14-9.31-.88-1-2-2-3.46-1.46s-1.05,1.92-1.14,3c-1.84,22.45-.29,44.8,1.8,67.15a336.49,336.49,0,0,0,5.33,33.92c.74,3.73.24,6.35-3.28,8.4-1.73,1-4.08,2.66-3.43,5,.58,2.08,3.22,1.91,5.13,2.2a215.09,215.09,0,0,0,62.06-.05c4.34-.6,6.74-2.44,7.44-7,.87-5.74,2.24-11.41,3.64-17,.78-3.13-.22-4.22-3.28-5.24-15.6-5.24-30.17-12.42-41.57-24.72-3.35-3.62-7-7.15-8.72-12l-.18-.33Z"/><path class="cls-11" d="M319.15,401.16c.12-1.79,1.56-1.79,2.82-2.24,24.89-8.94,44.86-24.64,61.85-44.63,7.7-9.07,13.64-19.18,19.41-29.45,1-1.73,2-3.47,2-5.56-3.33,1.57-4.83,4.94-7.06,7.52-18.61,21.55-42.67,33.26-70,39.29A117.3,117.3,0,0,1,308.11,369c-4.31.22-8.56,1.55-12.93.74.13.74.27,1.48.41,2.22a22.33,22.33,0,0,1,2.11,2Q308.46,387.54,319.15,401.16Z"/><path class="cls-12" d="M292.36,372.12a.39.39,0,0,1-.26-.48l-1.17-1.45c-4.15-1.66-7.83-.22-10.94,2.29-4.82,3.89-.77,7.08,1.28,10.34l1,1.32c.2.27.4.53.59.8q17.7,22.94,35.43,45.85c1.92,2.47,3.45,6.18,6.38,6.72s3.89-4.1,6.54-5.39c5-2.47,3.89-5.05,1-8.73C318.89,406.32,305,389.7,292.36,372.12Z"/><path class="cls-5" d="M292.36,372.12c12.64,17.58,26.53,34.2,39.83,51.27,2.87,3.68,4,6.26-1,8.73-2.65,1.29-3.49,6-6.54,5.39s-4.46-4.25-6.38-6.72q-17.79-22.87-35.43-45.85l-3.92.3c9.75,12.76,19.59,25.45,29.21,38.31,3.94,5.25,8.8,9.77,12.06,15.54l0,0,2.09,0c2,1.67,3.94.31,5.91,0,.4-.53.76-1.09,1.2-1.58,6.78-7.64,7-7.63,12.75.58a2.08,2.08,0,0,1,2,2.27c2.08-2,.91-3.84-.26-5.74-7.28-11.89-16.11-22.62-24.78-33.48Q308.44,387.55,297.7,374a22.33,22.33,0,0,0-2.11-2Z"/><path class="cls-13" d="M342.16,438.11c-5.7-8.21-6-8.22-12.75-.58-.44.49-.8,1.05-1.2,1.58C333.52,448.12,335.73,448,342.16,438.11Z"/><path class="cls-10" d="M354.85,473.05c0-2.48,0-4.95,0-7.43l-7.92-2.4c.95,4.13-1.54,7.24-1.37,10.83C348.31,470.26,351.43,470.29,354.85,473.05Z"/><path class="cls-5" d="M295.18,369.72c4.37.81,8.62-.52,12.93-.74C303.74,368.1,299.33,366.66,295.18,369.72Z"/><path class="cls-4" d="M350.74,449c-1.9-1.67-4.25-1.84-6.61-2A8.57,8.57,0,0,0,350.74,449Z"/><path class="cls-4" d="M343.69,447l-3.28-1.2C340.91,447.81,342.5,446.83,343.69,447Z"/><path class="cls-5" d="M342.21,443.16c1-.44,1.75-1,1.69-2.21A2.25,2.25,0,0,0,342.21,443.16Z"/><path class="cls-5" d="M275.83,381.21l1.36,1.91A1.86,1.86,0,0,0,275.83,381.21Z"/><path class="cls-11" d="M322.3,439.08l-2.09,0C320.93,440.34,321.63,440.21,322.3,439.08Z"/><path class="cls-4" d="M241.32,354.09,240.24,353Z"/><path class="cls-4" d="M243.42,356.06,242.23,355Z"/><path class="cls-5" d="M290.93,370.19l1.17,1.45Z"/><path class="cls-5" d="M282.23,384.14l-1-1.32Z"/><path class="cls-5" d="M277.19,383.12l1,1.17Z"/><path class="cls-12" d="M122.24,158.19a30.87,30.87,0,0,1-7.92,7.33c-2.8,1.87-3,3.93-.9,6.56s3.91,5.28,5.85,7.93q18,22.63,36,45.28c9.21,11.6,18.44,23.17,27.53,34.86,2,2.56,3.47,3.51,6.1.72,3.72-3.94,8.13-3.57,12.76-1-13.48-17.15-26.68-34.17-39.51-51.47-12.82-15.06-24.41-31.07-36.48-46.71C124.64,160.4,124,158.78,122.24,158.19Z"/><path class="cls-7" d="M217.45,295.21c0-1,0-2.1,0-3.15-.57-2.3-1.13-5-4-5.05-5.66-.16-6.54,5.09-8.82,8.94a2.9,2.9,0,0,1-.89-2.94,18.73,18.73,0,0,1,4.06-8.94c2.42-3.24,1.37-6.76-1.16-8.94-2.71-2.33-5.12.28-7.21,2.25-1.42,1.33-1.91,3.51-4.05,4.37-.76-3.49,1.09-6,3.17-8,2.27-2.22,3.22-4.5,2.41-7.53l.06.07a2.1,2.1,0,0,1-1.09-2l.16,0-1.45-1.06c-3.59-1-6.15.91-8.32,3.26-7.74,8.41-10,18.27-6.4,29,3.36,10.2,11.17,15.3,21.54,16.61,2.7.35,5.51,1.68,8.23,0-1.26-2.89-2-5.75.35-8.49a.31.31,0,0,1,.08-.47l1-1.17-.12.09a2.33,2.33,0,0,1,1.08-2.06l-.05.08a2.34,2.34,0,0,1,1-2.09l-.07.07Z"/><path class="cls-11" d="M324.33,290c1.87-3.44,5.19-5.42,8-7.91,2.05-1.82,4.46-3.31,5.86-6.84-7.83,2.24-14.83,4.75-22.16,6-15.13,2.65-30.28,3.78-45.53,1.06a20.32,20.32,0,0,0-3.49,0c-.91,6.89-1.83,13.77-2.71,20.66-.48,3.72,1.63,3,4,2.44,15.19-3.47,30.11-7.93,45-12.39C317,291.9,320.65,291,324.33,290Z"/><path class="cls-11" d="M230.15,292.45c4.66,6.26,9.34,12.52,14,18.8.76,1,1.48,1.72,2.89,1.09q4.78-2.13,9.63-4.14a2.45,2.45,0,0,0,1.59-2.27c.62-5.45,1.28-10.89,1.89-16.33.16-1.42-.12-2.68-1.67-3.25-.31-.11-.64-.17-1-.25-9.79-2.48-19.18-6.21-28.57-10-1.35,3.15,2.82,5.61.12,8.3Q229.59,288.43,230.15,292.45Z"/><path class="cls-12" d="M220.78,290.14c1,4.72.66,9.3-2,13.46-1.07,1.71-.85,3,.45,4.43,4.18,4.74,8.32,9.53,12.33,14.41,1.49,1.81,2.49,1.81,3.69-.14.52-.84,1.3-1.52,1.82-2.37,1.31-2.12,5.19-2.73,4.82-5.18s-2.8-4.38-4.36-6.54c-4.37-6-9.61-11.43-13.43-17.88C223,290.22,222,288.39,220.78,290.14Z"/><path class="cls-7" d="M230.15,292.45q-.56-4-1.1-8c-4.06-7.77-8.55-15.19-15.19-21.15-3-2.71-5.73-4.36-9.24-1.05-.09,4.53-1.41,9.72,5.93,10,1.09,0,2.3,1.29,3.15,2.25,4,4.47,7.83,9,11.72,13.58Z"/><path class="cls-5" d="M224.12,290.33c-1.11-.11-2.12-1.94-3.34-.19-1.61-.24-2.46.85-3.32,1.92-.57-2.3-1.13-5-4-5.05-5.66-.16-6.54,5.09-8.82,8.94a2.9,2.9,0,0,1-.89-2.94,18.73,18.73,0,0,1,4.06-8.94c2.42-3.24,1.37-6.76-1.16-8.94-2.71-2.33-5.12.28-7.21,2.25-1.42,1.33-1.91,3.51-4.05,4.37-.76-3.49,1.09-6,3.17-8,2.27-2.22,3.22-4.5,2.41-7.53.73-.14,1.82,2.26,2.18-.28.2-1.37-.29-3,1.44-3.73-.09,4.53-1.41,9.72,5.93,10,1.09,0,2.3,1.29,3.15,2.25,4,4.47,7.83,9,11.72,13.58A2.85,2.85,0,0,0,224.12,290.33Zm-7.5-6.75c-.09-.19-.17-.39-.26-.58-1.38-2.37-1.38-2.37-3.78-4.09-1.06,3.26.36,4.48,3.44,4.43Z"/><path class="cls-8" d="M180.38,98.78c3.43-4.66,5.65-9.16,9.16-12.71a2.74,2.74,0,0,0,.8-2.21c-.42-1.17-1.7-.76-2.6-.58-4.44.85-6.06,4.24-7.11,8.11A19.94,19.94,0,0,0,180.38,98.78Z"/><path class="cls-5" d="M214.08,303.62c-2.33,2.74-1.61,5.6-.35,8.49C215.07,309.33,213.84,306.44,214.08,303.62Z"/><path class="cls-5" d="M217.45,295.21l-.45,2.86C218.39,297.31,218.37,296.33,217.45,295.21Z"/><path class="cls-5" d="M200,264.26a2.1,2.1,0,0,0,1.09,2A1.72,1.72,0,0,0,200,264.26Z"/><path class="cls-5" d="M216.09,300a2.33,2.33,0,0,0-1.08,2.06A1.87,1.87,0,0,0,216.09,300Z"/><path class="cls-5" d="M217.07,298a2.34,2.34,0,0,0-1,2.09A1.89,1.89,0,0,0,217.07,298Z"/><path class="cls-5" d="M215.13,302l-1,1.17Z"/><path class="cls-10" d="M163.87,205.49c.31.27.83.83.9.78.63-.47.36-1.05.07-1.61Z"/><path class="cls-5" d="M198.68,263.23l1.45,1.06Z"/><path class="cls-9" d="M499.2,455.75c-1.92-2.07.27-3.33,1-4.77,4.93-9.24,6.14-18.46.52-27.94-6.91-11.67-21.72-11.9-28.93-7.64-9.78,5.79-12.31,18.8-6.22,29.52a40.73,40.73,0,0,0,9.61,11.24l5.9.48a49.42,49.42,0,0,1,11.14-.29Z"/><path class="cls-4" d="M499.2,455.75l-6.94.6c8.44,2.14,16.82.22,25.16-.61a250.25,250.25,0,0,0,42-7.67c13.93-3.85,27.79-8,40.81-14.5,1.2-.6,2.41-1.18,2.88-2.58-14.65,6.25-29.46,12.08-44.92,16A310.62,310.62,0,0,1,499.2,455.75Z"/><path class="cls-4" d="M481.12,456.64l-5.9-.48-16.08.17c.39.5.76,1.4,1.19,1.43a115.66,115.66,0,0,0,19.87,0C480.53,457.71,480.81,457,481.12,456.64Z"/><path class="cls-4" d="M456.27,448.09c-1.3,2.54-2,5.15-1.07,8,1.89-1.12-.34-4.93,3.23-4.95.21-2.94.15-5.84-1.46-8.63-1.79,1.48-1.17,3.06-.7,4.62.1.1.29.21.28.28A3.36,3.36,0,0,1,456.27,448.09Z"/><path class="cls-4" d="M682.92,351a51.19,51.19,0,0,0-6,12A17.22,17.22,0,0,0,682.92,351Z"/><path class="cls-4" d="M657.92,389.89a9.8,9.8,0,0,0-4,4.15C656.46,393.81,658,392.59,657.92,389.89Z"/><path class="cls-4" d="M620,421.85a8.07,8.07,0,0,0-5.08,3C617.22,424.91,619.1,424.25,620,421.85Z"/><path class="cls-4" d="M671.12,372.12a6.07,6.07,0,0,0-2.26,3.84C671,375.48,671.13,373.85,671.12,372.12Z"/><path class="cls-4" d="M613,425.87a3.46,3.46,0,0,0-3.12,1.89C611.57,428.2,612.55,427.46,613,425.87Z"/><path class="cls-4" d="M627.06,417a5.22,5.22,0,0,0-3,2C625.56,419.13,627,419,627.06,417Z"/><path class="cls-4" d="M673.08,369.07a5.34,5.34,0,0,0-2,3.05C673,371.91,673.14,370.54,673.08,369.07Z"/><path class="cls-4" d="M665.91,379.9a3.52,3.52,0,0,0-2.09,3C665.55,382.61,666.1,381.52,665.91,379.9Z"/><path class="cls-4" d="M645,403a3.27,3.27,0,0,0-2.11,2C644.34,405.05,645,404.37,645,403Z"/><path class="cls-4" d="M639,408a3.13,3.13,0,0,0-2.16,1.89C638.33,410.07,639,409.39,639,408Z"/><path class="cls-4" d="M668.86,375.87a3.06,3.06,0,0,0-1.79,2.22C668.43,378,669.1,377.29,668.86,375.87Z"/><path class="cls-4" d="M662.87,383.87a3.17,3.17,0,0,0-1.86,2.18C662.4,386,663.08,385.31,662.87,383.87Z"/><path class="cls-4" d="M606,429.84a3.42,3.42,0,0,0-3,1.19C604.2,431.08,605.4,431.23,606,429.84Z"/><path class="cls-4" d="M610,427.83A3.28,3.28,0,0,0,607,429C608.2,429.07,609.41,429.24,610,427.83Z"/><path class="cls-4" d="M687,341a2,2,0,0,0-.82,2.12A2.14,2.14,0,0,0,687,341Z"/><path class="cls-4" d="M661.05,386a2.16,2.16,0,0,0-1.2,1.93A1.74,1.74,0,0,0,661.05,386Z"/><path class="cls-4" d="M641,406.84A2.07,2.07,0,0,0,639,408C639.91,408,640.68,407.84,641,406.84Z"/><path class="cls-4" d="M684,348.84a2.29,2.29,0,0,0-1.13,2.19A2,2,0,0,0,684,348.84Z"/><path class="cls-4" d="M686,343.9a2.1,2.1,0,0,0-1,2.25A2.29,2.29,0,0,0,686,343.9Z"/><path class="cls-4" d="M633,412.91l-1.93,1.19A2,2,0,0,0,633,412.91Z"/><path class="cls-4" d="M629,415.88,627,417A1.85,1.85,0,0,0,629,415.88Z"/><path class="cls-4" d="M615,424.83a2,2,0,0,0-2,1.1C613.89,426,614.66,425.85,615,424.83Z"/><path class="cls-4" d="M667.09,378.07,665.9,380A1.92,1.92,0,0,0,667.09,378.07Z"/><path class="cls-4" d="M636,410.83a2.09,2.09,0,0,0-2,1.18C634.9,412,635.67,411.84,636,410.83Z"/><path class="cls-4" d="M676.93,363a2.11,2.11,0,0,0-1.08,2C676.85,364.65,677,363.88,676.93,363Z"/><path class="cls-4" d="M675,366l-1.12,2A1.85,1.85,0,0,0,675,366Z"/><path class="cls-4" d="M659,388.92,657.93,390Z"/><path class="cls-4" d="M647.07,400.91,646,402.07C646.35,401.68,646.71,401.3,647.07,400.91Z"/><path class="cls-4" d="M646.07,402,645,403.06Z"/><path class="cls-4" d="M643,404.93,641.93,406Z"/><path class="cls-4" d="M642,405.9l-1.07,1Z"/><path class="cls-4" d="M634.07,412,633,413Z"/><path class="cls-4" d="M631.12,414.08l-1.12,1Z"/><path class="cls-4" d="M630.07,415,629,416Z"/><path class="cls-4" d="M624.1,419l-1.47,1Z"/><path class="cls-4" d="M621.08,420.94,620,422Z"/><path class="cls-4" d="M676,364.94l-1,1.13Z"/><path class="cls-4" d="M607.09,429,606,430Z"/><path class="cls-4" d="M637,409.9l-1.08,1Z"/><path class="cls-4" d="M674,368l-1,1.14Z"/><path class="cls-4" d="M685,346.73l-.89,1.39Z"/><path class="cls-4" d="M663.93,382.91l-1,1.06Z"/><path class="cls-4" d="M660,387.9l-1,1.07Z"/><path class="cls-14" d="M35.24,74.18l-2.75,2.53-3.43,3.21L29,80l-4.64,4.43-1.8,1.83L14.22,94.9l-3,3.28L8.43,101.6c-.23.53-.47,1.05-.7,1.57,1.55-.42,2,.53,2.37,1.79,4.17,14.71,14.16,24.38,27.27,31.33,15.67-17,31.76-33.67,49-49.17,2.84-2.56,5.55-5.3,9-7.09,1.16-.6,1.91-1.32,1.55-2.72-5.68-4.1-9.37-10.14-14.51-14.76-1.23-1.11-2.28-2.4-3.51-3.51C71,51.93,65.5,51.51,56.6,57.25,48.93,62.21,42.34,68.52,35.24,74.18Z"/><path class="cls-15" d="M113.34,138.84c-1.91,5-1.91,5-7.57.36.46,4-1.94,8.48,1.65,12.09l-4.09,4c-4.46-.66-8.53-2.53-12.67-4.16s-8.18-3.34-13.12-5.36c4.54,9,11.76,13,20.09,15.43.31,2.61-1.21,3.21-3.39,3.08-4.15-2.36-8.93-1.95-13.37-3a95.82,95.82,0,0,1-21.35-8,11.91,11.91,0,0,1-5.27-5.1l0,0c4.72-.06,8.46,3.51,13.37,3.19L43,137.13c5.36-7.42,12-13.67,18.38-20.16,10.89-11.12,21.8-22.25,33.88-32.12,1.57-1.28,3.22-3.81,5.92-1.62l0,0,1,1.07-.06-.06c.35.36.7.72,1.06,1.07l-.07-.06,1.06,1.08-.07,0c3.3,4,6.51,8,9.91,11.86,7.78,8.83,10.74,19.47,11,30.85.15,6.53-1.74,12.59-8.79,15.34A9.15,9.15,0,0,0,113.34,138.84Zm-9.24-6.45c.58,1.08,1.56,2.38,3,2.2,1.27-.16,1-1.48,1.08-2.42.23-5.52-7.93-17.67-14.66-20.14C97.47,119.62,100.71,126.05,104.1,132.39ZM113.38,115c-.9-1.26-2.28-2.33-3.81-1.56-2.2,1.09-.37,2.58.15,3.71,1.65,3.6,3.48,7.12,5.3,10.64.5,1,1,2.41,2.47,1.72,1-.47.67-1.72.66-2.4A28.32,28.32,0,0,0,113.38,115Zm-43.45,37.8.37.11.09-.31-.37-.11Z"/><path class="cls-16" d="M94.24,164.28c-4.15-2.36-8.93-1.95-13.37-3a95.82,95.82,0,0,1-21.35-8,11.91,11.91,0,0,1-5.27-5.1l-.18-.32.15.35c4.72-.06,8.46,3.51,13.37,3.19L43,137.13c-1.09,1.24-2.22,2.44-3.24,3.73-4.76,6-4.69,5.89,1.91,10.35,14.31,9.68,30,14.66,47.35,14.08C90.79,165.23,92.7,165.67,94.24,164.28Z"/><path class="cls-13" d="M37.37,136.29C24.26,129.34,14.27,119.67,10.1,105c-.36-1.26-.82-2.21-2.37-1.79l-1,.23-2.39,3.81c-2.24,6-.06,11,3.79,15.56,5.48,6.47,11.81,12.08,18,17.83,3.51,3.24,6,3.46,8.59-.7C35.55,138.64,36.5,137.49,37.37,136.29Z"/><path class="cls-16" d="M103.33,155.29c-4.46-.66-8.53-2.53-12.67-4.16s-8.18-3.34-13.12-5.36c4.54,9,11.76,13,20.09,15.43Z"/><path class="cls-13" d="M103.31,164.92c2.7,1.39,5,1.38,7-1.39,1.43-1.94,3.46-3.43,5.22-5.12-2.66-.84-1.91-4.67-4.71-5.37-3.3,1.74-5.26,5-8.16,7.17S101.22,163.61,103.31,164.92Z"/><path class="cls-2" d="M110.84,153c2.8.7,2,4.53,4.71,5.37,2.63-.74,3.87-3.72,6.67-4.19,2.24-3.18-.52-5.59-1.46-8.17-.44-1.2-1.73-.08-2.48.45C115.55,148.39,112.77,150.23,110.84,153Z"/><path class="cls-16" d="M116.21,144.38a9.15,9.15,0,0,0-2.87-5.54c-1.91,5-1.91,5-7.57.36.46,4-1.94,8.48,1.65,12.09Z"/><path class="cls-1" d="M643.09,318c.2,2,1.81,2.07,3.26,2.36l-.14-.11,1.08-1.05,0,.09a1.91,1.91,0,0,1,1.74-1.26l.09-.08a1.9,1.9,0,0,1,1.26-1.74l-.1.05,1.07-1.05-.07,0c.35-.35.71-.7,1.06-1.06l.12.14c-.31-1.42-.33-3.05-2.34-3.25A36.31,36.31,0,0,0,643.09,318Z"/><path class="cls-5" d="M22.54,86.29l1.8-1.83a2.18,2.18,0,0,0-2.09-2.26l-1,1-1,1A2.22,2.22,0,0,0,22.54,86.29Z"/><path class="cls-5" d="M29,80l.08-.11a5.16,5.16,0,0,0-1.2-.45c-.49-.07-.59.24-.15.43A4.42,4.42,0,0,0,29,80Z"/><path class="cls-5" d="M6.76,103.4l1-.23c.23-.52.47-1,.7-1.57-.68-1.29-1.86-1.44-3.14-1.38C5,101.63,4.39,103.21,6.76,103.4Z"/><path class="cls-5" d="M101.15,83.2l1,1.07Z"/><path class="cls-5" d="M102.12,84.21c.35.36.7.72,1.06,1.07Z"/><path class="cls-5" d="M103.11,85.22l1.06,1.08Z"/><path class="cls-12" d="M344.12,217.85c4.56,8.56,21.78,10.06,30.36,2.52s10.71-15.58,6.57-24.39c-4-8.45-13.79-13.35-23.33-11.65-9.16,1.62-16.6,9.81-17.44,19.39-.36,4-.41,8,1.26,11.79,1.13-.37,2.08-2.18,3.31-1S344.59,216.74,344.12,217.85Z"/><path class="cls-3" d="M353.66,168.86c-11.73.12-21.37-9.23-21.19-20.55a21.29,21.29,0,0,1,21.07-20.93,20.74,20.74,0,0,1,.12,41.48Zm.72-24.51c0,3.16,1.61,5.47,5,5.67,3.23.18,4.91-1.83,5.16-4.84.27-3.39-1.69-5.16-5-5.71C356.73,139.87,354.4,141.11,354.38,144.35Z"/><path class="cls-4" d="M344.12,217.85c.47-1.11,1.95-2.28.73-3.39s-2.18.68-3.31,1c-13.43,9.88-28.67,15.4-45,18-23.14,3.76-46.1,3.11-68.59-4.19-10.53-3.42-20.21-8.33-28.15-17.91-.26,4.82,1.7,7.31,4.15,9.52a56.88,56.88,0,0,0,20.66,11.84c35.07,11.47,69.68,10.89,103.55-4.74A68.31,68.31,0,0,0,344.12,217.85Z"/><path class="cls-9" d="M303.24,78.66c.05-4-2.08-5.46-5.9-5.57-4.29-.12-6,2-6.13,5.93a5.67,5.67,0,0,0,6.18,6.12C301.43,84.93,303.12,82.47,303.24,78.66Z"/><path class="cls-9" d="M454.17,298.75c.44,3.95,2.56,6.31,6.47,6.25s5.47-3.11,5.36-6.49c-.13-3.75-2.72-5.33-6.43-5.41C455.55,293,454.51,295.51,454.17,298.75Z"/><path class="cls-9" d="M297.72,67.13c1.57,0,2.48-.76,2.32-2.4a2.49,2.49,0,0,0-2.58-2.41c-1.7-.07-2.24,1-2.22,2.51S296.17,67.15,297.72,67.13Z"/><path class="cls-11" d="M326.87,290.22l.69-.75-1.12-.06C326.59,289.68,326.73,290,326.87,290.22Z"/><path class="cls-4" d="M649,318.07a1.91,1.91,0,0,0-1.74,1.26A1.91,1.91,0,0,0,649,318.07Z"/><path class="cls-4" d="M650.33,316.25a1.9,1.9,0,0,0-1.26,1.74A1.94,1.94,0,0,0,650.33,316.25Z"/><path class="cls-4" d="M651.3,315.25l-1.07,1.05A1.05,1.05,0,0,0,651.3,315.25Z"/><path class="cls-4" d="M652.29,314.23c-.35.36-.71.71-1.06,1.06A1.07,1.07,0,0,0,652.29,314.23Z"/><path class="cls-4" d="M647.29,319.24l-1.08,1.05A1.09,1.09,0,0,0,647.29,319.24Z"/><path class="cls-3" d="M456.27,448.09a3.36,3.36,0,0,0,.28-.68c0-.07-.18-.18-.28-.28A1.57,1.57,0,0,0,456.27,448.09Z"/><path class="cls-3" d="M288.17,424.13l-.14-.36.18.33Z"/><path class="cls-11" d="M216.36,283c-1.38-2.37-1.38-2.37-3.78-4.09-1.06,3.26.36,4.48,3.44,4.43Z"/><path class="cls-11" d="M216,283.34l.6.24c-.09-.19-.17-.39-.26-.58Z"/><path class="cls-6" d="M93.56,112c3.91,7.59,7.15,14,10.54,20.36.58,1.08,1.56,2.38,3,2.2,1.27-.16,1-1.48,1.08-2.42C108.45,126.65,100.29,114.5,93.56,112Z"/><path class="cls-6" d="M118.15,127.08A28.32,28.32,0,0,0,113.38,115c-.9-1.26-2.28-2.33-3.81-1.56-2.2,1.09-.37,2.58.15,3.71,1.65,3.6,3.48,7.12,5.3,10.64.5,1,1,2.41,2.47,1.72C118.51,129,118.16,127.76,118.15,127.08Z"/><path class="cls-16" d="M70,152.46l-.09.31.37.11.09-.31Z"/><path class="cls-15" d="M54.22,148.18l-.15-.35.18.32Z"/><path class="cls-14" d="M359.59,139.47c-2.86.4-5.19,1.64-5.21,4.88s1.61,5.47,5,5.67c3.23.18,4.91-1.83,5.16-4.84C364.83,141.79,362.87,140,359.59,139.47Z"/></g></g></svg>