<?xml version="1.0" encoding="utf-8"?>
<!-- Generator: Adobe Illustrator 27.9.0, SVG Export Plug-In . SVG Version: 6.00 Build 0)  -->
<svg version="1.1" id="Layer_1" xmlns="http://www.w3.org/2000/svg" xmlns:xlink="http://www.w3.org/1999/xlink" x="0px" y="0px"
	 viewBox="0 0 700 513.3" style="enable-background:new 0 0 700 513.3;" xml:space="preserve">
<style type="text/css">
	.st0{fill:#95CD45;}
	.st1{fill:#413A40;}
	.st2{fill:#14110F;}
	.st3{fill:#41343E;}
	.st4{fill:#42383A;}
	.st5{fill:#463437;}
	.st6{fill:#00B6F8;}
	.st7{fill:#D2CEC2;}
	.st8{fill:#FA7960;}
	.st9{fill:#457C45;}
	.st10{fill:#6FA93F;}
	.st11{fill:#E2EACE;}
	.st12{fill:#768B48;}
	.st13{fill:#E1934E;}
	.st14{fill:#BBBBB6;}
	.st15{fill:#EFBB43;}
	.st16{fill:#B37A43;}
	.st17{fill:#04E762;}
	.st18{fill:#F2CF57;}
	.st19{fill:#FBFCFB;}
	.st20{fill:#F1D018;}
</style>
<g id="Layer_2_00000115485768811207635510000016982412426454156675_">
	<path class="st0" d="M418.6,209.6c-3.5,2.2-16.6,11-19.9,26.8c-3.9,19.1,8,40.8,30.3,51.2"/>
</g>
<path class="st1" d="M259.2,36.6c4.2-0.7,6.1-3.5,7.8-7.2c4.4-9.8,10.5-18.6,19.5-24.8c8.4-5.8,17-6,25.7-0.6
	c7.8,4.6,14.2,11.3,18.5,19.2c3.2,6.1,7.5,8.9,13.9,10.1c3,0.5,5.2,0.5,7.7-1.5c8.2-6.6,17.9-11.1,28.3-13.1
	c14.5-2.9,24.4,3.2,28.5,17.3c2.7,9.5,2.7,19.1,1.5,28.7c-0.4,3.6,0.4,4,3.5,3.3c5-1.2,10.3-1.2,15.4-0.2
	c11.4,2.3,15.4,10,10.7,20.7c-1.3,2.9-3.1,5.6-4.7,8.7l4.3,1c12.7,3.2,24.6,8.2,34.6,17c11.2,9.9,12.8,31,3.2,42.7
	c-1.3,1.6-1.6,2.2-0.1,3.9c5.5,5.9,5.7,11.2,1.3,18c-1.2,1.9-2.6,3.7-4.4,6.1h5.4c9.2,0,18.3,0.6,27.2,3.3
	c10.2,3.1,16.4,9.7,17.6,20.6c0.5,4.7,0.5,9.3,0,14c-0.7,7.7-2.9,15.1-5.3,22.6c4,0,7.5-0.2,10.9,0c10.2,0.8,15.7,6.1,17.2,16.2
	c0.9,6.2,0.3,12.3-0.9,18.4c-0.2,1-1.7,2.9,0.6,3.2c5.4,0.8,8.2,4.4,9.8,9.4c8.6-7.2,17-14.1,28.6-12.8s17.8,11.2,24.9,19.5
	c1.5-3.4,2.1-6.6,4.4-9c0.8-0.3,1.3-1,1.4-1.8l2-2.1c2.1,0.2,3.7-1.1,5.5-1.6c2.2-0.6,4.4-0.9,4.4,2.4c-5.7,0.8-10.7,5.9-12,12.3
	c-0.5,2.4-0.8,4.9-1.2,7.4c-0.4,2.2-0.8,4.4-1.2,6.8c-2.7-1.2-3.1-3.7-4.2-5.6c-4.2-7.2-8.6-14.1-15.3-19.4
	c-6.2-4.9-12.7-5.4-19.6-2.4c-7,2.9-13.1,7.5-17.7,13.4c-1,1.3-2.1,3.4-3.7,3c-2.1-0.5-0.8-2.8-1-4.4c-0.2-1.1,0-2.3-0.1-3.5
	c-0.6-6.1-4.5-8.1-9.7-5c-1.8,1-3.5,2.3-6.4,4.1c2.3-6.6,4.8-11.7,5.5-17.3s2.5-11,0.8-16.7c-1.8-6-5.6-9.3-11.7-9.6
	c-7-0.4-14,0.7-20.5,3.2c2.8-7.2,5.7-13.3,7.1-19.9c2.1-10,4.9-20.1,1.1-30.4c-1.1-3.3-3.5-6.1-6.6-7.7c-5-2.6-10.5-4.3-16.2-4.8
	c-10.9-1.1-21.8-1.4-32.7,0.4c-4.5,0.7-5.2,3-4.4,7c4,18.7,11.7,35.6,24.2,50.1c11.6,13.6,20.4,29.1,30,44.1
	c9.8,15.5,21.4,29.4,37.7,38.4c17.1,9.5,35.3,11.9,54.4,6.6c8.4-2.5,16.6-5.9,24.4-10c1.6,1.4,1.8,0.1,2-1.1l1.9-1l1.2-1l0,0
	c2.2,0.3,4.2-0.9,5-3l0,0l1-1l0,0c1.4,0.1,2.6,0.9,3.1,2.2l-1,0.9c-0.8,0-1.6,0.4-1.9,1.2h0.1c-2.2-0.1-3.3,1.2-4.1,3v-0.1l-1.1,1
	l-1.7,1c-0.9-0.2-1.9,0.2-2.3,1.1l0.1-0.1l-1.1,1h0.1c-0.8-0.1-1.7,0.3-2.1,1.1h0.1c-0.9-0.2-1.7,0.3-2.1,1.1l0.1-0.1
	c-0.9-0.2-1.7,0.3-2.1,1.1l0.1-0.1c-0.9-0.2-1.7,0.3-2.1,1.1l0.1,0c-1.8-0.3-3.3,0-4.1,2h0.1c-2-0.1-4.1-0.3-5.1,2l-0.2,0.1
	l-0.2-0.1l-1.5,0.8c-24.9,9-48.2,5.1-69.9-9.4c-13-8.7-22.7-20.5-31.1-33.4c-6.7-10.3-13.5-20.7-20.1-31c-4.5-7-9.5-13.7-14.9-20
	c-12.1-14.1-18-30.9-21.7-48.7c-2.8-13-7.1-25.7-13-37.6c-1.1-2.6-2-5.2-2.6-8c-7.1-28.9-18.8-55.5-39-77.8
	C378.1,52,352,39,321.3,35.1c-34.6-4.3-65.9,4.7-94.9,23.3c-1,0.6-2,1.2-3,1.8c-0.9-0.1-1.7,0.3-2.1,1.1h0.1
	c-1.4-0.2-2.1,0.5-2.2,1.8l0,0c-0.9-0.1-1.7,0.4-2,1.2l0.1-0.1l-1.1,1l0.1-0.1l-1.1,1l0.1-0.1l-1.1,1l0,0c-0.8-0.1-1.6,0.4-1.9,1.2
	l0.2,0.3c-1.8-0.5-3-1-2.6-3.6c0.5-3.2,1.2-6.7-0.6-9.9l0.2-2c1.7-0.4,2.7-2.5,4.8-2c0.3,2.5-1.4,6.1,1,7.4s4.5-1.9,6.7-3.2
	c8.7-5.5,17.9-10.2,27.3-14.3c1.5-0.6,3.2-1.1,4-2.8c-0.4-0.7-1.2-1.1-2-1.1l0,0l-1.2-1c-0.3,0-0.5,0-0.8-0.1l-1.2-0.8l-1.9-0.9
	c0.2-1.7,1.1-2.2,2.6-1.4c1.4,0.8,2.9,1.2,4.5,1.2l2.9,2C256.9,38.5,257.8,38.8,259.2,36.6z M474.3,146.6c7.5-11.6,6-21.2-5-29.6
	c-11.3-8.7-24.5-13.2-38.4-15.7c-1-0.2-2,0-3-0.1c-3.7-0.3-3.9,1.2-2.4,4c5.4,10.2,10.4,20.7,12.8,31.9
	c3.5,16.2,11.5,30.8,16.1,46.5c1.4,4.9,4.3,6.1,9.1,3.8c6.3-3,10.4-8.2,13.1-14.4c1.7-4-0.5-7.6-5.5-9.6c-1.7-0.6-3.5-1-5.3-1.2
	c-1.6-0.2-3.2-0.2-4.8-0.3l-0.5-1.1C466.5,157.3,470.6,152.2,474.3,146.6L474.3,146.6z M405.2,39.1c-4.3-16.2-12.8-17.8-25.7-15.4
	c-8.4,1.5-15.9,5.6-22.8,10.7c-2.7,2-2.8,3.4,0.4,4.8c16.7,7.2,31.7,17.6,44.2,30.8c2.5,2.6,3.7,1.5,4.1-1.3
	c0.8-4.9,1.4-9.8,1.8-13.5C407.1,49.8,406.4,44.4,405.2,39.1z M315,29.2c3.3,0.1,6.6,0.6,9.9,0.9s4-1.2,2.4-3.9
	c-4.5-8.2-11.2-14.9-19.3-19.6c-7.3-4.2-14.1-2-20.3,2.8c-6.8,5.3-11.5,12.4-15.6,19.8c-0.5,1-1.3,2.1-0.4,3.2
	c0.6,0.8,1.5,0.4,2.3,0.3C287.5,29,301.2,28.8,315,29.2z M410.2,73.2c-3.1,0.6-4.7,1.4-2.2,4.8c3.8,5,7.2,10.3,11,15.4
	c3.3,4.5,10.3,4.1,13.5-0.6c1.5-2,2.7-4.2,3.7-6.5c3.3-9.1,0.3-12.5-8.1-14.1c-2.1-0.4-4.3-0.1-6.7-0.1
	C417.7,71.8,413.9,72.5,410.2,73.2L410.2,73.2z"/>
<path class="st2" d="M440,509.3c1.2,2.3,3.5,2,5.3,1.6c4.8-1.2,9.6-0.9,14.4-0.8c18.6,0.6,37.2-1,55.8-1.2
	c18.2-0.3,36.5-1.5,54.6-2.9c19.1-1.5,38.3-3,57.1-7.6c2.4-0.7,4.7-1.6,6.9-2.7c1.3-0.7,2.9-1.3,2.8-3.1s-1.7-2.4-3-3
	c-8.1-3.6-16.8-5-25.5-6.3c-14.1-2.1-28.3-3.3-42.5-4.2c-17.5-1-35-2.6-52.5-3.8c-6.1-0.4-12.3-0.6-18.4-0.9
	c-12.3-0.5-24.5-1.9-36.9-1.2l-0.2,1.9c1.2,0.9,1.1,1.6-0.3,2.1h-0.5c-0.1,1-0.1,2-0.2,3c0.2,1.7-0.1,3.4-0.7,5l-0.1,2
	C455.1,504.5,454.7,505.1,440,509.3z"/>
<path class="st3" d="M240.1,361.4c3.7,3.9,8.5,5.8,13.5,7.2c2.7,0.7,3.7,1.7,3.5,4.7c-2.4,33.9,0.2,68,7.7,101.2
	c0.2,1,0.6,2-0.6,2.6c-1,1.1-2,2.2-3,3.3c-2.5,2.8-4.6,5.9-3.5,9.8s4.9,4.5,8.4,5.2c9.7,1.7,19.5,2.1,29.2,2.1
	c13.4,0.1,26.9,0,40-3.4c4.2-1,6.7-3.3,7.5-7.5s1.8-8.4,2.7-12.6c-0.2-3.6,2.3-6.7,1.4-10.8l7.9,2.4c4.7-3.2,3.1-8.1,3.3-12.5
	c0.1-2.3,0.2-4.6-3.4-2.5c-1.5,0.9-2.8-0.4-3.6-1.7l-0.3-0.1l-0.2,0.2c-2.4,0.3-4.8-0.4-6.6-2l-0.2-0.1l-0.2,0.1
	c-1.2-0.1-2.8,0.8-3.3-1.2l1.8-2.6c0-1,0.7-1.9,1.7-2.1c0.2-0.1,0.3-0.3,0.3-0.6c0.1-1.1-0.7-2.2-1.9-2.3h-0.1c-6.4,9.9-8.6,10-14,1
	c-2,0.3-4,1.6-5.9,0c-0.7,1.1-1.4,1.3-2.1,0l0,0c-2.3,0.4-4.1-1-6-1.9c-8.7-4.3-17.3-8.7-26-13l0,0c1.7,4.8,5.4,8.4,8.7,12
	c11.4,12.3,26,19.5,41.6,24.7c3.1,1,4.1,2.1,3.3,5.2c-1.4,5.6-2.8,11.3-3.6,17c-0.7,4.6-3.1,6.4-7.4,7c-20.6,3-41.5,3-62.1,0
	c-1.9-0.3-4.5-0.1-5.1-2.2c-0.6-2.4,1.7-4,3.4-5c3.5-2,4-4.7,3.3-8.4c-2.4-11.2-4.1-22.5-5.3-33.9c-2.1-22.4-3.6-44.7-1.8-67.1
	c0.1-1.1-0.3-2.5,1.1-3s2.6,0.5,3.5,1.5c2.8,3.1,5.4,6.2,8.1,9.3c0.8,0.2,1.4,1,1.4,1.9l0,0l1,1.2l0.8,1l3.9-0.3l-0.6-0.8l-1-1.3
	c-2-3.3-6.1-6.5-1.3-10.3c3.1-2.5,6.8-4,10.9-2.3l1.2,1.5c-0.1,0.2,0.1,0.4,0.3,0.5l3.2-0.2l-0.4-2.2c4.1-3.1,8.6-1.6,12.9-0.7
	c6.8-0.4,13.5-1.3,20.2-2.9c27.3-6,51.3-17.7,70-39.3c2.2-2.6,3.7-6,7.1-7.5c0.9-3.8-1.6-1.4-2.2-1c-7.6,4.2-15,8.6-22.6,12.8
	c-30.4,16.9-63.4,25.5-97.6,30.2c-13.7,1.9-27.2,3.3-39.4-5.2l-1.2-1.2l-0.9-0.9l-1.1-1.1h0.1c-1.9,0.2-3.1-3-5.1-1.4
	c-1.4,1.2,0.4,3,0,4.5l0.8,1C238.6,357.4,240,358.8,240.1,361.4z"/>
<path class="st4" d="M229.8,337.6c0.8-4.9-1-8-3.5-11.7c-4.2-6.4-9-9.1-17.2-9.3c-25.9-0.5-38.9-23.8-26.9-46.9
	c0.9-1.4,0.8-3.2-0.4-4.3c-3.5-4.5-6.8-9.1-10.2-13.5c-18.3-23.5-36.7-46.9-55.1-70.4c1.1-0.1,2.1-0.6,2.9-1.5l36,45.3
	c9.2,11.6,18.4,23.2,27.5,34.9c2,2.6,3.5,3.5,6.1,0.7c3.7-3.9,8.1-3.6,12.8-1c-13.5-17.1-26.7-34.2-39.5-51.5l1-3.1
	c0.2,0.1,0.5,0.2,0.7,0.2c0.3,0.3,0.8,0.8,0.9,0.8c0.6-0.5,0.4-1,0.1-1.6c-7.1-27.2-5.2-54.2,3.8-80.5c3.3-9.8,7-19.2,6.8-29.8
	c-0.1-2.2,0.9-4.5,1.6-6.8c1.6-5.3,5.4-9,10.8-8.9c5.7,0.1,8.7-3.1,12.6-6.3c5.6-4.7,9.8-9.5,8.9-17.3c1.8,3.2,1.1,6.7,0.6,9.9
	c-0.4,2.6,0.8,3.1,2.6,3.6c-12.5,11.9-24,24.6-31.4,40.3c-14.7,31-19.5,63.2-9,96.5c6.6,20.8,20.4,36.7,37.1,50.3
	c16,13.1,34.3,20.8,54.3,24.9c1.3,0.3,2.7,0.4,3.5,1.6c-0.9,6.9-1.8,13.8-2.7,20.6c-0.5,3.7,1.6,3,4,2.4c15.2-3.5,30.1-7.9,45-12.4
	c3.6-1.1,7.3-2,11-3l2.1-0.5l0.4,0.8c-6.9,5.6-15.1,8.2-23.3,11c-13.4,4.6-27.2,7.7-40.9,10.9c-7.1,1.7-14,3.9-19.7,9
	c-7.4,6.7-11.8,20.1-3.5,30.1c0.4,0.6,0.7,1.1,0.9,1.8c-1.9,0.2-3.1-3-5.1-1.4c-1.4,1.2,0.4,3,0,4.5
	C230.9,350.7,228.7,344.3,229.8,337.6z M215,302.1c0.8-0.4,1.2-1.2,1.1-2.1l-0.1,0.1c0.8-0.4,1.2-1.2,1-2.1l-0.1,0.1
	c1.4-0.8,1.4-1.7,0.4-2.9V292c0.9-1.1,1.7-2.2,3.3-1.9c1,4.7,0.7,9.3-2,13.5c-1.1,1.4-0.9,3.3,0.4,4.4c4.2,4.7,8.3,9.5,12.3,14.4
	c1.5,1.8,2.5,1.8,3.7-0.1c0.5-0.8,1.3-1.5,1.8-2.4c1.3-2.1,5.2-2.7,4.8-5.2s-2.8-4.4-4.4-6.5c-4.4-6-9.6-11.4-13.4-17.9
	c0-0.9,0.5-1.8,1.3-2.3l4.7,4.4c4.7,6.3,9.3,12.5,14,18.8c0.8,1,1.5,1.7,2.9,1.1c3.2-1.4,6.4-2.8,9.6-4.1c0.9-0.4,1.6-1.3,1.6-2.3
	c0.6-5.5,1.3-10.9,1.9-16.3c0.2-1.4-0.1-2.7-1.7-3.2c-0.3-0.1-0.7-0.2-1-0.2c-9.8-2.5-19.2-6.2-28.6-10c-1.4,3.1,2.8,5.6,0.1,8.3
	c-4-7.8-8.5-15.2-15.2-21.1c-3-2.7-5.7-4.4-9.2-1c-1.7,0.8-1.2,2.4-1.4,3.7c-0.4,2.5-1.4,0.1-2.2,0.3l0.1,0.1c0.2-0.8-0.3-1.7-1.1-2
	h0.1l-1.4-1.1c-3.6-1-6.1,0.9-8.3,3.3c-7.7,8.4-10,18.3-6.4,29c3.4,10.2,11.2,15.3,21.5,16.6c2.7,0.4,5.5,1.7,8.2,0
	c1.3-2.8,0.1-5.7,0.3-8.5c-0.1-0.1-0.1-0.3,0-0.4c0,0,0,0,0,0l0,0L215,302.1L215,302.1z M189.5,86.1c0.6-0.6,0.9-1.4,0.8-2.2
	c-0.4-1.2-1.7-0.8-2.6-0.6c-4.4,0.8-6.1,4.2-7.1,8.1c-0.5,2.4-0.6,4.9-0.2,7.4C183.8,94.1,186,89.6,189.5,86.1L189.5,86.1z"/>
<path class="st2" d="M345.6,474c-0.9,4.2-1.9,8.4-2.7,12.6s-3.3,6.5-7.5,7.5c-13.2,3.3-26.6,3.5-40,3.4c-9.8-0.1-19.6-0.5-29.2-2.1
	c-3.5-0.6-7.2-1.1-8.4-5.2s1-7,3.5-9.8c1-1.1,2-2.2,3-3.3c-5-2-10.2-1.1-15.3-0.8c-11.9,0.7-23.8,1.6-35.6,2.9
	c-16.8,1.8-33.6,3.4-49.9,8.1c-0.2,0-0.3,0.1-0.5,0.1c-2.4,1.3-6.2,1.7-6.3,5c-0.1,3.5,3.7,3.9,6.2,4.7c11.4,3.6,23.4,4.7,35.2,6
	c15.3,1.6,30.7,2.9,46,3.9c6.6,0.4,13.2,0.9,19.9,1.1c12.6,0.3,25.2,0.7,37.8,1.4c18,1,35.9,0.5,53.8,0.5c-3.6-3.1-3.8-6.9-1.6-10.7
	c2.5-4.4,2.5-9.1,2-13.9c-0.4-4.1-0.7-8.2-1.1-12.3C351.4,470.3,348.3,470.2,345.6,474z"/>
<path class="st3" d="M456.9,480.1c0-1,0.1-2,0.2-3c-1.3-1.9-1.8-3.7,0.8-5c0.3-0.2,0.5-0.5,0.6-0.8c5.2-1.5,10.5-1.9,15.7-0.1
	c53.8-0.5,105.5-9.3,151.8-38.9c28.9-18.2,51-45.2,63.2-77.1c-1.4-1.7,0-3.1,0.5-4.6c1.5-5.4,3.3-10.7,5-16c0.5-1.8,1.8-4.3-1-5
	s-2.1,2.2-2.9,3.6c-1.3,2.6-0.9,6-3.8,7.8l0.1,0.1c0.2,0.8-0.2,1.6-0.8,2.1c-0.1,0.2-0.2,0.5-0.1,0.8c0.1,0.9-0.3,1.8-1,2.2
	c-0.1,0.2-0.1,0.4,0,0.6l-0.9,1.4c-0.1,0.2-0.2,0.5-0.1,0.7c0.2,0.9-0.3,1.8-1.1,2.2V351c-0.3,4.6-2.5,9-6,12h0.1
	c0.1,0.9-0.1,1.7-1.1,2h0.1l-1,1.1v-0.1c0.1,0.8-0.3,1.7-1.1,2l0.1-0.1l-1,1.1l0,0c0.1,1.5,0,2.8-2,3l0,0c0,1.7-0.2,3.4-2.3,3.8
	v-0.1c0.2,1.4-0.4,2.1-1.8,2.2l0,0c0.1,0.8-0.4,1.5-1,1.8v-0.1c0.2,1.6-0.4,2.7-2.1,3h0.1l-1,1.1v-0.1c0.2,1.4-0.5,2.1-1.9,2.2l0,0
	c0.1,0.9-0.4,1.7-1.2,1.9l0.1,0l-1,1.1l0.1,0L658,390v-0.1c0,2.7-1.5,3.9-4,4.1l-6.9,6.9c-0.4,0.4-0.7,0.8-1.1,1.2l0.1-0.1l-1.1,1
	V403c0,1.4-0.7,2.1-2.1,2h0.1l-1.1,1l0-0.1l-1.1,1v-0.1c-0.3,1-1,1.2-1.9,1.2l0,0c0,1.4-0.7,2.1-2.2,1.9h0.1l-1.1,1v-0.1
	c-0.3,1-1,1.2-2,1.2h0.1l-0.9,1l0.1-0.1c-0.3,0.8-1.1,1.2-1.9,1.2l0,0l-1.1,1l0.1-0.1l-1.1,1l0.1-0.1c-0.3,0.8-1.1,1.3-2,1.2l0,0
	c-0.1,2-1.5,2.1-3,2h0.1l-1.5,1l-1.5,0.9l-1.1,1v-0.1c-0.9,2.4-2.8,3.1-5.1,3h0.1c-0.3,0.9-1.1,1.3-2,1.1v-0.1
	c-0.5,1.6-1.4,2.3-3.1,1.9l0.1,0.1c-0.6,1.4-1.8,1.2-2.9,1.2h0L606,430v-0.1c-0.6,1.4-1.8,1.2-3,1.2l0,0c-0.5,1.4-1.7,2-2.9,2.6
	c-13,6.5-26.9,10.6-40.8,14.5c-13.8,3.7-27.8,6.3-42,7.7c-8.3,0.8-16.7,2.8-25.2,0.6c-3.7-0.3-7.4-0.2-11.1,0.3
	c-0.3,0.4-0.6,1.1-0.9,1.1c-6.6,0.6-13.3,0.6-19.9,0c-0.4,0-0.8-0.9-1.2-1.4c-0.2-1.7-0.5-3.5-0.7-5.2c-3.6,0-1.3,3.8-3.2,5
	l-0.1,2.9c0.5,10.9-2.6,21.5-2.5,33.1c2.2-1.9,0.8-4.7,3.5-5l0.1-2C454.8,483.2,454.2,481.4,456.9,480.1z"/>
<path class="st5" d="M162.1,208.4l1-3.1c-10.9-14.4-21.6-29.1-32.9-43.2c-4.1-5.2-3.6-11.6-6-17.1c-0.2-0.6,0.2-1.6,0.7-2.3
	c7.9-12.3,3.9-24.4-0.9-36.2c-3.1-7.6-9-13.5-14.7-19.3l-5.3-0.8c3.3,4,6.5,8,9.9,11.9c7.8,8.8,10.7,19.5,11,30.8
	c0.2,6.5-1.7,12.6-8.8,15.3l-8.8,6.9l-4.1,4l-5.7,5.9c0.3,2.6-1.2,3.2-3.4,3.1c-1.5,1.4-3.4,0.9-5.2,1c-17.3,0.6-33-4.4-47.3-14.1
	c-6.6-4.5-6.7-4.4-1.9-10.4c1-1.3,2.2-2.5,3.2-3.7c5.4-7.4,12-13.7,18.4-20.2c10.9-11.1,21.8-22.2,33.9-32.1
	c1.6-1.3,3.2-3.8,5.9-1.6l0.2-4.4c-0.4-0.6-0.7-1.1-1.1-1.6l-3.4,0.2c0.4,1.4-0.4,2.1-1.6,2.7c-3.4,1.8-6.2,4.5-9,7.1
	c-17.2,15.5-33.3,32.1-49,49.2c-0.9,1.2-1.8,2.4-2.6,3.6c-2.6,4.2-5.1,3.9-8.6,0.7c-6.2-5.8-12.5-11.4-18-17.8
	c-3.8-4.6-6-9.5-3.8-15.6c-4.8,0.3-1.9,5.1-4.1,7c-0.2,4.2,2,7.4,4.5,10.2c15.5,18,33.9,32.2,55.8,41.4c9.8,4.1,20.5,3.9,31,3.4
	c3.9-0.2,7.2-4.4,11.6-2c0.1-0.8,0.1-1.6,0.2-2.3c-2.1-1.3-3.7-2.5-0.6-4.7s4.9-5.4,8.2-7.2c1.9-2.8,4.7-4.6,7.4-6.5
	c0.8-0.5,2-1.6,2.5-0.4c0.9,2.6,3.7,5,1.5,8.2v4c1.7,0.6,2.4,2.2,3.4,3.5C137.7,177.3,149.3,193.3,162.1,208.4z"/>
<path class="st4" d="M686.9,340.9c2.9-1.8,2.4-5.2,3.8-7.8c0.7-1.4,0.2-4.4,2.9-3.6s1.5,3.2,1,5c-1.6,5.4-3.4,10.7-5,16
	c-0.4,1.4-1.9,2.9-0.5,4.6c10.4-25.2,14.1-51.1,8-78c-0.9-4.6-2.6-8.9-5-12.9c-2.5-4-6.1-6.3-10.8-5.6s-7.7,3.6-9,8.2
	s-2.6,9.3-4,13.9c-0.5,1.5-0.5,3.4-3.1,2.6c-7.6-2.3-12,1.6-14.7,8.6c-6.2-4-12.5-7.3-19.7-8.3c-4.7-0.6-8.9,0.1-12.4,3.5
	c2.1,0.2,3.7-1.1,5.5-1.6c2.2-0.6,4.4-0.9,4.4,2.4c7.9,1.2,15,4.1,21,9.5c3.8,3.4,4.4,3.1,5.6-1.5c0.3-1.8,0.9-3.5,1.7-5.2
	c1.3-2.4,3.4-4.8,6.4-3.1s0.4,4.1-0.4,6c-2.9,6.6-8.8,11.2-12.3,17.4c2,0.2,2,1.8,2.3,3.2c11.7-12,20.1-25.9,23.6-42.5
	c0.3-1.6,0.6-3.3,1.1-4.8c1.8-4.9,6.7-5.7,10.2-1.8c1.4,1.7,2.4,3.6,3.1,5.7c3.6,9.9,4.2,20.1,4.1,30.4
	C694.3,315,690.7,328,686.9,340.9z"/>
<path class="st4" d="M456,487.1c-2.6,0.3-1.2,3.2-3.5,5c0-11.6,3-22.3,2.5-33.1c-0.7,0.5-1,1.3-1,2.2c-1.3,11.4-2.8,22.8-4,34.2
	c-0.5,4.6-2.3,7-7.1,8.1c-13.2,2.9-26.7,3.7-40.1,4.4c-13.3,0.7-26.7,0.1-39.9-1.7c-4-0.6-5.6-2.1-3.5-6.2c1.6-2.8,2.3-6,2-9.2
	c-2.6-19.2-2.1-38.5-1.6-57.8c0-1.5,0.6-3.2-0.8-5.5c-0.8,2.1-1.5,3.7-2.1,5.4c-1.3,4.1-2,8.4-2.3,12.7c-0.2,2.4-1,3.8-3.7,3.2
	c0.9,1.3,2.2,2.5,3.6,1.7c3.6-2.1,3.5,0.2,3.4,2.5c-0.2,4.4,1.4,9.3-3.3,12.5v7.4c0.4,4.1,0.7,8.2,1.1,12.3c0.5,4.8,0.5,9.4-2,13.9
	c-2.1,3.8-1.9,7.6,1.6,10.7c17.9,4.6,36.2,3.5,54.4,2.8c10.1-0.5,20.1-1.6,30.1-3.3C454.7,505.1,455.1,504.5,456,487.1z"/>
<path class="st6" d="M16.6,50.1l3.2-3.6c1.9-4.3,4.9-3.1,7.1-0.8c3.4,3.5-1.5,4.7-2.6,7c0.9,6,4.1,7,9.3,4.7c13.2-6,16-14,8.2-26.4
	c-3.3-5.2-1.5-10.3-0.7-15.8c-0.9-0.1-1.8-0.1-2.7,0c-8.4,4-8.4,4-9.5-5.7c-0.3-3.1-0.4-6.7-4.1-7.4s-5.4,2.2-6.5,5.3
	c-1.5,4.8-4.6,3.9-7.9,2.2C8.6,8.7,6.6,7.4,4.7,9c-2.4,1.9-0.4,3.6,0.6,5.3c1,1.6,1.1,3.5,0.2,5.2C0.1,29.8,2.7,38.8,9.9,47.1
	c0.8,1,1.5,2.1,2.1,3.2L16.6,50.1z"/>
<path class="st4" d="M96.9,77.3l3.4-0.2c-5.9-8-12.7-15.4-20.1-22.1c-7-6.5-15.8-7.2-24-2.2c-8.7,5.6-16.8,12-24.1,19.3
	c1.4,0,2.6,0.8,3.1,2c7.1-5.7,13.7-12,21.4-16.9c9-5.7,14.5-5.3,22.3,1.8c1.2,1.1,2.3,2.4,3.5,3.5C87.5,67.2,91.2,73.2,96.9,77.3z"
	/>
<path class="st4" d="M246.1,34.4c0.2-1.7,1.1-2.2,2.6-1.4c1.4,0.8,2.9,1.2,4.5,1.2c-5.6-4.1-12.1-6.9-18.9-8.1
	c-9-1.6-15,1.3-19.4,9.3c-3.1,5.5-4.9,11.6-5.5,17.9c1.7-0.4,2.7-2.5,4.8-2c1.4-4.2,2.5-8.6,4.3-12.6c3.4-7.4,8.3-9.7,16.2-7.7
	C238.6,31.9,242.4,33.2,246.1,34.4z"/>
<path class="st1" d="M122.2,158.2v-4c-2.8,0.5-4,3.4-6.7,4.2c-1.8,1.7-3.8,3.2-5.2,5.1c-2,2.8-4.3,2.8-7,1.4
	c-0.1,0.8-0.1,1.6-0.2,2.3l0,0l1.2,1.2c4.6,3.9,8.1,8.7,12.1,13.1c1.1-0.1,2.1-0.6,2.9-1.5c-1.9-2.6-3.8-5.4-5.8-7.9
	s-1.9-4.7,0.9-6.6C117.4,163.5,120.1,161.1,122.2,158.2z"/>
<path class="st4" d="M31.2,73c-3.4,2.6-6.5,5.6-9.2,8.9l0.3,0.3c1.2,0,2.1,1.1,2.1,2.3L29,80c-0.4,0-0.9,0-1.3-0.1
	c-0.4-0.2-0.3-0.5,0.1-0.4c0.4,0.1,0.8,0.3,1.2,0.4l3.4-3.2L31.2,73z"/>
<path class="st4" d="M19.9,83.9C17,86.3,14.4,89,12.1,92c1.4,0.3,2.3,1.5,2.1,2.9l8.3-8.6c-1.2,0-2.2-0.9-2.3-2.1L19.9,83.9z"/>
<path class="st4" d="M0.2,114.2c2.2-1.8-0.7-6.7,4.1-7l2.4-3.8c-2.4-0.2-1.7-1.8-1.5-3.2L5,99.9C1.3,104-0.7,108.6,0.2,114.2z"/>
<path class="st4" d="M104.1,86.3l5.3,0.8c-2.3-3.2-5.2-5.7-8.1-8.4c-0.1,1.5-0.1,3-0.2,4.4l0,0l1,1.1l-0.1-0.1l1.1,1.1l-0.1-0.1
	L104.1,86.3L104.1,86.3z"/>
<path class="st4" d="M474.1,471.1c-5.3-1.8-10.5-1.4-15.7,0.1L474.1,471.1z"/>
<path class="st7" d="M143.1,68.1c0.7-1.5,3.9-2.2,1.7-4.5c-1.4-1.5-3.4-2.3-4.6,0.5C142.7,64.3,141.8,67,143.1,68.1z"/>
<path class="st4" d="M9.2,95C7.5,96.3,6,98,5,99.9l0.3,0.3c1.3-0.1,2.5,0.1,3.1,1.4l2.8-3.4L9.2,95z"/>
<path class="st5" d="M9.2,95l2.1,3.1l3-3.3c0.1-1.4-0.8-2.7-2.2-2.9l0,0c0.2,1-0.5,1.9-1.5,2.1c-0.2,0-0.4,0-0.5,0L9.2,95z"/>
<path class="st5" d="M31.2,73l1.3,3.7l2.8-2.5c-0.5-1.2-1.8-2-3.1-2L31.2,73z"/>
<path class="st4" d="M240.1,361.4c-0.1-2.6-1.5-4-4.1-4.2C236.9,359,238.3,360.4,240.1,361.4z"/>
<path class="st4" d="M457.9,472c-2.5,1.3-2.1,3.1-0.8,5h0.5c0.1-0.7,0.2-1.4,0.3-2.1l0.2-1.9L457.9,472z"/>
<path class="st4" d="M256.2,36.1c0.7,2.4,1.6,2.7,3,0.4L256.2,36.1z"/>
<path class="st7" d="M138.2,66.4l-2.9,0.2C136.4,68.7,137.3,68.6,138.2,66.4z"/>
<path class="st4" d="M10.1,94.1c1,0.1,1.9-0.6,2-1.6c0-0.2,0-0.4,0-0.5C11.4,92.7,10.8,93.4,10.1,94.1z"/>
<path class="st4" d="M614.8,291c0.8-0.3,1.3-1,1.4-1.8L614.8,291z"/>
<path class="st4" d="M22,81.9l-1,1l0.3,0.3l1-1L22,81.9z"/>
<path class="st4" d="M20.9,82.9l-1,1l0.3,0.3l1-1L20.9,82.9z"/>
<path class="st5" d="M104.3,168.4l-1.2-1.2L104.3,168.4z"/>
<path class="st0" d="M350.9,448.8l-0.2,0.2c-1.9-1.7-4.2-1.8-6.6-2l-0.2-0.1l-0.2,0.1l-3.3-1.2l1.8-2.6c1-0.4,1.8-1,1.7-2.2
	c0.2-0.1,0.3-0.3,0.3-0.6c2.1-2,0.9-3.8-0.3-5.7c-7.3-11.9-16.1-22.6-24.8-33.5c0.1-1.8,1.6-1.8,2.8-2.2
	c24.9-8.9,44.9-24.6,61.9-44.6c7.7-9.1,13.6-19.2,19.4-29.5c1-1.7,2-3.5,2-5.6c0.9-3.8-1.6-1.4-2.2-1c-7.6,4.2-15,8.6-22.6,12.8
	C350,348,317,356.5,282.8,361.2c-13.7,1.9-27.2,3.3-39.4-5.2l-1.1-1l-0.9-0.9l-1.1-1.1h0.1c-0.2-0.6-0.5-1.2-0.9-1.8
	c-8.2-10-3.9-23.4,3.5-30.1c5.7-5.2,12.6-7.4,19.7-9c13.8-3.2,27.5-6.3,40.9-10.9c8.2-2.8,16.5-5.4,23.3-11l0.7-0.8l-1.1-0.1
	l-2.1,0.5c1.9-3.4,5.2-5.4,8-7.9c2-1.8,4.5-3.3,5.9-6.8c-7.8,2.2-14.8,4.8-22.2,6c-15.1,2.6-30.3,3.8-45.5,1.1
	c-1.2-0.1-2.3-0.1-3.5,0c-0.9-1.2-2.3-1.3-3.5-1.6c-20-4.2-38.4-11.8-54.3-24.9c-16.6-13.7-30.5-29.5-37.1-50.3
	c-10.5-33.3-5.6-65.4,9-96.5c7.4-15.7,18.9-28.4,31.4-40.3l-0.2-0.3c0.8,0,1.6-0.4,1.9-1.2l1.1-1l-0.1,0.1l1.1-1l-0.1,0.1l1.1-1
	l-0.1,0.1c0.8,0,1.6-0.4,2-1.2c1-0.2,1.8-0.9,2.2-1.8h-0.1c0.9,0,1.7-0.4,2.1-1.1c1-0.6,2-1.1,3-1.8c29-18.6,60.3-27.7,94.9-23.3
	C352,39,378.1,52,399,75c20.2,22.3,31.9,48.9,38.9,77.7c0.6,2.8,1.4,5.4,2.6,8c5.9,12,10.2,24.6,13,37.6
	c3.8,17.8,9.6,34.6,21.7,48.7c-3,1.8-6.6,0.9-9.7,3.2c-6.4,4.9-7.5,11.4-6,18.3s5.7,12.1,12.8,14.1c6.4,1.8,13.7-2.7,15.6-9.2
	c0.6-2.2,0.6-4.6,2.3-6.5l20.1,31c8.4,12.9,18.1,24.8,31.1,33.4c21.6,14.5,44.9,18.5,69.8,9.5l1.5-0.8l0.2,0.1l0.2-0.1
	c1.9-0.1,3.7-0.8,5.1-2h-0.1c1.6-0.1,3.1-0.8,4.1-2h-0.1c0.8,0.1,1.6-0.3,2.1-1.1l-0.1,0.1c0.8,0.1,1.7-0.3,2.1-1.1l-0.1,0.1
	c0.8,0,1.6-0.4,2.1-1.1h-0.1c0.8,0,1.6-0.4,2.1-1.1h-0.1l1.1-1l-0.1,0.1c0.9,0,1.7-0.4,2.3-1.1l1.7-1l1.1-1v0.1
	c1.7-0.4,3.2-1.5,4.1-3h-0.1l1.9-1.2l1-0.9c1.4-0.5,2.5-1.5,3.2-2.9l-0.1-0.1c0.6,0,1.1-0.5,1.1-1v0.1c0.8,0,1.5-0.5,1.7-1.3
	l0.1-0.1c0.7-0.3,1.2-1,1.3-1.7h-0.1c0.6,0,1-0.4,1.1-1l0,0h-0.1c0.6,0,1-0.5,1.1-1.1l0.1,0.1c11.7-12,20.1-25.9,23.6-42.5
	c0.3-1.6,0.6-3.3,1.1-4.8c1.8-4.9,6.7-5.7,10.2-1.8c1.4,1.7,2.4,3.6,3.1,5.7c3.6,9.9,4.2,20.1,4.1,30.4c-0.2,13.6-3.8,26.6-7.6,39.5
	l0.1,0.1c-0.7,0.5-1,1.3-0.8,2.1c-0.1,0.2-0.2,0.5-0.1,0.8c-0.8,0.5-1.2,1.4-1,2.2c-0.1,0.2-0.1,0.4,0,0.6l-0.9,1.4
	c-0.1,0.2-0.2,0.5-0.1,0.7c-0.8,0.5-1.2,1.3-1.1,2.2v-0.1c-2.5,3.7-4.5,7.8-6,12c-0.7,0.4-1.1,1.2-1.1,2h0.1l-1,1.1v-0.1l-1.1,2
	l0.1,0.1l-1,1.1c-1,0.8-1.7,1.8-2,3c-1.2,0.9-2,2.3-2.3,3.8v-0.1c-0.9,0.4-1.6,1.2-1.8,2.2l-1,1.8v-0.1c-1.2,0.5-2,1.7-2.1,3h0.1
	l-1,1.1v-0.1c-0.9,0.4-1.6,1.2-1.9,2.2c-0.7,0.4-1.2,1.1-1.2,1.9l0.1,0l-1,1.1l0.1,0L658,390v-0.1c-1.7,1-3.1,2.4-4,4.1l-6.9,6.9
	l-1.1,1.1l0.1-0.1L645,403V403c-1,0.3-1.8,1-2.1,2h0.1l-1.1,1l0-0.1l-1.1,1v-0.1c-0.8,0-1.6,0.4-1.9,1.2c-1,0.2-1.8,0.9-2.2,1.9h0.2
	l-1.1,1v-0.1c-0.8,0-1.6,0.4-2,1.2h0.1l-0.9,1l0.1-0.1l-1.9,1.2l-1.1,1l0.1-0.1l-1.1,1l0.1-0.1L627,417c-1.2,0.3-2.3,1-3,2h0.1
	l-1.5,1l-1.5,0.9L620,422v-0.1c-2,0.3-3.8,1.4-5.1,3h0.1c-0.8-0.1-1.6,0.4-2,1.1v-0.1c-1.3,0-2.5,0.7-3.1,1.9l0.1,0.1
	c-1.1-0.2-2.3,0.3-3,1.1l0,0l-1,1v-0.1c-1.1-0.1-2.3,0.3-3,1.2l0,0c-14.7,6.2-29.5,12.1-44.9,16c-19.3,4.8-39.1,7.7-59,8.8
	c-1.9-2.1,0.3-3.3,1-4.8c4.9-9.2,6.1-18.5,0.5-27.9c-6.9-11.7-21.7-11.9-28.9-7.6c-9.8,5.8-12.3,18.8-6.2,29.5
	c2.5,4.3,5.7,8.1,9.6,11.2l-16.1,0.2c-0.2-1.7-0.5-3.5-0.7-5.2c0.2-2.9,0.1-5.8-1.5-8.6c-1.8,1.5-1.2,3.1-0.7,4.6
	c-0.1,0.3-0.1,0.7,0,1c-1.3,2.5-2,5.1-1.1,8l-0.1,2.9c-0.7,0.5-1,1.3-1,2.2c-1.3,11.4-2.8,22.8-4,34.2c-0.5,4.6-2.3,7-7.1,8.1
	c-13.2,2.9-26.7,3.7-40.1,4.4c-13.3,0.7-26.6,0.1-39.7-1.7c-4-0.6-5.6-2.1-3.5-6.2c1.6-2.8,2.3-6,2-9.2c-2.6-19.2-2.1-38.5-1.6-57.8
	c0-1.5,0.6-3.2-0.8-5.5c-0.8,2.1-1.5,3.7-2.1,5.4c-1.3,4.1-2,8.4-2.3,12.7c-0.2,2.4-1,3.8-3.7,3.2L350.9,448.8z M374.5,220.3
	c8.4-7.4,10.7-15.6,6.6-24.4c-4-8.4-13.8-13.4-23.3-11.6c-9.2,1.6-16.6,9.8-17.4,19.4c-0.4,4-0.4,8,1.3,11.8
	c-13.4,9.9-28.7,15.4-45,18c-23.1,3.8-46.1,3.1-68.6-4.2c-10.5-3.4-20.2-8.3-28.1-17.9c-0.3,4.8,1.7,7.3,4.1,9.5
	c6,5.4,13,9.4,20.7,11.8c35.1,11.5,69.7,10.9,103.5-4.7c5.8-2.7,11.1-6.1,15.9-10.2C348.7,226.4,365.9,227.9,374.5,220.3z
	 M353.5,127.3c-11.5,0.1-20.9,9.4-21.1,20.9c-0.2,11.3,9.5,20.7,21.2,20.6c11.5,0,20.7-9.3,20.7-20.8
	C374.3,136.6,365,127.3,353.5,127.3L353.5,127.3z M297.3,73.1c-4.3-0.1-6,2-6.1,5.9c-0.3,3.1,2,5.9,5.2,6.1c0,0,0,0,0,0
	c0.3,0,0.7,0,1,0c4-0.2,5.7-2.7,5.9-6.5C303.3,74.6,301.2,73.2,297.3,73.1L297.3,73.1z M460.6,305c4-0.1,5.5-3.1,5.4-6.5
	c-0.1-3.8-2.7-5.3-6.4-5.4c-4-0.1-5.1,2.4-5.4,5.6C454.6,302.7,456.7,305,460.6,305z M300,64.7c0-1.4-1.2-2.5-2.6-2.4c0,0,0,0,0,0
	l0,0c-1.7-0.1-2.2,1-2.2,2.5c-0.1,1.2,0.8,2.2,2,2.3c0.2,0,0.3,0,0.5,0C299.2,67.1,300.2,66.4,300,64.7z"/>
<path class="st8" d="M454.1,423.4c7.9-5.2,6.1-29.2-6.4-43.6c-14.7-17-46-22.6-63.7-6.7c-13,11.7-17.7,34.3-9.8,42.1
	c8.4,8.3,24-6.5,51.9,0C442.8,419,448.7,427,454.1,423.4z"/>
<path class="st9" d="M650.1,311.1c3.5-6.2,9.4-10.8,12.3-17.4c0.8-1.9,3.5-4.2,0.4-6s-5,0.7-6.4,3.1c-0.8,1.6-1.3,3.4-1.7,5.2
	c-1.2,4.7-1.8,4.9-5.6,1.5c-6-5.4-13.1-8.3-21-9.5c-5.7,0.8-10.7,5.9-12,12.3c-0.5,2.4-0.8,4.9-1.2,7.4c-0.4,2.2-0.8,4.4-1.2,6.8
	c-2.7-1.2-3.1-3.7-4.2-5.6c-4.2-7.2-8.6-14.1-15.3-19.4c-6.1-4.9-12.7-5.4-19.6-2.4c-7,2.9-13.1,7.5-17.7,13.4c-1,1.3-2.1,3.4-3.7,3
	c-2.1-0.5-0.8-2.8-1-4.4c-0.2-1.1,0-2.3-0.1-3.5c-0.6-6.1-4.5-8.1-9.7-5c-1.8,1-3.5,2.3-6.4,4.1c2.3-6.6,4.8-11.7,5.5-17.3
	s2.5-11,0.8-16.7c-1.8-6-5.6-9.3-11.7-9.6c-7-0.4-14,0.7-20.5,3.2c2.8-7.2,5.7-13.3,7.1-19.9c2.1-10,4.9-20.1,1.1-30.4
	c-1.1-3.3-3.5-6.1-6.6-7.7c-5-2.6-10.5-4.3-16.2-4.8c-10.9-1.1-21.8-1.4-32.7,0.4c-4.5,0.7-5.2,3-4.4,7c4,18.7,11.7,35.6,24.2,50.1
	c11.6,13.6,20.4,29.1,30,44.1c9.8,15.5,21.4,29.4,37.7,38.4c17.1,9.5,35.3,11.9,54.4,6.6c8.4-2.5,16.6-5.9,24.4-10l2-1.1l1.9-1
	l1.2-1l0,0c1.1-1.7,3-2.8,5-3l0,0l1-1l0,0c0.2-1.8,1.8-2.2,3-3C645.2,315.4,647.5,313.1,650.1,311.1z"/>
<path class="st9" d="M460.5,160.7c6-3.4,10.1-8.6,13.8-14.2c7.5-11.6,6-21.2-5-29.6c-11.3-8.7-24.5-13.2-38.4-15.7c-1-0.2-2,0-3-0.1
	c-3.7-0.3-3.9,1.2-2.4,4c5.4,10.2,10.4,20.7,12.8,31.9c3.5,16.2,11.5,30.8,16.1,46.5c1.4,4.9,4.3,6.1,9.1,3.8
	c6.3-3,10.4-8.2,13.1-14.4c1.7-4-0.5-7.6-5.5-9.6c-1.7-0.6-3.5-1-5.3-1.2c-1.6-0.2-3.2-0.2-4.8-0.3L460.5,160.7z"/>
<path class="st9" d="M407.3,55.2c-0.1-5.4-0.8-10.8-2.1-16.1c-4.3-16.2-12.8-17.8-25.7-15.4c-8.4,1.5-15.9,5.6-22.8,10.7
	c-2.7,2-2.8,3.4,0.4,4.8c16.7,7.2,31.7,17.6,44.2,30.8c2.5,2.6,3.7,1.5,4.1-1.3C406.2,63.8,406.8,58.8,407.3,55.2z"/>
<path class="st9" d="M274,32.8c13.4-3.8,27.2-4,41-3.5c3.3,0.1,6.6,0.6,9.9,0.9s4-1.2,2.4-3.9c-4.5-8.2-11.2-14.9-19.3-19.6
	c-7.3-4.2-14.1-2-20.3,2.8c-6.8,5.3-11.5,12.4-15.6,19.8c-0.5,1-1.3,2.1-0.4,3.2C272.3,33.3,273.2,33,274,32.8z"/>
<path class="st10" d="M475.2,247.1c-3,1.8-6.6,0.9-9.7,3.2c-6.4,4.9-7.5,11.4-6,18.3s5.7,12.1,12.8,14.1c6.4,1.8,13.7-2.7,15.6-9.2
	c0.6-2.2,0.6-4.6,2.3-6.5C485.6,260.1,480.6,253.5,475.2,247.1z"/>
<path class="st9" d="M246.1,34.4c-3.8-1.2-7.5-2.5-11.4-3.5c-7.9-2-12.8,0.2-16.2,7.7c-1.8,4-2.9,8.4-4.3,12.6
	c0.3,2.5-1.4,6.1,1,7.4s4.5-1.9,6.7-3.2c8.7-5.5,17.8-10.3,27.2-14.3c1.5-0.6,3.2-1.1,4-2.8l-2-1.1l0,0l-1.2-1c-0.3,0-0.5,0-0.8-0.1
	l-1.2-0.9L246.1,34.4z"/>
<path class="st9" d="M421.3,72.2c-3.6-0.4-7.4,0.3-11.1,1c-3.1,0.6-4.7,1.4-2.2,4.8c3.8,5,7.2,10.3,11,15.4
	c3.3,4.5,10.3,4.1,13.5-0.6c1.5-2,2.7-4.2,3.7-6.5c3.3-9.1,0.3-12.5-8.1-14.1C425.9,71.8,423.7,72.2,421.3,72.2z"/>
<path class="st4" d="M643.1,318c-1.2,0.8-2.8,1.3-3,3c1.4,0.1,2.6,0.9,3.1,2.2c1.4-0.5,2.5-1.5,3.2-2.9
	C644.9,320.1,643.3,320,643.1,318z"/>
<path class="st4" d="M639.1,322.1c-2,0.2-3.9,1.3-5,3C636.2,325.4,638.3,324.1,639.1,322.1z"/>
<path class="st4" d="M613.1,340.2c1.9-0.1,3.7-0.8,5.1-2C616.2,338.1,614.2,337.9,613.1,340.2z"/>
<path class="st4" d="M636.2,328.3c1.7-0.4,3.2-1.5,4.1-3C638.1,325.1,637,326.5,636.2,328.3z"/>
<path class="st4" d="M618.2,338.2c1.6-0.1,3.1-0.8,4.1-2C620.5,336,618.9,336.3,618.2,338.2z"/>
<path class="st4" d="M219.2,63.2c1-0.2,1.8-0.9,2.2-1.8C220,61.2,219.3,61.9,219.2,63.2z"/>
<path class="st4" d="M631.1,327l-2,1.1C630.7,329.5,630.9,328.2,631.1,327z"/>
<path class="st4" d="M631.2,331.3c0.9,0,1.7-0.4,2.3-1.1C632.6,330,631.6,330.5,631.2,331.3z"/>
<path class="st4" d="M622.2,336.3c0.8,0.1,1.6-0.3,2.1-1.1C623.4,335.1,622.5,335.5,622.2,336.3z"/>
<path class="st4" d="M640.2,325.3l1.9-1.2C641.3,324.1,640.5,324.5,640.2,325.3z"/>
<path class="st4" d="M212.3,68.4c0.8,0,1.6-0.4,1.9-1.2C213.4,67.1,212.6,67.6,212.3,68.4z"/>
<path class="st4" d="M217.3,64.4c0.8,0,1.6-0.4,2-1.2C218.5,63.1,217.6,63.6,217.3,64.4z"/>
<path class="st4" d="M221.3,61.4c0.9,0,1.7-0.4,2.1-1.1C222.5,60.1,221.7,60.6,221.3,61.4z"/>
<path class="st4" d="M251.2,37.2l2,1.1C252.8,37.5,252,37.1,251.2,37.2z"/>
<path class="st4" d="M624.2,335.3c0.8,0.1,1.7-0.3,2.1-1.1C625.4,334.1,624.5,334.5,624.2,335.3z"/>
<path class="st4" d="M626.2,334.3c0.8,0,1.6-0.4,2.1-1.1C627.4,333.1,626.5,333.5,626.2,334.3z"/>
<path class="st4" d="M628.2,333.3c0.8,0,1.6-0.4,2.1-1.1C629.4,332.1,628.6,332.5,628.2,333.3z"/>
<path class="st4" d="M634.1,325.1l-1.2,1L634.1,325.1z"/>
<path class="st4" d="M635.2,329.2l1.1-1L635.2,329.2z"/>
<path class="st4" d="M630.2,332.2l1.1-1L630.2,332.2z"/>
<path class="st4" d="M611.2,341l1.5-0.8L611.2,341z"/>
<path class="st4" d="M640.1,321.1l-1,1L640.1,321.1z"/>
<path class="st4" d="M248,35.2l1.2,0.9L248,35.2z"/>
<path class="st4" d="M250,36.2l1.2,1L250,36.2z"/>
<path class="st4" d="M216.3,65.3l1.1-1L216.3,65.3z"/>
<path class="st4" d="M215.2,66.3l1.1-1L215.2,66.3z"/>
<path class="st4" d="M214.2,67.2l1.1-1L214.2,67.2z"/>
<path class="st4" d="M456.9,480.1c-2.7,1.3-2.1,3.1-0.7,5C456.8,483.5,457.1,481.8,456.9,480.1z"/>
<path class="st11" d="M457.9,475c-0.1,0.7-0.2,1.4-0.3,2.1C458.9,476.5,459.1,475.8,457.9,475z"/>
<path class="st12" d="M288.2,424.1c8.7,4.4,17.3,8.7,26,13c1.9,0.9,3.7,2.3,6,1.9c-3.3-5.8-8.1-10.3-12.1-15.5
	c-9.6-12.9-19.5-25.5-29.2-38.3l-0.8-1l-1-1.2l0,0l-1.4-1.9c-2.7-3.1-5.4-6.2-8.1-9.3c-0.9-1-2-2-3.5-1.5s-1,1.9-1.1,3
	c-1.8,22.5-0.3,44.8,1.8,67.1c1.2,11.4,3,22.7,5.3,33.9c0.7,3.7,0.2,6.4-3.3,8.4c-1.7,1-4.1,2.7-3.4,5c0.6,2.1,3.2,1.9,5.1,2.2
	c20.6,3,41.5,3,62.1,0c4.3-0.6,6.7-2.4,7.4-7c0.9-5.7,2.2-11.4,3.6-17c0.8-3.1-0.2-4.2-3.3-5.2c-15.6-5.2-30.2-12.4-41.6-24.7
	C293.5,432.4,289.9,428.9,288.2,424.1l-0.2-0.4L288.2,424.1z"/>
<path class="st12" d="M319.1,401.1c0.1-1.8,1.6-1.8,2.8-2.2c24.9-8.9,44.9-24.6,61.9-44.6c7.7-9.1,13.6-19.2,19.4-29.5
	c1-1.7,2-3.5,2-5.6c-3.3,1.6-4.8,4.9-7.1,7.5c-18.6,21.5-42.7,33.3-70,39.3c-6.6,1.5-13.3,2.5-20.1,2.9c-4.3,0.2-8.6,1.5-12.9,0.7
	c0.1,0.7,0.3,1.5,0.4,2.2c0.7,0.6,1.5,1.3,2.1,2C304.9,383,312,392.1,319.1,401.1z"/>
<path class="st13" d="M292.4,372.1c-0.2-0.1-0.3-0.3-0.3-0.5l-1.2-1.5c-4.1-1.7-7.8-0.2-10.9,2.3c-4.8,3.9-0.8,7.1,1.3,10.3l1,1.3
	c0.2,0.3,0.4,0.5,0.6,0.8c11.8,15.3,23.6,30.6,35.4,45.9c1.9,2.5,3.5,6.2,6.4,6.7s3.9-4.1,6.5-5.4c5-2.5,3.9-5,1-8.7
	C318.9,406.3,305,389.7,292.4,372.1z"/>
<path class="st5" d="M292.4,372.1c12.6,17.6,26.5,34.2,39.8,51.3c2.9,3.7,4,6.3-1,8.7c-2.6,1.3-3.5,6-6.5,5.4s-4.5-4.2-6.4-6.7
	c-11.9-15.2-23.7-30.5-35.4-45.9l-3.9,0.3c9.8,12.8,19.6,25.5,29.2,38.3c3.9,5.2,8.8,9.8,12.1,15.5h2.1c2,1.7,3.9,0.3,5.9,0
	c0.4-0.5,0.8-1.1,1.2-1.6c6.8-7.6,7-7.6,12.8,0.6c1.1,0,2,1,2,2.1c0,0,0,0.1,0,0.1c2.1-2,0.9-3.8-0.3-5.7
	c-7.3-11.9-16.1-22.6-24.8-33.5c-7.1-9.1-14.2-18.1-21.4-27.1c-0.7-0.7-1.4-1.4-2.1-2L292.4,372.1z"/>
<path class="st14" d="M342.2,438.1c-5.7-8.2-6-8.2-12.8-0.6c-0.4,0.5-0.8,1-1.2,1.6C333.5,448.1,335.7,448,342.2,438.1z"/>
<path class="st11" d="M354.9,473v-7.4l-7.9-2.4c1,4.1-1.5,7.2-1.4,10.8C348.3,470.2,351.4,470.3,354.9,473z"/>
<path class="st5" d="M295.2,369.7c4.4,0.8,8.6-0.5,12.9-0.7C303.7,368.1,299.3,366.6,295.2,369.7z"/>
<path class="st4" d="M350.7,449c-1.9-1.7-4.2-1.8-6.6-2C346,448.5,348.4,449.3,350.7,449z"/>
<path class="st4" d="M343.7,447l-3.3-1.2C340.9,447.8,342.5,446.8,343.7,447z"/>
<path class="st5" d="M342.2,443.1c1-0.4,1.8-1,1.7-2.2C342.9,441.2,342.2,442.1,342.2,443.1z"/>
<path class="st5" d="M275.8,381.2l1.4,1.9C277.2,382.2,276.7,381.4,275.8,381.2z"/>
<path class="st12" d="M322.3,439.1h-2.1C320.9,440.3,321.6,440.2,322.3,439.1z"/>
<path class="st4" d="M241.3,354.1l-1.1-1.1L241.3,354.1z"/>
<path class="st4" d="M243.4,356l-1.2-1.1L243.4,356z"/>
<path class="st5" d="M290.9,370.2l1.2,1.5L290.9,370.2z"/>
<path class="st5" d="M282.2,384.1l-1-1.3L282.2,384.1z"/>
<path class="st5" d="M277.2,383.1l1,1.2L277.2,383.1z"/>
<path class="st13" d="M122.2,158.2c-2.2,2.9-4.9,5.4-7.9,7.3c-2.8,1.9-3,3.9-0.9,6.6s3.9,5.3,5.8,7.9l36,45.3
	c9.2,11.6,18.4,23.2,27.5,34.9c2,2.6,3.5,3.5,6.1,0.7c3.7-3.9,8.1-3.6,12.8-1c-13.5-17.2-26.7-34.2-39.5-51.5
	c-12.8-15.1-24.4-31.1-36.5-46.7C124.6,160.4,124,158.8,122.2,158.2z"/>
<path class="st0" d="M217.4,295.2V292c-0.6-2.3-1.1-5-4-5c-5.7-0.2-6.5,5.1-8.8,8.9c-0.8-0.7-1.2-1.9-0.9-2.9
	c0.5-3.3,1.9-6.4,4.1-8.9c2.4-3.2,1.4-6.8-1.2-8.9c-2.7-2.3-5.1,0.3-7.2,2.2c-1.4,1.3-1.9,3.5-4.1,4.4c-0.8-3.5,1.1-6,3.2-8
	c2.3-2.2,3.2-4.5,2.4-7.5l0.1,0.1c-0.7-0.4-1.1-1.2-1.1-2h0.2l-1.4-1.1c-3.6-1-6.1,0.9-8.3,3.3c-7.7,8.4-10,18.3-6.4,29
	c3.4,10.2,11.2,15.3,21.5,16.6c2.7,0.4,5.5,1.7,8.2,0c-1.3-2.9-2-5.8,0.4-8.5c-0.1-0.1-0.1-0.3,0-0.4c0,0,0,0,0,0h0.1l1-1.2
	l-0.1,0.1c0-0.8,0.4-1.6,1.1-2.1l-0.1,0.1c-0.1-0.8,0.3-1.6,1-2.1l-0.1,0.1L217.4,295.2z"/>
<path class="st12" d="M324.3,290c1.9-3.4,5.2-5.4,8-7.9c2-1.8,4.5-3.3,5.9-6.8c-7.8,2.2-14.8,4.8-22.2,6
	c-15.1,2.6-30.3,3.8-45.5,1.1c-1.2-0.1-2.3-0.1-3.5,0c-0.9,6.9-1.8,13.8-2.7,20.7c-0.5,3.7,1.6,3,4,2.4c15.2-3.5,30.1-7.9,45-12.4
	C317,291.9,320.6,291,324.3,290z"/>
<path class="st12" d="M230.1,292.4c4.7,6.3,9.3,12.5,14,18.8c0.8,1,1.5,1.7,2.9,1.1c3.2-1.4,6.4-2.8,9.6-4.1
	c0.9-0.4,1.6-1.3,1.6-2.3c0.6-5.5,1.3-10.9,1.9-16.3c0.2-1.4-0.1-2.7-1.7-3.2c-0.3-0.1-0.7-0.2-1-0.2c-9.8-2.5-19.2-6.2-28.6-10
	c-1.4,3.1,2.8,5.6,0.1,8.3C229.4,287.1,229.8,289.8,230.1,292.4z"/>
<path class="st13" d="M220.8,290.1c1,4.7,0.7,9.3-2,13.5c-1.1,1.4-0.9,3.3,0.4,4.4c4.2,4.7,8.3,9.5,12.3,14.4
	c1.5,1.8,2.5,1.8,3.7-0.1c0.5-0.8,1.3-1.5,1.8-2.4c1.3-2.1,5.2-2.7,4.8-5.2s-2.8-4.4-4.4-6.5c-4.4-6-9.6-11.4-13.4-17.9
	C223,290.2,222,288.4,220.8,290.1z"/>
<path class="st0" d="M230.1,292.4c-0.4-2.7-0.7-5.3-1.1-8c-4.1-7.8-8.6-15.2-15.2-21.1c-3-2.7-5.7-4.4-9.2-1
	c-0.1,4.5-1.4,9.7,5.9,10c1.1,0,2.3,1.3,3.1,2.2c4,4.5,7.8,9,11.7,13.6L230.1,292.4z"/>
<path class="st5" d="M224.1,290.3c-1.1-0.1-2.1-1.9-3.3-0.2c-1.6-0.2-2.5,0.9-3.3,1.9c-0.6-2.3-1.1-5-4-5c-5.7-0.2-6.5,5.1-8.8,8.9
	c-0.8-0.7-1.2-1.9-0.9-2.9c0.5-3.3,1.9-6.4,4.1-8.9c2.4-3.2,1.4-6.8-1.2-8.9c-2.7-2.3-5.1,0.3-7.2,2.2c-1.4,1.3-1.9,3.5-4.1,4.4
	c-0.8-3.5,1.1-6,3.2-8c2.3-2.2,3.2-4.5,2.4-7.5c0.7-0.1,1.8,2.3,2.2-0.3c0.2-1.4-0.3-3,1.4-3.7c-0.1,4.5-1.4,9.7,5.9,10
	c1.1,0,2.3,1.3,3.1,2.2c4,4.5,7.8,9,11.7,13.6C224.6,288.5,224.1,289.4,224.1,290.3z M216.6,283.6c-0.1-0.2-0.2-0.4-0.3-0.6
	c-1.4-2.4-1.4-2.4-3.8-4.1c-1.1,3.3,0.4,4.5,3.4,4.4L216.6,283.6z"/>
<path class="st9" d="M180.4,98.8c3.4-4.7,5.6-9.2,9.2-12.7c0.6-0.6,0.9-1.4,0.8-2.2c-0.4-1.2-1.7-0.8-2.6-0.6
	c-4.4,0.8-6.1,4.2-7.1,8.1C180.1,93.8,180,96.3,180.4,98.8z"/>
<path class="st5" d="M214.1,303.6c-2.3,2.7-1.6,5.6-0.4,8.5C215.1,309.3,213.8,306.4,214.1,303.6z"/>
<path class="st5" d="M217.4,295.2L217,298C218.4,297.3,218.4,296.3,217.4,295.2z"/>
<path class="st5" d="M200,264.2c-0.1,0.8,0.4,1.6,1.1,2C201.3,265.4,200.8,264.5,200,264.2z"/>
<path class="st5" d="M216.1,300c-0.7,0.4-1.1,1.2-1.1,2.1C215.8,301.7,216.3,300.8,216.1,300z"/>
<path class="st5" d="M217.1,298c-0.7,0.5-1.1,1.3-1,2.1C216.8,299.7,217.2,298.8,217.1,298z"/>
<path class="st5" d="M215.1,302l-1,1.2L215.1,302z"/>
<path class="st11" d="M163.9,205.5c0.3,0.3,0.8,0.8,0.9,0.8c0.6-0.5,0.4-1.1,0.1-1.6L163.9,205.5z"/>
<path class="st5" d="M198.7,263.2l1.4,1.1L198.7,263.2z"/>
<path class="st10" d="M499.2,455.7c-1.9-2.1,0.3-3.3,1-4.8c4.9-9.2,6.1-18.5,0.5-27.9c-6.9-11.7-21.7-11.9-28.9-7.6
	c-9.8,5.8-12.3,18.8-6.2,29.5c2.5,4.3,5.7,8.1,9.6,11.2l5.9,0.5c3.7-0.5,7.4-0.6,11.1-0.3L499.2,455.7z"/>
<path class="st4" d="M499.2,455.7l-6.9,0.6c8.4,2.1,16.8,0.2,25.2-0.6c14.2-1.4,28.2-3.9,42-7.7c13.9-3.9,27.8-8,40.8-14.5
	c1.2-0.6,2.4-1.2,2.9-2.6c-14.7,6.2-29.5,12.1-44.9,16C538.9,451.8,519.1,454.7,499.2,455.7z"/>
<path class="st4" d="M481.1,456.6l-5.9-0.5l-16.1,0.2c0.4,0.5,0.8,1.4,1.2,1.4c6.6,0.6,13.3,0.6,19.9,0
	C480.5,457.7,480.8,457,481.1,456.6z"/>
<path class="st4" d="M456.3,448.1c-1.3,2.5-2,5.1-1.1,8c1.9-1.1-0.3-4.9,3.2-5c0.2-2.9,0.1-5.8-1.5-8.6c-1.8,1.5-1.2,3.1-0.7,4.6
	c0.1,0.1,0.3,0.2,0.3,0.3C456.5,447.6,456.4,447.9,456.3,448.1z"/>
<path class="st4" d="M682.9,351c-2.5,3.7-4.5,7.8-6,12C680.5,360,682.6,355.6,682.9,351z"/>
<path class="st4" d="M657.9,389.9c-1.7,1-3.1,2.4-4,4.1C656.5,393.8,658,392.6,657.9,389.9z"/>
<path class="st4" d="M620,421.8c-2,0.3-3.8,1.4-5.1,3C617.2,424.9,619.1,424.2,620,421.8z"/>
<path class="st4" d="M671.1,372.1c-1.2,0.9-2,2.3-2.3,3.8C671,375.5,671.1,373.8,671.1,372.1z"/>
<path class="st4" d="M613,425.9c-1.3,0-2.5,0.7-3.1,1.9C611.6,428.2,612.5,427.4,613,425.9z"/>
<path class="st4" d="M627.1,417c-1.2,0.3-2.3,1-3,2C625.6,419.1,627,419,627.1,417z"/>
<path class="st4" d="M673.1,369.1c-1,0.8-1.7,1.8-2,3C673,371.9,673.1,370.5,673.1,369.1z"/>
<path class="st4" d="M665.9,379.9c-1.2,0.5-2,1.7-2.1,3C665.5,382.6,666.1,381.5,665.9,379.9z"/>
<path class="st4" d="M645,403c-1,0.3-1.8,1-2.1,2C644.3,405,645,404.4,645,403z"/>
<path class="st4" d="M639,408c-1,0.2-1.8,0.9-2.2,1.9C638.3,410.1,639,409.4,639,408z"/>
<path class="st4" d="M668.9,375.9c-0.9,0.4-1.6,1.2-1.8,2.2C668.4,378,669.1,377.3,668.9,375.9z"/>
<path class="st4" d="M662.9,383.9c-0.9,0.4-1.6,1.2-1.9,2.2C662.4,386,663.1,385.3,662.9,383.9z"/>
<path class="st4" d="M606,429.8c-1.1-0.1-2.3,0.3-3,1.2C604.2,431.1,605.4,431.2,606,429.8z"/>
<path class="st4" d="M610,427.8c-1.1-0.2-2.3,0.3-3,1.2C608.2,429.1,609.4,429.2,610,427.8z"/>
<path class="st4" d="M687,341c-0.7,0.5-1,1.3-0.8,2.1C686.8,342.6,687.2,341.8,687,341z"/>
<path class="st4" d="M661,386c-0.7,0.4-1.2,1.1-1.2,1.9C660.7,387.6,661.2,386.8,661,386z"/>
<path class="st4" d="M641,406.8c-0.8-0.1-1.6,0.4-2,1.2C639.9,408,640.7,407.8,641,406.8z"/>
<path class="st4" d="M684,348.8c-0.8,0.4-1.2,1.3-1.1,2.2C683.7,350.6,684.2,349.7,684,348.8z"/>
<path class="st4" d="M686,343.9c-0.8,0.5-1.2,1.4-1,2.2C685.7,345.6,686.1,344.8,686,343.9z"/>
<path class="st4" d="M633,412.9l-1.9,1.2C631.9,414.1,632.7,413.6,633,412.9z"/>
<path class="st4" d="M629,415.9l-2,1.1C627.8,417.1,628.7,416.6,629,415.9z"/>
<path class="st4" d="M615,424.8c-0.8-0.1-1.6,0.4-2,1.1C613.9,426,614.7,425.8,615,424.8z"/>
<path class="st4" d="M667.1,378.1l-1.2,1.9C666.7,379.7,667.2,378.9,667.1,378.1z"/>
<path class="st4" d="M636,410.8c-0.8,0-1.6,0.4-2,1.2C634.9,412,635.7,411.8,636,410.8z"/>
<path class="st4" d="M676.9,363c-0.7,0.4-1.1,1.2-1.1,2C676.8,364.6,677,363.9,676.9,363z"/>
<path class="st4" d="M675,366l-1.1,2C674.7,367.6,675.1,366.8,675,366z"/>
<path class="st4" d="M659,388.9l-1.1,1.1L659,388.9z"/>
<path class="st4" d="M647.1,400.9l-1.1,1.2C646.3,401.7,646.7,401.3,647.1,400.9z"/>
<path class="st4" d="M646.1,402L645,403L646.1,402z"/>
<path class="st4" d="M643,404.9l-1.1,1.1L643,404.9z"/>
<path class="st4" d="M642,405.9l-1.1,1L642,405.9z"/>
<path class="st4" d="M634.1,412l-1.1,1L634.1,412z"/>
<path class="st4" d="M631.1,414.1l-1.1,1L631.1,414.1z"/>
<path class="st4" d="M630.1,415l-1.1,1L630.1,415z"/>
<path class="st4" d="M624.1,419l-1.5,1L624.1,419z"/>
<path class="st4" d="M621.1,420.9L620,422L621.1,420.9z"/>
<path class="st4" d="M676,364.9l-1,1.1L676,364.9z"/>
<path class="st4" d="M607.1,429l-1.1,1L607.1,429z"/>
<path class="st4" d="M637,409.9l-1.1,1L637,409.9z"/>
<path class="st4" d="M674,368l-1,1.1L674,368z"/>
<path class="st4" d="M685,346.7l-0.9,1.4L685,346.7z"/>
<path class="st4" d="M663.9,382.9l-1,1.1L663.9,382.9z"/>
<path class="st4" d="M660,387.9l-1,1.1L660,387.9z"/>
<path class="st6" d="M35.2,74.2l-2.8,2.5l-3.4,3.2L29,80l-4.6,4.4l-1.8,1.8l-8.3,8.6l-3,3.3l-2.8,3.4c-0.2,0.5-0.5,1.1-0.7,1.6
	c1.6-0.4,2,0.5,2.4,1.8c4.2,14.7,14.2,24.4,27.3,31.3c15.7-17,31.8-33.7,49-49.2c2.8-2.6,5.6-5.3,9-7.1c1.2-0.6,1.9-1.3,1.6-2.7
	c-5.7-4.1-9.4-10.1-14.5-14.8c-1.2-1.1-2.3-2.4-3.5-3.5c-7.9-7.1-13.4-7.5-22.3-1.8C48.9,62.2,42.3,68.5,35.2,74.2z"/>
<path class="st15" d="M113.3,138.8c-1.9,5-1.9,5-7.6,0.4c0.5,4-1.9,8.5,1.7,12.1l-4.1,4c-4.5-0.7-8.5-2.5-12.7-4.2
	s-8.2-3.3-13.1-5.4c4.5,9,11.8,13,20.1,15.4c0.3,2.6-1.2,3.2-3.4,3.1c-4.2-2.4-8.9-1.9-13.4-3c-7.4-1.8-14.6-4.5-21.3-8
	c-2.2-1.1-4.1-2.9-5.3-5.1l0,0c4.7-0.1,8.5,3.5,13.4,3.2L43,137.1c5.4-7.4,12-13.7,18.4-20.2c10.9-11.1,21.8-22.2,33.9-32.1
	c1.6-1.3,3.2-3.8,5.9-1.6l0,0l1,1.1l-0.1-0.1c0.3,0.4,0.7,0.7,1.1,1.1l-0.1-0.1l1.1,1.1h-0.1c3.3,4,6.5,8,9.9,11.9
	c7.8,8.8,10.7,19.5,11,30.8c0.2,6.5-1.7,12.6-8.8,15.3C115.9,142.2,114.9,140.3,113.3,138.8z M104.1,132.4c0.6,1.1,1.6,2.4,3,2.2
	c1.3-0.2,1-1.5,1.1-2.4c0.2-5.5-7.9-17.7-14.7-20.1C97.5,119.6,100.7,126,104.1,132.4z M113.4,115c-0.9-1.3-2.3-2.3-3.8-1.6
	c-2.2,1.1-0.4,2.6,0.2,3.7c1.7,3.6,3.5,7.1,5.3,10.6c0.5,1,1,2.4,2.5,1.7c1-0.5,0.7-1.7,0.7-2.4C117.5,122.7,115.9,118.6,113.4,115z
	 M69.9,152.8l0.4,0.1l0.1-0.3l-0.4-0.1L69.9,152.8z"/>
<path class="st16" d="M94.2,164.3c-4.2-2.4-8.9-1.9-13.4-3c-7.4-1.8-14.6-4.5-21.3-8c-2.2-1.1-4.1-2.9-5.3-5.1l-0.2-0.3l0.2,0.4
	c4.7-0.1,8.5,3.5,13.4,3.2L43,137.1c-1.1,1.2-2.2,2.4-3.2,3.7c-4.8,6-4.7,5.9,1.9,10.4c14.3,9.7,30,14.7,47.3,14.1
	C90.8,165.2,92.7,165.6,94.2,164.3z"/>
<path class="st17" d="M37.4,136.3c-13.1-6.9-23.1-16.6-27.3-31.3c-0.4-1.3-0.8-2.2-2.4-1.8l-1,0.2l-2.4,3.8c-2.2,6-0.1,11,3.8,15.6
	c5.5,6.5,11.8,12.1,18,17.8c3.5,3.2,6,3.5,8.6-0.7C35.5,138.6,36.5,137.5,37.4,136.3z"/>
<path class="st16" d="M103.3,155.3c-4.5-0.7-8.5-2.5-12.7-4.2s-8.2-3.3-13.1-5.4c4.5,9,11.8,13,20.1,15.4L103.3,155.3z"/>
<path class="st14" d="M103.3,164.9c2.7,1.4,5,1.4,7-1.4c1.4-1.9,3.5-3.4,5.2-5.1c-2.7-0.8-1.9-4.7-4.7-5.4c-3.3,1.7-5.3,5-8.2,7.2
	S101.2,163.6,103.3,164.9z"/>
<path class="st7" d="M110.8,153c2.8,0.7,2,4.5,4.7,5.4c2.6-0.7,3.9-3.7,6.7-4.2c2.2-3.2-0.5-5.6-1.5-8.2c-0.4-1.2-1.7-0.1-2.5,0.4
	C115.6,148.4,112.8,150.2,110.8,153z"/>
<path class="st16" d="M116.2,144.4c-0.3-2.1-1.3-4.1-2.9-5.5c-1.9,5-1.9,5-7.6,0.4c0.5,4-1.9,8.5,1.7,12.1L116.2,144.4z"/>
<path class="st1" d="M643.1,318c0.2,2,1.8,2.1,3.3,2.4l-0.1-0.1l1.1-1v0.1c0.3-0.7,0.9-1.3,1.7-1.3l0.1-0.1c0-0.8,0.5-1.5,1.3-1.7
	l-0.1,0l1.1-1h-0.1l1.1-1.1l0.1,0.1c-0.3-1.4-0.3-3-2.3-3.2C647.4,313,645.1,315.3,643.1,318z"/>
<path class="st5" d="M22.5,86.3l1.8-1.8c0-1.2-0.9-2.2-2.1-2.3l-1,1l-1,1C20.3,85.4,21.3,86.3,22.5,86.3z"/>
<path class="st5" d="M29,80l0.1-0.1c-0.4-0.2-0.8-0.4-1.2-0.4c-0.5-0.1-0.6,0.2-0.1,0.4C28.1,80,28.6,80,29,80z"/>
<path class="st5" d="M6.8,103.4l1-0.2c0.2-0.5,0.5-1,0.7-1.6c-0.7-1.3-1.9-1.4-3.1-1.4C5,101.6,4.4,103.2,6.8,103.4z"/>
<path class="st5" d="M101.2,83.2l1,1.1L101.2,83.2z"/>
<path class="st5" d="M102.1,84.2c0.3,0.4,0.7,0.7,1.1,1.1L102.1,84.2z"/>
<path class="st5" d="M103.1,85.2l1.1,1.1L103.1,85.2z"/>
<path class="st13" d="M344.1,217.8c4.6,8.6,21.8,10.1,30.4,2.5s10.7-15.6,6.6-24.4c-4-8.4-13.8-13.4-23.3-11.6
	c-9.2,1.6-16.6,9.8-17.4,19.4c-0.4,4-0.4,8,1.3,11.8c1.1-0.4,2.1-2.2,3.3-1S344.6,216.7,344.1,217.8z"/>
<path class="st3" d="M353.7,168.8c-11.7,0.1-21.4-9.2-21.2-20.6c0.2-11.5,9.5-20.8,21.1-20.9c11.5,0,20.8,9.2,20.8,20.7
	C374.4,159.5,365.1,168.8,353.7,168.8z M354.4,144.3c0,3.2,1.6,5.5,5,5.7c3.2,0.2,4.9-1.8,5.2-4.8c0.3-3.4-1.7-5.2-5-5.7
	C356.7,139.8,354.4,141.1,354.4,144.3z"/>
<path class="st4" d="M344.1,217.8c0.5-1.1,2-2.3,0.7-3.4s-2.2,0.7-3.3,1c-13.4,9.9-28.7,15.4-45,18c-23.1,3.8-46.1,3.1-68.6-4.2
	c-10.5-3.4-20.2-8.3-28.1-17.9c-0.3,4.8,1.7,7.3,4.1,9.5c6,5.4,13,9.4,20.7,11.8c35.1,11.5,69.7,10.9,103.6-4.7
	C333.9,225.3,339.3,221.9,344.1,217.8z"/>
<path class="st10" d="M303.2,78.6c0-4-2.1-5.5-5.9-5.6c-4.3-0.1-6,2-6.1,5.9c-0.3,3.1,2,5.9,5.2,6.1c0,0,0,0,0,0c0.3,0,0.7,0,1,0
	C301.4,84.9,303.1,82.5,303.2,78.6z"/>
<path class="st10" d="M454.2,298.7c0.4,4,2.6,6.3,6.5,6.2s5.5-3.1,5.4-6.5c-0.1-3.8-2.7-5.3-6.4-5.4
	C455.5,293,454.5,295.5,454.2,298.7z"/>
<path class="st10" d="M297.7,67.1c1.6,0,2.5-0.8,2.3-2.4c0-1.4-1.2-2.5-2.6-2.4c0,0,0,0,0,0l0,0c-1.7-0.1-2.2,1-2.2,2.5
	c-0.1,1.2,0.8,2.2,2,2.3C297.4,67.1,297.6,67.1,297.7,67.1z"/>
<path class="st12" d="M326.9,290.2l0.7-0.8l-1.1-0.1C326.6,289.7,326.7,290,326.9,290.2z"/>
<path class="st4" d="M649,318.1c-0.8,0-1.5,0.5-1.7,1.3C648,319.3,648.7,318.8,649,318.1z"/>
<path class="st4" d="M650.3,316.2c-0.7,0.3-1.2,1-1.3,1.7C649.8,317.7,650.3,317,650.3,316.2z"/>
<path class="st4" d="M651.3,315.2l-1.1,1C650.8,316.3,651.3,315.8,651.3,315.2L651.3,315.2z"/>
<path class="st4" d="M652.3,314.2c-0.3,0.4-0.7,0.7-1.1,1.1C651.8,315.3,652.3,314.8,652.3,314.2z"/>
<path class="st4" d="M647.3,319.2l-1.1,1C646.8,320.3,647.3,319.8,647.3,319.2z"/>
<path class="st3" d="M456.3,448.1c0.1-0.2,0.2-0.4,0.3-0.7c0-0.1-0.2-0.2-0.3-0.3C456.2,447.4,456.2,447.8,456.3,448.1z"/>
<path class="st3" d="M288.2,424.1l-0.1-0.4L288.2,424.1L288.2,424.1z"/>
<path class="st12" d="M216.4,283c-1.4-2.4-1.4-2.4-3.8-4.1c-1.1,3.3,0.4,4.5,3.4,4.4L216.4,283z"/>
<path class="st12" d="M216,283.3l0.6,0.2c-0.1-0.2-0.2-0.4-0.3-0.6L216,283.3z"/>
<path class="st18" d="M93.6,112c3.9,7.6,7.2,14,10.5,20.4c0.6,1.1,1.6,2.4,3,2.2c1.3-0.2,1-1.5,1.1-2.4
	C108.4,126.6,100.3,114.5,93.6,112z"/>
<path class="st18" d="M118.2,127.1c-0.6-4.3-2.3-8.5-4.8-12.1c-0.9-1.3-2.3-2.3-3.8-1.6c-2.2,1.1-0.4,2.6,0.2,3.7
	c1.7,3.6,3.5,7.1,5.3,10.6c0.5,1,1,2.4,2.5,1.7C118.5,129,118.2,127.7,118.2,127.1z"/>
<path class="st16" d="M70,152.4l-0.1,0.3l0.4,0.1l0.1-0.3L70,152.4z"/>
<path class="st15" d="M54.2,148.2l-0.2-0.4L54.2,148.2L54.2,148.2z"/>
<path class="st19" d="M359.6,139.4c-2.9,0.4-5.2,1.6-5.2,4.9s1.6,5.5,5,5.7c3.2,0.2,4.9-1.8,5.2-4.8
	C364.8,141.8,362.9,140,359.6,139.4z"/>
<path class="st0" d="M419.1,223.5c-1.3,2.7-11.5,24.8,0,45.7c1.2,2.2,15.2,26.8,34.8,22.4c12.8-2.9,22.9-17.1,22.3-34.3"/>
<path class="st6" d="M438.6,192.6c-8.2-5.2-36.8,13.2-45,39.5c-9.8,31.3,8.7,75.4,43.2,84.5c26.7,7.1,59.1-7.8,60.2-21.9
	c1.4-17.8-48.4-22.5-58.4-59C432.6,213.9,445.5,197,438.6,192.6z"/>
<path class="st20" d="M301.9,120c3.7-7.7-15-30.7-38.8-35.4c-28.2-5.5-64.8,14.9-69.4,45.7c-3.6,23.9,12.5,50.7,24.9,50.3
	c15.6-0.5,14.9-44.3,45.7-56.5C282.8,116.8,298.8,126.5,301.9,120z"/>
</svg>
