<?xml version="1.0" encoding="utf-8"?>
<!-- Generator: Adobe Illustrator 27.9.0, SVG Export Plug-In . SVG Version: 6.00 Build 0)  -->
<svg version="1.1" id="Layer_1" xmlns="http://www.w3.org/2000/svg" xmlns:xlink="http://www.w3.org/1999/xlink" x="0px" y="0px"
	 viewBox="0 0 448 512" style="enable-background:new 0 0 448 512;" xml:space="preserve">
<style type="text/css">
	.st0{fill:#FA7960;}
</style>
<path class="st0" d="M64,80c-8.8,0-16,7.2-16,16v320c0,8.8,7.2,16,16,16h320c8.8,0,16-7.2,16-16V96c0-8.8-7.2-16-16-16H64z M0,96
	c0-35.3,28.7-64,64-64h320c35.3,0,64,28.7,64,64v320c0,35.3-28.7,64-64,64H64c-35.3,0-64-28.7-64-64V96z M152,232h144
	c13.3,0,24,10.7,24,24c0,13.3-10.7,24-24,24H152c-13.3,0-24-10.7-24-24S138.7,232,152,232z"/>
</svg>
